<?xml version="1.0" encoding="utf-8" standalone="no"?>
<!DOCTYPE svg PUBLIC "-//W3C//DTD SVG 1.1//EN"
  "http://www.w3.org/Graphics/SVG/1.1/DTD/svg11.dtd">
<svg xmlns:xlink="http://www.w3.org/1999/xlink" width="496.779471pt" height="341.301981pt" viewBox="0 0 496.779471 341.301981" xmlns="http://www.w3.org/2000/svg" version="1.1">
 <metadata>
  <rdf:RDF xmlns:dc="http://purl.org/dc/elements/1.1/" xmlns:cc="http://creativecommons.org/ns#" xmlns:rdf="http://www.w3.org/1999/02/22-rdf-syntax-ns#">
   <cc:Work>
    <dc:type rdf:resource="http://purl.org/dc/dcmitype/StillImage"/>
    <dc:date>2025-11-01T22:50:14.681093</dc:date>
    <dc:format>image/svg+xml</dc:format>
    <dc:creator>
     <cc:Agent>
      <dc:title>Matplotlib v3.10.7, https://matplotlib.org/</dc:title>
     </cc:Agent>
    </dc:creator>
   </cc:Work>
  </rdf:RDF>
 </metadata>
 <defs>
  <style type="text/css">*{stroke-linejoin: round; stroke-linecap: butt}</style>
 </defs>
 <g id="figure_1">
  <g id="patch_1">
   <path d="M 0 341.301981 
L 496.779471 341.301981 
L 496.779471 0 
L 0 0 
z
" style="fill: #ffffff"/>
  </g>
  <g id="axes_1">
   <g id="patch_2">
    <path d="M 66.732727 282.34145 
L 493.179471 282.34145 
L 493.179471 19.477969 
L 66.732727 19.477969 
z
" style="fill: #ffffff"/>
   </g>
   <g id="matplotlib.axis_1">
    <g id="xtick_1">
     <g id="line2d_1">
      <defs>
       <path id="ma7ae12823e" d="M 0 0 
L 0 3 
" style="stroke: #262626; stroke-width: 0.5"/>
      </defs>
      <g>
       <use xlink:href="#ma7ae12823e" x="120.03857" y="19.477969" style="fill: #262626; stroke: #262626; stroke-width: 0.5"/>
      </g>
     </g>
     <g id="text_1">
      <!-- studenti - secondaria -->
      <g style="fill: #262626" transform="translate(5.0514 314.278045) rotate(-10) scale(0.11 -0.11)">
       <defs>
        <path id="DejaVuSans-73" d="M 2834 3397 
L 2834 2853 
Q 2591 2978 2328 3040 
Q 2066 3103 1784 3103 
Q 1356 3103 1142 2972 
Q 928 2841 928 2578 
Q 928 2378 1081 2264 
Q 1234 2150 1697 2047 
L 1894 2003 
Q 2506 1872 2764 1633 
Q 3022 1394 3022 966 
Q 3022 478 2636 193 
Q 2250 -91 1575 -91 
Q 1294 -91 989 -36 
Q 684 19 347 128 
L 347 722 
Q 666 556 975 473 
Q 1284 391 1588 391 
Q 1994 391 2212 530 
Q 2431 669 2431 922 
Q 2431 1156 2273 1281 
Q 2116 1406 1581 1522 
L 1381 1569 
Q 847 1681 609 1914 
Q 372 2147 372 2553 
Q 372 3047 722 3315 
Q 1072 3584 1716 3584 
Q 2034 3584 2315 3537 
Q 2597 3491 2834 3397 
z
" transform="scale(0.015625)"/>
        <path id="DejaVuSans-74" d="M 1172 4494 
L 1172 3500 
L 2356 3500 
L 2356 3053 
L 1172 3053 
L 1172 1153 
Q 1172 725 1289 603 
Q 1406 481 1766 481 
L 2356 481 
L 2356 0 
L 1766 0 
Q 1100 0 847 248 
Q 594 497 594 1153 
L 594 3053 
L 172 3053 
L 172 3500 
L 594 3500 
L 594 4494 
L 1172 4494 
z
" transform="scale(0.015625)"/>
        <path id="DejaVuSans-75" d="M 544 1381 
L 544 3500 
L 1119 3500 
L 1119 1403 
Q 1119 906 1312 657 
Q 1506 409 1894 409 
Q 2359 409 2629 706 
Q 2900 1003 2900 1516 
L 2900 3500 
L 3475 3500 
L 3475 0 
L 2900 0 
L 2900 538 
Q 2691 219 2414 64 
Q 2138 -91 1772 -91 
Q 1169 -91 856 284 
Q 544 659 544 1381 
z
M 1991 3584 
L 1991 3584 
z
" transform="scale(0.015625)"/>
        <path id="DejaVuSans-64" d="M 2906 2969 
L 2906 4863 
L 3481 4863 
L 3481 0 
L 2906 0 
L 2906 525 
Q 2725 213 2448 61 
Q 2172 -91 1784 -91 
Q 1150 -91 751 415 
Q 353 922 353 1747 
Q 353 2572 751 3078 
Q 1150 3584 1784 3584 
Q 2172 3584 2448 3432 
Q 2725 3281 2906 2969 
z
M 947 1747 
Q 947 1113 1208 752 
Q 1469 391 1925 391 
Q 2381 391 2643 752 
Q 2906 1113 2906 1747 
Q 2906 2381 2643 2742 
Q 2381 3103 1925 3103 
Q 1469 3103 1208 2742 
Q 947 2381 947 1747 
z
" transform="scale(0.015625)"/>
        <path id="DejaVuSans-65" d="M 3597 1894 
L 3597 1613 
L 953 1613 
Q 991 1019 1311 708 
Q 1631 397 2203 397 
Q 2534 397 2845 478 
Q 3156 559 3463 722 
L 3463 178 
Q 3153 47 2828 -22 
Q 2503 -91 2169 -91 
Q 1331 -91 842 396 
Q 353 884 353 1716 
Q 353 2575 817 3079 
Q 1281 3584 2069 3584 
Q 2775 3584 3186 3129 
Q 3597 2675 3597 1894 
z
M 3022 2063 
Q 3016 2534 2758 2815 
Q 2500 3097 2075 3097 
Q 1594 3097 1305 2825 
Q 1016 2553 972 2059 
L 3022 2063 
z
" transform="scale(0.015625)"/>
        <path id="DejaVuSans-6e" d="M 3513 2113 
L 3513 0 
L 2938 0 
L 2938 2094 
Q 2938 2591 2744 2837 
Q 2550 3084 2163 3084 
Q 1697 3084 1428 2787 
Q 1159 2491 1159 1978 
L 1159 0 
L 581 0 
L 581 3500 
L 1159 3500 
L 1159 2956 
Q 1366 3272 1645 3428 
Q 1925 3584 2291 3584 
Q 2894 3584 3203 3211 
Q 3513 2838 3513 2113 
z
" transform="scale(0.015625)"/>
        <path id="DejaVuSans-69" d="M 603 3500 
L 1178 3500 
L 1178 0 
L 603 0 
L 603 3500 
z
M 603 4863 
L 1178 4863 
L 1178 4134 
L 603 4134 
L 603 4863 
z
" transform="scale(0.015625)"/>
        <path id="DejaVuSans-20" transform="scale(0.015625)"/>
        <path id="DejaVuSans-2d" d="M 313 2009 
L 1997 2009 
L 1997 1497 
L 313 1497 
L 313 2009 
z
" transform="scale(0.015625)"/>
        <path id="DejaVuSans-63" d="M 3122 3366 
L 3122 2828 
Q 2878 2963 2633 3030 
Q 2388 3097 2138 3097 
Q 1578 3097 1268 2742 
Q 959 2388 959 1747 
Q 959 1106 1268 751 
Q 1578 397 2138 397 
Q 2388 397 2633 464 
Q 2878 531 3122 666 
L 3122 134 
Q 2881 22 2623 -34 
Q 2366 -91 2075 -91 
Q 1284 -91 818 406 
Q 353 903 353 1747 
Q 353 2603 823 3093 
Q 1294 3584 2113 3584 
Q 2378 3584 2631 3529 
Q 2884 3475 3122 3366 
z
" transform="scale(0.015625)"/>
        <path id="DejaVuSans-6f" d="M 1959 3097 
Q 1497 3097 1228 2736 
Q 959 2375 959 1747 
Q 959 1119 1226 758 
Q 1494 397 1959 397 
Q 2419 397 2687 759 
Q 2956 1122 2956 1747 
Q 2956 2369 2687 2733 
Q 2419 3097 1959 3097 
z
M 1959 3584 
Q 2709 3584 3137 3096 
Q 3566 2609 3566 1747 
Q 3566 888 3137 398 
Q 2709 -91 1959 -91 
Q 1206 -91 779 398 
Q 353 888 353 1747 
Q 353 2609 779 3096 
Q 1206 3584 1959 3584 
z
" transform="scale(0.015625)"/>
        <path id="DejaVuSans-61" d="M 2194 1759 
Q 1497 1759 1228 1600 
Q 959 1441 959 1056 
Q 959 750 1161 570 
Q 1363 391 1709 391 
Q 2188 391 2477 730 
Q 2766 1069 2766 1631 
L 2766 1759 
L 2194 1759 
z
M 3341 1997 
L 3341 0 
L 2766 0 
L 2766 531 
Q 2569 213 2275 61 
Q 1981 -91 1556 -91 
Q 1019 -91 701 211 
Q 384 513 384 1019 
Q 384 1609 779 1909 
Q 1175 2209 1959 2209 
L 2766 2209 
L 2766 2266 
Q 2766 2663 2505 2880 
Q 2244 3097 1772 3097 
Q 1472 3097 1187 3025 
Q 903 2953 641 2809 
L 641 3341 
Q 956 3463 1253 3523 
Q 1550 3584 1831 3584 
Q 2591 3584 2966 3190 
Q 3341 2797 3341 1997 
z
" transform="scale(0.015625)"/>
        <path id="DejaVuSans-72" d="M 2631 2963 
Q 2534 3019 2420 3045 
Q 2306 3072 2169 3072 
Q 1681 3072 1420 2755 
Q 1159 2438 1159 1844 
L 1159 0 
L 581 0 
L 581 3500 
L 1159 3500 
L 1159 2956 
Q 1341 3275 1631 3429 
Q 1922 3584 2338 3584 
Q 2397 3584 2469 3576 
Q 2541 3569 2628 3553 
L 2631 2963 
z
" transform="scale(0.015625)"/>
       </defs>
       <use xlink:href="#DejaVuSans-73"/>
       <use xlink:href="#DejaVuSans-74" transform="translate(52.099609 0)"/>
       <use xlink:href="#DejaVuSans-75" transform="translate(91.308594 0)"/>
       <use xlink:href="#DejaVuSans-64" transform="translate(154.6875 0)"/>
       <use xlink:href="#DejaVuSans-65" transform="translate(218.164062 0)"/>
       <use xlink:href="#DejaVuSans-6e" transform="translate(279.6875 0)"/>
       <use xlink:href="#DejaVuSans-74" transform="translate(343.066406 0)"/>
       <use xlink:href="#DejaVuSans-69" transform="translate(382.275391 0)"/>
       <use xlink:href="#DejaVuSans-20" transform="translate(410.058594 0)"/>
       <use xlink:href="#DejaVuSans-2d" transform="translate(441.845703 0)"/>
       <use xlink:href="#DejaVuSans-20" transform="translate(477.929688 0)"/>
       <use xlink:href="#DejaVuSans-73" transform="translate(509.716797 0)"/>
       <use xlink:href="#DejaVuSans-65" transform="translate(561.816406 0)"/>
       <use xlink:href="#DejaVuSans-63" transform="translate(623.339844 0)"/>
       <use xlink:href="#DejaVuSans-6f" transform="translate(678.320312 0)"/>
       <use xlink:href="#DejaVuSans-6e" transform="translate(739.501953 0)"/>
       <use xlink:href="#DejaVuSans-64" transform="translate(802.880859 0)"/>
       <use xlink:href="#DejaVuSans-61" transform="translate(866.357422 0)"/>
       <use xlink:href="#DejaVuSans-72" transform="translate(927.636719 0)"/>
       <use xlink:href="#DejaVuSans-69" transform="translate(968.75 0)"/>
       <use xlink:href="#DejaVuSans-61" transform="translate(996.533203 0)"/>
      </g>
     </g>
    </g>
    <g id="xtick_2">
     <g id="line2d_2">
      <g>
       <use xlink:href="#ma7ae12823e" x="226.650256" y="19.477969" style="fill: #262626; stroke: #262626; stroke-width: 0.5"/>
      </g>
     </g>
     <g id="text_2">
      <!-- studenti - universitari -->
      <g style="fill: #262626" transform="translate(109.767331 314.612318) rotate(-10) scale(0.11 -0.11)">
       <defs>
        <path id="DejaVuSans-76" d="M 191 3500 
L 800 3500 
L 1894 563 
L 2988 3500 
L 3597 3500 
L 2284 0 
L 1503 0 
L 191 3500 
z
" transform="scale(0.015625)"/>
       </defs>
       <use xlink:href="#DejaVuSans-73"/>
       <use xlink:href="#DejaVuSans-74" transform="translate(52.099609 0)"/>
       <use xlink:href="#DejaVuSans-75" transform="translate(91.308594 0)"/>
       <use xlink:href="#DejaVuSans-64" transform="translate(154.6875 0)"/>
       <use xlink:href="#DejaVuSans-65" transform="translate(218.164062 0)"/>
       <use xlink:href="#DejaVuSans-6e" transform="translate(279.6875 0)"/>
       <use xlink:href="#DejaVuSans-74" transform="translate(343.066406 0)"/>
       <use xlink:href="#DejaVuSans-69" transform="translate(382.275391 0)"/>
       <use xlink:href="#DejaVuSans-20" transform="translate(410.058594 0)"/>
       <use xlink:href="#DejaVuSans-2d" transform="translate(441.845703 0)"/>
       <use xlink:href="#DejaVuSans-20" transform="translate(477.929688 0)"/>
       <use xlink:href="#DejaVuSans-75" transform="translate(509.716797 0)"/>
       <use xlink:href="#DejaVuSans-6e" transform="translate(573.095703 0)"/>
       <use xlink:href="#DejaVuSans-69" transform="translate(636.474609 0)"/>
       <use xlink:href="#DejaVuSans-76" transform="translate(664.257812 0)"/>
       <use xlink:href="#DejaVuSans-65" transform="translate(723.4375 0)"/>
       <use xlink:href="#DejaVuSans-72" transform="translate(784.960938 0)"/>
       <use xlink:href="#DejaVuSans-73" transform="translate(826.074219 0)"/>
       <use xlink:href="#DejaVuSans-69" transform="translate(878.173828 0)"/>
       <use xlink:href="#DejaVuSans-74" transform="translate(905.957031 0)"/>
       <use xlink:href="#DejaVuSans-61" transform="translate(945.166016 0)"/>
       <use xlink:href="#DejaVuSans-72" transform="translate(1006.445312 0)"/>
       <use xlink:href="#DejaVuSans-69" transform="translate(1047.558594 0)"/>
      </g>
     </g>
    </g>
    <g id="xtick_3">
     <g id="line2d_3">
      <g>
       <use xlink:href="#ma7ae12823e" x="333.261942" y="19.477969" style="fill: #262626; stroke: #262626; stroke-width: 0.5"/>
      </g>
     </g>
     <g id="text_3">
      <!-- insegnanti - non in servizio -->
      <g style="fill: #262626" transform="translate(186.757847 319.83533) rotate(-10) scale(0.11 -0.11)">
       <defs>
        <path id="DejaVuSans-67" d="M 2906 1791 
Q 2906 2416 2648 2759 
Q 2391 3103 1925 3103 
Q 1463 3103 1205 2759 
Q 947 2416 947 1791 
Q 947 1169 1205 825 
Q 1463 481 1925 481 
Q 2391 481 2648 825 
Q 2906 1169 2906 1791 
z
M 3481 434 
Q 3481 -459 3084 -895 
Q 2688 -1331 1869 -1331 
Q 1566 -1331 1297 -1286 
Q 1028 -1241 775 -1147 
L 775 -588 
Q 1028 -725 1275 -790 
Q 1522 -856 1778 -856 
Q 2344 -856 2625 -561 
Q 2906 -266 2906 331 
L 2906 616 
Q 2728 306 2450 153 
Q 2172 0 1784 0 
Q 1141 0 747 490 
Q 353 981 353 1791 
Q 353 2603 747 3093 
Q 1141 3584 1784 3584 
Q 2172 3584 2450 3431 
Q 2728 3278 2906 2969 
L 2906 3500 
L 3481 3500 
L 3481 434 
z
" transform="scale(0.015625)"/>
        <path id="DejaVuSans-7a" d="M 353 3500 
L 3084 3500 
L 3084 2975 
L 922 459 
L 3084 459 
L 3084 0 
L 275 0 
L 275 525 
L 2438 3041 
L 353 3041 
L 353 3500 
z
" transform="scale(0.015625)"/>
       </defs>
       <use xlink:href="#DejaVuSans-69"/>
       <use xlink:href="#DejaVuSans-6e" transform="translate(27.783203 0)"/>
       <use xlink:href="#DejaVuSans-73" transform="translate(91.162109 0)"/>
       <use xlink:href="#DejaVuSans-65" transform="translate(143.261719 0)"/>
       <use xlink:href="#DejaVuSans-67" transform="translate(204.785156 0)"/>
       <use xlink:href="#DejaVuSans-6e" transform="translate(268.261719 0)"/>
       <use xlink:href="#DejaVuSans-61" transform="translate(331.640625 0)"/>
       <use xlink:href="#DejaVuSans-6e" transform="translate(392.919922 0)"/>
       <use xlink:href="#DejaVuSans-74" transform="translate(456.298828 0)"/>
       <use xlink:href="#DejaVuSans-69" transform="translate(495.507812 0)"/>
       <use xlink:href="#DejaVuSans-20" transform="translate(523.291016 0)"/>
       <use xlink:href="#DejaVuSans-2d" transform="translate(555.078125 0)"/>
       <use xlink:href="#DejaVuSans-20" transform="translate(591.162109 0)"/>
       <use xlink:href="#DejaVuSans-6e" transform="translate(622.949219 0)"/>
       <use xlink:href="#DejaVuSans-6f" transform="translate(686.328125 0)"/>
       <use xlink:href="#DejaVuSans-6e" transform="translate(747.509766 0)"/>
       <use xlink:href="#DejaVuSans-20" transform="translate(810.888672 0)"/>
       <use xlink:href="#DejaVuSans-69" transform="translate(842.675781 0)"/>
       <use xlink:href="#DejaVuSans-6e" transform="translate(870.458984 0)"/>
       <use xlink:href="#DejaVuSans-20" transform="translate(933.837891 0)"/>
       <use xlink:href="#DejaVuSans-73" transform="translate(965.625 0)"/>
       <use xlink:href="#DejaVuSans-65" transform="translate(1017.724609 0)"/>
       <use xlink:href="#DejaVuSans-72" transform="translate(1079.248047 0)"/>
       <use xlink:href="#DejaVuSans-76" transform="translate(1120.361328 0)"/>
       <use xlink:href="#DejaVuSans-69" transform="translate(1179.541016 0)"/>
       <use xlink:href="#DejaVuSans-7a" transform="translate(1207.324219 0)"/>
       <use xlink:href="#DejaVuSans-69" transform="translate(1259.814453 0)"/>
       <use xlink:href="#DejaVuSans-6f" transform="translate(1287.597656 0)"/>
      </g>
     </g>
    </g>
    <g id="xtick_4">
     <g id="line2d_4">
      <g>
       <use xlink:href="#ma7ae12823e" x="439.873628" y="19.477969" style="fill: #262626; stroke: #262626; stroke-width: 0.5"/>
      </g>
     </g>
     <g id="text_4">
      <!-- insegnanti - in servizio -->
      <g style="fill: #262626" transform="translate(317.171413 315.638416) rotate(-10) scale(0.11 -0.11)">
       <use xlink:href="#DejaVuSans-69"/>
       <use xlink:href="#DejaVuSans-6e" transform="translate(27.783203 0)"/>
       <use xlink:href="#DejaVuSans-73" transform="translate(91.162109 0)"/>
       <use xlink:href="#DejaVuSans-65" transform="translate(143.261719 0)"/>
       <use xlink:href="#DejaVuSans-67" transform="translate(204.785156 0)"/>
       <use xlink:href="#DejaVuSans-6e" transform="translate(268.261719 0)"/>
       <use xlink:href="#DejaVuSans-61" transform="translate(331.640625 0)"/>
       <use xlink:href="#DejaVuSans-6e" transform="translate(392.919922 0)"/>
       <use xlink:href="#DejaVuSans-74" transform="translate(456.298828 0)"/>
       <use xlink:href="#DejaVuSans-69" transform="translate(495.507812 0)"/>
       <use xlink:href="#DejaVuSans-20" transform="translate(523.291016 0)"/>
       <use xlink:href="#DejaVuSans-2d" transform="translate(555.078125 0)"/>
       <use xlink:href="#DejaVuSans-20" transform="translate(591.162109 0)"/>
       <use xlink:href="#DejaVuSans-69" transform="translate(622.949219 0)"/>
       <use xlink:href="#DejaVuSans-6e" transform="translate(650.732422 0)"/>
       <use xlink:href="#DejaVuSans-20" transform="translate(714.111328 0)"/>
       <use xlink:href="#DejaVuSans-73" transform="translate(745.898438 0)"/>
       <use xlink:href="#DejaVuSans-65" transform="translate(797.998047 0)"/>
       <use xlink:href="#DejaVuSans-72" transform="translate(859.521484 0)"/>
       <use xlink:href="#DejaVuSans-76" transform="translate(900.634766 0)"/>
       <use xlink:href="#DejaVuSans-69" transform="translate(959.814453 0)"/>
       <use xlink:href="#DejaVuSans-7a" transform="translate(987.597656 0)"/>
       <use xlink:href="#DejaVuSans-69" transform="translate(1040.087891 0)"/>
       <use xlink:href="#DejaVuSans-6f" transform="translate(1067.871094 0)"/>
      </g>
     </g>
    </g>
    <g id="xtick_5">
     <g id="line2d_5">
      <defs>
       <path id="mfe0d9bf193" d="M 0 0 
L 0 1.5 
" style="stroke: #262626; stroke-width: 0.5"/>
      </defs>
      <g>
       <use xlink:href="#mfe0d9bf193" x="77.393895" y="19.477969" style="fill: #262626; stroke: #262626; stroke-width: 0.5"/>
      </g>
     </g>
    </g>
    <g id="xtick_6">
     <g id="line2d_6">
      <g>
       <use xlink:href="#mfe0d9bf193" x="98.716232" y="19.477969" style="fill: #262626; stroke: #262626; stroke-width: 0.5"/>
      </g>
     </g>
    </g>
    <g id="xtick_7">
     <g id="line2d_7">
      <g>
       <use xlink:href="#mfe0d9bf193" x="141.360907" y="19.477969" style="fill: #262626; stroke: #262626; stroke-width: 0.5"/>
      </g>
     </g>
    </g>
    <g id="xtick_8">
     <g id="line2d_8">
      <g>
       <use xlink:href="#mfe0d9bf193" x="162.683244" y="19.477969" style="fill: #262626; stroke: #262626; stroke-width: 0.5"/>
      </g>
     </g>
    </g>
    <g id="xtick_9">
     <g id="line2d_9">
      <g>
       <use xlink:href="#mfe0d9bf193" x="184.005581" y="19.477969" style="fill: #262626; stroke: #262626; stroke-width: 0.5"/>
      </g>
     </g>
    </g>
    <g id="xtick_10">
     <g id="line2d_10">
      <g>
       <use xlink:href="#mfe0d9bf193" x="205.327918" y="19.477969" style="fill: #262626; stroke: #262626; stroke-width: 0.5"/>
      </g>
     </g>
    </g>
    <g id="xtick_11">
     <g id="line2d_11">
      <g>
       <use xlink:href="#mfe0d9bf193" x="247.972593" y="19.477969" style="fill: #262626; stroke: #262626; stroke-width: 0.5"/>
      </g>
     </g>
    </g>
    <g id="xtick_12">
     <g id="line2d_12">
      <g>
       <use xlink:href="#mfe0d9bf193" x="269.29493" y="19.477969" style="fill: #262626; stroke: #262626; stroke-width: 0.5"/>
      </g>
     </g>
    </g>
    <g id="xtick_13">
     <g id="line2d_13">
      <g>
       <use xlink:href="#mfe0d9bf193" x="290.617267" y="19.477969" style="fill: #262626; stroke: #262626; stroke-width: 0.5"/>
      </g>
     </g>
    </g>
    <g id="xtick_14">
     <g id="line2d_14">
      <g>
       <use xlink:href="#mfe0d9bf193" x="311.939604" y="19.477969" style="fill: #262626; stroke: #262626; stroke-width: 0.5"/>
      </g>
     </g>
    </g>
    <g id="xtick_15">
     <g id="line2d_15">
      <g>
       <use xlink:href="#mfe0d9bf193" x="354.584279" y="19.477969" style="fill: #262626; stroke: #262626; stroke-width: 0.5"/>
      </g>
     </g>
    </g>
    <g id="xtick_16">
     <g id="line2d_16">
      <g>
       <use xlink:href="#mfe0d9bf193" x="375.906616" y="19.477969" style="fill: #262626; stroke: #262626; stroke-width: 0.5"/>
      </g>
     </g>
    </g>
    <g id="xtick_17">
     <g id="line2d_17">
      <g>
       <use xlink:href="#mfe0d9bf193" x="397.228953" y="19.477969" style="fill: #262626; stroke: #262626; stroke-width: 0.5"/>
      </g>
     </g>
    </g>
    <g id="xtick_18">
     <g id="line2d_18">
      <g>
       <use xlink:href="#mfe0d9bf193" x="418.55129" y="19.477969" style="fill: #262626; stroke: #262626; stroke-width: 0.5"/>
      </g>
     </g>
    </g>
    <g id="xtick_19">
     <g id="line2d_19">
      <g>
       <use xlink:href="#mfe0d9bf193" x="461.195965" y="19.477969" style="fill: #262626; stroke: #262626; stroke-width: 0.5"/>
      </g>
     </g>
    </g>
    <g id="xtick_20">
     <g id="line2d_20">
      <g>
       <use xlink:href="#mfe0d9bf193" x="482.518302" y="19.477969" style="fill: #262626; stroke: #262626; stroke-width: 0.5"/>
      </g>
     </g>
    </g>
    <g id="text_5">
     <!-- Gruppo -->
     <g style="fill: #262626" transform="translate(257.748599 335.206356) scale(0.12 -0.12)">
      <defs>
       <path id="DejaVuSans-47" d="M 3809 666 
L 3809 1919 
L 2778 1919 
L 2778 2438 
L 4434 2438 
L 4434 434 
Q 4069 175 3628 42 
Q 3188 -91 2688 -91 
Q 1594 -91 976 548 
Q 359 1188 359 2328 
Q 359 3472 976 4111 
Q 1594 4750 2688 4750 
Q 3144 4750 3555 4637 
Q 3966 4525 4313 4306 
L 4313 3634 
Q 3963 3931 3569 4081 
Q 3175 4231 2741 4231 
Q 1884 4231 1454 3753 
Q 1025 3275 1025 2328 
Q 1025 1384 1454 906 
Q 1884 428 2741 428 
Q 3075 428 3337 486 
Q 3600 544 3809 666 
z
" transform="scale(0.015625)"/>
       <path id="DejaVuSans-70" d="M 1159 525 
L 1159 -1331 
L 581 -1331 
L 581 3500 
L 1159 3500 
L 1159 2969 
Q 1341 3281 1617 3432 
Q 1894 3584 2278 3584 
Q 2916 3584 3314 3078 
Q 3713 2572 3713 1747 
Q 3713 922 3314 415 
Q 2916 -91 2278 -91 
Q 1894 -91 1617 61 
Q 1341 213 1159 525 
z
M 3116 1747 
Q 3116 2381 2855 2742 
Q 2594 3103 2138 3103 
Q 1681 3103 1420 2742 
Q 1159 2381 1159 1747 
Q 1159 1113 1420 752 
Q 1681 391 2138 391 
Q 2594 391 2855 752 
Q 3116 1113 3116 1747 
z
" transform="scale(0.015625)"/>
      </defs>
      <use xlink:href="#DejaVuSans-47"/>
      <use xlink:href="#DejaVuSans-72" transform="translate(77.490234 0)"/>
      <use xlink:href="#DejaVuSans-75" transform="translate(118.603516 0)"/>
      <use xlink:href="#DejaVuSans-70" transform="translate(181.982422 0)"/>
      <use xlink:href="#DejaVuSans-70" transform="translate(245.458984 0)"/>
      <use xlink:href="#DejaVuSans-6f" transform="translate(308.935547 0)"/>
     </g>
    </g>
   </g>
   <g id="matplotlib.axis_2">
    <g id="ytick_1">
     <g id="line2d_21">
      <path d="M 66.732727 270.39311 
L 493.179471 270.39311 
" clip-path="url(#p994bc1121b)" style="fill: none; stroke-dasharray: 1.11,0.48; stroke-dashoffset: 0; stroke: #1a1a1a; stroke-opacity: 0.25; stroke-width: 0.3"/>
     </g>
     <g id="line2d_22">
      <defs>
       <path id="mcc64362bc0" d="M 0 0 
L -3 0 
" style="stroke: #262626; stroke-width: 0.5"/>
      </defs>
      <g>
       <use xlink:href="#mcc64362bc0" x="493.179471" y="270.39311" style="fill: #262626; stroke: #262626; stroke-width: 0.5"/>
      </g>
     </g>
     <g id="text_6">
      <!-- $\mathdefault{0}$ -->
      <g style="fill: #262626" transform="translate(56.192727 274.572251) scale(0.11 -0.11)">
       <defs>
        <path id="DejaVuSans-30" d="M 2034 4250 
Q 1547 4250 1301 3770 
Q 1056 3291 1056 2328 
Q 1056 1369 1301 889 
Q 1547 409 2034 409 
Q 2525 409 2770 889 
Q 3016 1369 3016 2328 
Q 3016 3291 2770 3770 
Q 2525 4250 2034 4250 
z
M 2034 4750 
Q 2819 4750 3233 4129 
Q 3647 3509 3647 2328 
Q 3647 1150 3233 529 
Q 2819 -91 2034 -91 
Q 1250 -91 836 529 
Q 422 1150 422 2328 
Q 422 3509 836 4129 
Q 1250 4750 2034 4750 
z
" transform="scale(0.015625)"/>
       </defs>
       <use xlink:href="#DejaVuSans-30" transform="translate(0 0.78125)"/>
      </g>
     </g>
    </g>
    <g id="ytick_2">
     <g id="line2d_23">
      <path d="M 66.732727 227.720467 
L 493.179471 227.720467 
" clip-path="url(#p994bc1121b)" style="fill: none; stroke-dasharray: 1.11,0.48; stroke-dashoffset: 0; stroke: #1a1a1a; stroke-opacity: 0.25; stroke-width: 0.3"/>
     </g>
     <g id="line2d_24">
      <g>
       <use xlink:href="#mcc64362bc0" x="493.179471" y="227.720467" style="fill: #262626; stroke: #262626; stroke-width: 0.5"/>
      </g>
     </g>
     <g id="text_7">
      <!-- $\mathdefault{10}$ -->
      <g style="fill: #262626" transform="translate(49.152727 231.899608) scale(0.11 -0.11)">
       <defs>
        <path id="DejaVuSans-31" d="M 794 531 
L 1825 531 
L 1825 4091 
L 703 3866 
L 703 4441 
L 1819 4666 
L 2450 4666 
L 2450 531 
L 3481 531 
L 3481 0 
L 794 0 
L 794 531 
z
" transform="scale(0.015625)"/>
       </defs>
       <use xlink:href="#DejaVuSans-31" transform="translate(0 0.78125)"/>
       <use xlink:href="#DejaVuSans-30" transform="translate(63.623047 0.78125)"/>
      </g>
     </g>
    </g>
    <g id="ytick_3">
     <g id="line2d_25">
      <path d="M 66.732727 185.047824 
L 493.179471 185.047824 
" clip-path="url(#p994bc1121b)" style="fill: none; stroke-dasharray: 1.11,0.48; stroke-dashoffset: 0; stroke: #1a1a1a; stroke-opacity: 0.25; stroke-width: 0.3"/>
     </g>
     <g id="line2d_26">
      <g>
       <use xlink:href="#mcc64362bc0" x="493.179471" y="185.047824" style="fill: #262626; stroke: #262626; stroke-width: 0.5"/>
      </g>
     </g>
     <g id="text_8">
      <!-- $\mathdefault{20}$ -->
      <g style="fill: #262626" transform="translate(49.152727 189.226965) scale(0.11 -0.11)">
       <defs>
        <path id="DejaVuSans-32" d="M 1228 531 
L 3431 531 
L 3431 0 
L 469 0 
L 469 531 
Q 828 903 1448 1529 
Q 2069 2156 2228 2338 
Q 2531 2678 2651 2914 
Q 2772 3150 2772 3378 
Q 2772 3750 2511 3984 
Q 2250 4219 1831 4219 
Q 1534 4219 1204 4116 
Q 875 4013 500 3803 
L 500 4441 
Q 881 4594 1212 4672 
Q 1544 4750 1819 4750 
Q 2544 4750 2975 4387 
Q 3406 4025 3406 3419 
Q 3406 3131 3298 2873 
Q 3191 2616 2906 2266 
Q 2828 2175 2409 1742 
Q 1991 1309 1228 531 
z
" transform="scale(0.015625)"/>
       </defs>
       <use xlink:href="#DejaVuSans-32" transform="translate(0 0.78125)"/>
       <use xlink:href="#DejaVuSans-30" transform="translate(63.623047 0.78125)"/>
      </g>
     </g>
    </g>
    <g id="ytick_4">
     <g id="line2d_27">
      <path d="M 66.732727 142.375181 
L 493.179471 142.375181 
" clip-path="url(#p994bc1121b)" style="fill: none; stroke-dasharray: 1.11,0.48; stroke-dashoffset: 0; stroke: #1a1a1a; stroke-opacity: 0.25; stroke-width: 0.3"/>
     </g>
     <g id="line2d_28">
      <g>
       <use xlink:href="#mcc64362bc0" x="493.179471" y="142.375181" style="fill: #262626; stroke: #262626; stroke-width: 0.5"/>
      </g>
     </g>
     <g id="text_9">
      <!-- $\mathdefault{30}$ -->
      <g style="fill: #262626" transform="translate(49.152727 146.554321) scale(0.11 -0.11)">
       <defs>
        <path id="DejaVuSans-33" d="M 2597 2516 
Q 3050 2419 3304 2112 
Q 3559 1806 3559 1356 
Q 3559 666 3084 287 
Q 2609 -91 1734 -91 
Q 1441 -91 1130 -33 
Q 819 25 488 141 
L 488 750 
Q 750 597 1062 519 
Q 1375 441 1716 441 
Q 2309 441 2620 675 
Q 2931 909 2931 1356 
Q 2931 1769 2642 2001 
Q 2353 2234 1838 2234 
L 1294 2234 
L 1294 2753 
L 1863 2753 
Q 2328 2753 2575 2939 
Q 2822 3125 2822 3475 
Q 2822 3834 2567 4026 
Q 2313 4219 1838 4219 
Q 1578 4219 1281 4162 
Q 984 4106 628 3988 
L 628 4550 
Q 988 4650 1302 4700 
Q 1616 4750 1894 4750 
Q 2613 4750 3031 4423 
Q 3450 4097 3450 3541 
Q 3450 3153 3228 2886 
Q 3006 2619 2597 2516 
z
" transform="scale(0.015625)"/>
       </defs>
       <use xlink:href="#DejaVuSans-33" transform="translate(0 0.78125)"/>
       <use xlink:href="#DejaVuSans-30" transform="translate(63.623047 0.78125)"/>
      </g>
     </g>
    </g>
    <g id="ytick_5">
     <g id="line2d_29">
      <path d="M 66.732727 99.702538 
L 493.179471 99.702538 
" clip-path="url(#p994bc1121b)" style="fill: none; stroke-dasharray: 1.11,0.48; stroke-dashoffset: 0; stroke: #1a1a1a; stroke-opacity: 0.25; stroke-width: 0.3"/>
     </g>
     <g id="line2d_30">
      <g>
       <use xlink:href="#mcc64362bc0" x="493.179471" y="99.702538" style="fill: #262626; stroke: #262626; stroke-width: 0.5"/>
      </g>
     </g>
     <g id="text_10">
      <!-- $\mathdefault{40}$ -->
      <g style="fill: #262626" transform="translate(49.152727 103.881678) scale(0.11 -0.11)">
       <defs>
        <path id="DejaVuSans-34" d="M 2419 4116 
L 825 1625 
L 2419 1625 
L 2419 4116 
z
M 2253 4666 
L 3047 4666 
L 3047 1625 
L 3713 1625 
L 3713 1100 
L 3047 1100 
L 3047 0 
L 2419 0 
L 2419 1100 
L 313 1100 
L 313 1709 
L 2253 4666 
z
" transform="scale(0.015625)"/>
       </defs>
       <use xlink:href="#DejaVuSans-34" transform="translate(0 0.78125)"/>
       <use xlink:href="#DejaVuSans-30" transform="translate(63.623047 0.78125)"/>
      </g>
     </g>
    </g>
    <g id="ytick_6">
     <g id="line2d_31">
      <path d="M 66.732727 57.029895 
L 493.179471 57.029895 
" clip-path="url(#p994bc1121b)" style="fill: none; stroke-dasharray: 1.11,0.48; stroke-dashoffset: 0; stroke: #1a1a1a; stroke-opacity: 0.25; stroke-width: 0.3"/>
     </g>
     <g id="line2d_32">
      <g>
       <use xlink:href="#mcc64362bc0" x="493.179471" y="57.029895" style="fill: #262626; stroke: #262626; stroke-width: 0.5"/>
      </g>
     </g>
     <g id="text_11">
      <!-- $\mathdefault{50}$ -->
      <g style="fill: #262626" transform="translate(49.152727 61.209035) scale(0.11 -0.11)">
       <defs>
        <path id="DejaVuSans-35" d="M 691 4666 
L 3169 4666 
L 3169 4134 
L 1269 4134 
L 1269 2991 
Q 1406 3038 1543 3061 
Q 1681 3084 1819 3084 
Q 2600 3084 3056 2656 
Q 3513 2228 3513 1497 
Q 3513 744 3044 326 
Q 2575 -91 1722 -91 
Q 1428 -91 1123 -41 
Q 819 9 494 109 
L 494 744 
Q 775 591 1075 516 
Q 1375 441 1709 441 
Q 2250 441 2565 725 
Q 2881 1009 2881 1497 
Q 2881 1984 2565 2268 
Q 2250 2553 1709 2553 
Q 1456 2553 1204 2497 
Q 953 2441 691 2322 
L 691 4666 
z
" transform="scale(0.015625)"/>
       </defs>
       <use xlink:href="#DejaVuSans-35" transform="translate(0 0.78125)"/>
       <use xlink:href="#DejaVuSans-30" transform="translate(63.623047 0.78125)"/>
      </g>
     </g>
    </g>
    <g id="ytick_7">
     <g id="line2d_33">
      <defs>
       <path id="m7557c9400a" d="M 0 0 
L -1.5 0 
" style="stroke: #262626; stroke-width: 0.5"/>
      </defs>
      <g>
       <use xlink:href="#m7557c9400a" x="493.179471" y="278.927639" style="fill: #262626; stroke: #262626; stroke-width: 0.5"/>
      </g>
     </g>
    </g>
    <g id="ytick_8">
     <g id="line2d_34">
      <g>
       <use xlink:href="#m7557c9400a" x="493.179471" y="261.858581" style="fill: #262626; stroke: #262626; stroke-width: 0.5"/>
      </g>
     </g>
    </g>
    <g id="ytick_9">
     <g id="line2d_35">
      <g>
       <use xlink:href="#m7557c9400a" x="493.179471" y="253.324053" style="fill: #262626; stroke: #262626; stroke-width: 0.5"/>
      </g>
     </g>
    </g>
    <g id="ytick_10">
     <g id="line2d_36">
      <g>
       <use xlink:href="#m7557c9400a" x="493.179471" y="244.789524" style="fill: #262626; stroke: #262626; stroke-width: 0.5"/>
      </g>
     </g>
    </g>
    <g id="ytick_11">
     <g id="line2d_37">
      <g>
       <use xlink:href="#m7557c9400a" x="493.179471" y="236.254996" style="fill: #262626; stroke: #262626; stroke-width: 0.5"/>
      </g>
     </g>
    </g>
    <g id="ytick_12">
     <g id="line2d_38">
      <g>
       <use xlink:href="#m7557c9400a" x="493.179471" y="219.185938" style="fill: #262626; stroke: #262626; stroke-width: 0.5"/>
      </g>
     </g>
    </g>
    <g id="ytick_13">
     <g id="line2d_39">
      <g>
       <use xlink:href="#m7557c9400a" x="493.179471" y="210.65141" style="fill: #262626; stroke: #262626; stroke-width: 0.5"/>
      </g>
     </g>
    </g>
    <g id="ytick_14">
     <g id="line2d_40">
      <g>
       <use xlink:href="#m7557c9400a" x="493.179471" y="202.116881" style="fill: #262626; stroke: #262626; stroke-width: 0.5"/>
      </g>
     </g>
    </g>
    <g id="ytick_15">
     <g id="line2d_41">
      <g>
       <use xlink:href="#m7557c9400a" x="493.179471" y="193.582353" style="fill: #262626; stroke: #262626; stroke-width: 0.5"/>
      </g>
     </g>
    </g>
    <g id="ytick_16">
     <g id="line2d_42">
      <g>
       <use xlink:href="#m7557c9400a" x="493.179471" y="176.513295" style="fill: #262626; stroke: #262626; stroke-width: 0.5"/>
      </g>
     </g>
    </g>
    <g id="ytick_17">
     <g id="line2d_43">
      <g>
       <use xlink:href="#m7557c9400a" x="493.179471" y="167.978767" style="fill: #262626; stroke: #262626; stroke-width: 0.5"/>
      </g>
     </g>
    </g>
    <g id="ytick_18">
     <g id="line2d_44">
      <g>
       <use xlink:href="#m7557c9400a" x="493.179471" y="159.444238" style="fill: #262626; stroke: #262626; stroke-width: 0.5"/>
      </g>
     </g>
    </g>
    <g id="ytick_19">
     <g id="line2d_45">
      <g>
       <use xlink:href="#m7557c9400a" x="493.179471" y="150.909709" style="fill: #262626; stroke: #262626; stroke-width: 0.5"/>
      </g>
     </g>
    </g>
    <g id="ytick_20">
     <g id="line2d_46">
      <g>
       <use xlink:href="#m7557c9400a" x="493.179471" y="133.840652" style="fill: #262626; stroke: #262626; stroke-width: 0.5"/>
      </g>
     </g>
    </g>
    <g id="ytick_21">
     <g id="line2d_47">
      <g>
       <use xlink:href="#m7557c9400a" x="493.179471" y="125.306124" style="fill: #262626; stroke: #262626; stroke-width: 0.5"/>
      </g>
     </g>
    </g>
    <g id="ytick_22">
     <g id="line2d_48">
      <g>
       <use xlink:href="#m7557c9400a" x="493.179471" y="116.771595" style="fill: #262626; stroke: #262626; stroke-width: 0.5"/>
      </g>
     </g>
    </g>
    <g id="ytick_23">
     <g id="line2d_49">
      <g>
       <use xlink:href="#m7557c9400a" x="493.179471" y="108.237066" style="fill: #262626; stroke: #262626; stroke-width: 0.5"/>
      </g>
     </g>
    </g>
    <g id="ytick_24">
     <g id="line2d_50">
      <g>
       <use xlink:href="#m7557c9400a" x="493.179471" y="91.168009" style="fill: #262626; stroke: #262626; stroke-width: 0.5"/>
      </g>
     </g>
    </g>
    <g id="ytick_25">
     <g id="line2d_51">
      <g>
       <use xlink:href="#m7557c9400a" x="493.179471" y="82.633481" style="fill: #262626; stroke: #262626; stroke-width: 0.5"/>
      </g>
     </g>
    </g>
    <g id="ytick_26">
     <g id="line2d_52">
      <g>
       <use xlink:href="#m7557c9400a" x="493.179471" y="74.098952" style="fill: #262626; stroke: #262626; stroke-width: 0.5"/>
      </g>
     </g>
    </g>
    <g id="ytick_27">
     <g id="line2d_53">
      <g>
       <use xlink:href="#m7557c9400a" x="493.179471" y="65.564423" style="fill: #262626; stroke: #262626; stroke-width: 0.5"/>
      </g>
     </g>
    </g>
    <g id="ytick_28">
     <g id="line2d_54">
      <g>
       <use xlink:href="#m7557c9400a" x="493.179471" y="48.495366" style="fill: #262626; stroke: #262626; stroke-width: 0.5"/>
      </g>
     </g>
    </g>
    <g id="ytick_29">
     <g id="line2d_55">
      <g>
       <use xlink:href="#m7557c9400a" x="493.179471" y="39.960837" style="fill: #262626; stroke: #262626; stroke-width: 0.5"/>
      </g>
     </g>
    </g>
    <g id="ytick_30">
     <g id="line2d_56">
      <g>
       <use xlink:href="#m7557c9400a" x="493.179471" y="31.426309" style="fill: #262626; stroke: #262626; stroke-width: 0.5"/>
      </g>
     </g>
    </g>
    <g id="ytick_31">
     <g id="line2d_57">
      <g>
       <use xlink:href="#m7557c9400a" x="493.179471" y="22.89178" style="fill: #262626; stroke: #262626; stroke-width: 0.5"/>
      </g>
     </g>
    </g>
    <g id="text_12">
     <!-- Ore settimanali (uso quotidiano IA) -->
     <g style="fill: #262626" transform="translate(42.657102 255.890959) rotate(-90) scale(0.12 -0.12)">
      <defs>
       <path id="DejaVuSans-4f" d="M 2522 4238 
Q 1834 4238 1429 3725 
Q 1025 3213 1025 2328 
Q 1025 1447 1429 934 
Q 1834 422 2522 422 
Q 3209 422 3611 934 
Q 4013 1447 4013 2328 
Q 4013 3213 3611 3725 
Q 3209 4238 2522 4238 
z
M 2522 4750 
Q 3503 4750 4090 4092 
Q 4678 3434 4678 2328 
Q 4678 1225 4090 567 
Q 3503 -91 2522 -91 
Q 1538 -91 948 565 
Q 359 1222 359 2328 
Q 359 3434 948 4092 
Q 1538 4750 2522 4750 
z
" transform="scale(0.015625)"/>
       <path id="DejaVuSans-6d" d="M 3328 2828 
Q 3544 3216 3844 3400 
Q 4144 3584 4550 3584 
Q 5097 3584 5394 3201 
Q 5691 2819 5691 2113 
L 5691 0 
L 5113 0 
L 5113 2094 
Q 5113 2597 4934 2840 
Q 4756 3084 4391 3084 
Q 3944 3084 3684 2787 
Q 3425 2491 3425 1978 
L 3425 0 
L 2847 0 
L 2847 2094 
Q 2847 2600 2669 2842 
Q 2491 3084 2119 3084 
Q 1678 3084 1418 2786 
Q 1159 2488 1159 1978 
L 1159 0 
L 581 0 
L 581 3500 
L 1159 3500 
L 1159 2956 
Q 1356 3278 1631 3431 
Q 1906 3584 2284 3584 
Q 2666 3584 2933 3390 
Q 3200 3197 3328 2828 
z
" transform="scale(0.015625)"/>
       <path id="DejaVuSans-6c" d="M 603 4863 
L 1178 4863 
L 1178 0 
L 603 0 
L 603 4863 
z
" transform="scale(0.015625)"/>
       <path id="DejaVuSans-28" d="M 1984 4856 
Q 1566 4138 1362 3434 
Q 1159 2731 1159 2009 
Q 1159 1288 1364 580 
Q 1569 -128 1984 -844 
L 1484 -844 
Q 1016 -109 783 600 
Q 550 1309 550 2009 
Q 550 2706 781 3412 
Q 1013 4119 1484 4856 
L 1984 4856 
z
" transform="scale(0.015625)"/>
       <path id="DejaVuSans-71" d="M 947 1747 
Q 947 1113 1208 752 
Q 1469 391 1925 391 
Q 2381 391 2643 752 
Q 2906 1113 2906 1747 
Q 2906 2381 2643 2742 
Q 2381 3103 1925 3103 
Q 1469 3103 1208 2742 
Q 947 2381 947 1747 
z
M 2906 525 
Q 2725 213 2448 61 
Q 2172 -91 1784 -91 
Q 1150 -91 751 415 
Q 353 922 353 1747 
Q 353 2572 751 3078 
Q 1150 3584 1784 3584 
Q 2172 3584 2448 3432 
Q 2725 3281 2906 2969 
L 2906 3500 
L 3481 3500 
L 3481 -1331 
L 2906 -1331 
L 2906 525 
z
" transform="scale(0.015625)"/>
       <path id="DejaVuSans-49" d="M 628 4666 
L 1259 4666 
L 1259 0 
L 628 0 
L 628 4666 
z
" transform="scale(0.015625)"/>
       <path id="DejaVuSans-41" d="M 2188 4044 
L 1331 1722 
L 3047 1722 
L 2188 4044 
z
M 1831 4666 
L 2547 4666 
L 4325 0 
L 3669 0 
L 3244 1197 
L 1141 1197 
L 716 0 
L 50 0 
L 1831 4666 
z
" transform="scale(0.015625)"/>
       <path id="DejaVuSans-29" d="M 513 4856 
L 1013 4856 
Q 1481 4119 1714 3412 
Q 1947 2706 1947 2009 
Q 1947 1309 1714 600 
Q 1481 -109 1013 -844 
L 513 -844 
Q 928 -128 1133 580 
Q 1338 1288 1338 2009 
Q 1338 2731 1133 3434 
Q 928 4138 513 4856 
z
" transform="scale(0.015625)"/>
      </defs>
      <use xlink:href="#DejaVuSans-4f"/>
      <use xlink:href="#DejaVuSans-72" transform="translate(78.710938 0)"/>
      <use xlink:href="#DejaVuSans-65" transform="translate(117.574219 0)"/>
      <use xlink:href="#DejaVuSans-20" transform="translate(179.097656 0)"/>
      <use xlink:href="#DejaVuSans-73" transform="translate(210.884766 0)"/>
      <use xlink:href="#DejaVuSans-65" transform="translate(262.984375 0)"/>
      <use xlink:href="#DejaVuSans-74" transform="translate(324.507812 0)"/>
      <use xlink:href="#DejaVuSans-74" transform="translate(363.716797 0)"/>
      <use xlink:href="#DejaVuSans-69" transform="translate(402.925781 0)"/>
      <use xlink:href="#DejaVuSans-6d" transform="translate(430.708984 0)"/>
      <use xlink:href="#DejaVuSans-61" transform="translate(528.121094 0)"/>
      <use xlink:href="#DejaVuSans-6e" transform="translate(589.400391 0)"/>
      <use xlink:href="#DejaVuSans-61" transform="translate(652.779297 0)"/>
      <use xlink:href="#DejaVuSans-6c" transform="translate(714.058594 0)"/>
      <use xlink:href="#DejaVuSans-69" transform="translate(741.841797 0)"/>
      <use xlink:href="#DejaVuSans-20" transform="translate(769.625 0)"/>
      <use xlink:href="#DejaVuSans-28" transform="translate(801.412109 0)"/>
      <use xlink:href="#DejaVuSans-75" transform="translate(840.425781 0)"/>
      <use xlink:href="#DejaVuSans-73" transform="translate(903.804688 0)"/>
      <use xlink:href="#DejaVuSans-6f" transform="translate(955.904297 0)"/>
      <use xlink:href="#DejaVuSans-20" transform="translate(1017.085938 0)"/>
      <use xlink:href="#DejaVuSans-71" transform="translate(1048.873047 0)"/>
      <use xlink:href="#DejaVuSans-75" transform="translate(1112.349609 0)"/>
      <use xlink:href="#DejaVuSans-6f" transform="translate(1175.728516 0)"/>
      <use xlink:href="#DejaVuSans-74" transform="translate(1236.910156 0)"/>
      <use xlink:href="#DejaVuSans-69" transform="translate(1276.119141 0)"/>
      <use xlink:href="#DejaVuSans-64" transform="translate(1303.902344 0)"/>
      <use xlink:href="#DejaVuSans-69" transform="translate(1367.378906 0)"/>
      <use xlink:href="#DejaVuSans-61" transform="translate(1395.162109 0)"/>
      <use xlink:href="#DejaVuSans-6e" transform="translate(1456.441406 0)"/>
      <use xlink:href="#DejaVuSans-6f" transform="translate(1519.820312 0)"/>
      <use xlink:href="#DejaVuSans-20" transform="translate(1581.001953 0)"/>
      <use xlink:href="#DejaVuSans-49" transform="translate(1612.789062 0)"/>
      <use xlink:href="#DejaVuSans-41" transform="translate(1642.28125 0)"/>
      <use xlink:href="#DejaVuSans-29" transform="translate(1710.689453 0)"/>
     </g>
    </g>
   </g>
   <g id="FillBetweenPolyCollection_1">
    <defs>
     <path id="m43a53f9fc1" d="M 158.317146 -70.908871 
L 81.759994 -70.908871 
L 79.932395 -73.322677 
L 78.569793 -75.736483 
L 77.715923 -78.150289 
L 77.393895 -80.564095 
L 77.604997 -82.977902 
L 78.329027 -85.391708 
L 79.526083 -87.805514 
L 81.139622 -90.21932 
L 83.100466 -92.633126 
L 85.331378 -95.046932 
L 87.751806 -97.460738 
L 90.282386 -99.874544 
L 92.848883 -102.28835 
L 95.385336 -104.702156 
L 97.836237 -107.115962 
L 100.157736 -109.529768 
L 102.317917 -111.943574 
L 104.296273 -114.35738 
L 106.082567 -116.771187 
L 107.675284 -119.184993 
L 109.079865 -121.598799 
L 110.306917 -124.012605 
L 111.37053 -126.426411 
L 112.28682 -128.840217 
L 113.072728 -131.254023 
L 113.745121 -133.667829 
L 114.320157 -136.081635 
L 114.812888 -138.495441 
L 115.23704 -140.909247 
L 115.604922 -143.323053 
L 115.927404 -145.736859 
L 116.213936 -148.150665 
L 116.472575 -150.564472 
L 116.710008 -152.978278 
L 116.931578 -155.392084 
L 117.141315 -157.80589 
L 117.341992 -160.219696 
L 117.535213 -162.633502 
L 117.72155 -165.047308 
L 117.900728 -167.461114 
L 118.071839 -169.87492 
L 118.233601 -172.288726 
L 118.384601 -174.702532 
L 118.523541 -177.116338 
L 118.649431 -179.530144 
L 118.761733 -181.943951 
L 118.860437 -184.357757 
L 118.946057 -186.771563 
L 119.019575 -189.185369 
L 119.082317 -191.599175 
L 119.135809 -194.012981 
L 119.181608 -196.426787 
L 119.221152 -198.840593 
L 119.255633 -201.254399 
L 119.285915 -203.668205 
L 119.3125 -206.082011 
L 119.335544 -208.495817 
L 119.354918 -210.909623 
L 119.370299 -213.323429 
L 119.381277 -215.737236 
L 119.387462 -218.151042 
L 119.388566 -220.564848 
L 119.384466 -222.978654 
L 119.37522 -225.39246 
L 119.361044 -227.806266 
L 119.34226 -230.220072 
L 119.31921 -232.633878 
L 119.292162 -235.047684 
L 119.26123 -237.46149 
L 119.226304 -239.875296 
L 119.187029 -242.289102 
L 119.142822 -244.702908 
L 119.09295 -247.116714 
L 119.036641 -249.530521 
L 118.973238 -251.944327 
L 118.90237 -254.358133 
L 118.824111 -256.771939 
L 118.739115 -259.185745 
L 118.648703 -261.599551 
L 118.554877 -264.013357 
L 118.460268 -266.427163 
L 118.368004 -268.840969 
L 118.281517 -271.254775 
L 118.204308 -273.668581 
L 118.139689 -276.082387 
L 118.090535 -278.496193 
L 118.059077 -280.91 
L 118.046747 -283.323806 
L 118.054098 -285.737612 
L 118.080809 -288.151418 
L 118.125755 -290.565224 
L 118.187148 -292.97903 
L 118.26271 -295.392836 
L 118.349871 -297.806642 
L 118.445959 -300.220448 
L 118.54837 -302.634254 
L 118.654691 -305.04806 
L 118.762788 -307.461866 
L 118.870844 -309.875672 
L 121.206295 -309.875672 
L 121.206295 -309.875672 
L 121.314351 -307.461866 
L 121.422448 -305.04806 
L 121.528769 -302.634254 
L 121.63118 -300.220448 
L 121.727269 -297.806642 
L 121.81443 -295.392836 
L 121.889991 -292.97903 
L 121.951384 -290.565224 
L 121.996331 -288.151418 
L 122.023041 -285.737612 
L 122.030393 -283.323806 
L 122.018062 -280.91 
L 121.986604 -278.496193 
L 121.937451 -276.082387 
L 121.872831 -273.668581 
L 121.795622 -271.254775 
L 121.709135 -268.840969 
L 121.616871 -266.427163 
L 121.522262 -264.013357 
L 121.428436 -261.599551 
L 121.338024 -259.185745 
L 121.253028 -256.771939 
L 121.174769 -254.358133 
L 121.103901 -251.944327 
L 121.040498 -249.530521 
L 120.984189 -247.116714 
L 120.934317 -244.702908 
L 120.890111 -242.289102 
L 120.850835 -239.875296 
L 120.81591 -237.46149 
L 120.784977 -235.047684 
L 120.75793 -232.633878 
L 120.734879 -230.220072 
L 120.716095 -227.806266 
L 120.701919 -225.39246 
L 120.692673 -222.978654 
L 120.688573 -220.564848 
L 120.689677 -218.151042 
L 120.695862 -215.737236 
L 120.706841 -213.323429 
L 120.722222 -210.909623 
L 120.741595 -208.495817 
L 120.764639 -206.082011 
L 120.791224 -203.668205 
L 120.821506 -201.254399 
L 120.855988 -198.840593 
L 120.895531 -196.426787 
L 120.94133 -194.012981 
L 120.994822 -191.599175 
L 121.057564 -189.185369 
L 121.131082 -186.771563 
L 121.216702 -184.357757 
L 121.315406 -181.943951 
L 121.427709 -179.530144 
L 121.553598 -177.116338 
L 121.692538 -174.702532 
L 121.843538 -172.288726 
L 122.0053 -169.87492 
L 122.176412 -167.461114 
L 122.355589 -165.047308 
L 122.541927 -162.633502 
L 122.735147 -160.219696 
L 122.935824 -157.80589 
L 123.145561 -155.392084 
L 123.367132 -152.978278 
L 123.604565 -150.564472 
L 123.863203 -148.150665 
L 124.149735 -145.736859 
L 124.472217 -143.323053 
L 124.840099 -140.909247 
L 125.264252 -138.495441 
L 125.756982 -136.081635 
L 126.332018 -133.667829 
L 127.004411 -131.254023 
L 127.790319 -128.840217 
L 128.706609 -126.426411 
L 129.770223 -124.012605 
L 130.997274 -121.598799 
L 132.401855 -119.184993 
L 133.994572 -116.771187 
L 135.780867 -114.35738 
L 137.759223 -111.943574 
L 139.919404 -109.529768 
L 142.240903 -107.115962 
L 144.691803 -104.702156 
L 147.228256 -102.28835 
L 149.794754 -99.874544 
L 152.325333 -97.460738 
L 154.745761 -95.046932 
L 156.976673 -92.633126 
L 158.937517 -90.21932 
L 160.551056 -87.805514 
L 161.748113 -85.391708 
L 162.472142 -82.977902 
L 162.683244 -80.564095 
L 162.361216 -78.150289 
L 161.507346 -75.736483 
L 160.144744 -73.322677 
L 158.317146 -70.908871 
z
" style="stroke: #343434; stroke-width: 1.25"/>
    </defs>
    <g clip-path="url(#p994bc1121b)">
     <use xlink:href="#m43a53f9fc1" x="0" y="341.301981" style="fill: #df2020; stroke: #343434; stroke-width: 1.25"/>
    </g>
   </g>
   <g id="FillBetweenPolyCollection_2">
    <defs>
     <path id="m1eac7e4e4a" d="M 262.621309 -70.908871 
L 190.679202 -70.908871 
L 188.240852 -71.684737 
L 186.338288 -72.460604 
L 185.003591 -73.23647 
L 184.235546 -74.012336 
L 184.005581 -74.788202 
L 184.265637 -75.564069 
L 184.956168 -76.339935 
L 186.012821 -77.115801 
L 187.370936 -77.891667 
L 188.967762 -78.667534 
L 190.742894 -79.4434 
L 192.637796 -80.219266 
L 194.595355 -80.995132 
L 196.560172 -81.770998 
L 198.479955 -82.546865 
L 200.307931 -83.322731 
L 202.005862 -84.098597 
L 203.547044 -84.874463 
L 204.91864 -85.65033 
L 206.122783 -86.426196 
L 207.176113 -87.202062 
L 208.107638 -87.977928 
L 208.955074 -88.753795 
L 209.760076 -89.529661 
L 210.562912 -90.305527 
L 211.397318 -91.081393 
L 212.286255 -91.85726 
L 213.239198 -92.633126 
L 214.251401 -93.408992 
L 215.305227 -94.184858 
L 216.373305 -94.960725 
L 217.422937 -95.736591 
L 218.420966 -96.512457 
L 219.338275 -97.288323 
L 220.153193 -98.064189 
L 220.853363 -98.840056 
L 221.435936 -99.615922 
L 221.906285 -100.391788 
L 222.275683 -101.167654 
L 222.558483 -101.943521 
L 222.769388 -102.719387 
L 222.92127 -103.495253 
L 223.023865 -104.271119 
L 223.083471 -105.046986 
L 223.103615 -105.822852 
L 223.086461 -106.598718 
L 223.034634 -107.374584 
L 222.953026 -108.150451 
L 222.850171 -108.926317 
L 222.738814 -109.702183 
L 222.635473 -110.478049 
L 222.558971 -111.253916 
L 222.528175 -112.029782 
L 222.559346 -112.805648 
L 222.663623 -113.581514 
L 222.845182 -114.35738 
L 223.100427 -115.133247 
L 223.418404 -115.909113 
L 223.782335 -116.684979 
L 224.171946 -117.460845 
L 224.566126 -118.236712 
L 224.945429 -119.012578 
L 225.294015 -119.788444 
L 225.600777 -120.56431 
L 225.859621 -121.340177 
L 226.069001 -122.116043 
L 226.230961 -122.891909 
L 226.349935 -123.667775 
L 226.431576 -124.443642 
L 226.481795 -125.219508 
L 226.506108 -125.995374 
L 226.509319 -126.77124 
L 226.495492 -127.547107 
L 226.468121 -128.322973 
L 226.430412 -129.098839 
L 226.385552 -129.874705 
L 226.336894 -130.650571 
L 226.288005 -131.426438 
L 226.242542 -132.202304 
L 226.203986 -132.97817 
L 226.175282 -133.754036 
L 226.158456 -134.529903 
L 226.154305 -135.305769 
L 226.162219 -136.081635 
L 226.180199 -136.857501 
L 226.205065 -137.633368 
L 226.232857 -138.409234 
L 226.259347 -139.1851 
L 226.280602 -139.960966 
L 226.293506 -140.736833 
L 226.296184 -141.512699 
L 226.288248 -142.288565 
L 226.270848 -143.064431 
L 226.246524 -143.840298 
L 226.218861 -144.616164 
L 226.192009 -145.39203 
L 226.170134 -146.167896 
L 226.156867 -146.943762 
L 226.154844 -147.719629 
L 227.145667 -147.719629 
L 227.145667 -147.719629 
L 227.143644 -146.943762 
L 227.130377 -146.167896 
L 227.108502 -145.39203 
L 227.081651 -144.616164 
L 227.053987 -143.840298 
L 227.029663 -143.064431 
L 227.012263 -142.288565 
L 227.004327 -141.512699 
L 227.007005 -140.736833 
L 227.01991 -139.960966 
L 227.041164 -139.1851 
L 227.067655 -138.409234 
L 227.095447 -137.633368 
L 227.120313 -136.857501 
L 227.138292 -136.081635 
L 227.146207 -135.305769 
L 227.142056 -134.529903 
L 227.12523 -133.754036 
L 227.096525 -132.97817 
L 227.057969 -132.202304 
L 227.012506 -131.426438 
L 226.963617 -130.650571 
L 226.91496 -129.874705 
L 226.870099 -129.098839 
L 226.83239 -128.322973 
L 226.80502 -127.547107 
L 226.791192 -126.77124 
L 226.794403 -125.995374 
L 226.818716 -125.219508 
L 226.868935 -124.443642 
L 226.950576 -123.667775 
L 227.06955 -122.891909 
L 227.23151 -122.116043 
L 227.440891 -121.340177 
L 227.699734 -120.56431 
L 228.006496 -119.788444 
L 228.355082 -119.012578 
L 228.734386 -118.236712 
L 229.128565 -117.460845 
L 229.518176 -116.684979 
L 229.882108 -115.909113 
L 230.200085 -115.133247 
L 230.455329 -114.35738 
L 230.636888 -113.581514 
L 230.741166 -112.805648 
L 230.772336 -112.029782 
L 230.74154 -111.253916 
L 230.665039 -110.478049 
L 230.561697 -109.702183 
L 230.450341 -108.926317 
L 230.347485 -108.150451 
L 230.265877 -107.374584 
L 230.21405 -106.598718 
L 230.196896 -105.822852 
L 230.21704 -105.046986 
L 230.276646 -104.271119 
L 230.379241 -103.495253 
L 230.531124 -102.719387 
L 230.742029 -101.943521 
L 231.024829 -101.167654 
L 231.394226 -100.391788 
L 231.864576 -99.615922 
L 232.447148 -98.840056 
L 233.147318 -98.064189 
L 233.962236 -97.288323 
L 234.879545 -96.512457 
L 235.877574 -95.736591 
L 236.927206 -94.960725 
L 237.995284 -94.184858 
L 239.04911 -93.408992 
L 240.061314 -92.633126 
L 241.014257 -91.85726 
L 241.903193 -91.081393 
L 242.7376 -90.305527 
L 243.540435 -89.529661 
L 244.345437 -88.753795 
L 245.192874 -87.977928 
L 246.124398 -87.202062 
L 247.177728 -86.426196 
L 248.381871 -85.65033 
L 249.753467 -84.874463 
L 251.294649 -84.098597 
L 252.99258 -83.322731 
L 254.820556 -82.546865 
L 256.74034 -81.770998 
L 258.705156 -80.995132 
L 260.662715 -80.219266 
L 262.557618 -79.4434 
L 264.332749 -78.667534 
L 265.929575 -77.891667 
L 267.28769 -77.115801 
L 268.344343 -76.339935 
L 269.034875 -75.564069 
L 269.29493 -74.788202 
L 269.064966 -74.012336 
L 268.296921 -73.23647 
L 266.962223 -72.460604 
L 265.059659 -71.684737 
L 262.621309 -70.908871 
z
" style="stroke: #343434; stroke-width: 1.25"/>
    </defs>
    <g clip-path="url(#p994bc1121b)">
     <use xlink:href="#m1eac7e4e4a" x="0" y="341.301981" style="fill: #2f7e2f; stroke: #343434; stroke-width: 1.25"/>
    </g>
   </g>
   <g id="FillBetweenPolyCollection_3">
    <defs>
     <path id="ma3377a3cda" d="M 373.03881 -70.908871 
L 293.485073 -70.908871 
L 291.238393 -72.848537 
L 290.617267 -74.788202 
L 291.623855 -76.727868 
L 294.070877 -78.667534 
L 297.626755 -80.607199 
L 301.880565 -82.546865 
L 306.410325 -84.48653 
L 310.841123 -86.426196 
L 314.885081 -88.365862 
L 318.360554 -90.305527 
L 321.192049 -92.245193 
L 323.39481 -94.184858 
L 325.049365 -96.124524 
L 326.271916 -98.064189 
L 327.186316 -100.003855 
L 327.902378 -101.943521 
L 328.503286 -103.883186 
L 329.04243 -105.822852 
L 329.547568 -107.762517 
L 330.028789 -109.702183 
L 330.486699 -111.641849 
L 330.91835 -113.581514 
L 331.320196 -115.52118 
L 331.688791 -117.460845 
L 332.020578 -119.400511 
L 332.311907 -121.340177 
L 332.5597 -123.279842 
L 332.762489 -125.219508 
L 332.92126 -127.159173 
L 333.03967 -129.098839 
L 333.12353 -131.038505 
L 333.179813 -132.97817 
L 333.215565 -134.917836 
L 333.237043 -136.857501 
L 333.249242 -138.797167 
L 333.255791 -140.736833 
L 333.259114 -142.676498 
L 333.260708 -144.616164 
L 333.261431 -146.555829 
L 333.261741 -148.495495 
L 333.261867 -150.435161 
L 333.261915 -152.374826 
L 333.261933 -154.314492 
L 333.261939 -156.254157 
L 333.261941 -158.193823 
L 333.261941 -160.133488 
L 333.261942 -162.073154 
L 333.261942 -164.01282 
L 333.261942 -165.952485 
L 333.261942 -167.892151 
L 333.261942 -169.831816 
L 333.261942 -171.771482 
L 333.261942 -173.711148 
L 333.261942 -175.650813 
L 333.261942 -177.590479 
L 333.261942 -179.530144 
L 333.261942 -181.46981 
L 333.261942 -183.409476 
L 333.261942 -185.349141 
L 333.261942 -187.288807 
L 333.261942 -189.228472 
L 333.261942 -191.168138 
L 333.261942 -193.107804 
L 333.261942 -195.047469 
L 333.261942 -196.987135 
L 333.261942 -198.9268 
L 333.261942 -200.866466 
L 333.261942 -202.806132 
L 333.261942 -204.745797 
L 333.261942 -206.685463 
L 333.261942 -208.625128 
L 333.261942 -210.564794 
L 333.261942 -212.50446 
L 333.261942 -214.444125 
L 333.261942 -216.383791 
L 333.261941 -218.323456 
L 333.26194 -220.263122 
L 333.261937 -222.202788 
L 333.261929 -224.142453 
L 333.261904 -226.082119 
L 333.261842 -228.021784 
L 333.261688 -229.96145 
L 333.261331 -231.901115 
L 333.260545 -233.840781 
L 333.258914 -235.780447 
L 333.255721 -237.720112 
L 333.249825 -239.659778 
L 333.239566 -241.599443 
L 333.222767 -243.539109 
L 333.196918 -245.478775 
L 333.159619 -247.41844 
L 333.109287 -249.358106 
L 333.046027 -251.297771 
L 332.972414 -253.237437 
L 332.89387 -255.177103 
L 332.818323 -257.116768 
L 332.755041 -259.056434 
L 332.712818 -260.996099 
L 332.697976 -262.935765 
L 333.825907 -262.935765 
L 333.825907 -262.935765 
L 333.811065 -260.996099 
L 333.768842 -259.056434 
L 333.705561 -257.116768 
L 333.630014 -255.177103 
L 333.551469 -253.237437 
L 333.477857 -251.297771 
L 333.414597 -249.358106 
L 333.364265 -247.41844 
L 333.326965 -245.478775 
L 333.301116 -243.539109 
L 333.284317 -241.599443 
L 333.274058 -239.659778 
L 333.268162 -237.720112 
L 333.264969 -235.780447 
L 333.263339 -233.840781 
L 333.262553 -231.901115 
L 333.262195 -229.96145 
L 333.262041 -228.021784 
L 333.261979 -226.082119 
L 333.261955 -224.142453 
L 333.261946 -222.202788 
L 333.261943 -220.263122 
L 333.261942 -218.323456 
L 333.261942 -216.383791 
L 333.261942 -214.444125 
L 333.261942 -212.50446 
L 333.261942 -210.564794 
L 333.261942 -208.625128 
L 333.261942 -206.685463 
L 333.261942 -204.745797 
L 333.261942 -202.806132 
L 333.261942 -200.866466 
L 333.261942 -198.9268 
L 333.261942 -196.987135 
L 333.261942 -195.047469 
L 333.261942 -193.107804 
L 333.261942 -191.168138 
L 333.261942 -189.228472 
L 333.261942 -187.288807 
L 333.261942 -185.349141 
L 333.261942 -183.409476 
L 333.261942 -181.46981 
L 333.261942 -179.530144 
L 333.261942 -177.590479 
L 333.261942 -175.650813 
L 333.261942 -173.711148 
L 333.261942 -171.771482 
L 333.261942 -169.831816 
L 333.261942 -167.892151 
L 333.261942 -165.952485 
L 333.261942 -164.01282 
L 333.261942 -162.073154 
L 333.261942 -160.133488 
L 333.261942 -158.193823 
L 333.261944 -156.254157 
L 333.26195 -154.314492 
L 333.261968 -152.374826 
L 333.262016 -150.435161 
L 333.262142 -148.495495 
L 333.262452 -146.555829 
L 333.263175 -144.616164 
L 333.26477 -142.676498 
L 333.268093 -140.736833 
L 333.274642 -138.797167 
L 333.28684 -136.857501 
L 333.308318 -134.917836 
L 333.34407 -132.97817 
L 333.400353 -131.038505 
L 333.484213 -129.098839 
L 333.602623 -127.159173 
L 333.761395 -125.219508 
L 333.964183 -123.279842 
L 334.211976 -121.340177 
L 334.503305 -119.400511 
L 334.835092 -117.460845 
L 335.203687 -115.52118 
L 335.605534 -113.581514 
L 336.037184 -111.641849 
L 336.495094 -109.702183 
L 336.976315 -107.762517 
L 337.481453 -105.822852 
L 338.020597 -103.883186 
L 338.621505 -101.943521 
L 339.337567 -100.003855 
L 340.251968 -98.064189 
L 341.474518 -96.124524 
L 343.129073 -94.184858 
L 345.331834 -92.245193 
L 348.16333 -90.305527 
L 351.638802 -88.365862 
L 355.68276 -86.426196 
L 360.113558 -84.48653 
L 364.643318 -82.546865 
L 368.897128 -80.607199 
L 372.453006 -78.667534 
L 374.900028 -76.727868 
L 375.906616 -74.788202 
L 375.28549 -72.848537 
L 373.03881 -70.908871 
z
" style="stroke: #343434; stroke-width: 1.25"/>
    </defs>
    <g clip-path="url(#p994bc1121b)">
     <use xlink:href="#ma3377a3cda" x="0" y="341.301981" style="fill: #dfc120; stroke: #343434; stroke-width: 1.25"/>
    </g>
   </g>
   <g id="FillBetweenPolyCollection_4">
    <defs>
     <path id="mf64a61a41d" d="M 479.600599 -70.908871 
L 400.146656 -70.908871 
L 397.228953 -73.064055 
L 398.676309 -75.219239 
L 403.194494 -77.374423 
L 409.092986 -79.529607 
L 415.106393 -81.684791 
L 420.541364 -83.839975 
L 425.087901 -85.995159 
L 428.670807 -88.150343 
L 431.382949 -90.305527 
L 433.410379 -92.460711 
L 434.940925 -94.615895 
L 436.106129 -96.771079 
L 436.979413 -98.926263 
L 437.608995 -101.081447 
L 438.046109 -103.236631 
L 438.344808 -105.391815 
L 438.546918 -107.546999 
L 438.682452 -109.702183 
L 438.786183 -111.857367 
L 438.899389 -114.012551 
L 439.046408 -116.167735 
L 439.217124 -118.322919 
L 439.380156 -120.478103 
L 439.508686 -122.633287 
L 439.589731 -124.788471 
L 439.618276 -126.943655 
L 439.596948 -129.098839 
L 439.54509 -131.254023 
L 439.499812 -133.409207 
L 439.497696 -135.564391 
L 439.550538 -137.719575 
L 439.638658 -139.874759 
L 439.727445 -142.029943 
L 439.789485 -144.185127 
L 439.814002 -146.340311 
L 439.80336 -148.495495 
L 439.767846 -150.650679 
L 439.724185 -152.805863 
L 439.692884 -154.961047 
L 439.689803 -157.116231 
L 439.716908 -159.271415 
L 439.761688 -161.426599 
L 439.806648 -163.581783 
L 439.840055 -165.736967 
L 439.859531 -167.892151 
L 439.868669 -170.047335 
L 439.872166 -172.202519 
L 439.873265 -174.357703 
L 439.87354 -176.512887 
L 439.87354 -178.668071 
L 439.873265 -180.823255 
L 439.872166 -182.978439 
L 439.868669 -185.133623 
L 439.859531 -187.288807 
L 439.840055 -189.443991 
L 439.806648 -191.599175 
L 439.761689 -193.754359 
L 439.716912 -195.909543 
L 439.689834 -198.064727 
L 439.69306 -200.219911 
L 439.725021 -202.375095 
L 439.771174 -204.530279 
L 439.814457 -206.685463 
L 439.845001 -208.840647 
L 439.862026 -210.995831 
L 439.869689 -213.151015 
L 439.872507 -215.306199 
L 439.873361 -217.461383 
L 439.873574 -219.616567 
L 439.873619 -221.771751 
L 439.873626 -223.926935 
L 439.873627 -226.082119 
L 439.873628 -228.237303 
L 439.873628 -230.392487 
L 439.873628 -232.547671 
L 439.873628 -234.702855 
L 439.873628 -236.858039 
L 439.873628 -239.013223 
L 439.873628 -241.168407 
L 439.873628 -243.323591 
L 439.873628 -245.478775 
L 439.873628 -247.633959 
L 439.873628 -249.789143 
L 439.873628 -251.944327 
L 439.873628 -254.099511 
L 439.873628 -256.254695 
L 439.873627 -258.409879 
L 439.873623 -260.565063 
L 439.873601 -262.720247 
L 439.873485 -264.875431 
L 439.872983 -267.030615 
L 439.871194 -269.185799 
L 439.865935 -271.340983 
L 439.853252 -273.496167 
L 439.828421 -275.651351 
L 439.789607 -277.806535 
L 439.742811 -279.961719 
L 439.703008 -282.116903 
L 439.687212 -284.272087 
L 440.060044 -284.272087 
L 440.060044 -284.272087 
L 440.044247 -282.116903 
L 440.004444 -279.961719 
L 439.957648 -277.806535 
L 439.918834 -275.651351 
L 439.894003 -273.496167 
L 439.881321 -271.340983 
L 439.876061 -269.185799 
L 439.874272 -267.030615 
L 439.873771 -264.875431 
L 439.873654 -262.720247 
L 439.873632 -260.565063 
L 439.873628 -258.409879 
L 439.873628 -256.254695 
L 439.873628 -254.099511 
L 439.873628 -251.944327 
L 439.873628 -249.789143 
L 439.873628 -247.633959 
L 439.873628 -245.478775 
L 439.873628 -243.323591 
L 439.873628 -241.168407 
L 439.873628 -239.013223 
L 439.873628 -236.858039 
L 439.873628 -234.702855 
L 439.873628 -232.547671 
L 439.873628 -230.392487 
L 439.873628 -228.237303 
L 439.873628 -226.082119 
L 439.873629 -223.926935 
L 439.873637 -221.771751 
L 439.873681 -219.616567 
L 439.873895 -217.461383 
L 439.874748 -215.306199 
L 439.877567 -213.151015 
L 439.885229 -210.995831 
L 439.902254 -208.840647 
L 439.932798 -206.685463 
L 439.976081 -204.530279 
L 440.022234 -202.375095 
L 440.054195 -200.219911 
L 440.057421 -198.064727 
L 440.030343 -195.909543 
L 439.985567 -193.754359 
L 439.940607 -191.599175 
L 439.907201 -189.443991 
L 439.887725 -187.288807 
L 439.878586 -185.133623 
L 439.875089 -182.978439 
L 439.87399 -180.823255 
L 439.873715 -178.668071 
L 439.873715 -176.512887 
L 439.87399 -174.357703 
L 439.875089 -172.202519 
L 439.878586 -170.047335 
L 439.887725 -167.892151 
L 439.907201 -165.736967 
L 439.940607 -163.581783 
L 439.985567 -161.426599 
L 440.030347 -159.271415 
L 440.057452 -157.116231 
L 440.054371 -154.961047 
L 440.02307 -152.805863 
L 439.979409 -150.650679 
L 439.943896 -148.495495 
L 439.933253 -146.340311 
L 439.95777 -144.185127 
L 440.01981 -142.029943 
L 440.108597 -139.874759 
L 440.196718 -137.719575 
L 440.249559 -135.564391 
L 440.247444 -133.409207 
L 440.202165 -131.254023 
L 440.150307 -129.098839 
L 440.128979 -126.943655 
L 440.157524 -124.788471 
L 440.238569 -122.633287 
L 440.3671 -120.478103 
L 440.530132 -118.322919 
L 440.700848 -116.167735 
L 440.847866 -114.012551 
L 440.961072 -111.857367 
L 441.064803 -109.702183 
L 441.200337 -107.546999 
L 441.402447 -105.391815 
L 441.701146 -103.236631 
L 442.13826 -101.081447 
L 442.767843 -98.926263 
L 443.641126 -96.771079 
L 444.80633 -94.615895 
L 446.336876 -92.460711 
L 448.364306 -90.305527 
L 451.076448 -88.150343 
L 454.659354 -85.995159 
L 459.205892 -83.839975 
L 464.640862 -81.684791 
L 470.654269 -79.529607 
L 476.552761 -77.374423 
L 481.070947 -75.219239 
L 482.518302 -73.064055 
L 479.600599 -70.908871 
z
" style="stroke: #343434; stroke-width: 1.25"/>
    </defs>
    <g clip-path="url(#p994bc1121b)">
     <use xlink:href="#mf64a61a41d" x="0" y="341.301981" style="fill: #5573cd; stroke: #343434; stroke-width: 1.25"/>
    </g>
   </g>
   <g id="line2d_58">
    <path d="M 78.886112 266.125846 
L 161.191028 266.125846 
" clip-path="url(#p994bc1121b)" style="fill: none; stroke-dasharray: 1.5625,0.9375; stroke-dashoffset: 0; stroke: #343434; stroke-width: 1.25"/>
   </g>
   <g id="line2d_59">
    <path d="M 77.543408 261.858581 
L 162.533731 261.858581 
" clip-path="url(#p994bc1121b)" style="fill: none; stroke-dasharray: 3.125,1.25; stroke-dashoffset: 0; stroke: #343434; stroke-width: 1.25"/>
   </g>
   <g id="line2d_60">
    <path d="M 82.78533 249.056789 
L 157.291809 249.056789 
" clip-path="url(#p994bc1121b)" style="fill: none; stroke-dasharray: 1.5625,0.9375; stroke-dashoffset: 0; stroke: #343434; stroke-width: 1.25"/>
   </g>
   <g id="line2d_61">
    <path d="M 190.679202 270.39311 
L 262.621309 270.39311 
" clip-path="url(#p994bc1121b)" style="fill: none; stroke-dasharray: 1.5625,0.9375; stroke-dashoffset: 0; stroke: #343434; stroke-width: 1.25"/>
   </g>
   <g id="line2d_62">
    <path d="M 190.742894 261.858581 
L 262.557618 261.858581 
" clip-path="url(#p994bc1121b)" style="fill: none; stroke-dasharray: 3.125,1.25; stroke-dashoffset: 0; stroke: #343434; stroke-width: 1.25"/>
   </g>
   <g id="line2d_63">
    <path d="M 208.107638 253.324053 
L 245.192874 253.324053 
" clip-path="url(#p994bc1121b)" style="fill: none; stroke-dasharray: 1.5625,0.9375; stroke-dashoffset: 0; stroke: #343434; stroke-width: 1.25"/>
   </g>
   <g id="line2d_64">
    <path d="M 293.485073 270.39311 
L 373.03881 270.39311 
" clip-path="url(#p994bc1121b)" style="fill: none; stroke-dasharray: 1.5625,0.9375; stroke-dashoffset: 0; stroke: #343434; stroke-width: 1.25"/>
   </g>
   <g id="line2d_65">
    <path d="M 290.818585 266.125846 
L 375.705298 266.125846 
" clip-path="url(#p994bc1121b)" style="fill: none; stroke-dasharray: 3.125,1.25; stroke-dashoffset: 0; stroke: #343434; stroke-width: 1.25"/>
   </g>
   <g id="line2d_66">
    <path d="M 295.493228 261.858581 
L 371.030655 261.858581 
" clip-path="url(#p994bc1121b)" style="fill: none; stroke-dasharray: 1.5625,0.9375; stroke-dashoffset: 0; stroke: #343434; stroke-width: 1.25"/>
   </g>
   <g id="line2d_67">
    <path d="M 400.146656 270.39311 
L 479.600599 270.39311 
" clip-path="url(#p994bc1121b)" style="fill: none; stroke-dasharray: 1.5625,0.9375; stroke-dashoffset: 0; stroke: #343434; stroke-width: 1.25"/>
   </g>
   <g id="line2d_68">
    <path d="M 398.647361 266.125846 
L 481.099894 266.125846 
" clip-path="url(#p994bc1121b)" style="fill: none; stroke-dasharray: 3.125,1.25; stroke-dashoffset: 0; stroke: #343434; stroke-width: 1.25"/>
   </g>
   <g id="line2d_69">
    <path d="M 408.857047 261.858581 
L 470.890209 261.858581 
" clip-path="url(#p994bc1121b)" style="fill: none; stroke-dasharray: 1.5625,0.9375; stroke-dashoffset: 0; stroke: #343434; stroke-width: 1.25"/>
   </g>
   <g id="patch_3">
    <path d="M 66.732727 282.34145 
L 66.732727 19.477969 
" style="fill: none; stroke: #cccccc; stroke-width: 0.8; stroke-linejoin: miter; stroke-linecap: square"/>
   </g>
   <g id="patch_4">
    <path d="M 66.732727 282.34145 
L 493.179471 282.34145 
" style="fill: none; stroke: #cccccc; stroke-width: 0.8; stroke-linejoin: miter; stroke-linecap: square"/>
   </g>
   <g id="text_13">
    <!-- Uso quotidiano dell'IA  ore settimanali (violino) -->
    <g style="fill: #262626" transform="translate(121.234224 13.477969) scale(0.13 -0.13)">
     <defs>
      <path id="DejaVuSans-55" d="M 556 4666 
L 1191 4666 
L 1191 1831 
Q 1191 1081 1462 751 
Q 1734 422 2344 422 
Q 2950 422 3222 751 
Q 3494 1081 3494 1831 
L 3494 4666 
L 4128 4666 
L 4128 1753 
Q 4128 841 3676 375 
Q 3225 -91 2344 -91 
Q 1459 -91 1007 375 
Q 556 841 556 1753 
L 556 4666 
z
" transform="scale(0.015625)"/>
      <path id="DejaVuSans-27" d="M 1147 4666 
L 1147 2931 
L 616 2931 
L 616 4666 
L 1147 4666 
z
" transform="scale(0.015625)"/>
      <path id="DejaVuSans-2014" d="M 313 1978 
L 6088 1978 
L 6088 1528 
L 313 1528 
L 313 1978 
z
" transform="scale(0.015625)"/>
     </defs>
     <use xlink:href="#DejaVuSans-55"/>
     <use xlink:href="#DejaVuSans-73" transform="translate(73.193359 0)"/>
     <use xlink:href="#DejaVuSans-6f" transform="translate(125.292969 0)"/>
     <use xlink:href="#DejaVuSans-20" transform="translate(186.474609 0)"/>
     <use xlink:href="#DejaVuSans-71" transform="translate(218.261719 0)"/>
     <use xlink:href="#DejaVuSans-75" transform="translate(281.738281 0)"/>
     <use xlink:href="#DejaVuSans-6f" transform="translate(345.117188 0)"/>
     <use xlink:href="#DejaVuSans-74" transform="translate(406.298828 0)"/>
     <use xlink:href="#DejaVuSans-69" transform="translate(445.507812 0)"/>
     <use xlink:href="#DejaVuSans-64" transform="translate(473.291016 0)"/>
     <use xlink:href="#DejaVuSans-69" transform="translate(536.767578 0)"/>
     <use xlink:href="#DejaVuSans-61" transform="translate(564.550781 0)"/>
     <use xlink:href="#DejaVuSans-6e" transform="translate(625.830078 0)"/>
     <use xlink:href="#DejaVuSans-6f" transform="translate(689.208984 0)"/>
     <use xlink:href="#DejaVuSans-20" transform="translate(750.390625 0)"/>
     <use xlink:href="#DejaVuSans-64" transform="translate(782.177734 0)"/>
     <use xlink:href="#DejaVuSans-65" transform="translate(845.654297 0)"/>
     <use xlink:href="#DejaVuSans-6c" transform="translate(907.177734 0)"/>
     <use xlink:href="#DejaVuSans-6c" transform="translate(934.960938 0)"/>
     <use xlink:href="#DejaVuSans-27" transform="translate(962.744141 0)"/>
     <use xlink:href="#DejaVuSans-49" transform="translate(990.234375 0)"/>
     <use xlink:href="#DejaVuSans-41" transform="translate(1019.726562 0)"/>
     <use xlink:href="#DejaVuSans-20" transform="translate(1088.134766 0)"/>
     <use xlink:href="#DejaVuSans-2014" transform="translate(1119.921875 0)"/>
     <use xlink:href="#DejaVuSans-20" transform="translate(1219.921875 0)"/>
     <use xlink:href="#DejaVuSans-6f" transform="translate(1251.708984 0)"/>
     <use xlink:href="#DejaVuSans-72" transform="translate(1312.890625 0)"/>
     <use xlink:href="#DejaVuSans-65" transform="translate(1351.753906 0)"/>
     <use xlink:href="#DejaVuSans-20" transform="translate(1413.277344 0)"/>
     <use xlink:href="#DejaVuSans-73" transform="translate(1445.064453 0)"/>
     <use xlink:href="#DejaVuSans-65" transform="translate(1497.164062 0)"/>
     <use xlink:href="#DejaVuSans-74" transform="translate(1558.6875 0)"/>
     <use xlink:href="#DejaVuSans-74" transform="translate(1597.896484 0)"/>
     <use xlink:href="#DejaVuSans-69" transform="translate(1637.105469 0)"/>
     <use xlink:href="#DejaVuSans-6d" transform="translate(1664.888672 0)"/>
     <use xlink:href="#DejaVuSans-61" transform="translate(1762.300781 0)"/>
     <use xlink:href="#DejaVuSans-6e" transform="translate(1823.580078 0)"/>
     <use xlink:href="#DejaVuSans-61" transform="translate(1886.958984 0)"/>
     <use xlink:href="#DejaVuSans-6c" transform="translate(1948.238281 0)"/>
     <use xlink:href="#DejaVuSans-69" transform="translate(1976.021484 0)"/>
     <use xlink:href="#DejaVuSans-20" transform="translate(2003.804688 0)"/>
     <use xlink:href="#DejaVuSans-28" transform="translate(2035.591797 0)"/>
     <use xlink:href="#DejaVuSans-76" transform="translate(2074.605469 0)"/>
     <use xlink:href="#DejaVuSans-69" transform="translate(2133.785156 0)"/>
     <use xlink:href="#DejaVuSans-6f" transform="translate(2161.568359 0)"/>
     <use xlink:href="#DejaVuSans-6c" transform="translate(2222.75 0)"/>
     <use xlink:href="#DejaVuSans-69" transform="translate(2250.533203 0)"/>
     <use xlink:href="#DejaVuSans-6e" transform="translate(2278.316406 0)"/>
     <use xlink:href="#DejaVuSans-6f" transform="translate(2341.695312 0)"/>
     <use xlink:href="#DejaVuSans-29" transform="translate(2402.876953 0)"/>
    </g>
   </g>
  </g>
 </g>
 <defs>
  <clipPath id="p994bc1121b">
   <rect x="66.732727" y="19.477969" width="426.446744" height="262.863481"/>
  </clipPath>
 </defs>
</svg>
