<?xml version="1.0" encoding="utf-8" standalone="no"?>
<!DOCTYPE svg PUBLIC "-//W3C//DTD SVG 1.1//EN"
  "http://www.w3.org/Graphics/SVG/1.1/DTD/svg11.dtd">
<svg xmlns:xlink="http://www.w3.org/1999/xlink" width="496.642213pt" height="341.305291pt" viewBox="0 0 496.642213 341.305291" xmlns="http://www.w3.org/2000/svg" version="1.1">
 <metadata>
  <rdf:RDF xmlns:dc="http://purl.org/dc/elements/1.1/" xmlns:cc="http://creativecommons.org/ns#" xmlns:rdf="http://www.w3.org/1999/02/22-rdf-syntax-ns#">
   <cc:Work>
    <dc:type rdf:resource="http://purl.org/dc/dcmitype/StillImage"/>
    <dc:date>2025-11-01T22:50:30.439754</dc:date>
    <dc:format>image/svg+xml</dc:format>
    <dc:creator>
     <cc:Agent>
      <dc:title>Matplotlib v3.10.7, https://matplotlib.org/</dc:title>
     </cc:Agent>
    </dc:creator>
   </cc:Work>
  </rdf:RDF>
 </metadata>
 <defs>
  <style type="text/css">*{stroke-linejoin: round; stroke-linecap: butt}</style>
 </defs>
 <g id="figure_1">
  <g id="patch_1">
   <path d="M 0 341.305291 
L 496.642213 341.305291 
L 496.642213 0 
L 0 0 
z
" style="fill: #ffffff"/>
  </g>
  <g id="axes_1">
   <g id="patch_2">
    <path d="M 66.063673 284.967011 
L 493.042213 284.967011 
L 493.042213 19.477969 
L 66.063673 19.477969 
z
" style="fill: #ffffff"/>
   </g>
   <g id="matplotlib.axis_1">
    <g id="xtick_1">
     <g id="line2d_1">
      <defs>
       <path id="m0d65b2c47a" d="M 0 0 
L 0 3 
" style="stroke: #262626; stroke-width: 0.5"/>
      </defs>
      <g>
       <use xlink:href="#m0d65b2c47a" x="119.43599" y="19.477969" style="fill: #262626; stroke: #262626; stroke-width: 0.5"/>
      </g>
     </g>
     <g id="text_1">
      <!-- students - secondary -->
      <g style="fill: #262626" transform="translate(5.0514 316.797355) rotate(-10) scale(0.11 -0.11)">
       <defs>
        <path id="DejaVuSans-73" d="M 2834 3397 
L 2834 2853 
Q 2591 2978 2328 3040 
Q 2066 3103 1784 3103 
Q 1356 3103 1142 2972 
Q 928 2841 928 2578 
Q 928 2378 1081 2264 
Q 1234 2150 1697 2047 
L 1894 2003 
Q 2506 1872 2764 1633 
Q 3022 1394 3022 966 
Q 3022 478 2636 193 
Q 2250 -91 1575 -91 
Q 1294 -91 989 -36 
Q 684 19 347 128 
L 347 722 
Q 666 556 975 473 
Q 1284 391 1588 391 
Q 1994 391 2212 530 
Q 2431 669 2431 922 
Q 2431 1156 2273 1281 
Q 2116 1406 1581 1522 
L 1381 1569 
Q 847 1681 609 1914 
Q 372 2147 372 2553 
Q 372 3047 722 3315 
Q 1072 3584 1716 3584 
Q 2034 3584 2315 3537 
Q 2597 3491 2834 3397 
z
" transform="scale(0.015625)"/>
        <path id="DejaVuSans-74" d="M 1172 4494 
L 1172 3500 
L 2356 3500 
L 2356 3053 
L 1172 3053 
L 1172 1153 
Q 1172 725 1289 603 
Q 1406 481 1766 481 
L 2356 481 
L 2356 0 
L 1766 0 
Q 1100 0 847 248 
Q 594 497 594 1153 
L 594 3053 
L 172 3053 
L 172 3500 
L 594 3500 
L 594 4494 
L 1172 4494 
z
" transform="scale(0.015625)"/>
        <path id="DejaVuSans-75" d="M 544 1381 
L 544 3500 
L 1119 3500 
L 1119 1403 
Q 1119 906 1312 657 
Q 1506 409 1894 409 
Q 2359 409 2629 706 
Q 2900 1003 2900 1516 
L 2900 3500 
L 3475 3500 
L 3475 0 
L 2900 0 
L 2900 538 
Q 2691 219 2414 64 
Q 2138 -91 1772 -91 
Q 1169 -91 856 284 
Q 544 659 544 1381 
z
M 1991 3584 
L 1991 3584 
z
" transform="scale(0.015625)"/>
        <path id="DejaVuSans-64" d="M 2906 2969 
L 2906 4863 
L 3481 4863 
L 3481 0 
L 2906 0 
L 2906 525 
Q 2725 213 2448 61 
Q 2172 -91 1784 -91 
Q 1150 -91 751 415 
Q 353 922 353 1747 
Q 353 2572 751 3078 
Q 1150 3584 1784 3584 
Q 2172 3584 2448 3432 
Q 2725 3281 2906 2969 
z
M 947 1747 
Q 947 1113 1208 752 
Q 1469 391 1925 391 
Q 2381 391 2643 752 
Q 2906 1113 2906 1747 
Q 2906 2381 2643 2742 
Q 2381 3103 1925 3103 
Q 1469 3103 1208 2742 
Q 947 2381 947 1747 
z
" transform="scale(0.015625)"/>
        <path id="DejaVuSans-65" d="M 3597 1894 
L 3597 1613 
L 953 1613 
Q 991 1019 1311 708 
Q 1631 397 2203 397 
Q 2534 397 2845 478 
Q 3156 559 3463 722 
L 3463 178 
Q 3153 47 2828 -22 
Q 2503 -91 2169 -91 
Q 1331 -91 842 396 
Q 353 884 353 1716 
Q 353 2575 817 3079 
Q 1281 3584 2069 3584 
Q 2775 3584 3186 3129 
Q 3597 2675 3597 1894 
z
M 3022 2063 
Q 3016 2534 2758 2815 
Q 2500 3097 2075 3097 
Q 1594 3097 1305 2825 
Q 1016 2553 972 2059 
L 3022 2063 
z
" transform="scale(0.015625)"/>
        <path id="DejaVuSans-6e" d="M 3513 2113 
L 3513 0 
L 2938 0 
L 2938 2094 
Q 2938 2591 2744 2837 
Q 2550 3084 2163 3084 
Q 1697 3084 1428 2787 
Q 1159 2491 1159 1978 
L 1159 0 
L 581 0 
L 581 3500 
L 1159 3500 
L 1159 2956 
Q 1366 3272 1645 3428 
Q 1925 3584 2291 3584 
Q 2894 3584 3203 3211 
Q 3513 2838 3513 2113 
z
" transform="scale(0.015625)"/>
        <path id="DejaVuSans-20" transform="scale(0.015625)"/>
        <path id="DejaVuSans-2d" d="M 313 2009 
L 1997 2009 
L 1997 1497 
L 313 1497 
L 313 2009 
z
" transform="scale(0.015625)"/>
        <path id="DejaVuSans-63" d="M 3122 3366 
L 3122 2828 
Q 2878 2963 2633 3030 
Q 2388 3097 2138 3097 
Q 1578 3097 1268 2742 
Q 959 2388 959 1747 
Q 959 1106 1268 751 
Q 1578 397 2138 397 
Q 2388 397 2633 464 
Q 2878 531 3122 666 
L 3122 134 
Q 2881 22 2623 -34 
Q 2366 -91 2075 -91 
Q 1284 -91 818 406 
Q 353 903 353 1747 
Q 353 2603 823 3093 
Q 1294 3584 2113 3584 
Q 2378 3584 2631 3529 
Q 2884 3475 3122 3366 
z
" transform="scale(0.015625)"/>
        <path id="DejaVuSans-6f" d="M 1959 3097 
Q 1497 3097 1228 2736 
Q 959 2375 959 1747 
Q 959 1119 1226 758 
Q 1494 397 1959 397 
Q 2419 397 2687 759 
Q 2956 1122 2956 1747 
Q 2956 2369 2687 2733 
Q 2419 3097 1959 3097 
z
M 1959 3584 
Q 2709 3584 3137 3096 
Q 3566 2609 3566 1747 
Q 3566 888 3137 398 
Q 2709 -91 1959 -91 
Q 1206 -91 779 398 
Q 353 888 353 1747 
Q 353 2609 779 3096 
Q 1206 3584 1959 3584 
z
" transform="scale(0.015625)"/>
        <path id="DejaVuSans-61" d="M 2194 1759 
Q 1497 1759 1228 1600 
Q 959 1441 959 1056 
Q 959 750 1161 570 
Q 1363 391 1709 391 
Q 2188 391 2477 730 
Q 2766 1069 2766 1631 
L 2766 1759 
L 2194 1759 
z
M 3341 1997 
L 3341 0 
L 2766 0 
L 2766 531 
Q 2569 213 2275 61 
Q 1981 -91 1556 -91 
Q 1019 -91 701 211 
Q 384 513 384 1019 
Q 384 1609 779 1909 
Q 1175 2209 1959 2209 
L 2766 2209 
L 2766 2266 
Q 2766 2663 2505 2880 
Q 2244 3097 1772 3097 
Q 1472 3097 1187 3025 
Q 903 2953 641 2809 
L 641 3341 
Q 956 3463 1253 3523 
Q 1550 3584 1831 3584 
Q 2591 3584 2966 3190 
Q 3341 2797 3341 1997 
z
" transform="scale(0.015625)"/>
        <path id="DejaVuSans-72" d="M 2631 2963 
Q 2534 3019 2420 3045 
Q 2306 3072 2169 3072 
Q 1681 3072 1420 2755 
Q 1159 2438 1159 1844 
L 1159 0 
L 581 0 
L 581 3500 
L 1159 3500 
L 1159 2956 
Q 1341 3275 1631 3429 
Q 1922 3584 2338 3584 
Q 2397 3584 2469 3576 
Q 2541 3569 2628 3553 
L 2631 2963 
z
" transform="scale(0.015625)"/>
        <path id="DejaVuSans-79" d="M 2059 -325 
Q 1816 -950 1584 -1140 
Q 1353 -1331 966 -1331 
L 506 -1331 
L 506 -850 
L 844 -850 
Q 1081 -850 1212 -737 
Q 1344 -625 1503 -206 
L 1606 56 
L 191 3500 
L 800 3500 
L 1894 763 
L 2988 3500 
L 3597 3500 
L 2059 -325 
z
" transform="scale(0.015625)"/>
       </defs>
       <use xlink:href="#DejaVuSans-73"/>
       <use xlink:href="#DejaVuSans-74" transform="translate(52.099609 0)"/>
       <use xlink:href="#DejaVuSans-75" transform="translate(91.308594 0)"/>
       <use xlink:href="#DejaVuSans-64" transform="translate(154.6875 0)"/>
       <use xlink:href="#DejaVuSans-65" transform="translate(218.164062 0)"/>
       <use xlink:href="#DejaVuSans-6e" transform="translate(279.6875 0)"/>
       <use xlink:href="#DejaVuSans-74" transform="translate(343.066406 0)"/>
       <use xlink:href="#DejaVuSans-73" transform="translate(382.275391 0)"/>
       <use xlink:href="#DejaVuSans-20" transform="translate(434.375 0)"/>
       <use xlink:href="#DejaVuSans-2d" transform="translate(466.162109 0)"/>
       <use xlink:href="#DejaVuSans-20" transform="translate(502.246094 0)"/>
       <use xlink:href="#DejaVuSans-73" transform="translate(534.033203 0)"/>
       <use xlink:href="#DejaVuSans-65" transform="translate(586.132812 0)"/>
       <use xlink:href="#DejaVuSans-63" transform="translate(647.65625 0)"/>
       <use xlink:href="#DejaVuSans-6f" transform="translate(702.636719 0)"/>
       <use xlink:href="#DejaVuSans-6e" transform="translate(763.818359 0)"/>
       <use xlink:href="#DejaVuSans-64" transform="translate(827.197266 0)"/>
       <use xlink:href="#DejaVuSans-61" transform="translate(890.673828 0)"/>
       <use xlink:href="#DejaVuSans-72" transform="translate(951.953125 0)"/>
       <use xlink:href="#DejaVuSans-79" transform="translate(993.066406 0)"/>
      </g>
     </g>
    </g>
    <g id="xtick_2">
     <g id="line2d_2">
      <g>
       <use xlink:href="#m0d65b2c47a" x="226.180625" y="19.477969" style="fill: #262626; stroke: #262626; stroke-width: 0.5"/>
      </g>
     </g>
     <g id="text_2">
      <!-- students - university -->
      <g style="fill: #262626" transform="translate(114.353612 316.346385) rotate(-10) scale(0.11 -0.11)">
       <defs>
        <path id="DejaVuSans-69" d="M 603 3500 
L 1178 3500 
L 1178 0 
L 603 0 
L 603 3500 
z
M 603 4863 
L 1178 4863 
L 1178 4134 
L 603 4134 
L 603 4863 
z
" transform="scale(0.015625)"/>
        <path id="DejaVuSans-76" d="M 191 3500 
L 800 3500 
L 1894 563 
L 2988 3500 
L 3597 3500 
L 2284 0 
L 1503 0 
L 191 3500 
z
" transform="scale(0.015625)"/>
       </defs>
       <use xlink:href="#DejaVuSans-73"/>
       <use xlink:href="#DejaVuSans-74" transform="translate(52.099609 0)"/>
       <use xlink:href="#DejaVuSans-75" transform="translate(91.308594 0)"/>
       <use xlink:href="#DejaVuSans-64" transform="translate(154.6875 0)"/>
       <use xlink:href="#DejaVuSans-65" transform="translate(218.164062 0)"/>
       <use xlink:href="#DejaVuSans-6e" transform="translate(279.6875 0)"/>
       <use xlink:href="#DejaVuSans-74" transform="translate(343.066406 0)"/>
       <use xlink:href="#DejaVuSans-73" transform="translate(382.275391 0)"/>
       <use xlink:href="#DejaVuSans-20" transform="translate(434.375 0)"/>
       <use xlink:href="#DejaVuSans-2d" transform="translate(466.162109 0)"/>
       <use xlink:href="#DejaVuSans-20" transform="translate(502.246094 0)"/>
       <use xlink:href="#DejaVuSans-75" transform="translate(534.033203 0)"/>
       <use xlink:href="#DejaVuSans-6e" transform="translate(597.412109 0)"/>
       <use xlink:href="#DejaVuSans-69" transform="translate(660.791016 0)"/>
       <use xlink:href="#DejaVuSans-76" transform="translate(688.574219 0)"/>
       <use xlink:href="#DejaVuSans-65" transform="translate(747.753906 0)"/>
       <use xlink:href="#DejaVuSans-72" transform="translate(809.277344 0)"/>
       <use xlink:href="#DejaVuSans-73" transform="translate(850.390625 0)"/>
       <use xlink:href="#DejaVuSans-69" transform="translate(902.490234 0)"/>
       <use xlink:href="#DejaVuSans-74" transform="translate(930.273438 0)"/>
       <use xlink:href="#DejaVuSans-79" transform="translate(969.482422 0)"/>
      </g>
     </g>
    </g>
    <g id="xtick_3">
     <g id="line2d_3">
      <g>
       <use xlink:href="#m0d65b2c47a" x="332.92526" y="19.477969" style="fill: #262626; stroke: #262626; stroke-width: 0.5"/>
      </g>
     </g>
     <g id="text_3">
      <!-- teachers - not in service -->
      <g style="fill: #262626" transform="translate(201.292686 319.83864) rotate(-10) scale(0.11 -0.11)">
       <defs>
        <path id="DejaVuSans-68" d="M 3513 2113 
L 3513 0 
L 2938 0 
L 2938 2094 
Q 2938 2591 2744 2837 
Q 2550 3084 2163 3084 
Q 1697 3084 1428 2787 
Q 1159 2491 1159 1978 
L 1159 0 
L 581 0 
L 581 4863 
L 1159 4863 
L 1159 2956 
Q 1366 3272 1645 3428 
Q 1925 3584 2291 3584 
Q 2894 3584 3203 3211 
Q 3513 2838 3513 2113 
z
" transform="scale(0.015625)"/>
       </defs>
       <use xlink:href="#DejaVuSans-74"/>
       <use xlink:href="#DejaVuSans-65" transform="translate(39.208984 0)"/>
       <use xlink:href="#DejaVuSans-61" transform="translate(100.732422 0)"/>
       <use xlink:href="#DejaVuSans-63" transform="translate(162.011719 0)"/>
       <use xlink:href="#DejaVuSans-68" transform="translate(216.992188 0)"/>
       <use xlink:href="#DejaVuSans-65" transform="translate(280.371094 0)"/>
       <use xlink:href="#DejaVuSans-72" transform="translate(341.894531 0)"/>
       <use xlink:href="#DejaVuSans-73" transform="translate(383.007812 0)"/>
       <use xlink:href="#DejaVuSans-20" transform="translate(435.107422 0)"/>
       <use xlink:href="#DejaVuSans-2d" transform="translate(466.894531 0)"/>
       <use xlink:href="#DejaVuSans-20" transform="translate(502.978516 0)"/>
       <use xlink:href="#DejaVuSans-6e" transform="translate(534.765625 0)"/>
       <use xlink:href="#DejaVuSans-6f" transform="translate(598.144531 0)"/>
       <use xlink:href="#DejaVuSans-74" transform="translate(659.326172 0)"/>
       <use xlink:href="#DejaVuSans-20" transform="translate(698.535156 0)"/>
       <use xlink:href="#DejaVuSans-69" transform="translate(730.322266 0)"/>
       <use xlink:href="#DejaVuSans-6e" transform="translate(758.105469 0)"/>
       <use xlink:href="#DejaVuSans-20" transform="translate(821.484375 0)"/>
       <use xlink:href="#DejaVuSans-73" transform="translate(853.271484 0)"/>
       <use xlink:href="#DejaVuSans-65" transform="translate(905.371094 0)"/>
       <use xlink:href="#DejaVuSans-72" transform="translate(966.894531 0)"/>
       <use xlink:href="#DejaVuSans-76" transform="translate(1008.007812 0)"/>
       <use xlink:href="#DejaVuSans-69" transform="translate(1067.1875 0)"/>
       <use xlink:href="#DejaVuSans-63" transform="translate(1094.970703 0)"/>
       <use xlink:href="#DejaVuSans-65" transform="translate(1149.951172 0)"/>
      </g>
     </g>
    </g>
    <g id="xtick_4">
     <g id="line2d_4">
      <g>
       <use xlink:href="#m0d65b2c47a" x="439.669896" y="19.477969" style="fill: #262626; stroke: #262626; stroke-width: 0.5"/>
      </g>
     </g>
     <g id="text_4">
      <!-- teachers - in service -->
      <g style="fill: #262626" transform="translate(329.22069 316.10344) rotate(-10) scale(0.11 -0.11)">
       <use xlink:href="#DejaVuSans-74"/>
       <use xlink:href="#DejaVuSans-65" transform="translate(39.208984 0)"/>
       <use xlink:href="#DejaVuSans-61" transform="translate(100.732422 0)"/>
       <use xlink:href="#DejaVuSans-63" transform="translate(162.011719 0)"/>
       <use xlink:href="#DejaVuSans-68" transform="translate(216.992188 0)"/>
       <use xlink:href="#DejaVuSans-65" transform="translate(280.371094 0)"/>
       <use xlink:href="#DejaVuSans-72" transform="translate(341.894531 0)"/>
       <use xlink:href="#DejaVuSans-73" transform="translate(383.007812 0)"/>
       <use xlink:href="#DejaVuSans-20" transform="translate(435.107422 0)"/>
       <use xlink:href="#DejaVuSans-2d" transform="translate(466.894531 0)"/>
       <use xlink:href="#DejaVuSans-20" transform="translate(502.978516 0)"/>
       <use xlink:href="#DejaVuSans-69" transform="translate(534.765625 0)"/>
       <use xlink:href="#DejaVuSans-6e" transform="translate(562.548828 0)"/>
       <use xlink:href="#DejaVuSans-20" transform="translate(625.927734 0)"/>
       <use xlink:href="#DejaVuSans-73" transform="translate(657.714844 0)"/>
       <use xlink:href="#DejaVuSans-65" transform="translate(709.814453 0)"/>
       <use xlink:href="#DejaVuSans-72" transform="translate(771.337891 0)"/>
       <use xlink:href="#DejaVuSans-76" transform="translate(812.451172 0)"/>
       <use xlink:href="#DejaVuSans-69" transform="translate(871.630859 0)"/>
       <use xlink:href="#DejaVuSans-63" transform="translate(899.414062 0)"/>
       <use xlink:href="#DejaVuSans-65" transform="translate(954.394531 0)"/>
      </g>
     </g>
    </g>
    <g id="xtick_5">
     <g id="line2d_5">
      <defs>
       <path id="mfee59992a6" d="M 0 0 
L 0 1.5 
" style="stroke: #262626; stroke-width: 0.5"/>
      </defs>
      <g>
       <use xlink:href="#mfee59992a6" x="76.738136" y="19.477969" style="fill: #262626; stroke: #262626; stroke-width: 0.5"/>
      </g>
     </g>
    </g>
    <g id="xtick_6">
     <g id="line2d_6">
      <g>
       <use xlink:href="#mfee59992a6" x="98.087063" y="19.477969" style="fill: #262626; stroke: #262626; stroke-width: 0.5"/>
      </g>
     </g>
    </g>
    <g id="xtick_7">
     <g id="line2d_7">
      <g>
       <use xlink:href="#mfee59992a6" x="140.784917" y="19.477969" style="fill: #262626; stroke: #262626; stroke-width: 0.5"/>
      </g>
     </g>
    </g>
    <g id="xtick_8">
     <g id="line2d_8">
      <g>
       <use xlink:href="#mfee59992a6" x="162.133844" y="19.477969" style="fill: #262626; stroke: #262626; stroke-width: 0.5"/>
      </g>
     </g>
    </g>
    <g id="xtick_9">
     <g id="line2d_9">
      <g>
       <use xlink:href="#mfee59992a6" x="183.482771" y="19.477969" style="fill: #262626; stroke: #262626; stroke-width: 0.5"/>
      </g>
     </g>
    </g>
    <g id="xtick_10">
     <g id="line2d_10">
      <g>
       <use xlink:href="#mfee59992a6" x="204.831698" y="19.477969" style="fill: #262626; stroke: #262626; stroke-width: 0.5"/>
      </g>
     </g>
    </g>
    <g id="xtick_11">
     <g id="line2d_11">
      <g>
       <use xlink:href="#mfee59992a6" x="247.529552" y="19.477969" style="fill: #262626; stroke: #262626; stroke-width: 0.5"/>
      </g>
     </g>
    </g>
    <g id="xtick_12">
     <g id="line2d_12">
      <g>
       <use xlink:href="#mfee59992a6" x="268.878479" y="19.477969" style="fill: #262626; stroke: #262626; stroke-width: 0.5"/>
      </g>
     </g>
    </g>
    <g id="xtick_13">
     <g id="line2d_13">
      <g>
       <use xlink:href="#mfee59992a6" x="290.227406" y="19.477969" style="fill: #262626; stroke: #262626; stroke-width: 0.5"/>
      </g>
     </g>
    </g>
    <g id="xtick_14">
     <g id="line2d_14">
      <g>
       <use xlink:href="#mfee59992a6" x="311.576333" y="19.477969" style="fill: #262626; stroke: #262626; stroke-width: 0.5"/>
      </g>
     </g>
    </g>
    <g id="xtick_15">
     <g id="line2d_15">
      <g>
       <use xlink:href="#mfee59992a6" x="354.274187" y="19.477969" style="fill: #262626; stroke: #262626; stroke-width: 0.5"/>
      </g>
     </g>
    </g>
    <g id="xtick_16">
     <g id="line2d_16">
      <g>
       <use xlink:href="#mfee59992a6" x="375.623115" y="19.477969" style="fill: #262626; stroke: #262626; stroke-width: 0.5"/>
      </g>
     </g>
    </g>
    <g id="xtick_17">
     <g id="line2d_17">
      <g>
       <use xlink:href="#mfee59992a6" x="396.972042" y="19.477969" style="fill: #262626; stroke: #262626; stroke-width: 0.5"/>
      </g>
     </g>
    </g>
    <g id="xtick_18">
     <g id="line2d_18">
      <g>
       <use xlink:href="#mfee59992a6" x="418.320969" y="19.477969" style="fill: #262626; stroke: #262626; stroke-width: 0.5"/>
      </g>
     </g>
    </g>
    <g id="xtick_19">
     <g id="line2d_19">
      <g>
       <use xlink:href="#mfee59992a6" x="461.018823" y="19.477969" style="fill: #262626; stroke: #262626; stroke-width: 0.5"/>
      </g>
     </g>
    </g>
    <g id="xtick_20">
     <g id="line2d_20">
      <g>
       <use xlink:href="#mfee59992a6" x="482.36775" y="19.477969" style="fill: #262626; stroke: #262626; stroke-width: 0.5"/>
      </g>
     </g>
    </g>
    <g id="text_5">
     <!-- Group -->
     <g style="fill: #262626" transform="translate(261.289505 335.209666) scale(0.12 -0.12)">
      <defs>
       <path id="DejaVuSans-47" d="M 3809 666 
L 3809 1919 
L 2778 1919 
L 2778 2438 
L 4434 2438 
L 4434 434 
Q 4069 175 3628 42 
Q 3188 -91 2688 -91 
Q 1594 -91 976 548 
Q 359 1188 359 2328 
Q 359 3472 976 4111 
Q 1594 4750 2688 4750 
Q 3144 4750 3555 4637 
Q 3966 4525 4313 4306 
L 4313 3634 
Q 3963 3931 3569 4081 
Q 3175 4231 2741 4231 
Q 1884 4231 1454 3753 
Q 1025 3275 1025 2328 
Q 1025 1384 1454 906 
Q 1884 428 2741 428 
Q 3075 428 3337 486 
Q 3600 544 3809 666 
z
" transform="scale(0.015625)"/>
       <path id="DejaVuSans-70" d="M 1159 525 
L 1159 -1331 
L 581 -1331 
L 581 3500 
L 1159 3500 
L 1159 2969 
Q 1341 3281 1617 3432 
Q 1894 3584 2278 3584 
Q 2916 3584 3314 3078 
Q 3713 2572 3713 1747 
Q 3713 922 3314 415 
Q 2916 -91 2278 -91 
Q 1894 -91 1617 61 
Q 1341 213 1159 525 
z
M 3116 1747 
Q 3116 2381 2855 2742 
Q 2594 3103 2138 3103 
Q 1681 3103 1420 2742 
Q 1159 2381 1159 1747 
Q 1159 1113 1420 752 
Q 1681 391 2138 391 
Q 2594 391 2855 752 
Q 3116 1113 3116 1747 
z
" transform="scale(0.015625)"/>
      </defs>
      <use xlink:href="#DejaVuSans-47"/>
      <use xlink:href="#DejaVuSans-72" transform="translate(77.490234 0)"/>
      <use xlink:href="#DejaVuSans-6f" transform="translate(116.353516 0)"/>
      <use xlink:href="#DejaVuSans-75" transform="translate(177.535156 0)"/>
      <use xlink:href="#DejaVuSans-70" transform="translate(240.914062 0)"/>
     </g>
    </g>
   </g>
   <g id="matplotlib.axis_2">
    <g id="ytick_1">
     <g id="line2d_21">
      <path d="M 66.063673 272.899327 
L 493.042213 272.899327 
" clip-path="url(#pe00014b760)" style="fill: none; stroke-dasharray: 1.85,0.8; stroke-dashoffset: 0; stroke: #1a1a1a; stroke-opacity: 0.25; stroke-width: 0.5"/>
     </g>
     <g id="line2d_22">
      <defs>
       <path id="md79ee331af" d="M 0 0 
L -3 0 
" style="stroke: #262626; stroke-width: 0.5"/>
      </defs>
      <g>
       <use xlink:href="#md79ee331af" x="493.042213" y="272.899327" style="fill: #262626; stroke: #262626; stroke-width: 0.5"/>
      </g>
     </g>
     <g id="text_6">
      <!-- $\mathdefault{0}$ -->
      <g style="fill: #262626" transform="translate(55.523673 277.078467) scale(0.11 -0.11)">
       <defs>
        <path id="DejaVuSans-30" d="M 2034 4250 
Q 1547 4250 1301 3770 
Q 1056 3291 1056 2328 
Q 1056 1369 1301 889 
Q 1547 409 2034 409 
Q 2525 409 2770 889 
Q 3016 1369 3016 2328 
Q 3016 3291 2770 3770 
Q 2525 4250 2034 4250 
z
M 2034 4750 
Q 2819 4750 3233 4129 
Q 3647 3509 3647 2328 
Q 3647 1150 3233 529 
Q 2819 -91 2034 -91 
Q 1250 -91 836 529 
Q 422 1150 422 2328 
Q 422 3509 836 4129 
Q 1250 4750 2034 4750 
z
" transform="scale(0.015625)"/>
       </defs>
       <use xlink:href="#DejaVuSans-30" transform="translate(0 0.78125)"/>
      </g>
     </g>
    </g>
    <g id="ytick_2">
     <g id="line2d_23">
      <path d="M 66.063673 224.628592 
L 493.042213 224.628592 
" clip-path="url(#pe00014b760)" style="fill: none; stroke-dasharray: 1.85,0.8; stroke-dashoffset: 0; stroke: #1a1a1a; stroke-opacity: 0.25; stroke-width: 0.5"/>
     </g>
     <g id="line2d_24">
      <g>
       <use xlink:href="#md79ee331af" x="493.042213" y="224.628592" style="fill: #262626; stroke: #262626; stroke-width: 0.5"/>
      </g>
     </g>
     <g id="text_7">
      <!-- $\mathdefault{2}$ -->
      <g style="fill: #262626" transform="translate(55.523673 228.807733) scale(0.11 -0.11)">
       <defs>
        <path id="DejaVuSans-32" d="M 1228 531 
L 3431 531 
L 3431 0 
L 469 0 
L 469 531 
Q 828 903 1448 1529 
Q 2069 2156 2228 2338 
Q 2531 2678 2651 2914 
Q 2772 3150 2772 3378 
Q 2772 3750 2511 3984 
Q 2250 4219 1831 4219 
Q 1534 4219 1204 4116 
Q 875 4013 500 3803 
L 500 4441 
Q 881 4594 1212 4672 
Q 1544 4750 1819 4750 
Q 2544 4750 2975 4387 
Q 3406 4025 3406 3419 
Q 3406 3131 3298 2873 
Q 3191 2616 2906 2266 
Q 2828 2175 2409 1742 
Q 1991 1309 1228 531 
z
" transform="scale(0.015625)"/>
       </defs>
       <use xlink:href="#DejaVuSans-32" transform="translate(0 0.78125)"/>
      </g>
     </g>
    </g>
    <g id="ytick_3">
     <g id="line2d_25">
      <path d="M 66.063673 176.357857 
L 493.042213 176.357857 
" clip-path="url(#pe00014b760)" style="fill: none; stroke-dasharray: 1.85,0.8; stroke-dashoffset: 0; stroke: #1a1a1a; stroke-opacity: 0.25; stroke-width: 0.5"/>
     </g>
     <g id="line2d_26">
      <g>
       <use xlink:href="#md79ee331af" x="493.042213" y="176.357857" style="fill: #262626; stroke: #262626; stroke-width: 0.5"/>
      </g>
     </g>
     <g id="text_8">
      <!-- $\mathdefault{4}$ -->
      <g style="fill: #262626" transform="translate(55.523673 180.536998) scale(0.11 -0.11)">
       <defs>
        <path id="DejaVuSans-34" d="M 2419 4116 
L 825 1625 
L 2419 1625 
L 2419 4116 
z
M 2253 4666 
L 3047 4666 
L 3047 1625 
L 3713 1625 
L 3713 1100 
L 3047 1100 
L 3047 0 
L 2419 0 
L 2419 1100 
L 313 1100 
L 313 1709 
L 2253 4666 
z
" transform="scale(0.015625)"/>
       </defs>
       <use xlink:href="#DejaVuSans-34" transform="translate(0 0.09375)"/>
      </g>
     </g>
    </g>
    <g id="ytick_4">
     <g id="line2d_27">
      <path d="M 66.063673 128.087122 
L 493.042213 128.087122 
" clip-path="url(#pe00014b760)" style="fill: none; stroke-dasharray: 1.85,0.8; stroke-dashoffset: 0; stroke: #1a1a1a; stroke-opacity: 0.25; stroke-width: 0.5"/>
     </g>
     <g id="line2d_28">
      <g>
       <use xlink:href="#md79ee331af" x="493.042213" y="128.087122" style="fill: #262626; stroke: #262626; stroke-width: 0.5"/>
      </g>
     </g>
     <g id="text_9">
      <!-- $\mathdefault{6}$ -->
      <g style="fill: #262626" transform="translate(55.523673 132.266263) scale(0.11 -0.11)">
       <defs>
        <path id="DejaVuSans-36" d="M 2113 2584 
Q 1688 2584 1439 2293 
Q 1191 2003 1191 1497 
Q 1191 994 1439 701 
Q 1688 409 2113 409 
Q 2538 409 2786 701 
Q 3034 994 3034 1497 
Q 3034 2003 2786 2293 
Q 2538 2584 2113 2584 
z
M 3366 4563 
L 3366 3988 
Q 3128 4100 2886 4159 
Q 2644 4219 2406 4219 
Q 1781 4219 1451 3797 
Q 1122 3375 1075 2522 
Q 1259 2794 1537 2939 
Q 1816 3084 2150 3084 
Q 2853 3084 3261 2657 
Q 3669 2231 3669 1497 
Q 3669 778 3244 343 
Q 2819 -91 2113 -91 
Q 1303 -91 875 529 
Q 447 1150 447 2328 
Q 447 3434 972 4092 
Q 1497 4750 2381 4750 
Q 2619 4750 2861 4703 
Q 3103 4656 3366 4563 
z
" transform="scale(0.015625)"/>
       </defs>
       <use xlink:href="#DejaVuSans-36" transform="translate(0 0.78125)"/>
      </g>
     </g>
    </g>
    <g id="ytick_5">
     <g id="line2d_29">
      <path d="M 66.063673 79.816387 
L 493.042213 79.816387 
" clip-path="url(#pe00014b760)" style="fill: none; stroke-dasharray: 1.85,0.8; stroke-dashoffset: 0; stroke: #1a1a1a; stroke-opacity: 0.25; stroke-width: 0.5"/>
     </g>
     <g id="line2d_30">
      <g>
       <use xlink:href="#md79ee331af" x="493.042213" y="79.816387" style="fill: #262626; stroke: #262626; stroke-width: 0.5"/>
      </g>
     </g>
     <g id="text_10">
      <!-- $\mathdefault{8}$ -->
      <g style="fill: #262626" transform="translate(55.523673 83.995528) scale(0.11 -0.11)">
       <defs>
        <path id="DejaVuSans-38" d="M 2034 2216 
Q 1584 2216 1326 1975 
Q 1069 1734 1069 1313 
Q 1069 891 1326 650 
Q 1584 409 2034 409 
Q 2484 409 2743 651 
Q 3003 894 3003 1313 
Q 3003 1734 2745 1975 
Q 2488 2216 2034 2216 
z
M 1403 2484 
Q 997 2584 770 2862 
Q 544 3141 544 3541 
Q 544 4100 942 4425 
Q 1341 4750 2034 4750 
Q 2731 4750 3128 4425 
Q 3525 4100 3525 3541 
Q 3525 3141 3298 2862 
Q 3072 2584 2669 2484 
Q 3125 2378 3379 2068 
Q 3634 1759 3634 1313 
Q 3634 634 3220 271 
Q 2806 -91 2034 -91 
Q 1263 -91 848 271 
Q 434 634 434 1313 
Q 434 1759 690 2068 
Q 947 2378 1403 2484 
z
M 1172 3481 
Q 1172 3119 1398 2916 
Q 1625 2713 2034 2713 
Q 2441 2713 2670 2916 
Q 2900 3119 2900 3481 
Q 2900 3844 2670 4047 
Q 2441 4250 2034 4250 
Q 1625 4250 1398 4047 
Q 1172 3844 1172 3481 
z
" transform="scale(0.015625)"/>
       </defs>
       <use xlink:href="#DejaVuSans-38" transform="translate(0 0.78125)"/>
      </g>
     </g>
    </g>
    <g id="ytick_6">
     <g id="line2d_31">
      <path d="M 66.063673 31.545652 
L 493.042213 31.545652 
" clip-path="url(#pe00014b760)" style="fill: none; stroke-dasharray: 1.85,0.8; stroke-dashoffset: 0; stroke: #1a1a1a; stroke-opacity: 0.25; stroke-width: 0.5"/>
     </g>
     <g id="line2d_32">
      <g>
       <use xlink:href="#md79ee331af" x="493.042213" y="31.545652" style="fill: #262626; stroke: #262626; stroke-width: 0.5"/>
      </g>
     </g>
     <g id="text_11">
      <!-- $\mathdefault{10}$ -->
      <g style="fill: #262626" transform="translate(48.483673 35.724793) scale(0.11 -0.11)">
       <defs>
        <path id="DejaVuSans-31" d="M 794 531 
L 1825 531 
L 1825 4091 
L 703 3866 
L 703 4441 
L 1819 4666 
L 2450 4666 
L 2450 531 
L 3481 531 
L 3481 0 
L 794 0 
L 794 531 
z
" transform="scale(0.015625)"/>
       </defs>
       <use xlink:href="#DejaVuSans-31" transform="translate(0 0.78125)"/>
       <use xlink:href="#DejaVuSans-30" transform="translate(63.623047 0.78125)"/>
      </g>
     </g>
    </g>
    <g id="ytick_7">
     <g id="line2d_33">
      <defs>
       <path id="m3aa02bcc02" d="M 0 0 
L -1.5 0 
" style="stroke: #262626; stroke-width: 0.5"/>
      </defs>
      <g>
       <use xlink:href="#m3aa02bcc02" x="493.042213" y="284.967011" style="fill: #262626; stroke: #262626; stroke-width: 0.5"/>
      </g>
     </g>
    </g>
    <g id="ytick_8">
     <g id="line2d_34">
      <g>
       <use xlink:href="#m3aa02bcc02" x="493.042213" y="260.831643" style="fill: #262626; stroke: #262626; stroke-width: 0.5"/>
      </g>
     </g>
    </g>
    <g id="ytick_9">
     <g id="line2d_35">
      <g>
       <use xlink:href="#m3aa02bcc02" x="493.042213" y="248.763959" style="fill: #262626; stroke: #262626; stroke-width: 0.5"/>
      </g>
     </g>
    </g>
    <g id="ytick_10">
     <g id="line2d_36">
      <g>
       <use xlink:href="#m3aa02bcc02" x="493.042213" y="236.696276" style="fill: #262626; stroke: #262626; stroke-width: 0.5"/>
      </g>
     </g>
    </g>
    <g id="ytick_11">
     <g id="line2d_37">
      <g>
       <use xlink:href="#m3aa02bcc02" x="493.042213" y="212.560908" style="fill: #262626; stroke: #262626; stroke-width: 0.5"/>
      </g>
     </g>
    </g>
    <g id="ytick_12">
     <g id="line2d_38">
      <g>
       <use xlink:href="#m3aa02bcc02" x="493.042213" y="200.493225" style="fill: #262626; stroke: #262626; stroke-width: 0.5"/>
      </g>
     </g>
    </g>
    <g id="ytick_13">
     <g id="line2d_39">
      <g>
       <use xlink:href="#m3aa02bcc02" x="493.042213" y="188.425541" style="fill: #262626; stroke: #262626; stroke-width: 0.5"/>
      </g>
     </g>
    </g>
    <g id="ytick_14">
     <g id="line2d_40">
      <g>
       <use xlink:href="#m3aa02bcc02" x="493.042213" y="164.290173" style="fill: #262626; stroke: #262626; stroke-width: 0.5"/>
      </g>
     </g>
    </g>
    <g id="ytick_15">
     <g id="line2d_41">
      <g>
       <use xlink:href="#m3aa02bcc02" x="493.042213" y="152.22249" style="fill: #262626; stroke: #262626; stroke-width: 0.5"/>
      </g>
     </g>
    </g>
    <g id="ytick_16">
     <g id="line2d_42">
      <g>
       <use xlink:href="#m3aa02bcc02" x="493.042213" y="140.154806" style="fill: #262626; stroke: #262626; stroke-width: 0.5"/>
      </g>
     </g>
    </g>
    <g id="ytick_17">
     <g id="line2d_43">
      <g>
       <use xlink:href="#m3aa02bcc02" x="493.042213" y="116.019439" style="fill: #262626; stroke: #262626; stroke-width: 0.5"/>
      </g>
     </g>
    </g>
    <g id="ytick_18">
     <g id="line2d_44">
      <g>
       <use xlink:href="#m3aa02bcc02" x="493.042213" y="103.951755" style="fill: #262626; stroke: #262626; stroke-width: 0.5"/>
      </g>
     </g>
    </g>
    <g id="ytick_19">
     <g id="line2d_45">
      <g>
       <use xlink:href="#m3aa02bcc02" x="493.042213" y="91.884071" style="fill: #262626; stroke: #262626; stroke-width: 0.5"/>
      </g>
     </g>
    </g>
    <g id="ytick_20">
     <g id="line2d_46">
      <g>
       <use xlink:href="#m3aa02bcc02" x="493.042213" y="67.748704" style="fill: #262626; stroke: #262626; stroke-width: 0.5"/>
      </g>
     </g>
    </g>
    <g id="ytick_21">
     <g id="line2d_47">
      <g>
       <use xlink:href="#m3aa02bcc02" x="493.042213" y="55.68102" style="fill: #262626; stroke: #262626; stroke-width: 0.5"/>
      </g>
     </g>
    </g>
    <g id="ytick_22">
     <g id="line2d_48">
      <g>
       <use xlink:href="#m3aa02bcc02" x="493.042213" y="43.613336" style="fill: #262626; stroke: #262626; stroke-width: 0.5"/>
      </g>
     </g>
    </g>
    <g id="ytick_23">
     <g id="line2d_49">
      <g>
       <use xlink:href="#m3aa02bcc02" x="493.042213" y="19.477969" style="fill: #262626; stroke: #262626; stroke-width: 0.5"/>
      </g>
     </g>
    </g>
    <g id="text_12">
     <!-- Weekly hours (daily AI use) -->
     <g style="fill: #262626" transform="translate(41.988048 233.921865) rotate(-90) scale(0.12 -0.12)">
      <defs>
       <path id="DejaVuSans-57" d="M 213 4666 
L 850 4666 
L 1831 722 
L 2809 4666 
L 3519 4666 
L 4500 722 
L 5478 4666 
L 6119 4666 
L 4947 0 
L 4153 0 
L 3169 4050 
L 2175 0 
L 1381 0 
L 213 4666 
z
" transform="scale(0.015625)"/>
       <path id="DejaVuSans-6b" d="M 581 4863 
L 1159 4863 
L 1159 1991 
L 2875 3500 
L 3609 3500 
L 1753 1863 
L 3688 0 
L 2938 0 
L 1159 1709 
L 1159 0 
L 581 0 
L 581 4863 
z
" transform="scale(0.015625)"/>
       <path id="DejaVuSans-6c" d="M 603 4863 
L 1178 4863 
L 1178 0 
L 603 0 
L 603 4863 
z
" transform="scale(0.015625)"/>
       <path id="DejaVuSans-28" d="M 1984 4856 
Q 1566 4138 1362 3434 
Q 1159 2731 1159 2009 
Q 1159 1288 1364 580 
Q 1569 -128 1984 -844 
L 1484 -844 
Q 1016 -109 783 600 
Q 550 1309 550 2009 
Q 550 2706 781 3412 
Q 1013 4119 1484 4856 
L 1984 4856 
z
" transform="scale(0.015625)"/>
       <path id="DejaVuSans-41" d="M 2188 4044 
L 1331 1722 
L 3047 1722 
L 2188 4044 
z
M 1831 4666 
L 2547 4666 
L 4325 0 
L 3669 0 
L 3244 1197 
L 1141 1197 
L 716 0 
L 50 0 
L 1831 4666 
z
" transform="scale(0.015625)"/>
       <path id="DejaVuSans-49" d="M 628 4666 
L 1259 4666 
L 1259 0 
L 628 0 
L 628 4666 
z
" transform="scale(0.015625)"/>
       <path id="DejaVuSans-29" d="M 513 4856 
L 1013 4856 
Q 1481 4119 1714 3412 
Q 1947 2706 1947 2009 
Q 1947 1309 1714 600 
Q 1481 -109 1013 -844 
L 513 -844 
Q 928 -128 1133 580 
Q 1338 1288 1338 2009 
Q 1338 2731 1133 3434 
Q 928 4138 513 4856 
z
" transform="scale(0.015625)"/>
      </defs>
      <use xlink:href="#DejaVuSans-57"/>
      <use xlink:href="#DejaVuSans-65" transform="translate(93.001953 0)"/>
      <use xlink:href="#DejaVuSans-65" transform="translate(154.525391 0)"/>
      <use xlink:href="#DejaVuSans-6b" transform="translate(216.048828 0)"/>
      <use xlink:href="#DejaVuSans-6c" transform="translate(273.958984 0)"/>
      <use xlink:href="#DejaVuSans-79" transform="translate(301.742188 0)"/>
      <use xlink:href="#DejaVuSans-20" transform="translate(360.921875 0)"/>
      <use xlink:href="#DejaVuSans-68" transform="translate(392.708984 0)"/>
      <use xlink:href="#DejaVuSans-6f" transform="translate(456.087891 0)"/>
      <use xlink:href="#DejaVuSans-75" transform="translate(517.269531 0)"/>
      <use xlink:href="#DejaVuSans-72" transform="translate(580.648438 0)"/>
      <use xlink:href="#DejaVuSans-73" transform="translate(621.761719 0)"/>
      <use xlink:href="#DejaVuSans-20" transform="translate(673.861328 0)"/>
      <use xlink:href="#DejaVuSans-28" transform="translate(705.648438 0)"/>
      <use xlink:href="#DejaVuSans-64" transform="translate(744.662109 0)"/>
      <use xlink:href="#DejaVuSans-61" transform="translate(808.138672 0)"/>
      <use xlink:href="#DejaVuSans-69" transform="translate(869.417969 0)"/>
      <use xlink:href="#DejaVuSans-6c" transform="translate(897.201172 0)"/>
      <use xlink:href="#DejaVuSans-79" transform="translate(924.984375 0)"/>
      <use xlink:href="#DejaVuSans-20" transform="translate(984.164062 0)"/>
      <use xlink:href="#DejaVuSans-41" transform="translate(1015.951172 0)"/>
      <use xlink:href="#DejaVuSans-49" transform="translate(1084.359375 0)"/>
      <use xlink:href="#DejaVuSans-20" transform="translate(1113.851562 0)"/>
      <use xlink:href="#DejaVuSans-75" transform="translate(1145.638672 0)"/>
      <use xlink:href="#DejaVuSans-73" transform="translate(1209.017578 0)"/>
      <use xlink:href="#DejaVuSans-65" transform="translate(1261.117188 0)"/>
      <use xlink:href="#DejaVuSans-29" transform="translate(1322.640625 0)"/>
     </g>
    </g>
   </g>
   <g id="FillBetweenPolyCollection_1">
    <defs>
     <path id="mb98381b579" d="M 144.904284 -68.405965 
L 93.967696 -68.405965 
L 91.980103 -70.84388 
L 90.024212 -73.281796 
L 88.124351 -75.719712 
L 86.304821 -78.157628 
L 84.589297 -80.595544 
L 83.000232 -83.03346 
L 81.558289 -85.471376 
L 80.28181 -87.909292 
L 79.186366 -90.347208 
L 78.284386 -92.785124 
L 77.584897 -95.223039 
L 77.09337 -97.660955 
L 76.811672 -100.098871 
L 76.738136 -102.536787 
L 76.867722 -104.974703 
L 77.192253 -107.412619 
L 77.700735 -109.850535 
L 78.379708 -112.288451 
L 79.213642 -114.726367 
L 80.185348 -117.164283 
L 81.276391 -119.602198 
L 82.467503 -122.040114 
L 83.738983 -124.47803 
L 85.07108 -126.915946 
L 86.444351 -129.353862 
L 87.839999 -131.791778 
L 89.240179 -134.229694 
L 90.628278 -136.66761 
L 91.989159 -139.105526 
L 93.309373 -141.543442 
L 94.577334 -143.981358 
L 95.783455 -146.419273 
L 96.920242 -148.857189 
L 97.982349 -151.295105 
L 98.966585 -153.733021 
L 99.871879 -156.170937 
L 100.699194 -158.608853 
L 101.451397 -161.046769 
L 102.133075 -163.484685 
L 102.75031 -165.922601 
L 103.3104 -168.360517 
L 103.821557 -170.798432 
L 104.292553 -173.236348 
L 104.732369 -175.674264 
L 105.149819 -178.11218 
L 105.553195 -180.550096 
L 105.949938 -182.988012 
L 106.346349 -185.425928 
L 106.747362 -187.863844 
L 107.156388 -190.30176 
L 107.575245 -192.739676 
L 108.004164 -195.177591 
L 108.441883 -197.615507 
L 108.885822 -200.053423 
L 109.33231 -202.491339 
L 109.776872 -204.929255 
L 110.214541 -207.367171 
L 110.640177 -209.805087 
L 111.048785 -212.243003 
L 111.435799 -214.680919 
L 111.797333 -217.118835 
L 112.13037 -219.556751 
L 112.432908 -221.994666 
L 112.70403 -224.432582 
L 112.943921 -226.870498 
L 113.153833 -229.308414 
L 113.335987 -231.74633 
L 113.493446 -234.184246 
L 113.629945 -236.622162 
L 113.749698 -239.060078 
L 113.85719 -241.497994 
L 113.95696 -243.93591 
L 114.05339 -246.373825 
L 114.150505 -248.811741 
L 114.251786 -251.249657 
L 114.360026 -253.687573 
L 114.477206 -256.125489 
L 114.604432 -258.563405 
L 114.741903 -261.001321 
L 114.888946 -263.439237 
L 115.044086 -265.877153 
L 115.205181 -268.315069 
L 115.369583 -270.752984 
L 115.534338 -273.1909 
L 115.696403 -275.628816 
L 115.852863 -278.066732 
L 116.001148 -280.504648 
L 116.139205 -282.942564 
L 116.26565 -285.38048 
L 116.379856 -287.818396 
L 116.481991 -290.256312 
L 116.572993 -292.694228 
L 116.654494 -295.132143 
L 116.728688 -297.570059 
L 116.798165 -300.007975 
L 116.865722 -302.445891 
L 116.934159 -304.883807 
L 117.006086 -307.321723 
L 117.083749 -309.759639 
L 121.788232 -309.759639 
L 121.788232 -309.759639 
L 121.865895 -307.321723 
L 121.937822 -304.883807 
L 122.006258 -302.445891 
L 122.073816 -300.007975 
L 122.143293 -297.570059 
L 122.217487 -295.132143 
L 122.298987 -292.694228 
L 122.38999 -290.256312 
L 122.492125 -287.818396 
L 122.606331 -285.38048 
L 122.732776 -282.942564 
L 122.870833 -280.504648 
L 123.019117 -278.066732 
L 123.175578 -275.628816 
L 123.337643 -273.1909 
L 123.502398 -270.752984 
L 123.6668 -268.315069 
L 123.827895 -265.877153 
L 123.983035 -263.439237 
L 124.130077 -261.001321 
L 124.267549 -258.563405 
L 124.394775 -256.125489 
L 124.511955 -253.687573 
L 124.620195 -251.249657 
L 124.721476 -248.811741 
L 124.818591 -246.373825 
L 124.915021 -243.93591 
L 125.014791 -241.497994 
L 125.122282 -239.060078 
L 125.242036 -236.622162 
L 125.378535 -234.184246 
L 125.535994 -231.74633 
L 125.718148 -229.308414 
L 125.92806 -226.870498 
L 126.167951 -224.432582 
L 126.439072 -221.994666 
L 126.74161 -219.556751 
L 127.074648 -217.118835 
L 127.436182 -214.680919 
L 127.823196 -212.243003 
L 128.231804 -209.805087 
L 128.65744 -207.367171 
L 129.095109 -204.929255 
L 129.539671 -202.491339 
L 129.986159 -200.053423 
L 130.430098 -197.615507 
L 130.867817 -195.177591 
L 131.296735 -192.739676 
L 131.715592 -190.30176 
L 132.124619 -187.863844 
L 132.525632 -185.425928 
L 132.922043 -182.988012 
L 133.318786 -180.550096 
L 133.722162 -178.11218 
L 134.139612 -175.674264 
L 134.579428 -173.236348 
L 135.050424 -170.798432 
L 135.56158 -168.360517 
L 136.121671 -165.922601 
L 136.738905 -163.484685 
L 137.420584 -161.046769 
L 138.172787 -158.608853 
L 139.000102 -156.170937 
L 139.905396 -153.733021 
L 140.889632 -151.295105 
L 141.951739 -148.857189 
L 143.088526 -146.419273 
L 144.294647 -143.981358 
L 145.562608 -141.543442 
L 146.882822 -139.105526 
L 148.243703 -136.66761 
L 149.631801 -134.229694 
L 151.031981 -131.791778 
L 152.427629 -129.353862 
L 153.800901 -126.915946 
L 155.132998 -124.47803 
L 156.404478 -122.040114 
L 157.59559 -119.602198 
L 158.686633 -117.164283 
L 159.658338 -114.726367 
L 160.492273 -112.288451 
L 161.171246 -109.850535 
L 161.679727 -107.412619 
L 162.004259 -104.974703 
L 162.133844 -102.536787 
L 162.060309 -100.098871 
L 161.778611 -97.660955 
L 161.287083 -95.223039 
L 160.587595 -92.785124 
L 159.685615 -90.347208 
L 158.59017 -87.909292 
L 157.313692 -85.471376 
L 155.871749 -83.03346 
L 154.282684 -80.595544 
L 152.56716 -78.157628 
L 150.74763 -75.719712 
L 148.847769 -73.281796 
L 146.891877 -70.84388 
L 144.904284 -68.405965 
z
" style="stroke: #343434; stroke-width: 1.25"/>
    </defs>
    <g clip-path="url(#pe00014b760)">
     <use xlink:href="#mb98381b579" x="0" y="341.305291" style="fill: #df2020; stroke: #343434; stroke-width: 1.25"/>
    </g>
   </g>
   <g id="FillBetweenPolyCollection_2">
    <defs>
     <path id="m67a895c03b" d="M 262.650816 -68.405965 
L 189.710435 -68.405965 
L 188.176961 -70.84388 
L 186.857465 -73.281796 
L 185.75994 -75.719712 
L 184.886085 -78.157628 
L 184.231927 -80.595544 
L 183.788716 -83.03346 
L 183.543998 -85.471376 
L 183.482771 -87.909292 
L 183.588626 -90.347208 
L 183.844776 -92.785124 
L 184.234925 -95.223039 
L 184.743908 -97.660955 
L 185.358091 -100.098871 
L 186.065536 -102.536787 
L 186.85594 -104.974703 
L 187.720396 -107.412619 
L 188.651029 -109.850535 
L 189.640559 -112.288451 
L 190.681849 -114.726367 
L 191.767499 -117.164283 
L 192.889514 -119.602198 
L 194.039097 -122.040114 
L 195.206567 -124.47803 
L 196.381418 -126.915946 
L 197.552501 -129.353862 
L 198.708314 -131.791778 
L 199.837363 -134.229694 
L 200.92857 -136.66761 
L 201.971695 -139.105526 
L 202.95773 -141.543442 
L 203.879255 -143.981358 
L 204.730722 -146.419273 
L 205.508676 -148.857189 
L 206.211873 -151.295105 
L 206.841335 -153.733021 
L 207.40031 -156.170937 
L 207.89416 -158.608853 
L 208.330174 -161.046769 
L 208.717315 -163.484685 
L 209.065903 -165.922601 
L 209.387243 -168.360517 
L 209.693197 -170.798432 
L 209.995729 -173.236348 
L 210.306408 -175.674264 
L 210.635922 -178.11218 
L 210.993599 -180.550096 
L 211.386973 -182.988012 
L 211.821423 -185.425928 
L 212.299911 -187.863844 
L 212.822833 -190.30176 
L 213.388017 -192.739676 
L 213.99085 -195.177591 
L 214.624554 -197.615507 
L 215.280574 -200.053423 
L 215.949073 -202.491339 
L 216.619479 -204.929255 
L 217.281067 -207.367171 
L 217.923516 -209.805087 
L 218.537422 -212.243003 
L 219.114715 -214.680919 
L 219.648984 -217.118835 
L 220.135661 -219.556751 
L 220.572094 -221.994666 
L 220.957496 -224.432582 
L 221.292795 -226.870498 
L 221.580395 -229.308414 
L 221.823886 -231.74633 
L 222.027722 -234.184246 
L 222.196881 -236.622162 
L 222.336549 -239.060078 
L 222.451823 -241.497994 
L 222.547459 -243.93591 
L 222.627662 -246.373825 
L 222.695935 -248.811741 
L 222.754973 -251.249657 
L 222.806612 -253.687573 
L 222.851828 -256.125489 
L 222.890781 -258.563405 
L 222.922909 -261.001321 
L 222.947052 -263.439237 
L 222.96163 -265.877153 
L 222.964833 -268.315069 
L 222.954847 -270.752984 
L 222.930086 -273.1909 
L 222.889423 -275.628816 
L 222.832407 -278.066732 
L 222.759448 -280.504648 
L 222.671948 -282.942564 
L 222.572374 -285.38048 
L 222.464256 -287.818396 
L 222.352106 -290.256312 
L 222.241245 -292.694228 
L 222.137573 -295.132143 
L 222.047267 -297.570059 
L 221.976436 -300.007975 
L 221.930769 -302.445891 
L 221.915187 -304.883807 
L 221.933532 -307.321723 
L 221.98832 -309.759639 
L 230.372931 -309.759639 
L 230.372931 -309.759639 
L 230.427719 -307.321723 
L 230.446063 -304.883807 
L 230.430482 -302.445891 
L 230.384815 -300.007975 
L 230.313984 -297.570059 
L 230.223678 -295.132143 
L 230.120006 -292.694228 
L 230.009145 -290.256312 
L 229.896994 -287.818396 
L 229.788877 -285.38048 
L 229.689303 -282.942564 
L 229.601803 -280.504648 
L 229.528844 -278.066732 
L 229.471828 -275.628816 
L 229.431165 -273.1909 
L 229.406404 -270.752984 
L 229.396418 -268.315069 
L 229.399621 -265.877153 
L 229.414198 -263.439237 
L 229.438342 -261.001321 
L 229.470469 -258.563405 
L 229.509423 -256.125489 
L 229.554639 -253.687573 
L 229.606278 -251.249657 
L 229.665316 -248.811741 
L 229.733589 -246.373825 
L 229.813792 -243.93591 
L 229.909427 -241.497994 
L 230.024702 -239.060078 
L 230.16437 -236.622162 
L 230.333529 -234.184246 
L 230.537364 -231.74633 
L 230.780856 -229.308414 
L 231.068456 -226.870498 
L 231.403755 -224.432582 
L 231.789157 -221.994666 
L 232.22559 -219.556751 
L 232.712267 -217.118835 
L 233.246536 -214.680919 
L 233.823829 -212.243003 
L 234.437734 -209.805087 
L 235.080184 -207.367171 
L 235.741771 -204.929255 
L 236.412178 -202.491339 
L 237.080677 -200.053423 
L 237.736697 -197.615507 
L 238.370401 -195.177591 
L 238.973234 -192.739676 
L 239.538417 -190.30176 
L 240.06134 -187.863844 
L 240.539827 -185.425928 
L 240.974278 -182.988012 
L 241.367652 -180.550096 
L 241.725329 -178.11218 
L 242.054843 -175.674264 
L 242.365522 -173.236348 
L 242.668054 -170.798432 
L 242.974008 -168.360517 
L 243.295348 -165.922601 
L 243.643936 -163.484685 
L 244.031077 -161.046769 
L 244.46709 -158.608853 
L 244.960941 -156.170937 
L 245.519916 -153.733021 
L 246.149378 -151.295105 
L 246.852575 -148.857189 
L 247.630528 -146.419273 
L 248.481996 -143.981358 
L 249.40352 -141.543442 
L 250.389555 -139.105526 
L 251.43268 -136.66761 
L 252.523888 -134.229694 
L 253.652936 -131.791778 
L 254.80875 -129.353862 
L 255.979833 -126.915946 
L 257.154684 -124.47803 
L 258.322154 -122.040114 
L 259.471737 -119.602198 
L 260.593752 -117.164283 
L 261.679402 -114.726367 
L 262.720692 -112.288451 
L 263.710222 -109.850535 
L 264.640855 -107.412619 
L 265.505311 -104.974703 
L 266.295714 -102.536787 
L 267.00316 -100.098871 
L 267.617343 -97.660955 
L 268.126326 -95.223039 
L 268.516475 -92.785124 
L 268.772625 -90.347208 
L 268.878479 -87.909292 
L 268.817253 -85.471376 
L 268.572535 -83.03346 
L 268.129324 -80.595544 
L 267.475166 -78.157628 
L 266.601311 -75.719712 
L 265.503786 -73.281796 
L 264.18429 -70.84388 
L 262.650816 -68.405965 
z
" style="stroke: #343434; stroke-width: 1.25"/>
    </defs>
    <g clip-path="url(#pe00014b760)">
     <use xlink:href="#m67a895c03b" x="0" y="341.305291" style="fill: #2f7e2f; stroke: #343434; stroke-width: 1.25"/>
    </g>
   </g>
   <g id="FillBetweenPolyCollection_3">
    <defs>
     <path id="m87df2879f8" d="M 375.477787 -68.405965 
L 290.372734 -68.405965 
L 290.227406 -69.381131 
L 290.328212 -70.356297 
L 290.664143 -71.331464 
L 291.219092 -72.30663 
L 291.972483 -73.281796 
L 292.90005 -74.256963 
L 293.974753 -75.232129 
L 295.167758 -76.207295 
L 296.449447 -77.182462 
L 297.790415 -78.157628 
L 299.162387 -79.132795 
L 300.539038 -80.107961 
L 301.896665 -81.083127 
L 303.214693 -82.058294 
L 304.476002 -83.03346 
L 305.667062 -84.008626 
L 306.777899 -84.983793 
L 307.80189 -85.958959 
L 308.735424 -86.934125 
L 309.577464 -87.909292 
L 310.32903 -88.884458 
L 310.992658 -89.859624 
L 311.571863 -90.834791 
L 312.070641 -91.809957 
L 312.493047 -92.785124 
L 312.84286 -93.76029 
L 313.123369 -94.735456 
L 313.337264 -95.710623 
L 313.48665 -96.685789 
L 313.57317 -97.660955 
L 313.598213 -98.636122 
L 313.563193 -99.611288 
L 313.469871 -100.586454 
L 313.320685 -101.561621 
L 313.119066 -102.536787 
L 312.86971 -103.511954 
L 312.578775 -104.48712 
L 312.253997 -105.462286 
L 311.904694 -106.437453 
L 311.541667 -107.412619 
L 311.176994 -108.387785 
L 310.823714 -109.362952 
L 310.495442 -110.338118 
L 310.205904 -111.313284 
L 309.968441 -112.288451 
L 309.795501 -113.263617 
L 309.698142 -114.238784 
L 309.685588 -115.21395 
L 309.764848 -116.189116 
L 309.940429 -117.164283 
L 310.214153 -118.139449 
L 310.585096 -119.114615 
L 311.049638 -120.089782 
L 311.601636 -121.064948 
L 312.23269 -122.040114 
L 312.932513 -123.015281 
L 313.689355 -123.990447 
L 314.490478 -124.965613 
L 315.322652 -125.94078 
L 316.172643 -126.915946 
L 317.027668 -127.891113 
L 317.875809 -128.866279 
L 318.706353 -129.841445 
L 319.510054 -130.816612 
L 320.279312 -131.791778 
L 321.008257 -132.766944 
L 321.692752 -133.742111 
L 322.330318 -134.717277 
L 322.919991 -135.692443 
L 323.462126 -136.66761 
L 323.958165 -137.642776 
L 324.410385 -138.617943 
L 324.82164 -139.593109 
L 325.19512 -140.568275 
L 325.534125 -141.543442 
L 325.84188 -142.518608 
L 326.121389 -143.493774 
L 326.375336 -144.468941 
L 326.606027 -145.444107 
L 326.815382 -146.419273 
L 327.004959 -147.39444 
L 327.176016 -148.369606 
L 327.329593 -149.344773 
L 327.466603 -150.319939 
L 327.587938 -151.295105 
L 327.694565 -152.270272 
L 327.787603 -153.245438 
L 327.868397 -154.220604 
L 327.938553 -155.195771 
L 327.999954 -156.170937 
L 328.054751 -157.146103 
L 328.105326 -158.12127 
L 328.154228 -159.096436 
L 328.204098 -160.071602 
L 328.257578 -161.046769 
L 328.317211 -162.021935 
L 328.385345 -162.997102 
L 328.464039 -163.972268 
L 328.554981 -164.947434 
L 337.29554 -164.947434 
L 337.29554 -164.947434 
L 337.386482 -163.972268 
L 337.465176 -162.997102 
L 337.53331 -162.021935 
L 337.592943 -161.046769 
L 337.646423 -160.071602 
L 337.696293 -159.096436 
L 337.745195 -158.12127 
L 337.79577 -157.146103 
L 337.850567 -156.170937 
L 337.911968 -155.195771 
L 337.982124 -154.220604 
L 338.062918 -153.245438 
L 338.155956 -152.270272 
L 338.262583 -151.295105 
L 338.383918 -150.319939 
L 338.520928 -149.344773 
L 338.674505 -148.369606 
L 338.845562 -147.39444 
L 339.035139 -146.419273 
L 339.244494 -145.444107 
L 339.475185 -144.468941 
L 339.729132 -143.493774 
L 340.008641 -142.518608 
L 340.316396 -141.543442 
L 340.655401 -140.568275 
L 341.028881 -139.593109 
L 341.440136 -138.617943 
L 341.892356 -137.642776 
L 342.388395 -136.66761 
L 342.93053 -135.692443 
L 343.520203 -134.717277 
L 344.157769 -133.742111 
L 344.842264 -132.766944 
L 345.571209 -131.791778 
L 346.340467 -130.816612 
L 347.144168 -129.841445 
L 347.974712 -128.866279 
L 348.822853 -127.891113 
L 349.677878 -126.915946 
L 350.527869 -125.94078 
L 351.360043 -124.965613 
L 352.161166 -123.990447 
L 352.918008 -123.015281 
L 353.617831 -122.040114 
L 354.248885 -121.064948 
L 354.800883 -120.089782 
L 355.265425 -119.114615 
L 355.636368 -118.139449 
L 355.910092 -117.164283 
L 356.085673 -116.189116 
L 356.164933 -115.21395 
L 356.152379 -114.238784 
L 356.05502 -113.263617 
L 355.88208 -112.288451 
L 355.644617 -111.313284 
L 355.355079 -110.338118 
L 355.026807 -109.362952 
L 354.673527 -108.387785 
L 354.308854 -107.412619 
L 353.945827 -106.437453 
L 353.596524 -105.462286 
L 353.271746 -104.48712 
L 352.980811 -103.511954 
L 352.731455 -102.536787 
L 352.529836 -101.561621 
L 352.38065 -100.586454 
L 352.287328 -99.611288 
L 352.252308 -98.636122 
L 352.277351 -97.660955 
L 352.363871 -96.685789 
L 352.513257 -95.710623 
L 352.727152 -94.735456 
L 353.007661 -93.76029 
L 353.357474 -92.785124 
L 353.77988 -91.809957 
L 354.278658 -90.834791 
L 354.857863 -89.859624 
L 355.521491 -88.884458 
L 356.273057 -87.909292 
L 357.115097 -86.934125 
L 358.048631 -85.958959 
L 359.072622 -84.983793 
L 360.183459 -84.008626 
L 361.374519 -83.03346 
L 362.635828 -82.058294 
L 363.953856 -81.083127 
L 365.311483 -80.107961 
L 366.688134 -79.132795 
L 368.060106 -78.157628 
L 369.401074 -77.182462 
L 370.682763 -76.207295 
L 371.875768 -75.232129 
L 372.950471 -74.256963 
L 373.878038 -73.281796 
L 374.631428 -72.30663 
L 375.186378 -71.331464 
L 375.522309 -70.356297 
L 375.623115 -69.381131 
L 375.477787 -68.405965 
z
" style="stroke: #343434; stroke-width: 1.25"/>
    </defs>
    <g clip-path="url(#pe00014b760)">
     <use xlink:href="#m87df2879f8" x="0" y="341.305291" style="fill: #dfc120; stroke: #343434; stroke-width: 1.25"/>
    </g>
   </g>
   <g id="FillBetweenPolyCollection_4">
    <defs>
     <path id="m92bcfb9d93" d="M 482.29076 -68.405965 
L 397.049031 -68.405965 
L 396.972042 -69.624922 
L 397.371322 -70.84388 
L 398.202331 -72.062838 
L 399.401666 -73.281796 
L 400.891628 -74.500754 
L 402.585802 -75.719712 
L 404.39516 -76.93867 
L 406.234148 -78.157628 
L 408.026218 -79.376586 
L 409.708351 -80.595544 
L 411.234204 -81.814502 
L 412.575683 -83.03346 
L 413.722869 -84.252418 
L 414.682412 -85.471376 
L 415.474629 -86.690334 
L 416.129653 -87.909292 
L 416.683062 -89.12825 
L 417.171424 -90.347208 
L 417.628194 -91.566166 
L 418.080327 -92.785124 
L 418.545893 -94.004082 
L 419.032853 -95.223039 
L 419.539056 -96.441997 
L 420.053362 -97.660955 
L 420.557728 -98.879913 
L 421.029977 -100.098871 
L 421.446943 -101.317829 
L 421.787628 -102.536787 
L 422.036058 -103.755745 
L 422.183546 -104.974703 
L 422.230139 -106.193661 
L 422.185123 -107.412619 
L 422.066555 -108.631577 
L 421.899892 -109.850535 
L 421.715862 -111.069493 
L 421.547816 -112.288451 
L 421.428817 -113.507409 
L 421.388776 -114.726367 
L 421.451895 -115.945325 
L 421.634669 -117.164283 
L 421.944622 -118.383241 
L 422.379877 -119.602198 
L 422.929575 -120.821156 
L 423.575073 -122.040114 
L 424.29179 -123.259072 
L 425.051479 -124.47803 
L 425.824714 -125.696988 
L 426.583344 -126.915946 
L 427.302679 -128.134904 
L 427.963238 -129.353862 
L 428.551901 -130.57282 
L 429.062422 -131.791778 
L 429.495274 -133.010736 
L 429.856901 -134.229694 
L 430.15849 -135.448652 
L 430.414405 -136.66761 
L 430.640459 -137.886568 
L 430.852212 -139.105526 
L 431.063437 -140.324484 
L 431.284902 -141.543442 
L 431.523559 -142.7624 
L 431.78219 -143.981358 
L 432.059499 -145.200315 
L 432.350626 -146.419273 
L 432.647986 -147.638231 
L 432.942335 -148.857189 
L 433.223933 -150.076147 
L 433.483689 -151.295105 
L 433.714163 -152.514063 
L 433.910346 -153.733021 
L 434.070136 -154.951979 
L 434.194497 -156.170937 
L 434.287282 -157.389895 
L 434.354781 -158.608853 
L 434.405028 -159.827811 
L 434.446966 -161.046769 
L 434.489555 -162.265727 
L 434.540913 -163.484685 
L 434.607576 -164.703643 
L 434.693949 -165.922601 
L 434.801985 -167.141559 
L 434.931122 -168.360517 
L 435.07847 -169.579474 
L 435.239219 -170.798432 
L 435.407212 -172.01739 
L 435.575634 -173.236348 
L 435.737729 -174.455306 
L 435.887483 -175.674264 
L 436.020205 -176.893222 
L 436.132961 -178.11218 
L 436.224812 -179.331138 
L 436.296866 -180.550096 
L 436.352116 -181.769054 
L 436.395128 -182.988012 
L 436.431582 -184.20697 
L 436.467741 -185.425928 
L 436.509881 -186.644886 
L 436.563763 -187.863844 
L 436.634161 -189.082802 
L 442.70563 -189.082802 
L 442.70563 -189.082802 
L 442.776028 -187.863844 
L 442.82991 -186.644886 
L 442.87205 -185.425928 
L 442.908209 -184.20697 
L 442.944663 -182.988012 
L 442.987675 -181.769054 
L 443.042926 -180.550096 
L 443.114979 -179.331138 
L 443.206831 -178.11218 
L 443.319586 -176.893222 
L 443.452308 -175.674264 
L 443.602062 -174.455306 
L 443.764157 -173.236348 
L 443.932579 -172.01739 
L 444.100572 -170.798432 
L 444.261321 -169.579474 
L 444.408669 -168.360517 
L 444.537806 -167.141559 
L 444.645842 -165.922601 
L 444.732215 -164.703643 
L 444.798878 -163.484685 
L 444.850236 -162.265727 
L 444.892825 -161.046769 
L 444.934763 -159.827811 
L 444.98501 -158.608853 
L 445.052509 -157.389895 
L 445.145295 -156.170937 
L 445.269655 -154.951979 
L 445.429445 -153.733021 
L 445.625628 -152.514063 
L 445.856102 -151.295105 
L 446.115858 -150.076147 
L 446.397456 -148.857189 
L 446.691805 -147.638231 
L 446.989165 -146.419273 
L 447.280292 -145.200315 
L 447.557601 -143.981358 
L 447.816232 -142.7624 
L 448.054889 -141.543442 
L 448.276354 -140.324484 
L 448.487579 -139.105526 
L 448.699332 -137.886568 
L 448.925386 -136.66761 
L 449.181301 -135.448652 
L 449.48289 -134.229694 
L 449.844518 -133.010736 
L 450.277369 -131.791778 
L 450.78789 -130.57282 
L 451.376553 -129.353862 
L 452.037112 -128.134904 
L 452.756447 -126.915946 
L 453.515077 -125.696988 
L 454.288312 -124.47803 
L 455.048001 -123.259072 
L 455.764718 -122.040114 
L 456.410216 -120.821156 
L 456.959914 -119.602198 
L 457.395169 -118.383241 
L 457.705122 -117.164283 
L 457.887896 -115.945325 
L 457.951015 -114.726367 
L 457.910974 -113.507409 
L 457.791975 -112.288451 
L 457.623929 -111.069493 
L 457.439899 -109.850535 
L 457.273236 -108.631577 
L 457.154669 -107.412619 
L 457.109652 -106.193661 
L 457.156245 -104.974703 
L 457.303733 -103.755745 
L 457.552163 -102.536787 
L 457.892848 -101.317829 
L 458.309814 -100.098871 
L 458.782064 -98.879913 
L 459.286429 -97.660955 
L 459.800735 -96.441997 
L 460.306938 -95.223039 
L 460.793899 -94.004082 
L 461.259464 -92.785124 
L 461.711597 -91.566166 
L 462.168367 -90.347208 
L 462.656729 -89.12825 
L 463.210138 -87.909292 
L 463.865162 -86.690334 
L 464.657379 -85.471376 
L 465.616922 -84.252418 
L 466.764108 -83.03346 
L 468.105587 -81.814502 
L 469.631441 -80.595544 
L 471.313573 -79.376586 
L 473.105643 -78.157628 
L 474.944631 -76.93867 
L 476.753989 -75.719712 
L 478.448163 -74.500754 
L 479.938125 -73.281796 
L 481.13746 -72.062838 
L 481.968469 -70.84388 
L 482.36775 -69.624922 
L 482.29076 -68.405965 
z
" style="stroke: #343434; stroke-width: 1.25"/>
    </defs>
    <g clip-path="url(#pe00014b760)">
     <use xlink:href="#m92bcfb9d93" x="0" y="341.305291" style="fill: #5573cd; stroke: #343434; stroke-width: 1.25"/>
    </g>
   </g>
   <g id="line2d_50">
    <path d="M 78.374584 248.763959 
L 160.497397 248.763959 
" clip-path="url(#pe00014b760)" style="fill: none; stroke-dasharray: 1.5625,0.9375; stroke-dashoffset: 0; stroke: #343434; stroke-width: 1.25"/>
   </g>
   <g id="line2d_51">
    <path d="M 79.991007 224.628592 
L 158.880974 224.628592 
" clip-path="url(#pe00014b760)" style="fill: none; stroke-dasharray: 3.125,1.25; stroke-dashoffset: 0; stroke: #343434; stroke-width: 1.25"/>
   </g>
   <g id="line2d_52">
    <path d="M 100.793219 182.391699 
L 138.078761 182.391699 
" clip-path="url(#pe00014b760)" style="fill: none; stroke-dasharray: 1.5625,0.9375; stroke-dashoffset: 0; stroke: #343434; stroke-width: 1.25"/>
   </g>
   <g id="line2d_53">
    <path d="M 189.710435 272.899327 
L 262.650816 272.899327 
" clip-path="url(#pe00014b760)" style="fill: none; stroke-dasharray: 1.5625,0.9375; stroke-dashoffset: 0; stroke: #343434; stroke-width: 1.25"/>
   </g>
   <g id="line2d_54">
    <path d="M 191.550369 224.628592 
L 260.810882 224.628592 
" clip-path="url(#pe00014b760)" style="fill: none; stroke-dasharray: 3.125,1.25; stroke-dashoffset: 0; stroke: #343434; stroke-width: 1.25"/>
   </g>
   <g id="line2d_55">
    <path d="M 208.926468 176.357857 
L 243.434783 176.357857 
" clip-path="url(#pe00014b760)" style="fill: none; stroke-dasharray: 1.5625,0.9375; stroke-dashoffset: 0; stroke: #343434; stroke-width: 1.25"/>
   </g>
   <g id="line2d_56">
    <path d="M 290.372734 272.899327 
L 375.477787 272.899327 
" clip-path="url(#pe00014b760)" style="fill: none; stroke-dasharray: 1.5625,0.9375; stroke-dashoffset: 0; stroke: #343434; stroke-width: 1.25"/>
   </g>
   <g id="line2d_57">
    <path d="M 312.387445 248.763959 
L 353.463076 248.763959 
" clip-path="url(#pe00014b760)" style="fill: none; stroke-dasharray: 3.125,1.25; stroke-dashoffset: 0; stroke: #343434; stroke-width: 1.25"/>
   </g>
   <g id="line2d_58">
    <path d="M 309.852638 224.628592 
L 355.997883 224.628592 
" clip-path="url(#pe00014b760)" style="fill: none; stroke-dasharray: 1.5625,0.9375; stroke-dashoffset: 0; stroke: #343434; stroke-width: 1.25"/>
   </g>
   <g id="line2d_59">
    <path d="M 397.049031 272.899327 
L 482.29076 272.899327 
" clip-path="url(#pe00014b760)" style="fill: none; stroke-dasharray: 1.5625,0.9375; stroke-dashoffset: 0; stroke: #343434; stroke-width: 1.25"/>
   </g>
   <g id="line2d_60">
    <path d="M 417.989901 248.763959 
L 461.34989 248.763959 
" clip-path="url(#pe00014b760)" style="fill: none; stroke-dasharray: 3.125,1.25; stroke-dashoffset: 0; stroke: #343434; stroke-width: 1.25"/>
   </g>
   <g id="line2d_61">
    <path d="M 421.561559 224.628592 
L 457.778232 224.628592 
" clip-path="url(#pe00014b760)" style="fill: none; stroke-dasharray: 1.5625,0.9375; stroke-dashoffset: 0; stroke: #343434; stroke-width: 1.25"/>
   </g>
   <g id="patch_3">
    <path d="M 66.063673 284.967011 
L 66.063673 19.477969 
" style="fill: none; stroke: #cccccc; stroke-width: 0.5; stroke-linejoin: miter; stroke-linecap: square"/>
   </g>
   <g id="patch_4">
    <path d="M 66.063673 284.967011 
L 493.042213 284.967011 
" style="fill: none; stroke: #cccccc; stroke-width: 0.5; stroke-linejoin: miter; stroke-linecap: square"/>
   </g>
   <g id="text_13">
    <!-- Daily AI use  weekly hours (violin, trimmed) -->
    <g style="fill: #262626" transform="translate(130.956849 13.477969) scale(0.13 -0.13)">
     <defs>
      <path id="DejaVuSans-44" d="M 1259 4147 
L 1259 519 
L 2022 519 
Q 2988 519 3436 956 
Q 3884 1394 3884 2338 
Q 3884 3275 3436 3711 
Q 2988 4147 2022 4147 
L 1259 4147 
z
M 628 4666 
L 1925 4666 
Q 3281 4666 3915 4102 
Q 4550 3538 4550 2338 
Q 4550 1131 3912 565 
Q 3275 0 1925 0 
L 628 0 
L 628 4666 
z
" transform="scale(0.015625)"/>
      <path id="DejaVuSans-2014" d="M 313 1978 
L 6088 1978 
L 6088 1528 
L 313 1528 
L 313 1978 
z
" transform="scale(0.015625)"/>
      <path id="DejaVuSans-77" d="M 269 3500 
L 844 3500 
L 1563 769 
L 2278 3500 
L 2956 3500 
L 3675 769 
L 4391 3500 
L 4966 3500 
L 4050 0 
L 3372 0 
L 2619 2869 
L 1863 0 
L 1184 0 
L 269 3500 
z
" transform="scale(0.015625)"/>
      <path id="DejaVuSans-2c" d="M 750 794 
L 1409 794 
L 1409 256 
L 897 -744 
L 494 -744 
L 750 256 
L 750 794 
z
" transform="scale(0.015625)"/>
      <path id="DejaVuSans-6d" d="M 3328 2828 
Q 3544 3216 3844 3400 
Q 4144 3584 4550 3584 
Q 5097 3584 5394 3201 
Q 5691 2819 5691 2113 
L 5691 0 
L 5113 0 
L 5113 2094 
Q 5113 2597 4934 2840 
Q 4756 3084 4391 3084 
Q 3944 3084 3684 2787 
Q 3425 2491 3425 1978 
L 3425 0 
L 2847 0 
L 2847 2094 
Q 2847 2600 2669 2842 
Q 2491 3084 2119 3084 
Q 1678 3084 1418 2786 
Q 1159 2488 1159 1978 
L 1159 0 
L 581 0 
L 581 3500 
L 1159 3500 
L 1159 2956 
Q 1356 3278 1631 3431 
Q 1906 3584 2284 3584 
Q 2666 3584 2933 3390 
Q 3200 3197 3328 2828 
z
" transform="scale(0.015625)"/>
     </defs>
     <use xlink:href="#DejaVuSans-44"/>
     <use xlink:href="#DejaVuSans-61" transform="translate(77.001953 0)"/>
     <use xlink:href="#DejaVuSans-69" transform="translate(138.28125 0)"/>
     <use xlink:href="#DejaVuSans-6c" transform="translate(166.064453 0)"/>
     <use xlink:href="#DejaVuSans-79" transform="translate(193.847656 0)"/>
     <use xlink:href="#DejaVuSans-20" transform="translate(253.027344 0)"/>
     <use xlink:href="#DejaVuSans-41" transform="translate(284.814453 0)"/>
     <use xlink:href="#DejaVuSans-49" transform="translate(353.222656 0)"/>
     <use xlink:href="#DejaVuSans-20" transform="translate(382.714844 0)"/>
     <use xlink:href="#DejaVuSans-75" transform="translate(414.501953 0)"/>
     <use xlink:href="#DejaVuSans-73" transform="translate(477.880859 0)"/>
     <use xlink:href="#DejaVuSans-65" transform="translate(529.980469 0)"/>
     <use xlink:href="#DejaVuSans-20" transform="translate(591.503906 0)"/>
     <use xlink:href="#DejaVuSans-2014" transform="translate(623.291016 0)"/>
     <use xlink:href="#DejaVuSans-20" transform="translate(723.291016 0)"/>
     <use xlink:href="#DejaVuSans-77" transform="translate(755.078125 0)"/>
     <use xlink:href="#DejaVuSans-65" transform="translate(836.865234 0)"/>
     <use xlink:href="#DejaVuSans-65" transform="translate(898.388672 0)"/>
     <use xlink:href="#DejaVuSans-6b" transform="translate(959.912109 0)"/>
     <use xlink:href="#DejaVuSans-6c" transform="translate(1017.822266 0)"/>
     <use xlink:href="#DejaVuSans-79" transform="translate(1045.605469 0)"/>
     <use xlink:href="#DejaVuSans-20" transform="translate(1104.785156 0)"/>
     <use xlink:href="#DejaVuSans-68" transform="translate(1136.572266 0)"/>
     <use xlink:href="#DejaVuSans-6f" transform="translate(1199.951172 0)"/>
     <use xlink:href="#DejaVuSans-75" transform="translate(1261.132812 0)"/>
     <use xlink:href="#DejaVuSans-72" transform="translate(1324.511719 0)"/>
     <use xlink:href="#DejaVuSans-73" transform="translate(1365.625 0)"/>
     <use xlink:href="#DejaVuSans-20" transform="translate(1417.724609 0)"/>
     <use xlink:href="#DejaVuSans-28" transform="translate(1449.511719 0)"/>
     <use xlink:href="#DejaVuSans-76" transform="translate(1488.525391 0)"/>
     <use xlink:href="#DejaVuSans-69" transform="translate(1547.705078 0)"/>
     <use xlink:href="#DejaVuSans-6f" transform="translate(1575.488281 0)"/>
     <use xlink:href="#DejaVuSans-6c" transform="translate(1636.669922 0)"/>
     <use xlink:href="#DejaVuSans-69" transform="translate(1664.453125 0)"/>
     <use xlink:href="#DejaVuSans-6e" transform="translate(1692.236328 0)"/>
     <use xlink:href="#DejaVuSans-2c" transform="translate(1755.615234 0)"/>
     <use xlink:href="#DejaVuSans-20" transform="translate(1787.402344 0)"/>
     <use xlink:href="#DejaVuSans-74" transform="translate(1819.189453 0)"/>
     <use xlink:href="#DejaVuSans-72" transform="translate(1858.398438 0)"/>
     <use xlink:href="#DejaVuSans-69" transform="translate(1899.511719 0)"/>
     <use xlink:href="#DejaVuSans-6d" transform="translate(1927.294922 0)"/>
     <use xlink:href="#DejaVuSans-6d" transform="translate(2024.707031 0)"/>
     <use xlink:href="#DejaVuSans-65" transform="translate(2122.119141 0)"/>
     <use xlink:href="#DejaVuSans-64" transform="translate(2183.642578 0)"/>
     <use xlink:href="#DejaVuSans-29" transform="translate(2247.119141 0)"/>
    </g>
   </g>
  </g>
 </g>
 <defs>
  <clipPath id="pe00014b760">
   <rect x="66.063673" y="19.477969" width="426.97854" height="265.489042"/>
  </clipPath>
 </defs>
</svg>
