<?xml version="1.0" encoding="utf-8" standalone="no"?>
<!DOCTYPE svg PUBLIC "-//W3C//DTD SVG 1.1//EN"
  "http://www.w3.org/Graphics/SVG/1.1/DTD/svg11.dtd">
<svg xmlns:xlink="http://www.w3.org/1999/xlink" width="496.779471pt" height="341.301981pt" viewBox="0 0 496.779471 341.301981" xmlns="http://www.w3.org/2000/svg" version="1.1">
 <metadata>
  <rdf:RDF xmlns:dc="http://purl.org/dc/elements/1.1/" xmlns:cc="http://creativecommons.org/ns#" xmlns:rdf="http://www.w3.org/1999/02/22-rdf-syntax-ns#">
   <cc:Work>
    <dc:type rdf:resource="http://purl.org/dc/dcmitype/StillImage"/>
    <dc:date>2025-11-01T22:50:25.542756</dc:date>
    <dc:format>image/svg+xml</dc:format>
    <dc:creator>
     <cc:Agent>
      <dc:title>Matplotlib v3.10.7, https://matplotlib.org/</dc:title>
     </cc:Agent>
    </dc:creator>
   </cc:Work>
  </rdf:RDF>
 </metadata>
 <defs>
  <style type="text/css">*{stroke-linejoin: round; stroke-linecap: butt}</style>
 </defs>
 <g id="figure_1">
  <g id="patch_1">
   <path d="M 0 341.301981 
L 496.779471 341.301981 
L 496.779471 0 
L 0 0 
z
" style="fill: #ffffff"/>
  </g>
  <g id="axes_1">
   <g id="patch_2">
    <path d="M 66.732727 282.34145 
L 493.179471 282.34145 
L 493.179471 19.477969 
L 66.732727 19.477969 
z
" style="fill: #ffffff"/>
   </g>
   <g id="matplotlib.axis_1">
    <g id="xtick_1">
     <g id="line2d_1">
      <defs>
       <path id="mee56351f35" d="M 0 0 
L 0 3 
" style="stroke: #262626; stroke-width: 0.5"/>
      </defs>
      <g>
       <use xlink:href="#mee56351f35" x="120.03857" y="19.477969" style="fill: #262626; stroke: #262626; stroke-width: 0.5"/>
      </g>
     </g>
     <g id="text_1">
      <!-- studenti - secondaria -->
      <g style="fill: #262626" transform="translate(5.0514 314.278045) rotate(-10) scale(0.11 -0.11)">
       <defs>
        <path id="DejaVuSans-73" d="M 2834 3397 
L 2834 2853 
Q 2591 2978 2328 3040 
Q 2066 3103 1784 3103 
Q 1356 3103 1142 2972 
Q 928 2841 928 2578 
Q 928 2378 1081 2264 
Q 1234 2150 1697 2047 
L 1894 2003 
Q 2506 1872 2764 1633 
Q 3022 1394 3022 966 
Q 3022 478 2636 193 
Q 2250 -91 1575 -91 
Q 1294 -91 989 -36 
Q 684 19 347 128 
L 347 722 
Q 666 556 975 473 
Q 1284 391 1588 391 
Q 1994 391 2212 530 
Q 2431 669 2431 922 
Q 2431 1156 2273 1281 
Q 2116 1406 1581 1522 
L 1381 1569 
Q 847 1681 609 1914 
Q 372 2147 372 2553 
Q 372 3047 722 3315 
Q 1072 3584 1716 3584 
Q 2034 3584 2315 3537 
Q 2597 3491 2834 3397 
z
" transform="scale(0.015625)"/>
        <path id="DejaVuSans-74" d="M 1172 4494 
L 1172 3500 
L 2356 3500 
L 2356 3053 
L 1172 3053 
L 1172 1153 
Q 1172 725 1289 603 
Q 1406 481 1766 481 
L 2356 481 
L 2356 0 
L 1766 0 
Q 1100 0 847 248 
Q 594 497 594 1153 
L 594 3053 
L 172 3053 
L 172 3500 
L 594 3500 
L 594 4494 
L 1172 4494 
z
" transform="scale(0.015625)"/>
        <path id="DejaVuSans-75" d="M 544 1381 
L 544 3500 
L 1119 3500 
L 1119 1403 
Q 1119 906 1312 657 
Q 1506 409 1894 409 
Q 2359 409 2629 706 
Q 2900 1003 2900 1516 
L 2900 3500 
L 3475 3500 
L 3475 0 
L 2900 0 
L 2900 538 
Q 2691 219 2414 64 
Q 2138 -91 1772 -91 
Q 1169 -91 856 284 
Q 544 659 544 1381 
z
M 1991 3584 
L 1991 3584 
z
" transform="scale(0.015625)"/>
        <path id="DejaVuSans-64" d="M 2906 2969 
L 2906 4863 
L 3481 4863 
L 3481 0 
L 2906 0 
L 2906 525 
Q 2725 213 2448 61 
Q 2172 -91 1784 -91 
Q 1150 -91 751 415 
Q 353 922 353 1747 
Q 353 2572 751 3078 
Q 1150 3584 1784 3584 
Q 2172 3584 2448 3432 
Q 2725 3281 2906 2969 
z
M 947 1747 
Q 947 1113 1208 752 
Q 1469 391 1925 391 
Q 2381 391 2643 752 
Q 2906 1113 2906 1747 
Q 2906 2381 2643 2742 
Q 2381 3103 1925 3103 
Q 1469 3103 1208 2742 
Q 947 2381 947 1747 
z
" transform="scale(0.015625)"/>
        <path id="DejaVuSans-65" d="M 3597 1894 
L 3597 1613 
L 953 1613 
Q 991 1019 1311 708 
Q 1631 397 2203 397 
Q 2534 397 2845 478 
Q 3156 559 3463 722 
L 3463 178 
Q 3153 47 2828 -22 
Q 2503 -91 2169 -91 
Q 1331 -91 842 396 
Q 353 884 353 1716 
Q 353 2575 817 3079 
Q 1281 3584 2069 3584 
Q 2775 3584 3186 3129 
Q 3597 2675 3597 1894 
z
M 3022 2063 
Q 3016 2534 2758 2815 
Q 2500 3097 2075 3097 
Q 1594 3097 1305 2825 
Q 1016 2553 972 2059 
L 3022 2063 
z
" transform="scale(0.015625)"/>
        <path id="DejaVuSans-6e" d="M 3513 2113 
L 3513 0 
L 2938 0 
L 2938 2094 
Q 2938 2591 2744 2837 
Q 2550 3084 2163 3084 
Q 1697 3084 1428 2787 
Q 1159 2491 1159 1978 
L 1159 0 
L 581 0 
L 581 3500 
L 1159 3500 
L 1159 2956 
Q 1366 3272 1645 3428 
Q 1925 3584 2291 3584 
Q 2894 3584 3203 3211 
Q 3513 2838 3513 2113 
z
" transform="scale(0.015625)"/>
        <path id="DejaVuSans-69" d="M 603 3500 
L 1178 3500 
L 1178 0 
L 603 0 
L 603 3500 
z
M 603 4863 
L 1178 4863 
L 1178 4134 
L 603 4134 
L 603 4863 
z
" transform="scale(0.015625)"/>
        <path id="DejaVuSans-20" transform="scale(0.015625)"/>
        <path id="DejaVuSans-2d" d="M 313 2009 
L 1997 2009 
L 1997 1497 
L 313 1497 
L 313 2009 
z
" transform="scale(0.015625)"/>
        <path id="DejaVuSans-63" d="M 3122 3366 
L 3122 2828 
Q 2878 2963 2633 3030 
Q 2388 3097 2138 3097 
Q 1578 3097 1268 2742 
Q 959 2388 959 1747 
Q 959 1106 1268 751 
Q 1578 397 2138 397 
Q 2388 397 2633 464 
Q 2878 531 3122 666 
L 3122 134 
Q 2881 22 2623 -34 
Q 2366 -91 2075 -91 
Q 1284 -91 818 406 
Q 353 903 353 1747 
Q 353 2603 823 3093 
Q 1294 3584 2113 3584 
Q 2378 3584 2631 3529 
Q 2884 3475 3122 3366 
z
" transform="scale(0.015625)"/>
        <path id="DejaVuSans-6f" d="M 1959 3097 
Q 1497 3097 1228 2736 
Q 959 2375 959 1747 
Q 959 1119 1226 758 
Q 1494 397 1959 397 
Q 2419 397 2687 759 
Q 2956 1122 2956 1747 
Q 2956 2369 2687 2733 
Q 2419 3097 1959 3097 
z
M 1959 3584 
Q 2709 3584 3137 3096 
Q 3566 2609 3566 1747 
Q 3566 888 3137 398 
Q 2709 -91 1959 -91 
Q 1206 -91 779 398 
Q 353 888 353 1747 
Q 353 2609 779 3096 
Q 1206 3584 1959 3584 
z
" transform="scale(0.015625)"/>
        <path id="DejaVuSans-61" d="M 2194 1759 
Q 1497 1759 1228 1600 
Q 959 1441 959 1056 
Q 959 750 1161 570 
Q 1363 391 1709 391 
Q 2188 391 2477 730 
Q 2766 1069 2766 1631 
L 2766 1759 
L 2194 1759 
z
M 3341 1997 
L 3341 0 
L 2766 0 
L 2766 531 
Q 2569 213 2275 61 
Q 1981 -91 1556 -91 
Q 1019 -91 701 211 
Q 384 513 384 1019 
Q 384 1609 779 1909 
Q 1175 2209 1959 2209 
L 2766 2209 
L 2766 2266 
Q 2766 2663 2505 2880 
Q 2244 3097 1772 3097 
Q 1472 3097 1187 3025 
Q 903 2953 641 2809 
L 641 3341 
Q 956 3463 1253 3523 
Q 1550 3584 1831 3584 
Q 2591 3584 2966 3190 
Q 3341 2797 3341 1997 
z
" transform="scale(0.015625)"/>
        <path id="DejaVuSans-72" d="M 2631 2963 
Q 2534 3019 2420 3045 
Q 2306 3072 2169 3072 
Q 1681 3072 1420 2755 
Q 1159 2438 1159 1844 
L 1159 0 
L 581 0 
L 581 3500 
L 1159 3500 
L 1159 2956 
Q 1341 3275 1631 3429 
Q 1922 3584 2338 3584 
Q 2397 3584 2469 3576 
Q 2541 3569 2628 3553 
L 2631 2963 
z
" transform="scale(0.015625)"/>
       </defs>
       <use xlink:href="#DejaVuSans-73"/>
       <use xlink:href="#DejaVuSans-74" transform="translate(52.099609 0)"/>
       <use xlink:href="#DejaVuSans-75" transform="translate(91.308594 0)"/>
       <use xlink:href="#DejaVuSans-64" transform="translate(154.6875 0)"/>
       <use xlink:href="#DejaVuSans-65" transform="translate(218.164062 0)"/>
       <use xlink:href="#DejaVuSans-6e" transform="translate(279.6875 0)"/>
       <use xlink:href="#DejaVuSans-74" transform="translate(343.066406 0)"/>
       <use xlink:href="#DejaVuSans-69" transform="translate(382.275391 0)"/>
       <use xlink:href="#DejaVuSans-20" transform="translate(410.058594 0)"/>
       <use xlink:href="#DejaVuSans-2d" transform="translate(441.845703 0)"/>
       <use xlink:href="#DejaVuSans-20" transform="translate(477.929688 0)"/>
       <use xlink:href="#DejaVuSans-73" transform="translate(509.716797 0)"/>
       <use xlink:href="#DejaVuSans-65" transform="translate(561.816406 0)"/>
       <use xlink:href="#DejaVuSans-63" transform="translate(623.339844 0)"/>
       <use xlink:href="#DejaVuSans-6f" transform="translate(678.320312 0)"/>
       <use xlink:href="#DejaVuSans-6e" transform="translate(739.501953 0)"/>
       <use xlink:href="#DejaVuSans-64" transform="translate(802.880859 0)"/>
       <use xlink:href="#DejaVuSans-61" transform="translate(866.357422 0)"/>
       <use xlink:href="#DejaVuSans-72" transform="translate(927.636719 0)"/>
       <use xlink:href="#DejaVuSans-69" transform="translate(968.75 0)"/>
       <use xlink:href="#DejaVuSans-61" transform="translate(996.533203 0)"/>
      </g>
     </g>
    </g>
    <g id="xtick_2">
     <g id="line2d_2">
      <g>
       <use xlink:href="#mee56351f35" x="226.650256" y="19.477969" style="fill: #262626; stroke: #262626; stroke-width: 0.5"/>
      </g>
     </g>
     <g id="text_2">
      <!-- studenti - universitari -->
      <g style="fill: #262626" transform="translate(109.767331 314.612318) rotate(-10) scale(0.11 -0.11)">
       <defs>
        <path id="DejaVuSans-76" d="M 191 3500 
L 800 3500 
L 1894 563 
L 2988 3500 
L 3597 3500 
L 2284 0 
L 1503 0 
L 191 3500 
z
" transform="scale(0.015625)"/>
       </defs>
       <use xlink:href="#DejaVuSans-73"/>
       <use xlink:href="#DejaVuSans-74" transform="translate(52.099609 0)"/>
       <use xlink:href="#DejaVuSans-75" transform="translate(91.308594 0)"/>
       <use xlink:href="#DejaVuSans-64" transform="translate(154.6875 0)"/>
       <use xlink:href="#DejaVuSans-65" transform="translate(218.164062 0)"/>
       <use xlink:href="#DejaVuSans-6e" transform="translate(279.6875 0)"/>
       <use xlink:href="#DejaVuSans-74" transform="translate(343.066406 0)"/>
       <use xlink:href="#DejaVuSans-69" transform="translate(382.275391 0)"/>
       <use xlink:href="#DejaVuSans-20" transform="translate(410.058594 0)"/>
       <use xlink:href="#DejaVuSans-2d" transform="translate(441.845703 0)"/>
       <use xlink:href="#DejaVuSans-20" transform="translate(477.929688 0)"/>
       <use xlink:href="#DejaVuSans-75" transform="translate(509.716797 0)"/>
       <use xlink:href="#DejaVuSans-6e" transform="translate(573.095703 0)"/>
       <use xlink:href="#DejaVuSans-69" transform="translate(636.474609 0)"/>
       <use xlink:href="#DejaVuSans-76" transform="translate(664.257812 0)"/>
       <use xlink:href="#DejaVuSans-65" transform="translate(723.4375 0)"/>
       <use xlink:href="#DejaVuSans-72" transform="translate(784.960938 0)"/>
       <use xlink:href="#DejaVuSans-73" transform="translate(826.074219 0)"/>
       <use xlink:href="#DejaVuSans-69" transform="translate(878.173828 0)"/>
       <use xlink:href="#DejaVuSans-74" transform="translate(905.957031 0)"/>
       <use xlink:href="#DejaVuSans-61" transform="translate(945.166016 0)"/>
       <use xlink:href="#DejaVuSans-72" transform="translate(1006.445312 0)"/>
       <use xlink:href="#DejaVuSans-69" transform="translate(1047.558594 0)"/>
      </g>
     </g>
    </g>
    <g id="xtick_3">
     <g id="line2d_3">
      <g>
       <use xlink:href="#mee56351f35" x="333.261942" y="19.477969" style="fill: #262626; stroke: #262626; stroke-width: 0.5"/>
      </g>
     </g>
     <g id="text_3">
      <!-- insegnanti - non in servizio -->
      <g style="fill: #262626" transform="translate(186.757847 319.83533) rotate(-10) scale(0.11 -0.11)">
       <defs>
        <path id="DejaVuSans-67" d="M 2906 1791 
Q 2906 2416 2648 2759 
Q 2391 3103 1925 3103 
Q 1463 3103 1205 2759 
Q 947 2416 947 1791 
Q 947 1169 1205 825 
Q 1463 481 1925 481 
Q 2391 481 2648 825 
Q 2906 1169 2906 1791 
z
M 3481 434 
Q 3481 -459 3084 -895 
Q 2688 -1331 1869 -1331 
Q 1566 -1331 1297 -1286 
Q 1028 -1241 775 -1147 
L 775 -588 
Q 1028 -725 1275 -790 
Q 1522 -856 1778 -856 
Q 2344 -856 2625 -561 
Q 2906 -266 2906 331 
L 2906 616 
Q 2728 306 2450 153 
Q 2172 0 1784 0 
Q 1141 0 747 490 
Q 353 981 353 1791 
Q 353 2603 747 3093 
Q 1141 3584 1784 3584 
Q 2172 3584 2450 3431 
Q 2728 3278 2906 2969 
L 2906 3500 
L 3481 3500 
L 3481 434 
z
" transform="scale(0.015625)"/>
        <path id="DejaVuSans-7a" d="M 353 3500 
L 3084 3500 
L 3084 2975 
L 922 459 
L 3084 459 
L 3084 0 
L 275 0 
L 275 525 
L 2438 3041 
L 353 3041 
L 353 3500 
z
" transform="scale(0.015625)"/>
       </defs>
       <use xlink:href="#DejaVuSans-69"/>
       <use xlink:href="#DejaVuSans-6e" transform="translate(27.783203 0)"/>
       <use xlink:href="#DejaVuSans-73" transform="translate(91.162109 0)"/>
       <use xlink:href="#DejaVuSans-65" transform="translate(143.261719 0)"/>
       <use xlink:href="#DejaVuSans-67" transform="translate(204.785156 0)"/>
       <use xlink:href="#DejaVuSans-6e" transform="translate(268.261719 0)"/>
       <use xlink:href="#DejaVuSans-61" transform="translate(331.640625 0)"/>
       <use xlink:href="#DejaVuSans-6e" transform="translate(392.919922 0)"/>
       <use xlink:href="#DejaVuSans-74" transform="translate(456.298828 0)"/>
       <use xlink:href="#DejaVuSans-69" transform="translate(495.507812 0)"/>
       <use xlink:href="#DejaVuSans-20" transform="translate(523.291016 0)"/>
       <use xlink:href="#DejaVuSans-2d" transform="translate(555.078125 0)"/>
       <use xlink:href="#DejaVuSans-20" transform="translate(591.162109 0)"/>
       <use xlink:href="#DejaVuSans-6e" transform="translate(622.949219 0)"/>
       <use xlink:href="#DejaVuSans-6f" transform="translate(686.328125 0)"/>
       <use xlink:href="#DejaVuSans-6e" transform="translate(747.509766 0)"/>
       <use xlink:href="#DejaVuSans-20" transform="translate(810.888672 0)"/>
       <use xlink:href="#DejaVuSans-69" transform="translate(842.675781 0)"/>
       <use xlink:href="#DejaVuSans-6e" transform="translate(870.458984 0)"/>
       <use xlink:href="#DejaVuSans-20" transform="translate(933.837891 0)"/>
       <use xlink:href="#DejaVuSans-73" transform="translate(965.625 0)"/>
       <use xlink:href="#DejaVuSans-65" transform="translate(1017.724609 0)"/>
       <use xlink:href="#DejaVuSans-72" transform="translate(1079.248047 0)"/>
       <use xlink:href="#DejaVuSans-76" transform="translate(1120.361328 0)"/>
       <use xlink:href="#DejaVuSans-69" transform="translate(1179.541016 0)"/>
       <use xlink:href="#DejaVuSans-7a" transform="translate(1207.324219 0)"/>
       <use xlink:href="#DejaVuSans-69" transform="translate(1259.814453 0)"/>
       <use xlink:href="#DejaVuSans-6f" transform="translate(1287.597656 0)"/>
      </g>
     </g>
    </g>
    <g id="xtick_4">
     <g id="line2d_4">
      <g>
       <use xlink:href="#mee56351f35" x="439.873628" y="19.477969" style="fill: #262626; stroke: #262626; stroke-width: 0.5"/>
      </g>
     </g>
     <g id="text_4">
      <!-- insegnanti - in servizio -->
      <g style="fill: #262626" transform="translate(317.171413 315.638416) rotate(-10) scale(0.11 -0.11)">
       <use xlink:href="#DejaVuSans-69"/>
       <use xlink:href="#DejaVuSans-6e" transform="translate(27.783203 0)"/>
       <use xlink:href="#DejaVuSans-73" transform="translate(91.162109 0)"/>
       <use xlink:href="#DejaVuSans-65" transform="translate(143.261719 0)"/>
       <use xlink:href="#DejaVuSans-67" transform="translate(204.785156 0)"/>
       <use xlink:href="#DejaVuSans-6e" transform="translate(268.261719 0)"/>
       <use xlink:href="#DejaVuSans-61" transform="translate(331.640625 0)"/>
       <use xlink:href="#DejaVuSans-6e" transform="translate(392.919922 0)"/>
       <use xlink:href="#DejaVuSans-74" transform="translate(456.298828 0)"/>
       <use xlink:href="#DejaVuSans-69" transform="translate(495.507812 0)"/>
       <use xlink:href="#DejaVuSans-20" transform="translate(523.291016 0)"/>
       <use xlink:href="#DejaVuSans-2d" transform="translate(555.078125 0)"/>
       <use xlink:href="#DejaVuSans-20" transform="translate(591.162109 0)"/>
       <use xlink:href="#DejaVuSans-69" transform="translate(622.949219 0)"/>
       <use xlink:href="#DejaVuSans-6e" transform="translate(650.732422 0)"/>
       <use xlink:href="#DejaVuSans-20" transform="translate(714.111328 0)"/>
       <use xlink:href="#DejaVuSans-73" transform="translate(745.898438 0)"/>
       <use xlink:href="#DejaVuSans-65" transform="translate(797.998047 0)"/>
       <use xlink:href="#DejaVuSans-72" transform="translate(859.521484 0)"/>
       <use xlink:href="#DejaVuSans-76" transform="translate(900.634766 0)"/>
       <use xlink:href="#DejaVuSans-69" transform="translate(959.814453 0)"/>
       <use xlink:href="#DejaVuSans-7a" transform="translate(987.597656 0)"/>
       <use xlink:href="#DejaVuSans-69" transform="translate(1040.087891 0)"/>
       <use xlink:href="#DejaVuSans-6f" transform="translate(1067.871094 0)"/>
      </g>
     </g>
    </g>
    <g id="xtick_5">
     <g id="line2d_5">
      <defs>
       <path id="mc85f55d0a3" d="M 0 0 
L 0 1.5 
" style="stroke: #262626; stroke-width: 0.5"/>
      </defs>
      <g>
       <use xlink:href="#mc85f55d0a3" x="77.393895" y="19.477969" style="fill: #262626; stroke: #262626; stroke-width: 0.5"/>
      </g>
     </g>
    </g>
    <g id="xtick_6">
     <g id="line2d_6">
      <g>
       <use xlink:href="#mc85f55d0a3" x="98.716232" y="19.477969" style="fill: #262626; stroke: #262626; stroke-width: 0.5"/>
      </g>
     </g>
    </g>
    <g id="xtick_7">
     <g id="line2d_7">
      <g>
       <use xlink:href="#mc85f55d0a3" x="141.360907" y="19.477969" style="fill: #262626; stroke: #262626; stroke-width: 0.5"/>
      </g>
     </g>
    </g>
    <g id="xtick_8">
     <g id="line2d_8">
      <g>
       <use xlink:href="#mc85f55d0a3" x="162.683244" y="19.477969" style="fill: #262626; stroke: #262626; stroke-width: 0.5"/>
      </g>
     </g>
    </g>
    <g id="xtick_9">
     <g id="line2d_9">
      <g>
       <use xlink:href="#mc85f55d0a3" x="184.005581" y="19.477969" style="fill: #262626; stroke: #262626; stroke-width: 0.5"/>
      </g>
     </g>
    </g>
    <g id="xtick_10">
     <g id="line2d_10">
      <g>
       <use xlink:href="#mc85f55d0a3" x="205.327918" y="19.477969" style="fill: #262626; stroke: #262626; stroke-width: 0.5"/>
      </g>
     </g>
    </g>
    <g id="xtick_11">
     <g id="line2d_11">
      <g>
       <use xlink:href="#mc85f55d0a3" x="247.972593" y="19.477969" style="fill: #262626; stroke: #262626; stroke-width: 0.5"/>
      </g>
     </g>
    </g>
    <g id="xtick_12">
     <g id="line2d_12">
      <g>
       <use xlink:href="#mc85f55d0a3" x="269.29493" y="19.477969" style="fill: #262626; stroke: #262626; stroke-width: 0.5"/>
      </g>
     </g>
    </g>
    <g id="xtick_13">
     <g id="line2d_13">
      <g>
       <use xlink:href="#mc85f55d0a3" x="290.617267" y="19.477969" style="fill: #262626; stroke: #262626; stroke-width: 0.5"/>
      </g>
     </g>
    </g>
    <g id="xtick_14">
     <g id="line2d_14">
      <g>
       <use xlink:href="#mc85f55d0a3" x="311.939604" y="19.477969" style="fill: #262626; stroke: #262626; stroke-width: 0.5"/>
      </g>
     </g>
    </g>
    <g id="xtick_15">
     <g id="line2d_15">
      <g>
       <use xlink:href="#mc85f55d0a3" x="354.584279" y="19.477969" style="fill: #262626; stroke: #262626; stroke-width: 0.5"/>
      </g>
     </g>
    </g>
    <g id="xtick_16">
     <g id="line2d_16">
      <g>
       <use xlink:href="#mc85f55d0a3" x="375.906616" y="19.477969" style="fill: #262626; stroke: #262626; stroke-width: 0.5"/>
      </g>
     </g>
    </g>
    <g id="xtick_17">
     <g id="line2d_17">
      <g>
       <use xlink:href="#mc85f55d0a3" x="397.228953" y="19.477969" style="fill: #262626; stroke: #262626; stroke-width: 0.5"/>
      </g>
     </g>
    </g>
    <g id="xtick_18">
     <g id="line2d_18">
      <g>
       <use xlink:href="#mc85f55d0a3" x="418.55129" y="19.477969" style="fill: #262626; stroke: #262626; stroke-width: 0.5"/>
      </g>
     </g>
    </g>
    <g id="xtick_19">
     <g id="line2d_19">
      <g>
       <use xlink:href="#mc85f55d0a3" x="461.195965" y="19.477969" style="fill: #262626; stroke: #262626; stroke-width: 0.5"/>
      </g>
     </g>
    </g>
    <g id="xtick_20">
     <g id="line2d_20">
      <g>
       <use xlink:href="#mc85f55d0a3" x="482.518302" y="19.477969" style="fill: #262626; stroke: #262626; stroke-width: 0.5"/>
      </g>
     </g>
    </g>
    <g id="text_5">
     <!-- Gruppo -->
     <g style="fill: #262626" transform="translate(257.748599 335.206356) scale(0.12 -0.12)">
      <defs>
       <path id="DejaVuSans-47" d="M 3809 666 
L 3809 1919 
L 2778 1919 
L 2778 2438 
L 4434 2438 
L 4434 434 
Q 4069 175 3628 42 
Q 3188 -91 2688 -91 
Q 1594 -91 976 548 
Q 359 1188 359 2328 
Q 359 3472 976 4111 
Q 1594 4750 2688 4750 
Q 3144 4750 3555 4637 
Q 3966 4525 4313 4306 
L 4313 3634 
Q 3963 3931 3569 4081 
Q 3175 4231 2741 4231 
Q 1884 4231 1454 3753 
Q 1025 3275 1025 2328 
Q 1025 1384 1454 906 
Q 1884 428 2741 428 
Q 3075 428 3337 486 
Q 3600 544 3809 666 
z
" transform="scale(0.015625)"/>
       <path id="DejaVuSans-70" d="M 1159 525 
L 1159 -1331 
L 581 -1331 
L 581 3500 
L 1159 3500 
L 1159 2969 
Q 1341 3281 1617 3432 
Q 1894 3584 2278 3584 
Q 2916 3584 3314 3078 
Q 3713 2572 3713 1747 
Q 3713 922 3314 415 
Q 2916 -91 2278 -91 
Q 1894 -91 1617 61 
Q 1341 213 1159 525 
z
M 3116 1747 
Q 3116 2381 2855 2742 
Q 2594 3103 2138 3103 
Q 1681 3103 1420 2742 
Q 1159 2381 1159 1747 
Q 1159 1113 1420 752 
Q 1681 391 2138 391 
Q 2594 391 2855 752 
Q 3116 1113 3116 1747 
z
" transform="scale(0.015625)"/>
      </defs>
      <use xlink:href="#DejaVuSans-47"/>
      <use xlink:href="#DejaVuSans-72" transform="translate(77.490234 0)"/>
      <use xlink:href="#DejaVuSans-75" transform="translate(118.603516 0)"/>
      <use xlink:href="#DejaVuSans-70" transform="translate(181.982422 0)"/>
      <use xlink:href="#DejaVuSans-70" transform="translate(245.458984 0)"/>
      <use xlink:href="#DejaVuSans-6f" transform="translate(308.935547 0)"/>
     </g>
    </g>
   </g>
   <g id="matplotlib.axis_2">
    <g id="ytick_1">
     <g id="line2d_21">
      <path d="M 66.732727 270.39311 
L 493.179471 270.39311 
" clip-path="url(#p1e76e0553b)" style="fill: none; stroke-dasharray: 1.85,0.8; stroke-dashoffset: 0; stroke: #1a1a1a; stroke-opacity: 0.25; stroke-width: 0.5"/>
     </g>
     <g id="line2d_22">
      <defs>
       <path id="m3a2f3611de" d="M 0 0 
L -3 0 
" style="stroke: #262626; stroke-width: 0.5"/>
      </defs>
      <g>
       <use xlink:href="#m3a2f3611de" x="493.179471" y="270.39311" style="fill: #262626; stroke: #262626; stroke-width: 0.5"/>
      </g>
     </g>
     <g id="text_6">
      <!-- $\mathdefault{0}$ -->
      <g style="fill: #262626" transform="translate(56.192727 274.572251) scale(0.11 -0.11)">
       <defs>
        <path id="DejaVuSans-30" d="M 2034 4250 
Q 1547 4250 1301 3770 
Q 1056 3291 1056 2328 
Q 1056 1369 1301 889 
Q 1547 409 2034 409 
Q 2525 409 2770 889 
Q 3016 1369 3016 2328 
Q 3016 3291 2770 3770 
Q 2525 4250 2034 4250 
z
M 2034 4750 
Q 2819 4750 3233 4129 
Q 3647 3509 3647 2328 
Q 3647 1150 3233 529 
Q 2819 -91 2034 -91 
Q 1250 -91 836 529 
Q 422 1150 422 2328 
Q 422 3509 836 4129 
Q 1250 4750 2034 4750 
z
" transform="scale(0.015625)"/>
       </defs>
       <use xlink:href="#DejaVuSans-30" transform="translate(0 0.78125)"/>
      </g>
     </g>
    </g>
    <g id="ytick_2">
     <g id="line2d_23">
      <path d="M 66.732727 222.59975 
L 493.179471 222.59975 
" clip-path="url(#p1e76e0553b)" style="fill: none; stroke-dasharray: 1.85,0.8; stroke-dashoffset: 0; stroke: #1a1a1a; stroke-opacity: 0.25; stroke-width: 0.5"/>
     </g>
     <g id="line2d_24">
      <g>
       <use xlink:href="#m3a2f3611de" x="493.179471" y="222.59975" style="fill: #262626; stroke: #262626; stroke-width: 0.5"/>
      </g>
     </g>
     <g id="text_7">
      <!-- $\mathdefault{2}$ -->
      <g style="fill: #262626" transform="translate(56.192727 226.77889) scale(0.11 -0.11)">
       <defs>
        <path id="DejaVuSans-32" d="M 1228 531 
L 3431 531 
L 3431 0 
L 469 0 
L 469 531 
Q 828 903 1448 1529 
Q 2069 2156 2228 2338 
Q 2531 2678 2651 2914 
Q 2772 3150 2772 3378 
Q 2772 3750 2511 3984 
Q 2250 4219 1831 4219 
Q 1534 4219 1204 4116 
Q 875 4013 500 3803 
L 500 4441 
Q 881 4594 1212 4672 
Q 1544 4750 1819 4750 
Q 2544 4750 2975 4387 
Q 3406 4025 3406 3419 
Q 3406 3131 3298 2873 
Q 3191 2616 2906 2266 
Q 2828 2175 2409 1742 
Q 1991 1309 1228 531 
z
" transform="scale(0.015625)"/>
       </defs>
       <use xlink:href="#DejaVuSans-32" transform="translate(0 0.78125)"/>
      </g>
     </g>
    </g>
    <g id="ytick_3">
     <g id="line2d_25">
      <path d="M 66.732727 174.80639 
L 493.179471 174.80639 
" clip-path="url(#p1e76e0553b)" style="fill: none; stroke-dasharray: 1.85,0.8; stroke-dashoffset: 0; stroke: #1a1a1a; stroke-opacity: 0.25; stroke-width: 0.5"/>
     </g>
     <g id="line2d_26">
      <g>
       <use xlink:href="#m3a2f3611de" x="493.179471" y="174.80639" style="fill: #262626; stroke: #262626; stroke-width: 0.5"/>
      </g>
     </g>
     <g id="text_8">
      <!-- $\mathdefault{4}$ -->
      <g style="fill: #262626" transform="translate(56.192727 178.98553) scale(0.11 -0.11)">
       <defs>
        <path id="DejaVuSans-34" d="M 2419 4116 
L 825 1625 
L 2419 1625 
L 2419 4116 
z
M 2253 4666 
L 3047 4666 
L 3047 1625 
L 3713 1625 
L 3713 1100 
L 3047 1100 
L 3047 0 
L 2419 0 
L 2419 1100 
L 313 1100 
L 313 1709 
L 2253 4666 
z
" transform="scale(0.015625)"/>
       </defs>
       <use xlink:href="#DejaVuSans-34" transform="translate(0 0.09375)"/>
      </g>
     </g>
    </g>
    <g id="ytick_4">
     <g id="line2d_27">
      <path d="M 66.732727 127.013029 
L 493.179471 127.013029 
" clip-path="url(#p1e76e0553b)" style="fill: none; stroke-dasharray: 1.85,0.8; stroke-dashoffset: 0; stroke: #1a1a1a; stroke-opacity: 0.25; stroke-width: 0.5"/>
     </g>
     <g id="line2d_28">
      <g>
       <use xlink:href="#m3a2f3611de" x="493.179471" y="127.013029" style="fill: #262626; stroke: #262626; stroke-width: 0.5"/>
      </g>
     </g>
     <g id="text_9">
      <!-- $\mathdefault{6}$ -->
      <g style="fill: #262626" transform="translate(56.192727 131.19217) scale(0.11 -0.11)">
       <defs>
        <path id="DejaVuSans-36" d="M 2113 2584 
Q 1688 2584 1439 2293 
Q 1191 2003 1191 1497 
Q 1191 994 1439 701 
Q 1688 409 2113 409 
Q 2538 409 2786 701 
Q 3034 994 3034 1497 
Q 3034 2003 2786 2293 
Q 2538 2584 2113 2584 
z
M 3366 4563 
L 3366 3988 
Q 3128 4100 2886 4159 
Q 2644 4219 2406 4219 
Q 1781 4219 1451 3797 
Q 1122 3375 1075 2522 
Q 1259 2794 1537 2939 
Q 1816 3084 2150 3084 
Q 2853 3084 3261 2657 
Q 3669 2231 3669 1497 
Q 3669 778 3244 343 
Q 2819 -91 2113 -91 
Q 1303 -91 875 529 
Q 447 1150 447 2328 
Q 447 3434 972 4092 
Q 1497 4750 2381 4750 
Q 2619 4750 2861 4703 
Q 3103 4656 3366 4563 
z
" transform="scale(0.015625)"/>
       </defs>
       <use xlink:href="#DejaVuSans-36" transform="translate(0 0.78125)"/>
      </g>
     </g>
    </g>
    <g id="ytick_5">
     <g id="line2d_29">
      <path d="M 66.732727 79.219669 
L 493.179471 79.219669 
" clip-path="url(#p1e76e0553b)" style="fill: none; stroke-dasharray: 1.85,0.8; stroke-dashoffset: 0; stroke: #1a1a1a; stroke-opacity: 0.25; stroke-width: 0.5"/>
     </g>
     <g id="line2d_30">
      <g>
       <use xlink:href="#m3a2f3611de" x="493.179471" y="79.219669" style="fill: #262626; stroke: #262626; stroke-width: 0.5"/>
      </g>
     </g>
     <g id="text_10">
      <!-- $\mathdefault{8}$ -->
      <g style="fill: #262626" transform="translate(56.192727 83.39881) scale(0.11 -0.11)">
       <defs>
        <path id="DejaVuSans-38" d="M 2034 2216 
Q 1584 2216 1326 1975 
Q 1069 1734 1069 1313 
Q 1069 891 1326 650 
Q 1584 409 2034 409 
Q 2484 409 2743 651 
Q 3003 894 3003 1313 
Q 3003 1734 2745 1975 
Q 2488 2216 2034 2216 
z
M 1403 2484 
Q 997 2584 770 2862 
Q 544 3141 544 3541 
Q 544 4100 942 4425 
Q 1341 4750 2034 4750 
Q 2731 4750 3128 4425 
Q 3525 4100 3525 3541 
Q 3525 3141 3298 2862 
Q 3072 2584 2669 2484 
Q 3125 2378 3379 2068 
Q 3634 1759 3634 1313 
Q 3634 634 3220 271 
Q 2806 -91 2034 -91 
Q 1263 -91 848 271 
Q 434 634 434 1313 
Q 434 1759 690 2068 
Q 947 2378 1403 2484 
z
M 1172 3481 
Q 1172 3119 1398 2916 
Q 1625 2713 2034 2713 
Q 2441 2713 2670 2916 
Q 2900 3119 2900 3481 
Q 2900 3844 2670 4047 
Q 2441 4250 2034 4250 
Q 1625 4250 1398 4047 
Q 1172 3844 1172 3481 
z
" transform="scale(0.015625)"/>
       </defs>
       <use xlink:href="#DejaVuSans-38" transform="translate(0 0.78125)"/>
      </g>
     </g>
    </g>
    <g id="ytick_6">
     <g id="line2d_31">
      <path d="M 66.732727 31.426309 
L 493.179471 31.426309 
" clip-path="url(#p1e76e0553b)" style="fill: none; stroke-dasharray: 1.85,0.8; stroke-dashoffset: 0; stroke: #1a1a1a; stroke-opacity: 0.25; stroke-width: 0.5"/>
     </g>
     <g id="line2d_32">
      <g>
       <use xlink:href="#m3a2f3611de" x="493.179471" y="31.426309" style="fill: #262626; stroke: #262626; stroke-width: 0.5"/>
      </g>
     </g>
     <g id="text_11">
      <!-- $\mathdefault{10}$ -->
      <g style="fill: #262626" transform="translate(49.152727 35.605449) scale(0.11 -0.11)">
       <defs>
        <path id="DejaVuSans-31" d="M 794 531 
L 1825 531 
L 1825 4091 
L 703 3866 
L 703 4441 
L 1819 4666 
L 2450 4666 
L 2450 531 
L 3481 531 
L 3481 0 
L 794 0 
L 794 531 
z
" transform="scale(0.015625)"/>
       </defs>
       <use xlink:href="#DejaVuSans-31" transform="translate(0 0.78125)"/>
       <use xlink:href="#DejaVuSans-30" transform="translate(63.623047 0.78125)"/>
      </g>
     </g>
    </g>
    <g id="ytick_7">
     <g id="line2d_33">
      <defs>
       <path id="m9ced370974" d="M 0 0 
L -1.5 0 
" style="stroke: #262626; stroke-width: 0.5"/>
      </defs>
      <g>
       <use xlink:href="#m9ced370974" x="493.179471" y="282.34145" style="fill: #262626; stroke: #262626; stroke-width: 0.5"/>
      </g>
     </g>
    </g>
    <g id="ytick_8">
     <g id="line2d_34">
      <g>
       <use xlink:href="#m9ced370974" x="493.179471" y="258.44477" style="fill: #262626; stroke: #262626; stroke-width: 0.5"/>
      </g>
     </g>
    </g>
    <g id="ytick_9">
     <g id="line2d_35">
      <g>
       <use xlink:href="#m9ced370974" x="493.179471" y="246.49643" style="fill: #262626; stroke: #262626; stroke-width: 0.5"/>
      </g>
     </g>
    </g>
    <g id="ytick_10">
     <g id="line2d_36">
      <g>
       <use xlink:href="#m9ced370974" x="493.179471" y="234.54809" style="fill: #262626; stroke: #262626; stroke-width: 0.5"/>
      </g>
     </g>
    </g>
    <g id="ytick_11">
     <g id="line2d_37">
      <g>
       <use xlink:href="#m9ced370974" x="493.179471" y="210.65141" style="fill: #262626; stroke: #262626; stroke-width: 0.5"/>
      </g>
     </g>
    </g>
    <g id="ytick_12">
     <g id="line2d_38">
      <g>
       <use xlink:href="#m9ced370974" x="493.179471" y="198.70307" style="fill: #262626; stroke: #262626; stroke-width: 0.5"/>
      </g>
     </g>
    </g>
    <g id="ytick_13">
     <g id="line2d_39">
      <g>
       <use xlink:href="#m9ced370974" x="493.179471" y="186.75473" style="fill: #262626; stroke: #262626; stroke-width: 0.5"/>
      </g>
     </g>
    </g>
    <g id="ytick_14">
     <g id="line2d_40">
      <g>
       <use xlink:href="#m9ced370974" x="493.179471" y="162.858049" style="fill: #262626; stroke: #262626; stroke-width: 0.5"/>
      </g>
     </g>
    </g>
    <g id="ytick_15">
     <g id="line2d_41">
      <g>
       <use xlink:href="#m9ced370974" x="493.179471" y="150.909709" style="fill: #262626; stroke: #262626; stroke-width: 0.5"/>
      </g>
     </g>
    </g>
    <g id="ytick_16">
     <g id="line2d_42">
      <g>
       <use xlink:href="#m9ced370974" x="493.179471" y="138.961369" style="fill: #262626; stroke: #262626; stroke-width: 0.5"/>
      </g>
     </g>
    </g>
    <g id="ytick_17">
     <g id="line2d_43">
      <g>
       <use xlink:href="#m9ced370974" x="493.179471" y="115.064689" style="fill: #262626; stroke: #262626; stroke-width: 0.5"/>
      </g>
     </g>
    </g>
    <g id="ytick_18">
     <g id="line2d_44">
      <g>
       <use xlink:href="#m9ced370974" x="493.179471" y="103.116349" style="fill: #262626; stroke: #262626; stroke-width: 0.5"/>
      </g>
     </g>
    </g>
    <g id="ytick_19">
     <g id="line2d_45">
      <g>
       <use xlink:href="#m9ced370974" x="493.179471" y="91.168009" style="fill: #262626; stroke: #262626; stroke-width: 0.5"/>
      </g>
     </g>
    </g>
    <g id="ytick_20">
     <g id="line2d_46">
      <g>
       <use xlink:href="#m9ced370974" x="493.179471" y="67.271329" style="fill: #262626; stroke: #262626; stroke-width: 0.5"/>
      </g>
     </g>
    </g>
    <g id="ytick_21">
     <g id="line2d_47">
      <g>
       <use xlink:href="#m9ced370974" x="493.179471" y="55.322989" style="fill: #262626; stroke: #262626; stroke-width: 0.5"/>
      </g>
     </g>
    </g>
    <g id="ytick_22">
     <g id="line2d_48">
      <g>
       <use xlink:href="#m9ced370974" x="493.179471" y="43.374649" style="fill: #262626; stroke: #262626; stroke-width: 0.5"/>
      </g>
     </g>
    </g>
    <g id="ytick_23">
     <g id="line2d_49">
      <g>
       <use xlink:href="#m9ced370974" x="493.179471" y="19.477969" style="fill: #262626; stroke: #262626; stroke-width: 0.5"/>
      </g>
     </g>
    </g>
    <g id="text_12">
     <!-- Ore settimanali (uso quotidiano IA) -->
     <g style="fill: #262626" transform="translate(42.657102 255.890959) rotate(-90) scale(0.12 -0.12)">
      <defs>
       <path id="DejaVuSans-4f" d="M 2522 4238 
Q 1834 4238 1429 3725 
Q 1025 3213 1025 2328 
Q 1025 1447 1429 934 
Q 1834 422 2522 422 
Q 3209 422 3611 934 
Q 4013 1447 4013 2328 
Q 4013 3213 3611 3725 
Q 3209 4238 2522 4238 
z
M 2522 4750 
Q 3503 4750 4090 4092 
Q 4678 3434 4678 2328 
Q 4678 1225 4090 567 
Q 3503 -91 2522 -91 
Q 1538 -91 948 565 
Q 359 1222 359 2328 
Q 359 3434 948 4092 
Q 1538 4750 2522 4750 
z
" transform="scale(0.015625)"/>
       <path id="DejaVuSans-6d" d="M 3328 2828 
Q 3544 3216 3844 3400 
Q 4144 3584 4550 3584 
Q 5097 3584 5394 3201 
Q 5691 2819 5691 2113 
L 5691 0 
L 5113 0 
L 5113 2094 
Q 5113 2597 4934 2840 
Q 4756 3084 4391 3084 
Q 3944 3084 3684 2787 
Q 3425 2491 3425 1978 
L 3425 0 
L 2847 0 
L 2847 2094 
Q 2847 2600 2669 2842 
Q 2491 3084 2119 3084 
Q 1678 3084 1418 2786 
Q 1159 2488 1159 1978 
L 1159 0 
L 581 0 
L 581 3500 
L 1159 3500 
L 1159 2956 
Q 1356 3278 1631 3431 
Q 1906 3584 2284 3584 
Q 2666 3584 2933 3390 
Q 3200 3197 3328 2828 
z
" transform="scale(0.015625)"/>
       <path id="DejaVuSans-6c" d="M 603 4863 
L 1178 4863 
L 1178 0 
L 603 0 
L 603 4863 
z
" transform="scale(0.015625)"/>
       <path id="DejaVuSans-28" d="M 1984 4856 
Q 1566 4138 1362 3434 
Q 1159 2731 1159 2009 
Q 1159 1288 1364 580 
Q 1569 -128 1984 -844 
L 1484 -844 
Q 1016 -109 783 600 
Q 550 1309 550 2009 
Q 550 2706 781 3412 
Q 1013 4119 1484 4856 
L 1984 4856 
z
" transform="scale(0.015625)"/>
       <path id="DejaVuSans-71" d="M 947 1747 
Q 947 1113 1208 752 
Q 1469 391 1925 391 
Q 2381 391 2643 752 
Q 2906 1113 2906 1747 
Q 2906 2381 2643 2742 
Q 2381 3103 1925 3103 
Q 1469 3103 1208 2742 
Q 947 2381 947 1747 
z
M 2906 525 
Q 2725 213 2448 61 
Q 2172 -91 1784 -91 
Q 1150 -91 751 415 
Q 353 922 353 1747 
Q 353 2572 751 3078 
Q 1150 3584 1784 3584 
Q 2172 3584 2448 3432 
Q 2725 3281 2906 2969 
L 2906 3500 
L 3481 3500 
L 3481 -1331 
L 2906 -1331 
L 2906 525 
z
" transform="scale(0.015625)"/>
       <path id="DejaVuSans-49" d="M 628 4666 
L 1259 4666 
L 1259 0 
L 628 0 
L 628 4666 
z
" transform="scale(0.015625)"/>
       <path id="DejaVuSans-41" d="M 2188 4044 
L 1331 1722 
L 3047 1722 
L 2188 4044 
z
M 1831 4666 
L 2547 4666 
L 4325 0 
L 3669 0 
L 3244 1197 
L 1141 1197 
L 716 0 
L 50 0 
L 1831 4666 
z
" transform="scale(0.015625)"/>
       <path id="DejaVuSans-29" d="M 513 4856 
L 1013 4856 
Q 1481 4119 1714 3412 
Q 1947 2706 1947 2009 
Q 1947 1309 1714 600 
Q 1481 -109 1013 -844 
L 513 -844 
Q 928 -128 1133 580 
Q 1338 1288 1338 2009 
Q 1338 2731 1133 3434 
Q 928 4138 513 4856 
z
" transform="scale(0.015625)"/>
      </defs>
      <use xlink:href="#DejaVuSans-4f"/>
      <use xlink:href="#DejaVuSans-72" transform="translate(78.710938 0)"/>
      <use xlink:href="#DejaVuSans-65" transform="translate(117.574219 0)"/>
      <use xlink:href="#DejaVuSans-20" transform="translate(179.097656 0)"/>
      <use xlink:href="#DejaVuSans-73" transform="translate(210.884766 0)"/>
      <use xlink:href="#DejaVuSans-65" transform="translate(262.984375 0)"/>
      <use xlink:href="#DejaVuSans-74" transform="translate(324.507812 0)"/>
      <use xlink:href="#DejaVuSans-74" transform="translate(363.716797 0)"/>
      <use xlink:href="#DejaVuSans-69" transform="translate(402.925781 0)"/>
      <use xlink:href="#DejaVuSans-6d" transform="translate(430.708984 0)"/>
      <use xlink:href="#DejaVuSans-61" transform="translate(528.121094 0)"/>
      <use xlink:href="#DejaVuSans-6e" transform="translate(589.400391 0)"/>
      <use xlink:href="#DejaVuSans-61" transform="translate(652.779297 0)"/>
      <use xlink:href="#DejaVuSans-6c" transform="translate(714.058594 0)"/>
      <use xlink:href="#DejaVuSans-69" transform="translate(741.841797 0)"/>
      <use xlink:href="#DejaVuSans-20" transform="translate(769.625 0)"/>
      <use xlink:href="#DejaVuSans-28" transform="translate(801.412109 0)"/>
      <use xlink:href="#DejaVuSans-75" transform="translate(840.425781 0)"/>
      <use xlink:href="#DejaVuSans-73" transform="translate(903.804688 0)"/>
      <use xlink:href="#DejaVuSans-6f" transform="translate(955.904297 0)"/>
      <use xlink:href="#DejaVuSans-20" transform="translate(1017.085938 0)"/>
      <use xlink:href="#DejaVuSans-71" transform="translate(1048.873047 0)"/>
      <use xlink:href="#DejaVuSans-75" transform="translate(1112.349609 0)"/>
      <use xlink:href="#DejaVuSans-6f" transform="translate(1175.728516 0)"/>
      <use xlink:href="#DejaVuSans-74" transform="translate(1236.910156 0)"/>
      <use xlink:href="#DejaVuSans-69" transform="translate(1276.119141 0)"/>
      <use xlink:href="#DejaVuSans-64" transform="translate(1303.902344 0)"/>
      <use xlink:href="#DejaVuSans-69" transform="translate(1367.378906 0)"/>
      <use xlink:href="#DejaVuSans-61" transform="translate(1395.162109 0)"/>
      <use xlink:href="#DejaVuSans-6e" transform="translate(1456.441406 0)"/>
      <use xlink:href="#DejaVuSans-6f" transform="translate(1519.820312 0)"/>
      <use xlink:href="#DejaVuSans-20" transform="translate(1581.001953 0)"/>
      <use xlink:href="#DejaVuSans-49" transform="translate(1612.789062 0)"/>
      <use xlink:href="#DejaVuSans-41" transform="translate(1642.28125 0)"/>
      <use xlink:href="#DejaVuSans-29" transform="translate(1710.689453 0)"/>
     </g>
    </g>
   </g>
   <g id="FillBetweenPolyCollection_1">
    <defs>
     <path id="mc05772ef0e" d="M 145.475143 -70.908871 
L 94.601996 -70.908871 
L 92.616879 -73.322677 
L 90.663423 -75.736483 
L 88.765929 -78.150289 
L 86.948665 -80.564095 
L 85.235277 -82.977902 
L 83.648192 -85.391708 
L 82.208044 -87.805514 
L 80.933156 -90.21932 
L 79.839075 -92.633126 
L 78.938219 -95.046932 
L 78.239602 -97.460738 
L 77.748686 -99.874544 
L 77.467339 -102.28835 
L 77.393895 -104.702156 
L 77.523319 -107.115962 
L 77.847447 -109.529768 
L 78.355295 -111.943574 
L 79.033422 -114.35738 
L 79.866318 -116.771187 
L 80.836814 -119.184993 
L 81.926497 -121.598799 
L 83.116126 -124.012605 
L 84.386023 -126.426411 
L 85.716461 -128.840217 
L 87.088021 -131.254023 
L 88.481931 -133.667829 
L 89.880367 -136.081635 
L 91.266737 -138.495441 
L 92.625923 -140.909247 
L 93.944492 -143.323053 
L 95.210874 -145.736859 
L 96.415493 -148.150665 
L 97.550864 -150.564472 
L 98.611648 -152.978278 
L 99.594658 -155.392084 
L 100.498825 -157.80589 
L 101.32511 -160.219696 
L 102.076376 -162.633502 
L 102.757205 -165.047308 
L 103.373671 -167.461114 
L 103.933064 -169.87492 
L 104.443583 -172.288726 
L 104.913993 -174.702532 
L 105.353261 -177.116338 
L 105.770191 -179.530144 
L 106.173065 -181.943951 
L 106.569314 -184.357757 
L 106.965231 -186.771563 
L 107.365745 -189.185369 
L 107.774262 -191.599175 
L 108.192597 -194.012981 
L 108.620981 -196.426787 
L 109.058156 -198.840593 
L 109.501541 -201.254399 
L 109.947473 -203.668205 
L 110.391482 -206.082011 
L 110.828605 -208.495817 
L 111.253711 -210.909623 
L 111.66181 -213.323429 
L 112.048343 -215.737236 
L 112.409426 -218.151042 
L 112.742049 -220.564848 
L 113.04421 -222.978654 
L 113.314994 -225.39246 
L 113.554586 -227.806266 
L 113.764236 -230.220072 
L 113.946163 -232.633878 
L 114.103427 -235.047684 
L 114.239756 -237.46149 
L 114.35936 -239.875296 
L 114.466717 -242.289102 
L 114.566363 -244.702908 
L 114.662673 -247.116714 
L 114.759667 -249.530521 
L 114.860822 -251.944327 
L 114.968927 -254.358133 
L 115.085962 -256.771939 
L 115.213029 -259.185745 
L 115.350329 -261.599551 
L 115.497188 -264.013357 
L 115.652135 -266.427163 
L 115.81303 -268.840969 
L 115.977227 -271.254775 
L 116.141777 -273.668581 
L 116.303639 -276.082387 
L 116.459905 -278.496193 
L 116.608005 -280.91 
L 116.74589 -283.323806 
L 116.872178 -285.737612 
L 116.986242 -288.151418 
L 117.088249 -290.565224 
L 117.179138 -292.97903 
L 117.260538 -295.392836 
L 117.334639 -297.806642 
L 117.40403 -300.220448 
L 117.471503 -302.634254 
L 117.539854 -305.04806 
L 117.611691 -307.461866 
L 117.689258 -309.875672 
L 122.387881 -309.875672 
L 122.387881 -309.875672 
L 122.465448 -307.461866 
L 122.537285 -305.04806 
L 122.605636 -302.634254 
L 122.673109 -300.220448 
L 122.7425 -297.806642 
L 122.816602 -295.392836 
L 122.898001 -292.97903 
L 122.98889 -290.565224 
L 123.090897 -288.151418 
L 123.204961 -285.737612 
L 123.331249 -283.323806 
L 123.469134 -280.91 
L 123.617234 -278.496193 
L 123.7735 -276.082387 
L 123.935362 -273.668581 
L 124.099912 -271.254775 
L 124.26411 -268.840969 
L 124.425004 -266.427163 
L 124.579951 -264.013357 
L 124.72681 -261.599551 
L 124.86411 -259.185745 
L 124.991178 -256.771939 
L 125.108212 -254.358133 
L 125.216317 -251.944327 
L 125.317472 -249.530521 
L 125.414466 -247.116714 
L 125.510776 -244.702908 
L 125.610422 -242.289102 
L 125.71778 -239.875296 
L 125.837383 -237.46149 
L 125.973713 -235.047684 
L 126.130976 -232.633878 
L 126.312903 -230.220072 
L 126.522553 -227.806266 
L 126.762146 -225.39246 
L 127.032929 -222.978654 
L 127.335091 -220.564848 
L 127.667713 -218.151042 
L 128.028797 -215.737236 
L 128.415329 -213.323429 
L 128.823428 -210.909623 
L 129.248534 -208.495817 
L 129.685658 -206.082011 
L 130.129666 -203.668205 
L 130.575598 -201.254399 
L 131.018984 -198.840593 
L 131.456158 -196.426787 
L 131.884542 -194.012981 
L 132.302878 -191.599175 
L 132.711395 -189.185369 
L 133.111908 -186.771563 
L 133.507825 -184.357757 
L 133.904074 -181.943951 
L 134.306948 -179.530144 
L 134.723878 -177.116338 
L 135.163146 -174.702532 
L 135.633556 -172.288726 
L 136.144075 -169.87492 
L 136.703469 -167.461114 
L 137.319934 -165.047308 
L 138.000763 -162.633502 
L 138.75203 -160.219696 
L 139.578315 -157.80589 
L 140.482481 -155.392084 
L 141.465491 -152.978278 
L 142.526275 -150.564472 
L 143.661646 -148.150665 
L 144.866265 -145.736859 
L 146.132647 -143.323053 
L 147.451217 -140.909247 
L 148.810402 -138.495441 
L 150.196772 -136.081635 
L 151.595208 -133.667829 
L 152.989118 -131.254023 
L 154.360679 -128.840217 
L 155.691117 -126.426411 
L 156.961014 -124.012605 
L 158.150642 -121.598799 
L 159.240326 -119.184993 
L 160.210821 -116.771187 
L 161.043717 -114.35738 
L 161.721844 -111.943574 
L 162.229693 -109.529768 
L 162.55382 -107.115962 
L 162.683244 -104.702156 
L 162.6098 -102.28835 
L 162.328453 -99.874544 
L 161.837538 -97.460738 
L 161.13892 -95.046932 
L 160.238064 -92.633126 
L 159.143984 -90.21932 
L 157.869095 -87.805514 
L 156.428948 -85.391708 
L 154.841862 -82.977902 
L 153.128475 -80.564095 
L 151.311211 -78.150289 
L 149.413716 -75.736483 
L 147.460261 -73.322677 
L 145.475143 -70.908871 
z
" style="stroke: #343434; stroke-width: 1.25"/>
    </defs>
    <g clip-path="url(#p1e76e0553b)">
     <use xlink:href="#mc05772ef0e" x="0" y="341.301981" style="fill: #df2020; stroke: #343434; stroke-width: 1.25"/>
    </g>
   </g>
   <g id="FillBetweenPolyCollection_2">
    <defs>
     <path id="m18ccde19fc" d="M 263.075023 -70.908871 
L 190.225488 -70.908871 
L 188.693924 -73.322677 
L 187.376071 -75.736483 
L 186.279913 -78.150289 
L 185.407147 -80.564095 
L 184.753804 -82.977902 
L 184.311144 -85.391708 
L 184.066731 -87.805514 
L 184.005581 -90.21932 
L 184.111304 -92.633126 
L 184.367135 -95.046932 
L 184.756798 -97.460738 
L 185.265147 -99.874544 
L 185.878565 -102.28835 
L 186.585129 -104.702156 
L 187.374549 -107.115962 
L 188.237928 -109.529768 
L 189.167402 -111.943574 
L 190.155699 -114.35738 
L 191.195692 -116.771187 
L 192.27999 -119.184993 
L 193.400608 -121.598799 
L 194.548759 -124.012605 
L 195.714774 -126.426411 
L 196.888162 -128.840217 
L 198.057788 -131.254023 
L 199.212161 -133.667829 
L 200.339803 -136.081635 
L 201.429652 -138.495441 
L 202.471478 -140.909247 
L 203.456284 -143.323053 
L 204.376661 -145.736859 
L 205.227068 -148.150665 
L 206.004052 -150.564472 
L 206.706374 -152.978278 
L 207.335052 -155.392084 
L 207.893331 -157.80589 
L 208.386566 -160.219696 
L 208.822037 -162.633502 
L 209.208696 -165.047308 
L 209.55685 -167.461114 
L 209.877789 -169.87492 
L 210.183362 -172.288726 
L 210.485517 -174.702532 
L 210.795809 -177.116338 
L 211.124913 -179.530144 
L 211.482145 -181.943951 
L 211.875029 -184.357757 
L 212.308938 -186.771563 
L 212.786829 -189.185369 
L 213.309101 -191.599175 
L 213.87358 -194.012981 
L 214.475663 -196.426787 
L 215.108577 -198.840593 
L 215.76378 -201.254399 
L 216.431447 -203.668205 
L 217.101018 -206.082011 
L 217.761782 -208.495817 
L 218.403431 -210.909623 
L 219.016571 -213.323429 
L 219.593146 -215.737236 
L 220.126749 -218.151042 
L 220.61282 -220.564848 
L 221.048709 -222.978654 
L 221.433632 -225.39246 
L 221.768513 -227.806266 
L 222.055755 -230.220072 
L 222.298943 -232.633878 
L 222.502525 -235.047684 
L 222.671473 -237.46149 
L 222.810967 -239.875296 
L 222.926098 -242.289102 
L 223.021614 -244.702908 
L 223.101718 -247.116714 
L 223.169906 -249.530521 
L 223.22887 -251.944327 
L 223.280445 -254.358133 
L 223.325604 -256.771939 
L 223.364509 -259.185745 
L 223.396596 -261.599551 
L 223.42071 -264.013357 
L 223.43527 -266.427163 
L 223.438469 -268.840969 
L 223.428495 -271.254775 
L 223.403765 -273.668581 
L 223.363152 -276.082387 
L 223.306208 -278.496193 
L 223.233339 -280.91 
L 223.145948 -283.323806 
L 223.046498 -285.737612 
L 222.938515 -288.151418 
L 222.826504 -290.565224 
L 222.715781 -292.97903 
L 222.612239 -295.392836 
L 222.522045 -297.806642 
L 222.451302 -300.220448 
L 222.405693 -302.634254 
L 222.39013 -305.04806 
L 222.408452 -307.461866 
L 222.463172 -309.875672 
L 230.83734 -309.875672 
L 230.83734 -309.875672 
L 230.892059 -307.461866 
L 230.910381 -305.04806 
L 230.894819 -302.634254 
L 230.849209 -300.220448 
L 230.778467 -297.806642 
L 230.688272 -295.392836 
L 230.58473 -292.97903 
L 230.474007 -290.565224 
L 230.361996 -288.151418 
L 230.254013 -285.737612 
L 230.154564 -283.323806 
L 230.067172 -280.91 
L 229.994304 -278.496193 
L 229.937359 -276.082387 
L 229.896747 -273.668581 
L 229.872016 -271.254775 
L 229.862043 -268.840969 
L 229.865242 -266.427163 
L 229.879801 -264.013357 
L 229.903915 -261.599551 
L 229.936002 -259.185745 
L 229.974907 -256.771939 
L 230.020067 -254.358133 
L 230.071641 -251.944327 
L 230.130606 -249.530521 
L 230.198794 -247.116714 
L 230.278897 -244.702908 
L 230.374413 -242.289102 
L 230.489544 -239.875296 
L 230.629038 -237.46149 
L 230.797987 -235.047684 
L 231.001568 -232.633878 
L 231.244757 -230.220072 
L 231.531998 -227.806266 
L 231.866879 -225.39246 
L 232.251802 -222.978654 
L 232.687691 -220.564848 
L 233.173762 -218.151042 
L 233.707365 -215.737236 
L 234.28394 -213.323429 
L 234.897081 -210.909623 
L 235.53873 -208.495817 
L 236.199493 -206.082011 
L 236.869065 -203.668205 
L 237.536731 -201.254399 
L 238.191934 -198.840593 
L 238.824849 -196.426787 
L 239.426931 -194.012981 
L 239.991411 -191.599175 
L 240.513682 -189.185369 
L 240.991573 -186.771563 
L 241.425483 -184.357757 
L 241.818367 -181.943951 
L 242.175598 -179.530144 
L 242.504702 -177.116338 
L 242.814994 -174.702532 
L 243.117149 -172.288726 
L 243.422722 -169.87492 
L 243.743662 -167.461114 
L 244.091816 -165.047308 
L 244.478474 -162.633502 
L 244.913945 -160.219696 
L 245.40718 -157.80589 
L 245.965459 -155.392084 
L 246.594138 -152.978278 
L 247.296459 -150.564472 
L 248.073443 -148.150665 
L 248.92385 -145.736859 
L 249.844227 -143.323053 
L 250.829034 -140.909247 
L 251.87086 -138.495441 
L 252.960708 -136.081635 
L 254.08835 -133.667829 
L 255.242724 -131.254023 
L 256.412349 -128.840217 
L 257.585737 -126.426411 
L 258.751753 -124.012605 
L 259.899904 -121.598799 
L 261.020521 -119.184993 
L 262.104819 -116.771187 
L 263.144812 -114.35738 
L 264.133109 -111.943574 
L 265.062583 -109.529768 
L 265.925962 -107.115962 
L 266.715382 -104.702156 
L 267.421946 -102.28835 
L 268.035365 -99.874544 
L 268.543713 -97.460738 
L 268.933376 -95.046932 
L 269.189207 -92.633126 
L 269.29493 -90.21932 
L 269.23378 -87.805514 
L 268.989367 -85.391708 
L 268.546708 -82.977902 
L 267.893364 -80.564095 
L 267.020598 -78.150289 
L 265.92444 -75.736483 
L 264.606587 -73.322677 
L 263.075023 -70.908871 
z
" style="stroke: #343434; stroke-width: 1.25"/>
    </defs>
    <g clip-path="url(#p1e76e0553b)">
     <use xlink:href="#m18ccde19fc" x="0" y="341.301981" style="fill: #2f7e2f; stroke: #343434; stroke-width: 1.25"/>
    </g>
   </g>
   <g id="FillBetweenPolyCollection_3">
    <defs>
     <path id="m16a1e831e7" d="M 375.76147 -70.908871 
L 290.762413 -70.908871 
L 290.617267 -71.874394 
L 290.717947 -72.839916 
L 291.053459 -73.805438 
L 291.607718 -74.770961 
L 292.36017 -75.736483 
L 293.286582 -76.702006 
L 294.359947 -77.667528 
L 295.551465 -78.633051 
L 296.831559 -79.598573 
L 298.170856 -80.564095 
L 299.54112 -81.529618 
L 300.916056 -82.49514 
L 302.271992 -83.460663 
L 303.588378 -84.426185 
L 304.848116 -85.391708 
L 306.037693 -86.35723 
L 307.147147 -87.322752 
L 308.169862 -88.288275 
L 309.102233 -89.253797 
L 309.943224 -90.21932 
L 310.693855 -91.184842 
L 311.356656 -92.150365 
L 311.93514 -93.115887 
L 312.433296 -94.081409 
L 312.855176 -95.046932 
L 313.204554 -96.012454 
L 313.484713 -96.977977 
L 313.698342 -97.943499 
L 313.847542 -98.909022 
L 313.933954 -99.874544 
L 313.958965 -100.840066 
L 313.923989 -101.805589 
L 313.830783 -102.771111 
L 313.681783 -103.736634 
L 313.480415 -104.702156 
L 313.23137 -105.667679 
L 312.940798 -106.633201 
L 312.616424 -107.598723 
L 312.267556 -108.564246 
L 311.904982 -109.529768 
L 311.540762 -110.495291 
L 311.187923 -111.460813 
L 310.860059 -112.426336 
L 310.570882 -113.391858 
L 310.333715 -114.35738 
L 310.16099 -115.322903 
L 310.063752 -116.288425 
L 310.051214 -117.253948 
L 310.130375 -118.21947 
L 310.305737 -119.184993 
L 310.57912 -120.150515 
L 310.949601 -121.116037 
L 311.413565 -122.08156 
L 311.964875 -123.047082 
L 312.595143 -124.012605 
L 313.294095 -124.978127 
L 314.049994 -125.94365 
L 314.850119 -126.909172 
L 315.681257 -127.874694 
L 316.530189 -128.840217 
L 317.384149 -129.805739 
L 318.231234 -130.771262 
L 319.060743 -131.736784 
L 319.863444 -132.702307 
L 320.631744 -133.667829 
L 321.359781 -134.633351 
L 322.043423 -135.598874 
L 322.680195 -136.564396 
L 323.269133 -137.529919 
L 323.810593 -138.495441 
L 324.306014 -139.460964 
L 324.757671 -140.426486 
L 325.168414 -141.392008 
L 325.541429 -142.357531 
L 325.880012 -143.323053 
L 326.187383 -144.288576 
L 326.466544 -145.254098 
L 326.720175 -146.219621 
L 326.950579 -147.185143 
L 327.159673 -148.150665 
L 327.349014 -149.116188 
L 327.519858 -150.08171 
L 327.673243 -151.047233 
L 327.810083 -152.012755 
L 327.931267 -152.978278 
L 328.037761 -153.9438 
L 328.130684 -154.909322 
L 328.211377 -155.874845 
L 328.281445 -156.840367 
L 328.342769 -157.80589 
L 328.397499 -158.771412 
L 328.44801 -159.736935 
L 328.496851 -160.702457 
L 328.546659 -161.66798 
L 328.600072 -162.633502 
L 328.659631 -163.599024 
L 328.727681 -164.564547 
L 328.806277 -165.530069 
L 328.897106 -166.495592 
L 337.626778 -166.495592 
L 337.626778 -166.495592 
L 337.717606 -165.530069 
L 337.796202 -164.564547 
L 337.864252 -163.599024 
L 337.923811 -162.633502 
L 337.977224 -161.66798 
L 338.027032 -160.702457 
L 338.075873 -159.736935 
L 338.126385 -158.771412 
L 338.181114 -157.80589 
L 338.242439 -156.840367 
L 338.312506 -155.874845 
L 338.3932 -154.909322 
L 338.486123 -153.9438 
L 338.592616 -152.978278 
L 338.713801 -152.012755 
L 338.85064 -151.047233 
L 339.004025 -150.08171 
L 339.17487 -149.116188 
L 339.364211 -148.150665 
L 339.573305 -147.185143 
L 339.803708 -146.219621 
L 340.057339 -145.254098 
L 340.3365 -144.288576 
L 340.643872 -143.323053 
L 340.982454 -142.357531 
L 341.355469 -141.392008 
L 341.766212 -140.426486 
L 342.217869 -139.460964 
L 342.71329 -138.495441 
L 343.25475 -137.529919 
L 343.843689 -136.564396 
L 344.480461 -135.598874 
L 345.164103 -134.633351 
L 345.892139 -133.667829 
L 346.660439 -132.702307 
L 347.46314 -131.736784 
L 348.292649 -130.771262 
L 349.139734 -129.805739 
L 349.993694 -128.840217 
L 350.842626 -127.874694 
L 351.673764 -126.909172 
L 352.473889 -125.94365 
L 353.229789 -124.978127 
L 353.92874 -124.012605 
L 354.559008 -123.047082 
L 355.110318 -122.08156 
L 355.574282 -121.116037 
L 355.944763 -120.150515 
L 356.218146 -119.184993 
L 356.393508 -118.21947 
L 356.472669 -117.253948 
L 356.460131 -116.288425 
L 356.362893 -115.322903 
L 356.190168 -114.35738 
L 355.953001 -113.391858 
L 355.663824 -112.426336 
L 355.335961 -111.460813 
L 354.983121 -110.495291 
L 354.618902 -109.529768 
L 354.256327 -108.564246 
L 353.907459 -107.598723 
L 353.583086 -106.633201 
L 353.292514 -105.667679 
L 353.043468 -104.702156 
L 352.8421 -103.736634 
L 352.6931 -102.771111 
L 352.599894 -101.805589 
L 352.564918 -100.840066 
L 352.58993 -99.874544 
L 352.676342 -98.909022 
L 352.825542 -97.943499 
L 353.03917 -96.977977 
L 353.31933 -96.012454 
L 353.668708 -95.046932 
L 354.090587 -94.081409 
L 354.588744 -93.115887 
L 355.167227 -92.150365 
L 355.830029 -91.184842 
L 356.580659 -90.21932 
L 357.42165 -89.253797 
L 358.354022 -88.288275 
L 359.376737 -87.322752 
L 360.48619 -86.35723 
L 361.675767 -85.391708 
L 362.935505 -84.426185 
L 364.251892 -83.460663 
L 365.607827 -82.49514 
L 366.982764 -81.529618 
L 368.353027 -80.564095 
L 369.692325 -79.598573 
L 370.972418 -78.633051 
L 372.163937 -77.667528 
L 373.237301 -76.702006 
L 374.163713 -75.736483 
L 374.916165 -74.770961 
L 375.470424 -73.805438 
L 375.805936 -72.839916 
L 375.906616 -71.874394 
L 375.76147 -70.908871 
z
" style="stroke: #343434; stroke-width: 1.25"/>
    </defs>
    <g clip-path="url(#p1e76e0553b)">
     <use xlink:href="#m16a1e831e7" x="0" y="341.301981" style="fill: #dfc120; stroke: #343434; stroke-width: 1.25"/>
    </g>
   </g>
   <g id="FillBetweenPolyCollection_4">
    <defs>
     <path id="mb544c99490" d="M 482.441408 -70.908871 
L 397.305847 -70.908871 
L 397.228953 -72.115774 
L 397.627736 -73.322677 
L 398.45771 -74.52958 
L 399.655552 -75.736483 
L 401.143658 -76.943386 
L 402.835722 -78.150289 
L 404.642826 -79.357192 
L 406.479524 -80.564095 
L 408.269362 -81.770998 
L 409.949399 -82.977902 
L 411.473352 -84.184805 
L 412.813161 -85.391708 
L 413.958918 -86.598611 
L 414.917266 -87.805514 
L 415.708496 -89.012417 
L 416.362704 -90.21932 
L 416.915424 -91.426223 
L 417.403178 -92.633126 
L 417.859379 -93.840029 
L 418.310949 -95.046932 
L 418.775934 -96.253835 
L 419.262288 -97.460738 
L 419.767861 -98.667641 
L 420.281526 -99.874544 
L 420.785264 -101.081447 
L 421.256925 -102.28835 
L 421.673372 -103.495253 
L 422.013632 -104.702156 
L 422.261752 -105.909059 
L 422.409057 -107.115962 
L 422.455592 -108.322865 
L 422.410632 -109.529768 
L 422.292212 -110.736671 
L 422.125756 -111.943574 
L 421.941956 -113.150477 
L 421.774119 -114.35738 
L 421.655268 -115.564284 
L 421.615277 -116.771187 
L 421.678317 -117.97809 
L 421.860864 -119.184993 
L 422.170431 -120.391896 
L 422.605144 -121.598799 
L 423.154157 -122.805702 
L 423.798851 -124.012605 
L 424.514676 -125.219508 
L 425.273418 -126.426411 
L 426.04569 -127.633314 
L 426.803375 -128.840217 
L 427.521815 -130.04712 
L 428.18155 -131.254023 
L 428.769481 -132.460926 
L 429.279366 -133.667829 
L 429.711678 -134.874732 
L 430.072855 -136.081635 
L 430.374069 -137.288538 
L 430.629665 -138.495441 
L 430.855437 -139.702344 
L 431.066927 -140.909247 
L 431.277888 -142.11615 
L 431.499077 -143.323053 
L 431.737438 -144.529956 
L 431.995746 -145.736859 
L 432.27271 -146.943762 
L 432.563474 -148.150665 
L 432.860464 -149.357569 
L 433.154447 -150.564472 
L 433.435694 -151.771375 
L 433.695126 -152.978278 
L 433.925313 -154.185181 
L 434.121251 -155.392084 
L 434.280843 -156.598987 
L 434.405048 -157.80589 
L 434.497718 -159.012793 
L 434.565133 -160.219696 
L 434.615317 -161.426599 
L 434.657203 -162.633502 
L 434.699739 -163.840405 
L 434.751033 -165.047308 
L 434.817613 -166.254211 
L 434.903879 -167.461114 
L 435.01178 -168.668017 
L 435.140756 -169.87492 
L 435.287921 -171.081823 
L 435.448469 -172.288726 
L 435.616253 -173.495629 
L 435.784465 -174.702532 
L 435.946358 -175.909435 
L 436.095926 -177.116338 
L 436.228483 -178.323241 
L 436.341098 -179.530144 
L 436.432835 -180.737047 
L 436.504799 -181.943951 
L 436.55998 -183.150854 
L 436.602939 -184.357757 
L 436.639348 -185.56466 
L 436.675461 -186.771563 
L 436.717549 -187.978466 
L 436.771364 -189.185369 
L 436.841674 -190.392272 
L 442.905581 -190.392272 
L 442.905581 -190.392272 
L 442.975892 -189.185369 
L 443.029706 -187.978466 
L 443.071794 -186.771563 
L 443.107907 -185.56466 
L 443.144317 -184.357757 
L 443.187275 -183.150854 
L 443.242457 -181.943951 
L 443.31442 -180.737047 
L 443.406157 -179.530144 
L 443.518773 -178.323241 
L 443.65133 -177.116338 
L 443.800897 -175.909435 
L 443.96279 -174.702532 
L 444.131002 -173.495629 
L 444.298786 -172.288726 
L 444.459334 -171.081823 
L 444.606499 -169.87492 
L 444.735475 -168.668017 
L 444.843377 -167.461114 
L 444.929642 -166.254211 
L 444.996222 -165.047308 
L 445.047516 -163.840405 
L 445.090052 -162.633502 
L 445.131938 -161.426599 
L 445.182122 -160.219696 
L 445.249537 -159.012793 
L 445.342207 -157.80589 
L 445.466413 -156.598987 
L 445.626004 -155.392084 
L 445.821943 -154.185181 
L 446.05213 -152.978278 
L 446.311561 -151.771375 
L 446.592809 -150.564472 
L 446.886791 -149.357569 
L 447.183781 -148.150665 
L 447.474545 -146.943762 
L 447.751509 -145.736859 
L 448.009818 -144.529956 
L 448.248178 -143.323053 
L 448.469367 -142.11615 
L 448.680328 -140.909247 
L 448.891818 -139.702344 
L 449.117591 -138.495441 
L 449.373187 -137.288538 
L 449.6744 -136.081635 
L 450.035577 -134.874732 
L 450.46789 -133.667829 
L 450.977775 -132.460926 
L 451.565705 -131.254023 
L 452.225441 -130.04712 
L 452.94388 -128.840217 
L 453.701565 -127.633314 
L 454.473837 -126.426411 
L 455.23258 -125.219508 
L 455.948404 -124.012605 
L 456.593099 -122.805702 
L 457.142111 -121.598799 
L 457.576824 -120.391896 
L 457.886392 -119.184993 
L 458.068938 -117.97809 
L 458.131978 -116.771187 
L 458.091987 -115.564284 
L 457.973136 -114.35738 
L 457.805299 -113.150477 
L 457.621499 -111.943574 
L 457.455044 -110.736671 
L 457.336624 -109.529768 
L 457.291663 -108.322865 
L 457.338198 -107.115962 
L 457.485503 -105.909059 
L 457.733623 -104.702156 
L 458.073883 -103.495253 
L 458.49033 -102.28835 
L 458.961992 -101.081447 
L 459.465729 -99.874544 
L 459.979394 -98.667641 
L 460.484967 -97.460738 
L 460.971321 -96.253835 
L 461.436306 -95.046932 
L 461.887876 -93.840029 
L 462.344077 -92.633126 
L 462.831831 -91.426223 
L 463.384551 -90.21932 
L 464.038759 -89.012417 
L 464.829989 -87.805514 
L 465.788337 -86.598611 
L 466.934094 -85.391708 
L 468.273903 -84.184805 
L 469.797856 -82.977902 
L 471.477893 -81.770998 
L 473.267732 -80.564095 
L 475.104429 -79.357192 
L 476.911534 -78.150289 
L 478.603597 -76.943386 
L 480.091703 -75.736483 
L 481.289545 -74.52958 
L 482.119519 -73.322677 
L 482.518302 -72.115774 
L 482.441408 -70.908871 
z
" style="stroke: #343434; stroke-width: 1.25"/>
    </defs>
    <g clip-path="url(#p1e76e0553b)">
     <use xlink:href="#mb544c99490" x="0" y="341.301981" style="fill: #5573cd; stroke: #343434; stroke-width: 1.25"/>
    </g>
   </g>
   <g id="line2d_50">
    <path d="M 79.028305 246.49643 
L 161.048835 246.49643 
" clip-path="url(#p1e76e0553b)" style="fill: none; stroke-dasharray: 1.5625,0.9375; stroke-dashoffset: 0; stroke: #343434; stroke-width: 1.25"/>
   </g>
   <g id="line2d_51">
    <path d="M 80.642714 222.59975 
L 159.434425 222.59975 
" clip-path="url(#p1e76e0553b)" style="fill: none; stroke-dasharray: 3.125,1.25; stroke-dashoffset: 0; stroke: #343434; stroke-width: 1.25"/>
   </g>
   <g id="line2d_52">
    <path d="M 101.419018 180.78056 
L 138.658121 180.78056 
" clip-path="url(#p1e76e0553b)" style="fill: none; stroke-dasharray: 1.5625,0.9375; stroke-dashoffset: 0; stroke: #343434; stroke-width: 1.25"/>
   </g>
   <g id="line2d_53">
    <path d="M 190.225488 270.39311 
L 263.075023 270.39311 
" clip-path="url(#p1e76e0553b)" style="fill: none; stroke-dasharray: 1.5625,0.9375; stroke-dashoffset: 0; stroke: #343434; stroke-width: 1.25"/>
   </g>
   <g id="line2d_54">
    <path d="M 192.06313 222.59975 
L 261.237381 222.59975 
" clip-path="url(#p1e76e0553b)" style="fill: none; stroke-dasharray: 3.125,1.25; stroke-dashoffset: 0; stroke: #343434; stroke-width: 1.25"/>
   </g>
   <g id="line2d_55">
    <path d="M 209.417588 174.80639 
L 243.882923 174.80639 
" clip-path="url(#p1e76e0553b)" style="fill: none; stroke-dasharray: 1.5625,0.9375; stroke-dashoffset: 0; stroke: #343434; stroke-width: 1.25"/>
   </g>
   <g id="line2d_56">
    <path d="M 290.762413 270.39311 
L 375.76147 270.39311 
" clip-path="url(#p1e76e0553b)" style="fill: none; stroke-dasharray: 1.5625,0.9375; stroke-dashoffset: 0; stroke: #343434; stroke-width: 1.25"/>
   </g>
   <g id="line2d_57">
    <path d="M 312.749706 246.49643 
L 353.774177 246.49643 
" clip-path="url(#p1e76e0553b)" style="fill: none; stroke-dasharray: 3.125,1.25; stroke-dashoffset: 0; stroke: #343434; stroke-width: 1.25"/>
   </g>
   <g id="line2d_58">
    <path d="M 310.218056 222.59975 
L 356.305827 222.59975 
" clip-path="url(#p1e76e0553b)" style="fill: none; stroke-dasharray: 1.5625,0.9375; stroke-dashoffset: 0; stroke: #343434; stroke-width: 1.25"/>
   </g>
   <g id="line2d_59">
    <path d="M 397.305847 270.39311 
L 482.441408 270.39311 
" clip-path="url(#p1e76e0553b)" style="fill: none; stroke-dasharray: 1.5625,0.9375; stroke-dashoffset: 0; stroke: #343434; stroke-width: 1.25"/>
   </g>
   <g id="line2d_60">
    <path d="M 418.220635 246.49643 
L 461.52662 246.49643 
" clip-path="url(#p1e76e0553b)" style="fill: none; stroke-dasharray: 3.125,1.25; stroke-dashoffset: 0; stroke: #343434; stroke-width: 1.25"/>
   </g>
   <g id="line2d_61">
    <path d="M 421.787845 222.59975 
L 457.95941 222.59975 
" clip-path="url(#p1e76e0553b)" style="fill: none; stroke-dasharray: 1.5625,0.9375; stroke-dashoffset: 0; stroke: #343434; stroke-width: 1.25"/>
   </g>
   <g id="patch_3">
    <path d="M 66.732727 282.34145 
L 66.732727 19.477969 
" style="fill: none; stroke: #cccccc; stroke-width: 0.5; stroke-linejoin: miter; stroke-linecap: square"/>
   </g>
   <g id="patch_4">
    <path d="M 66.732727 282.34145 
L 493.179471 282.34145 
" style="fill: none; stroke: #cccccc; stroke-width: 0.5; stroke-linejoin: miter; stroke-linecap: square"/>
   </g>
   <g id="text_13">
    <!-- Uso quotidiano dell'IA  violino (trimmed, senza outlier) -->
    <g style="fill: #262626" transform="translate(96.279302 13.477969) scale(0.13 -0.13)">
     <defs>
      <path id="DejaVuSans-55" d="M 556 4666 
L 1191 4666 
L 1191 1831 
Q 1191 1081 1462 751 
Q 1734 422 2344 422 
Q 2950 422 3222 751 
Q 3494 1081 3494 1831 
L 3494 4666 
L 4128 4666 
L 4128 1753 
Q 4128 841 3676 375 
Q 3225 -91 2344 -91 
Q 1459 -91 1007 375 
Q 556 841 556 1753 
L 556 4666 
z
" transform="scale(0.015625)"/>
      <path id="DejaVuSans-27" d="M 1147 4666 
L 1147 2931 
L 616 2931 
L 616 4666 
L 1147 4666 
z
" transform="scale(0.015625)"/>
      <path id="DejaVuSans-2014" d="M 313 1978 
L 6088 1978 
L 6088 1528 
L 313 1528 
L 313 1978 
z
" transform="scale(0.015625)"/>
      <path id="DejaVuSans-2c" d="M 750 794 
L 1409 794 
L 1409 256 
L 897 -744 
L 494 -744 
L 750 256 
L 750 794 
z
" transform="scale(0.015625)"/>
     </defs>
     <use xlink:href="#DejaVuSans-55"/>
     <use xlink:href="#DejaVuSans-73" transform="translate(73.193359 0)"/>
     <use xlink:href="#DejaVuSans-6f" transform="translate(125.292969 0)"/>
     <use xlink:href="#DejaVuSans-20" transform="translate(186.474609 0)"/>
     <use xlink:href="#DejaVuSans-71" transform="translate(218.261719 0)"/>
     <use xlink:href="#DejaVuSans-75" transform="translate(281.738281 0)"/>
     <use xlink:href="#DejaVuSans-6f" transform="translate(345.117188 0)"/>
     <use xlink:href="#DejaVuSans-74" transform="translate(406.298828 0)"/>
     <use xlink:href="#DejaVuSans-69" transform="translate(445.507812 0)"/>
     <use xlink:href="#DejaVuSans-64" transform="translate(473.291016 0)"/>
     <use xlink:href="#DejaVuSans-69" transform="translate(536.767578 0)"/>
     <use xlink:href="#DejaVuSans-61" transform="translate(564.550781 0)"/>
     <use xlink:href="#DejaVuSans-6e" transform="translate(625.830078 0)"/>
     <use xlink:href="#DejaVuSans-6f" transform="translate(689.208984 0)"/>
     <use xlink:href="#DejaVuSans-20" transform="translate(750.390625 0)"/>
     <use xlink:href="#DejaVuSans-64" transform="translate(782.177734 0)"/>
     <use xlink:href="#DejaVuSans-65" transform="translate(845.654297 0)"/>
     <use xlink:href="#DejaVuSans-6c" transform="translate(907.177734 0)"/>
     <use xlink:href="#DejaVuSans-6c" transform="translate(934.960938 0)"/>
     <use xlink:href="#DejaVuSans-27" transform="translate(962.744141 0)"/>
     <use xlink:href="#DejaVuSans-49" transform="translate(990.234375 0)"/>
     <use xlink:href="#DejaVuSans-41" transform="translate(1019.726562 0)"/>
     <use xlink:href="#DejaVuSans-20" transform="translate(1088.134766 0)"/>
     <use xlink:href="#DejaVuSans-2014" transform="translate(1119.921875 0)"/>
     <use xlink:href="#DejaVuSans-20" transform="translate(1219.921875 0)"/>
     <use xlink:href="#DejaVuSans-76" transform="translate(1251.708984 0)"/>
     <use xlink:href="#DejaVuSans-69" transform="translate(1310.888672 0)"/>
     <use xlink:href="#DejaVuSans-6f" transform="translate(1338.671875 0)"/>
     <use xlink:href="#DejaVuSans-6c" transform="translate(1399.853516 0)"/>
     <use xlink:href="#DejaVuSans-69" transform="translate(1427.636719 0)"/>
     <use xlink:href="#DejaVuSans-6e" transform="translate(1455.419922 0)"/>
     <use xlink:href="#DejaVuSans-6f" transform="translate(1518.798828 0)"/>
     <use xlink:href="#DejaVuSans-20" transform="translate(1579.980469 0)"/>
     <use xlink:href="#DejaVuSans-28" transform="translate(1611.767578 0)"/>
     <use xlink:href="#DejaVuSans-74" transform="translate(1650.78125 0)"/>
     <use xlink:href="#DejaVuSans-72" transform="translate(1689.990234 0)"/>
     <use xlink:href="#DejaVuSans-69" transform="translate(1731.103516 0)"/>
     <use xlink:href="#DejaVuSans-6d" transform="translate(1758.886719 0)"/>
     <use xlink:href="#DejaVuSans-6d" transform="translate(1856.298828 0)"/>
     <use xlink:href="#DejaVuSans-65" transform="translate(1953.710938 0)"/>
     <use xlink:href="#DejaVuSans-64" transform="translate(2015.234375 0)"/>
     <use xlink:href="#DejaVuSans-2c" transform="translate(2078.710938 0)"/>
     <use xlink:href="#DejaVuSans-20" transform="translate(2110.498047 0)"/>
     <use xlink:href="#DejaVuSans-73" transform="translate(2142.285156 0)"/>
     <use xlink:href="#DejaVuSans-65" transform="translate(2194.384766 0)"/>
     <use xlink:href="#DejaVuSans-6e" transform="translate(2255.908203 0)"/>
     <use xlink:href="#DejaVuSans-7a" transform="translate(2319.287109 0)"/>
     <use xlink:href="#DejaVuSans-61" transform="translate(2371.777344 0)"/>
     <use xlink:href="#DejaVuSans-20" transform="translate(2433.056641 0)"/>
     <use xlink:href="#DejaVuSans-6f" transform="translate(2464.84375 0)"/>
     <use xlink:href="#DejaVuSans-75" transform="translate(2526.025391 0)"/>
     <use xlink:href="#DejaVuSans-74" transform="translate(2589.404297 0)"/>
     <use xlink:href="#DejaVuSans-6c" transform="translate(2628.613281 0)"/>
     <use xlink:href="#DejaVuSans-69" transform="translate(2656.396484 0)"/>
     <use xlink:href="#DejaVuSans-65" transform="translate(2684.179688 0)"/>
     <use xlink:href="#DejaVuSans-72" transform="translate(2745.703125 0)"/>
     <use xlink:href="#DejaVuSans-29" transform="translate(2786.816406 0)"/>
    </g>
   </g>
  </g>
 </g>
 <defs>
  <clipPath id="p1e76e0553b">
   <rect x="66.732727" y="19.477969" width="426.446744" height="262.863481"/>
  </clipPath>
 </defs>
</svg>
