<?xml version="1.0" encoding="utf-8" standalone="no"?>
<!DOCTYPE svg PUBLIC "-//W3C//DTD SVG 1.1//EN"
  "http://www.w3.org/Graphics/SVG/1.1/DTD/svg11.dtd">
<svg xmlns:xlink="http://www.w3.org/1999/xlink" width="496.642213pt" height="341.305291pt" viewBox="0 0 496.642213 341.305291" xmlns="http://www.w3.org/2000/svg" version="1.1">
 <metadata>
  <rdf:RDF xmlns:dc="http://purl.org/dc/elements/1.1/" xmlns:cc="http://creativecommons.org/ns#" xmlns:rdf="http://www.w3.org/1999/02/22-rdf-syntax-ns#">
   <cc:Work>
    <dc:type rdf:resource="http://purl.org/dc/dcmitype/StillImage"/>
    <dc:date>2025-11-01T22:49:31.081322</dc:date>
    <dc:format>image/svg+xml</dc:format>
    <dc:creator>
     <cc:Agent>
      <dc:title>Matplotlib v3.10.7, https://matplotlib.org/</dc:title>
     </cc:Agent>
    </dc:creator>
   </cc:Work>
  </rdf:RDF>
 </metadata>
 <defs>
  <style type="text/css">*{stroke-linejoin: round; stroke-linecap: butt}</style>
 </defs>
 <g id="figure_1">
  <g id="patch_1">
   <path d="M 0 341.305291 
L 496.642213 341.305291 
L 496.642213 0 
L 0 0 
z
" style="fill: #ffffff"/>
  </g>
  <g id="axes_1">
   <g id="patch_2">
    <path d="M 66.063673 284.967011 
L 493.042213 284.967011 
L 493.042213 19.477969 
L 66.063673 19.477969 
z
" style="fill: #ffffff"/>
   </g>
   <g id="matplotlib.axis_1">
    <g id="xtick_1">
     <g id="line2d_1">
      <defs>
       <path id="m9ad3357f17" d="M 0 0 
L 0 3 
" style="stroke: #262626; stroke-width: 0.5"/>
      </defs>
      <g>
       <use xlink:href="#m9ad3357f17" x="119.43599" y="19.477969" style="fill: #262626; stroke: #262626; stroke-width: 0.5"/>
      </g>
     </g>
     <g id="text_1">
      <!-- students - secondary -->
      <g style="fill: #262626" transform="translate(5.0514 316.797355) rotate(-10) scale(0.11 -0.11)">
       <defs>
        <path id="DejaVuSans-73" d="M 2834 3397 
L 2834 2853 
Q 2591 2978 2328 3040 
Q 2066 3103 1784 3103 
Q 1356 3103 1142 2972 
Q 928 2841 928 2578 
Q 928 2378 1081 2264 
Q 1234 2150 1697 2047 
L 1894 2003 
Q 2506 1872 2764 1633 
Q 3022 1394 3022 966 
Q 3022 478 2636 193 
Q 2250 -91 1575 -91 
Q 1294 -91 989 -36 
Q 684 19 347 128 
L 347 722 
Q 666 556 975 473 
Q 1284 391 1588 391 
Q 1994 391 2212 530 
Q 2431 669 2431 922 
Q 2431 1156 2273 1281 
Q 2116 1406 1581 1522 
L 1381 1569 
Q 847 1681 609 1914 
Q 372 2147 372 2553 
Q 372 3047 722 3315 
Q 1072 3584 1716 3584 
Q 2034 3584 2315 3537 
Q 2597 3491 2834 3397 
z
" transform="scale(0.015625)"/>
        <path id="DejaVuSans-74" d="M 1172 4494 
L 1172 3500 
L 2356 3500 
L 2356 3053 
L 1172 3053 
L 1172 1153 
Q 1172 725 1289 603 
Q 1406 481 1766 481 
L 2356 481 
L 2356 0 
L 1766 0 
Q 1100 0 847 248 
Q 594 497 594 1153 
L 594 3053 
L 172 3053 
L 172 3500 
L 594 3500 
L 594 4494 
L 1172 4494 
z
" transform="scale(0.015625)"/>
        <path id="DejaVuSans-75" d="M 544 1381 
L 544 3500 
L 1119 3500 
L 1119 1403 
Q 1119 906 1312 657 
Q 1506 409 1894 409 
Q 2359 409 2629 706 
Q 2900 1003 2900 1516 
L 2900 3500 
L 3475 3500 
L 3475 0 
L 2900 0 
L 2900 538 
Q 2691 219 2414 64 
Q 2138 -91 1772 -91 
Q 1169 -91 856 284 
Q 544 659 544 1381 
z
M 1991 3584 
L 1991 3584 
z
" transform="scale(0.015625)"/>
        <path id="DejaVuSans-64" d="M 2906 2969 
L 2906 4863 
L 3481 4863 
L 3481 0 
L 2906 0 
L 2906 525 
Q 2725 213 2448 61 
Q 2172 -91 1784 -91 
Q 1150 -91 751 415 
Q 353 922 353 1747 
Q 353 2572 751 3078 
Q 1150 3584 1784 3584 
Q 2172 3584 2448 3432 
Q 2725 3281 2906 2969 
z
M 947 1747 
Q 947 1113 1208 752 
Q 1469 391 1925 391 
Q 2381 391 2643 752 
Q 2906 1113 2906 1747 
Q 2906 2381 2643 2742 
Q 2381 3103 1925 3103 
Q 1469 3103 1208 2742 
Q 947 2381 947 1747 
z
" transform="scale(0.015625)"/>
        <path id="DejaVuSans-65" d="M 3597 1894 
L 3597 1613 
L 953 1613 
Q 991 1019 1311 708 
Q 1631 397 2203 397 
Q 2534 397 2845 478 
Q 3156 559 3463 722 
L 3463 178 
Q 3153 47 2828 -22 
Q 2503 -91 2169 -91 
Q 1331 -91 842 396 
Q 353 884 353 1716 
Q 353 2575 817 3079 
Q 1281 3584 2069 3584 
Q 2775 3584 3186 3129 
Q 3597 2675 3597 1894 
z
M 3022 2063 
Q 3016 2534 2758 2815 
Q 2500 3097 2075 3097 
Q 1594 3097 1305 2825 
Q 1016 2553 972 2059 
L 3022 2063 
z
" transform="scale(0.015625)"/>
        <path id="DejaVuSans-6e" d="M 3513 2113 
L 3513 0 
L 2938 0 
L 2938 2094 
Q 2938 2591 2744 2837 
Q 2550 3084 2163 3084 
Q 1697 3084 1428 2787 
Q 1159 2491 1159 1978 
L 1159 0 
L 581 0 
L 581 3500 
L 1159 3500 
L 1159 2956 
Q 1366 3272 1645 3428 
Q 1925 3584 2291 3584 
Q 2894 3584 3203 3211 
Q 3513 2838 3513 2113 
z
" transform="scale(0.015625)"/>
        <path id="DejaVuSans-20" transform="scale(0.015625)"/>
        <path id="DejaVuSans-2d" d="M 313 2009 
L 1997 2009 
L 1997 1497 
L 313 1497 
L 313 2009 
z
" transform="scale(0.015625)"/>
        <path id="DejaVuSans-63" d="M 3122 3366 
L 3122 2828 
Q 2878 2963 2633 3030 
Q 2388 3097 2138 3097 
Q 1578 3097 1268 2742 
Q 959 2388 959 1747 
Q 959 1106 1268 751 
Q 1578 397 2138 397 
Q 2388 397 2633 464 
Q 2878 531 3122 666 
L 3122 134 
Q 2881 22 2623 -34 
Q 2366 -91 2075 -91 
Q 1284 -91 818 406 
Q 353 903 353 1747 
Q 353 2603 823 3093 
Q 1294 3584 2113 3584 
Q 2378 3584 2631 3529 
Q 2884 3475 3122 3366 
z
" transform="scale(0.015625)"/>
        <path id="DejaVuSans-6f" d="M 1959 3097 
Q 1497 3097 1228 2736 
Q 959 2375 959 1747 
Q 959 1119 1226 758 
Q 1494 397 1959 397 
Q 2419 397 2687 759 
Q 2956 1122 2956 1747 
Q 2956 2369 2687 2733 
Q 2419 3097 1959 3097 
z
M 1959 3584 
Q 2709 3584 3137 3096 
Q 3566 2609 3566 1747 
Q 3566 888 3137 398 
Q 2709 -91 1959 -91 
Q 1206 -91 779 398 
Q 353 888 353 1747 
Q 353 2609 779 3096 
Q 1206 3584 1959 3584 
z
" transform="scale(0.015625)"/>
        <path id="DejaVuSans-61" d="M 2194 1759 
Q 1497 1759 1228 1600 
Q 959 1441 959 1056 
Q 959 750 1161 570 
Q 1363 391 1709 391 
Q 2188 391 2477 730 
Q 2766 1069 2766 1631 
L 2766 1759 
L 2194 1759 
z
M 3341 1997 
L 3341 0 
L 2766 0 
L 2766 531 
Q 2569 213 2275 61 
Q 1981 -91 1556 -91 
Q 1019 -91 701 211 
Q 384 513 384 1019 
Q 384 1609 779 1909 
Q 1175 2209 1959 2209 
L 2766 2209 
L 2766 2266 
Q 2766 2663 2505 2880 
Q 2244 3097 1772 3097 
Q 1472 3097 1187 3025 
Q 903 2953 641 2809 
L 641 3341 
Q 956 3463 1253 3523 
Q 1550 3584 1831 3584 
Q 2591 3584 2966 3190 
Q 3341 2797 3341 1997 
z
" transform="scale(0.015625)"/>
        <path id="DejaVuSans-72" d="M 2631 2963 
Q 2534 3019 2420 3045 
Q 2306 3072 2169 3072 
Q 1681 3072 1420 2755 
Q 1159 2438 1159 1844 
L 1159 0 
L 581 0 
L 581 3500 
L 1159 3500 
L 1159 2956 
Q 1341 3275 1631 3429 
Q 1922 3584 2338 3584 
Q 2397 3584 2469 3576 
Q 2541 3569 2628 3553 
L 2631 2963 
z
" transform="scale(0.015625)"/>
        <path id="DejaVuSans-79" d="M 2059 -325 
Q 1816 -950 1584 -1140 
Q 1353 -1331 966 -1331 
L 506 -1331 
L 506 -850 
L 844 -850 
Q 1081 -850 1212 -737 
Q 1344 -625 1503 -206 
L 1606 56 
L 191 3500 
L 800 3500 
L 1894 763 
L 2988 3500 
L 3597 3500 
L 2059 -325 
z
" transform="scale(0.015625)"/>
       </defs>
       <use xlink:href="#DejaVuSans-73"/>
       <use xlink:href="#DejaVuSans-74" transform="translate(52.099609 0)"/>
       <use xlink:href="#DejaVuSans-75" transform="translate(91.308594 0)"/>
       <use xlink:href="#DejaVuSans-64" transform="translate(154.6875 0)"/>
       <use xlink:href="#DejaVuSans-65" transform="translate(218.164062 0)"/>
       <use xlink:href="#DejaVuSans-6e" transform="translate(279.6875 0)"/>
       <use xlink:href="#DejaVuSans-74" transform="translate(343.066406 0)"/>
       <use xlink:href="#DejaVuSans-73" transform="translate(382.275391 0)"/>
       <use xlink:href="#DejaVuSans-20" transform="translate(434.375 0)"/>
       <use xlink:href="#DejaVuSans-2d" transform="translate(466.162109 0)"/>
       <use xlink:href="#DejaVuSans-20" transform="translate(502.246094 0)"/>
       <use xlink:href="#DejaVuSans-73" transform="translate(534.033203 0)"/>
       <use xlink:href="#DejaVuSans-65" transform="translate(586.132812 0)"/>
       <use xlink:href="#DejaVuSans-63" transform="translate(647.65625 0)"/>
       <use xlink:href="#DejaVuSans-6f" transform="translate(702.636719 0)"/>
       <use xlink:href="#DejaVuSans-6e" transform="translate(763.818359 0)"/>
       <use xlink:href="#DejaVuSans-64" transform="translate(827.197266 0)"/>
       <use xlink:href="#DejaVuSans-61" transform="translate(890.673828 0)"/>
       <use xlink:href="#DejaVuSans-72" transform="translate(951.953125 0)"/>
       <use xlink:href="#DejaVuSans-79" transform="translate(993.066406 0)"/>
      </g>
     </g>
    </g>
    <g id="xtick_2">
     <g id="line2d_2">
      <g>
       <use xlink:href="#m9ad3357f17" x="226.180625" y="19.477969" style="fill: #262626; stroke: #262626; stroke-width: 0.5"/>
      </g>
     </g>
     <g id="text_2">
      <!-- students - university -->
      <g style="fill: #262626" transform="translate(114.353612 316.346385) rotate(-10) scale(0.11 -0.11)">
       <defs>
        <path id="DejaVuSans-69" d="M 603 3500 
L 1178 3500 
L 1178 0 
L 603 0 
L 603 3500 
z
M 603 4863 
L 1178 4863 
L 1178 4134 
L 603 4134 
L 603 4863 
z
" transform="scale(0.015625)"/>
        <path id="DejaVuSans-76" d="M 191 3500 
L 800 3500 
L 1894 563 
L 2988 3500 
L 3597 3500 
L 2284 0 
L 1503 0 
L 191 3500 
z
" transform="scale(0.015625)"/>
       </defs>
       <use xlink:href="#DejaVuSans-73"/>
       <use xlink:href="#DejaVuSans-74" transform="translate(52.099609 0)"/>
       <use xlink:href="#DejaVuSans-75" transform="translate(91.308594 0)"/>
       <use xlink:href="#DejaVuSans-64" transform="translate(154.6875 0)"/>
       <use xlink:href="#DejaVuSans-65" transform="translate(218.164062 0)"/>
       <use xlink:href="#DejaVuSans-6e" transform="translate(279.6875 0)"/>
       <use xlink:href="#DejaVuSans-74" transform="translate(343.066406 0)"/>
       <use xlink:href="#DejaVuSans-73" transform="translate(382.275391 0)"/>
       <use xlink:href="#DejaVuSans-20" transform="translate(434.375 0)"/>
       <use xlink:href="#DejaVuSans-2d" transform="translate(466.162109 0)"/>
       <use xlink:href="#DejaVuSans-20" transform="translate(502.246094 0)"/>
       <use xlink:href="#DejaVuSans-75" transform="translate(534.033203 0)"/>
       <use xlink:href="#DejaVuSans-6e" transform="translate(597.412109 0)"/>
       <use xlink:href="#DejaVuSans-69" transform="translate(660.791016 0)"/>
       <use xlink:href="#DejaVuSans-76" transform="translate(688.574219 0)"/>
       <use xlink:href="#DejaVuSans-65" transform="translate(747.753906 0)"/>
       <use xlink:href="#DejaVuSans-72" transform="translate(809.277344 0)"/>
       <use xlink:href="#DejaVuSans-73" transform="translate(850.390625 0)"/>
       <use xlink:href="#DejaVuSans-69" transform="translate(902.490234 0)"/>
       <use xlink:href="#DejaVuSans-74" transform="translate(930.273438 0)"/>
       <use xlink:href="#DejaVuSans-79" transform="translate(969.482422 0)"/>
      </g>
     </g>
    </g>
    <g id="xtick_3">
     <g id="line2d_3">
      <g>
       <use xlink:href="#m9ad3357f17" x="332.92526" y="19.477969" style="fill: #262626; stroke: #262626; stroke-width: 0.5"/>
      </g>
     </g>
     <g id="text_3">
      <!-- teachers - not in service -->
      <g style="fill: #262626" transform="translate(201.292686 319.83864) rotate(-10) scale(0.11 -0.11)">
       <defs>
        <path id="DejaVuSans-68" d="M 3513 2113 
L 3513 0 
L 2938 0 
L 2938 2094 
Q 2938 2591 2744 2837 
Q 2550 3084 2163 3084 
Q 1697 3084 1428 2787 
Q 1159 2491 1159 1978 
L 1159 0 
L 581 0 
L 581 4863 
L 1159 4863 
L 1159 2956 
Q 1366 3272 1645 3428 
Q 1925 3584 2291 3584 
Q 2894 3584 3203 3211 
Q 3513 2838 3513 2113 
z
" transform="scale(0.015625)"/>
       </defs>
       <use xlink:href="#DejaVuSans-74"/>
       <use xlink:href="#DejaVuSans-65" transform="translate(39.208984 0)"/>
       <use xlink:href="#DejaVuSans-61" transform="translate(100.732422 0)"/>
       <use xlink:href="#DejaVuSans-63" transform="translate(162.011719 0)"/>
       <use xlink:href="#DejaVuSans-68" transform="translate(216.992188 0)"/>
       <use xlink:href="#DejaVuSans-65" transform="translate(280.371094 0)"/>
       <use xlink:href="#DejaVuSans-72" transform="translate(341.894531 0)"/>
       <use xlink:href="#DejaVuSans-73" transform="translate(383.007812 0)"/>
       <use xlink:href="#DejaVuSans-20" transform="translate(435.107422 0)"/>
       <use xlink:href="#DejaVuSans-2d" transform="translate(466.894531 0)"/>
       <use xlink:href="#DejaVuSans-20" transform="translate(502.978516 0)"/>
       <use xlink:href="#DejaVuSans-6e" transform="translate(534.765625 0)"/>
       <use xlink:href="#DejaVuSans-6f" transform="translate(598.144531 0)"/>
       <use xlink:href="#DejaVuSans-74" transform="translate(659.326172 0)"/>
       <use xlink:href="#DejaVuSans-20" transform="translate(698.535156 0)"/>
       <use xlink:href="#DejaVuSans-69" transform="translate(730.322266 0)"/>
       <use xlink:href="#DejaVuSans-6e" transform="translate(758.105469 0)"/>
       <use xlink:href="#DejaVuSans-20" transform="translate(821.484375 0)"/>
       <use xlink:href="#DejaVuSans-73" transform="translate(853.271484 0)"/>
       <use xlink:href="#DejaVuSans-65" transform="translate(905.371094 0)"/>
       <use xlink:href="#DejaVuSans-72" transform="translate(966.894531 0)"/>
       <use xlink:href="#DejaVuSans-76" transform="translate(1008.007812 0)"/>
       <use xlink:href="#DejaVuSans-69" transform="translate(1067.1875 0)"/>
       <use xlink:href="#DejaVuSans-63" transform="translate(1094.970703 0)"/>
       <use xlink:href="#DejaVuSans-65" transform="translate(1149.951172 0)"/>
      </g>
     </g>
    </g>
    <g id="xtick_4">
     <g id="line2d_4">
      <g>
       <use xlink:href="#m9ad3357f17" x="439.669896" y="19.477969" style="fill: #262626; stroke: #262626; stroke-width: 0.5"/>
      </g>
     </g>
     <g id="text_4">
      <!-- teachers - in service -->
      <g style="fill: #262626" transform="translate(329.22069 316.10344) rotate(-10) scale(0.11 -0.11)">
       <use xlink:href="#DejaVuSans-74"/>
       <use xlink:href="#DejaVuSans-65" transform="translate(39.208984 0)"/>
       <use xlink:href="#DejaVuSans-61" transform="translate(100.732422 0)"/>
       <use xlink:href="#DejaVuSans-63" transform="translate(162.011719 0)"/>
       <use xlink:href="#DejaVuSans-68" transform="translate(216.992188 0)"/>
       <use xlink:href="#DejaVuSans-65" transform="translate(280.371094 0)"/>
       <use xlink:href="#DejaVuSans-72" transform="translate(341.894531 0)"/>
       <use xlink:href="#DejaVuSans-73" transform="translate(383.007812 0)"/>
       <use xlink:href="#DejaVuSans-20" transform="translate(435.107422 0)"/>
       <use xlink:href="#DejaVuSans-2d" transform="translate(466.894531 0)"/>
       <use xlink:href="#DejaVuSans-20" transform="translate(502.978516 0)"/>
       <use xlink:href="#DejaVuSans-69" transform="translate(534.765625 0)"/>
       <use xlink:href="#DejaVuSans-6e" transform="translate(562.548828 0)"/>
       <use xlink:href="#DejaVuSans-20" transform="translate(625.927734 0)"/>
       <use xlink:href="#DejaVuSans-73" transform="translate(657.714844 0)"/>
       <use xlink:href="#DejaVuSans-65" transform="translate(709.814453 0)"/>
       <use xlink:href="#DejaVuSans-72" transform="translate(771.337891 0)"/>
       <use xlink:href="#DejaVuSans-76" transform="translate(812.451172 0)"/>
       <use xlink:href="#DejaVuSans-69" transform="translate(871.630859 0)"/>
       <use xlink:href="#DejaVuSans-63" transform="translate(899.414062 0)"/>
       <use xlink:href="#DejaVuSans-65" transform="translate(954.394531 0)"/>
      </g>
     </g>
    </g>
    <g id="xtick_5">
     <g id="line2d_5">
      <defs>
       <path id="mf1d27e3acc" d="M 0 0 
L 0 1.5 
" style="stroke: #262626; stroke-width: 0.5"/>
      </defs>
      <g>
       <use xlink:href="#mf1d27e3acc" x="76.738136" y="19.477969" style="fill: #262626; stroke: #262626; stroke-width: 0.5"/>
      </g>
     </g>
    </g>
    <g id="xtick_6">
     <g id="line2d_6">
      <g>
       <use xlink:href="#mf1d27e3acc" x="98.087063" y="19.477969" style="fill: #262626; stroke: #262626; stroke-width: 0.5"/>
      </g>
     </g>
    </g>
    <g id="xtick_7">
     <g id="line2d_7">
      <g>
       <use xlink:href="#mf1d27e3acc" x="140.784917" y="19.477969" style="fill: #262626; stroke: #262626; stroke-width: 0.5"/>
      </g>
     </g>
    </g>
    <g id="xtick_8">
     <g id="line2d_8">
      <g>
       <use xlink:href="#mf1d27e3acc" x="162.133844" y="19.477969" style="fill: #262626; stroke: #262626; stroke-width: 0.5"/>
      </g>
     </g>
    </g>
    <g id="xtick_9">
     <g id="line2d_9">
      <g>
       <use xlink:href="#mf1d27e3acc" x="183.482771" y="19.477969" style="fill: #262626; stroke: #262626; stroke-width: 0.5"/>
      </g>
     </g>
    </g>
    <g id="xtick_10">
     <g id="line2d_10">
      <g>
       <use xlink:href="#mf1d27e3acc" x="204.831698" y="19.477969" style="fill: #262626; stroke: #262626; stroke-width: 0.5"/>
      </g>
     </g>
    </g>
    <g id="xtick_11">
     <g id="line2d_11">
      <g>
       <use xlink:href="#mf1d27e3acc" x="247.529552" y="19.477969" style="fill: #262626; stroke: #262626; stroke-width: 0.5"/>
      </g>
     </g>
    </g>
    <g id="xtick_12">
     <g id="line2d_12">
      <g>
       <use xlink:href="#mf1d27e3acc" x="268.878479" y="19.477969" style="fill: #262626; stroke: #262626; stroke-width: 0.5"/>
      </g>
     </g>
    </g>
    <g id="xtick_13">
     <g id="line2d_13">
      <g>
       <use xlink:href="#mf1d27e3acc" x="290.227406" y="19.477969" style="fill: #262626; stroke: #262626; stroke-width: 0.5"/>
      </g>
     </g>
    </g>
    <g id="xtick_14">
     <g id="line2d_14">
      <g>
       <use xlink:href="#mf1d27e3acc" x="311.576333" y="19.477969" style="fill: #262626; stroke: #262626; stroke-width: 0.5"/>
      </g>
     </g>
    </g>
    <g id="xtick_15">
     <g id="line2d_15">
      <g>
       <use xlink:href="#mf1d27e3acc" x="354.274187" y="19.477969" style="fill: #262626; stroke: #262626; stroke-width: 0.5"/>
      </g>
     </g>
    </g>
    <g id="xtick_16">
     <g id="line2d_16">
      <g>
       <use xlink:href="#mf1d27e3acc" x="375.623115" y="19.477969" style="fill: #262626; stroke: #262626; stroke-width: 0.5"/>
      </g>
     </g>
    </g>
    <g id="xtick_17">
     <g id="line2d_17">
      <g>
       <use xlink:href="#mf1d27e3acc" x="396.972042" y="19.477969" style="fill: #262626; stroke: #262626; stroke-width: 0.5"/>
      </g>
     </g>
    </g>
    <g id="xtick_18">
     <g id="line2d_18">
      <g>
       <use xlink:href="#mf1d27e3acc" x="418.320969" y="19.477969" style="fill: #262626; stroke: #262626; stroke-width: 0.5"/>
      </g>
     </g>
    </g>
    <g id="xtick_19">
     <g id="line2d_19">
      <g>
       <use xlink:href="#mf1d27e3acc" x="461.018823" y="19.477969" style="fill: #262626; stroke: #262626; stroke-width: 0.5"/>
      </g>
     </g>
    </g>
    <g id="xtick_20">
     <g id="line2d_20">
      <g>
       <use xlink:href="#mf1d27e3acc" x="482.36775" y="19.477969" style="fill: #262626; stroke: #262626; stroke-width: 0.5"/>
      </g>
     </g>
    </g>
    <g id="text_5">
     <!-- Group -->
     <g style="fill: #262626" transform="translate(261.289505 335.209666) scale(0.12 -0.12)">
      <defs>
       <path id="DejaVuSans-47" d="M 3809 666 
L 3809 1919 
L 2778 1919 
L 2778 2438 
L 4434 2438 
L 4434 434 
Q 4069 175 3628 42 
Q 3188 -91 2688 -91 
Q 1594 -91 976 548 
Q 359 1188 359 2328 
Q 359 3472 976 4111 
Q 1594 4750 2688 4750 
Q 3144 4750 3555 4637 
Q 3966 4525 4313 4306 
L 4313 3634 
Q 3963 3931 3569 4081 
Q 3175 4231 2741 4231 
Q 1884 4231 1454 3753 
Q 1025 3275 1025 2328 
Q 1025 1384 1454 906 
Q 1884 428 2741 428 
Q 3075 428 3337 486 
Q 3600 544 3809 666 
z
" transform="scale(0.015625)"/>
       <path id="DejaVuSans-70" d="M 1159 525 
L 1159 -1331 
L 581 -1331 
L 581 3500 
L 1159 3500 
L 1159 2969 
Q 1341 3281 1617 3432 
Q 1894 3584 2278 3584 
Q 2916 3584 3314 3078 
Q 3713 2572 3713 1747 
Q 3713 922 3314 415 
Q 2916 -91 2278 -91 
Q 1894 -91 1617 61 
Q 1341 213 1159 525 
z
M 3116 1747 
Q 3116 2381 2855 2742 
Q 2594 3103 2138 3103 
Q 1681 3103 1420 2742 
Q 1159 2381 1159 1747 
Q 1159 1113 1420 752 
Q 1681 391 2138 391 
Q 2594 391 2855 752 
Q 3116 1113 3116 1747 
z
" transform="scale(0.015625)"/>
      </defs>
      <use xlink:href="#DejaVuSans-47"/>
      <use xlink:href="#DejaVuSans-72" transform="translate(77.490234 0)"/>
      <use xlink:href="#DejaVuSans-6f" transform="translate(116.353516 0)"/>
      <use xlink:href="#DejaVuSans-75" transform="translate(177.535156 0)"/>
      <use xlink:href="#DejaVuSans-70" transform="translate(240.914062 0)"/>
     </g>
    </g>
   </g>
   <g id="matplotlib.axis_2">
    <g id="ytick_1">
     <g id="line2d_21">
      <path d="M 66.063673 245.050826 
L 493.042213 245.050826 
" clip-path="url(#p5b0f9a255e)" style="fill: none; stroke-dasharray: 1.85,0.8; stroke-dashoffset: 0; stroke: #1a1a1a; stroke-opacity: 0.25; stroke-width: 0.5"/>
     </g>
     <g id="line2d_22">
      <defs>
       <path id="mf83618efe0" d="M 0 0 
L -3 0 
" style="stroke: #262626; stroke-width: 0.5"/>
      </defs>
      <g>
       <use xlink:href="#mf83618efe0" x="493.042213" y="245.050826" style="fill: #262626; stroke: #262626; stroke-width: 0.5"/>
      </g>
     </g>
     <g id="text_6">
      <!-- $\mathdefault{20}$ -->
      <g style="fill: #262626" transform="translate(48.483673 249.229967) scale(0.11 -0.11)">
       <defs>
        <path id="DejaVuSans-32" d="M 1228 531 
L 3431 531 
L 3431 0 
L 469 0 
L 469 531 
Q 828 903 1448 1529 
Q 2069 2156 2228 2338 
Q 2531 2678 2651 2914 
Q 2772 3150 2772 3378 
Q 2772 3750 2511 3984 
Q 2250 4219 1831 4219 
Q 1534 4219 1204 4116 
Q 875 4013 500 3803 
L 500 4441 
Q 881 4594 1212 4672 
Q 1544 4750 1819 4750 
Q 2544 4750 2975 4387 
Q 3406 4025 3406 3419 
Q 3406 3131 3298 2873 
Q 3191 2616 2906 2266 
Q 2828 2175 2409 1742 
Q 1991 1309 1228 531 
z
" transform="scale(0.015625)"/>
        <path id="DejaVuSans-30" d="M 2034 4250 
Q 1547 4250 1301 3770 
Q 1056 3291 1056 2328 
Q 1056 1369 1301 889 
Q 1547 409 2034 409 
Q 2525 409 2770 889 
Q 3016 1369 3016 2328 
Q 3016 3291 2770 3770 
Q 2525 4250 2034 4250 
z
M 2034 4750 
Q 2819 4750 3233 4129 
Q 3647 3509 3647 2328 
Q 3647 1150 3233 529 
Q 2819 -91 2034 -91 
Q 1250 -91 836 529 
Q 422 1150 422 2328 
Q 422 3509 836 4129 
Q 1250 4750 2034 4750 
z
" transform="scale(0.015625)"/>
       </defs>
       <use xlink:href="#DejaVuSans-32" transform="translate(0 0.78125)"/>
       <use xlink:href="#DejaVuSans-30" transform="translate(63.623047 0.78125)"/>
      </g>
     </g>
    </g>
    <g id="ytick_2">
     <g id="line2d_23">
      <path d="M 66.063673 198.636658 
L 493.042213 198.636658 
" clip-path="url(#p5b0f9a255e)" style="fill: none; stroke-dasharray: 1.85,0.8; stroke-dashoffset: 0; stroke: #1a1a1a; stroke-opacity: 0.25; stroke-width: 0.5"/>
     </g>
     <g id="line2d_24">
      <g>
       <use xlink:href="#mf83618efe0" x="493.042213" y="198.636658" style="fill: #262626; stroke: #262626; stroke-width: 0.5"/>
      </g>
     </g>
     <g id="text_7">
      <!-- $\mathdefault{30}$ -->
      <g style="fill: #262626" transform="translate(48.483673 202.815798) scale(0.11 -0.11)">
       <defs>
        <path id="DejaVuSans-33" d="M 2597 2516 
Q 3050 2419 3304 2112 
Q 3559 1806 3559 1356 
Q 3559 666 3084 287 
Q 2609 -91 1734 -91 
Q 1441 -91 1130 -33 
Q 819 25 488 141 
L 488 750 
Q 750 597 1062 519 
Q 1375 441 1716 441 
Q 2309 441 2620 675 
Q 2931 909 2931 1356 
Q 2931 1769 2642 2001 
Q 2353 2234 1838 2234 
L 1294 2234 
L 1294 2753 
L 1863 2753 
Q 2328 2753 2575 2939 
Q 2822 3125 2822 3475 
Q 2822 3834 2567 4026 
Q 2313 4219 1838 4219 
Q 1578 4219 1281 4162 
Q 984 4106 628 3988 
L 628 4550 
Q 988 4650 1302 4700 
Q 1616 4750 1894 4750 
Q 2613 4750 3031 4423 
Q 3450 4097 3450 3541 
Q 3450 3153 3228 2886 
Q 3006 2619 2597 2516 
z
" transform="scale(0.015625)"/>
       </defs>
       <use xlink:href="#DejaVuSans-33" transform="translate(0 0.78125)"/>
       <use xlink:href="#DejaVuSans-30" transform="translate(63.623047 0.78125)"/>
      </g>
     </g>
    </g>
    <g id="ytick_3">
     <g id="line2d_25">
      <path d="M 66.063673 152.22249 
L 493.042213 152.22249 
" clip-path="url(#p5b0f9a255e)" style="fill: none; stroke-dasharray: 1.85,0.8; stroke-dashoffset: 0; stroke: #1a1a1a; stroke-opacity: 0.25; stroke-width: 0.5"/>
     </g>
     <g id="line2d_26">
      <g>
       <use xlink:href="#mf83618efe0" x="493.042213" y="152.22249" style="fill: #262626; stroke: #262626; stroke-width: 0.5"/>
      </g>
     </g>
     <g id="text_8">
      <!-- $\mathdefault{40}$ -->
      <g style="fill: #262626" transform="translate(48.483673 156.40163) scale(0.11 -0.11)">
       <defs>
        <path id="DejaVuSans-34" d="M 2419 4116 
L 825 1625 
L 2419 1625 
L 2419 4116 
z
M 2253 4666 
L 3047 4666 
L 3047 1625 
L 3713 1625 
L 3713 1100 
L 3047 1100 
L 3047 0 
L 2419 0 
L 2419 1100 
L 313 1100 
L 313 1709 
L 2253 4666 
z
" transform="scale(0.015625)"/>
       </defs>
       <use xlink:href="#DejaVuSans-34" transform="translate(0 0.78125)"/>
       <use xlink:href="#DejaVuSans-30" transform="translate(63.623047 0.78125)"/>
      </g>
     </g>
    </g>
    <g id="ytick_4">
     <g id="line2d_27">
      <path d="M 66.063673 105.808322 
L 493.042213 105.808322 
" clip-path="url(#p5b0f9a255e)" style="fill: none; stroke-dasharray: 1.85,0.8; stroke-dashoffset: 0; stroke: #1a1a1a; stroke-opacity: 0.25; stroke-width: 0.5"/>
     </g>
     <g id="line2d_28">
      <g>
       <use xlink:href="#mf83618efe0" x="493.042213" y="105.808322" style="fill: #262626; stroke: #262626; stroke-width: 0.5"/>
      </g>
     </g>
     <g id="text_9">
      <!-- $\mathdefault{50}$ -->
      <g style="fill: #262626" transform="translate(48.483673 109.987462) scale(0.11 -0.11)">
       <defs>
        <path id="DejaVuSans-35" d="M 691 4666 
L 3169 4666 
L 3169 4134 
L 1269 4134 
L 1269 2991 
Q 1406 3038 1543 3061 
Q 1681 3084 1819 3084 
Q 2600 3084 3056 2656 
Q 3513 2228 3513 1497 
Q 3513 744 3044 326 
Q 2575 -91 1722 -91 
Q 1428 -91 1123 -41 
Q 819 9 494 109 
L 494 744 
Q 775 591 1075 516 
Q 1375 441 1709 441 
Q 2250 441 2565 725 
Q 2881 1009 2881 1497 
Q 2881 1984 2565 2268 
Q 2250 2553 1709 2553 
Q 1456 2553 1204 2497 
Q 953 2441 691 2322 
L 691 4666 
z
" transform="scale(0.015625)"/>
       </defs>
       <use xlink:href="#DejaVuSans-35" transform="translate(0 0.78125)"/>
       <use xlink:href="#DejaVuSans-30" transform="translate(63.623047 0.78125)"/>
      </g>
     </g>
    </g>
    <g id="ytick_5">
     <g id="line2d_29">
      <path d="M 66.063673 59.394153 
L 493.042213 59.394153 
" clip-path="url(#p5b0f9a255e)" style="fill: none; stroke-dasharray: 1.85,0.8; stroke-dashoffset: 0; stroke: #1a1a1a; stroke-opacity: 0.25; stroke-width: 0.5"/>
     </g>
     <g id="line2d_30">
      <g>
       <use xlink:href="#mf83618efe0" x="493.042213" y="59.394153" style="fill: #262626; stroke: #262626; stroke-width: 0.5"/>
      </g>
     </g>
     <g id="text_10">
      <!-- $\mathdefault{60}$ -->
      <g style="fill: #262626" transform="translate(48.483673 63.573294) scale(0.11 -0.11)">
       <defs>
        <path id="DejaVuSans-36" d="M 2113 2584 
Q 1688 2584 1439 2293 
Q 1191 2003 1191 1497 
Q 1191 994 1439 701 
Q 1688 409 2113 409 
Q 2538 409 2786 701 
Q 3034 994 3034 1497 
Q 3034 2003 2786 2293 
Q 2538 2584 2113 2584 
z
M 3366 4563 
L 3366 3988 
Q 3128 4100 2886 4159 
Q 2644 4219 2406 4219 
Q 1781 4219 1451 3797 
Q 1122 3375 1075 2522 
Q 1259 2794 1537 2939 
Q 1816 3084 2150 3084 
Q 2853 3084 3261 2657 
Q 3669 2231 3669 1497 
Q 3669 778 3244 343 
Q 2819 -91 2113 -91 
Q 1303 -91 875 529 
Q 447 1150 447 2328 
Q 447 3434 972 4092 
Q 1497 4750 2381 4750 
Q 2619 4750 2861 4703 
Q 3103 4656 3366 4563 
z
" transform="scale(0.015625)"/>
       </defs>
       <use xlink:href="#DejaVuSans-36" transform="translate(0 0.78125)"/>
       <use xlink:href="#DejaVuSans-30" transform="translate(63.623047 0.78125)"/>
      </g>
     </g>
    </g>
    <g id="ytick_6">
     <g id="line2d_31">
      <defs>
       <path id="m5960dce008" d="M 0 0 
L -1.5 0 
" style="stroke: #262626; stroke-width: 0.5"/>
      </defs>
      <g>
       <use xlink:href="#m5960dce008" x="493.042213" y="282.18216" style="fill: #262626; stroke: #262626; stroke-width: 0.5"/>
      </g>
     </g>
    </g>
    <g id="ytick_7">
     <g id="line2d_32">
      <g>
       <use xlink:href="#m5960dce008" x="493.042213" y="272.899327" style="fill: #262626; stroke: #262626; stroke-width: 0.5"/>
      </g>
     </g>
    </g>
    <g id="ytick_8">
     <g id="line2d_33">
      <g>
       <use xlink:href="#m5960dce008" x="493.042213" y="263.616493" style="fill: #262626; stroke: #262626; stroke-width: 0.5"/>
      </g>
     </g>
    </g>
    <g id="ytick_9">
     <g id="line2d_34">
      <g>
       <use xlink:href="#m5960dce008" x="493.042213" y="254.33366" style="fill: #262626; stroke: #262626; stroke-width: 0.5"/>
      </g>
     </g>
    </g>
    <g id="ytick_10">
     <g id="line2d_35">
      <g>
       <use xlink:href="#m5960dce008" x="493.042213" y="235.767992" style="fill: #262626; stroke: #262626; stroke-width: 0.5"/>
      </g>
     </g>
    </g>
    <g id="ytick_11">
     <g id="line2d_36">
      <g>
       <use xlink:href="#m5960dce008" x="493.042213" y="226.485159" style="fill: #262626; stroke: #262626; stroke-width: 0.5"/>
      </g>
     </g>
    </g>
    <g id="ytick_12">
     <g id="line2d_37">
      <g>
       <use xlink:href="#m5960dce008" x="493.042213" y="217.202325" style="fill: #262626; stroke: #262626; stroke-width: 0.5"/>
      </g>
     </g>
    </g>
    <g id="ytick_13">
     <g id="line2d_38">
      <g>
       <use xlink:href="#m5960dce008" x="493.042213" y="207.919491" style="fill: #262626; stroke: #262626; stroke-width: 0.5"/>
      </g>
     </g>
    </g>
    <g id="ytick_14">
     <g id="line2d_39">
      <g>
       <use xlink:href="#m5960dce008" x="493.042213" y="189.353824" style="fill: #262626; stroke: #262626; stroke-width: 0.5"/>
      </g>
     </g>
    </g>
    <g id="ytick_15">
     <g id="line2d_40">
      <g>
       <use xlink:href="#m5960dce008" x="493.042213" y="180.070991" style="fill: #262626; stroke: #262626; stroke-width: 0.5"/>
      </g>
     </g>
    </g>
    <g id="ytick_16">
     <g id="line2d_41">
      <g>
       <use xlink:href="#m5960dce008" x="493.042213" y="170.788157" style="fill: #262626; stroke: #262626; stroke-width: 0.5"/>
      </g>
     </g>
    </g>
    <g id="ytick_17">
     <g id="line2d_42">
      <g>
       <use xlink:href="#m5960dce008" x="493.042213" y="161.505323" style="fill: #262626; stroke: #262626; stroke-width: 0.5"/>
      </g>
     </g>
    </g>
    <g id="ytick_18">
     <g id="line2d_43">
      <g>
       <use xlink:href="#m5960dce008" x="493.042213" y="142.939656" style="fill: #262626; stroke: #262626; stroke-width: 0.5"/>
      </g>
     </g>
    </g>
    <g id="ytick_19">
     <g id="line2d_44">
      <g>
       <use xlink:href="#m5960dce008" x="493.042213" y="133.656822" style="fill: #262626; stroke: #262626; stroke-width: 0.5"/>
      </g>
     </g>
    </g>
    <g id="ytick_20">
     <g id="line2d_45">
      <g>
       <use xlink:href="#m5960dce008" x="493.042213" y="124.373989" style="fill: #262626; stroke: #262626; stroke-width: 0.5"/>
      </g>
     </g>
    </g>
    <g id="ytick_21">
     <g id="line2d_46">
      <g>
       <use xlink:href="#m5960dce008" x="493.042213" y="115.091155" style="fill: #262626; stroke: #262626; stroke-width: 0.5"/>
      </g>
     </g>
    </g>
    <g id="ytick_22">
     <g id="line2d_47">
      <g>
       <use xlink:href="#m5960dce008" x="493.042213" y="96.525488" style="fill: #262626; stroke: #262626; stroke-width: 0.5"/>
      </g>
     </g>
    </g>
    <g id="ytick_23">
     <g id="line2d_48">
      <g>
       <use xlink:href="#m5960dce008" x="493.042213" y="87.242654" style="fill: #262626; stroke: #262626; stroke-width: 0.5"/>
      </g>
     </g>
    </g>
    <g id="ytick_24">
     <g id="line2d_49">
      <g>
       <use xlink:href="#m5960dce008" x="493.042213" y="77.959821" style="fill: #262626; stroke: #262626; stroke-width: 0.5"/>
      </g>
     </g>
    </g>
    <g id="ytick_25">
     <g id="line2d_50">
      <g>
       <use xlink:href="#m5960dce008" x="493.042213" y="68.676987" style="fill: #262626; stroke: #262626; stroke-width: 0.5"/>
      </g>
     </g>
    </g>
    <g id="ytick_26">
     <g id="line2d_51">
      <g>
       <use xlink:href="#m5960dce008" x="493.042213" y="50.11132" style="fill: #262626; stroke: #262626; stroke-width: 0.5"/>
      </g>
     </g>
    </g>
    <g id="ytick_27">
     <g id="line2d_52">
      <g>
       <use xlink:href="#m5960dce008" x="493.042213" y="40.828486" style="fill: #262626; stroke: #262626; stroke-width: 0.5"/>
      </g>
     </g>
    </g>
    <g id="ytick_28">
     <g id="line2d_53">
      <g>
       <use xlink:href="#m5960dce008" x="493.042213" y="31.545652" style="fill: #262626; stroke: #262626; stroke-width: 0.5"/>
      </g>
     </g>
    </g>
    <g id="ytick_29">
     <g id="line2d_54">
      <g>
       <use xlink:href="#m5960dce008" x="493.042213" y="22.262819" style="fill: #262626; stroke: #262626; stroke-width: 0.5"/>
      </g>
     </g>
    </g>
    <g id="text_11">
     <!-- Age (years) -->
     <g style="fill: #262626" transform="translate(41.988048 186.92874) rotate(-90) scale(0.12 -0.12)">
      <defs>
       <path id="DejaVuSans-41" d="M 2188 4044 
L 1331 1722 
L 3047 1722 
L 2188 4044 
z
M 1831 4666 
L 2547 4666 
L 4325 0 
L 3669 0 
L 3244 1197 
L 1141 1197 
L 716 0 
L 50 0 
L 1831 4666 
z
" transform="scale(0.015625)"/>
       <path id="DejaVuSans-67" d="M 2906 1791 
Q 2906 2416 2648 2759 
Q 2391 3103 1925 3103 
Q 1463 3103 1205 2759 
Q 947 2416 947 1791 
Q 947 1169 1205 825 
Q 1463 481 1925 481 
Q 2391 481 2648 825 
Q 2906 1169 2906 1791 
z
M 3481 434 
Q 3481 -459 3084 -895 
Q 2688 -1331 1869 -1331 
Q 1566 -1331 1297 -1286 
Q 1028 -1241 775 -1147 
L 775 -588 
Q 1028 -725 1275 -790 
Q 1522 -856 1778 -856 
Q 2344 -856 2625 -561 
Q 2906 -266 2906 331 
L 2906 616 
Q 2728 306 2450 153 
Q 2172 0 1784 0 
Q 1141 0 747 490 
Q 353 981 353 1791 
Q 353 2603 747 3093 
Q 1141 3584 1784 3584 
Q 2172 3584 2450 3431 
Q 2728 3278 2906 2969 
L 2906 3500 
L 3481 3500 
L 3481 434 
z
" transform="scale(0.015625)"/>
       <path id="DejaVuSans-28" d="M 1984 4856 
Q 1566 4138 1362 3434 
Q 1159 2731 1159 2009 
Q 1159 1288 1364 580 
Q 1569 -128 1984 -844 
L 1484 -844 
Q 1016 -109 783 600 
Q 550 1309 550 2009 
Q 550 2706 781 3412 
Q 1013 4119 1484 4856 
L 1984 4856 
z
" transform="scale(0.015625)"/>
       <path id="DejaVuSans-29" d="M 513 4856 
L 1013 4856 
Q 1481 4119 1714 3412 
Q 1947 2706 1947 2009 
Q 1947 1309 1714 600 
Q 1481 -109 1013 -844 
L 513 -844 
Q 928 -128 1133 580 
Q 1338 1288 1338 2009 
Q 1338 2731 1133 3434 
Q 928 4138 513 4856 
z
" transform="scale(0.015625)"/>
      </defs>
      <use xlink:href="#DejaVuSans-41"/>
      <use xlink:href="#DejaVuSans-67" transform="translate(68.408203 0)"/>
      <use xlink:href="#DejaVuSans-65" transform="translate(131.884766 0)"/>
      <use xlink:href="#DejaVuSans-20" transform="translate(193.408203 0)"/>
      <use xlink:href="#DejaVuSans-28" transform="translate(225.195312 0)"/>
      <use xlink:href="#DejaVuSans-79" transform="translate(264.208984 0)"/>
      <use xlink:href="#DejaVuSans-65" transform="translate(323.388672 0)"/>
      <use xlink:href="#DejaVuSans-61" transform="translate(384.912109 0)"/>
      <use xlink:href="#DejaVuSans-72" transform="translate(446.191406 0)"/>
      <use xlink:href="#DejaVuSans-73" transform="translate(487.304688 0)"/>
      <use xlink:href="#DejaVuSans-29" transform="translate(539.404297 0)"/>
     </g>
    </g>
   </g>
   <g id="FillBetweenPolyCollection_1">
    <defs>
     <path id="m17c76ab80d" d="M 153.828044 -68.405965 
L 85.043937 -68.405965 
L 81.623132 -69.624922 
L 79.081707 -70.84388 
L 77.475793 -72.062838 
L 76.744495 -73.281796 
L 76.738136 -74.500754 
L 77.265743 -75.719712 
L 78.148278 -76.93867 
L 79.262266 -78.157628 
L 80.561399 -79.376586 
L 82.070965 -80.595544 
L 83.858934 -81.814502 
L 85.995193 -83.03346 
L 88.513519 -84.252418 
L 91.388533 -85.471376 
L 94.5333 -86.690334 
L 97.815482 -87.909292 
L 101.084225 -89.12825 
L 104.198051 -90.347208 
L 107.045916 -91.566166 
L 109.5576 -92.785124 
L 111.703715 -94.004082 
L 113.488415 -95.223039 
L 114.938781 -96.441997 
L 116.094317 -97.660955 
L 116.998652 -98.879913 
L 117.694173 -100.098871 
L 118.219288 -101.317829 
L 118.607549 -102.536787 
L 118.887757 -103.755745 
L 119.084405 -104.974703 
L 119.21809 -106.193661 
L 119.305809 -107.412619 
L 119.361186 -108.631577 
L 119.394731 -109.850535 
L 119.414182 -111.069493 
L 119.42496 -112.288451 
L 119.430659 -113.507409 
L 119.43353 -114.726367 
L 119.434907 -115.945325 
L 119.435536 -117.164283 
L 119.435809 -118.383241 
L 119.435921 -119.602198 
L 119.435965 -120.821156 
L 119.435982 -122.040114 
L 119.435988 -123.259072 
L 119.43599 -124.47803 
L 119.43599 -125.696988 
L 119.43599 -126.915946 
L 119.43599 -128.134904 
L 119.43599 -129.353862 
L 119.43599 -130.57282 
L 119.43599 -131.791778 
L 119.43599 -133.010736 
L 119.43599 -134.229694 
L 119.43599 -135.448652 
L 119.43599 -136.66761 
L 119.43599 -137.886568 
L 119.43599 -139.105526 
L 119.43599 -140.324484 
L 119.43599 -141.543442 
L 119.43599 -142.7624 
L 119.43599 -143.981358 
L 119.43599 -145.200315 
L 119.43599 -146.419273 
L 119.43599 -147.638231 
L 119.43599 -148.857189 
L 119.43599 -150.076147 
L 119.43599 -151.295105 
L 119.43599 -152.514063 
L 119.43599 -153.733021 
L 119.43599 -154.951979 
L 119.43599 -156.170937 
L 119.43599 -157.389895 
L 119.43599 -158.608853 
L 119.43599 -159.827811 
L 119.435989 -161.046769 
L 119.435987 -162.265727 
L 119.435981 -163.484685 
L 119.435962 -164.703643 
L 119.435914 -165.922601 
L 119.435793 -167.141559 
L 119.435507 -168.360517 
L 119.434865 -169.579474 
L 119.433502 -170.798432 
L 119.430763 -172.01739 
L 119.425557 -173.236348 
L 119.416204 -174.455306 
L 119.400342 -175.674264 
L 119.374967 -176.893222 
L 119.336745 -178.11218 
L 119.282636 -179.331138 
L 119.210854 -180.550096 
L 119.121967 -181.769054 
L 119.019845 -182.988012 
L 118.912033 -184.20697 
L 118.809215 -185.425928 
L 118.723637 -186.644886 
L 118.666779 -187.863844 
L 118.646836 -189.082802 
L 120.225145 -189.082802 
L 120.225145 -189.082802 
L 120.205202 -187.863844 
L 120.148344 -186.644886 
L 120.062766 -185.425928 
L 119.959947 -184.20697 
L 119.852136 -182.988012 
L 119.750014 -181.769054 
L 119.661127 -180.550096 
L 119.589345 -179.331138 
L 119.535236 -178.11218 
L 119.497014 -176.893222 
L 119.471639 -175.674264 
L 119.455777 -174.455306 
L 119.446424 -173.236348 
L 119.441218 -172.01739 
L 119.438479 -170.798432 
L 119.437116 -169.579474 
L 119.436474 -168.360517 
L 119.436188 -167.141559 
L 119.436067 -165.922601 
L 119.436019 -164.703643 
L 119.436 -163.484685 
L 119.435994 -162.265727 
L 119.435991 -161.046769 
L 119.435991 -159.827811 
L 119.43599 -158.608853 
L 119.43599 -157.389895 
L 119.43599 -156.170937 
L 119.43599 -154.951979 
L 119.43599 -153.733021 
L 119.43599 -152.514063 
L 119.43599 -151.295105 
L 119.43599 -150.076147 
L 119.43599 -148.857189 
L 119.43599 -147.638231 
L 119.43599 -146.419273 
L 119.43599 -145.200315 
L 119.43599 -143.981358 
L 119.43599 -142.7624 
L 119.43599 -141.543442 
L 119.43599 -140.324484 
L 119.43599 -139.105526 
L 119.43599 -137.886568 
L 119.43599 -136.66761 
L 119.43599 -135.448652 
L 119.43599 -134.229694 
L 119.43599 -133.010736 
L 119.43599 -131.791778 
L 119.43599 -130.57282 
L 119.43599 -129.353862 
L 119.43599 -128.134904 
L 119.43599 -126.915946 
L 119.435991 -125.696988 
L 119.435991 -124.47803 
L 119.435993 -123.259072 
L 119.435999 -122.040114 
L 119.436015 -120.821156 
L 119.43606 -119.602198 
L 119.436172 -118.383241 
L 119.436445 -117.164283 
L 119.437074 -115.945325 
L 119.438451 -114.726367 
L 119.441322 -113.507409 
L 119.44702 -112.288451 
L 119.457799 -111.069493 
L 119.47725 -109.850535 
L 119.510794 -108.631577 
L 119.566172 -107.412619 
L 119.653891 -106.193661 
L 119.787576 -104.974703 
L 119.984223 -103.755745 
L 120.264432 -102.536787 
L 120.652693 -101.317829 
L 121.177808 -100.098871 
L 121.873328 -98.879913 
L 122.777664 -97.660955 
L 123.9332 -96.441997 
L 125.383566 -95.223039 
L 127.168266 -94.004082 
L 129.314381 -92.785124 
L 131.826065 -91.566166 
L 134.67393 -90.347208 
L 137.787756 -89.12825 
L 141.056499 -87.909292 
L 144.338681 -86.690334 
L 147.483447 -85.471376 
L 150.358461 -84.252418 
L 152.876788 -83.03346 
L 155.013047 -81.814502 
L 156.801016 -80.595544 
L 158.310582 -79.376586 
L 159.609715 -78.157628 
L 160.723702 -76.93867 
L 161.606238 -75.719712 
L 162.133844 -74.500754 
L 162.127485 -73.281796 
L 161.396188 -72.062838 
L 159.790274 -70.84388 
L 157.248849 -69.624922 
L 153.828044 -68.405965 
z
" style="stroke: #343434; stroke-width: 1.25"/>
    </defs>
    <g clip-path="url(#p5b0f9a255e)">
     <use xlink:href="#m17c76ab80d" x="0" y="341.305291" style="fill: #df2020; stroke: #343434; stroke-width: 1.25"/>
    </g>
   </g>
   <g id="FillBetweenPolyCollection_2">
    <defs>
     <path id="m3fb27ddc08" d="M 234.465509 -82.330215 
L 217.895742 -82.330215 
L 215.667362 -84.252418 
L 213.075443 -86.174621 
L 210.128338 -88.096824 
L 206.858965 -90.019027 
L 203.331085 -91.94123 
L 199.644243 -93.863433 
L 195.935541 -95.785635 
L 192.376289 -97.707838 
L 189.162181 -99.630041 
L 186.496814 -101.552244 
L 184.570029 -103.474447 
L 183.534209 -105.39665 
L 183.482771 -107.318853 
L 184.435195 -109.241056 
L 186.331938 -111.163259 
L 189.040595 -113.085462 
L 192.372301 -115.007665 
L 196.105247 -116.929868 
L 200.010892 -118.852071 
L 203.878282 -120.774273 
L 207.532776 -122.696476 
L 210.847093 -124.618679 
L 213.744367 -126.540882 
L 216.194421 -128.463085 
L 218.205383 -130.385288 
L 219.813019 -132.307491 
L 221.069904 -134.229694 
L 222.03592 -136.151897 
L 222.770895 -138.0741 
L 223.329601 -139.996303 
L 223.758904 -141.918506 
L 224.096639 -143.840709 
L 224.371717 -145.762911 
L 224.604986 -147.685114 
L 224.810492 -149.607317 
L 224.996862 -151.52952 
L 225.168653 -153.451723 
L 225.327561 -155.373926 
L 225.473468 -157.296129 
L 225.605293 -159.218332 
L 225.721644 -161.140535 
L 225.821271 -163.062738 
L 225.903318 -164.984941 
L 225.9674 -166.907144 
L 226.013538 -168.829347 
L 226.042012 -170.751549 
L 226.053203 -172.673752 
L 226.047471 -174.595955 
L 226.02513 -176.518158 
L 225.986525 -178.440361 
L 225.932191 -180.362564 
L 225.86305 -182.284767 
L 225.780586 -184.20697 
L 225.686931 -186.129173 
L 225.584831 -188.051376 
L 225.477492 -189.973579 
L 225.368336 -191.895782 
L 225.26073 -193.817985 
L 225.157763 -195.740187 
L 225.062095 -197.66239 
L 224.975897 -199.584593 
L 224.900839 -201.506796 
L 224.83807 -203.428999 
L 224.788133 -205.351202 
L 224.750834 -207.273405 
L 224.725089 -209.195608 
L 224.708872 -211.117811 
L 224.699353 -213.040014 
L 224.693304 -214.962217 
L 224.687738 -216.88442 
L 224.680677 -218.806623 
L 224.671846 -220.728825 
L 224.663071 -222.651028 
L 224.658228 -224.573231 
L 224.66269 -226.495434 
L 224.68234 -228.417637 
L 224.72239 -230.33984 
L 224.786244 -232.262043 
L 224.874691 -234.184246 
L 224.985596 -236.106449 
L 225.114134 -238.028652 
L 225.253488 -239.950855 
L 225.395843 -241.873058 
L 225.533422 -243.795261 
L 225.659393 -245.717463 
L 225.768484 -247.639666 
L 225.857272 -249.561869 
L 225.924176 -251.484072 
L 225.969248 -253.406275 
L 225.993866 -255.328478 
L 226.000424 -257.250681 
L 225.992076 -259.172884 
L 225.972525 -261.095087 
L 225.945847 -263.01729 
L 225.916284 -264.939493 
L 225.888003 -266.861696 
L 225.864782 -268.783899 
L 225.849682 -270.706101 
L 225.844754 -272.628304 
L 226.516497 -272.628304 
L 226.516497 -272.628304 
L 226.511569 -270.706101 
L 226.496469 -268.783899 
L 226.473248 -266.861696 
L 226.444967 -264.939493 
L 226.415404 -263.01729 
L 226.388725 -261.095087 
L 226.369175 -259.172884 
L 226.360827 -257.250681 
L 226.367385 -255.328478 
L 226.392003 -253.406275 
L 226.437075 -251.484072 
L 226.503979 -249.561869 
L 226.592767 -247.639666 
L 226.701858 -245.717463 
L 226.827829 -243.795261 
L 226.965408 -241.873058 
L 227.107763 -239.950855 
L 227.247117 -238.028652 
L 227.375654 -236.106449 
L 227.48656 -234.184246 
L 227.575007 -232.262043 
L 227.638861 -230.33984 
L 227.67891 -228.417637 
L 227.698561 -226.495434 
L 227.703022 -224.573231 
L 227.69818 -222.651028 
L 227.689405 -220.728825 
L 227.680574 -218.806623 
L 227.673513 -216.88442 
L 227.667947 -214.962217 
L 227.661898 -213.040014 
L 227.652379 -211.117811 
L 227.636162 -209.195608 
L 227.610417 -207.273405 
L 227.573118 -205.351202 
L 227.523181 -203.428999 
L 227.460411 -201.506796 
L 227.385354 -199.584593 
L 227.299156 -197.66239 
L 227.203488 -195.740187 
L 227.100521 -193.817985 
L 226.992915 -191.895782 
L 226.883759 -189.973579 
L 226.77642 -188.051376 
L 226.67432 -186.129173 
L 226.580665 -184.20697 
L 226.498201 -182.284767 
L 226.42906 -180.362564 
L 226.374725 -178.440361 
L 226.336121 -176.518158 
L 226.31378 -174.595955 
L 226.308048 -172.673752 
L 226.319239 -170.751549 
L 226.347713 -168.829347 
L 226.393851 -166.907144 
L 226.457932 -164.984941 
L 226.53998 -163.062738 
L 226.639607 -161.140535 
L 226.755958 -159.218332 
L 226.887783 -157.296129 
L 227.03369 -155.373926 
L 227.192598 -153.451723 
L 227.364388 -151.52952 
L 227.550759 -149.607317 
L 227.756265 -147.685114 
L 227.989534 -145.762911 
L 228.264612 -143.840709 
L 228.602347 -141.918506 
L 229.03165 -139.996303 
L 229.590355 -138.0741 
L 230.325331 -136.151897 
L 231.291347 -134.229694 
L 232.548232 -132.307491 
L 234.155868 -130.385288 
L 236.166829 -128.463085 
L 238.616884 -126.540882 
L 241.514158 -124.618679 
L 244.828474 -122.696476 
L 248.482969 -120.774273 
L 252.350359 -118.852071 
L 256.256004 -116.929868 
L 259.98895 -115.007665 
L 263.320655 -113.085462 
L 266.029313 -111.163259 
L 267.926056 -109.241056 
L 268.878479 -107.318853 
L 268.827042 -105.39665 
L 267.791222 -103.474447 
L 265.864437 -101.552244 
L 263.19907 -99.630041 
L 259.984962 -97.707838 
L 256.42571 -95.785635 
L 252.717008 -93.863433 
L 249.030166 -91.94123 
L 245.502286 -90.019027 
L 242.232913 -88.096824 
L 239.285808 -86.174621 
L 236.693889 -84.252418 
L 234.465509 -82.330215 
z
" style="stroke: #343434; stroke-width: 1.25"/>
    </defs>
    <g clip-path="url(#p5b0f9a255e)">
     <use xlink:href="#m3fb27ddc08" x="0" y="341.305291" style="fill: #2f7e2f; stroke: #343434; stroke-width: 1.25"/>
    </g>
   </g>
   <g id="FillBetweenPolyCollection_3">
    <defs>
     <path id="m6df44dc8bc" d="M 345.726662 -105.537299 
L 320.123859 -105.537299 
L 318.688609 -107.131321 
L 317.176753 -108.725343 
L 315.595868 -110.319365 
L 313.95522 -111.913387 
L 312.265715 -113.507409 
L 310.539821 -115.101431 
L 308.79143 -116.695453 
L 307.035673 -118.289475 
L 305.28868 -119.883496 
L 303.567304 -121.477518 
L 301.888791 -123.07154 
L 300.270427 -124.665562 
L 298.729149 -126.259584 
L 297.28115 -127.853606 
L 295.941477 -129.447628 
L 294.723634 -131.04165 
L 293.639219 -132.635672 
L 292.697579 -134.229694 
L 291.905528 -135.823716 
L 291.267113 -137.417738 
L 290.783458 -139.01176 
L 290.452684 -140.605782 
L 290.26992 -142.199804 
L 290.227406 -143.793826 
L 290.314697 -145.387847 
L 290.518956 -146.981869 
L 290.82535 -148.575891 
L 291.217517 -150.169913 
L 291.678106 -151.763935 
L 292.189368 -153.357957 
L 292.733765 -154.951979 
L 293.294585 -156.546001 
L 293.856522 -158.140023 
L 294.406199 -159.734045 
L 294.932598 -161.328067 
L 295.427384 -162.922089 
L 295.88509 -164.516111 
L 296.303163 -166.110133 
L 296.68186 -167.704155 
L 297.023996 -169.298177 
L 297.33457 -170.892198 
L 297.620286 -172.48622 
L 297.888988 -174.080242 
L 298.149066 -175.674264 
L 298.408853 -177.268286 
L 298.676058 -178.862308 
L 298.957271 -180.45633 
L 299.257569 -182.050352 
L 299.580242 -183.644374 
L 299.926661 -185.238396 
L 300.29628 -186.832418 
L 300.686787 -188.42644 
L 301.094359 -190.020462 
L 301.514029 -191.614484 
L 301.940116 -193.208506 
L 302.366697 -194.802527 
L 302.78808 -196.396549 
L 303.199254 -197.990571 
L 303.596281 -199.584593 
L 303.976608 -201.178615 
L 304.339281 -202.772637 
L 304.685052 -204.366659 
L 305.016376 -205.960681 
L 305.337293 -207.554703 
L 305.653219 -209.148725 
L 305.970649 -210.742747 
L 306.296799 -212.336769 
L 306.639206 -213.930791 
L 307.005309 -215.524813 
L 307.402037 -217.118835 
L 307.835431 -218.712857 
L 308.310307 -220.306878 
L 308.829997 -221.9009 
L 309.396162 -223.494922 
L 310.008699 -225.088944 
L 310.66574 -226.682966 
L 311.363739 -228.276988 
L 312.097649 -229.87101 
L 312.861165 -231.465032 
L 313.647035 -233.059054 
L 314.447399 -234.653076 
L 315.254161 -236.247098 
L 316.059353 -237.84112 
L 316.855484 -239.435142 
L 317.635845 -241.029164 
L 318.39477 -242.623186 
L 319.127817 -244.217208 
L 319.831884 -245.811229 
L 320.505244 -247.405251 
L 321.147498 -248.999273 
L 321.759461 -250.593295 
L 322.342985 -252.187317 
L 322.90073 -253.781339 
L 323.435905 -255.375361 
L 323.951995 -256.969383 
L 324.452489 -258.563405 
L 324.940624 -260.157427 
L 325.419175 -261.751449 
L 325.890278 -263.345471 
L 339.960243 -263.345471 
L 339.960243 -263.345471 
L 340.431346 -261.751449 
L 340.909897 -260.157427 
L 341.398032 -258.563405 
L 341.898526 -256.969383 
L 342.414616 -255.375361 
L 342.949791 -253.781339 
L 343.507536 -252.187317 
L 344.09106 -250.593295 
L 344.703023 -248.999273 
L 345.345277 -247.405251 
L 346.018637 -245.811229 
L 346.722704 -244.217208 
L 347.455751 -242.623186 
L 348.214676 -241.029164 
L 348.995037 -239.435142 
L 349.791168 -237.84112 
L 350.59636 -236.247098 
L 351.403122 -234.653076 
L 352.203486 -233.059054 
L 352.989356 -231.465032 
L 353.752872 -229.87101 
L 354.486782 -228.276988 
L 355.184781 -226.682966 
L 355.841822 -225.088944 
L 356.454359 -223.494922 
L 357.020524 -221.9009 
L 357.540214 -220.306878 
L 358.01509 -218.712857 
L 358.448484 -217.118835 
L 358.845212 -215.524813 
L 359.211315 -213.930791 
L 359.553722 -212.336769 
L 359.879872 -210.742747 
L 360.197302 -209.148725 
L 360.513228 -207.554703 
L 360.834145 -205.960681 
L 361.165469 -204.366659 
L 361.51124 -202.772637 
L 361.873913 -201.178615 
L 362.25424 -199.584593 
L 362.651267 -197.990571 
L 363.062441 -196.396549 
L 363.483824 -194.802527 
L 363.910405 -193.208506 
L 364.336492 -191.614484 
L 364.756162 -190.020462 
L 365.163734 -188.42644 
L 365.554241 -186.832418 
L 365.92386 -185.238396 
L 366.270278 -183.644374 
L 366.592952 -182.050352 
L 366.89325 -180.45633 
L 367.174463 -178.862308 
L 367.441668 -177.268286 
L 367.701455 -175.674264 
L 367.961533 -174.080242 
L 368.230235 -172.48622 
L 368.515951 -170.892198 
L 368.826525 -169.298177 
L 369.168661 -167.704155 
L 369.547358 -166.110133 
L 369.965431 -164.516111 
L 370.423137 -162.922089 
L 370.917923 -161.328067 
L 371.444322 -159.734045 
L 371.993999 -158.140023 
L 372.555936 -156.546001 
L 373.116756 -154.951979 
L 373.661153 -153.357957 
L 374.172415 -151.763935 
L 374.633004 -150.169913 
L 375.025171 -148.575891 
L 375.331565 -146.981869 
L 375.535824 -145.387847 
L 375.623115 -143.793826 
L 375.580601 -142.199804 
L 375.397837 -140.605782 
L 375.067063 -139.01176 
L 374.583408 -137.417738 
L 373.944993 -135.823716 
L 373.152942 -134.229694 
L 372.211302 -132.635672 
L 371.126887 -131.04165 
L 369.909044 -129.447628 
L 368.56937 -127.853606 
L 367.121372 -126.259584 
L 365.580094 -124.665562 
L 363.96173 -123.07154 
L 362.283217 -121.477518 
L 360.561841 -119.883496 
L 358.814848 -118.289475 
L 357.05909 -116.695453 
L 355.3107 -115.101431 
L 353.584806 -113.507409 
L 351.895301 -111.913387 
L 350.254653 -110.319365 
L 348.673768 -108.725343 
L 347.161912 -107.131321 
L 345.726662 -105.537299 
z
" style="stroke: #343434; stroke-width: 1.25"/>
    </defs>
    <g clip-path="url(#p5b0f9a255e)">
     <use xlink:href="#m6df44dc8bc" x="0" y="341.305291" style="fill: #dfc120; stroke: #343434; stroke-width: 1.25"/>
    </g>
   </g>
   <g id="FillBetweenPolyCollection_4">
    <defs>
     <path id="mde445487a0" d="M 441.245487 -96.254465 
L 438.094304 -96.254465 
L 437.802448 -98.411083 
L 437.464543 -100.567701 
L 437.073575 -102.724319 
L 436.621783 -104.880937 
L 436.100881 -107.037555 
L 435.50244 -109.194173 
L 434.818454 -111.350791 
L 434.042108 -113.507409 
L 433.168706 -115.664027 
L 432.196716 -117.820645 
L 431.128803 -119.977262 
L 429.972731 -122.13388 
L 428.741948 -124.290498 
L 427.455709 -126.447116 
L 426.138616 -128.603734 
L 424.819509 -130.760352 
L 423.529747 -132.91697 
L 422.301004 -135.073588 
L 421.162789 -137.230206 
L 420.139966 -139.386824 
L 419.250571 -141.543442 
L 418.504185 -143.70006 
L 417.901082 -145.856677 
L 417.432214 -148.013295 
L 417.080039 -150.169913 
L 416.820032 -152.326531 
L 416.622666 -154.483149 
L 416.4556 -156.639767 
L 416.285819 -158.796385 
L 416.081527 -160.953003 
L 415.813672 -163.109621 
L 415.457087 -165.266239 
L 414.991288 -167.422857 
L 414.40103 -169.579474 
L 413.676749 -171.736092 
L 412.814955 -173.89271 
L 411.818607 -176.049328 
L 410.697427 -178.205946 
L 409.468052 -180.362564 
L 408.153866 -182.519182 
L 406.784383 -184.6758 
L 405.394067 -186.832418 
L 404.020545 -188.989036 
L 402.702294 -191.145654 
L 401.475947 -193.302272 
L 400.3735 -195.458889 
L 399.419723 -197.615507 
L 398.63012 -199.772125 
L 398.009756 -201.928743 
L 397.553143 -204.085361 
L 397.245286 -206.241979 
L 397.063814 -208.398597 
L 396.981964 -210.555215 
L 396.972042 -212.711833 
L 397.008927 -214.868451 
L 397.073127 -217.025069 
L 397.152975 -219.181687 
L 397.245651 -221.338304 
L 397.356917 -223.494922 
L 397.499606 -225.65154 
L 397.691144 -227.808158 
L 397.950472 -229.964776 
L 398.29489 -232.121394 
L 398.737265 -234.278012 
L 399.28404 -236.43463 
L 399.934287 -238.591248 
L 400.679877 -240.747866 
L 401.506678 -242.904484 
L 402.396495 -245.061101 
L 403.329408 -247.217719 
L 404.286112 -249.374337 
L 405.249901 -251.530955 
L 406.208063 -253.687573 
L 407.152541 -255.844191 
L 408.079877 -258.000809 
L 408.990574 -260.157427 
L 409.888055 -262.314045 
L 410.777472 -264.470663 
L 411.66457 -266.627281 
L 412.554783 -268.783899 
L 413.452642 -270.940516 
L 414.361531 -273.097134 
L 415.283727 -275.253752 
L 416.220634 -277.41037 
L 417.173095 -279.566988 
L 418.141686 -281.723606 
L 419.126896 -283.880224 
L 420.129166 -286.036842 
L 421.148792 -288.19346 
L 422.185705 -290.350078 
L 423.239193 -292.506696 
L 424.307618 -294.663314 
L 425.388164 -296.819931 
L 426.476673 -298.976549 
L 427.567562 -301.133167 
L 428.65386 -303.289785 
L 429.727353 -305.446403 
L 430.778825 -307.603021 
L 431.798412 -309.759639 
L 447.541379 -309.759639 
L 447.541379 -309.759639 
L 448.560966 -307.603021 
L 449.612438 -305.446403 
L 450.685931 -303.289785 
L 451.77223 -301.133167 
L 452.863118 -298.976549 
L 453.951627 -296.819931 
L 455.032173 -294.663314 
L 456.100598 -292.506696 
L 457.154086 -290.350078 
L 458.190999 -288.19346 
L 459.210625 -286.036842 
L 460.212895 -283.880224 
L 461.198105 -281.723606 
L 462.166696 -279.566988 
L 463.119157 -277.41037 
L 464.056064 -275.253752 
L 464.97826 -273.097134 
L 465.887149 -270.940516 
L 466.785008 -268.783899 
L 467.675221 -266.627281 
L 468.562319 -264.470663 
L 469.451736 -262.314045 
L 470.349217 -260.157427 
L 471.259914 -258.000809 
L 472.18725 -255.844191 
L 473.131728 -253.687573 
L 474.08989 -251.530955 
L 475.053679 -249.374337 
L 476.010383 -247.217719 
L 476.943296 -245.061101 
L 477.833113 -242.904484 
L 478.659914 -240.747866 
L 479.405504 -238.591248 
L 480.055751 -236.43463 
L 480.602526 -234.278012 
L 481.044901 -232.121394 
L 481.389319 -229.964776 
L 481.648647 -227.808158 
L 481.840185 -225.65154 
L 481.982875 -223.494922 
L 482.09414 -221.338304 
L 482.186816 -219.181687 
L 482.266664 -217.025069 
L 482.330864 -214.868451 
L 482.36775 -212.711833 
L 482.357827 -210.555215 
L 482.275977 -208.398597 
L 482.094505 -206.241979 
L 481.786648 -204.085361 
L 481.330035 -201.928743 
L 480.709671 -199.772125 
L 479.920069 -197.615507 
L 478.966291 -195.458889 
L 477.863844 -193.302272 
L 476.637497 -191.145654 
L 475.319246 -188.989036 
L 473.945724 -186.832418 
L 472.555408 -184.6758 
L 471.185926 -182.519182 
L 469.871739 -180.362564 
L 468.642364 -178.205946 
L 467.521184 -176.049328 
L 466.524836 -173.89271 
L 465.663042 -171.736092 
L 464.938761 -169.579474 
L 464.348503 -167.422857 
L 463.882704 -165.266239 
L 463.526119 -163.109621 
L 463.258264 -160.953003 
L 463.053972 -158.796385 
L 462.884191 -156.639767 
L 462.717125 -154.483149 
L 462.519759 -152.326531 
L 462.259752 -150.169913 
L 461.907577 -148.013295 
L 461.438709 -145.856677 
L 460.835606 -143.70006 
L 460.08922 -141.543442 
L 459.199825 -139.386824 
L 458.177002 -137.230206 
L 457.038787 -135.073588 
L 455.810044 -132.91697 
L 454.520282 -130.760352 
L 453.201175 -128.603734 
L 451.884082 -126.447116 
L 450.597843 -124.290498 
L 449.36706 -122.13388 
L 448.210988 -119.977262 
L 447.143075 -117.820645 
L 446.171085 -115.664027 
L 445.297683 -113.507409 
L 444.521337 -111.350791 
L 443.837352 -109.194173 
L 443.23891 -107.037555 
L 442.718008 -104.880937 
L 442.266216 -102.724319 
L 441.875248 -100.567701 
L 441.537343 -98.411083 
L 441.245487 -96.254465 
z
" style="stroke: #343434; stroke-width: 1.25"/>
    </defs>
    <g clip-path="url(#p5b0f9a255e)">
     <use xlink:href="#mde445487a0" x="0" y="341.305291" style="fill: #5573cd; stroke: #343434; stroke-width: 1.25"/>
    </g>
   </g>
   <g id="line2d_55">
    <path d="M 76.88513 268.25791 
L 161.986851 268.25791 
" clip-path="url(#p5b0f9a255e)" style="fill: none; stroke-dasharray: 1.5625,0.9375; stroke-dashoffset: 0; stroke: #343434; stroke-width: 1.25"/>
   </g>
   <g id="line2d_56">
    <path d="M 77.113549 265.937202 
L 161.758432 265.937202 
" clip-path="url(#p5b0f9a255e)" style="fill: none; stroke-dasharray: 3.125,1.25; stroke-dashoffset: 0; stroke: #343434; stroke-width: 1.25"/>
   </g>
   <g id="line2d_57">
    <path d="M 84.762736 258.975076 
L 154.109245 258.975076 
" clip-path="url(#p5b0f9a255e)" style="fill: none; stroke-dasharray: 1.5625,0.9375; stroke-dashoffset: 0; stroke: #343434; stroke-width: 1.25"/>
   </g>
   <g id="line2d_58">
    <path d="M 183.530446 235.767992 
L 268.830805 235.767992 
" clip-path="url(#p5b0f9a255e)" style="fill: none; stroke-dasharray: 1.5625,0.9375; stroke-dashoffset: 0; stroke: #343434; stroke-width: 1.25"/>
   </g>
   <g id="line2d_59">
    <path d="M 183.530446 235.767992 
L 268.830805 235.767992 
" clip-path="url(#p5b0f9a255e)" style="fill: none; stroke-dasharray: 3.125,1.25; stroke-dashoffset: 0; stroke: #343434; stroke-width: 1.25"/>
   </g>
   <g id="line2d_60">
    <path d="M 185.360436 231.126576 
L 267.000815 231.126576 
" clip-path="url(#p5b0f9a255e)" style="fill: none; stroke-dasharray: 1.5625,0.9375; stroke-dashoffset: 0; stroke: #343434; stroke-width: 1.25"/>
   </g>
   <g id="line2d_61">
    <path d="M 290.257416 198.636658 
L 375.593105 198.636658 
" clip-path="url(#p5b0f9a255e)" style="fill: none; stroke-dasharray: 1.5625,0.9375; stroke-dashoffset: 0; stroke: #343434; stroke-width: 1.25"/>
   </g>
   <g id="line2d_62">
    <path d="M 297.261494 170.788157 
L 368.589027 170.788157 
" clip-path="url(#p5b0f9a255e)" style="fill: none; stroke-dasharray: 3.125,1.25; stroke-dashoffset: 0; stroke: #343434; stroke-width: 1.25"/>
   </g>
   <g id="line2d_63">
    <path d="M 304.390129 138.298239 
L 361.460392 138.298239 
" clip-path="url(#p5b0f9a255e)" style="fill: none; stroke-dasharray: 1.5625,0.9375; stroke-dashoffset: 0; stroke: #343434; stroke-width: 1.25"/>
   </g>
   <g id="line2d_64">
    <path d="M 406.93324 156.863906 
L 472.406551 156.863906 
" clip-path="url(#p5b0f9a255e)" style="fill: none; stroke-dasharray: 1.5625,0.9375; stroke-dashoffset: 0; stroke: #343434; stroke-width: 1.25"/>
   </g>
   <g id="line2d_65">
    <path d="M 397.070336 124.373989 
L 482.269455 124.373989 
" clip-path="url(#p5b0f9a255e)" style="fill: none; stroke-dasharray: 3.125,1.25; stroke-dashoffset: 0; stroke: #343434; stroke-width: 1.25"/>
   </g>
   <g id="line2d_66">
    <path d="M 404.307064 91.884071 
L 475.032727 91.884071 
" clip-path="url(#p5b0f9a255e)" style="fill: none; stroke-dasharray: 1.5625,0.9375; stroke-dashoffset: 0; stroke: #343434; stroke-width: 1.25"/>
   </g>
   <g id="patch_3">
    <path d="M 66.063673 284.967011 
L 66.063673 19.477969 
" style="fill: none; stroke: #cccccc; stroke-width: 0.5; stroke-linejoin: miter; stroke-linecap: square"/>
   </g>
   <g id="patch_4">
    <path d="M 66.063673 284.967011 
L 493.042213 284.967011 
" style="fill: none; stroke: #cccccc; stroke-width: 0.5; stroke-linejoin: miter; stroke-linecap: square"/>
   </g>
   <g id="text_12">
    <!-- Age distribution  violin -->
    <g style="fill: #262626" transform="translate(199.881224 13.477969) scale(0.13 -0.13)">
     <defs>
      <path id="DejaVuSans-62" d="M 3116 1747 
Q 3116 2381 2855 2742 
Q 2594 3103 2138 3103 
Q 1681 3103 1420 2742 
Q 1159 2381 1159 1747 
Q 1159 1113 1420 752 
Q 1681 391 2138 391 
Q 2594 391 2855 752 
Q 3116 1113 3116 1747 
z
M 1159 2969 
Q 1341 3281 1617 3432 
Q 1894 3584 2278 3584 
Q 2916 3584 3314 3078 
Q 3713 2572 3713 1747 
Q 3713 922 3314 415 
Q 2916 -91 2278 -91 
Q 1894 -91 1617 61 
Q 1341 213 1159 525 
L 1159 0 
L 581 0 
L 581 4863 
L 1159 4863 
L 1159 2969 
z
" transform="scale(0.015625)"/>
      <path id="DejaVuSans-2014" d="M 313 1978 
L 6088 1978 
L 6088 1528 
L 313 1528 
L 313 1978 
z
" transform="scale(0.015625)"/>
      <path id="DejaVuSans-6c" d="M 603 4863 
L 1178 4863 
L 1178 0 
L 603 0 
L 603 4863 
z
" transform="scale(0.015625)"/>
     </defs>
     <use xlink:href="#DejaVuSans-41"/>
     <use xlink:href="#DejaVuSans-67" transform="translate(68.408203 0)"/>
     <use xlink:href="#DejaVuSans-65" transform="translate(131.884766 0)"/>
     <use xlink:href="#DejaVuSans-20" transform="translate(193.408203 0)"/>
     <use xlink:href="#DejaVuSans-64" transform="translate(225.195312 0)"/>
     <use xlink:href="#DejaVuSans-69" transform="translate(288.671875 0)"/>
     <use xlink:href="#DejaVuSans-73" transform="translate(316.455078 0)"/>
     <use xlink:href="#DejaVuSans-74" transform="translate(368.554688 0)"/>
     <use xlink:href="#DejaVuSans-72" transform="translate(407.763672 0)"/>
     <use xlink:href="#DejaVuSans-69" transform="translate(448.876953 0)"/>
     <use xlink:href="#DejaVuSans-62" transform="translate(476.660156 0)"/>
     <use xlink:href="#DejaVuSans-75" transform="translate(540.136719 0)"/>
     <use xlink:href="#DejaVuSans-74" transform="translate(603.515625 0)"/>
     <use xlink:href="#DejaVuSans-69" transform="translate(642.724609 0)"/>
     <use xlink:href="#DejaVuSans-6f" transform="translate(670.507812 0)"/>
     <use xlink:href="#DejaVuSans-6e" transform="translate(731.689453 0)"/>
     <use xlink:href="#DejaVuSans-20" transform="translate(795.068359 0)"/>
     <use xlink:href="#DejaVuSans-2014" transform="translate(826.855469 0)"/>
     <use xlink:href="#DejaVuSans-20" transform="translate(926.855469 0)"/>
     <use xlink:href="#DejaVuSans-76" transform="translate(958.642578 0)"/>
     <use xlink:href="#DejaVuSans-69" transform="translate(1017.822266 0)"/>
     <use xlink:href="#DejaVuSans-6f" transform="translate(1045.605469 0)"/>
     <use xlink:href="#DejaVuSans-6c" transform="translate(1106.787109 0)"/>
     <use xlink:href="#DejaVuSans-69" transform="translate(1134.570312 0)"/>
     <use xlink:href="#DejaVuSans-6e" transform="translate(1162.353516 0)"/>
    </g>
   </g>
  </g>
 </g>
 <defs>
  <clipPath id="p5b0f9a255e">
   <rect x="66.063673" y="19.477969" width="426.97854" height="265.489042"/>
  </clipPath>
 </defs>
</svg>
