<?xml version="1.0" encoding="utf-8" standalone="no"?>
<!DOCTYPE svg PUBLIC "-//W3C//DTD SVG 1.1//EN"
  "http://www.w3.org/Graphics/SVG/1.1/DTD/svg11.dtd">
<svg xmlns:xlink="http://www.w3.org/1999/xlink" width="853.907939pt" height="421.60807pt" viewBox="0 0 853.907939 421.60807" xmlns="http://www.w3.org/2000/svg" version="1.1">
 <metadata>
  <rdf:RDF xmlns:dc="http://purl.org/dc/elements/1.1/" xmlns:cc="http://creativecommons.org/ns#" xmlns:rdf="http://www.w3.org/1999/02/22-rdf-syntax-ns#">
   <cc:Work>
    <dc:type rdf:resource="http://purl.org/dc/dcmitype/StillImage"/>
    <dc:date>2025-11-07T12:54:19.065687</dc:date>
    <dc:format>image/svg+xml</dc:format>
    <dc:creator>
     <cc:Agent>
      <dc:title>Matplotlib v3.10.7, https://matplotlib.org/</dc:title>
     </cc:Agent>
    </dc:creator>
   </cc:Work>
  </rdf:RDF>
 </metadata>
 <defs>
  <style type="text/css">*{stroke-linejoin: round; stroke-linecap: butt}</style>
 </defs>
 <g id="figure_1">
  <g id="patch_1">
   <path d="M 0 421.60807 
L 853.907939 421.60807 
L 853.907939 0 
L 0 0 
z
" style="fill: #ffffff"/>
  </g>
  <g id="axes_1">
   <g id="patch_2">
    <path d="M 36.79375 350.212538 
L 850.307939 350.212538 
L 850.307939 20.797812 
L 36.79375 20.797812 
z
" style="fill: #ffffff"/>
   </g>
   <g id="matplotlib.axis_1">
    <g id="xtick_1">
     <g id="line2d_1">
      <defs>
       <path id="m729b92a812" d="M 0 0 
L 0 3 
" style="stroke: #262626; stroke-width: 0.5"/>
      </defs>
      <g>
       <use xlink:href="#m729b92a812" x="138.483024" y="20.797812" style="fill: #262626; stroke: #262626; stroke-width: 0.5"/>
      </g>
     </g>
     <g id="text_1">
      <!-- studenti - secondaria -->
      <g style="fill: #262626" transform="translate(83.072188 391.901595) rotate(-15) scale(0.11 -0.11)">
       <defs>
        <path id="DejaVuSans-73" d="M 2834 3397 
L 2834 2853 
Q 2591 2978 2328 3040 
Q 2066 3103 1784 3103 
Q 1356 3103 1142 2972 
Q 928 2841 928 2578 
Q 928 2378 1081 2264 
Q 1234 2150 1697 2047 
L 1894 2003 
Q 2506 1872 2764 1633 
Q 3022 1394 3022 966 
Q 3022 478 2636 193 
Q 2250 -91 1575 -91 
Q 1294 -91 989 -36 
Q 684 19 347 128 
L 347 722 
Q 666 556 975 473 
Q 1284 391 1588 391 
Q 1994 391 2212 530 
Q 2431 669 2431 922 
Q 2431 1156 2273 1281 
Q 2116 1406 1581 1522 
L 1381 1569 
Q 847 1681 609 1914 
Q 372 2147 372 2553 
Q 372 3047 722 3315 
Q 1072 3584 1716 3584 
Q 2034 3584 2315 3537 
Q 2597 3491 2834 3397 
z
" transform="scale(0.015625)"/>
        <path id="DejaVuSans-74" d="M 1172 4494 
L 1172 3500 
L 2356 3500 
L 2356 3053 
L 1172 3053 
L 1172 1153 
Q 1172 725 1289 603 
Q 1406 481 1766 481 
L 2356 481 
L 2356 0 
L 1766 0 
Q 1100 0 847 248 
Q 594 497 594 1153 
L 594 3053 
L 172 3053 
L 172 3500 
L 594 3500 
L 594 4494 
L 1172 4494 
z
" transform="scale(0.015625)"/>
        <path id="DejaVuSans-75" d="M 544 1381 
L 544 3500 
L 1119 3500 
L 1119 1403 
Q 1119 906 1312 657 
Q 1506 409 1894 409 
Q 2359 409 2629 706 
Q 2900 1003 2900 1516 
L 2900 3500 
L 3475 3500 
L 3475 0 
L 2900 0 
L 2900 538 
Q 2691 219 2414 64 
Q 2138 -91 1772 -91 
Q 1169 -91 856 284 
Q 544 659 544 1381 
z
M 1991 3584 
L 1991 3584 
z
" transform="scale(0.015625)"/>
        <path id="DejaVuSans-64" d="M 2906 2969 
L 2906 4863 
L 3481 4863 
L 3481 0 
L 2906 0 
L 2906 525 
Q 2725 213 2448 61 
Q 2172 -91 1784 -91 
Q 1150 -91 751 415 
Q 353 922 353 1747 
Q 353 2572 751 3078 
Q 1150 3584 1784 3584 
Q 2172 3584 2448 3432 
Q 2725 3281 2906 2969 
z
M 947 1747 
Q 947 1113 1208 752 
Q 1469 391 1925 391 
Q 2381 391 2643 752 
Q 2906 1113 2906 1747 
Q 2906 2381 2643 2742 
Q 2381 3103 1925 3103 
Q 1469 3103 1208 2742 
Q 947 2381 947 1747 
z
" transform="scale(0.015625)"/>
        <path id="DejaVuSans-65" d="M 3597 1894 
L 3597 1613 
L 953 1613 
Q 991 1019 1311 708 
Q 1631 397 2203 397 
Q 2534 397 2845 478 
Q 3156 559 3463 722 
L 3463 178 
Q 3153 47 2828 -22 
Q 2503 -91 2169 -91 
Q 1331 -91 842 396 
Q 353 884 353 1716 
Q 353 2575 817 3079 
Q 1281 3584 2069 3584 
Q 2775 3584 3186 3129 
Q 3597 2675 3597 1894 
z
M 3022 2063 
Q 3016 2534 2758 2815 
Q 2500 3097 2075 3097 
Q 1594 3097 1305 2825 
Q 1016 2553 972 2059 
L 3022 2063 
z
" transform="scale(0.015625)"/>
        <path id="DejaVuSans-6e" d="M 3513 2113 
L 3513 0 
L 2938 0 
L 2938 2094 
Q 2938 2591 2744 2837 
Q 2550 3084 2163 3084 
Q 1697 3084 1428 2787 
Q 1159 2491 1159 1978 
L 1159 0 
L 581 0 
L 581 3500 
L 1159 3500 
L 1159 2956 
Q 1366 3272 1645 3428 
Q 1925 3584 2291 3584 
Q 2894 3584 3203 3211 
Q 3513 2838 3513 2113 
z
" transform="scale(0.015625)"/>
        <path id="DejaVuSans-69" d="M 603 3500 
L 1178 3500 
L 1178 0 
L 603 0 
L 603 3500 
z
M 603 4863 
L 1178 4863 
L 1178 4134 
L 603 4134 
L 603 4863 
z
" transform="scale(0.015625)"/>
        <path id="DejaVuSans-20" transform="scale(0.015625)"/>
        <path id="DejaVuSans-2d" d="M 313 2009 
L 1997 2009 
L 1997 1497 
L 313 1497 
L 313 2009 
z
" transform="scale(0.015625)"/>
        <path id="DejaVuSans-63" d="M 3122 3366 
L 3122 2828 
Q 2878 2963 2633 3030 
Q 2388 3097 2138 3097 
Q 1578 3097 1268 2742 
Q 959 2388 959 1747 
Q 959 1106 1268 751 
Q 1578 397 2138 397 
Q 2388 397 2633 464 
Q 2878 531 3122 666 
L 3122 134 
Q 2881 22 2623 -34 
Q 2366 -91 2075 -91 
Q 1284 -91 818 406 
Q 353 903 353 1747 
Q 353 2603 823 3093 
Q 1294 3584 2113 3584 
Q 2378 3584 2631 3529 
Q 2884 3475 3122 3366 
z
" transform="scale(0.015625)"/>
        <path id="DejaVuSans-6f" d="M 1959 3097 
Q 1497 3097 1228 2736 
Q 959 2375 959 1747 
Q 959 1119 1226 758 
Q 1494 397 1959 397 
Q 2419 397 2687 759 
Q 2956 1122 2956 1747 
Q 2956 2369 2687 2733 
Q 2419 3097 1959 3097 
z
M 1959 3584 
Q 2709 3584 3137 3096 
Q 3566 2609 3566 1747 
Q 3566 888 3137 398 
Q 2709 -91 1959 -91 
Q 1206 -91 779 398 
Q 353 888 353 1747 
Q 353 2609 779 3096 
Q 1206 3584 1959 3584 
z
" transform="scale(0.015625)"/>
        <path id="DejaVuSans-61" d="M 2194 1759 
Q 1497 1759 1228 1600 
Q 959 1441 959 1056 
Q 959 750 1161 570 
Q 1363 391 1709 391 
Q 2188 391 2477 730 
Q 2766 1069 2766 1631 
L 2766 1759 
L 2194 1759 
z
M 3341 1997 
L 3341 0 
L 2766 0 
L 2766 531 
Q 2569 213 2275 61 
Q 1981 -91 1556 -91 
Q 1019 -91 701 211 
Q 384 513 384 1019 
Q 384 1609 779 1909 
Q 1175 2209 1959 2209 
L 2766 2209 
L 2766 2266 
Q 2766 2663 2505 2880 
Q 2244 3097 1772 3097 
Q 1472 3097 1187 3025 
Q 903 2953 641 2809 
L 641 3341 
Q 956 3463 1253 3523 
Q 1550 3584 1831 3584 
Q 2591 3584 2966 3190 
Q 3341 2797 3341 1997 
z
" transform="scale(0.015625)"/>
        <path id="DejaVuSans-72" d="M 2631 2963 
Q 2534 3019 2420 3045 
Q 2306 3072 2169 3072 
Q 1681 3072 1420 2755 
Q 1159 2438 1159 1844 
L 1159 0 
L 581 0 
L 581 3500 
L 1159 3500 
L 1159 2956 
Q 1341 3275 1631 3429 
Q 1922 3584 2338 3584 
Q 2397 3584 2469 3576 
Q 2541 3569 2628 3553 
L 2631 2963 
z
" transform="scale(0.015625)"/>
       </defs>
       <use xlink:href="#DejaVuSans-73"/>
       <use xlink:href="#DejaVuSans-74" transform="translate(52.099609 0)"/>
       <use xlink:href="#DejaVuSans-75" transform="translate(91.308594 0)"/>
       <use xlink:href="#DejaVuSans-64" transform="translate(154.6875 0)"/>
       <use xlink:href="#DejaVuSans-65" transform="translate(218.164062 0)"/>
       <use xlink:href="#DejaVuSans-6e" transform="translate(279.6875 0)"/>
       <use xlink:href="#DejaVuSans-74" transform="translate(343.066406 0)"/>
       <use xlink:href="#DejaVuSans-69" transform="translate(382.275391 0)"/>
       <use xlink:href="#DejaVuSans-20" transform="translate(410.058594 0)"/>
       <use xlink:href="#DejaVuSans-2d" transform="translate(441.845703 0)"/>
       <use xlink:href="#DejaVuSans-20" transform="translate(477.929688 0)"/>
       <use xlink:href="#DejaVuSans-73" transform="translate(509.716797 0)"/>
       <use xlink:href="#DejaVuSans-65" transform="translate(561.816406 0)"/>
       <use xlink:href="#DejaVuSans-63" transform="translate(623.339844 0)"/>
       <use xlink:href="#DejaVuSans-6f" transform="translate(678.320312 0)"/>
       <use xlink:href="#DejaVuSans-6e" transform="translate(739.501953 0)"/>
       <use xlink:href="#DejaVuSans-64" transform="translate(802.880859 0)"/>
       <use xlink:href="#DejaVuSans-61" transform="translate(866.357422 0)"/>
       <use xlink:href="#DejaVuSans-72" transform="translate(927.636719 0)"/>
       <use xlink:href="#DejaVuSans-69" transform="translate(968.75 0)"/>
       <use xlink:href="#DejaVuSans-61" transform="translate(996.533203 0)"/>
      </g>
     </g>
    </g>
    <g id="xtick_2">
     <g id="line2d_2">
      <g>
       <use xlink:href="#m729b92a812" x="341.861571" y="20.797812" style="fill: #262626; stroke: #262626; stroke-width: 0.5"/>
      </g>
     </g>
     <g id="text_2">
      <!-- studenti - universitari -->
      <g style="fill: #262626" transform="translate(285.521031 392.399822) rotate(-15) scale(0.11 -0.11)">
       <defs>
        <path id="DejaVuSans-76" d="M 191 3500 
L 800 3500 
L 1894 563 
L 2988 3500 
L 3597 3500 
L 2284 0 
L 1503 0 
L 191 3500 
z
" transform="scale(0.015625)"/>
       </defs>
       <use xlink:href="#DejaVuSans-73"/>
       <use xlink:href="#DejaVuSans-74" transform="translate(52.099609 0)"/>
       <use xlink:href="#DejaVuSans-75" transform="translate(91.308594 0)"/>
       <use xlink:href="#DejaVuSans-64" transform="translate(154.6875 0)"/>
       <use xlink:href="#DejaVuSans-65" transform="translate(218.164062 0)"/>
       <use xlink:href="#DejaVuSans-6e" transform="translate(279.6875 0)"/>
       <use xlink:href="#DejaVuSans-74" transform="translate(343.066406 0)"/>
       <use xlink:href="#DejaVuSans-69" transform="translate(382.275391 0)"/>
       <use xlink:href="#DejaVuSans-20" transform="translate(410.058594 0)"/>
       <use xlink:href="#DejaVuSans-2d" transform="translate(441.845703 0)"/>
       <use xlink:href="#DejaVuSans-20" transform="translate(477.929688 0)"/>
       <use xlink:href="#DejaVuSans-75" transform="translate(509.716797 0)"/>
       <use xlink:href="#DejaVuSans-6e" transform="translate(573.095703 0)"/>
       <use xlink:href="#DejaVuSans-69" transform="translate(636.474609 0)"/>
       <use xlink:href="#DejaVuSans-76" transform="translate(664.257812 0)"/>
       <use xlink:href="#DejaVuSans-65" transform="translate(723.4375 0)"/>
       <use xlink:href="#DejaVuSans-72" transform="translate(784.960938 0)"/>
       <use xlink:href="#DejaVuSans-73" transform="translate(826.074219 0)"/>
       <use xlink:href="#DejaVuSans-69" transform="translate(878.173828 0)"/>
       <use xlink:href="#DejaVuSans-74" transform="translate(905.957031 0)"/>
       <use xlink:href="#DejaVuSans-61" transform="translate(945.166016 0)"/>
       <use xlink:href="#DejaVuSans-72" transform="translate(1006.445312 0)"/>
       <use xlink:href="#DejaVuSans-69" transform="translate(1047.558594 0)"/>
      </g>
     </g>
    </g>
    <g id="xtick_3">
     <g id="line2d_3">
      <g>
       <use xlink:href="#m729b92a812" x="545.240118" y="20.797812" style="fill: #262626; stroke: #262626; stroke-width: 0.5"/>
      </g>
     </g>
     <g id="text_3">
      <!-- insegnanti - non in servizio -->
      <g style="fill: #262626" transform="translate(474.37296 400.184613) rotate(-15) scale(0.11 -0.11)">
       <defs>
        <path id="DejaVuSans-67" d="M 2906 1791 
Q 2906 2416 2648 2759 
Q 2391 3103 1925 3103 
Q 1463 3103 1205 2759 
Q 947 2416 947 1791 
Q 947 1169 1205 825 
Q 1463 481 1925 481 
Q 2391 481 2648 825 
Q 2906 1169 2906 1791 
z
M 3481 434 
Q 3481 -459 3084 -895 
Q 2688 -1331 1869 -1331 
Q 1566 -1331 1297 -1286 
Q 1028 -1241 775 -1147 
L 775 -588 
Q 1028 -725 1275 -790 
Q 1522 -856 1778 -856 
Q 2344 -856 2625 -561 
Q 2906 -266 2906 331 
L 2906 616 
Q 2728 306 2450 153 
Q 2172 0 1784 0 
Q 1141 0 747 490 
Q 353 981 353 1791 
Q 353 2603 747 3093 
Q 1141 3584 1784 3584 
Q 2172 3584 2450 3431 
Q 2728 3278 2906 2969 
L 2906 3500 
L 3481 3500 
L 3481 434 
z
" transform="scale(0.015625)"/>
        <path id="DejaVuSans-7a" d="M 353 3500 
L 3084 3500 
L 3084 2975 
L 922 459 
L 3084 459 
L 3084 0 
L 275 0 
L 275 525 
L 2438 3041 
L 353 3041 
L 353 3500 
z
" transform="scale(0.015625)"/>
       </defs>
       <use xlink:href="#DejaVuSans-69"/>
       <use xlink:href="#DejaVuSans-6e" transform="translate(27.783203 0)"/>
       <use xlink:href="#DejaVuSans-73" transform="translate(91.162109 0)"/>
       <use xlink:href="#DejaVuSans-65" transform="translate(143.261719 0)"/>
       <use xlink:href="#DejaVuSans-67" transform="translate(204.785156 0)"/>
       <use xlink:href="#DejaVuSans-6e" transform="translate(268.261719 0)"/>
       <use xlink:href="#DejaVuSans-61" transform="translate(331.640625 0)"/>
       <use xlink:href="#DejaVuSans-6e" transform="translate(392.919922 0)"/>
       <use xlink:href="#DejaVuSans-74" transform="translate(456.298828 0)"/>
       <use xlink:href="#DejaVuSans-69" transform="translate(495.507812 0)"/>
       <use xlink:href="#DejaVuSans-20" transform="translate(523.291016 0)"/>
       <use xlink:href="#DejaVuSans-2d" transform="translate(555.078125 0)"/>
       <use xlink:href="#DejaVuSans-20" transform="translate(591.162109 0)"/>
       <use xlink:href="#DejaVuSans-6e" transform="translate(622.949219 0)"/>
       <use xlink:href="#DejaVuSans-6f" transform="translate(686.328125 0)"/>
       <use xlink:href="#DejaVuSans-6e" transform="translate(747.509766 0)"/>
       <use xlink:href="#DejaVuSans-20" transform="translate(810.888672 0)"/>
       <use xlink:href="#DejaVuSans-69" transform="translate(842.675781 0)"/>
       <use xlink:href="#DejaVuSans-6e" transform="translate(870.458984 0)"/>
       <use xlink:href="#DejaVuSans-20" transform="translate(933.837891 0)"/>
       <use xlink:href="#DejaVuSans-73" transform="translate(965.625 0)"/>
       <use xlink:href="#DejaVuSans-65" transform="translate(1017.724609 0)"/>
       <use xlink:href="#DejaVuSans-72" transform="translate(1079.248047 0)"/>
       <use xlink:href="#DejaVuSans-76" transform="translate(1120.361328 0)"/>
       <use xlink:href="#DejaVuSans-69" transform="translate(1179.541016 0)"/>
       <use xlink:href="#DejaVuSans-7a" transform="translate(1207.324219 0)"/>
       <use xlink:href="#DejaVuSans-69" transform="translate(1259.814453 0)"/>
       <use xlink:href="#DejaVuSans-6f" transform="translate(1287.597656 0)"/>
      </g>
     </g>
    </g>
    <g id="xtick_4">
     <g id="line2d_4">
      <g>
       <use xlink:href="#m729b92a812" x="748.618666" y="20.797812" style="fill: #262626; stroke: #262626; stroke-width: 0.5"/>
      </g>
     </g>
     <g id="text_4">
      <!-- insegnanti - in servizio -->
      <g style="fill: #262626" transform="translate(689.424268 393.9292) rotate(-15) scale(0.11 -0.11)">
       <use xlink:href="#DejaVuSans-69"/>
       <use xlink:href="#DejaVuSans-6e" transform="translate(27.783203 0)"/>
       <use xlink:href="#DejaVuSans-73" transform="translate(91.162109 0)"/>
       <use xlink:href="#DejaVuSans-65" transform="translate(143.261719 0)"/>
       <use xlink:href="#DejaVuSans-67" transform="translate(204.785156 0)"/>
       <use xlink:href="#DejaVuSans-6e" transform="translate(268.261719 0)"/>
       <use xlink:href="#DejaVuSans-61" transform="translate(331.640625 0)"/>
       <use xlink:href="#DejaVuSans-6e" transform="translate(392.919922 0)"/>
       <use xlink:href="#DejaVuSans-74" transform="translate(456.298828 0)"/>
       <use xlink:href="#DejaVuSans-69" transform="translate(495.507812 0)"/>
       <use xlink:href="#DejaVuSans-20" transform="translate(523.291016 0)"/>
       <use xlink:href="#DejaVuSans-2d" transform="translate(555.078125 0)"/>
       <use xlink:href="#DejaVuSans-20" transform="translate(591.162109 0)"/>
       <use xlink:href="#DejaVuSans-69" transform="translate(622.949219 0)"/>
       <use xlink:href="#DejaVuSans-6e" transform="translate(650.732422 0)"/>
       <use xlink:href="#DejaVuSans-20" transform="translate(714.111328 0)"/>
       <use xlink:href="#DejaVuSans-73" transform="translate(745.898438 0)"/>
       <use xlink:href="#DejaVuSans-65" transform="translate(797.998047 0)"/>
       <use xlink:href="#DejaVuSans-72" transform="translate(859.521484 0)"/>
       <use xlink:href="#DejaVuSans-76" transform="translate(900.634766 0)"/>
       <use xlink:href="#DejaVuSans-69" transform="translate(959.814453 0)"/>
       <use xlink:href="#DejaVuSans-7a" transform="translate(987.597656 0)"/>
       <use xlink:href="#DejaVuSans-69" transform="translate(1040.087891 0)"/>
       <use xlink:href="#DejaVuSans-6f" transform="translate(1067.871094 0)"/>
      </g>
     </g>
    </g>
    <g id="xtick_5">
     <g id="line2d_5">
      <defs>
       <path id="m9838b45e6d" d="M 0 0 
L 0 1.5 
" style="stroke: #262626; stroke-width: 0.5"/>
      </defs>
      <g>
       <use xlink:href="#m9838b45e6d" x="57.131605" y="20.797812" style="fill: #262626; stroke: #262626; stroke-width: 0.5"/>
      </g>
     </g>
    </g>
    <g id="xtick_6">
     <g id="line2d_6">
      <g>
       <use xlink:href="#m9838b45e6d" x="97.807314" y="20.797812" style="fill: #262626; stroke: #262626; stroke-width: 0.5"/>
      </g>
     </g>
    </g>
    <g id="xtick_7">
     <g id="line2d_7">
      <g>
       <use xlink:href="#m9838b45e6d" x="179.158733" y="20.797812" style="fill: #262626; stroke: #262626; stroke-width: 0.5"/>
      </g>
     </g>
    </g>
    <g id="xtick_8">
     <g id="line2d_8">
      <g>
       <use xlink:href="#m9838b45e6d" x="219.834443" y="20.797812" style="fill: #262626; stroke: #262626; stroke-width: 0.5"/>
      </g>
     </g>
    </g>
    <g id="xtick_9">
     <g id="line2d_9">
      <g>
       <use xlink:href="#m9838b45e6d" x="260.510152" y="20.797812" style="fill: #262626; stroke: #262626; stroke-width: 0.5"/>
      </g>
     </g>
    </g>
    <g id="xtick_10">
     <g id="line2d_10">
      <g>
       <use xlink:href="#m9838b45e6d" x="301.185862" y="20.797812" style="fill: #262626; stroke: #262626; stroke-width: 0.5"/>
      </g>
     </g>
    </g>
    <g id="xtick_11">
     <g id="line2d_11">
      <g>
       <use xlink:href="#m9838b45e6d" x="382.537281" y="20.797812" style="fill: #262626; stroke: #262626; stroke-width: 0.5"/>
      </g>
     </g>
    </g>
    <g id="xtick_12">
     <g id="line2d_12">
      <g>
       <use xlink:href="#m9838b45e6d" x="423.21299" y="20.797812" style="fill: #262626; stroke: #262626; stroke-width: 0.5"/>
      </g>
     </g>
    </g>
    <g id="xtick_13">
     <g id="line2d_13">
      <g>
       <use xlink:href="#m9838b45e6d" x="463.888699" y="20.797812" style="fill: #262626; stroke: #262626; stroke-width: 0.5"/>
      </g>
     </g>
    </g>
    <g id="xtick_14">
     <g id="line2d_14">
      <g>
       <use xlink:href="#m9838b45e6d" x="504.564409" y="20.797812" style="fill: #262626; stroke: #262626; stroke-width: 0.5"/>
      </g>
     </g>
    </g>
    <g id="xtick_15">
     <g id="line2d_15">
      <g>
       <use xlink:href="#m9838b45e6d" x="585.915828" y="20.797812" style="fill: #262626; stroke: #262626; stroke-width: 0.5"/>
      </g>
     </g>
    </g>
    <g id="xtick_16">
     <g id="line2d_16">
      <g>
       <use xlink:href="#m9838b45e6d" x="626.591537" y="20.797812" style="fill: #262626; stroke: #262626; stroke-width: 0.5"/>
      </g>
     </g>
    </g>
    <g id="xtick_17">
     <g id="line2d_17">
      <g>
       <use xlink:href="#m9838b45e6d" x="667.267247" y="20.797812" style="fill: #262626; stroke: #262626; stroke-width: 0.5"/>
      </g>
     </g>
    </g>
    <g id="xtick_18">
     <g id="line2d_18">
      <g>
       <use xlink:href="#m9838b45e6d" x="707.942956" y="20.797812" style="fill: #262626; stroke: #262626; stroke-width: 0.5"/>
      </g>
     </g>
    </g>
    <g id="xtick_19">
     <g id="line2d_19">
      <g>
       <use xlink:href="#m9838b45e6d" x="789.294375" y="20.797812" style="fill: #262626; stroke: #262626; stroke-width: 0.5"/>
      </g>
     </g>
    </g>
    <g id="xtick_20">
     <g id="line2d_20">
      <g>
       <use xlink:href="#m9838b45e6d" x="829.970085" y="20.797812" style="fill: #262626; stroke: #262626; stroke-width: 0.5"/>
      </g>
     </g>
    </g>
    <g id="text_5">
     <!-- Gruppo -->
     <g style="fill: #262626" transform="translate(421.343345 415.512445) scale(0.12 -0.12)">
      <defs>
       <path id="DejaVuSans-47" d="M 3809 666 
L 3809 1919 
L 2778 1919 
L 2778 2438 
L 4434 2438 
L 4434 434 
Q 4069 175 3628 42 
Q 3188 -91 2688 -91 
Q 1594 -91 976 548 
Q 359 1188 359 2328 
Q 359 3472 976 4111 
Q 1594 4750 2688 4750 
Q 3144 4750 3555 4637 
Q 3966 4525 4313 4306 
L 4313 3634 
Q 3963 3931 3569 4081 
Q 3175 4231 2741 4231 
Q 1884 4231 1454 3753 
Q 1025 3275 1025 2328 
Q 1025 1384 1454 906 
Q 1884 428 2741 428 
Q 3075 428 3337 486 
Q 3600 544 3809 666 
z
" transform="scale(0.015625)"/>
       <path id="DejaVuSans-70" d="M 1159 525 
L 1159 -1331 
L 581 -1331 
L 581 3500 
L 1159 3500 
L 1159 2969 
Q 1341 3281 1617 3432 
Q 1894 3584 2278 3584 
Q 2916 3584 3314 3078 
Q 3713 2572 3713 1747 
Q 3713 922 3314 415 
Q 2916 -91 2278 -91 
Q 1894 -91 1617 61 
Q 1341 213 1159 525 
z
M 3116 1747 
Q 3116 2381 2855 2742 
Q 2594 3103 2138 3103 
Q 1681 3103 1420 2742 
Q 1159 2381 1159 1747 
Q 1159 1113 1420 752 
Q 1681 391 2138 391 
Q 2594 391 2855 752 
Q 3116 1113 3116 1747 
z
" transform="scale(0.015625)"/>
      </defs>
      <use xlink:href="#DejaVuSans-47"/>
      <use xlink:href="#DejaVuSans-72" transform="translate(77.490234 0)"/>
      <use xlink:href="#DejaVuSans-75" transform="translate(118.603516 0)"/>
      <use xlink:href="#DejaVuSans-70" transform="translate(181.982422 0)"/>
      <use xlink:href="#DejaVuSans-70" transform="translate(245.458984 0)"/>
      <use xlink:href="#DejaVuSans-6f" transform="translate(308.935547 0)"/>
     </g>
    </g>
   </g>
   <g id="matplotlib.axis_2">
    <g id="ytick_1">
     <g id="line2d_21">
      <path d="M 36.79375 300.685149 
L 850.307939 300.685149 
" clip-path="url(#p8af5af90d4)" style="fill: none; stroke-dasharray: 1.85,0.8; stroke-dashoffset: 0; stroke: #1a1a1a; stroke-opacity: 0.5; stroke-width: 0.5"/>
     </g>
     <g id="line2d_22">
      <defs>
       <path id="m6cffce92b2" d="M 0 0 
L -3 0 
" style="stroke: #262626; stroke-width: 0.5"/>
      </defs>
      <g>
       <use xlink:href="#m6cffce92b2" x="850.307939" y="300.685149" style="fill: #262626; stroke: #262626; stroke-width: 0.5"/>
      </g>
     </g>
     <g id="text_6">
      <!-- $\mathdefault{20}$ -->
      <g style="fill: #262626" transform="translate(19.21375 304.86429) scale(0.11 -0.11)">
       <defs>
        <path id="DejaVuSans-32" d="M 1228 531 
L 3431 531 
L 3431 0 
L 469 0 
L 469 531 
Q 828 903 1448 1529 
Q 2069 2156 2228 2338 
Q 2531 2678 2651 2914 
Q 2772 3150 2772 3378 
Q 2772 3750 2511 3984 
Q 2250 4219 1831 4219 
Q 1534 4219 1204 4116 
Q 875 4013 500 3803 
L 500 4441 
Q 881 4594 1212 4672 
Q 1544 4750 1819 4750 
Q 2544 4750 2975 4387 
Q 3406 4025 3406 3419 
Q 3406 3131 3298 2873 
Q 3191 2616 2906 2266 
Q 2828 2175 2409 1742 
Q 1991 1309 1228 531 
z
" transform="scale(0.015625)"/>
        <path id="DejaVuSans-30" d="M 2034 4250 
Q 1547 4250 1301 3770 
Q 1056 3291 1056 2328 
Q 1056 1369 1301 889 
Q 1547 409 2034 409 
Q 2525 409 2770 889 
Q 3016 1369 3016 2328 
Q 3016 3291 2770 3770 
Q 2525 4250 2034 4250 
z
M 2034 4750 
Q 2819 4750 3233 4129 
Q 3647 3509 3647 2328 
Q 3647 1150 3233 529 
Q 2819 -91 2034 -91 
Q 1250 -91 836 529 
Q 422 1150 422 2328 
Q 422 3509 836 4129 
Q 1250 4750 2034 4750 
z
" transform="scale(0.015625)"/>
       </defs>
       <use xlink:href="#DejaVuSans-32" transform="translate(0 0.78125)"/>
       <use xlink:href="#DejaVuSans-30" transform="translate(63.623047 0.78125)"/>
      </g>
     </g>
    </g>
    <g id="ytick_2">
     <g id="line2d_23">
      <path d="M 36.79375 243.095162 
L 850.307939 243.095162 
" clip-path="url(#p8af5af90d4)" style="fill: none; stroke-dasharray: 1.85,0.8; stroke-dashoffset: 0; stroke: #1a1a1a; stroke-opacity: 0.5; stroke-width: 0.5"/>
     </g>
     <g id="line2d_24">
      <g>
       <use xlink:href="#m6cffce92b2" x="850.307939" y="243.095162" style="fill: #262626; stroke: #262626; stroke-width: 0.5"/>
      </g>
     </g>
     <g id="text_7">
      <!-- $\mathdefault{30}$ -->
      <g style="fill: #262626" transform="translate(19.21375 247.274303) scale(0.11 -0.11)">
       <defs>
        <path id="DejaVuSans-33" d="M 2597 2516 
Q 3050 2419 3304 2112 
Q 3559 1806 3559 1356 
Q 3559 666 3084 287 
Q 2609 -91 1734 -91 
Q 1441 -91 1130 -33 
Q 819 25 488 141 
L 488 750 
Q 750 597 1062 519 
Q 1375 441 1716 441 
Q 2309 441 2620 675 
Q 2931 909 2931 1356 
Q 2931 1769 2642 2001 
Q 2353 2234 1838 2234 
L 1294 2234 
L 1294 2753 
L 1863 2753 
Q 2328 2753 2575 2939 
Q 2822 3125 2822 3475 
Q 2822 3834 2567 4026 
Q 2313 4219 1838 4219 
Q 1578 4219 1281 4162 
Q 984 4106 628 3988 
L 628 4550 
Q 988 4650 1302 4700 
Q 1616 4750 1894 4750 
Q 2613 4750 3031 4423 
Q 3450 4097 3450 3541 
Q 3450 3153 3228 2886 
Q 3006 2619 2597 2516 
z
" transform="scale(0.015625)"/>
       </defs>
       <use xlink:href="#DejaVuSans-33" transform="translate(0 0.78125)"/>
       <use xlink:href="#DejaVuSans-30" transform="translate(63.623047 0.78125)"/>
      </g>
     </g>
    </g>
    <g id="ytick_3">
     <g id="line2d_25">
      <path d="M 36.79375 185.505175 
L 850.307939 185.505175 
" clip-path="url(#p8af5af90d4)" style="fill: none; stroke-dasharray: 1.85,0.8; stroke-dashoffset: 0; stroke: #1a1a1a; stroke-opacity: 0.5; stroke-width: 0.5"/>
     </g>
     <g id="line2d_26">
      <g>
       <use xlink:href="#m6cffce92b2" x="850.307939" y="185.505175" style="fill: #262626; stroke: #262626; stroke-width: 0.5"/>
      </g>
     </g>
     <g id="text_8">
      <!-- $\mathdefault{40}$ -->
      <g style="fill: #262626" transform="translate(19.21375 189.684316) scale(0.11 -0.11)">
       <defs>
        <path id="DejaVuSans-34" d="M 2419 4116 
L 825 1625 
L 2419 1625 
L 2419 4116 
z
M 2253 4666 
L 3047 4666 
L 3047 1625 
L 3713 1625 
L 3713 1100 
L 3047 1100 
L 3047 0 
L 2419 0 
L 2419 1100 
L 313 1100 
L 313 1709 
L 2253 4666 
z
" transform="scale(0.015625)"/>
       </defs>
       <use xlink:href="#DejaVuSans-34" transform="translate(0 0.78125)"/>
       <use xlink:href="#DejaVuSans-30" transform="translate(63.623047 0.78125)"/>
      </g>
     </g>
    </g>
    <g id="ytick_4">
     <g id="line2d_27">
      <path d="M 36.79375 127.915188 
L 850.307939 127.915188 
" clip-path="url(#p8af5af90d4)" style="fill: none; stroke-dasharray: 1.85,0.8; stroke-dashoffset: 0; stroke: #1a1a1a; stroke-opacity: 0.5; stroke-width: 0.5"/>
     </g>
     <g id="line2d_28">
      <g>
       <use xlink:href="#m6cffce92b2" x="850.307939" y="127.915188" style="fill: #262626; stroke: #262626; stroke-width: 0.5"/>
      </g>
     </g>
     <g id="text_9">
      <!-- $\mathdefault{50}$ -->
      <g style="fill: #262626" transform="translate(19.21375 132.094329) scale(0.11 -0.11)">
       <defs>
        <path id="DejaVuSans-35" d="M 691 4666 
L 3169 4666 
L 3169 4134 
L 1269 4134 
L 1269 2991 
Q 1406 3038 1543 3061 
Q 1681 3084 1819 3084 
Q 2600 3084 3056 2656 
Q 3513 2228 3513 1497 
Q 3513 744 3044 326 
Q 2575 -91 1722 -91 
Q 1428 -91 1123 -41 
Q 819 9 494 109 
L 494 744 
Q 775 591 1075 516 
Q 1375 441 1709 441 
Q 2250 441 2565 725 
Q 2881 1009 2881 1497 
Q 2881 1984 2565 2268 
Q 2250 2553 1709 2553 
Q 1456 2553 1204 2497 
Q 953 2441 691 2322 
L 691 4666 
z
" transform="scale(0.015625)"/>
       </defs>
       <use xlink:href="#DejaVuSans-35" transform="translate(0 0.78125)"/>
       <use xlink:href="#DejaVuSans-30" transform="translate(63.623047 0.78125)"/>
      </g>
     </g>
    </g>
    <g id="ytick_5">
     <g id="line2d_29">
      <path d="M 36.79375 70.325201 
L 850.307939 70.325201 
" clip-path="url(#p8af5af90d4)" style="fill: none; stroke-dasharray: 1.85,0.8; stroke-dashoffset: 0; stroke: #1a1a1a; stroke-opacity: 0.5; stroke-width: 0.5"/>
     </g>
     <g id="line2d_30">
      <g>
       <use xlink:href="#m6cffce92b2" x="850.307939" y="70.325201" style="fill: #262626; stroke: #262626; stroke-width: 0.5"/>
      </g>
     </g>
     <g id="text_10">
      <!-- $\mathdefault{60}$ -->
      <g style="fill: #262626" transform="translate(19.21375 74.504342) scale(0.11 -0.11)">
       <defs>
        <path id="DejaVuSans-36" d="M 2113 2584 
Q 1688 2584 1439 2293 
Q 1191 2003 1191 1497 
Q 1191 994 1439 701 
Q 1688 409 2113 409 
Q 2538 409 2786 701 
Q 3034 994 3034 1497 
Q 3034 2003 2786 2293 
Q 2538 2584 2113 2584 
z
M 3366 4563 
L 3366 3988 
Q 3128 4100 2886 4159 
Q 2644 4219 2406 4219 
Q 1781 4219 1451 3797 
Q 1122 3375 1075 2522 
Q 1259 2794 1537 2939 
Q 1816 3084 2150 3084 
Q 2853 3084 3261 2657 
Q 3669 2231 3669 1497 
Q 3669 778 3244 343 
Q 2819 -91 2113 -91 
Q 1303 -91 875 529 
Q 447 1150 447 2328 
Q 447 3434 972 4092 
Q 1497 4750 2381 4750 
Q 2619 4750 2861 4703 
Q 3103 4656 3366 4563 
z
" transform="scale(0.015625)"/>
       </defs>
       <use xlink:href="#DejaVuSans-36" transform="translate(0 0.78125)"/>
       <use xlink:href="#DejaVuSans-30" transform="translate(63.623047 0.78125)"/>
      </g>
     </g>
    </g>
    <g id="ytick_6">
     <g id="line2d_31">
      <defs>
       <path id="m25870c9299" d="M 0 0 
L -1.5 0 
" style="stroke: #262626; stroke-width: 0.5"/>
      </defs>
      <g>
       <use xlink:href="#m25870c9299" x="850.307939" y="346.757139" style="fill: #262626; stroke: #262626; stroke-width: 0.5"/>
      </g>
     </g>
    </g>
    <g id="ytick_7">
     <g id="line2d_32">
      <g>
       <use xlink:href="#m25870c9299" x="850.307939" y="335.239141" style="fill: #262626; stroke: #262626; stroke-width: 0.5"/>
      </g>
     </g>
    </g>
    <g id="ytick_8">
     <g id="line2d_33">
      <g>
       <use xlink:href="#m25870c9299" x="850.307939" y="323.721144" style="fill: #262626; stroke: #262626; stroke-width: 0.5"/>
      </g>
     </g>
    </g>
    <g id="ytick_9">
     <g id="line2d_34">
      <g>
       <use xlink:href="#m25870c9299" x="850.307939" y="312.203147" style="fill: #262626; stroke: #262626; stroke-width: 0.5"/>
      </g>
     </g>
    </g>
    <g id="ytick_10">
     <g id="line2d_35">
      <g>
       <use xlink:href="#m25870c9299" x="850.307939" y="289.167152" style="fill: #262626; stroke: #262626; stroke-width: 0.5"/>
      </g>
     </g>
    </g>
    <g id="ytick_11">
     <g id="line2d_36">
      <g>
       <use xlink:href="#m25870c9299" x="850.307939" y="277.649154" style="fill: #262626; stroke: #262626; stroke-width: 0.5"/>
      </g>
     </g>
    </g>
    <g id="ytick_12">
     <g id="line2d_37">
      <g>
       <use xlink:href="#m25870c9299" x="850.307939" y="266.131157" style="fill: #262626; stroke: #262626; stroke-width: 0.5"/>
      </g>
     </g>
    </g>
    <g id="ytick_13">
     <g id="line2d_38">
      <g>
       <use xlink:href="#m25870c9299" x="850.307939" y="254.61316" style="fill: #262626; stroke: #262626; stroke-width: 0.5"/>
      </g>
     </g>
    </g>
    <g id="ytick_14">
     <g id="line2d_39">
      <g>
       <use xlink:href="#m25870c9299" x="850.307939" y="231.577165" style="fill: #262626; stroke: #262626; stroke-width: 0.5"/>
      </g>
     </g>
    </g>
    <g id="ytick_15">
     <g id="line2d_40">
      <g>
       <use xlink:href="#m25870c9299" x="850.307939" y="220.059167" style="fill: #262626; stroke: #262626; stroke-width: 0.5"/>
      </g>
     </g>
    </g>
    <g id="ytick_16">
     <g id="line2d_41">
      <g>
       <use xlink:href="#m25870c9299" x="850.307939" y="208.54117" style="fill: #262626; stroke: #262626; stroke-width: 0.5"/>
      </g>
     </g>
    </g>
    <g id="ytick_17">
     <g id="line2d_42">
      <g>
       <use xlink:href="#m25870c9299" x="850.307939" y="197.023173" style="fill: #262626; stroke: #262626; stroke-width: 0.5"/>
      </g>
     </g>
    </g>
    <g id="ytick_18">
     <g id="line2d_43">
      <g>
       <use xlink:href="#m25870c9299" x="850.307939" y="173.987178" style="fill: #262626; stroke: #262626; stroke-width: 0.5"/>
      </g>
     </g>
    </g>
    <g id="ytick_19">
     <g id="line2d_44">
      <g>
       <use xlink:href="#m25870c9299" x="850.307939" y="162.46918" style="fill: #262626; stroke: #262626; stroke-width: 0.5"/>
      </g>
     </g>
    </g>
    <g id="ytick_20">
     <g id="line2d_45">
      <g>
       <use xlink:href="#m25870c9299" x="850.307939" y="150.951183" style="fill: #262626; stroke: #262626; stroke-width: 0.5"/>
      </g>
     </g>
    </g>
    <g id="ytick_21">
     <g id="line2d_46">
      <g>
       <use xlink:href="#m25870c9299" x="850.307939" y="139.433186" style="fill: #262626; stroke: #262626; stroke-width: 0.5"/>
      </g>
     </g>
    </g>
    <g id="ytick_22">
     <g id="line2d_47">
      <g>
       <use xlink:href="#m25870c9299" x="850.307939" y="116.397191" style="fill: #262626; stroke: #262626; stroke-width: 0.5"/>
      </g>
     </g>
    </g>
    <g id="ytick_23">
     <g id="line2d_48">
      <g>
       <use xlink:href="#m25870c9299" x="850.307939" y="104.879193" style="fill: #262626; stroke: #262626; stroke-width: 0.5"/>
      </g>
     </g>
    </g>
    <g id="ytick_24">
     <g id="line2d_49">
      <g>
       <use xlink:href="#m25870c9299" x="850.307939" y="93.361196" style="fill: #262626; stroke: #262626; stroke-width: 0.5"/>
      </g>
     </g>
    </g>
    <g id="ytick_25">
     <g id="line2d_50">
      <g>
       <use xlink:href="#m25870c9299" x="850.307939" y="81.843199" style="fill: #262626; stroke: #262626; stroke-width: 0.5"/>
      </g>
     </g>
    </g>
    <g id="ytick_26">
     <g id="line2d_51">
      <g>
       <use xlink:href="#m25870c9299" x="850.307939" y="58.807204" style="fill: #262626; stroke: #262626; stroke-width: 0.5"/>
      </g>
     </g>
    </g>
    <g id="ytick_27">
     <g id="line2d_52">
      <g>
       <use xlink:href="#m25870c9299" x="850.307939" y="47.289207" style="fill: #262626; stroke: #262626; stroke-width: 0.5"/>
      </g>
     </g>
    </g>
    <g id="ytick_28">
     <g id="line2d_53">
      <g>
       <use xlink:href="#m25870c9299" x="850.307939" y="35.771209" style="fill: #262626; stroke: #262626; stroke-width: 0.5"/>
      </g>
     </g>
    </g>
    <g id="ytick_29">
     <g id="line2d_54">
      <g>
       <use xlink:href="#m25870c9299" x="850.307939" y="24.253212" style="fill: #262626; stroke: #262626; stroke-width: 0.5"/>
      </g>
     </g>
    </g>
    <g id="text_11">
     <!-- Età (anni) -->
     <g style="fill: #262626" transform="translate(12.718125 214.862988) rotate(-90) scale(0.12 -0.12)">
      <defs>
       <path id="DejaVuSans-45" d="M 628 4666 
L 3578 4666 
L 3578 4134 
L 1259 4134 
L 1259 2753 
L 3481 2753 
L 3481 2222 
L 1259 2222 
L 1259 531 
L 3634 531 
L 3634 0 
L 628 0 
L 628 4666 
z
" transform="scale(0.015625)"/>
       <path id="DejaVuSans-e0" d="M 2194 1759 
Q 1497 1759 1228 1600 
Q 959 1441 959 1056 
Q 959 750 1161 570 
Q 1363 391 1709 391 
Q 2188 391 2477 730 
Q 2766 1069 2766 1631 
L 2766 1759 
L 2194 1759 
z
M 3341 1997 
L 3341 0 
L 2766 0 
L 2766 531 
Q 2569 213 2275 61 
Q 1981 -91 1556 -91 
Q 1019 -91 701 211 
Q 384 513 384 1019 
Q 384 1609 779 1909 
Q 1175 2209 1959 2209 
L 2766 2209 
L 2766 2266 
Q 2766 2663 2505 2880 
Q 2244 3097 1772 3097 
Q 1472 3097 1187 3025 
Q 903 2953 641 2809 
L 641 3341 
Q 956 3463 1253 3523 
Q 1550 3584 1831 3584 
Q 2591 3584 2966 3190 
Q 3341 2797 3341 1997 
z
M 1403 5119 
L 2284 3950 
L 1806 3950 
L 787 5119 
L 1403 5119 
z
" transform="scale(0.015625)"/>
       <path id="DejaVuSans-28" d="M 1984 4856 
Q 1566 4138 1362 3434 
Q 1159 2731 1159 2009 
Q 1159 1288 1364 580 
Q 1569 -128 1984 -844 
L 1484 -844 
Q 1016 -109 783 600 
Q 550 1309 550 2009 
Q 550 2706 781 3412 
Q 1013 4119 1484 4856 
L 1984 4856 
z
" transform="scale(0.015625)"/>
       <path id="DejaVuSans-29" d="M 513 4856 
L 1013 4856 
Q 1481 4119 1714 3412 
Q 1947 2706 1947 2009 
Q 1947 1309 1714 600 
Q 1481 -109 1013 -844 
L 513 -844 
Q 928 -128 1133 580 
Q 1338 1288 1338 2009 
Q 1338 2731 1133 3434 
Q 928 4138 513 4856 
z
" transform="scale(0.015625)"/>
      </defs>
      <use xlink:href="#DejaVuSans-45"/>
      <use xlink:href="#DejaVuSans-74" transform="translate(63.183594 0)"/>
      <use xlink:href="#DejaVuSans-e0" transform="translate(102.392578 0)"/>
      <use xlink:href="#DejaVuSans-20" transform="translate(163.671875 0)"/>
      <use xlink:href="#DejaVuSans-28" transform="translate(195.458984 0)"/>
      <use xlink:href="#DejaVuSans-61" transform="translate(234.472656 0)"/>
      <use xlink:href="#DejaVuSans-6e" transform="translate(295.751953 0)"/>
      <use xlink:href="#DejaVuSans-6e" transform="translate(359.130859 0)"/>
      <use xlink:href="#DejaVuSans-69" transform="translate(422.509766 0)"/>
      <use xlink:href="#DejaVuSans-29" transform="translate(450.292969 0)"/>
     </g>
    </g>
   </g>
   <g id="patch_3">
    <path d="M 57.131605 329.480143 
L 219.834443 329.480143 
L 219.834443 317.962145 
L 57.131605 317.962145 
L 57.131605 329.480143 
z
" clip-path="url(#p8af5af90d4)" style="fill: #df2020; stroke: #343434; stroke-linejoin: miter"/>
   </g>
   <g id="line2d_55">
    <path d="M 138.483024 329.480143 
L 138.483024 335.239141 
" clip-path="url(#p8af5af90d4)" style="fill: none; stroke: #343434"/>
   </g>
   <g id="line2d_56">
    <path d="M 138.483024 317.962145 
L 138.483024 300.685149 
" clip-path="url(#p8af5af90d4)" style="fill: none; stroke: #343434"/>
   </g>
   <g id="line2d_57">
    <path d="M 97.807314 335.239141 
L 179.158733 335.239141 
" clip-path="url(#p8af5af90d4)" style="fill: none; stroke: #343434; stroke-linecap: round"/>
   </g>
   <g id="line2d_58">
    <path d="M 97.807314 300.685149 
L 179.158733 300.685149 
" clip-path="url(#p8af5af90d4)" style="fill: none; stroke: #343434; stroke-linecap: round"/>
   </g>
   <g id="line2d_59">
    <defs>
     <path id="mb5f88d0308" d="M 0 3 
C 0.795609 3 1.55874 2.683901 2.12132 2.12132 
C 2.683901 1.55874 3 0.795609 3 0 
C 3 -0.795609 2.683901 -1.55874 2.12132 -2.12132 
C 1.55874 -2.683901 0.795609 -3 0 -3 
C -0.795609 -3 -1.55874 -2.683901 -2.12132 -2.12132 
C -2.683901 -1.55874 -3 -0.795609 -3 0 
C -3 0.795609 -2.683901 1.55874 -2.12132 2.12132 
C -1.55874 2.683901 -0.795609 3 0 3 
z
" style="stroke: #343434"/>
    </defs>
    <g clip-path="url(#p8af5af90d4)">
     <use xlink:href="#mb5f88d0308" x="138.483024" y="185.505175" style="fill-opacity: 0; stroke: #343434"/>
    </g>
   </g>
   <g id="patch_4">
    <path d="M 260.510152 289.167152 
L 423.21299 289.167152 
L 423.21299 283.408153 
L 260.510152 283.408153 
L 260.510152 289.167152 
z
" clip-path="url(#p8af5af90d4)" style="fill: #2f7e2f; stroke: #343434; stroke-linejoin: miter"/>
   </g>
   <g id="line2d_60">
    <path d="M 341.861571 289.167152 
L 341.861571 294.926151 
" clip-path="url(#p8af5af90d4)" style="fill: none; stroke: #343434"/>
   </g>
   <g id="line2d_61">
    <path d="M 341.861571 283.408153 
L 341.861571 277.649154 
" clip-path="url(#p8af5af90d4)" style="fill: none; stroke: #343434"/>
   </g>
   <g id="line2d_62">
    <path d="M 301.185862 294.926151 
L 382.537281 294.926151 
" clip-path="url(#p8af5af90d4)" style="fill: none; stroke: #343434; stroke-linecap: round"/>
   </g>
   <g id="line2d_63">
    <path d="M 301.185862 277.649154 
L 382.537281 277.649154 
" clip-path="url(#p8af5af90d4)" style="fill: none; stroke: #343434; stroke-linecap: round"/>
   </g>
   <g id="line2d_64">
    <g clip-path="url(#p8af5af90d4)">
     <use xlink:href="#mb5f88d0308" x="341.861571" y="306.444148" style="fill-opacity: 0; stroke: #343434"/>
     <use xlink:href="#mb5f88d0308" x="341.861571" y="300.685149" style="fill-opacity: 0; stroke: #343434"/>
     <use xlink:href="#mb5f88d0308" x="341.861571" y="300.685149" style="fill-opacity: 0; stroke: #343434"/>
     <use xlink:href="#mb5f88d0308" x="341.861571" y="306.444148" style="fill-opacity: 0; stroke: #343434"/>
     <use xlink:href="#mb5f88d0308" x="341.861571" y="306.444148" style="fill-opacity: 0; stroke: #343434"/>
     <use xlink:href="#mb5f88d0308" x="341.861571" y="306.444148" style="fill-opacity: 0; stroke: #343434"/>
     <use xlink:href="#mb5f88d0308" x="341.861571" y="306.444148" style="fill-opacity: 0; stroke: #343434"/>
     <use xlink:href="#mb5f88d0308" x="341.861571" y="300.685149" style="fill-opacity: 0; stroke: #343434"/>
     <use xlink:href="#mb5f88d0308" x="341.861571" y="300.685149" style="fill-opacity: 0; stroke: #343434"/>
     <use xlink:href="#mb5f88d0308" x="341.861571" y="300.685149" style="fill-opacity: 0; stroke: #343434"/>
     <use xlink:href="#mb5f88d0308" x="341.861571" y="306.444148" style="fill-opacity: 0; stroke: #343434"/>
     <use xlink:href="#mb5f88d0308" x="341.861571" y="300.685149" style="fill-opacity: 0; stroke: #343434"/>
     <use xlink:href="#mb5f88d0308" x="341.861571" y="312.203147" style="fill-opacity: 0; stroke: #343434"/>
     <use xlink:href="#mb5f88d0308" x="341.861571" y="300.685149" style="fill-opacity: 0; stroke: #343434"/>
     <use xlink:href="#mb5f88d0308" x="341.861571" y="312.203147" style="fill-opacity: 0; stroke: #343434"/>
     <use xlink:href="#mb5f88d0308" x="341.861571" y="306.444148" style="fill-opacity: 0; stroke: #343434"/>
     <use xlink:href="#mb5f88d0308" x="341.861571" y="300.685149" style="fill-opacity: 0; stroke: #343434"/>
     <use xlink:href="#mb5f88d0308" x="341.861571" y="300.685149" style="fill-opacity: 0; stroke: #343434"/>
     <use xlink:href="#mb5f88d0308" x="341.861571" y="306.444148" style="fill-opacity: 0; stroke: #343434"/>
     <use xlink:href="#mb5f88d0308" x="341.861571" y="300.685149" style="fill-opacity: 0; stroke: #343434"/>
     <use xlink:href="#mb5f88d0308" x="341.861571" y="306.444148" style="fill-opacity: 0; stroke: #343434"/>
     <use xlink:href="#mb5f88d0308" x="341.861571" y="306.444148" style="fill-opacity: 0; stroke: #343434"/>
     <use xlink:href="#mb5f88d0308" x="341.861571" y="306.444148" style="fill-opacity: 0; stroke: #343434"/>
     <use xlink:href="#mb5f88d0308" x="341.861571" y="306.444148" style="fill-opacity: 0; stroke: #343434"/>
     <use xlink:href="#mb5f88d0308" x="341.861571" y="300.685149" style="fill-opacity: 0; stroke: #343434"/>
     <use xlink:href="#mb5f88d0308" x="341.861571" y="300.685149" style="fill-opacity: 0; stroke: #343434"/>
     <use xlink:href="#mb5f88d0308" x="341.861571" y="306.444148" style="fill-opacity: 0; stroke: #343434"/>
     <use xlink:href="#mb5f88d0308" x="341.861571" y="300.685149" style="fill-opacity: 0; stroke: #343434"/>
     <use xlink:href="#mb5f88d0308" x="341.861571" y="317.962145" style="fill-opacity: 0; stroke: #343434"/>
     <use xlink:href="#mb5f88d0308" x="341.861571" y="266.131157" style="fill-opacity: 0; stroke: #343434"/>
     <use xlink:href="#mb5f88d0308" x="341.861571" y="248.854161" style="fill-opacity: 0; stroke: #343434"/>
     <use xlink:href="#mb5f88d0308" x="341.861571" y="156.710182" style="fill-opacity: 0; stroke: #343434"/>
     <use xlink:href="#mb5f88d0308" x="341.861571" y="133.674187" style="fill-opacity: 0; stroke: #343434"/>
     <use xlink:href="#mb5f88d0308" x="341.861571" y="127.915188" style="fill-opacity: 0; stroke: #343434"/>
     <use xlink:href="#mb5f88d0308" x="341.861571" y="237.336164" style="fill-opacity: 0; stroke: #343434"/>
     <use xlink:href="#mb5f88d0308" x="341.861571" y="139.433186" style="fill-opacity: 0; stroke: #343434"/>
     <use xlink:href="#mb5f88d0308" x="341.861571" y="266.131157" style="fill-opacity: 0; stroke: #343434"/>
     <use xlink:href="#mb5f88d0308" x="341.861571" y="162.46918" style="fill-opacity: 0; stroke: #343434"/>
     <use xlink:href="#mb5f88d0308" x="341.861571" y="81.843199" style="fill-opacity: 0; stroke: #343434"/>
     <use xlink:href="#mb5f88d0308" x="341.861571" y="156.710182" style="fill-opacity: 0; stroke: #343434"/>
     <use xlink:href="#mb5f88d0308" x="341.861571" y="133.674187" style="fill-opacity: 0; stroke: #343434"/>
     <use xlink:href="#mb5f88d0308" x="341.861571" y="179.746177" style="fill-opacity: 0; stroke: #343434"/>
     <use xlink:href="#mb5f88d0308" x="341.861571" y="248.854161" style="fill-opacity: 0; stroke: #343434"/>
     <use xlink:href="#mb5f88d0308" x="341.861571" y="271.890156" style="fill-opacity: 0; stroke: #343434"/>
     <use xlink:href="#mb5f88d0308" x="341.861571" y="271.890156" style="fill-opacity: 0; stroke: #343434"/>
     <use xlink:href="#mb5f88d0308" x="341.861571" y="271.890156" style="fill-opacity: 0; stroke: #343434"/>
     <use xlink:href="#mb5f88d0308" x="341.861571" y="266.131157" style="fill-opacity: 0; stroke: #343434"/>
     <use xlink:href="#mb5f88d0308" x="341.861571" y="266.131157" style="fill-opacity: 0; stroke: #343434"/>
     <use xlink:href="#mb5f88d0308" x="341.861571" y="231.577165" style="fill-opacity: 0; stroke: #343434"/>
     <use xlink:href="#mb5f88d0308" x="341.861571" y="271.890156" style="fill-opacity: 0; stroke: #343434"/>
     <use xlink:href="#mb5f88d0308" x="341.861571" y="266.131157" style="fill-opacity: 0; stroke: #343434"/>
     <use xlink:href="#mb5f88d0308" x="341.861571" y="260.372158" style="fill-opacity: 0; stroke: #343434"/>
     <use xlink:href="#mb5f88d0308" x="341.861571" y="173.987178" style="fill-opacity: 0; stroke: #343434"/>
     <use xlink:href="#mb5f88d0308" x="341.861571" y="248.854161" style="fill-opacity: 0; stroke: #343434"/>
    </g>
   </g>
   <g id="patch_5">
    <path d="M 463.888699 243.095162 
L 626.591537 243.095162 
L 626.591537 168.228179 
L 463.888699 168.228179 
L 463.888699 243.095162 
z
" clip-path="url(#p8af5af90d4)" style="fill: #dfc120; stroke: #343434; stroke-linejoin: miter"/>
   </g>
   <g id="line2d_65">
    <path d="M 545.240118 243.095162 
L 545.240118 289.167152 
" clip-path="url(#p8af5af90d4)" style="fill: none; stroke: #343434"/>
   </g>
   <g id="line2d_66">
    <path d="M 545.240118 168.228179 
L 545.240118 93.361196 
" clip-path="url(#p8af5af90d4)" style="fill: none; stroke: #343434"/>
   </g>
   <g id="line2d_67">
    <path d="M 504.564409 289.167152 
L 585.915828 289.167152 
" clip-path="url(#p8af5af90d4)" style="fill: none; stroke: #343434; stroke-linecap: round"/>
   </g>
   <g id="line2d_68">
    <path d="M 504.564409 93.361196 
L 585.915828 93.361196 
" clip-path="url(#p8af5af90d4)" style="fill: none; stroke: #343434; stroke-linecap: round"/>
   </g>
   <g id="line2d_69"/>
   <g id="patch_6">
    <path d="M 667.267247 191.264174 
L 829.970085 191.264174 
L 829.970085 110.638192 
L 667.267247 110.638192 
L 667.267247 191.264174 
z
" clip-path="url(#p8af5af90d4)" style="fill: #5573cd; stroke: #343434; stroke-linejoin: miter"/>
   </g>
   <g id="line2d_70">
    <path d="M 748.618666 191.264174 
L 748.618666 300.685149 
" clip-path="url(#p8af5af90d4)" style="fill: none; stroke: #343434"/>
   </g>
   <g id="line2d_71">
    <path d="M 748.618666 110.638192 
L 748.618666 35.771209 
" clip-path="url(#p8af5af90d4)" style="fill: none; stroke: #343434"/>
   </g>
   <g id="line2d_72">
    <path d="M 707.942956 300.685149 
L 789.294375 300.685149 
" clip-path="url(#p8af5af90d4)" style="fill: none; stroke: #343434; stroke-linecap: round"/>
   </g>
   <g id="line2d_73">
    <path d="M 707.942956 35.771209 
L 789.294375 35.771209 
" clip-path="url(#p8af5af90d4)" style="fill: none; stroke: #343434; stroke-linecap: round"/>
   </g>
   <g id="line2d_74"/>
   <g id="line2d_75">
    <path d="M 57.131605 326.600643 
L 219.834443 326.600643 
" clip-path="url(#p8af5af90d4)" style="fill: none; stroke: #343434"/>
   </g>
   <g id="line2d_76">
    <path d="M 260.510152 289.167152 
L 423.21299 289.167152 
" clip-path="url(#p8af5af90d4)" style="fill: none; stroke: #343434"/>
   </g>
   <g id="line2d_77">
    <path d="M 463.888699 208.54117 
L 626.591537 208.54117 
" clip-path="url(#p8af5af90d4)" style="fill: none; stroke: #343434"/>
   </g>
   <g id="line2d_78">
    <path d="M 667.267247 150.951183 
L 829.970085 150.951183 
" clip-path="url(#p8af5af90d4)" style="fill: none; stroke: #343434"/>
   </g>
   <g id="patch_7">
    <path d="M 36.79375 350.212538 
L 36.79375 20.797812 
" style="fill: none; stroke: #cccccc; stroke-width: 0.5; stroke-linejoin: miter; stroke-linecap: square"/>
   </g>
   <g id="patch_8">
    <path d="M 850.307939 350.212538 
L 850.307939 20.797812 
" style="fill: none; stroke: #cccccc; stroke-width: 0.5; stroke-linejoin: miter; stroke-linecap: square"/>
   </g>
   <g id="patch_9">
    <path d="M 36.79375 350.212538 
L 850.307939 350.212538 
" style="fill: none; stroke: #cccccc; stroke-width: 0.5; stroke-linejoin: miter; stroke-linecap: square"/>
   </g>
   <g id="patch_10">
    <path d="M 36.79375 20.797812 
L 850.307939 20.797812 
" style="fill: none; stroke: #cccccc; stroke-width: 0.5; stroke-linejoin: miter; stroke-linecap: square"/>
   </g>
   <g id="text_12">
    <!-- Distribuzione dell'età per gruppo (box plot con outlier) -->
    <g style="fill: #262626" transform="translate(226.52897 14.797812) scale(0.14 -0.14)">
     <defs>
      <path id="DejaVuSans-Bold-44" d="M 1791 3756 
L 1791 909 
L 2222 909 
Q 2959 909 3348 1275 
Q 3738 1641 3738 2338 
Q 3738 3031 3350 3393 
Q 2963 3756 2222 3756 
L 1791 3756 
z
M 588 4666 
L 1856 4666 
Q 2919 4666 3439 4514 
Q 3959 4363 4331 4000 
Q 4659 3684 4818 3271 
Q 4978 2859 4978 2338 
Q 4978 1809 4818 1395 
Q 4659 981 4331 666 
Q 3956 303 3431 151 
Q 2906 0 1856 0 
L 588 0 
L 588 4666 
z
" transform="scale(0.015625)"/>
      <path id="DejaVuSans-Bold-69" d="M 538 3500 
L 1656 3500 
L 1656 0 
L 538 0 
L 538 3500 
z
M 538 4863 
L 1656 4863 
L 1656 3950 
L 538 3950 
L 538 4863 
z
" transform="scale(0.015625)"/>
      <path id="DejaVuSans-Bold-73" d="M 3272 3391 
L 3272 2541 
Q 2913 2691 2578 2766 
Q 2244 2841 1947 2841 
Q 1628 2841 1473 2761 
Q 1319 2681 1319 2516 
Q 1319 2381 1436 2309 
Q 1553 2238 1856 2203 
L 2053 2175 
Q 2913 2066 3209 1816 
Q 3506 1566 3506 1031 
Q 3506 472 3093 190 
Q 2681 -91 1863 -91 
Q 1516 -91 1145 -36 
Q 775 19 384 128 
L 384 978 
Q 719 816 1070 734 
Q 1422 653 1784 653 
Q 2113 653 2278 743 
Q 2444 834 2444 1013 
Q 2444 1163 2330 1236 
Q 2216 1309 1875 1350 
L 1678 1375 
Q 931 1469 631 1722 
Q 331 1975 331 2491 
Q 331 3047 712 3315 
Q 1094 3584 1881 3584 
Q 2191 3584 2531 3537 
Q 2872 3491 3272 3391 
z
" transform="scale(0.015625)"/>
      <path id="DejaVuSans-Bold-74" d="M 1759 4494 
L 1759 3500 
L 2913 3500 
L 2913 2700 
L 1759 2700 
L 1759 1216 
Q 1759 972 1856 886 
Q 1953 800 2241 800 
L 2816 800 
L 2816 0 
L 1856 0 
Q 1194 0 917 276 
Q 641 553 641 1216 
L 641 2700 
L 84 2700 
L 84 3500 
L 641 3500 
L 641 4494 
L 1759 4494 
z
" transform="scale(0.015625)"/>
      <path id="DejaVuSans-Bold-72" d="M 3138 2547 
Q 2991 2616 2845 2648 
Q 2700 2681 2553 2681 
Q 2122 2681 1889 2404 
Q 1656 2128 1656 1613 
L 1656 0 
L 538 0 
L 538 3500 
L 1656 3500 
L 1656 2925 
Q 1872 3269 2151 3426 
Q 2431 3584 2822 3584 
Q 2878 3584 2943 3579 
Q 3009 3575 3134 3559 
L 3138 2547 
z
" transform="scale(0.015625)"/>
      <path id="DejaVuSans-Bold-62" d="M 2400 722 
Q 2759 722 2948 984 
Q 3138 1247 3138 1747 
Q 3138 2247 2948 2509 
Q 2759 2772 2400 2772 
Q 2041 2772 1848 2508 
Q 1656 2244 1656 1747 
Q 1656 1250 1848 986 
Q 2041 722 2400 722 
z
M 1656 2988 
Q 1888 3294 2169 3439 
Q 2450 3584 2816 3584 
Q 3463 3584 3878 3070 
Q 4294 2556 4294 1747 
Q 4294 938 3878 423 
Q 3463 -91 2816 -91 
Q 2450 -91 2169 54 
Q 1888 200 1656 506 
L 1656 0 
L 538 0 
L 538 4863 
L 1656 4863 
L 1656 2988 
z
" transform="scale(0.015625)"/>
      <path id="DejaVuSans-Bold-75" d="M 500 1363 
L 500 3500 
L 1625 3500 
L 1625 3150 
Q 1625 2866 1622 2436 
Q 1619 2006 1619 1863 
Q 1619 1441 1641 1255 
Q 1663 1069 1716 984 
Q 1784 875 1895 815 
Q 2006 756 2150 756 
Q 2500 756 2700 1025 
Q 2900 1294 2900 1772 
L 2900 3500 
L 4019 3500 
L 4019 0 
L 2900 0 
L 2900 506 
Q 2647 200 2364 54 
Q 2081 -91 1741 -91 
Q 1134 -91 817 281 
Q 500 653 500 1363 
z
" transform="scale(0.015625)"/>
      <path id="DejaVuSans-Bold-7a" d="M 366 3500 
L 3419 3500 
L 3419 2719 
L 1575 800 
L 3419 800 
L 3419 0 
L 288 0 
L 288 781 
L 2131 2700 
L 366 2700 
L 366 3500 
z
" transform="scale(0.015625)"/>
      <path id="DejaVuSans-Bold-6f" d="M 2203 2784 
Q 1831 2784 1636 2517 
Q 1441 2250 1441 1747 
Q 1441 1244 1636 976 
Q 1831 709 2203 709 
Q 2569 709 2762 976 
Q 2956 1244 2956 1747 
Q 2956 2250 2762 2517 
Q 2569 2784 2203 2784 
z
M 2203 3584 
Q 3106 3584 3614 3096 
Q 4122 2609 4122 1747 
Q 4122 884 3614 396 
Q 3106 -91 2203 -91 
Q 1297 -91 786 396 
Q 275 884 275 1747 
Q 275 2609 786 3096 
Q 1297 3584 2203 3584 
z
" transform="scale(0.015625)"/>
      <path id="DejaVuSans-Bold-6e" d="M 4056 2131 
L 4056 0 
L 2931 0 
L 2931 347 
L 2931 1631 
Q 2931 2084 2911 2256 
Q 2891 2428 2841 2509 
Q 2775 2619 2662 2680 
Q 2550 2741 2406 2741 
Q 2056 2741 1856 2470 
Q 1656 2200 1656 1722 
L 1656 0 
L 538 0 
L 538 3500 
L 1656 3500 
L 1656 2988 
Q 1909 3294 2193 3439 
Q 2478 3584 2822 3584 
Q 3428 3584 3742 3212 
Q 4056 2841 4056 2131 
z
" transform="scale(0.015625)"/>
      <path id="DejaVuSans-Bold-65" d="M 4031 1759 
L 4031 1441 
L 1416 1441 
Q 1456 1047 1700 850 
Q 1944 653 2381 653 
Q 2734 653 3104 758 
Q 3475 863 3866 1075 
L 3866 213 
Q 3469 63 3072 -14 
Q 2675 -91 2278 -91 
Q 1328 -91 801 392 
Q 275 875 275 1747 
Q 275 2603 792 3093 
Q 1309 3584 2216 3584 
Q 3041 3584 3536 3087 
Q 4031 2591 4031 1759 
z
M 2881 2131 
Q 2881 2450 2695 2645 
Q 2509 2841 2209 2841 
Q 1884 2841 1681 2658 
Q 1478 2475 1428 2131 
L 2881 2131 
z
" transform="scale(0.015625)"/>
      <path id="DejaVuSans-Bold-20" transform="scale(0.015625)"/>
      <path id="DejaVuSans-Bold-64" d="M 2919 2988 
L 2919 4863 
L 4044 4863 
L 4044 0 
L 2919 0 
L 2919 506 
Q 2688 197 2409 53 
Q 2131 -91 1766 -91 
Q 1119 -91 703 423 
Q 288 938 288 1747 
Q 288 2556 703 3070 
Q 1119 3584 1766 3584 
Q 2128 3584 2408 3439 
Q 2688 3294 2919 2988 
z
M 2181 722 
Q 2541 722 2730 984 
Q 2919 1247 2919 1747 
Q 2919 2247 2730 2509 
Q 2541 2772 2181 2772 
Q 1825 2772 1636 2509 
Q 1447 2247 1447 1747 
Q 1447 1247 1636 984 
Q 1825 722 2181 722 
z
" transform="scale(0.015625)"/>
      <path id="DejaVuSans-Bold-6c" d="M 538 4863 
L 1656 4863 
L 1656 0 
L 538 0 
L 538 4863 
z
" transform="scale(0.015625)"/>
      <path id="DejaVuSans-Bold-27" d="M 1350 4666 
L 1350 2931 
L 609 2931 
L 609 4666 
L 1350 4666 
z
" transform="scale(0.015625)"/>
      <path id="DejaVuSans-Bold-e0" d="M 2106 1575 
Q 1756 1575 1579 1456 
Q 1403 1338 1403 1106 
Q 1403 894 1545 773 
Q 1688 653 1941 653 
Q 2256 653 2472 879 
Q 2688 1106 2688 1447 
L 2688 1575 
L 2106 1575 
z
M 3816 1997 
L 3816 0 
L 2688 0 
L 2688 519 
Q 2463 200 2181 54 
Q 1900 -91 1497 -91 
Q 953 -91 614 226 
Q 275 544 275 1050 
Q 275 1666 698 1953 
Q 1122 2241 2028 2241 
L 2688 2241 
L 2688 2328 
Q 2688 2594 2478 2717 
Q 2269 2841 1825 2841 
Q 1466 2841 1156 2769 
Q 847 2697 581 2553 
L 581 3406 
Q 941 3494 1303 3539 
Q 1666 3584 2028 3584 
Q 2975 3584 3395 3211 
Q 3816 2838 3816 1997 
z
M 1762 5119 
L 2643 3944 
L 2031 3944 
L 878 5119 
L 1762 5119 
z
" transform="scale(0.015625)"/>
      <path id="DejaVuSans-Bold-70" d="M 1656 506 
L 1656 -1331 
L 538 -1331 
L 538 3500 
L 1656 3500 
L 1656 2988 
Q 1888 3294 2169 3439 
Q 2450 3584 2816 3584 
Q 3463 3584 3878 3070 
Q 4294 2556 4294 1747 
Q 4294 938 3878 423 
Q 3463 -91 2816 -91 
Q 2450 -91 2169 54 
Q 1888 200 1656 506 
z
M 2400 2772 
Q 2041 2772 1848 2508 
Q 1656 2244 1656 1747 
Q 1656 1250 1848 986 
Q 2041 722 2400 722 
Q 2759 722 2948 984 
Q 3138 1247 3138 1747 
Q 3138 2247 2948 2509 
Q 2759 2772 2400 2772 
z
" transform="scale(0.015625)"/>
      <path id="DejaVuSans-Bold-67" d="M 2919 594 
Q 2688 288 2409 144 
Q 2131 0 1766 0 
Q 1125 0 706 504 
Q 288 1009 288 1791 
Q 288 2575 706 3076 
Q 1125 3578 1766 3578 
Q 2131 3578 2409 3434 
Q 2688 3291 2919 2981 
L 2919 3500 
L 4044 3500 
L 4044 353 
Q 4044 -491 3511 -936 
Q 2978 -1381 1966 -1381 
Q 1638 -1381 1331 -1331 
Q 1025 -1281 716 -1178 
L 716 -306 
Q 1009 -475 1290 -558 
Q 1572 -641 1856 -641 
Q 2406 -641 2662 -400 
Q 2919 -159 2919 353 
L 2919 594 
z
M 2181 2772 
Q 1834 2772 1640 2515 
Q 1447 2259 1447 1791 
Q 1447 1309 1634 1061 
Q 1822 813 2181 813 
Q 2531 813 2725 1069 
Q 2919 1325 2919 1791 
Q 2919 2259 2725 2515 
Q 2531 2772 2181 2772 
z
" transform="scale(0.015625)"/>
      <path id="DejaVuSans-Bold-28" d="M 2413 -844 
L 1484 -844 
Q 1006 -72 778 623 
Q 550 1319 550 2003 
Q 550 2688 779 3389 
Q 1009 4091 1484 4856 
L 2413 4856 
Q 2013 4116 1813 3408 
Q 1613 2700 1613 2009 
Q 1613 1319 1811 609 
Q 2009 -100 2413 -844 
z
" transform="scale(0.015625)"/>
      <path id="DejaVuSans-Bold-78" d="M 1422 1791 
L 159 3500 
L 1344 3500 
L 2059 2463 
L 2784 3500 
L 3969 3500 
L 2706 1797 
L 4031 0 
L 2847 0 
L 2059 1106 
L 1281 0 
L 97 0 
L 1422 1791 
z
" transform="scale(0.015625)"/>
      <path id="DejaVuSans-Bold-63" d="M 3366 3391 
L 3366 2478 
Q 3138 2634 2908 2709 
Q 2678 2784 2431 2784 
Q 1963 2784 1702 2511 
Q 1441 2238 1441 1747 
Q 1441 1256 1702 982 
Q 1963 709 2431 709 
Q 2694 709 2930 787 
Q 3166 866 3366 1019 
L 3366 103 
Q 3103 6 2833 -42 
Q 2563 -91 2291 -91 
Q 1344 -91 809 395 
Q 275 881 275 1747 
Q 275 2613 809 3098 
Q 1344 3584 2291 3584 
Q 2566 3584 2833 3536 
Q 3100 3488 3366 3391 
z
" transform="scale(0.015625)"/>
      <path id="DejaVuSans-Bold-29" d="M 513 -844 
Q 913 -100 1113 609 
Q 1313 1319 1313 2009 
Q 1313 2700 1113 3408 
Q 913 4116 513 4856 
L 1441 4856 
Q 1916 4091 2145 3389 
Q 2375 2688 2375 2003 
Q 2375 1319 2147 623 
Q 1919 -72 1441 -844 
L 513 -844 
z
" transform="scale(0.015625)"/>
     </defs>
     <use xlink:href="#DejaVuSans-Bold-44"/>
     <use xlink:href="#DejaVuSans-Bold-69" transform="translate(83.007812 0)"/>
     <use xlink:href="#DejaVuSans-Bold-73" transform="translate(117.285156 0)"/>
     <use xlink:href="#DejaVuSans-Bold-74" transform="translate(176.806641 0)"/>
     <use xlink:href="#DejaVuSans-Bold-72" transform="translate(224.609375 0)"/>
     <use xlink:href="#DejaVuSans-Bold-69" transform="translate(273.925781 0)"/>
     <use xlink:href="#DejaVuSans-Bold-62" transform="translate(308.203125 0)"/>
     <use xlink:href="#DejaVuSans-Bold-75" transform="translate(379.785156 0)"/>
     <use xlink:href="#DejaVuSans-Bold-7a" transform="translate(450.976562 0)"/>
     <use xlink:href="#DejaVuSans-Bold-69" transform="translate(509.179688 0)"/>
     <use xlink:href="#DejaVuSans-Bold-6f" transform="translate(543.457031 0)"/>
     <use xlink:href="#DejaVuSans-Bold-6e" transform="translate(612.158203 0)"/>
     <use xlink:href="#DejaVuSans-Bold-65" transform="translate(683.349609 0)"/>
     <use xlink:href="#DejaVuSans-Bold-20" transform="translate(751.171875 0)"/>
     <use xlink:href="#DejaVuSans-Bold-64" transform="translate(785.986328 0)"/>
     <use xlink:href="#DejaVuSans-Bold-65" transform="translate(857.568359 0)"/>
     <use xlink:href="#DejaVuSans-Bold-6c" transform="translate(925.390625 0)"/>
     <use xlink:href="#DejaVuSans-Bold-6c" transform="translate(959.667969 0)"/>
     <use xlink:href="#DejaVuSans-Bold-27" transform="translate(993.945312 0)"/>
     <use xlink:href="#DejaVuSans-Bold-65" transform="translate(1024.560547 0)"/>
     <use xlink:href="#DejaVuSans-Bold-74" transform="translate(1092.382812 0)"/>
     <use xlink:href="#DejaVuSans-Bold-e0" transform="translate(1140.185547 0)"/>
     <use xlink:href="#DejaVuSans-Bold-20" transform="translate(1207.666016 0)"/>
     <use xlink:href="#DejaVuSans-Bold-70" transform="translate(1242.480469 0)"/>
     <use xlink:href="#DejaVuSans-Bold-65" transform="translate(1314.0625 0)"/>
     <use xlink:href="#DejaVuSans-Bold-72" transform="translate(1381.884766 0)"/>
     <use xlink:href="#DejaVuSans-Bold-20" transform="translate(1431.201172 0)"/>
     <use xlink:href="#DejaVuSans-Bold-67" transform="translate(1466.015625 0)"/>
     <use xlink:href="#DejaVuSans-Bold-72" transform="translate(1537.597656 0)"/>
     <use xlink:href="#DejaVuSans-Bold-75" transform="translate(1586.914062 0)"/>
     <use xlink:href="#DejaVuSans-Bold-70" transform="translate(1658.105469 0)"/>
     <use xlink:href="#DejaVuSans-Bold-70" transform="translate(1729.6875 0)"/>
     <use xlink:href="#DejaVuSans-Bold-6f" transform="translate(1801.269531 0)"/>
     <use xlink:href="#DejaVuSans-Bold-20" transform="translate(1869.970703 0)"/>
     <use xlink:href="#DejaVuSans-Bold-28" transform="translate(1904.785156 0)"/>
     <use xlink:href="#DejaVuSans-Bold-62" transform="translate(1950.488281 0)"/>
     <use xlink:href="#DejaVuSans-Bold-6f" transform="translate(2022.070312 0)"/>
     <use xlink:href="#DejaVuSans-Bold-78" transform="translate(2090.771484 0)"/>
     <use xlink:href="#DejaVuSans-Bold-20" transform="translate(2155.273438 0)"/>
     <use xlink:href="#DejaVuSans-Bold-70" transform="translate(2190.087891 0)"/>
     <use xlink:href="#DejaVuSans-Bold-6c" transform="translate(2261.669922 0)"/>
     <use xlink:href="#DejaVuSans-Bold-6f" transform="translate(2295.947266 0)"/>
     <use xlink:href="#DejaVuSans-Bold-74" transform="translate(2364.648438 0)"/>
     <use xlink:href="#DejaVuSans-Bold-20" transform="translate(2412.451172 0)"/>
     <use xlink:href="#DejaVuSans-Bold-63" transform="translate(2447.265625 0)"/>
     <use xlink:href="#DejaVuSans-Bold-6f" transform="translate(2506.542969 0)"/>
     <use xlink:href="#DejaVuSans-Bold-6e" transform="translate(2575.244141 0)"/>
     <use xlink:href="#DejaVuSans-Bold-20" transform="translate(2646.435547 0)"/>
     <use xlink:href="#DejaVuSans-Bold-6f" transform="translate(2681.25 0)"/>
     <use xlink:href="#DejaVuSans-Bold-75" transform="translate(2749.951172 0)"/>
     <use xlink:href="#DejaVuSans-Bold-74" transform="translate(2821.142578 0)"/>
     <use xlink:href="#DejaVuSans-Bold-6c" transform="translate(2868.945312 0)"/>
     <use xlink:href="#DejaVuSans-Bold-69" transform="translate(2903.222656 0)"/>
     <use xlink:href="#DejaVuSans-Bold-65" transform="translate(2937.5 0)"/>
     <use xlink:href="#DejaVuSans-Bold-72" transform="translate(3005.322266 0)"/>
     <use xlink:href="#DejaVuSans-Bold-29" transform="translate(3054.638672 0)"/>
    </g>
   </g>
  </g>
 </g>
 <defs>
  <clipPath id="p8af5af90d4">
   <rect x="36.79375" y="20.797812" width="813.514189" height="329.414726"/>
  </clipPath>
 </defs>
</svg>
