<?xml version="1.0" encoding="utf-8" standalone="no"?>
<!DOCTYPE svg PUBLIC "-//W3C//DTD SVG 1.1//EN"
  "http://www.w3.org/Graphics/SVG/1.1/DTD/svg11.dtd">
<svg xmlns:xlink="http://www.w3.org/1999/xlink" width="502.806177pt" height="341.301981pt" viewBox="0 0 502.806177 341.301981" xmlns="http://www.w3.org/2000/svg" version="1.1">
 <metadata>
  <rdf:RDF xmlns:dc="http://purl.org/dc/elements/1.1/" xmlns:cc="http://creativecommons.org/ns#" xmlns:rdf="http://www.w3.org/1999/02/22-rdf-syntax-ns#">
   <cc:Work>
    <dc:type rdf:resource="http://purl.org/dc/dcmitype/StillImage"/>
    <dc:date>2025-11-07T10:28:53.813432</dc:date>
    <dc:format>image/svg+xml</dc:format>
    <dc:creator>
     <cc:Agent>
      <dc:title>Matplotlib v3.10.7, https://matplotlib.org/</dc:title>
     </cc:Agent>
    </dc:creator>
   </cc:Work>
  </rdf:RDF>
 </metadata>
 <defs>
  <style type="text/css">*{stroke-linejoin: round; stroke-linecap: butt}</style>
 </defs>
 <g id="figure_1">
  <g id="patch_1">
   <path d="M 0 341.301981 
L 502.806177 341.301981 
L 502.806177 0 
L 0 0 
z
" style="fill: #ffffff"/>
  </g>
  <g id="axes_1">
   <g id="patch_2">
    <path d="M 66.732727 282.34145 
L 493.179471 282.34145 
L 493.179471 19.477969 
L 66.732727 19.477969 
z
" style="fill: #ffffff"/>
   </g>
   <g id="matplotlib.axis_1">
    <g id="xtick_1">
     <g id="line2d_1">
      <defs>
       <path id="m9e81eea5ae" d="M 0 0 
L 0 3 
" style="stroke: #262626; stroke-width: 0.5"/>
      </defs>
      <g>
       <use xlink:href="#m9e81eea5ae" x="120.03857" y="19.477969" style="fill: #262626; stroke: #262626; stroke-width: 0.5"/>
      </g>
     </g>
     <g id="text_1">
      <!-- studenti - secondaria -->
      <g style="fill: #262626" transform="translate(5.0514 314.278045) rotate(-10) scale(0.11 -0.11)">
       <defs>
        <path id="DejaVuSans-73" d="M 2834 3397 
L 2834 2853 
Q 2591 2978 2328 3040 
Q 2066 3103 1784 3103 
Q 1356 3103 1142 2972 
Q 928 2841 928 2578 
Q 928 2378 1081 2264 
Q 1234 2150 1697 2047 
L 1894 2003 
Q 2506 1872 2764 1633 
Q 3022 1394 3022 966 
Q 3022 478 2636 193 
Q 2250 -91 1575 -91 
Q 1294 -91 989 -36 
Q 684 19 347 128 
L 347 722 
Q 666 556 975 473 
Q 1284 391 1588 391 
Q 1994 391 2212 530 
Q 2431 669 2431 922 
Q 2431 1156 2273 1281 
Q 2116 1406 1581 1522 
L 1381 1569 
Q 847 1681 609 1914 
Q 372 2147 372 2553 
Q 372 3047 722 3315 
Q 1072 3584 1716 3584 
Q 2034 3584 2315 3537 
Q 2597 3491 2834 3397 
z
" transform="scale(0.015625)"/>
        <path id="DejaVuSans-74" d="M 1172 4494 
L 1172 3500 
L 2356 3500 
L 2356 3053 
L 1172 3053 
L 1172 1153 
Q 1172 725 1289 603 
Q 1406 481 1766 481 
L 2356 481 
L 2356 0 
L 1766 0 
Q 1100 0 847 248 
Q 594 497 594 1153 
L 594 3053 
L 172 3053 
L 172 3500 
L 594 3500 
L 594 4494 
L 1172 4494 
z
" transform="scale(0.015625)"/>
        <path id="DejaVuSans-75" d="M 544 1381 
L 544 3500 
L 1119 3500 
L 1119 1403 
Q 1119 906 1312 657 
Q 1506 409 1894 409 
Q 2359 409 2629 706 
Q 2900 1003 2900 1516 
L 2900 3500 
L 3475 3500 
L 3475 0 
L 2900 0 
L 2900 538 
Q 2691 219 2414 64 
Q 2138 -91 1772 -91 
Q 1169 -91 856 284 
Q 544 659 544 1381 
z
M 1991 3584 
L 1991 3584 
z
" transform="scale(0.015625)"/>
        <path id="DejaVuSans-64" d="M 2906 2969 
L 2906 4863 
L 3481 4863 
L 3481 0 
L 2906 0 
L 2906 525 
Q 2725 213 2448 61 
Q 2172 -91 1784 -91 
Q 1150 -91 751 415 
Q 353 922 353 1747 
Q 353 2572 751 3078 
Q 1150 3584 1784 3584 
Q 2172 3584 2448 3432 
Q 2725 3281 2906 2969 
z
M 947 1747 
Q 947 1113 1208 752 
Q 1469 391 1925 391 
Q 2381 391 2643 752 
Q 2906 1113 2906 1747 
Q 2906 2381 2643 2742 
Q 2381 3103 1925 3103 
Q 1469 3103 1208 2742 
Q 947 2381 947 1747 
z
" transform="scale(0.015625)"/>
        <path id="DejaVuSans-65" d="M 3597 1894 
L 3597 1613 
L 953 1613 
Q 991 1019 1311 708 
Q 1631 397 2203 397 
Q 2534 397 2845 478 
Q 3156 559 3463 722 
L 3463 178 
Q 3153 47 2828 -22 
Q 2503 -91 2169 -91 
Q 1331 -91 842 396 
Q 353 884 353 1716 
Q 353 2575 817 3079 
Q 1281 3584 2069 3584 
Q 2775 3584 3186 3129 
Q 3597 2675 3597 1894 
z
M 3022 2063 
Q 3016 2534 2758 2815 
Q 2500 3097 2075 3097 
Q 1594 3097 1305 2825 
Q 1016 2553 972 2059 
L 3022 2063 
z
" transform="scale(0.015625)"/>
        <path id="DejaVuSans-6e" d="M 3513 2113 
L 3513 0 
L 2938 0 
L 2938 2094 
Q 2938 2591 2744 2837 
Q 2550 3084 2163 3084 
Q 1697 3084 1428 2787 
Q 1159 2491 1159 1978 
L 1159 0 
L 581 0 
L 581 3500 
L 1159 3500 
L 1159 2956 
Q 1366 3272 1645 3428 
Q 1925 3584 2291 3584 
Q 2894 3584 3203 3211 
Q 3513 2838 3513 2113 
z
" transform="scale(0.015625)"/>
        <path id="DejaVuSans-69" d="M 603 3500 
L 1178 3500 
L 1178 0 
L 603 0 
L 603 3500 
z
M 603 4863 
L 1178 4863 
L 1178 4134 
L 603 4134 
L 603 4863 
z
" transform="scale(0.015625)"/>
        <path id="DejaVuSans-20" transform="scale(0.015625)"/>
        <path id="DejaVuSans-2d" d="M 313 2009 
L 1997 2009 
L 1997 1497 
L 313 1497 
L 313 2009 
z
" transform="scale(0.015625)"/>
        <path id="DejaVuSans-63" d="M 3122 3366 
L 3122 2828 
Q 2878 2963 2633 3030 
Q 2388 3097 2138 3097 
Q 1578 3097 1268 2742 
Q 959 2388 959 1747 
Q 959 1106 1268 751 
Q 1578 397 2138 397 
Q 2388 397 2633 464 
Q 2878 531 3122 666 
L 3122 134 
Q 2881 22 2623 -34 
Q 2366 -91 2075 -91 
Q 1284 -91 818 406 
Q 353 903 353 1747 
Q 353 2603 823 3093 
Q 1294 3584 2113 3584 
Q 2378 3584 2631 3529 
Q 2884 3475 3122 3366 
z
" transform="scale(0.015625)"/>
        <path id="DejaVuSans-6f" d="M 1959 3097 
Q 1497 3097 1228 2736 
Q 959 2375 959 1747 
Q 959 1119 1226 758 
Q 1494 397 1959 397 
Q 2419 397 2687 759 
Q 2956 1122 2956 1747 
Q 2956 2369 2687 2733 
Q 2419 3097 1959 3097 
z
M 1959 3584 
Q 2709 3584 3137 3096 
Q 3566 2609 3566 1747 
Q 3566 888 3137 398 
Q 2709 -91 1959 -91 
Q 1206 -91 779 398 
Q 353 888 353 1747 
Q 353 2609 779 3096 
Q 1206 3584 1959 3584 
z
" transform="scale(0.015625)"/>
        <path id="DejaVuSans-61" d="M 2194 1759 
Q 1497 1759 1228 1600 
Q 959 1441 959 1056 
Q 959 750 1161 570 
Q 1363 391 1709 391 
Q 2188 391 2477 730 
Q 2766 1069 2766 1631 
L 2766 1759 
L 2194 1759 
z
M 3341 1997 
L 3341 0 
L 2766 0 
L 2766 531 
Q 2569 213 2275 61 
Q 1981 -91 1556 -91 
Q 1019 -91 701 211 
Q 384 513 384 1019 
Q 384 1609 779 1909 
Q 1175 2209 1959 2209 
L 2766 2209 
L 2766 2266 
Q 2766 2663 2505 2880 
Q 2244 3097 1772 3097 
Q 1472 3097 1187 3025 
Q 903 2953 641 2809 
L 641 3341 
Q 956 3463 1253 3523 
Q 1550 3584 1831 3584 
Q 2591 3584 2966 3190 
Q 3341 2797 3341 1997 
z
" transform="scale(0.015625)"/>
        <path id="DejaVuSans-72" d="M 2631 2963 
Q 2534 3019 2420 3045 
Q 2306 3072 2169 3072 
Q 1681 3072 1420 2755 
Q 1159 2438 1159 1844 
L 1159 0 
L 581 0 
L 581 3500 
L 1159 3500 
L 1159 2956 
Q 1341 3275 1631 3429 
Q 1922 3584 2338 3584 
Q 2397 3584 2469 3576 
Q 2541 3569 2628 3553 
L 2631 2963 
z
" transform="scale(0.015625)"/>
       </defs>
       <use xlink:href="#DejaVuSans-73"/>
       <use xlink:href="#DejaVuSans-74" transform="translate(52.099609 0)"/>
       <use xlink:href="#DejaVuSans-75" transform="translate(91.308594 0)"/>
       <use xlink:href="#DejaVuSans-64" transform="translate(154.6875 0)"/>
       <use xlink:href="#DejaVuSans-65" transform="translate(218.164062 0)"/>
       <use xlink:href="#DejaVuSans-6e" transform="translate(279.6875 0)"/>
       <use xlink:href="#DejaVuSans-74" transform="translate(343.066406 0)"/>
       <use xlink:href="#DejaVuSans-69" transform="translate(382.275391 0)"/>
       <use xlink:href="#DejaVuSans-20" transform="translate(410.058594 0)"/>
       <use xlink:href="#DejaVuSans-2d" transform="translate(441.845703 0)"/>
       <use xlink:href="#DejaVuSans-20" transform="translate(477.929688 0)"/>
       <use xlink:href="#DejaVuSans-73" transform="translate(509.716797 0)"/>
       <use xlink:href="#DejaVuSans-65" transform="translate(561.816406 0)"/>
       <use xlink:href="#DejaVuSans-63" transform="translate(623.339844 0)"/>
       <use xlink:href="#DejaVuSans-6f" transform="translate(678.320312 0)"/>
       <use xlink:href="#DejaVuSans-6e" transform="translate(739.501953 0)"/>
       <use xlink:href="#DejaVuSans-64" transform="translate(802.880859 0)"/>
       <use xlink:href="#DejaVuSans-61" transform="translate(866.357422 0)"/>
       <use xlink:href="#DejaVuSans-72" transform="translate(927.636719 0)"/>
       <use xlink:href="#DejaVuSans-69" transform="translate(968.75 0)"/>
       <use xlink:href="#DejaVuSans-61" transform="translate(996.533203 0)"/>
      </g>
     </g>
    </g>
    <g id="xtick_2">
     <g id="line2d_2">
      <g>
       <use xlink:href="#m9e81eea5ae" x="226.650256" y="19.477969" style="fill: #262626; stroke: #262626; stroke-width: 0.5"/>
      </g>
     </g>
     <g id="text_2">
      <!-- studenti - universitari -->
      <g style="fill: #262626" transform="translate(109.767331 314.612318) rotate(-10) scale(0.11 -0.11)">
       <defs>
        <path id="DejaVuSans-76" d="M 191 3500 
L 800 3500 
L 1894 563 
L 2988 3500 
L 3597 3500 
L 2284 0 
L 1503 0 
L 191 3500 
z
" transform="scale(0.015625)"/>
       </defs>
       <use xlink:href="#DejaVuSans-73"/>
       <use xlink:href="#DejaVuSans-74" transform="translate(52.099609 0)"/>
       <use xlink:href="#DejaVuSans-75" transform="translate(91.308594 0)"/>
       <use xlink:href="#DejaVuSans-64" transform="translate(154.6875 0)"/>
       <use xlink:href="#DejaVuSans-65" transform="translate(218.164062 0)"/>
       <use xlink:href="#DejaVuSans-6e" transform="translate(279.6875 0)"/>
       <use xlink:href="#DejaVuSans-74" transform="translate(343.066406 0)"/>
       <use xlink:href="#DejaVuSans-69" transform="translate(382.275391 0)"/>
       <use xlink:href="#DejaVuSans-20" transform="translate(410.058594 0)"/>
       <use xlink:href="#DejaVuSans-2d" transform="translate(441.845703 0)"/>
       <use xlink:href="#DejaVuSans-20" transform="translate(477.929688 0)"/>
       <use xlink:href="#DejaVuSans-75" transform="translate(509.716797 0)"/>
       <use xlink:href="#DejaVuSans-6e" transform="translate(573.095703 0)"/>
       <use xlink:href="#DejaVuSans-69" transform="translate(636.474609 0)"/>
       <use xlink:href="#DejaVuSans-76" transform="translate(664.257812 0)"/>
       <use xlink:href="#DejaVuSans-65" transform="translate(723.4375 0)"/>
       <use xlink:href="#DejaVuSans-72" transform="translate(784.960938 0)"/>
       <use xlink:href="#DejaVuSans-73" transform="translate(826.074219 0)"/>
       <use xlink:href="#DejaVuSans-69" transform="translate(878.173828 0)"/>
       <use xlink:href="#DejaVuSans-74" transform="translate(905.957031 0)"/>
       <use xlink:href="#DejaVuSans-61" transform="translate(945.166016 0)"/>
       <use xlink:href="#DejaVuSans-72" transform="translate(1006.445312 0)"/>
       <use xlink:href="#DejaVuSans-69" transform="translate(1047.558594 0)"/>
      </g>
     </g>
    </g>
    <g id="xtick_3">
     <g id="line2d_3">
      <g>
       <use xlink:href="#m9e81eea5ae" x="333.261942" y="19.477969" style="fill: #262626; stroke: #262626; stroke-width: 0.5"/>
      </g>
     </g>
     <g id="text_3">
      <!-- insegnanti - non in servizio -->
      <g style="fill: #262626" transform="translate(186.757847 319.83533) rotate(-10) scale(0.11 -0.11)">
       <defs>
        <path id="DejaVuSans-67" d="M 2906 1791 
Q 2906 2416 2648 2759 
Q 2391 3103 1925 3103 
Q 1463 3103 1205 2759 
Q 947 2416 947 1791 
Q 947 1169 1205 825 
Q 1463 481 1925 481 
Q 2391 481 2648 825 
Q 2906 1169 2906 1791 
z
M 3481 434 
Q 3481 -459 3084 -895 
Q 2688 -1331 1869 -1331 
Q 1566 -1331 1297 -1286 
Q 1028 -1241 775 -1147 
L 775 -588 
Q 1028 -725 1275 -790 
Q 1522 -856 1778 -856 
Q 2344 -856 2625 -561 
Q 2906 -266 2906 331 
L 2906 616 
Q 2728 306 2450 153 
Q 2172 0 1784 0 
Q 1141 0 747 490 
Q 353 981 353 1791 
Q 353 2603 747 3093 
Q 1141 3584 1784 3584 
Q 2172 3584 2450 3431 
Q 2728 3278 2906 2969 
L 2906 3500 
L 3481 3500 
L 3481 434 
z
" transform="scale(0.015625)"/>
        <path id="DejaVuSans-7a" d="M 353 3500 
L 3084 3500 
L 3084 2975 
L 922 459 
L 3084 459 
L 3084 0 
L 275 0 
L 275 525 
L 2438 3041 
L 353 3041 
L 353 3500 
z
" transform="scale(0.015625)"/>
       </defs>
       <use xlink:href="#DejaVuSans-69"/>
       <use xlink:href="#DejaVuSans-6e" transform="translate(27.783203 0)"/>
       <use xlink:href="#DejaVuSans-73" transform="translate(91.162109 0)"/>
       <use xlink:href="#DejaVuSans-65" transform="translate(143.261719 0)"/>
       <use xlink:href="#DejaVuSans-67" transform="translate(204.785156 0)"/>
       <use xlink:href="#DejaVuSans-6e" transform="translate(268.261719 0)"/>
       <use xlink:href="#DejaVuSans-61" transform="translate(331.640625 0)"/>
       <use xlink:href="#DejaVuSans-6e" transform="translate(392.919922 0)"/>
       <use xlink:href="#DejaVuSans-74" transform="translate(456.298828 0)"/>
       <use xlink:href="#DejaVuSans-69" transform="translate(495.507812 0)"/>
       <use xlink:href="#DejaVuSans-20" transform="translate(523.291016 0)"/>
       <use xlink:href="#DejaVuSans-2d" transform="translate(555.078125 0)"/>
       <use xlink:href="#DejaVuSans-20" transform="translate(591.162109 0)"/>
       <use xlink:href="#DejaVuSans-6e" transform="translate(622.949219 0)"/>
       <use xlink:href="#DejaVuSans-6f" transform="translate(686.328125 0)"/>
       <use xlink:href="#DejaVuSans-6e" transform="translate(747.509766 0)"/>
       <use xlink:href="#DejaVuSans-20" transform="translate(810.888672 0)"/>
       <use xlink:href="#DejaVuSans-69" transform="translate(842.675781 0)"/>
       <use xlink:href="#DejaVuSans-6e" transform="translate(870.458984 0)"/>
       <use xlink:href="#DejaVuSans-20" transform="translate(933.837891 0)"/>
       <use xlink:href="#DejaVuSans-73" transform="translate(965.625 0)"/>
       <use xlink:href="#DejaVuSans-65" transform="translate(1017.724609 0)"/>
       <use xlink:href="#DejaVuSans-72" transform="translate(1079.248047 0)"/>
       <use xlink:href="#DejaVuSans-76" transform="translate(1120.361328 0)"/>
       <use xlink:href="#DejaVuSans-69" transform="translate(1179.541016 0)"/>
       <use xlink:href="#DejaVuSans-7a" transform="translate(1207.324219 0)"/>
       <use xlink:href="#DejaVuSans-69" transform="translate(1259.814453 0)"/>
       <use xlink:href="#DejaVuSans-6f" transform="translate(1287.597656 0)"/>
      </g>
     </g>
    </g>
    <g id="xtick_4">
     <g id="line2d_4">
      <g>
       <use xlink:href="#m9e81eea5ae" x="439.873628" y="19.477969" style="fill: #262626; stroke: #262626; stroke-width: 0.5"/>
      </g>
     </g>
     <g id="text_4">
      <!-- insegnanti - in servizio -->
      <g style="fill: #262626" transform="translate(317.171413 315.638416) rotate(-10) scale(0.11 -0.11)">
       <use xlink:href="#DejaVuSans-69"/>
       <use xlink:href="#DejaVuSans-6e" transform="translate(27.783203 0)"/>
       <use xlink:href="#DejaVuSans-73" transform="translate(91.162109 0)"/>
       <use xlink:href="#DejaVuSans-65" transform="translate(143.261719 0)"/>
       <use xlink:href="#DejaVuSans-67" transform="translate(204.785156 0)"/>
       <use xlink:href="#DejaVuSans-6e" transform="translate(268.261719 0)"/>
       <use xlink:href="#DejaVuSans-61" transform="translate(331.640625 0)"/>
       <use xlink:href="#DejaVuSans-6e" transform="translate(392.919922 0)"/>
       <use xlink:href="#DejaVuSans-74" transform="translate(456.298828 0)"/>
       <use xlink:href="#DejaVuSans-69" transform="translate(495.507812 0)"/>
       <use xlink:href="#DejaVuSans-20" transform="translate(523.291016 0)"/>
       <use xlink:href="#DejaVuSans-2d" transform="translate(555.078125 0)"/>
       <use xlink:href="#DejaVuSans-20" transform="translate(591.162109 0)"/>
       <use xlink:href="#DejaVuSans-69" transform="translate(622.949219 0)"/>
       <use xlink:href="#DejaVuSans-6e" transform="translate(650.732422 0)"/>
       <use xlink:href="#DejaVuSans-20" transform="translate(714.111328 0)"/>
       <use xlink:href="#DejaVuSans-73" transform="translate(745.898438 0)"/>
       <use xlink:href="#DejaVuSans-65" transform="translate(797.998047 0)"/>
       <use xlink:href="#DejaVuSans-72" transform="translate(859.521484 0)"/>
       <use xlink:href="#DejaVuSans-76" transform="translate(900.634766 0)"/>
       <use xlink:href="#DejaVuSans-69" transform="translate(959.814453 0)"/>
       <use xlink:href="#DejaVuSans-7a" transform="translate(987.597656 0)"/>
       <use xlink:href="#DejaVuSans-69" transform="translate(1040.087891 0)"/>
       <use xlink:href="#DejaVuSans-6f" transform="translate(1067.871094 0)"/>
      </g>
     </g>
    </g>
    <g id="xtick_5">
     <g id="line2d_5">
      <defs>
       <path id="m938bc9600b" d="M 0 0 
L 0 1.5 
" style="stroke: #262626; stroke-width: 0.5"/>
      </defs>
      <g>
       <use xlink:href="#m938bc9600b" x="77.393895" y="19.477969" style="fill: #262626; stroke: #262626; stroke-width: 0.5"/>
      </g>
     </g>
    </g>
    <g id="xtick_6">
     <g id="line2d_6">
      <g>
       <use xlink:href="#m938bc9600b" x="98.716232" y="19.477969" style="fill: #262626; stroke: #262626; stroke-width: 0.5"/>
      </g>
     </g>
    </g>
    <g id="xtick_7">
     <g id="line2d_7">
      <g>
       <use xlink:href="#m938bc9600b" x="141.360907" y="19.477969" style="fill: #262626; stroke: #262626; stroke-width: 0.5"/>
      </g>
     </g>
    </g>
    <g id="xtick_8">
     <g id="line2d_8">
      <g>
       <use xlink:href="#m938bc9600b" x="162.683244" y="19.477969" style="fill: #262626; stroke: #262626; stroke-width: 0.5"/>
      </g>
     </g>
    </g>
    <g id="xtick_9">
     <g id="line2d_9">
      <g>
       <use xlink:href="#m938bc9600b" x="184.005581" y="19.477969" style="fill: #262626; stroke: #262626; stroke-width: 0.5"/>
      </g>
     </g>
    </g>
    <g id="xtick_10">
     <g id="line2d_10">
      <g>
       <use xlink:href="#m938bc9600b" x="205.327918" y="19.477969" style="fill: #262626; stroke: #262626; stroke-width: 0.5"/>
      </g>
     </g>
    </g>
    <g id="xtick_11">
     <g id="line2d_11">
      <g>
       <use xlink:href="#m938bc9600b" x="247.972593" y="19.477969" style="fill: #262626; stroke: #262626; stroke-width: 0.5"/>
      </g>
     </g>
    </g>
    <g id="xtick_12">
     <g id="line2d_12">
      <g>
       <use xlink:href="#m938bc9600b" x="269.29493" y="19.477969" style="fill: #262626; stroke: #262626; stroke-width: 0.5"/>
      </g>
     </g>
    </g>
    <g id="xtick_13">
     <g id="line2d_13">
      <g>
       <use xlink:href="#m938bc9600b" x="290.617267" y="19.477969" style="fill: #262626; stroke: #262626; stroke-width: 0.5"/>
      </g>
     </g>
    </g>
    <g id="xtick_14">
     <g id="line2d_14">
      <g>
       <use xlink:href="#m938bc9600b" x="311.939604" y="19.477969" style="fill: #262626; stroke: #262626; stroke-width: 0.5"/>
      </g>
     </g>
    </g>
    <g id="xtick_15">
     <g id="line2d_15">
      <g>
       <use xlink:href="#m938bc9600b" x="354.584279" y="19.477969" style="fill: #262626; stroke: #262626; stroke-width: 0.5"/>
      </g>
     </g>
    </g>
    <g id="xtick_16">
     <g id="line2d_16">
      <g>
       <use xlink:href="#m938bc9600b" x="375.906616" y="19.477969" style="fill: #262626; stroke: #262626; stroke-width: 0.5"/>
      </g>
     </g>
    </g>
    <g id="xtick_17">
     <g id="line2d_17">
      <g>
       <use xlink:href="#m938bc9600b" x="397.228953" y="19.477969" style="fill: #262626; stroke: #262626; stroke-width: 0.5"/>
      </g>
     </g>
    </g>
    <g id="xtick_18">
     <g id="line2d_18">
      <g>
       <use xlink:href="#m938bc9600b" x="418.55129" y="19.477969" style="fill: #262626; stroke: #262626; stroke-width: 0.5"/>
      </g>
     </g>
    </g>
    <g id="xtick_19">
     <g id="line2d_19">
      <g>
       <use xlink:href="#m938bc9600b" x="461.195965" y="19.477969" style="fill: #262626; stroke: #262626; stroke-width: 0.5"/>
      </g>
     </g>
    </g>
    <g id="xtick_20">
     <g id="line2d_20">
      <g>
       <use xlink:href="#m938bc9600b" x="482.518302" y="19.477969" style="fill: #262626; stroke: #262626; stroke-width: 0.5"/>
      </g>
     </g>
    </g>
    <g id="text_5">
     <!-- Gruppo -->
     <g style="fill: #262626" transform="translate(257.748599 335.206356) scale(0.12 -0.12)">
      <defs>
       <path id="DejaVuSans-47" d="M 3809 666 
L 3809 1919 
L 2778 1919 
L 2778 2438 
L 4434 2438 
L 4434 434 
Q 4069 175 3628 42 
Q 3188 -91 2688 -91 
Q 1594 -91 976 548 
Q 359 1188 359 2328 
Q 359 3472 976 4111 
Q 1594 4750 2688 4750 
Q 3144 4750 3555 4637 
Q 3966 4525 4313 4306 
L 4313 3634 
Q 3963 3931 3569 4081 
Q 3175 4231 2741 4231 
Q 1884 4231 1454 3753 
Q 1025 3275 1025 2328 
Q 1025 1384 1454 906 
Q 1884 428 2741 428 
Q 3075 428 3337 486 
Q 3600 544 3809 666 
z
" transform="scale(0.015625)"/>
       <path id="DejaVuSans-70" d="M 1159 525 
L 1159 -1331 
L 581 -1331 
L 581 3500 
L 1159 3500 
L 1159 2969 
Q 1341 3281 1617 3432 
Q 1894 3584 2278 3584 
Q 2916 3584 3314 3078 
Q 3713 2572 3713 1747 
Q 3713 922 3314 415 
Q 2916 -91 2278 -91 
Q 1894 -91 1617 61 
Q 1341 213 1159 525 
z
M 3116 1747 
Q 3116 2381 2855 2742 
Q 2594 3103 2138 3103 
Q 1681 3103 1420 2742 
Q 1159 2381 1159 1747 
Q 1159 1113 1420 752 
Q 1681 391 2138 391 
Q 2594 391 2855 752 
Q 3116 1113 3116 1747 
z
" transform="scale(0.015625)"/>
      </defs>
      <use xlink:href="#DejaVuSans-47"/>
      <use xlink:href="#DejaVuSans-72" transform="translate(77.490234 0)"/>
      <use xlink:href="#DejaVuSans-75" transform="translate(118.603516 0)"/>
      <use xlink:href="#DejaVuSans-70" transform="translate(181.982422 0)"/>
      <use xlink:href="#DejaVuSans-70" transform="translate(245.458984 0)"/>
      <use xlink:href="#DejaVuSans-6f" transform="translate(308.935547 0)"/>
     </g>
    </g>
   </g>
   <g id="matplotlib.axis_2">
    <g id="ytick_1">
     <g id="line2d_21">
      <path d="M 66.732727 270.39311 
L 493.179471 270.39311 
" clip-path="url(#pad094774ad)" style="fill: none; stroke-dasharray: 1.11,0.48; stroke-dashoffset: 0; stroke: #1a1a1a; stroke-opacity: 0.25; stroke-width: 0.3"/>
     </g>
     <g id="line2d_22">
      <defs>
       <path id="m42ed0f8009" d="M 0 0 
L -3 0 
" style="stroke: #262626; stroke-width: 0.5"/>
      </defs>
      <g>
       <use xlink:href="#m42ed0f8009" x="493.179471" y="270.39311" style="fill: #262626; stroke: #262626; stroke-width: 0.5"/>
      </g>
     </g>
     <g id="text_6">
      <!-- $\mathdefault{0}$ -->
      <g style="fill: #262626" transform="translate(56.192727 274.572251) scale(0.11 -0.11)">
       <defs>
        <path id="DejaVuSans-30" d="M 2034 4250 
Q 1547 4250 1301 3770 
Q 1056 3291 1056 2328 
Q 1056 1369 1301 889 
Q 1547 409 2034 409 
Q 2525 409 2770 889 
Q 3016 1369 3016 2328 
Q 3016 3291 2770 3770 
Q 2525 4250 2034 4250 
z
M 2034 4750 
Q 2819 4750 3233 4129 
Q 3647 3509 3647 2328 
Q 3647 1150 3233 529 
Q 2819 -91 2034 -91 
Q 1250 -91 836 529 
Q 422 1150 422 2328 
Q 422 3509 836 4129 
Q 1250 4750 2034 4750 
z
" transform="scale(0.015625)"/>
       </defs>
       <use xlink:href="#DejaVuSans-30" transform="translate(0 0.78125)"/>
      </g>
     </g>
    </g>
    <g id="ytick_2">
     <g id="line2d_23">
      <path d="M 66.732727 222.59975 
L 493.179471 222.59975 
" clip-path="url(#pad094774ad)" style="fill: none; stroke-dasharray: 1.11,0.48; stroke-dashoffset: 0; stroke: #1a1a1a; stroke-opacity: 0.25; stroke-width: 0.3"/>
     </g>
     <g id="line2d_24">
      <g>
       <use xlink:href="#m42ed0f8009" x="493.179471" y="222.59975" style="fill: #262626; stroke: #262626; stroke-width: 0.5"/>
      </g>
     </g>
     <g id="text_7">
      <!-- $\mathdefault{2}$ -->
      <g style="fill: #262626" transform="translate(56.192727 226.77889) scale(0.11 -0.11)">
       <defs>
        <path id="DejaVuSans-32" d="M 1228 531 
L 3431 531 
L 3431 0 
L 469 0 
L 469 531 
Q 828 903 1448 1529 
Q 2069 2156 2228 2338 
Q 2531 2678 2651 2914 
Q 2772 3150 2772 3378 
Q 2772 3750 2511 3984 
Q 2250 4219 1831 4219 
Q 1534 4219 1204 4116 
Q 875 4013 500 3803 
L 500 4441 
Q 881 4594 1212 4672 
Q 1544 4750 1819 4750 
Q 2544 4750 2975 4387 
Q 3406 4025 3406 3419 
Q 3406 3131 3298 2873 
Q 3191 2616 2906 2266 
Q 2828 2175 2409 1742 
Q 1991 1309 1228 531 
z
" transform="scale(0.015625)"/>
       </defs>
       <use xlink:href="#DejaVuSans-32" transform="translate(0 0.78125)"/>
      </g>
     </g>
    </g>
    <g id="ytick_3">
     <g id="line2d_25">
      <path d="M 66.732727 174.80639 
L 493.179471 174.80639 
" clip-path="url(#pad094774ad)" style="fill: none; stroke-dasharray: 1.11,0.48; stroke-dashoffset: 0; stroke: #1a1a1a; stroke-opacity: 0.25; stroke-width: 0.3"/>
     </g>
     <g id="line2d_26">
      <g>
       <use xlink:href="#m42ed0f8009" x="493.179471" y="174.80639" style="fill: #262626; stroke: #262626; stroke-width: 0.5"/>
      </g>
     </g>
     <g id="text_8">
      <!-- $\mathdefault{4}$ -->
      <g style="fill: #262626" transform="translate(56.192727 178.98553) scale(0.11 -0.11)">
       <defs>
        <path id="DejaVuSans-34" d="M 2419 4116 
L 825 1625 
L 2419 1625 
L 2419 4116 
z
M 2253 4666 
L 3047 4666 
L 3047 1625 
L 3713 1625 
L 3713 1100 
L 3047 1100 
L 3047 0 
L 2419 0 
L 2419 1100 
L 313 1100 
L 313 1709 
L 2253 4666 
z
" transform="scale(0.015625)"/>
       </defs>
       <use xlink:href="#DejaVuSans-34" transform="translate(0 0.09375)"/>
      </g>
     </g>
    </g>
    <g id="ytick_4">
     <g id="line2d_27">
      <path d="M 66.732727 127.013029 
L 493.179471 127.013029 
" clip-path="url(#pad094774ad)" style="fill: none; stroke-dasharray: 1.11,0.48; stroke-dashoffset: 0; stroke: #1a1a1a; stroke-opacity: 0.25; stroke-width: 0.3"/>
     </g>
     <g id="line2d_28">
      <g>
       <use xlink:href="#m42ed0f8009" x="493.179471" y="127.013029" style="fill: #262626; stroke: #262626; stroke-width: 0.5"/>
      </g>
     </g>
     <g id="text_9">
      <!-- $\mathdefault{6}$ -->
      <g style="fill: #262626" transform="translate(56.192727 131.19217) scale(0.11 -0.11)">
       <defs>
        <path id="DejaVuSans-36" d="M 2113 2584 
Q 1688 2584 1439 2293 
Q 1191 2003 1191 1497 
Q 1191 994 1439 701 
Q 1688 409 2113 409 
Q 2538 409 2786 701 
Q 3034 994 3034 1497 
Q 3034 2003 2786 2293 
Q 2538 2584 2113 2584 
z
M 3366 4563 
L 3366 3988 
Q 3128 4100 2886 4159 
Q 2644 4219 2406 4219 
Q 1781 4219 1451 3797 
Q 1122 3375 1075 2522 
Q 1259 2794 1537 2939 
Q 1816 3084 2150 3084 
Q 2853 3084 3261 2657 
Q 3669 2231 3669 1497 
Q 3669 778 3244 343 
Q 2819 -91 2113 -91 
Q 1303 -91 875 529 
Q 447 1150 447 2328 
Q 447 3434 972 4092 
Q 1497 4750 2381 4750 
Q 2619 4750 2861 4703 
Q 3103 4656 3366 4563 
z
" transform="scale(0.015625)"/>
       </defs>
       <use xlink:href="#DejaVuSans-36" transform="translate(0 0.78125)"/>
      </g>
     </g>
    </g>
    <g id="ytick_5">
     <g id="line2d_29">
      <path d="M 66.732727 79.219669 
L 493.179471 79.219669 
" clip-path="url(#pad094774ad)" style="fill: none; stroke-dasharray: 1.11,0.48; stroke-dashoffset: 0; stroke: #1a1a1a; stroke-opacity: 0.25; stroke-width: 0.3"/>
     </g>
     <g id="line2d_30">
      <g>
       <use xlink:href="#m42ed0f8009" x="493.179471" y="79.219669" style="fill: #262626; stroke: #262626; stroke-width: 0.5"/>
      </g>
     </g>
     <g id="text_10">
      <!-- $\mathdefault{8}$ -->
      <g style="fill: #262626" transform="translate(56.192727 83.39881) scale(0.11 -0.11)">
       <defs>
        <path id="DejaVuSans-38" d="M 2034 2216 
Q 1584 2216 1326 1975 
Q 1069 1734 1069 1313 
Q 1069 891 1326 650 
Q 1584 409 2034 409 
Q 2484 409 2743 651 
Q 3003 894 3003 1313 
Q 3003 1734 2745 1975 
Q 2488 2216 2034 2216 
z
M 1403 2484 
Q 997 2584 770 2862 
Q 544 3141 544 3541 
Q 544 4100 942 4425 
Q 1341 4750 2034 4750 
Q 2731 4750 3128 4425 
Q 3525 4100 3525 3541 
Q 3525 3141 3298 2862 
Q 3072 2584 2669 2484 
Q 3125 2378 3379 2068 
Q 3634 1759 3634 1313 
Q 3634 634 3220 271 
Q 2806 -91 2034 -91 
Q 1263 -91 848 271 
Q 434 634 434 1313 
Q 434 1759 690 2068 
Q 947 2378 1403 2484 
z
M 1172 3481 
Q 1172 3119 1398 2916 
Q 1625 2713 2034 2713 
Q 2441 2713 2670 2916 
Q 2900 3119 2900 3481 
Q 2900 3844 2670 4047 
Q 2441 4250 2034 4250 
Q 1625 4250 1398 4047 
Q 1172 3844 1172 3481 
z
" transform="scale(0.015625)"/>
       </defs>
       <use xlink:href="#DejaVuSans-38" transform="translate(0 0.78125)"/>
      </g>
     </g>
    </g>
    <g id="ytick_6">
     <g id="line2d_31">
      <path d="M 66.732727 31.426309 
L 493.179471 31.426309 
" clip-path="url(#pad094774ad)" style="fill: none; stroke-dasharray: 1.11,0.48; stroke-dashoffset: 0; stroke: #1a1a1a; stroke-opacity: 0.25; stroke-width: 0.3"/>
     </g>
     <g id="line2d_32">
      <g>
       <use xlink:href="#m42ed0f8009" x="493.179471" y="31.426309" style="fill: #262626; stroke: #262626; stroke-width: 0.5"/>
      </g>
     </g>
     <g id="text_11">
      <!-- $\mathdefault{10}$ -->
      <g style="fill: #262626" transform="translate(49.152727 35.605449) scale(0.11 -0.11)">
       <defs>
        <path id="DejaVuSans-31" d="M 794 531 
L 1825 531 
L 1825 4091 
L 703 3866 
L 703 4441 
L 1819 4666 
L 2450 4666 
L 2450 531 
L 3481 531 
L 3481 0 
L 794 0 
L 794 531 
z
" transform="scale(0.015625)"/>
       </defs>
       <use xlink:href="#DejaVuSans-31" transform="translate(0 0.78125)"/>
       <use xlink:href="#DejaVuSans-30" transform="translate(63.623047 0.78125)"/>
      </g>
     </g>
    </g>
    <g id="ytick_7">
     <g id="line2d_33">
      <defs>
       <path id="mcd7794d3d5" d="M 0 0 
L -1.5 0 
" style="stroke: #262626; stroke-width: 0.5"/>
      </defs>
      <g>
       <use xlink:href="#mcd7794d3d5" x="493.179471" y="282.34145" style="fill: #262626; stroke: #262626; stroke-width: 0.5"/>
      </g>
     </g>
    </g>
    <g id="ytick_8">
     <g id="line2d_34">
      <g>
       <use xlink:href="#mcd7794d3d5" x="493.179471" y="258.44477" style="fill: #262626; stroke: #262626; stroke-width: 0.5"/>
      </g>
     </g>
    </g>
    <g id="ytick_9">
     <g id="line2d_35">
      <g>
       <use xlink:href="#mcd7794d3d5" x="493.179471" y="246.49643" style="fill: #262626; stroke: #262626; stroke-width: 0.5"/>
      </g>
     </g>
    </g>
    <g id="ytick_10">
     <g id="line2d_36">
      <g>
       <use xlink:href="#mcd7794d3d5" x="493.179471" y="234.54809" style="fill: #262626; stroke: #262626; stroke-width: 0.5"/>
      </g>
     </g>
    </g>
    <g id="ytick_11">
     <g id="line2d_37">
      <g>
       <use xlink:href="#mcd7794d3d5" x="493.179471" y="210.65141" style="fill: #262626; stroke: #262626; stroke-width: 0.5"/>
      </g>
     </g>
    </g>
    <g id="ytick_12">
     <g id="line2d_38">
      <g>
       <use xlink:href="#mcd7794d3d5" x="493.179471" y="198.70307" style="fill: #262626; stroke: #262626; stroke-width: 0.5"/>
      </g>
     </g>
    </g>
    <g id="ytick_13">
     <g id="line2d_39">
      <g>
       <use xlink:href="#mcd7794d3d5" x="493.179471" y="186.75473" style="fill: #262626; stroke: #262626; stroke-width: 0.5"/>
      </g>
     </g>
    </g>
    <g id="ytick_14">
     <g id="line2d_40">
      <g>
       <use xlink:href="#mcd7794d3d5" x="493.179471" y="162.858049" style="fill: #262626; stroke: #262626; stroke-width: 0.5"/>
      </g>
     </g>
    </g>
    <g id="ytick_15">
     <g id="line2d_41">
      <g>
       <use xlink:href="#mcd7794d3d5" x="493.179471" y="150.909709" style="fill: #262626; stroke: #262626; stroke-width: 0.5"/>
      </g>
     </g>
    </g>
    <g id="ytick_16">
     <g id="line2d_42">
      <g>
       <use xlink:href="#mcd7794d3d5" x="493.179471" y="138.961369" style="fill: #262626; stroke: #262626; stroke-width: 0.5"/>
      </g>
     </g>
    </g>
    <g id="ytick_17">
     <g id="line2d_43">
      <g>
       <use xlink:href="#mcd7794d3d5" x="493.179471" y="115.064689" style="fill: #262626; stroke: #262626; stroke-width: 0.5"/>
      </g>
     </g>
    </g>
    <g id="ytick_18">
     <g id="line2d_44">
      <g>
       <use xlink:href="#mcd7794d3d5" x="493.179471" y="103.116349" style="fill: #262626; stroke: #262626; stroke-width: 0.5"/>
      </g>
     </g>
    </g>
    <g id="ytick_19">
     <g id="line2d_45">
      <g>
       <use xlink:href="#mcd7794d3d5" x="493.179471" y="91.168009" style="fill: #262626; stroke: #262626; stroke-width: 0.5"/>
      </g>
     </g>
    </g>
    <g id="ytick_20">
     <g id="line2d_46">
      <g>
       <use xlink:href="#mcd7794d3d5" x="493.179471" y="67.271329" style="fill: #262626; stroke: #262626; stroke-width: 0.5"/>
      </g>
     </g>
    </g>
    <g id="ytick_21">
     <g id="line2d_47">
      <g>
       <use xlink:href="#mcd7794d3d5" x="493.179471" y="55.322989" style="fill: #262626; stroke: #262626; stroke-width: 0.5"/>
      </g>
     </g>
    </g>
    <g id="ytick_22">
     <g id="line2d_48">
      <g>
       <use xlink:href="#mcd7794d3d5" x="493.179471" y="43.374649" style="fill: #262626; stroke: #262626; stroke-width: 0.5"/>
      </g>
     </g>
    </g>
    <g id="ytick_23">
     <g id="line2d_49">
      <g>
       <use xlink:href="#mcd7794d3d5" x="493.179471" y="19.477969" style="fill: #262626; stroke: #262626; stroke-width: 0.5"/>
      </g>
     </g>
    </g>
    <g id="text_12">
     <!-- Ore settimanali (uso quotidiano IA) -->
     <g style="fill: #262626" transform="translate(42.657102 255.890959) rotate(-90) scale(0.12 -0.12)">
      <defs>
       <path id="DejaVuSans-4f" d="M 2522 4238 
Q 1834 4238 1429 3725 
Q 1025 3213 1025 2328 
Q 1025 1447 1429 934 
Q 1834 422 2522 422 
Q 3209 422 3611 934 
Q 4013 1447 4013 2328 
Q 4013 3213 3611 3725 
Q 3209 4238 2522 4238 
z
M 2522 4750 
Q 3503 4750 4090 4092 
Q 4678 3434 4678 2328 
Q 4678 1225 4090 567 
Q 3503 -91 2522 -91 
Q 1538 -91 948 565 
Q 359 1222 359 2328 
Q 359 3434 948 4092 
Q 1538 4750 2522 4750 
z
" transform="scale(0.015625)"/>
       <path id="DejaVuSans-6d" d="M 3328 2828 
Q 3544 3216 3844 3400 
Q 4144 3584 4550 3584 
Q 5097 3584 5394 3201 
Q 5691 2819 5691 2113 
L 5691 0 
L 5113 0 
L 5113 2094 
Q 5113 2597 4934 2840 
Q 4756 3084 4391 3084 
Q 3944 3084 3684 2787 
Q 3425 2491 3425 1978 
L 3425 0 
L 2847 0 
L 2847 2094 
Q 2847 2600 2669 2842 
Q 2491 3084 2119 3084 
Q 1678 3084 1418 2786 
Q 1159 2488 1159 1978 
L 1159 0 
L 581 0 
L 581 3500 
L 1159 3500 
L 1159 2956 
Q 1356 3278 1631 3431 
Q 1906 3584 2284 3584 
Q 2666 3584 2933 3390 
Q 3200 3197 3328 2828 
z
" transform="scale(0.015625)"/>
       <path id="DejaVuSans-6c" d="M 603 4863 
L 1178 4863 
L 1178 0 
L 603 0 
L 603 4863 
z
" transform="scale(0.015625)"/>
       <path id="DejaVuSans-28" d="M 1984 4856 
Q 1566 4138 1362 3434 
Q 1159 2731 1159 2009 
Q 1159 1288 1364 580 
Q 1569 -128 1984 -844 
L 1484 -844 
Q 1016 -109 783 600 
Q 550 1309 550 2009 
Q 550 2706 781 3412 
Q 1013 4119 1484 4856 
L 1984 4856 
z
" transform="scale(0.015625)"/>
       <path id="DejaVuSans-71" d="M 947 1747 
Q 947 1113 1208 752 
Q 1469 391 1925 391 
Q 2381 391 2643 752 
Q 2906 1113 2906 1747 
Q 2906 2381 2643 2742 
Q 2381 3103 1925 3103 
Q 1469 3103 1208 2742 
Q 947 2381 947 1747 
z
M 2906 525 
Q 2725 213 2448 61 
Q 2172 -91 1784 -91 
Q 1150 -91 751 415 
Q 353 922 353 1747 
Q 353 2572 751 3078 
Q 1150 3584 1784 3584 
Q 2172 3584 2448 3432 
Q 2725 3281 2906 2969 
L 2906 3500 
L 3481 3500 
L 3481 -1331 
L 2906 -1331 
L 2906 525 
z
" transform="scale(0.015625)"/>
       <path id="DejaVuSans-49" d="M 628 4666 
L 1259 4666 
L 1259 0 
L 628 0 
L 628 4666 
z
" transform="scale(0.015625)"/>
       <path id="DejaVuSans-41" d="M 2188 4044 
L 1331 1722 
L 3047 1722 
L 2188 4044 
z
M 1831 4666 
L 2547 4666 
L 4325 0 
L 3669 0 
L 3244 1197 
L 1141 1197 
L 716 0 
L 50 0 
L 1831 4666 
z
" transform="scale(0.015625)"/>
       <path id="DejaVuSans-29" d="M 513 4856 
L 1013 4856 
Q 1481 4119 1714 3412 
Q 1947 2706 1947 2009 
Q 1947 1309 1714 600 
Q 1481 -109 1013 -844 
L 513 -844 
Q 928 -128 1133 580 
Q 1338 1288 1338 2009 
Q 1338 2731 1133 3434 
Q 928 4138 513 4856 
z
" transform="scale(0.015625)"/>
      </defs>
      <use xlink:href="#DejaVuSans-4f"/>
      <use xlink:href="#DejaVuSans-72" transform="translate(78.710938 0)"/>
      <use xlink:href="#DejaVuSans-65" transform="translate(117.574219 0)"/>
      <use xlink:href="#DejaVuSans-20" transform="translate(179.097656 0)"/>
      <use xlink:href="#DejaVuSans-73" transform="translate(210.884766 0)"/>
      <use xlink:href="#DejaVuSans-65" transform="translate(262.984375 0)"/>
      <use xlink:href="#DejaVuSans-74" transform="translate(324.507812 0)"/>
      <use xlink:href="#DejaVuSans-74" transform="translate(363.716797 0)"/>
      <use xlink:href="#DejaVuSans-69" transform="translate(402.925781 0)"/>
      <use xlink:href="#DejaVuSans-6d" transform="translate(430.708984 0)"/>
      <use xlink:href="#DejaVuSans-61" transform="translate(528.121094 0)"/>
      <use xlink:href="#DejaVuSans-6e" transform="translate(589.400391 0)"/>
      <use xlink:href="#DejaVuSans-61" transform="translate(652.779297 0)"/>
      <use xlink:href="#DejaVuSans-6c" transform="translate(714.058594 0)"/>
      <use xlink:href="#DejaVuSans-69" transform="translate(741.841797 0)"/>
      <use xlink:href="#DejaVuSans-20" transform="translate(769.625 0)"/>
      <use xlink:href="#DejaVuSans-28" transform="translate(801.412109 0)"/>
      <use xlink:href="#DejaVuSans-75" transform="translate(840.425781 0)"/>
      <use xlink:href="#DejaVuSans-73" transform="translate(903.804688 0)"/>
      <use xlink:href="#DejaVuSans-6f" transform="translate(955.904297 0)"/>
      <use xlink:href="#DejaVuSans-20" transform="translate(1017.085938 0)"/>
      <use xlink:href="#DejaVuSans-71" transform="translate(1048.873047 0)"/>
      <use xlink:href="#DejaVuSans-75" transform="translate(1112.349609 0)"/>
      <use xlink:href="#DejaVuSans-6f" transform="translate(1175.728516 0)"/>
      <use xlink:href="#DejaVuSans-74" transform="translate(1236.910156 0)"/>
      <use xlink:href="#DejaVuSans-69" transform="translate(1276.119141 0)"/>
      <use xlink:href="#DejaVuSans-64" transform="translate(1303.902344 0)"/>
      <use xlink:href="#DejaVuSans-69" transform="translate(1367.378906 0)"/>
      <use xlink:href="#DejaVuSans-61" transform="translate(1395.162109 0)"/>
      <use xlink:href="#DejaVuSans-6e" transform="translate(1456.441406 0)"/>
      <use xlink:href="#DejaVuSans-6f" transform="translate(1519.820312 0)"/>
      <use xlink:href="#DejaVuSans-20" transform="translate(1581.001953 0)"/>
      <use xlink:href="#DejaVuSans-49" transform="translate(1612.789062 0)"/>
      <use xlink:href="#DejaVuSans-41" transform="translate(1642.28125 0)"/>
      <use xlink:href="#DejaVuSans-29" transform="translate(1710.689453 0)"/>
     </g>
    </g>
   </g>
   <g id="patch_3">
    <path d="M 77.393895 246.49643 
L 162.683244 246.49643 
L 162.683244 180.78056 
L 77.393895 180.78056 
L 77.393895 246.49643 
z
" clip-path="url(#pad094774ad)" style="fill: #df2020; stroke: #343434; stroke-linejoin: miter"/>
   </g>
   <g id="line2d_50">
    <path d="M 120.03857 246.49643 
L 120.03857 270.39311 
" clip-path="url(#pad094774ad)" style="fill: none; stroke: #343434"/>
   </g>
   <g id="line2d_51">
    <path d="M 120.03857 180.78056 
L 120.03857 103.116349 
" clip-path="url(#pad094774ad)" style="fill: none; stroke: #343434"/>
   </g>
   <g id="line2d_52">
    <path d="M 98.716232 270.39311 
L 141.360907 270.39311 
" clip-path="url(#pad094774ad)" style="fill: none; stroke: #343434; stroke-linecap: round"/>
   </g>
   <g id="line2d_53">
    <path d="M 98.716232 103.116349 
L 141.360907 103.116349 
" clip-path="url(#pad094774ad)" style="fill: none; stroke: #343434; stroke-linecap: round"/>
   </g>
   <g id="patch_4">
    <path d="M 184.005581 270.39311 
L 269.29493 270.39311 
L 269.29493 174.80639 
L 184.005581 174.80639 
L 184.005581 270.39311 
z
" clip-path="url(#pad094774ad)" style="fill: #2f7e2f; stroke: #343434; stroke-linejoin: miter"/>
   </g>
   <g id="line2d_54">
    <path d="M 226.650256 270.39311 
L 226.650256 270.39311 
" clip-path="url(#pad094774ad)" style="fill: none; stroke: #343434"/>
   </g>
   <g id="line2d_55">
    <path d="M 226.650256 174.80639 
L 226.650256 31.426309 
" clip-path="url(#pad094774ad)" style="fill: none; stroke: #343434"/>
   </g>
   <g id="line2d_56">
    <path d="M 205.327918 270.39311 
L 247.972593 270.39311 
" clip-path="url(#pad094774ad)" style="fill: none; stroke: #343434; stroke-linecap: round"/>
   </g>
   <g id="line2d_57">
    <path d="M 205.327918 31.426309 
L 247.972593 31.426309 
" clip-path="url(#pad094774ad)" style="fill: none; stroke: #343434; stroke-linecap: round"/>
   </g>
   <g id="patch_5">
    <path d="M 290.617267 270.39311 
L 375.906616 270.39311 
L 375.906616 222.59975 
L 290.617267 222.59975 
L 290.617267 270.39311 
z
" clip-path="url(#pad094774ad)" style="fill: #dfc120; stroke: #343434; stroke-linejoin: miter"/>
   </g>
   <g id="line2d_58">
    <path d="M 333.261942 270.39311 
L 333.261942 270.39311 
" clip-path="url(#pad094774ad)" style="fill: none; stroke: #343434"/>
   </g>
   <g id="line2d_59">
    <path d="M 333.261942 222.59975 
L 333.261942 174.80639 
" clip-path="url(#pad094774ad)" style="fill: none; stroke: #343434"/>
   </g>
   <g id="line2d_60">
    <path d="M 311.939604 270.39311 
L 354.584279 270.39311 
" clip-path="url(#pad094774ad)" style="fill: none; stroke: #343434; stroke-linecap: round"/>
   </g>
   <g id="line2d_61">
    <path d="M 311.939604 174.80639 
L 354.584279 174.80639 
" clip-path="url(#pad094774ad)" style="fill: none; stroke: #343434; stroke-linecap: round"/>
   </g>
   <g id="patch_6">
    <path d="M 397.228953 270.39311 
L 482.518302 270.39311 
L 482.518302 222.59975 
L 397.228953 222.59975 
L 397.228953 270.39311 
z
" clip-path="url(#pad094774ad)" style="fill: #5573cd; stroke: #343434; stroke-linejoin: miter"/>
   </g>
   <g id="line2d_62">
    <path d="M 439.873628 270.39311 
L 439.873628 270.39311 
" clip-path="url(#pad094774ad)" style="fill: none; stroke: #343434"/>
   </g>
   <g id="line2d_63">
    <path d="M 439.873628 222.59975 
L 439.873628 150.909709 
" clip-path="url(#pad094774ad)" style="fill: none; stroke: #343434"/>
   </g>
   <g id="line2d_64">
    <path d="M 418.55129 270.39311 
L 461.195965 270.39311 
" clip-path="url(#pad094774ad)" style="fill: none; stroke: #343434; stroke-linecap: round"/>
   </g>
   <g id="line2d_65">
    <path d="M 418.55129 150.909709 
L 461.195965 150.909709 
" clip-path="url(#pad094774ad)" style="fill: none; stroke: #343434; stroke-linecap: round"/>
   </g>
   <g id="line2d_66">
    <path d="M 77.393895 222.59975 
L 162.683244 222.59975 
" clip-path="url(#pad094774ad)" style="fill: none; stroke: #343434"/>
   </g>
   <g id="line2d_67">
    <path d="M 184.005581 222.59975 
L 269.29493 222.59975 
" clip-path="url(#pad094774ad)" style="fill: none; stroke: #343434"/>
   </g>
   <g id="line2d_68">
    <path d="M 290.617267 246.49643 
L 375.906616 246.49643 
" clip-path="url(#pad094774ad)" style="fill: none; stroke: #343434"/>
   </g>
   <g id="line2d_69">
    <path d="M 397.228953 246.49643 
L 482.518302 246.49643 
" clip-path="url(#pad094774ad)" style="fill: none; stroke: #343434"/>
   </g>
   <g id="patch_7">
    <path d="M 66.732727 282.34145 
L 66.732727 19.477969 
" style="fill: none; stroke: #cccccc; stroke-width: 0.8; stroke-linejoin: miter; stroke-linecap: square"/>
   </g>
   <g id="patch_8">
    <path d="M 66.732727 282.34145 
L 493.179471 282.34145 
" style="fill: none; stroke: #cccccc; stroke-width: 0.8; stroke-linejoin: miter; stroke-linecap: square"/>
   </g>
   <g id="text_13">
    <!-- Uso quotidiano dell'IA — box senza outlier (outlier tabellati a parte) -->
    <g style="fill: #262626" transform="translate(60.706021 13.477969) scale(0.13 -0.13)">
     <defs>
      <path id="DejaVuSans-55" d="M 556 4666 
L 1191 4666 
L 1191 1831 
Q 1191 1081 1462 751 
Q 1734 422 2344 422 
Q 2950 422 3222 751 
Q 3494 1081 3494 1831 
L 3494 4666 
L 4128 4666 
L 4128 1753 
Q 4128 841 3676 375 
Q 3225 -91 2344 -91 
Q 1459 -91 1007 375 
Q 556 841 556 1753 
L 556 4666 
z
" transform="scale(0.015625)"/>
      <path id="DejaVuSans-27" d="M 1147 4666 
L 1147 2931 
L 616 2931 
L 616 4666 
L 1147 4666 
z
" transform="scale(0.015625)"/>
      <path id="DejaVuSans-2014" d="M 313 1978 
L 6088 1978 
L 6088 1528 
L 313 1528 
L 313 1978 
z
" transform="scale(0.015625)"/>
      <path id="DejaVuSans-62" d="M 3116 1747 
Q 3116 2381 2855 2742 
Q 2594 3103 2138 3103 
Q 1681 3103 1420 2742 
Q 1159 2381 1159 1747 
Q 1159 1113 1420 752 
Q 1681 391 2138 391 
Q 2594 391 2855 752 
Q 3116 1113 3116 1747 
z
M 1159 2969 
Q 1341 3281 1617 3432 
Q 1894 3584 2278 3584 
Q 2916 3584 3314 3078 
Q 3713 2572 3713 1747 
Q 3713 922 3314 415 
Q 2916 -91 2278 -91 
Q 1894 -91 1617 61 
Q 1341 213 1159 525 
L 1159 0 
L 581 0 
L 581 4863 
L 1159 4863 
L 1159 2969 
z
" transform="scale(0.015625)"/>
      <path id="DejaVuSans-78" d="M 3513 3500 
L 2247 1797 
L 3578 0 
L 2900 0 
L 1881 1375 
L 863 0 
L 184 0 
L 1544 1831 
L 300 3500 
L 978 3500 
L 1906 2253 
L 2834 3500 
L 3513 3500 
z
" transform="scale(0.015625)"/>
     </defs>
     <use xlink:href="#DejaVuSans-55"/>
     <use xlink:href="#DejaVuSans-73" transform="translate(73.193359 0)"/>
     <use xlink:href="#DejaVuSans-6f" transform="translate(125.292969 0)"/>
     <use xlink:href="#DejaVuSans-20" transform="translate(186.474609 0)"/>
     <use xlink:href="#DejaVuSans-71" transform="translate(218.261719 0)"/>
     <use xlink:href="#DejaVuSans-75" transform="translate(281.738281 0)"/>
     <use xlink:href="#DejaVuSans-6f" transform="translate(345.117188 0)"/>
     <use xlink:href="#DejaVuSans-74" transform="translate(406.298828 0)"/>
     <use xlink:href="#DejaVuSans-69" transform="translate(445.507812 0)"/>
     <use xlink:href="#DejaVuSans-64" transform="translate(473.291016 0)"/>
     <use xlink:href="#DejaVuSans-69" transform="translate(536.767578 0)"/>
     <use xlink:href="#DejaVuSans-61" transform="translate(564.550781 0)"/>
     <use xlink:href="#DejaVuSans-6e" transform="translate(625.830078 0)"/>
     <use xlink:href="#DejaVuSans-6f" transform="translate(689.208984 0)"/>
     <use xlink:href="#DejaVuSans-20" transform="translate(750.390625 0)"/>
     <use xlink:href="#DejaVuSans-64" transform="translate(782.177734 0)"/>
     <use xlink:href="#DejaVuSans-65" transform="translate(845.654297 0)"/>
     <use xlink:href="#DejaVuSans-6c" transform="translate(907.177734 0)"/>
     <use xlink:href="#DejaVuSans-6c" transform="translate(934.960938 0)"/>
     <use xlink:href="#DejaVuSans-27" transform="translate(962.744141 0)"/>
     <use xlink:href="#DejaVuSans-49" transform="translate(990.234375 0)"/>
     <use xlink:href="#DejaVuSans-41" transform="translate(1019.726562 0)"/>
     <use xlink:href="#DejaVuSans-20" transform="translate(1088.134766 0)"/>
     <use xlink:href="#DejaVuSans-2014" transform="translate(1119.921875 0)"/>
     <use xlink:href="#DejaVuSans-20" transform="translate(1219.921875 0)"/>
     <use xlink:href="#DejaVuSans-62" transform="translate(1251.708984 0)"/>
     <use xlink:href="#DejaVuSans-6f" transform="translate(1315.185547 0)"/>
     <use xlink:href="#DejaVuSans-78" transform="translate(1373.242188 0)"/>
     <use xlink:href="#DejaVuSans-20" transform="translate(1432.421875 0)"/>
     <use xlink:href="#DejaVuSans-73" transform="translate(1464.208984 0)"/>
     <use xlink:href="#DejaVuSans-65" transform="translate(1516.308594 0)"/>
     <use xlink:href="#DejaVuSans-6e" transform="translate(1577.832031 0)"/>
     <use xlink:href="#DejaVuSans-7a" transform="translate(1641.210938 0)"/>
     <use xlink:href="#DejaVuSans-61" transform="translate(1693.701172 0)"/>
     <use xlink:href="#DejaVuSans-20" transform="translate(1754.980469 0)"/>
     <use xlink:href="#DejaVuSans-6f" transform="translate(1786.767578 0)"/>
     <use xlink:href="#DejaVuSans-75" transform="translate(1847.949219 0)"/>
     <use xlink:href="#DejaVuSans-74" transform="translate(1911.328125 0)"/>
     <use xlink:href="#DejaVuSans-6c" transform="translate(1950.537109 0)"/>
     <use xlink:href="#DejaVuSans-69" transform="translate(1978.320312 0)"/>
     <use xlink:href="#DejaVuSans-65" transform="translate(2006.103516 0)"/>
     <use xlink:href="#DejaVuSans-72" transform="translate(2067.626953 0)"/>
     <use xlink:href="#DejaVuSans-20" transform="translate(2108.740234 0)"/>
     <use xlink:href="#DejaVuSans-28" transform="translate(2140.527344 0)"/>
     <use xlink:href="#DejaVuSans-6f" transform="translate(2179.541016 0)"/>
     <use xlink:href="#DejaVuSans-75" transform="translate(2240.722656 0)"/>
     <use xlink:href="#DejaVuSans-74" transform="translate(2304.101562 0)"/>
     <use xlink:href="#DejaVuSans-6c" transform="translate(2343.310547 0)"/>
     <use xlink:href="#DejaVuSans-69" transform="translate(2371.09375 0)"/>
     <use xlink:href="#DejaVuSans-65" transform="translate(2398.876953 0)"/>
     <use xlink:href="#DejaVuSans-72" transform="translate(2460.400391 0)"/>
     <use xlink:href="#DejaVuSans-20" transform="translate(2501.513672 0)"/>
     <use xlink:href="#DejaVuSans-74" transform="translate(2533.300781 0)"/>
     <use xlink:href="#DejaVuSans-61" transform="translate(2572.509766 0)"/>
     <use xlink:href="#DejaVuSans-62" transform="translate(2633.789062 0)"/>
     <use xlink:href="#DejaVuSans-65" transform="translate(2697.265625 0)"/>
     <use xlink:href="#DejaVuSans-6c" transform="translate(2758.789062 0)"/>
     <use xlink:href="#DejaVuSans-6c" transform="translate(2786.572266 0)"/>
     <use xlink:href="#DejaVuSans-61" transform="translate(2814.355469 0)"/>
     <use xlink:href="#DejaVuSans-74" transform="translate(2875.634766 0)"/>
     <use xlink:href="#DejaVuSans-69" transform="translate(2914.84375 0)"/>
     <use xlink:href="#DejaVuSans-20" transform="translate(2942.626953 0)"/>
     <use xlink:href="#DejaVuSans-61" transform="translate(2974.414062 0)"/>
     <use xlink:href="#DejaVuSans-20" transform="translate(3035.693359 0)"/>
     <use xlink:href="#DejaVuSans-70" transform="translate(3067.480469 0)"/>
     <use xlink:href="#DejaVuSans-61" transform="translate(3130.957031 0)"/>
     <use xlink:href="#DejaVuSans-72" transform="translate(3192.236328 0)"/>
     <use xlink:href="#DejaVuSans-74" transform="translate(3233.349609 0)"/>
     <use xlink:href="#DejaVuSans-65" transform="translate(3272.558594 0)"/>
     <use xlink:href="#DejaVuSans-29" transform="translate(3334.082031 0)"/>
    </g>
   </g>
  </g>
 </g>
 <defs>
  <clipPath id="pad094774ad">
   <rect x="66.732727" y="19.477969" width="426.446744" height="262.863481"/>
  </clipPath>
 </defs>
</svg>
