<svg xmlns="http://www.w3.org/2000/svg" xmlns:xlink="http://www.w3.org/1999/xlink" version="1.1" class="marks" width="544" height="461" viewBox="0 0 544 461"><rect width="544" height="461" fill="white"/><g fill="none" stroke-miterlimit="10" transform="translate(39,27)"><g class="mark-group role-frame root" role="graphics-object" aria-roledescription="group mark container"><g transform="translate(0,0)"><path class="background" aria-hidden="true" d="M0.5,0.5h500v300h-500Z" stroke="#ddd"/><g><g class="mark-group role-axis" aria-hidden="true"><g transform="translate(0.5,0.5)"><path class="background" aria-hidden="true" d="M0,0h0v0h0Z" pointer-events="none"/><g><g class="mark-rule role-axis-grid" pointer-events="none"><line transform="translate(0,300)" x2="500" y2="0" stroke="#ddd" stroke-width="1" opacity="1"/><line transform="translate(0,257)" x2="500" y2="0" stroke="#ddd" stroke-width="1" opacity="1"/><line transform="translate(0,214)" x2="500" y2="0" stroke="#ddd" stroke-width="1" opacity="1"/><line transform="translate(0,171)" x2="500" y2="0" stroke="#ddd" stroke-width="1" opacity="1"/><line transform="translate(0,129)" x2="500" y2="0" stroke="#ddd" stroke-width="1" opacity="1"/><line transform="translate(0,86)" x2="500" y2="0" stroke="#ddd" stroke-width="1" opacity="1"/><line transform="translate(0,43)" x2="500" y2="0" stroke="#ddd" stroke-width="1" opacity="1"/><line transform="translate(0,0)" x2="500" y2="0" stroke="#ddd" stroke-width="1" opacity="1"/></g></g><path class="foreground" aria-hidden="true" d="" pointer-events="none" display="none"/></g></g><g class="mark-group role-axis" role="graphics-symbol" aria-roledescription="axis" aria-label="X-axis titled 'Group' for a discrete scale with 4 values: students - secondary, students - university, teachers - not in service, teachers - in service"><g transform="translate(0.5,300.5)"><path class="background" aria-hidden="true" d="M0,0h0v0h0Z" pointer-events="none"/><g><g class="mark-rule role-axis-tick" pointer-events="none"><line transform="translate(62,0)" x2="0" y2="5" stroke="#888" stroke-width="1" opacity="1"/><line transform="translate(187,0)" x2="0" y2="5" stroke="#888" stroke-width="1" opacity="1"/><line transform="translate(312,0)" x2="0" y2="5" stroke="#888" stroke-width="1" opacity="1"/><line transform="translate(437,0)" x2="0" y2="5" stroke="#888" stroke-width="1" opacity="1"/></g><g class="mark-text role-axis-label" pointer-events="none"><text text-anchor="end" transform="translate(62,7) rotate(270) translate(0,3)" font-family="sans-serif" font-size="10px" fill="#000" opacity="1">students - secondary</text><text text-anchor="end" transform="translate(187,7) rotate(270) translate(0,3)" font-family="sans-serif" font-size="10px" fill="#000" opacity="1">students - university</text><text text-anchor="end" transform="translate(312,7) rotate(270) translate(0,3)" font-family="sans-serif" font-size="10px" fill="#000" opacity="1">teachers - not in service</text><text text-anchor="end" transform="translate(437,7) rotate(270) translate(0,3)" font-family="sans-serif" font-size="10px" fill="#000" opacity="1">teachers - in service</text></g><g class="mark-rule role-axis-domain" pointer-events="none"><line transform="translate(0,0)" x2="500" y2="0" stroke="#888" stroke-width="1" opacity="1"/></g><g class="mark-text role-axis-title" pointer-events="none"><text text-anchor="middle" transform="translate(250,126.1572265625)" font-family="sans-serif" font-size="11px" font-weight="bold" fill="#000" opacity="1">Group</text></g></g><path class="foreground" aria-hidden="true" d="" pointer-events="none" display="none"/></g></g><g class="mark-group role-axis" role="graphics-symbol" aria-roledescription="axis" aria-label="Y-axis titled 'Age (years)' for a linear scale with values from 0 to 70"><g transform="translate(0.5,0.5)"><path class="background" aria-hidden="true" d="M0,0h0v0h0Z" pointer-events="none"/><g><g class="mark-rule role-axis-tick" pointer-events="none"><line transform="translate(0,300)" x2="-5" y2="0" stroke="#888" stroke-width="1" opacity="1"/><line transform="translate(0,257)" x2="-5" y2="0" stroke="#888" stroke-width="1" opacity="1"/><line transform="translate(0,214)" x2="-5" y2="0" stroke="#888" stroke-width="1" opacity="1"/><line transform="translate(0,171)" x2="-5" y2="0" stroke="#888" stroke-width="1" opacity="1"/><line transform="translate(0,129)" x2="-5" y2="0" stroke="#888" stroke-width="1" opacity="1"/><line transform="translate(0,86)" x2="-5" y2="0" stroke="#888" stroke-width="1" opacity="1"/><line transform="translate(0,43)" x2="-5" y2="0" stroke="#888" stroke-width="1" opacity="1"/><line transform="translate(0,0)" x2="-5" y2="0" stroke="#888" stroke-width="1" opacity="1"/></g><g class="mark-text role-axis-label" pointer-events="none"><text text-anchor="end" transform="translate(-7,303)" font-family="sans-serif" font-size="10px" fill="#000" opacity="1">0</text><text text-anchor="end" transform="translate(-7,260.14285714285717)" font-family="sans-serif" font-size="10px" fill="#000" opacity="1">10</text><text text-anchor="end" transform="translate(-7,217.28571428571428)" font-family="sans-serif" font-size="10px" fill="#000" opacity="1">20</text><text text-anchor="end" transform="translate(-7,174.42857142857142)" font-family="sans-serif" font-size="10px" fill="#000" opacity="1">30</text><text text-anchor="end" transform="translate(-7,131.57142857142858)" font-family="sans-serif" font-size="10px" fill="#000" opacity="1">40</text><text text-anchor="end" transform="translate(-7,88.71428571428571)" font-family="sans-serif" font-size="10px" fill="#000" opacity="1">50</text><text text-anchor="end" transform="translate(-7,45.85714285714287)" font-family="sans-serif" font-size="10px" fill="#000" opacity="1">60</text><text text-anchor="end" transform="translate(-7,3)" font-family="sans-serif" font-size="10px" fill="#000" opacity="1">70</text></g><g class="mark-rule role-axis-domain" pointer-events="none"><line transform="translate(0,300)" x2="0" y2="-300" stroke="#888" stroke-width="1" opacity="1"/></g><g class="mark-text role-axis-title" pointer-events="none"><text text-anchor="middle" transform="translate(-22.123046875,150) rotate(-90) translate(0,-2)" font-family="sans-serif" font-size="11px" font-weight="bold" fill="#000" opacity="1">Age (years)</text></g></g><path class="foreground" aria-hidden="true" d="" pointer-events="none" display="none"/></g></g><g class="mark-symbol role-mark layer_0_layer_0_marks" role="graphics-object" aria-roledescription="symbol mark container"><path aria-label="Group: students - university; Age (years): 26; GroupDetail: students - university" role="graphics-symbol" aria-roledescription="point" transform="translate(187.5,188.57142857142856)" d="M2.739,0A2.739,2.739,0,1,1,-2.739,0A2.739,2.739,0,1,1,2.739,0" stroke="forestgreen" stroke-width="2" opacity="0.7"/><path aria-label="Group: students - university; Age (years): 29; GroupDetail: students - university" role="graphics-symbol" aria-roledescription="point" transform="translate(187.5,175.7142857142857)" d="M2.739,0A2.739,2.739,0,1,1,-2.739,0A2.739,2.739,0,1,1,2.739,0" stroke="forestgreen" stroke-width="2" opacity="0.7"/><path aria-label="Group: students - university; Age (years): 45; GroupDetail: students - university" role="graphics-symbol" aria-roledescription="point" transform="translate(187.5,107.14285714285712)" d="M2.739,0A2.739,2.739,0,1,1,-2.739,0A2.739,2.739,0,1,1,2.739,0" stroke="forestgreen" stroke-width="2" opacity="0.7"/><path aria-label="Group: students - university; Age (years): 19; GroupDetail: students - university" role="graphics-symbol" aria-roledescription="point" transform="translate(187.5,218.57142857142858)" d="M2.739,0A2.739,2.739,0,1,1,-2.739,0A2.739,2.739,0,1,1,2.739,0" stroke="forestgreen" stroke-width="2" opacity="0.7"/><path aria-label="Group: students - university; Age (years): 20; GroupDetail: students - university" role="graphics-symbol" aria-roledescription="point" transform="translate(187.5,214.28571428571428)" d="M2.739,0A2.739,2.739,0,1,1,-2.739,0A2.739,2.739,0,1,1,2.739,0" stroke="forestgreen" stroke-width="2" opacity="0.7"/><path aria-label="Group: students - university; Age (years): 20; GroupDetail: students - university" role="graphics-symbol" aria-roledescription="point" transform="translate(187.5,214.28571428571428)" d="M2.739,0A2.739,2.739,0,1,1,-2.739,0A2.739,2.739,0,1,1,2.739,0" stroke="forestgreen" stroke-width="2" opacity="0.7"/><path aria-label="Group: students - university; Age (years): 49; GroupDetail: students - university" role="graphics-symbol" aria-roledescription="point" transform="translate(187.5,90.00000000000001)" d="M2.739,0A2.739,2.739,0,1,1,-2.739,0A2.739,2.739,0,1,1,2.739,0" stroke="forestgreen" stroke-width="2" opacity="0.7"/><path aria-label="Group: students - university; Age (years): 19; GroupDetail: students - university" role="graphics-symbol" aria-roledescription="point" transform="translate(187.5,218.57142857142858)" d="M2.739,0A2.739,2.739,0,1,1,-2.739,0A2.739,2.739,0,1,1,2.739,0" stroke="forestgreen" stroke-width="2" opacity="0.7"/><path aria-label="Group: students - university; Age (years): 19; GroupDetail: students - university" role="graphics-symbol" aria-roledescription="point" transform="translate(187.5,218.57142857142858)" d="M2.739,0A2.739,2.739,0,1,1,-2.739,0A2.739,2.739,0,1,1,2.739,0" stroke="forestgreen" stroke-width="2" opacity="0.7"/><path aria-label="Group: students - university; Age (years): 19; GroupDetail: students - university" role="graphics-symbol" aria-roledescription="point" transform="translate(187.5,218.57142857142858)" d="M2.739,0A2.739,2.739,0,1,1,-2.739,0A2.739,2.739,0,1,1,2.739,0" stroke="forestgreen" stroke-width="2" opacity="0.7"/><path aria-label="Group: students - university; Age (years): 19; GroupDetail: students - university" role="graphics-symbol" aria-roledescription="point" transform="translate(187.5,218.57142857142858)" d="M2.739,0A2.739,2.739,0,1,1,-2.739,0A2.739,2.739,0,1,1,2.739,0" stroke="forestgreen" stroke-width="2" opacity="0.7"/><path aria-label="Group: students - university; Age (years): 20; GroupDetail: students - university" role="graphics-symbol" aria-roledescription="point" transform="translate(187.5,214.28571428571428)" d="M2.739,0A2.739,2.739,0,1,1,-2.739,0A2.739,2.739,0,1,1,2.739,0" stroke="forestgreen" stroke-width="2" opacity="0.7"/><path aria-label="Group: students - university; Age (years): 20; GroupDetail: students - university" role="graphics-symbol" aria-roledescription="point" transform="translate(187.5,214.28571428571428)" d="M2.739,0A2.739,2.739,0,1,1,-2.739,0A2.739,2.739,0,1,1,2.739,0" stroke="forestgreen" stroke-width="2" opacity="0.7"/><path aria-label="Group: students - university; Age (years): 20; GroupDetail: students - university" role="graphics-symbol" aria-roledescription="point" transform="translate(187.5,214.28571428571428)" d="M2.739,0A2.739,2.739,0,1,1,-2.739,0A2.739,2.739,0,1,1,2.739,0" stroke="forestgreen" stroke-width="2" opacity="0.7"/><path aria-label="Group: students - university; Age (years): 19; GroupDetail: students - university" role="graphics-symbol" aria-roledescription="point" transform="translate(187.5,218.57142857142858)" d="M2.739,0A2.739,2.739,0,1,1,-2.739,0A2.739,2.739,0,1,1,2.739,0" stroke="forestgreen" stroke-width="2" opacity="0.7"/><path aria-label="Group: students - university; Age (years): 20; GroupDetail: students - university" role="graphics-symbol" aria-roledescription="point" transform="translate(187.5,214.28571428571428)" d="M2.739,0A2.739,2.739,0,1,1,-2.739,0A2.739,2.739,0,1,1,2.739,0" stroke="forestgreen" stroke-width="2" opacity="0.7"/><path aria-label="Group: students - university; Age (years): 18; GroupDetail: students - university" role="graphics-symbol" aria-roledescription="point" transform="translate(187.5,222.85714285714286)" d="M2.739,0A2.739,2.739,0,1,1,-2.739,0A2.739,2.739,0,1,1,2.739,0" stroke="forestgreen" stroke-width="2" opacity="0.7"/><path aria-label="Group: students - university; Age (years): 20; GroupDetail: students - university" role="graphics-symbol" aria-roledescription="point" transform="translate(187.5,214.28571428571428)" d="M2.739,0A2.739,2.739,0,1,1,-2.739,0A2.739,2.739,0,1,1,2.739,0" stroke="forestgreen" stroke-width="2" opacity="0.7"/><path aria-label="Group: students - university; Age (years): 50; GroupDetail: students - university" role="graphics-symbol" aria-roledescription="point" transform="translate(187.5,85.71428571428571)" d="M2.739,0A2.739,2.739,0,1,1,-2.739,0A2.739,2.739,0,1,1,2.739,0" stroke="forestgreen" stroke-width="2" opacity="0.7"/><path aria-label="Group: students - university; Age (years): 18; GroupDetail: students - university" role="graphics-symbol" aria-roledescription="point" transform="translate(187.5,222.85714285714286)" d="M2.739,0A2.739,2.739,0,1,1,-2.739,0A2.739,2.739,0,1,1,2.739,0" stroke="forestgreen" stroke-width="2" opacity="0.7"/><path aria-label="Group: students - university; Age (years): 19; GroupDetail: students - university" role="graphics-symbol" aria-roledescription="point" transform="translate(187.5,218.57142857142858)" d="M2.739,0A2.739,2.739,0,1,1,-2.739,0A2.739,2.739,0,1,1,2.739,0" stroke="forestgreen" stroke-width="2" opacity="0.7"/><path aria-label="Group: students - university; Age (years): 31; GroupDetail: students - university" role="graphics-symbol" aria-roledescription="point" transform="translate(187.5,167.14285714285714)" d="M2.739,0A2.739,2.739,0,1,1,-2.739,0A2.739,2.739,0,1,1,2.739,0" stroke="forestgreen" stroke-width="2" opacity="0.7"/><path aria-label="Group: students - university; Age (years): 48; GroupDetail: students - university" role="graphics-symbol" aria-roledescription="point" transform="translate(187.5,94.28571428571428)" d="M2.739,0A2.739,2.739,0,1,1,-2.739,0A2.739,2.739,0,1,1,2.739,0" stroke="forestgreen" stroke-width="2" opacity="0.7"/><path aria-label="Group: students - university; Age (years): 26; GroupDetail: students - university" role="graphics-symbol" aria-roledescription="point" transform="translate(187.5,188.57142857142856)" d="M2.739,0A2.739,2.739,0,1,1,-2.739,0A2.739,2.739,0,1,1,2.739,0" stroke="forestgreen" stroke-width="2" opacity="0.7"/><path aria-label="Group: students - university; Age (years): 44; GroupDetail: students - university" role="graphics-symbol" aria-roledescription="point" transform="translate(187.5,111.42857142857143)" d="M2.739,0A2.739,2.739,0,1,1,-2.739,0A2.739,2.739,0,1,1,2.739,0" stroke="forestgreen" stroke-width="2" opacity="0.7"/><path aria-label="Group: students - university; Age (years): 20; GroupDetail: students - university" role="graphics-symbol" aria-roledescription="point" transform="translate(187.5,214.28571428571428)" d="M2.739,0A2.739,2.739,0,1,1,-2.739,0A2.739,2.739,0,1,1,2.739,0" stroke="forestgreen" stroke-width="2" opacity="0.7"/><path aria-label="Group: students - university; Age (years): 58; GroupDetail: students - university" role="graphics-symbol" aria-roledescription="point" transform="translate(187.5,51.42857142857141)" d="M2.739,0A2.739,2.739,0,1,1,-2.739,0A2.739,2.739,0,1,1,2.739,0" stroke="forestgreen" stroke-width="2" opacity="0.7"/><path aria-label="Group: students - university; Age (years): 20; GroupDetail: students - university" role="graphics-symbol" aria-roledescription="point" transform="translate(187.5,214.28571428571428)" d="M2.739,0A2.739,2.739,0,1,1,-2.739,0A2.739,2.739,0,1,1,2.739,0" stroke="forestgreen" stroke-width="2" opacity="0.7"/><path aria-label="Group: students - university; Age (years): 19; GroupDetail: students - university" role="graphics-symbol" aria-roledescription="point" transform="translate(187.5,218.57142857142858)" d="M2.739,0A2.739,2.739,0,1,1,-2.739,0A2.739,2.739,0,1,1,2.739,0" stroke="forestgreen" stroke-width="2" opacity="0.7"/><path aria-label="Group: students - university; Age (years): 20; GroupDetail: students - university" role="graphics-symbol" aria-roledescription="point" transform="translate(187.5,214.28571428571428)" d="M2.739,0A2.739,2.739,0,1,1,-2.739,0A2.739,2.739,0,1,1,2.739,0" stroke="forestgreen" stroke-width="2" opacity="0.7"/><path aria-label="Group: students - university; Age (years): 19; GroupDetail: students - university" role="graphics-symbol" aria-roledescription="point" transform="translate(187.5,218.57142857142858)" d="M2.739,0A2.739,2.739,0,1,1,-2.739,0A2.739,2.739,0,1,1,2.739,0" stroke="forestgreen" stroke-width="2" opacity="0.7"/><path aria-label="Group: students - university; Age (years): 19; GroupDetail: students - university" role="graphics-symbol" aria-roledescription="point" transform="translate(187.5,218.57142857142858)" d="M2.739,0A2.739,2.739,0,1,1,-2.739,0A2.739,2.739,0,1,1,2.739,0" stroke="forestgreen" stroke-width="2" opacity="0.7"/><path aria-label="Group: students - university; Age (years): 19; GroupDetail: students - university" role="graphics-symbol" aria-roledescription="point" transform="translate(187.5,218.57142857142858)" d="M2.739,0A2.739,2.739,0,1,1,-2.739,0A2.739,2.739,0,1,1,2.739,0" stroke="forestgreen" stroke-width="2" opacity="0.7"/><path aria-label="Group: students - university; Age (years): 19; GroupDetail: students - university" role="graphics-symbol" aria-roledescription="point" transform="translate(187.5,218.57142857142858)" d="M2.739,0A2.739,2.739,0,1,1,-2.739,0A2.739,2.739,0,1,1,2.739,0" stroke="forestgreen" stroke-width="2" opacity="0.7"/><path aria-label="Group: students - university; Age (years): 20; GroupDetail: students - university" role="graphics-symbol" aria-roledescription="point" transform="translate(187.5,214.28571428571428)" d="M2.739,0A2.739,2.739,0,1,1,-2.739,0A2.739,2.739,0,1,1,2.739,0" stroke="forestgreen" stroke-width="2" opacity="0.7"/><path aria-label="Group: students - university; Age (years): 20; GroupDetail: students - university" role="graphics-symbol" aria-roledescription="point" transform="translate(187.5,214.28571428571428)" d="M2.739,0A2.739,2.739,0,1,1,-2.739,0A2.739,2.739,0,1,1,2.739,0" stroke="forestgreen" stroke-width="2" opacity="0.7"/><path aria-label="Group: students - university; Age (years): 19; GroupDetail: students - university" role="graphics-symbol" aria-roledescription="point" transform="translate(187.5,218.57142857142858)" d="M2.739,0A2.739,2.739,0,1,1,-2.739,0A2.739,2.739,0,1,1,2.739,0" stroke="forestgreen" stroke-width="2" opacity="0.7"/><path aria-label="Group: students - university; Age (years): 20; GroupDetail: students - university" role="graphics-symbol" aria-roledescription="point" transform="translate(187.5,214.28571428571428)" d="M2.739,0A2.739,2.739,0,1,1,-2.739,0A2.739,2.739,0,1,1,2.739,0" stroke="forestgreen" stroke-width="2" opacity="0.7"/><path aria-label="Group: students - university; Age (years): 45; GroupDetail: students - university" role="graphics-symbol" aria-roledescription="point" transform="translate(187.5,107.14285714285712)" d="M2.739,0A2.739,2.739,0,1,1,-2.739,0A2.739,2.739,0,1,1,2.739,0" stroke="forestgreen" stroke-width="2" opacity="0.7"/><path aria-label="Group: students - university; Age (years): 49; GroupDetail: students - university" role="graphics-symbol" aria-roledescription="point" transform="translate(187.5,90.00000000000001)" d="M2.739,0A2.739,2.739,0,1,1,-2.739,0A2.739,2.739,0,1,1,2.739,0" stroke="forestgreen" stroke-width="2" opacity="0.7"/><path aria-label="Group: students - university; Age (years): 41; GroupDetail: students - university" role="graphics-symbol" aria-roledescription="point" transform="translate(187.5,124.28571428571428)" d="M2.739,0A2.739,2.739,0,1,1,-2.739,0A2.739,2.739,0,1,1,2.739,0" stroke="forestgreen" stroke-width="2" opacity="0.7"/><path aria-label="Group: students - university; Age (years): 29; GroupDetail: students - university" role="graphics-symbol" aria-roledescription="point" transform="translate(187.5,175.7142857142857)" d="M2.739,0A2.739,2.739,0,1,1,-2.739,0A2.739,2.739,0,1,1,2.739,0" stroke="forestgreen" stroke-width="2" opacity="0.7"/><path aria-label="Group: students - university; Age (years): 25; GroupDetail: students - university" role="graphics-symbol" aria-roledescription="point" transform="translate(187.5,192.85714285714283)" d="M2.739,0A2.739,2.739,0,1,1,-2.739,0A2.739,2.739,0,1,1,2.739,0" stroke="forestgreen" stroke-width="2" opacity="0.7"/><path aria-label="Group: students - university; Age (years): 25; GroupDetail: students - university" role="graphics-symbol" aria-roledescription="point" transform="translate(187.5,192.85714285714283)" d="M2.739,0A2.739,2.739,0,1,1,-2.739,0A2.739,2.739,0,1,1,2.739,0" stroke="forestgreen" stroke-width="2" opacity="0.7"/><path aria-label="Group: students - university; Age (years): 25; GroupDetail: students - university" role="graphics-symbol" aria-roledescription="point" transform="translate(187.5,192.85714285714283)" d="M2.739,0A2.739,2.739,0,1,1,-2.739,0A2.739,2.739,0,1,1,2.739,0" stroke="forestgreen" stroke-width="2" opacity="0.7"/><path aria-label="Group: students - university; Age (years): 26; GroupDetail: students - university" role="graphics-symbol" aria-roledescription="point" transform="translate(187.5,188.57142857142856)" d="M2.739,0A2.739,2.739,0,1,1,-2.739,0A2.739,2.739,0,1,1,2.739,0" stroke="forestgreen" stroke-width="2" opacity="0.7"/><path aria-label="Group: students - university; Age (years): 26; GroupDetail: students - university" role="graphics-symbol" aria-roledescription="point" transform="translate(187.5,188.57142857142856)" d="M2.739,0A2.739,2.739,0,1,1,-2.739,0A2.739,2.739,0,1,1,2.739,0" stroke="forestgreen" stroke-width="2" opacity="0.7"/><path aria-label="Group: students - university; Age (years): 32; GroupDetail: students - university" role="graphics-symbol" aria-roledescription="point" transform="translate(187.5,162.8571428571429)" d="M2.739,0A2.739,2.739,0,1,1,-2.739,0A2.739,2.739,0,1,1,2.739,0" stroke="forestgreen" stroke-width="2" opacity="0.7"/><path aria-label="Group: students - university; Age (years): 25; GroupDetail: students - university" role="graphics-symbol" aria-roledescription="point" transform="translate(187.5,192.85714285714283)" d="M2.739,0A2.739,2.739,0,1,1,-2.739,0A2.739,2.739,0,1,1,2.739,0" stroke="forestgreen" stroke-width="2" opacity="0.7"/><path aria-label="Group: students - university; Age (years): 26; GroupDetail: students - university" role="graphics-symbol" aria-roledescription="point" transform="translate(187.5,188.57142857142856)" d="M2.739,0A2.739,2.739,0,1,1,-2.739,0A2.739,2.739,0,1,1,2.739,0" stroke="forestgreen" stroke-width="2" opacity="0.7"/><path aria-label="Group: students - university; Age (years): 27; GroupDetail: students - university" role="graphics-symbol" aria-roledescription="point" transform="translate(187.5,184.2857142857143)" d="M2.739,0A2.739,2.739,0,1,1,-2.739,0A2.739,2.739,0,1,1,2.739,0" stroke="forestgreen" stroke-width="2" opacity="0.7"/><path aria-label="Group: students - university; Age (years): 42; GroupDetail: students - university" role="graphics-symbol" aria-roledescription="point" transform="translate(187.5,120)" d="M2.739,0A2.739,2.739,0,1,1,-2.739,0A2.739,2.739,0,1,1,2.739,0" stroke="forestgreen" stroke-width="2" opacity="0.7"/><path aria-label="Group: students - university; Age (years): 29; GroupDetail: students - university" role="graphics-symbol" aria-roledescription="point" transform="translate(187.5,175.7142857142857)" d="M2.739,0A2.739,2.739,0,1,1,-2.739,0A2.739,2.739,0,1,1,2.739,0" stroke="forestgreen" stroke-width="2" opacity="0.7"/><path aria-label="Group: students - university; Age (years): 17; GroupDetail: students - university" role="graphics-symbol" aria-roledescription="point" transform="translate(187.5,227.14285714285714)" d="M2.739,0A2.739,2.739,0,1,1,-2.739,0A2.739,2.739,0,1,1,2.739,0" stroke="forestgreen" stroke-width="2" opacity="0.7"/><path aria-label="Group: students - secondary; Age (years): 40; GroupDetail: students - secondary" role="graphics-symbol" aria-roledescription="point" transform="translate(62.5,128.57142857142858)" d="M2.739,0A2.739,2.739,0,1,1,-2.739,0A2.739,2.739,0,1,1,2.739,0" stroke="red" stroke-width="2" opacity="0.7"/></g><g class="mark-rule role-mark layer_0_layer_1_layer_0_marks" aria-hidden="true"><line transform="translate(437.5,214.28571428571428)" x2="0" y2="-81.42857142857142" stroke="black"/><line transform="translate(312.5,205.71428571428572)" x2="0" y2="-34.285714285714306" stroke="black"/><line transform="translate(187.5,210)" x2="0" y2="-4.285714285714278" stroke="black"/><line transform="translate(62.5,240)" x2="0" y2="-4.285714285714278" stroke="black"/></g><g class="mark-rule role-mark layer_0_layer_1_layer_1_marks" aria-hidden="true"><line transform="translate(437.5,72.85714285714286)" x2="0" y2="-55.71428571428571" stroke="black"/><line transform="translate(312.5,115.71428571428571)" x2="0" y2="-55.71428571428572" stroke="black"/><line transform="translate(187.5,201.42857142857144)" x2="0" y2="-4.285714285714306" stroke="black"/><line transform="translate(62.5,227.14285714285714)" x2="0" y2="-12.857142857142861" stroke="black"/></g><g class="mark-rect role-mark layer_1_layer_0_marks" role="graphics-object" aria-roledescription="rect mark container"><path aria-label="Group: teachers - in service; Age (years): 39; upper_box_Eta: 53; GroupDetail: teachers - in service; Max of Age (years): 66; Q3 of Age (years): 53; Median of Age (years): 46; Q1 of Age (years): 39; Min of Age (years): 20" role="graphics-symbol" aria-roledescription="box" d="M430.5,72.85714285714286h14v60h-14Z" fill="royalblue"/><path aria-label="Group: teachers - not in service; Age (years): 30; upper_box_Eta: 43; GroupDetail: teachers - not in service; Max of Age (years): 56; Q3 of Age (years): 43; Median of Age (years): 36; Q1 of Age (years): 30; Min of Age (years): 22" role="graphics-symbol" aria-roledescription="box" d="M305.5,115.71428571428571h14v55.71428571428571h-14Z" fill="gold"/><path aria-label="Group: students - university; Age (years): 22; upper_box_Eta: 23; GroupDetail: students - university; Max of Age (years): 58; Q3 of Age (years): 23; Median of Age (years): 22; Q1 of Age (years): 22; Min of Age (years): 17" role="graphics-symbol" aria-roledescription="box" d="M180.5,201.42857142857144h14v4.285714285714278h-14Z" fill="forestgreen"/><path aria-label="Group: students - secondary; Age (years): 15; upper_box_Eta: 17; GroupDetail: students - secondary; Max of Age (years): 40; Q3 of Age (years): 17; Median of Age (years): 15.5; Q1 of Age (years): 15; Min of Age (years): 14" role="graphics-symbol" aria-roledescription="box" d="M55.5,227.14285714285714h14v8.571428571428584h-14Z" fill="red"/></g><g class="mark-rect role-mark layer_1_layer_1_marks" aria-hidden="true"><path d="M430.5,102.35714285714286h14v1h-14Z" fill="white" opacity="0.7"/><path d="M305.5,145.21428571428572h14v1h-14Z" fill="white" opacity="0.7"/><path d="M180.5,205.21428571428572h14v1h-14Z" fill="white" opacity="0.7"/><path d="M55.5,233.07142857142858h14v1h-14Z" fill="white" opacity="0.7"/></g><g class="mark-group role-title"><g transform="translate(250,-22)"><path class="background" aria-hidden="true" d="M0,0h0v0h0Z" pointer-events="none"/><g><g class="mark-text role-title-text" role="graphics-symbol" aria-roledescription="title" aria-label="Title text 'Age distribution — box'" pointer-events="none"><text text-anchor="middle" transform="translate(0,10)" font-family="sans-serif" font-size="13px" font-weight="bold" fill="#000" opacity="1">Age distribution — box</text></g></g><path class="foreground" aria-hidden="true" d="" pointer-events="none" display="none"/></g></g></g><path class="foreground" aria-hidden="true" d="" display="none"/></g></g></g></svg>