<?xml version="1.0" encoding="utf-8" standalone="no"?>
<!DOCTYPE svg PUBLIC "-//W3C//DTD SVG 1.1//EN"
  "http://www.w3.org/Graphics/SVG/1.1/DTD/svg11.dtd">
<svg xmlns:xlink="http://www.w3.org/1999/xlink" width="720pt" height="396pt" viewBox="0 0 720 396" xmlns="http://www.w3.org/2000/svg" version="1.1">
 <metadata>
  <rdf:RDF xmlns:dc="http://purl.org/dc/elements/1.1/" xmlns:cc="http://creativecommons.org/ns#" xmlns:rdf="http://www.w3.org/1999/02/22-rdf-syntax-ns#">
   <cc:Work>
    <dc:type rdf:resource="http://purl.org/dc/dcmitype/StillImage"/>
    <dc:date>2025-11-07T20:00:08.499532</dc:date>
    <dc:format>image/svg+xml</dc:format>
    <dc:creator>
     <cc:Agent>
      <dc:title>Matplotlib v3.10.7, https://matplotlib.org/</dc:title>
     </cc:Agent>
    </dc:creator>
   </cc:Work>
  </rdf:RDF>
 </metadata>
 <defs>
  <style type="text/css">*{stroke-linejoin: round; stroke-linecap: butt}</style>
 </defs>
 <g id="figure_1">
  <g id="patch_1">
   <path d="M 0 396 
L 720 396 
L 720 0 
L 0 0 
z
" style="fill: #ffffff"/>
  </g>
  <g id="axes_1">
   <g id="patch_2">
    <path d="M 37.01 346.769243 
L 711.36 346.769243 
L 711.36 21.84 
L 37.01 21.84 
z
" style="fill: #ffffff"/>
   </g>
   <g id="matplotlib.axis_1">
    <g id="xtick_1">
     <g id="line2d_1">
      <defs>
       <path id="m17aa6341e3" d="M 0 0 
L 0 3.5 
" style="stroke: #000000; stroke-width: 0.8"/>
      </defs>
      <g>
       <use xlink:href="#m17aa6341e3" x="121.30375" y="346.769243" style="stroke: #000000; stroke-width: 0.8"/>
      </g>
     </g>
     <g id="text_1">
      <!-- Students - secondary -->
      <g transform="translate(37.217551 374.531367) rotate(-10) scale(0.08 -0.08)">
       <defs>
        <path id="DejaVuSans-53" d="M 3425 4513 
L 3425 3897 
Q 3066 4069 2747 4153 
Q 2428 4238 2131 4238 
Q 1616 4238 1336 4038 
Q 1056 3838 1056 3469 
Q 1056 3159 1242 3001 
Q 1428 2844 1947 2747 
L 2328 2669 
Q 3034 2534 3370 2195 
Q 3706 1856 3706 1288 
Q 3706 609 3251 259 
Q 2797 -91 1919 -91 
Q 1588 -91 1214 -16 
Q 841 59 441 206 
L 441 856 
Q 825 641 1194 531 
Q 1563 422 1919 422 
Q 2459 422 2753 634 
Q 3047 847 3047 1241 
Q 3047 1584 2836 1778 
Q 2625 1972 2144 2069 
L 1759 2144 
Q 1053 2284 737 2584 
Q 422 2884 422 3419 
Q 422 4038 858 4394 
Q 1294 4750 2059 4750 
Q 2388 4750 2728 4690 
Q 3069 4631 3425 4513 
z
" transform="scale(0.015625)"/>
        <path id="DejaVuSans-74" d="M 1172 4494 
L 1172 3500 
L 2356 3500 
L 2356 3053 
L 1172 3053 
L 1172 1153 
Q 1172 725 1289 603 
Q 1406 481 1766 481 
L 2356 481 
L 2356 0 
L 1766 0 
Q 1100 0 847 248 
Q 594 497 594 1153 
L 594 3053 
L 172 3053 
L 172 3500 
L 594 3500 
L 594 4494 
L 1172 4494 
z
" transform="scale(0.015625)"/>
        <path id="DejaVuSans-75" d="M 544 1381 
L 544 3500 
L 1119 3500 
L 1119 1403 
Q 1119 906 1312 657 
Q 1506 409 1894 409 
Q 2359 409 2629 706 
Q 2900 1003 2900 1516 
L 2900 3500 
L 3475 3500 
L 3475 0 
L 2900 0 
L 2900 538 
Q 2691 219 2414 64 
Q 2138 -91 1772 -91 
Q 1169 -91 856 284 
Q 544 659 544 1381 
z
M 1991 3584 
L 1991 3584 
z
" transform="scale(0.015625)"/>
        <path id="DejaVuSans-64" d="M 2906 2969 
L 2906 4863 
L 3481 4863 
L 3481 0 
L 2906 0 
L 2906 525 
Q 2725 213 2448 61 
Q 2172 -91 1784 -91 
Q 1150 -91 751 415 
Q 353 922 353 1747 
Q 353 2572 751 3078 
Q 1150 3584 1784 3584 
Q 2172 3584 2448 3432 
Q 2725 3281 2906 2969 
z
M 947 1747 
Q 947 1113 1208 752 
Q 1469 391 1925 391 
Q 2381 391 2643 752 
Q 2906 1113 2906 1747 
Q 2906 2381 2643 2742 
Q 2381 3103 1925 3103 
Q 1469 3103 1208 2742 
Q 947 2381 947 1747 
z
" transform="scale(0.015625)"/>
        <path id="DejaVuSans-65" d="M 3597 1894 
L 3597 1613 
L 953 1613 
Q 991 1019 1311 708 
Q 1631 397 2203 397 
Q 2534 397 2845 478 
Q 3156 559 3463 722 
L 3463 178 
Q 3153 47 2828 -22 
Q 2503 -91 2169 -91 
Q 1331 -91 842 396 
Q 353 884 353 1716 
Q 353 2575 817 3079 
Q 1281 3584 2069 3584 
Q 2775 3584 3186 3129 
Q 3597 2675 3597 1894 
z
M 3022 2063 
Q 3016 2534 2758 2815 
Q 2500 3097 2075 3097 
Q 1594 3097 1305 2825 
Q 1016 2553 972 2059 
L 3022 2063 
z
" transform="scale(0.015625)"/>
        <path id="DejaVuSans-6e" d="M 3513 2113 
L 3513 0 
L 2938 0 
L 2938 2094 
Q 2938 2591 2744 2837 
Q 2550 3084 2163 3084 
Q 1697 3084 1428 2787 
Q 1159 2491 1159 1978 
L 1159 0 
L 581 0 
L 581 3500 
L 1159 3500 
L 1159 2956 
Q 1366 3272 1645 3428 
Q 1925 3584 2291 3584 
Q 2894 3584 3203 3211 
Q 3513 2838 3513 2113 
z
" transform="scale(0.015625)"/>
        <path id="DejaVuSans-73" d="M 2834 3397 
L 2834 2853 
Q 2591 2978 2328 3040 
Q 2066 3103 1784 3103 
Q 1356 3103 1142 2972 
Q 928 2841 928 2578 
Q 928 2378 1081 2264 
Q 1234 2150 1697 2047 
L 1894 2003 
Q 2506 1872 2764 1633 
Q 3022 1394 3022 966 
Q 3022 478 2636 193 
Q 2250 -91 1575 -91 
Q 1294 -91 989 -36 
Q 684 19 347 128 
L 347 722 
Q 666 556 975 473 
Q 1284 391 1588 391 
Q 1994 391 2212 530 
Q 2431 669 2431 922 
Q 2431 1156 2273 1281 
Q 2116 1406 1581 1522 
L 1381 1569 
Q 847 1681 609 1914 
Q 372 2147 372 2553 
Q 372 3047 722 3315 
Q 1072 3584 1716 3584 
Q 2034 3584 2315 3537 
Q 2597 3491 2834 3397 
z
" transform="scale(0.015625)"/>
        <path id="DejaVuSans-20" transform="scale(0.015625)"/>
        <path id="DejaVuSans-2d" d="M 313 2009 
L 1997 2009 
L 1997 1497 
L 313 1497 
L 313 2009 
z
" transform="scale(0.015625)"/>
        <path id="DejaVuSans-63" d="M 3122 3366 
L 3122 2828 
Q 2878 2963 2633 3030 
Q 2388 3097 2138 3097 
Q 1578 3097 1268 2742 
Q 959 2388 959 1747 
Q 959 1106 1268 751 
Q 1578 397 2138 397 
Q 2388 397 2633 464 
Q 2878 531 3122 666 
L 3122 134 
Q 2881 22 2623 -34 
Q 2366 -91 2075 -91 
Q 1284 -91 818 406 
Q 353 903 353 1747 
Q 353 2603 823 3093 
Q 1294 3584 2113 3584 
Q 2378 3584 2631 3529 
Q 2884 3475 3122 3366 
z
" transform="scale(0.015625)"/>
        <path id="DejaVuSans-6f" d="M 1959 3097 
Q 1497 3097 1228 2736 
Q 959 2375 959 1747 
Q 959 1119 1226 758 
Q 1494 397 1959 397 
Q 2419 397 2687 759 
Q 2956 1122 2956 1747 
Q 2956 2369 2687 2733 
Q 2419 3097 1959 3097 
z
M 1959 3584 
Q 2709 3584 3137 3096 
Q 3566 2609 3566 1747 
Q 3566 888 3137 398 
Q 2709 -91 1959 -91 
Q 1206 -91 779 398 
Q 353 888 353 1747 
Q 353 2609 779 3096 
Q 1206 3584 1959 3584 
z
" transform="scale(0.015625)"/>
        <path id="DejaVuSans-61" d="M 2194 1759 
Q 1497 1759 1228 1600 
Q 959 1441 959 1056 
Q 959 750 1161 570 
Q 1363 391 1709 391 
Q 2188 391 2477 730 
Q 2766 1069 2766 1631 
L 2766 1759 
L 2194 1759 
z
M 3341 1997 
L 3341 0 
L 2766 0 
L 2766 531 
Q 2569 213 2275 61 
Q 1981 -91 1556 -91 
Q 1019 -91 701 211 
Q 384 513 384 1019 
Q 384 1609 779 1909 
Q 1175 2209 1959 2209 
L 2766 2209 
L 2766 2266 
Q 2766 2663 2505 2880 
Q 2244 3097 1772 3097 
Q 1472 3097 1187 3025 
Q 903 2953 641 2809 
L 641 3341 
Q 956 3463 1253 3523 
Q 1550 3584 1831 3584 
Q 2591 3584 2966 3190 
Q 3341 2797 3341 1997 
z
" transform="scale(0.015625)"/>
        <path id="DejaVuSans-72" d="M 2631 2963 
Q 2534 3019 2420 3045 
Q 2306 3072 2169 3072 
Q 1681 3072 1420 2755 
Q 1159 2438 1159 1844 
L 1159 0 
L 581 0 
L 581 3500 
L 1159 3500 
L 1159 2956 
Q 1341 3275 1631 3429 
Q 1922 3584 2338 3584 
Q 2397 3584 2469 3576 
Q 2541 3569 2628 3553 
L 2631 2963 
z
" transform="scale(0.015625)"/>
        <path id="DejaVuSans-79" d="M 2059 -325 
Q 1816 -950 1584 -1140 
Q 1353 -1331 966 -1331 
L 506 -1331 
L 506 -850 
L 844 -850 
Q 1081 -850 1212 -737 
Q 1344 -625 1503 -206 
L 1606 56 
L 191 3500 
L 800 3500 
L 1894 763 
L 2988 3500 
L 3597 3500 
L 2059 -325 
z
" transform="scale(0.015625)"/>
       </defs>
       <use xlink:href="#DejaVuSans-53"/>
       <use xlink:href="#DejaVuSans-74" transform="translate(63.476562 0)"/>
       <use xlink:href="#DejaVuSans-75" transform="translate(102.685547 0)"/>
       <use xlink:href="#DejaVuSans-64" transform="translate(166.064453 0)"/>
       <use xlink:href="#DejaVuSans-65" transform="translate(229.541016 0)"/>
       <use xlink:href="#DejaVuSans-6e" transform="translate(291.064453 0)"/>
       <use xlink:href="#DejaVuSans-74" transform="translate(354.443359 0)"/>
       <use xlink:href="#DejaVuSans-73" transform="translate(393.652344 0)"/>
       <use xlink:href="#DejaVuSans-20" transform="translate(445.751953 0)"/>
       <use xlink:href="#DejaVuSans-2d" transform="translate(477.539062 0)"/>
       <use xlink:href="#DejaVuSans-20" transform="translate(513.623047 0)"/>
       <use xlink:href="#DejaVuSans-73" transform="translate(545.410156 0)"/>
       <use xlink:href="#DejaVuSans-65" transform="translate(597.509766 0)"/>
       <use xlink:href="#DejaVuSans-63" transform="translate(659.033203 0)"/>
       <use xlink:href="#DejaVuSans-6f" transform="translate(714.013672 0)"/>
       <use xlink:href="#DejaVuSans-6e" transform="translate(775.195312 0)"/>
       <use xlink:href="#DejaVuSans-64" transform="translate(838.574219 0)"/>
       <use xlink:href="#DejaVuSans-61" transform="translate(902.050781 0)"/>
       <use xlink:href="#DejaVuSans-72" transform="translate(963.330078 0)"/>
       <use xlink:href="#DejaVuSans-79" transform="translate(1004.443359 0)"/>
      </g>
     </g>
    </g>
    <g id="xtick_2">
     <g id="line2d_2">
      <g>
       <use xlink:href="#m17aa6341e3" x="289.89125" y="346.769243" style="stroke: #000000; stroke-width: 0.8"/>
      </g>
     </g>
     <g id="text_2">
      <!-- Students - university -->
      <g transform="translate(207.665107 374.203389) rotate(-10) scale(0.08 -0.08)">
       <defs>
        <path id="DejaVuSans-69" d="M 603 3500 
L 1178 3500 
L 1178 0 
L 603 0 
L 603 3500 
z
M 603 4863 
L 1178 4863 
L 1178 4134 
L 603 4134 
L 603 4863 
z
" transform="scale(0.015625)"/>
        <path id="DejaVuSans-76" d="M 191 3500 
L 800 3500 
L 1894 563 
L 2988 3500 
L 3597 3500 
L 2284 0 
L 1503 0 
L 191 3500 
z
" transform="scale(0.015625)"/>
       </defs>
       <use xlink:href="#DejaVuSans-53"/>
       <use xlink:href="#DejaVuSans-74" transform="translate(63.476562 0)"/>
       <use xlink:href="#DejaVuSans-75" transform="translate(102.685547 0)"/>
       <use xlink:href="#DejaVuSans-64" transform="translate(166.064453 0)"/>
       <use xlink:href="#DejaVuSans-65" transform="translate(229.541016 0)"/>
       <use xlink:href="#DejaVuSans-6e" transform="translate(291.064453 0)"/>
       <use xlink:href="#DejaVuSans-74" transform="translate(354.443359 0)"/>
       <use xlink:href="#DejaVuSans-73" transform="translate(393.652344 0)"/>
       <use xlink:href="#DejaVuSans-20" transform="translate(445.751953 0)"/>
       <use xlink:href="#DejaVuSans-2d" transform="translate(477.539062 0)"/>
       <use xlink:href="#DejaVuSans-20" transform="translate(513.623047 0)"/>
       <use xlink:href="#DejaVuSans-75" transform="translate(545.410156 0)"/>
       <use xlink:href="#DejaVuSans-6e" transform="translate(608.789062 0)"/>
       <use xlink:href="#DejaVuSans-69" transform="translate(672.167969 0)"/>
       <use xlink:href="#DejaVuSans-76" transform="translate(699.951172 0)"/>
       <use xlink:href="#DejaVuSans-65" transform="translate(759.130859 0)"/>
       <use xlink:href="#DejaVuSans-72" transform="translate(820.654297 0)"/>
       <use xlink:href="#DejaVuSans-73" transform="translate(861.767578 0)"/>
       <use xlink:href="#DejaVuSans-69" transform="translate(913.867188 0)"/>
       <use xlink:href="#DejaVuSans-74" transform="translate(941.650391 0)"/>
       <use xlink:href="#DejaVuSans-79" transform="translate(980.859375 0)"/>
      </g>
     </g>
    </g>
    <g id="xtick_3">
     <g id="line2d_3">
      <g>
       <use xlink:href="#m17aa6341e3" x="458.47875" y="346.769243" style="stroke: #000000; stroke-width: 0.8"/>
      </g>
     </g>
     <g id="text_3">
      <!-- Teachers - pre-service -->
      <g transform="translate(371.700333 375.006078) rotate(-10) scale(0.08 -0.08)">
       <defs>
        <path id="DejaVuSans-54" d="M -19 4666 
L 3928 4666 
L 3928 4134 
L 2272 4134 
L 2272 0 
L 1638 0 
L 1638 4134 
L -19 4134 
L -19 4666 
z
" transform="scale(0.015625)"/>
        <path id="DejaVuSans-68" d="M 3513 2113 
L 3513 0 
L 2938 0 
L 2938 2094 
Q 2938 2591 2744 2837 
Q 2550 3084 2163 3084 
Q 1697 3084 1428 2787 
Q 1159 2491 1159 1978 
L 1159 0 
L 581 0 
L 581 4863 
L 1159 4863 
L 1159 2956 
Q 1366 3272 1645 3428 
Q 1925 3584 2291 3584 
Q 2894 3584 3203 3211 
Q 3513 2838 3513 2113 
z
" transform="scale(0.015625)"/>
        <path id="DejaVuSans-70" d="M 1159 525 
L 1159 -1331 
L 581 -1331 
L 581 3500 
L 1159 3500 
L 1159 2969 
Q 1341 3281 1617 3432 
Q 1894 3584 2278 3584 
Q 2916 3584 3314 3078 
Q 3713 2572 3713 1747 
Q 3713 922 3314 415 
Q 2916 -91 2278 -91 
Q 1894 -91 1617 61 
Q 1341 213 1159 525 
z
M 3116 1747 
Q 3116 2381 2855 2742 
Q 2594 3103 2138 3103 
Q 1681 3103 1420 2742 
Q 1159 2381 1159 1747 
Q 1159 1113 1420 752 
Q 1681 391 2138 391 
Q 2594 391 2855 752 
Q 3116 1113 3116 1747 
z
" transform="scale(0.015625)"/>
       </defs>
       <use xlink:href="#DejaVuSans-54"/>
       <use xlink:href="#DejaVuSans-65" transform="translate(44.083984 0)"/>
       <use xlink:href="#DejaVuSans-61" transform="translate(105.607422 0)"/>
       <use xlink:href="#DejaVuSans-63" transform="translate(166.886719 0)"/>
       <use xlink:href="#DejaVuSans-68" transform="translate(221.867188 0)"/>
       <use xlink:href="#DejaVuSans-65" transform="translate(285.246094 0)"/>
       <use xlink:href="#DejaVuSans-72" transform="translate(346.769531 0)"/>
       <use xlink:href="#DejaVuSans-73" transform="translate(387.882812 0)"/>
       <use xlink:href="#DejaVuSans-20" transform="translate(439.982422 0)"/>
       <use xlink:href="#DejaVuSans-2d" transform="translate(471.769531 0)"/>
       <use xlink:href="#DejaVuSans-20" transform="translate(507.853516 0)"/>
       <use xlink:href="#DejaVuSans-70" transform="translate(539.640625 0)"/>
       <use xlink:href="#DejaVuSans-72" transform="translate(603.117188 0)"/>
       <use xlink:href="#DejaVuSans-65" transform="translate(641.980469 0)"/>
       <use xlink:href="#DejaVuSans-2d" transform="translate(703.503906 0)"/>
       <use xlink:href="#DejaVuSans-73" transform="translate(739.587891 0)"/>
       <use xlink:href="#DejaVuSans-65" transform="translate(791.6875 0)"/>
       <use xlink:href="#DejaVuSans-72" transform="translate(853.210938 0)"/>
       <use xlink:href="#DejaVuSans-76" transform="translate(894.324219 0)"/>
       <use xlink:href="#DejaVuSans-69" transform="translate(953.503906 0)"/>
       <use xlink:href="#DejaVuSans-63" transform="translate(981.287109 0)"/>
       <use xlink:href="#DejaVuSans-65" transform="translate(1036.267578 0)"/>
      </g>
     </g>
    </g>
    <g id="xtick_4">
     <g id="line2d_4">
      <g>
       <use xlink:href="#m17aa6341e3" x="627.06625" y="346.769243" style="stroke: #000000; stroke-width: 0.8"/>
      </g>
     </g>
     <g id="text_4">
      <!-- Teachers - in-service -->
      <g transform="translate(546.016952 373.995879) rotate(-10) scale(0.08 -0.08)">
       <use xlink:href="#DejaVuSans-54"/>
       <use xlink:href="#DejaVuSans-65" transform="translate(44.083984 0)"/>
       <use xlink:href="#DejaVuSans-61" transform="translate(105.607422 0)"/>
       <use xlink:href="#DejaVuSans-63" transform="translate(166.886719 0)"/>
       <use xlink:href="#DejaVuSans-68" transform="translate(221.867188 0)"/>
       <use xlink:href="#DejaVuSans-65" transform="translate(285.246094 0)"/>
       <use xlink:href="#DejaVuSans-72" transform="translate(346.769531 0)"/>
       <use xlink:href="#DejaVuSans-73" transform="translate(387.882812 0)"/>
       <use xlink:href="#DejaVuSans-20" transform="translate(439.982422 0)"/>
       <use xlink:href="#DejaVuSans-2d" transform="translate(471.769531 0)"/>
       <use xlink:href="#DejaVuSans-20" transform="translate(507.853516 0)"/>
       <use xlink:href="#DejaVuSans-69" transform="translate(539.640625 0)"/>
       <use xlink:href="#DejaVuSans-6e" transform="translate(567.423828 0)"/>
       <use xlink:href="#DejaVuSans-2d" transform="translate(630.802734 0)"/>
       <use xlink:href="#DejaVuSans-73" transform="translate(666.886719 0)"/>
       <use xlink:href="#DejaVuSans-65" transform="translate(718.986328 0)"/>
       <use xlink:href="#DejaVuSans-72" transform="translate(780.509766 0)"/>
       <use xlink:href="#DejaVuSans-76" transform="translate(821.623047 0)"/>
       <use xlink:href="#DejaVuSans-69" transform="translate(880.802734 0)"/>
       <use xlink:href="#DejaVuSans-63" transform="translate(908.585938 0)"/>
       <use xlink:href="#DejaVuSans-65" transform="translate(963.566406 0)"/>
      </g>
     </g>
    </g>
    <g id="text_5">
     <!-- Group -->
     <g transform="translate(362.009375 386.723301) scale(0.08 -0.08)">
      <defs>
       <path id="DejaVuSans-47" d="M 3809 666 
L 3809 1919 
L 2778 1919 
L 2778 2438 
L 4434 2438 
L 4434 434 
Q 4069 175 3628 42 
Q 3188 -91 2688 -91 
Q 1594 -91 976 548 
Q 359 1188 359 2328 
Q 359 3472 976 4111 
Q 1594 4750 2688 4750 
Q 3144 4750 3555 4637 
Q 3966 4525 4313 4306 
L 4313 3634 
Q 3963 3931 3569 4081 
Q 3175 4231 2741 4231 
Q 1884 4231 1454 3753 
Q 1025 3275 1025 2328 
Q 1025 1384 1454 906 
Q 1884 428 2741 428 
Q 3075 428 3337 486 
Q 3600 544 3809 666 
z
" transform="scale(0.015625)"/>
      </defs>
      <use xlink:href="#DejaVuSans-47"/>
      <use xlink:href="#DejaVuSans-72" transform="translate(77.490234 0)"/>
      <use xlink:href="#DejaVuSans-6f" transform="translate(116.353516 0)"/>
      <use xlink:href="#DejaVuSans-75" transform="translate(177.535156 0)"/>
      <use xlink:href="#DejaVuSans-70" transform="translate(240.914062 0)"/>
     </g>
    </g>
   </g>
   <g id="matplotlib.axis_2">
    <g id="ytick_1">
     <g id="line2d_5">
      <path d="M 37.01 301.442123 
L 711.36 301.442123 
" clip-path="url(#pf402a0230d)" style="fill: none; stroke-dasharray: 2.96,1.28; stroke-dashoffset: 0; stroke: #b0b0b0; stroke-opacity: 0.3; stroke-width: 0.8"/>
     </g>
     <g id="line2d_6">
      <defs>
       <path id="md8535de670" d="M 0 0 
L -3.5 0 
" style="stroke: #000000; stroke-width: 0.8"/>
      </defs>
      <g>
       <use xlink:href="#md8535de670" x="37.01" y="301.442123" style="stroke: #000000; stroke-width: 0.8"/>
      </g>
     </g>
     <g id="text_6">
      <!-- 20 -->
      <g transform="translate(19.83 304.481498) scale(0.08 -0.08)">
       <defs>
        <path id="DejaVuSans-32" d="M 1228 531 
L 3431 531 
L 3431 0 
L 469 0 
L 469 531 
Q 828 903 1448 1529 
Q 2069 2156 2228 2338 
Q 2531 2678 2651 2914 
Q 2772 3150 2772 3378 
Q 2772 3750 2511 3984 
Q 2250 4219 1831 4219 
Q 1534 4219 1204 4116 
Q 875 4013 500 3803 
L 500 4441 
Q 881 4594 1212 4672 
Q 1544 4750 1819 4750 
Q 2544 4750 2975 4387 
Q 3406 4025 3406 3419 
Q 3406 3131 3298 2873 
Q 3191 2616 2906 2266 
Q 2828 2175 2409 1742 
Q 1991 1309 1228 531 
z
" transform="scale(0.015625)"/>
        <path id="DejaVuSans-30" d="M 2034 4250 
Q 1547 4250 1301 3770 
Q 1056 3291 1056 2328 
Q 1056 1369 1301 889 
Q 1547 409 2034 409 
Q 2525 409 2770 889 
Q 3016 1369 3016 2328 
Q 3016 3291 2770 3770 
Q 2525 4250 2034 4250 
z
M 2034 4750 
Q 2819 4750 3233 4129 
Q 3647 3509 3647 2328 
Q 3647 1150 3233 529 
Q 2819 -91 2034 -91 
Q 1250 -91 836 529 
Q 422 1150 422 2328 
Q 422 3509 836 4129 
Q 1250 4750 2034 4750 
z
" transform="scale(0.015625)"/>
       </defs>
       <use xlink:href="#DejaVuSans-32"/>
       <use xlink:href="#DejaVuSans-30" transform="translate(63.623047 0)"/>
      </g>
     </g>
    </g>
    <g id="ytick_2">
     <g id="line2d_7">
      <path d="M 37.01 250.512775 
L 711.36 250.512775 
" clip-path="url(#pf402a0230d)" style="fill: none; stroke-dasharray: 2.96,1.28; stroke-dashoffset: 0; stroke: #b0b0b0; stroke-opacity: 0.3; stroke-width: 0.8"/>
     </g>
     <g id="line2d_8">
      <g>
       <use xlink:href="#md8535de670" x="37.01" y="250.512775" style="stroke: #000000; stroke-width: 0.8"/>
      </g>
     </g>
     <g id="text_7">
      <!-- 30 -->
      <g transform="translate(19.83 253.55215) scale(0.08 -0.08)">
       <defs>
        <path id="DejaVuSans-33" d="M 2597 2516 
Q 3050 2419 3304 2112 
Q 3559 1806 3559 1356 
Q 3559 666 3084 287 
Q 2609 -91 1734 -91 
Q 1441 -91 1130 -33 
Q 819 25 488 141 
L 488 750 
Q 750 597 1062 519 
Q 1375 441 1716 441 
Q 2309 441 2620 675 
Q 2931 909 2931 1356 
Q 2931 1769 2642 2001 
Q 2353 2234 1838 2234 
L 1294 2234 
L 1294 2753 
L 1863 2753 
Q 2328 2753 2575 2939 
Q 2822 3125 2822 3475 
Q 2822 3834 2567 4026 
Q 2313 4219 1838 4219 
Q 1578 4219 1281 4162 
Q 984 4106 628 3988 
L 628 4550 
Q 988 4650 1302 4700 
Q 1616 4750 1894 4750 
Q 2613 4750 3031 4423 
Q 3450 4097 3450 3541 
Q 3450 3153 3228 2886 
Q 3006 2619 2597 2516 
z
" transform="scale(0.015625)"/>
       </defs>
       <use xlink:href="#DejaVuSans-33"/>
       <use xlink:href="#DejaVuSans-30" transform="translate(63.623047 0)"/>
      </g>
     </g>
    </g>
    <g id="ytick_3">
     <g id="line2d_9">
      <path d="M 37.01 199.583426 
L 711.36 199.583426 
" clip-path="url(#pf402a0230d)" style="fill: none; stroke-dasharray: 2.96,1.28; stroke-dashoffset: 0; stroke: #b0b0b0; stroke-opacity: 0.3; stroke-width: 0.8"/>
     </g>
     <g id="line2d_10">
      <g>
       <use xlink:href="#md8535de670" x="37.01" y="199.583426" style="stroke: #000000; stroke-width: 0.8"/>
      </g>
     </g>
     <g id="text_8">
      <!-- 40 -->
      <g transform="translate(19.83 202.622801) scale(0.08 -0.08)">
       <defs>
        <path id="DejaVuSans-34" d="M 2419 4116 
L 825 1625 
L 2419 1625 
L 2419 4116 
z
M 2253 4666 
L 3047 4666 
L 3047 1625 
L 3713 1625 
L 3713 1100 
L 3047 1100 
L 3047 0 
L 2419 0 
L 2419 1100 
L 313 1100 
L 313 1709 
L 2253 4666 
z
" transform="scale(0.015625)"/>
       </defs>
       <use xlink:href="#DejaVuSans-34"/>
       <use xlink:href="#DejaVuSans-30" transform="translate(63.623047 0)"/>
      </g>
     </g>
    </g>
    <g id="ytick_4">
     <g id="line2d_11">
      <path d="M 37.01 148.654078 
L 711.36 148.654078 
" clip-path="url(#pf402a0230d)" style="fill: none; stroke-dasharray: 2.96,1.28; stroke-dashoffset: 0; stroke: #b0b0b0; stroke-opacity: 0.3; stroke-width: 0.8"/>
     </g>
     <g id="line2d_12">
      <g>
       <use xlink:href="#md8535de670" x="37.01" y="148.654078" style="stroke: #000000; stroke-width: 0.8"/>
      </g>
     </g>
     <g id="text_9">
      <!-- 50 -->
      <g transform="translate(19.83 151.693453) scale(0.08 -0.08)">
       <defs>
        <path id="DejaVuSans-35" d="M 691 4666 
L 3169 4666 
L 3169 4134 
L 1269 4134 
L 1269 2991 
Q 1406 3038 1543 3061 
Q 1681 3084 1819 3084 
Q 2600 3084 3056 2656 
Q 3513 2228 3513 1497 
Q 3513 744 3044 326 
Q 2575 -91 1722 -91 
Q 1428 -91 1123 -41 
Q 819 9 494 109 
L 494 744 
Q 775 591 1075 516 
Q 1375 441 1709 441 
Q 2250 441 2565 725 
Q 2881 1009 2881 1497 
Q 2881 1984 2565 2268 
Q 2250 2553 1709 2553 
Q 1456 2553 1204 2497 
Q 953 2441 691 2322 
L 691 4666 
z
" transform="scale(0.015625)"/>
       </defs>
       <use xlink:href="#DejaVuSans-35"/>
       <use xlink:href="#DejaVuSans-30" transform="translate(63.623047 0)"/>
      </g>
     </g>
    </g>
    <g id="ytick_5">
     <g id="line2d_13">
      <path d="M 37.01 97.724729 
L 711.36 97.724729 
" clip-path="url(#pf402a0230d)" style="fill: none; stroke-dasharray: 2.96,1.28; stroke-dashoffset: 0; stroke: #b0b0b0; stroke-opacity: 0.3; stroke-width: 0.8"/>
     </g>
     <g id="line2d_14">
      <g>
       <use xlink:href="#md8535de670" x="37.01" y="97.724729" style="stroke: #000000; stroke-width: 0.8"/>
      </g>
     </g>
     <g id="text_10">
      <!-- 60 -->
      <g transform="translate(19.83 100.764104) scale(0.08 -0.08)">
       <defs>
        <path id="DejaVuSans-36" d="M 2113 2584 
Q 1688 2584 1439 2293 
Q 1191 2003 1191 1497 
Q 1191 994 1439 701 
Q 1688 409 2113 409 
Q 2538 409 2786 701 
Q 3034 994 3034 1497 
Q 3034 2003 2786 2293 
Q 2538 2584 2113 2584 
z
M 3366 4563 
L 3366 3988 
Q 3128 4100 2886 4159 
Q 2644 4219 2406 4219 
Q 1781 4219 1451 3797 
Q 1122 3375 1075 2522 
Q 1259 2794 1537 2939 
Q 1816 3084 2150 3084 
Q 2853 3084 3261 2657 
Q 3669 2231 3669 1497 
Q 3669 778 3244 343 
Q 2819 -91 2113 -91 
Q 1303 -91 875 529 
Q 447 1150 447 2328 
Q 447 3434 972 4092 
Q 1497 4750 2381 4750 
Q 2619 4750 2861 4703 
Q 3103 4656 3366 4563 
z
" transform="scale(0.015625)"/>
       </defs>
       <use xlink:href="#DejaVuSans-36"/>
       <use xlink:href="#DejaVuSans-30" transform="translate(63.623047 0)"/>
      </g>
     </g>
    </g>
    <g id="ytick_6">
     <g id="line2d_15">
      <path d="M 37.01 46.795381 
L 711.36 46.795381 
" clip-path="url(#pf402a0230d)" style="fill: none; stroke-dasharray: 2.96,1.28; stroke-dashoffset: 0; stroke: #b0b0b0; stroke-opacity: 0.3; stroke-width: 0.8"/>
     </g>
     <g id="line2d_16">
      <g>
       <use xlink:href="#md8535de670" x="37.01" y="46.795381" style="stroke: #000000; stroke-width: 0.8"/>
      </g>
     </g>
     <g id="text_11">
      <!-- 70 -->
      <g transform="translate(19.83 49.834756) scale(0.08 -0.08)">
       <defs>
        <path id="DejaVuSans-37" d="M 525 4666 
L 3525 4666 
L 3525 4397 
L 1831 0 
L 1172 0 
L 2766 4134 
L 525 4134 
L 525 4666 
z
" transform="scale(0.015625)"/>
       </defs>
       <use xlink:href="#DejaVuSans-37"/>
       <use xlink:href="#DejaVuSans-30" transform="translate(63.623047 0)"/>
      </g>
     </g>
    </g>
    <g id="text_12">
     <!-- Age (years) -->
     <g transform="translate(14.16625 207.442122) rotate(-90) scale(0.08 -0.08)">
      <defs>
       <path id="DejaVuSans-41" d="M 2188 4044 
L 1331 1722 
L 3047 1722 
L 2188 4044 
z
M 1831 4666 
L 2547 4666 
L 4325 0 
L 3669 0 
L 3244 1197 
L 1141 1197 
L 716 0 
L 50 0 
L 1831 4666 
z
" transform="scale(0.015625)"/>
       <path id="DejaVuSans-67" d="M 2906 1791 
Q 2906 2416 2648 2759 
Q 2391 3103 1925 3103 
Q 1463 3103 1205 2759 
Q 947 2416 947 1791 
Q 947 1169 1205 825 
Q 1463 481 1925 481 
Q 2391 481 2648 825 
Q 2906 1169 2906 1791 
z
M 3481 434 
Q 3481 -459 3084 -895 
Q 2688 -1331 1869 -1331 
Q 1566 -1331 1297 -1286 
Q 1028 -1241 775 -1147 
L 775 -588 
Q 1028 -725 1275 -790 
Q 1522 -856 1778 -856 
Q 2344 -856 2625 -561 
Q 2906 -266 2906 331 
L 2906 616 
Q 2728 306 2450 153 
Q 2172 0 1784 0 
Q 1141 0 747 490 
Q 353 981 353 1791 
Q 353 2603 747 3093 
Q 1141 3584 1784 3584 
Q 2172 3584 2450 3431 
Q 2728 3278 2906 2969 
L 2906 3500 
L 3481 3500 
L 3481 434 
z
" transform="scale(0.015625)"/>
       <path id="DejaVuSans-28" d="M 1984 4856 
Q 1566 4138 1362 3434 
Q 1159 2731 1159 2009 
Q 1159 1288 1364 580 
Q 1569 -128 1984 -844 
L 1484 -844 
Q 1016 -109 783 600 
Q 550 1309 550 2009 
Q 550 2706 781 3412 
Q 1013 4119 1484 4856 
L 1984 4856 
z
" transform="scale(0.015625)"/>
       <path id="DejaVuSans-29" d="M 513 4856 
L 1013 4856 
Q 1481 4119 1714 3412 
Q 1947 2706 1947 2009 
Q 1947 1309 1714 600 
Q 1481 -109 1013 -844 
L 513 -844 
Q 928 -128 1133 580 
Q 1338 1288 1338 2009 
Q 1338 2731 1133 3434 
Q 928 4138 513 4856 
z
" transform="scale(0.015625)"/>
      </defs>
      <use xlink:href="#DejaVuSans-41"/>
      <use xlink:href="#DejaVuSans-67" transform="translate(68.408203 0)"/>
      <use xlink:href="#DejaVuSans-65" transform="translate(131.884766 0)"/>
      <use xlink:href="#DejaVuSans-20" transform="translate(193.408203 0)"/>
      <use xlink:href="#DejaVuSans-28" transform="translate(225.195312 0)"/>
      <use xlink:href="#DejaVuSans-79" transform="translate(264.208984 0)"/>
      <use xlink:href="#DejaVuSans-65" transform="translate(323.388672 0)"/>
      <use xlink:href="#DejaVuSans-61" transform="translate(384.912109 0)"/>
      <use xlink:href="#DejaVuSans-72" transform="translate(446.191406 0)"/>
      <use xlink:href="#DejaVuSans-73" transform="translate(487.304688 0)"/>
      <use xlink:href="#DejaVuSans-29" transform="translate(539.404297 0)"/>
     </g>
    </g>
   </g>
   <g id="FillBetweenPolyCollection_1">
    <defs>
     <path id="m89a416a235" d="M 175.620956 -64.000268 
L 66.986544 -64.000268 
L 61.583884 -65.337806 
L 57.570076 -66.675345 
L 55.033771 -68.012883 
L 53.878793 -69.350422 
L 53.86875 -70.68796 
L 54.702027 -72.025498 
L 56.095862 -73.363037 
L 57.855242 -74.700575 
L 59.907033 -76.038114 
L 62.291171 -77.375652 
L 65.115006 -78.713191 
L 68.488914 -80.050729 
L 72.466241 -81.388268 
L 77.006904 -82.725806 
L 81.973601 -84.063344 
L 87.157326 -85.400883 
L 92.319827 -86.738421 
L 97.237658 -88.07596 
L 101.735445 -89.413498 
L 105.702281 -90.751037 
L 109.091755 -92.088575 
L 111.910427 -93.426114 
L 114.201067 -94.763652 
L 116.026066 -96.10119 
L 117.454332 -97.438729 
L 118.552805 -98.776267 
L 119.382147 -100.113806 
L 119.995348 -101.451344 
L 120.437896 -102.788883 
L 120.748473 -104.126421 
L 120.959608 -105.46396 
L 121.098147 -106.801498 
L 121.185608 -108.139036 
L 121.238586 -109.476575 
L 121.269307 -110.814113 
L 121.28633 -112.151652 
L 121.295329 -113.48919 
L 121.299864 -114.826729 
L 121.302039 -116.164267 
L 121.303032 -117.501806 
L 121.303463 -118.839344 
L 121.303641 -120.176882 
L 121.30371 -121.514421 
L 121.303736 -122.851959 
L 121.303746 -124.189498 
L 121.303749 -125.527036 
L 121.30375 -126.864575 
L 121.30375 -128.202113 
L 121.30375 -129.539652 
L 121.30375 -130.87719 
L 121.30375 -132.214728 
L 121.30375 -133.552267 
L 121.30375 -134.889805 
L 121.30375 -136.227344 
L 121.30375 -137.564882 
L 121.30375 -138.902421 
L 121.30375 -140.239959 
L 121.30375 -141.577498 
L 121.30375 -142.915036 
L 121.30375 -144.252574 
L 121.30375 -145.590113 
L 121.30375 -146.927651 
L 121.30375 -148.26519 
L 121.30375 -149.602728 
L 121.30375 -150.940267 
L 121.30375 -152.277805 
L 121.30375 -153.615344 
L 121.30375 -154.952882 
L 121.30375 -156.29042 
L 121.30375 -157.627959 
L 121.30375 -158.965497 
L 121.30375 -160.303036 
L 121.30375 -161.640574 
L 121.30375 -162.978113 
L 121.30375 -164.315651 
L 121.303748 -165.65319 
L 121.303745 -166.990728 
L 121.303734 -168.328266 
L 121.303705 -169.665805 
L 121.303629 -171.003343 
L 121.303438 -172.340882 
L 121.302986 -173.67842 
L 121.301973 -175.015959 
L 121.29982 -176.353497 
L 121.295494 -177.691036 
L 121.287271 -179.028574 
L 121.272501 -180.366113 
L 121.247448 -181.703651 
L 121.207373 -183.041189 
L 121.147006 -184.378728 
L 121.06155 -185.716266 
L 120.94818 -187.053805 
L 120.807796 -188.391343 
L 120.646509 -189.728882 
L 120.476237 -191.06642 
L 120.313849 -192.403959 
L 120.178692 -193.741497 
L 120.088894 -195.079035 
L 120.057396 -196.416574 
L 122.550104 -196.416574 
L 122.550104 -196.416574 
L 122.518606 -195.079035 
L 122.428808 -193.741497 
L 122.293651 -192.403959 
L 122.131263 -191.06642 
L 121.960991 -189.728882 
L 121.799704 -188.391343 
L 121.65932 -187.053805 
L 121.54595 -185.716266 
L 121.460494 -184.378728 
L 121.400127 -183.041189 
L 121.360052 -181.703651 
L 121.334999 -180.366113 
L 121.320229 -179.028574 
L 121.312006 -177.691036 
L 121.30768 -176.353497 
L 121.305527 -175.015959 
L 121.304514 -173.67842 
L 121.304062 -172.340882 
L 121.303871 -171.003343 
L 121.303795 -169.665805 
L 121.303766 -168.328266 
L 121.303755 -166.990728 
L 121.303752 -165.65319 
L 121.30375 -164.315651 
L 121.30375 -162.978113 
L 121.30375 -161.640574 
L 121.30375 -160.303036 
L 121.30375 -158.965497 
L 121.30375 -157.627959 
L 121.30375 -156.29042 
L 121.30375 -154.952882 
L 121.30375 -153.615344 
L 121.30375 -152.277805 
L 121.30375 -150.940267 
L 121.30375 -149.602728 
L 121.30375 -148.26519 
L 121.30375 -146.927651 
L 121.30375 -145.590113 
L 121.30375 -144.252574 
L 121.30375 -142.915036 
L 121.30375 -141.577498 
L 121.30375 -140.239959 
L 121.30375 -138.902421 
L 121.30375 -137.564882 
L 121.30375 -136.227344 
L 121.30375 -134.889805 
L 121.30375 -133.552267 
L 121.30375 -132.214728 
L 121.30375 -130.87719 
L 121.30375 -129.539652 
L 121.30375 -128.202113 
L 121.30375 -126.864575 
L 121.303751 -125.527036 
L 121.303754 -124.189498 
L 121.303764 -122.851959 
L 121.30379 -121.514421 
L 121.303859 -120.176882 
L 121.304037 -118.839344 
L 121.304468 -117.501806 
L 121.305461 -116.164267 
L 121.307636 -114.826729 
L 121.312171 -113.48919 
L 121.32117 -112.151652 
L 121.338193 -110.814113 
L 121.368914 -109.476575 
L 121.421892 -108.139036 
L 121.509353 -106.801498 
L 121.647892 -105.46396 
L 121.859027 -104.126421 
L 122.169604 -102.788883 
L 122.612152 -101.451344 
L 123.225353 -100.113806 
L 124.054695 -98.776267 
L 125.153168 -97.438729 
L 126.581434 -96.10119 
L 128.406433 -94.763652 
L 130.697073 -93.426114 
L 133.515745 -92.088575 
L 136.905219 -90.751037 
L 140.872055 -89.413498 
L 145.369842 -88.07596 
L 150.287673 -86.738421 
L 155.450174 -85.400883 
L 160.633899 -84.063344 
L 165.600596 -82.725806 
L 170.141259 -81.388268 
L 174.118586 -80.050729 
L 177.492494 -78.713191 
L 180.316329 -77.375652 
L 182.700467 -76.038114 
L 184.752258 -74.700575 
L 186.511638 -73.363037 
L 187.905473 -72.025498 
L 188.73875 -70.68796 
L 188.728707 -69.350422 
L 187.573729 -68.012883 
L 185.037424 -66.675345 
L 181.023616 -65.337806 
L 175.620956 -64.000268 
z
" style="stroke: #484848; stroke-width: 1.25"/>
    </defs>
    <g clip-path="url(#pf402a0230d)">
     <use xlink:href="#m89a416a235" x="0" y="396" style="fill: #cb3335; stroke: #484848; stroke-width: 1.25"/>
    </g>
   </g>
   <g id="FillBetweenPolyCollection_2">
    <defs>
     <path id="me95f73e63b" d="M 302.976009 -79.279072 
L 276.806491 -79.279072 
L 273.287091 -81.388268 
L 269.193536 -83.497463 
L 264.539016 -85.606658 
L 259.375521 -87.715853 
L 253.80375 -89.825049 
L 247.980925 -91.934244 
L 242.123574 -94.043439 
L 236.502257 -96.152634 
L 231.426045 -98.26183 
L 227.216488 -100.371025 
L 224.173413 -102.48022 
L 222.537489 -104.589415 
L 222.45625 -106.69861 
L 223.960464 -108.807806 
L 226.956091 -110.917001 
L 231.234018 -113.026196 
L 236.495959 -115.135391 
L 242.391599 -117.244587 
L 248.559993 -119.353782 
L 254.667969 -121.462977 
L 260.439707 -123.572172 
L 265.674184 -125.681368 
L 270.250003 -127.790563 
L 274.119505 -129.899758 
L 277.295524 -132.008953 
L 279.834549 -134.118149 
L 281.819615 -136.227344 
L 283.345296 -138.336539 
L 284.506081 -140.445734 
L 285.388475 -142.55493 
L 286.066495 -144.664125 
L 286.599899 -146.77332 
L 287.034344 -148.882515 
L 287.402758 -150.991711 
L 287.727325 -153.100906 
L 288.02167 -155.210101 
L 288.292988 -157.319296 
L 288.543959 -159.428491 
L 288.774398 -161.537687 
L 288.982597 -163.646882 
L 289.166356 -165.756077 
L 289.323703 -167.865272 
L 289.453284 -169.974468 
L 289.554492 -172.083663 
L 289.627359 -174.192858 
L 289.67233 -176.302053 
L 289.690005 -178.411249 
L 289.680952 -180.520444 
L 289.645668 -182.629639 
L 289.584698 -184.738834 
L 289.498885 -186.84803 
L 289.389687 -188.957225 
L 289.259446 -191.06642 
L 289.111531 -193.175615 
L 288.95028 -195.284811 
L 288.780754 -197.394006 
L 288.608358 -199.503201 
L 288.43841 -201.612396 
L 288.275789 -203.721591 
L 288.124695 -205.830787 
L 287.988558 -207.939982 
L 287.870016 -210.049177 
L 287.77088 -212.158372 
L 287.692013 -214.267568 
L 287.633104 -216.376763 
L 287.592443 -218.485958 
L 287.56683 -220.595153 
L 287.551798 -222.704349 
L 287.542244 -224.813544 
L 287.533453 -226.922739 
L 287.522302 -229.031934 
L 287.508354 -231.14113 
L 287.494494 -233.250325 
L 287.486847 -235.35952 
L 287.493893 -237.468715 
L 287.524929 -239.577911 
L 287.588181 -241.687106 
L 287.689028 -243.796301 
L 287.828718 -245.905496 
L 288.003877 -248.014692 
L 288.206882 -250.123887 
L 288.426972 -252.233082 
L 288.6518 -254.342277 
L 288.869087 -256.451472 
L 289.06804 -258.560668 
L 289.240333 -260.669863 
L 289.38056 -262.779058 
L 289.486226 -264.888253 
L 289.55741 -266.997449 
L 289.59629 -269.106644 
L 289.606648 -271.215839 
L 289.593464 -273.325034 
L 289.562586 -275.43423 
L 289.520451 -277.543425 
L 289.473762 -279.65262 
L 289.429096 -281.761815 
L 289.392421 -283.871011 
L 289.368574 -285.980206 
L 289.36079 -288.089401 
L 290.42171 -288.089401 
L 290.42171 -288.089401 
L 290.413926 -285.980206 
L 290.390079 -283.871011 
L 290.353404 -281.761815 
L 290.308738 -279.65262 
L 290.262049 -277.543425 
L 290.219914 -275.43423 
L 290.189036 -273.325034 
L 290.175852 -271.215839 
L 290.18621 -269.106644 
L 290.22509 -266.997449 
L 290.296274 -264.888253 
L 290.40194 -262.779058 
L 290.542167 -260.669863 
L 290.71446 -258.560668 
L 290.913413 -256.451472 
L 291.1307 -254.342277 
L 291.355528 -252.233082 
L 291.575618 -250.123887 
L 291.778623 -248.014692 
L 291.953782 -245.905496 
L 292.093472 -243.796301 
L 292.194319 -241.687106 
L 292.257571 -239.577911 
L 292.288607 -237.468715 
L 292.295653 -235.35952 
L 292.288006 -233.250325 
L 292.274146 -231.14113 
L 292.260198 -229.031934 
L 292.249047 -226.922739 
L 292.240256 -224.813544 
L 292.230702 -222.704349 
L 292.21567 -220.595153 
L 292.190057 -218.485958 
L 292.149396 -216.376763 
L 292.090487 -214.267568 
L 292.01162 -212.158372 
L 291.912484 -210.049177 
L 291.793942 -207.939982 
L 291.657805 -205.830787 
L 291.506711 -203.721591 
L 291.34409 -201.612396 
L 291.174142 -199.503201 
L 291.001746 -197.394006 
L 290.83222 -195.284811 
L 290.670969 -193.175615 
L 290.523054 -191.06642 
L 290.392813 -188.957225 
L 290.283615 -186.84803 
L 290.197802 -184.738834 
L 290.136832 -182.629639 
L 290.101548 -180.520444 
L 290.092495 -178.411249 
L 290.11017 -176.302053 
L 290.155141 -174.192858 
L 290.228008 -172.083663 
L 290.329216 -169.974468 
L 290.458797 -167.865272 
L 290.616144 -165.756077 
L 290.799903 -163.646882 
L 291.008102 -161.537687 
L 291.238541 -159.428491 
L 291.489512 -157.319296 
L 291.76083 -155.210101 
L 292.055175 -153.100906 
L 292.379742 -150.991711 
L 292.748156 -148.882515 
L 293.182601 -146.77332 
L 293.716005 -144.664125 
L 294.394025 -142.55493 
L 295.276419 -140.445734 
L 296.437204 -138.336539 
L 297.962885 -136.227344 
L 299.947951 -134.118149 
L 302.486976 -132.008953 
L 305.662995 -129.899758 
L 309.532497 -127.790563 
L 314.108316 -125.681368 
L 319.342793 -123.572172 
L 325.114531 -121.462977 
L 331.222507 -119.353782 
L 337.390901 -117.244587 
L 343.286541 -115.135391 
L 348.548482 -113.026196 
L 352.826409 -110.917001 
L 355.822036 -108.807806 
L 357.32625 -106.69861 
L 357.245011 -104.589415 
L 355.609087 -102.48022 
L 352.566012 -100.371025 
L 348.356455 -98.26183 
L 343.280243 -96.152634 
L 337.658926 -94.043439 
L 331.801575 -91.934244 
L 325.97875 -89.825049 
L 320.406979 -87.715853 
L 315.243484 -85.606658 
L 310.588964 -83.497463 
L 306.495409 -81.388268 
L 302.976009 -79.279072 
z
" style="stroke: #484848; stroke-width: 1.25"/>
    </defs>
    <g clip-path="url(#pf402a0230d)">
     <use xlink:href="#me95f73e63b" x="0" y="396" style="fill: #59a257; stroke: #484848; stroke-width: 1.25"/>
    </g>
   </g>
   <g id="FillBetweenPolyCollection_3">
    <defs>
     <path id="mb38ac34422" d="M 478.354332 -104.743747 
L 438.603168 -104.743747 
L 436.342794 -106.492835 
L 433.95612 -108.241924 
L 431.45448 -109.991013 
L 428.852013 -111.740102 
L 426.165654 -113.48919 
L 423.41504 -115.238279 
L 420.622332 -116.987368 
L 417.81195 -118.736456 
L 415.010215 -120.485545 
L 412.244894 -122.234634 
L 409.544673 -123.983723 
L 406.938548 -125.732811 
L 404.455165 -127.4819 
L 402.122113 -129.230989 
L 399.965211 -130.980078 
L 398.00779 -132.729166 
L 396.270012 -134.478255 
L 394.768256 -136.227344 
L 393.51457 -137.976433 
L 392.51625 -139.725521 
L 391.775539 -141.47461 
L 391.289479 -143.223699 
L 391.049929 -144.972788 
L 391.04375 -146.721876 
L 391.253172 -148.470965 
L 391.65633 -150.220054 
L 392.227953 -151.969142 
L 392.940203 -153.718231 
L 393.763613 -155.46732 
L 394.668108 -157.216409 
L 395.62405 -158.965497 
L 396.603276 -160.714586 
L 397.580073 -162.463675 
L 398.53203 -164.212764 
L 399.440755 -165.961852 
L 400.292375 -167.710941 
L 401.077829 -169.46003 
L 401.792911 -171.209119 
L 402.438077 -172.958207 
L 403.018015 -174.707296 
L 403.541007 -176.456385 
L 404.018134 -178.205473 
L 404.462351 -179.954562 
L 404.88751 -181.703651 
L 405.307381 -183.45274 
L 405.734734 -185.201828 
L 406.180544 -186.950917 
L 406.653348 -188.700006 
L 407.158816 -190.449095 
L 407.699537 -192.198183 
L 408.275023 -193.947272 
L 408.881947 -195.696361 
L 409.514554 -197.44545 
L 410.165243 -199.194538 
L 410.82525 -200.943627 
L 411.485394 -202.692716 
L 412.136831 -204.441805 
L 412.771762 -206.190893 
L 413.384054 -207.939982 
L 413.969733 -209.689071 
L 414.527323 -211.438159 
L 415.058017 -213.187248 
L 415.565665 -214.936337 
L 416.056603 -216.685426 
L 416.539313 -218.434514 
L 417.023968 -220.183603 
L 417.521866 -221.932692 
L 418.044803 -223.681781 
L 418.604423 -225.430869 
L 419.21157 -227.179958 
L 419.875694 -228.929047 
L 420.604333 -230.678136 
L 421.402699 -232.427224 
L 422.273393 -234.176313 
L 423.216257 -235.925402 
L 424.228374 -237.67449 
L 425.304208 -239.423579 
L 426.435876 -241.172668 
L 427.613535 -242.921757 
L 428.825862 -244.670845 
L 430.060593 -246.419934 
L 431.305098 -248.169023 
L 432.546955 -249.918112 
L 433.774493 -251.6672 
L 434.977274 -253.416289 
L 436.146491 -255.165378 
L 437.27526 -256.914467 
L 438.358795 -258.663555 
L 439.39446 -260.412644 
L 440.381699 -262.161733 
L 441.321854 -263.910822 
L 442.217882 -265.65991 
L 443.074001 -267.408999 
L 443.895281 -269.158088 
L 444.687213 -270.907176 
L 445.455284 -272.656265 
L 446.204581 -274.405354 
L 446.939451 -276.154443 
L 447.663236 -277.903531 
L 469.294264 -277.903531 
L 469.294264 -277.903531 
L 470.018049 -276.154443 
L 470.752919 -274.405354 
L 471.502216 -272.656265 
L 472.270287 -270.907176 
L 473.062219 -269.158088 
L 473.883499 -267.408999 
L 474.739618 -265.65991 
L 475.635646 -263.910822 
L 476.575801 -262.161733 
L 477.56304 -260.412644 
L 478.598705 -258.663555 
L 479.68224 -256.914467 
L 480.811009 -255.165378 
L 481.980226 -253.416289 
L 483.183007 -251.6672 
L 484.410545 -249.918112 
L 485.652402 -248.169023 
L 486.896907 -246.419934 
L 488.131638 -244.670845 
L 489.343965 -242.921757 
L 490.521624 -241.172668 
L 491.653292 -239.423579 
L 492.729126 -237.67449 
L 493.741243 -235.925402 
L 494.684107 -234.176313 
L 495.554801 -232.427224 
L 496.353167 -230.678136 
L 497.081806 -228.929047 
L 497.74593 -227.179958 
L 498.353077 -225.430869 
L 498.912697 -223.681781 
L 499.435634 -221.932692 
L 499.933532 -220.183603 
L 500.418187 -218.434514 
L 500.900897 -216.685426 
L 501.391835 -214.936337 
L 501.899483 -213.187248 
L 502.430177 -211.438159 
L 502.987767 -209.689071 
L 503.573446 -207.939982 
L 504.185738 -206.190893 
L 504.820669 -204.441805 
L 505.472106 -202.692716 
L 506.13225 -200.943627 
L 506.792257 -199.194538 
L 507.442946 -197.44545 
L 508.075553 -195.696361 
L 508.682477 -193.947272 
L 509.257963 -192.198183 
L 509.798684 -190.449095 
L 510.304152 -188.700006 
L 510.776956 -186.950917 
L 511.222766 -185.201828 
L 511.650119 -183.45274 
L 512.06999 -181.703651 
L 512.495149 -179.954562 
L 512.939366 -178.205473 
L 513.416493 -176.456385 
L 513.939485 -174.707296 
L 514.519423 -172.958207 
L 515.164589 -171.209119 
L 515.879671 -169.46003 
L 516.665125 -167.710941 
L 517.516745 -165.961852 
L 518.42547 -164.212764 
L 519.377427 -162.463675 
L 520.354224 -160.714586 
L 521.33345 -158.965497 
L 522.289392 -157.216409 
L 523.193887 -155.46732 
L 524.017297 -153.718231 
L 524.729547 -151.969142 
L 525.30117 -150.220054 
L 525.704328 -148.470965 
L 525.91375 -146.721876 
L 525.907571 -144.972788 
L 525.668021 -143.223699 
L 525.181961 -141.47461 
L 524.44125 -139.725521 
L 523.44293 -137.976433 
L 522.189244 -136.227344 
L 520.687488 -134.478255 
L 518.94971 -132.729166 
L 516.992289 -130.980078 
L 514.835387 -129.230989 
L 512.502335 -127.4819 
L 510.018952 -125.732811 
L 507.412827 -123.983723 
L 504.712606 -122.234634 
L 501.947285 -120.485545 
L 499.14555 -118.736456 
L 496.335168 -116.987368 
L 493.54246 -115.238279 
L 490.791846 -113.48919 
L 488.105487 -111.740102 
L 485.50302 -109.991013 
L 483.00138 -108.241924 
L 480.614706 -106.492835 
L 478.354332 -104.743747 
z
" style="stroke: #484848; stroke-width: 1.25"/>
    </defs>
    <g clip-path="url(#pf402a0230d)">
     <use xlink:href="#mb38ac34422" x="0" y="396" style="fill: #e2c137; stroke: #484848; stroke-width: 1.25"/>
    </g>
   </g>
   <g id="FillBetweenPolyCollection_4">
    <defs>
     <path id="mc30593afc2" d="M 629.49918 -94.557877 
L 624.63332 -94.557877 
L 624.117192 -97.232954 
L 623.507102 -99.908031 
L 622.786478 -102.583108 
L 621.936857 -105.258184 
L 620.938692 -107.933261 
L 619.772726 -110.608338 
L 618.422033 -113.283415 
L 616.874667 -115.958492 
L 615.126724 -118.633569 
L 613.185439 -121.308646 
L 611.071779 -123.983723 
L 608.821912 -126.6588 
L 606.486969 -129.333876 
L 604.130743 -132.008953 
L 601.825235 -134.68403 
L 599.644402 -137.359107 
L 597.656844 -140.034184 
L 595.918419 -142.709261 
L 594.46594 -145.384338 
L 593.3129 -148.059415 
L 592.44793 -150.734492 
L 591.83612 -153.409568 
L 591.422912 -156.084645 
L 591.139791 -158.759722 
L 590.91081 -161.434799 
L 590.658963 -164.109876 
L 590.311658 -166.784953 
L 589.804882 -169.46003 
L 589.086058 -172.135107 
L 588.115883 -174.810184 
L 586.869564 -177.48526 
L 585.337841 -180.160337 
L 583.527967 -182.835414 
L 581.464513 -185.510491 
L 579.189645 -188.185568 
L 576.762321 -190.860645 
L 574.255913 -193.535722 
L 571.753938 -196.210799 
L 569.34394 -198.885876 
L 567.109984 -201.560952 
L 565.124648 -204.236029 
L 563.441664 -206.911106 
L 562.090468 -209.586183 
L 561.073719 -212.26126 
L 560.368475 -214.936337 
L 559.931076 -217.611414 
L 559.705112 -220.286491 
L 559.63125 -222.961568 
L 559.657249 -225.636644 
L 559.74638 -228.311721 
L 559.882731 -230.986798 
L 560.072411 -233.661875 
L 560.340491 -236.336952 
L 560.724351 -239.012029 
L 561.264807 -241.687106 
L 561.996849 -244.362183 
L 562.941827 -247.03726 
L 564.102557 -249.712336 
L 565.462173 -252.387413 
L 566.986694 -255.06249 
L 568.630552 -257.737567 
L 570.343757 -260.412644 
L 572.079184 -263.087721 
L 573.798597 -265.762798 
L 575.476446 -268.437875 
L 577.101053 -271.112952 
L 578.673387 -273.788028 
L 580.204065 -276.463105 
L 581.70949 -279.138182 
L 583.208017 -281.813259 
L 584.716872 -284.488336 
L 586.250215 -287.163413 
L 587.818406 -289.83849 
L 589.428233 -292.513567 
L 591.083696 -295.188644 
L 592.786893 -297.86372 
L 594.53867 -300.538797 
L 596.338821 -303.213874 
L 598.185854 -305.888951 
L 600.076429 -308.564028 
L 602.004683 -311.239105 
L 603.961642 -313.914182 
L 605.934873 -316.589259 
L 607.908447 -319.264336 
L 609.863258 -321.939412 
L 611.777659 -324.614489 
L 613.628394 -327.289566 
L 615.3918 -329.964643 
L 617.045205 -332.63972 
L 618.568449 -335.314797 
L 619.945385 -337.989874 
L 621.165179 -340.664951 
L 622.22322 -343.340028 
L 623.121467 -346.015104 
L 623.868147 -348.690181 
L 624.476806 -351.365258 
L 624.964842 -354.040335 
L 625.351732 -356.715412 
L 625.657217 -359.390489 
L 628.475283 -359.390489 
L 628.475283 -359.390489 
L 628.780768 -356.715412 
L 629.167658 -354.040335 
L 629.655694 -351.365258 
L 630.264353 -348.690181 
L 631.011033 -346.015104 
L 631.90928 -343.340028 
L 632.967321 -340.664951 
L 634.187115 -337.989874 
L 635.564051 -335.314797 
L 637.087295 -332.63972 
L 638.7407 -329.964643 
L 640.504106 -327.289566 
L 642.354841 -324.614489 
L 644.269242 -321.939412 
L 646.224053 -319.264336 
L 648.197627 -316.589259 
L 650.170858 -313.914182 
L 652.127817 -311.239105 
L 654.056071 -308.564028 
L 655.946646 -305.888951 
L 657.793679 -303.213874 
L 659.59383 -300.538797 
L 661.345607 -297.86372 
L 663.048804 -295.188644 
L 664.704267 -292.513567 
L 666.314094 -289.83849 
L 667.882285 -287.163413 
L 669.415628 -284.488336 
L 670.924483 -281.813259 
L 672.42301 -279.138182 
L 673.928435 -276.463105 
L 675.459113 -273.788028 
L 677.031447 -271.112952 
L 678.656054 -268.437875 
L 680.333903 -265.762798 
L 682.053316 -263.087721 
L 683.788743 -260.412644 
L 685.501948 -257.737567 
L 687.145806 -255.06249 
L 688.670327 -252.387413 
L 690.029943 -249.712336 
L 691.190673 -247.03726 
L 692.135651 -244.362183 
L 692.867693 -241.687106 
L 693.408149 -239.012029 
L 693.792009 -236.336952 
L 694.060089 -233.661875 
L 694.249769 -230.986798 
L 694.38612 -228.311721 
L 694.475251 -225.636644 
L 694.50125 -222.961568 
L 694.427388 -220.286491 
L 694.201424 -217.611414 
L 693.764025 -214.936337 
L 693.058781 -212.26126 
L 692.042032 -209.586183 
L 690.690836 -206.911106 
L 689.007852 -204.236029 
L 687.022516 -201.560952 
L 684.78856 -198.885876 
L 682.378562 -196.210799 
L 679.876587 -193.535722 
L 677.370179 -190.860645 
L 674.942855 -188.185568 
L 672.667987 -185.510491 
L 670.604533 -182.835414 
L 668.794659 -180.160337 
L 667.262936 -177.48526 
L 666.016617 -174.810184 
L 665.046442 -172.135107 
L 664.327618 -169.46003 
L 663.820842 -166.784953 
L 663.473537 -164.109876 
L 663.22169 -161.434799 
L 662.992709 -158.759722 
L 662.709588 -156.084645 
L 662.29638 -153.409568 
L 661.68457 -150.734492 
L 660.8196 -148.059415 
L 659.66656 -145.384338 
L 658.214081 -142.709261 
L 656.475656 -140.034184 
L 654.488098 -137.359107 
L 652.307265 -134.68403 
L 650.001757 -132.008953 
L 647.645531 -129.333876 
L 645.310588 -126.6588 
L 643.060721 -123.983723 
L 640.947061 -121.308646 
L 639.005776 -118.633569 
L 637.257833 -115.958492 
L 635.710467 -113.283415 
L 634.359774 -110.608338 
L 633.193808 -107.933261 
L 632.195643 -105.258184 
L 631.346022 -102.583108 
L 630.625398 -99.908031 
L 630.015308 -97.232954 
L 629.49918 -94.557877 
z
" style="stroke: #484848; stroke-width: 1.25"/>
    </defs>
    <g clip-path="url(#pf402a0230d)">
     <use xlink:href="#mc30593afc2" x="0" y="396" style="fill: #477ca8; stroke: #484848; stroke-width: 1.25"/>
    </g>
   </g>
   <g id="line2d_17">
    <path d="M 54.100904 326.906797 
L 188.506596 326.906797 
" clip-path="url(#pf402a0230d)" style="fill: none; stroke-dasharray: 1.5625,0.9375; stroke-dashoffset: 0; stroke: #484848; stroke-width: 1.25"/>
   </g>
   <g id="line2d_18">
    <path d="M 54.461658 324.36033 
L 188.145842 324.36033 
" clip-path="url(#pf402a0230d)" style="fill: none; stroke-dasharray: 3.125,1.25; stroke-dashoffset: 0; stroke: #484848; stroke-width: 1.25"/>
   </g>
   <g id="line2d_19">
    <path d="M 66.542428 316.720928 
L 176.065072 316.720928 
" clip-path="url(#pf402a0230d)" style="fill: none; stroke-dasharray: 1.5625,0.9375; stroke-dashoffset: 0; stroke: #484848; stroke-width: 1.25"/>
   </g>
   <g id="line2d_20">
    <path d="M 222.531544 291.256253 
L 357.250956 291.256253 
" clip-path="url(#pf402a0230d)" style="fill: none; stroke-dasharray: 1.5625,0.9375; stroke-dashoffset: 0; stroke: #484848; stroke-width: 1.25"/>
   </g>
   <g id="line2d_21">
    <path d="M 222.531544 291.256253 
L 357.250956 291.256253 
" clip-path="url(#pf402a0230d)" style="fill: none; stroke-dasharray: 3.125,1.25; stroke-dashoffset: 0; stroke: #484848; stroke-width: 1.25"/>
   </g>
   <g id="line2d_22">
    <path d="M 225.421745 286.163319 
L 354.360755 286.163319 
" clip-path="url(#pf402a0230d)" style="fill: none; stroke-dasharray: 1.5625,0.9375; stroke-dashoffset: 0; stroke: #484848; stroke-width: 1.25"/>
   </g>
   <g id="line2d_23">
    <path d="M 391.368106 253.059242 
L 525.589394 253.059242 
" clip-path="url(#pf402a0230d)" style="fill: none; stroke-dasharray: 1.5625,0.9375; stroke-dashoffset: 0; stroke: #484848; stroke-width: 1.25"/>
   </g>
   <g id="line2d_24">
    <path d="M 403.41795 219.955166 
L 513.53955 219.955166 
" clip-path="url(#pf402a0230d)" style="fill: none; stroke-dasharray: 3.125,1.25; stroke-dashoffset: 0; stroke: #484848; stroke-width: 1.25"/>
   </g>
   <g id="line2d_25">
    <path d="M 414.605366 184.304622 
L 502.352134 184.304622 
" clip-path="url(#pf402a0230d)" style="fill: none; stroke-dasharray: 1.5625,0.9375; stroke-dashoffset: 0; stroke: #484848; stroke-width: 1.25"/>
   </g>
   <g id="line2d_26">
    <path d="M 576.32852 204.676361 
L 677.80398 204.676361 
" clip-path="url(#pf402a0230d)" style="fill: none; stroke-dasharray: 1.5625,0.9375; stroke-dashoffset: 0; stroke: #484848; stroke-width: 1.25"/>
   </g>
   <g id="line2d_27">
    <path d="M 559.701815 169.025817 
L 694.430685 169.025817 
" clip-path="url(#pf402a0230d)" style="fill: none; stroke-dasharray: 3.125,1.25; stroke-dashoffset: 0; stroke: #484848; stroke-width: 1.25"/>
   </g>
   <g id="line2d_28">
    <path d="M 571.778821 133.375273 
L 682.353679 133.375273 
" clip-path="url(#pf402a0230d)" style="fill: none; stroke-dasharray: 1.5625,0.9375; stroke-dashoffset: 0; stroke: #484848; stroke-width: 1.25"/>
   </g>
   <g id="patch_3">
    <path d="M 37.01 346.769243 
L 37.01 21.84 
" style="fill: none; stroke: #000000; stroke-width: 0.8; stroke-linejoin: miter; stroke-linecap: square"/>
   </g>
   <g id="patch_4">
    <path d="M 37.01 346.769243 
L 711.36 346.769243 
" style="fill: none; stroke: #000000; stroke-width: 0.8; stroke-linejoin: miter; stroke-linecap: square"/>
   </g>
   <g id="text_13">
    <!-- Age distribution by group (full sample) -->
    <g transform="translate(281.497 15.84) scale(0.096 -0.096)">
     <defs>
      <path id="DejaVuSans-62" d="M 3116 1747 
Q 3116 2381 2855 2742 
Q 2594 3103 2138 3103 
Q 1681 3103 1420 2742 
Q 1159 2381 1159 1747 
Q 1159 1113 1420 752 
Q 1681 391 2138 391 
Q 2594 391 2855 752 
Q 3116 1113 3116 1747 
z
M 1159 2969 
Q 1341 3281 1617 3432 
Q 1894 3584 2278 3584 
Q 2916 3584 3314 3078 
Q 3713 2572 3713 1747 
Q 3713 922 3314 415 
Q 2916 -91 2278 -91 
Q 1894 -91 1617 61 
Q 1341 213 1159 525 
L 1159 0 
L 581 0 
L 581 4863 
L 1159 4863 
L 1159 2969 
z
" transform="scale(0.015625)"/>
      <path id="DejaVuSans-66" d="M 2375 4863 
L 2375 4384 
L 1825 4384 
Q 1516 4384 1395 4259 
Q 1275 4134 1275 3809 
L 1275 3500 
L 2222 3500 
L 2222 3053 
L 1275 3053 
L 1275 0 
L 697 0 
L 697 3053 
L 147 3053 
L 147 3500 
L 697 3500 
L 697 3744 
Q 697 4328 969 4595 
Q 1241 4863 1831 4863 
L 2375 4863 
z
" transform="scale(0.015625)"/>
      <path id="DejaVuSans-6c" d="M 603 4863 
L 1178 4863 
L 1178 0 
L 603 0 
L 603 4863 
z
" transform="scale(0.015625)"/>
      <path id="DejaVuSans-6d" d="M 3328 2828 
Q 3544 3216 3844 3400 
Q 4144 3584 4550 3584 
Q 5097 3584 5394 3201 
Q 5691 2819 5691 2113 
L 5691 0 
L 5113 0 
L 5113 2094 
Q 5113 2597 4934 2840 
Q 4756 3084 4391 3084 
Q 3944 3084 3684 2787 
Q 3425 2491 3425 1978 
L 3425 0 
L 2847 0 
L 2847 2094 
Q 2847 2600 2669 2842 
Q 2491 3084 2119 3084 
Q 1678 3084 1418 2786 
Q 1159 2488 1159 1978 
L 1159 0 
L 581 0 
L 581 3500 
L 1159 3500 
L 1159 2956 
Q 1356 3278 1631 3431 
Q 1906 3584 2284 3584 
Q 2666 3584 2933 3390 
Q 3200 3197 3328 2828 
z
" transform="scale(0.015625)"/>
     </defs>
     <use xlink:href="#DejaVuSans-41"/>
     <use xlink:href="#DejaVuSans-67" transform="translate(68.408203 0)"/>
     <use xlink:href="#DejaVuSans-65" transform="translate(131.884766 0)"/>
     <use xlink:href="#DejaVuSans-20" transform="translate(193.408203 0)"/>
     <use xlink:href="#DejaVuSans-64" transform="translate(225.195312 0)"/>
     <use xlink:href="#DejaVuSans-69" transform="translate(288.671875 0)"/>
     <use xlink:href="#DejaVuSans-73" transform="translate(316.455078 0)"/>
     <use xlink:href="#DejaVuSans-74" transform="translate(368.554688 0)"/>
     <use xlink:href="#DejaVuSans-72" transform="translate(407.763672 0)"/>
     <use xlink:href="#DejaVuSans-69" transform="translate(448.876953 0)"/>
     <use xlink:href="#DejaVuSans-62" transform="translate(476.660156 0)"/>
     <use xlink:href="#DejaVuSans-75" transform="translate(540.136719 0)"/>
     <use xlink:href="#DejaVuSans-74" transform="translate(603.515625 0)"/>
     <use xlink:href="#DejaVuSans-69" transform="translate(642.724609 0)"/>
     <use xlink:href="#DejaVuSans-6f" transform="translate(670.507812 0)"/>
     <use xlink:href="#DejaVuSans-6e" transform="translate(731.689453 0)"/>
     <use xlink:href="#DejaVuSans-20" transform="translate(795.068359 0)"/>
     <use xlink:href="#DejaVuSans-62" transform="translate(826.855469 0)"/>
     <use xlink:href="#DejaVuSans-79" transform="translate(890.332031 0)"/>
     <use xlink:href="#DejaVuSans-20" transform="translate(949.511719 0)"/>
     <use xlink:href="#DejaVuSans-67" transform="translate(981.298828 0)"/>
     <use xlink:href="#DejaVuSans-72" transform="translate(1044.775391 0)"/>
     <use xlink:href="#DejaVuSans-6f" transform="translate(1083.638672 0)"/>
     <use xlink:href="#DejaVuSans-75" transform="translate(1144.820312 0)"/>
     <use xlink:href="#DejaVuSans-70" transform="translate(1208.199219 0)"/>
     <use xlink:href="#DejaVuSans-20" transform="translate(1271.675781 0)"/>
     <use xlink:href="#DejaVuSans-28" transform="translate(1303.462891 0)"/>
     <use xlink:href="#DejaVuSans-66" transform="translate(1342.476562 0)"/>
     <use xlink:href="#DejaVuSans-75" transform="translate(1377.681641 0)"/>
     <use xlink:href="#DejaVuSans-6c" transform="translate(1441.060547 0)"/>
     <use xlink:href="#DejaVuSans-6c" transform="translate(1468.84375 0)"/>
     <use xlink:href="#DejaVuSans-20" transform="translate(1496.626953 0)"/>
     <use xlink:href="#DejaVuSans-73" transform="translate(1528.414062 0)"/>
     <use xlink:href="#DejaVuSans-61" transform="translate(1580.513672 0)"/>
     <use xlink:href="#DejaVuSans-6d" transform="translate(1641.792969 0)"/>
     <use xlink:href="#DejaVuSans-70" transform="translate(1739.205078 0)"/>
     <use xlink:href="#DejaVuSans-6c" transform="translate(1802.681641 0)"/>
     <use xlink:href="#DejaVuSans-65" transform="translate(1830.464844 0)"/>
     <use xlink:href="#DejaVuSans-29" transform="translate(1891.988281 0)"/>
    </g>
   </g>
  </g>
 </g>
 <defs>
  <clipPath id="pf402a0230d">
   <rect x="37.01" y="21.84" width="674.35" height="324.929243"/>
  </clipPath>
 </defs>
</svg>
