<?xml version="1.0" encoding="utf-8" standalone="no"?>
<!DOCTYPE svg PUBLIC "-//W3C//DTD SVG 1.1//EN"
  "http://www.w3.org/Graphics/SVG/1.1/DTD/svg11.dtd">
<svg xmlns:xlink="http://www.w3.org/1999/xlink" width="720pt" height="396pt" viewBox="0 0 720 396" xmlns="http://www.w3.org/2000/svg" version="1.1">
 <metadata>
  <rdf:RDF xmlns:dc="http://purl.org/dc/elements/1.1/" xmlns:cc="http://creativecommons.org/ns#" xmlns:rdf="http://www.w3.org/1999/02/22-rdf-syntax-ns#">
   <cc:Work>
    <dc:type rdf:resource="http://purl.org/dc/dcmitype/StillImage"/>
    <dc:date>2025-11-07T20:00:11.886440</dc:date>
    <dc:format>image/svg+xml</dc:format>
    <dc:creator>
     <cc:Agent>
      <dc:title>Matplotlib v3.10.7, https://matplotlib.org/</dc:title>
     </cc:Agent>
    </dc:creator>
   </cc:Work>
  </rdf:RDF>
 </metadata>
 <defs>
  <style type="text/css">*{stroke-linejoin: round; stroke-linecap: butt}</style>
 </defs>
 <g id="figure_1">
  <g id="patch_1">
   <path d="M 0 396 
L 720 396 
L 720 0 
L 0 0 
z
" style="fill: #ffffff"/>
  </g>
  <g id="axes_1">
   <g id="patch_2">
    <path d="M 37.01 354.421611 
L 711.36 354.421611 
L 711.36 21.84 
L 37.01 21.84 
z
" style="fill: #ffffff"/>
   </g>
   <g id="matplotlib.axis_1">
    <g id="xtick_1">
     <g id="line2d_1">
      <defs>
       <path id="mdcd6aa8427" d="M 0 0 
L 0 3.5 
" style="stroke: #000000; stroke-width: 0.8"/>
      </defs>
      <g>
       <use xlink:href="#mdcd6aa8427" x="121.30375" y="354.421611" style="stroke: #000000; stroke-width: 0.8"/>
      </g>
     </g>
     <g id="text_1">
      <!-- Studenti - secondaria -->
      <g transform="translate(36.779312 382.261008) rotate(-10) scale(0.08 -0.08)">
       <defs>
        <path id="DejaVuSans-53" d="M 3425 4513 
L 3425 3897 
Q 3066 4069 2747 4153 
Q 2428 4238 2131 4238 
Q 1616 4238 1336 4038 
Q 1056 3838 1056 3469 
Q 1056 3159 1242 3001 
Q 1428 2844 1947 2747 
L 2328 2669 
Q 3034 2534 3370 2195 
Q 3706 1856 3706 1288 
Q 3706 609 3251 259 
Q 2797 -91 1919 -91 
Q 1588 -91 1214 -16 
Q 841 59 441 206 
L 441 856 
Q 825 641 1194 531 
Q 1563 422 1919 422 
Q 2459 422 2753 634 
Q 3047 847 3047 1241 
Q 3047 1584 2836 1778 
Q 2625 1972 2144 2069 
L 1759 2144 
Q 1053 2284 737 2584 
Q 422 2884 422 3419 
Q 422 4038 858 4394 
Q 1294 4750 2059 4750 
Q 2388 4750 2728 4690 
Q 3069 4631 3425 4513 
z
" transform="scale(0.015625)"/>
        <path id="DejaVuSans-74" d="M 1172 4494 
L 1172 3500 
L 2356 3500 
L 2356 3053 
L 1172 3053 
L 1172 1153 
Q 1172 725 1289 603 
Q 1406 481 1766 481 
L 2356 481 
L 2356 0 
L 1766 0 
Q 1100 0 847 248 
Q 594 497 594 1153 
L 594 3053 
L 172 3053 
L 172 3500 
L 594 3500 
L 594 4494 
L 1172 4494 
z
" transform="scale(0.015625)"/>
        <path id="DejaVuSans-75" d="M 544 1381 
L 544 3500 
L 1119 3500 
L 1119 1403 
Q 1119 906 1312 657 
Q 1506 409 1894 409 
Q 2359 409 2629 706 
Q 2900 1003 2900 1516 
L 2900 3500 
L 3475 3500 
L 3475 0 
L 2900 0 
L 2900 538 
Q 2691 219 2414 64 
Q 2138 -91 1772 -91 
Q 1169 -91 856 284 
Q 544 659 544 1381 
z
M 1991 3584 
L 1991 3584 
z
" transform="scale(0.015625)"/>
        <path id="DejaVuSans-64" d="M 2906 2969 
L 2906 4863 
L 3481 4863 
L 3481 0 
L 2906 0 
L 2906 525 
Q 2725 213 2448 61 
Q 2172 -91 1784 -91 
Q 1150 -91 751 415 
Q 353 922 353 1747 
Q 353 2572 751 3078 
Q 1150 3584 1784 3584 
Q 2172 3584 2448 3432 
Q 2725 3281 2906 2969 
z
M 947 1747 
Q 947 1113 1208 752 
Q 1469 391 1925 391 
Q 2381 391 2643 752 
Q 2906 1113 2906 1747 
Q 2906 2381 2643 2742 
Q 2381 3103 1925 3103 
Q 1469 3103 1208 2742 
Q 947 2381 947 1747 
z
" transform="scale(0.015625)"/>
        <path id="DejaVuSans-65" d="M 3597 1894 
L 3597 1613 
L 953 1613 
Q 991 1019 1311 708 
Q 1631 397 2203 397 
Q 2534 397 2845 478 
Q 3156 559 3463 722 
L 3463 178 
Q 3153 47 2828 -22 
Q 2503 -91 2169 -91 
Q 1331 -91 842 396 
Q 353 884 353 1716 
Q 353 2575 817 3079 
Q 1281 3584 2069 3584 
Q 2775 3584 3186 3129 
Q 3597 2675 3597 1894 
z
M 3022 2063 
Q 3016 2534 2758 2815 
Q 2500 3097 2075 3097 
Q 1594 3097 1305 2825 
Q 1016 2553 972 2059 
L 3022 2063 
z
" transform="scale(0.015625)"/>
        <path id="DejaVuSans-6e" d="M 3513 2113 
L 3513 0 
L 2938 0 
L 2938 2094 
Q 2938 2591 2744 2837 
Q 2550 3084 2163 3084 
Q 1697 3084 1428 2787 
Q 1159 2491 1159 1978 
L 1159 0 
L 581 0 
L 581 3500 
L 1159 3500 
L 1159 2956 
Q 1366 3272 1645 3428 
Q 1925 3584 2291 3584 
Q 2894 3584 3203 3211 
Q 3513 2838 3513 2113 
z
" transform="scale(0.015625)"/>
        <path id="DejaVuSans-69" d="M 603 3500 
L 1178 3500 
L 1178 0 
L 603 0 
L 603 3500 
z
M 603 4863 
L 1178 4863 
L 1178 4134 
L 603 4134 
L 603 4863 
z
" transform="scale(0.015625)"/>
        <path id="DejaVuSans-20" transform="scale(0.015625)"/>
        <path id="DejaVuSans-2d" d="M 313 2009 
L 1997 2009 
L 1997 1497 
L 313 1497 
L 313 2009 
z
" transform="scale(0.015625)"/>
        <path id="DejaVuSans-73" d="M 2834 3397 
L 2834 2853 
Q 2591 2978 2328 3040 
Q 2066 3103 1784 3103 
Q 1356 3103 1142 2972 
Q 928 2841 928 2578 
Q 928 2378 1081 2264 
Q 1234 2150 1697 2047 
L 1894 2003 
Q 2506 1872 2764 1633 
Q 3022 1394 3022 966 
Q 3022 478 2636 193 
Q 2250 -91 1575 -91 
Q 1294 -91 989 -36 
Q 684 19 347 128 
L 347 722 
Q 666 556 975 473 
Q 1284 391 1588 391 
Q 1994 391 2212 530 
Q 2431 669 2431 922 
Q 2431 1156 2273 1281 
Q 2116 1406 1581 1522 
L 1381 1569 
Q 847 1681 609 1914 
Q 372 2147 372 2553 
Q 372 3047 722 3315 
Q 1072 3584 1716 3584 
Q 2034 3584 2315 3537 
Q 2597 3491 2834 3397 
z
" transform="scale(0.015625)"/>
        <path id="DejaVuSans-63" d="M 3122 3366 
L 3122 2828 
Q 2878 2963 2633 3030 
Q 2388 3097 2138 3097 
Q 1578 3097 1268 2742 
Q 959 2388 959 1747 
Q 959 1106 1268 751 
Q 1578 397 2138 397 
Q 2388 397 2633 464 
Q 2878 531 3122 666 
L 3122 134 
Q 2881 22 2623 -34 
Q 2366 -91 2075 -91 
Q 1284 -91 818 406 
Q 353 903 353 1747 
Q 353 2603 823 3093 
Q 1294 3584 2113 3584 
Q 2378 3584 2631 3529 
Q 2884 3475 3122 3366 
z
" transform="scale(0.015625)"/>
        <path id="DejaVuSans-6f" d="M 1959 3097 
Q 1497 3097 1228 2736 
Q 959 2375 959 1747 
Q 959 1119 1226 758 
Q 1494 397 1959 397 
Q 2419 397 2687 759 
Q 2956 1122 2956 1747 
Q 2956 2369 2687 2733 
Q 2419 3097 1959 3097 
z
M 1959 3584 
Q 2709 3584 3137 3096 
Q 3566 2609 3566 1747 
Q 3566 888 3137 398 
Q 2709 -91 1959 -91 
Q 1206 -91 779 398 
Q 353 888 353 1747 
Q 353 2609 779 3096 
Q 1206 3584 1959 3584 
z
" transform="scale(0.015625)"/>
        <path id="DejaVuSans-61" d="M 2194 1759 
Q 1497 1759 1228 1600 
Q 959 1441 959 1056 
Q 959 750 1161 570 
Q 1363 391 1709 391 
Q 2188 391 2477 730 
Q 2766 1069 2766 1631 
L 2766 1759 
L 2194 1759 
z
M 3341 1997 
L 3341 0 
L 2766 0 
L 2766 531 
Q 2569 213 2275 61 
Q 1981 -91 1556 -91 
Q 1019 -91 701 211 
Q 384 513 384 1019 
Q 384 1609 779 1909 
Q 1175 2209 1959 2209 
L 2766 2209 
L 2766 2266 
Q 2766 2663 2505 2880 
Q 2244 3097 1772 3097 
Q 1472 3097 1187 3025 
Q 903 2953 641 2809 
L 641 3341 
Q 956 3463 1253 3523 
Q 1550 3584 1831 3584 
Q 2591 3584 2966 3190 
Q 3341 2797 3341 1997 
z
" transform="scale(0.015625)"/>
        <path id="DejaVuSans-72" d="M 2631 2963 
Q 2534 3019 2420 3045 
Q 2306 3072 2169 3072 
Q 1681 3072 1420 2755 
Q 1159 2438 1159 1844 
L 1159 0 
L 581 0 
L 581 3500 
L 1159 3500 
L 1159 2956 
Q 1341 3275 1631 3429 
Q 1922 3584 2338 3584 
Q 2397 3584 2469 3576 
Q 2541 3569 2628 3553 
L 2631 2963 
z
" transform="scale(0.015625)"/>
       </defs>
       <use xlink:href="#DejaVuSans-53"/>
       <use xlink:href="#DejaVuSans-74" transform="translate(63.476562 0)"/>
       <use xlink:href="#DejaVuSans-75" transform="translate(102.685547 0)"/>
       <use xlink:href="#DejaVuSans-64" transform="translate(166.064453 0)"/>
       <use xlink:href="#DejaVuSans-65" transform="translate(229.541016 0)"/>
       <use xlink:href="#DejaVuSans-6e" transform="translate(291.064453 0)"/>
       <use xlink:href="#DejaVuSans-74" transform="translate(354.443359 0)"/>
       <use xlink:href="#DejaVuSans-69" transform="translate(393.652344 0)"/>
       <use xlink:href="#DejaVuSans-20" transform="translate(421.435547 0)"/>
       <use xlink:href="#DejaVuSans-2d" transform="translate(453.222656 0)"/>
       <use xlink:href="#DejaVuSans-20" transform="translate(489.306641 0)"/>
       <use xlink:href="#DejaVuSans-73" transform="translate(521.09375 0)"/>
       <use xlink:href="#DejaVuSans-65" transform="translate(573.193359 0)"/>
       <use xlink:href="#DejaVuSans-63" transform="translate(634.716797 0)"/>
       <use xlink:href="#DejaVuSans-6f" transform="translate(689.697266 0)"/>
       <use xlink:href="#DejaVuSans-6e" transform="translate(750.878906 0)"/>
       <use xlink:href="#DejaVuSans-64" transform="translate(814.257812 0)"/>
       <use xlink:href="#DejaVuSans-61" transform="translate(877.734375 0)"/>
       <use xlink:href="#DejaVuSans-72" transform="translate(939.013672 0)"/>
       <use xlink:href="#DejaVuSans-69" transform="translate(980.126953 0)"/>
       <use xlink:href="#DejaVuSans-61" transform="translate(1007.910156 0)"/>
      </g>
     </g>
    </g>
    <g id="xtick_2">
     <g id="line2d_2">
      <g>
       <use xlink:href="#mdcd6aa8427" x="289.89125" y="354.421611" style="stroke: #000000; stroke-width: 0.8"/>
      </g>
     </g>
     <g id="text_2">
      <!-- Studenti - universitari -->
      <g transform="translate(203.988081 382.504115) rotate(-10) scale(0.08 -0.08)">
       <defs>
        <path id="DejaVuSans-76" d="M 191 3500 
L 800 3500 
L 1894 563 
L 2988 3500 
L 3597 3500 
L 2284 0 
L 1503 0 
L 191 3500 
z
" transform="scale(0.015625)"/>
       </defs>
       <use xlink:href="#DejaVuSans-53"/>
       <use xlink:href="#DejaVuSans-74" transform="translate(63.476562 0)"/>
       <use xlink:href="#DejaVuSans-75" transform="translate(102.685547 0)"/>
       <use xlink:href="#DejaVuSans-64" transform="translate(166.064453 0)"/>
       <use xlink:href="#DejaVuSans-65" transform="translate(229.541016 0)"/>
       <use xlink:href="#DejaVuSans-6e" transform="translate(291.064453 0)"/>
       <use xlink:href="#DejaVuSans-74" transform="translate(354.443359 0)"/>
       <use xlink:href="#DejaVuSans-69" transform="translate(393.652344 0)"/>
       <use xlink:href="#DejaVuSans-20" transform="translate(421.435547 0)"/>
       <use xlink:href="#DejaVuSans-2d" transform="translate(453.222656 0)"/>
       <use xlink:href="#DejaVuSans-20" transform="translate(489.306641 0)"/>
       <use xlink:href="#DejaVuSans-75" transform="translate(521.09375 0)"/>
       <use xlink:href="#DejaVuSans-6e" transform="translate(584.472656 0)"/>
       <use xlink:href="#DejaVuSans-69" transform="translate(647.851562 0)"/>
       <use xlink:href="#DejaVuSans-76" transform="translate(675.634766 0)"/>
       <use xlink:href="#DejaVuSans-65" transform="translate(734.814453 0)"/>
       <use xlink:href="#DejaVuSans-72" transform="translate(796.337891 0)"/>
       <use xlink:href="#DejaVuSans-73" transform="translate(837.451172 0)"/>
       <use xlink:href="#DejaVuSans-69" transform="translate(889.550781 0)"/>
       <use xlink:href="#DejaVuSans-74" transform="translate(917.333984 0)"/>
       <use xlink:href="#DejaVuSans-61" transform="translate(956.542969 0)"/>
       <use xlink:href="#DejaVuSans-72" transform="translate(1017.822266 0)"/>
       <use xlink:href="#DejaVuSans-69" transform="translate(1058.935547 0)"/>
      </g>
     </g>
    </g>
    <g id="xtick_3">
     <g id="line2d_3">
      <g>
       <use xlink:href="#mdcd6aa8427" x="458.47875" y="354.421611" style="stroke: #000000; stroke-width: 0.8"/>
      </g>
     </g>
     <g id="text_3">
      <!-- Insegnanti - non in servizio -->
      <g transform="translate(351.794906 386.168309) rotate(-10) scale(0.08 -0.08)">
       <defs>
        <path id="DejaVuSans-49" d="M 628 4666 
L 1259 4666 
L 1259 0 
L 628 0 
L 628 4666 
z
" transform="scale(0.015625)"/>
        <path id="DejaVuSans-67" d="M 2906 1791 
Q 2906 2416 2648 2759 
Q 2391 3103 1925 3103 
Q 1463 3103 1205 2759 
Q 947 2416 947 1791 
Q 947 1169 1205 825 
Q 1463 481 1925 481 
Q 2391 481 2648 825 
Q 2906 1169 2906 1791 
z
M 3481 434 
Q 3481 -459 3084 -895 
Q 2688 -1331 1869 -1331 
Q 1566 -1331 1297 -1286 
Q 1028 -1241 775 -1147 
L 775 -588 
Q 1028 -725 1275 -790 
Q 1522 -856 1778 -856 
Q 2344 -856 2625 -561 
Q 2906 -266 2906 331 
L 2906 616 
Q 2728 306 2450 153 
Q 2172 0 1784 0 
Q 1141 0 747 490 
Q 353 981 353 1791 
Q 353 2603 747 3093 
Q 1141 3584 1784 3584 
Q 2172 3584 2450 3431 
Q 2728 3278 2906 2969 
L 2906 3500 
L 3481 3500 
L 3481 434 
z
" transform="scale(0.015625)"/>
        <path id="DejaVuSans-7a" d="M 353 3500 
L 3084 3500 
L 3084 2975 
L 922 459 
L 3084 459 
L 3084 0 
L 275 0 
L 275 525 
L 2438 3041 
L 353 3041 
L 353 3500 
z
" transform="scale(0.015625)"/>
       </defs>
       <use xlink:href="#DejaVuSans-49"/>
       <use xlink:href="#DejaVuSans-6e" transform="translate(29.492188 0)"/>
       <use xlink:href="#DejaVuSans-73" transform="translate(92.871094 0)"/>
       <use xlink:href="#DejaVuSans-65" transform="translate(144.970703 0)"/>
       <use xlink:href="#DejaVuSans-67" transform="translate(206.494141 0)"/>
       <use xlink:href="#DejaVuSans-6e" transform="translate(269.970703 0)"/>
       <use xlink:href="#DejaVuSans-61" transform="translate(333.349609 0)"/>
       <use xlink:href="#DejaVuSans-6e" transform="translate(394.628906 0)"/>
       <use xlink:href="#DejaVuSans-74" transform="translate(458.007812 0)"/>
       <use xlink:href="#DejaVuSans-69" transform="translate(497.216797 0)"/>
       <use xlink:href="#DejaVuSans-20" transform="translate(525 0)"/>
       <use xlink:href="#DejaVuSans-2d" transform="translate(556.787109 0)"/>
       <use xlink:href="#DejaVuSans-20" transform="translate(592.871094 0)"/>
       <use xlink:href="#DejaVuSans-6e" transform="translate(624.658203 0)"/>
       <use xlink:href="#DejaVuSans-6f" transform="translate(688.037109 0)"/>
       <use xlink:href="#DejaVuSans-6e" transform="translate(749.21875 0)"/>
       <use xlink:href="#DejaVuSans-20" transform="translate(812.597656 0)"/>
       <use xlink:href="#DejaVuSans-69" transform="translate(844.384766 0)"/>
       <use xlink:href="#DejaVuSans-6e" transform="translate(872.167969 0)"/>
       <use xlink:href="#DejaVuSans-20" transform="translate(935.546875 0)"/>
       <use xlink:href="#DejaVuSans-73" transform="translate(967.333984 0)"/>
       <use xlink:href="#DejaVuSans-65" transform="translate(1019.433594 0)"/>
       <use xlink:href="#DejaVuSans-72" transform="translate(1080.957031 0)"/>
       <use xlink:href="#DejaVuSans-76" transform="translate(1122.070312 0)"/>
       <use xlink:href="#DejaVuSans-69" transform="translate(1181.25 0)"/>
       <use xlink:href="#DejaVuSans-7a" transform="translate(1209.033203 0)"/>
       <use xlink:href="#DejaVuSans-69" transform="translate(1261.523438 0)"/>
       <use xlink:href="#DejaVuSans-6f" transform="translate(1289.306641 0)"/>
      </g>
     </g>
    </g>
    <g id="xtick_4">
     <g id="line2d_4">
      <g>
       <use xlink:href="#mdcd6aa8427" x="627.06625" y="354.421611" style="stroke: #000000; stroke-width: 0.8"/>
      </g>
     </g>
     <g id="text_4">
      <!-- Insegnanti - in servizio -->
      <g transform="translate(537.692865 383.116008) rotate(-10) scale(0.08 -0.08)">
       <use xlink:href="#DejaVuSans-49"/>
       <use xlink:href="#DejaVuSans-6e" transform="translate(29.492188 0)"/>
       <use xlink:href="#DejaVuSans-73" transform="translate(92.871094 0)"/>
       <use xlink:href="#DejaVuSans-65" transform="translate(144.970703 0)"/>
       <use xlink:href="#DejaVuSans-67" transform="translate(206.494141 0)"/>
       <use xlink:href="#DejaVuSans-6e" transform="translate(269.970703 0)"/>
       <use xlink:href="#DejaVuSans-61" transform="translate(333.349609 0)"/>
       <use xlink:href="#DejaVuSans-6e" transform="translate(394.628906 0)"/>
       <use xlink:href="#DejaVuSans-74" transform="translate(458.007812 0)"/>
       <use xlink:href="#DejaVuSans-69" transform="translate(497.216797 0)"/>
       <use xlink:href="#DejaVuSans-20" transform="translate(525 0)"/>
       <use xlink:href="#DejaVuSans-2d" transform="translate(556.787109 0)"/>
       <use xlink:href="#DejaVuSans-20" transform="translate(592.871094 0)"/>
       <use xlink:href="#DejaVuSans-69" transform="translate(624.658203 0)"/>
       <use xlink:href="#DejaVuSans-6e" transform="translate(652.441406 0)"/>
       <use xlink:href="#DejaVuSans-20" transform="translate(715.820312 0)"/>
       <use xlink:href="#DejaVuSans-73" transform="translate(747.607422 0)"/>
       <use xlink:href="#DejaVuSans-65" transform="translate(799.707031 0)"/>
       <use xlink:href="#DejaVuSans-72" transform="translate(861.230469 0)"/>
       <use xlink:href="#DejaVuSans-76" transform="translate(902.34375 0)"/>
       <use xlink:href="#DejaVuSans-69" transform="translate(961.523438 0)"/>
       <use xlink:href="#DejaVuSans-7a" transform="translate(989.306641 0)"/>
       <use xlink:href="#DejaVuSans-69" transform="translate(1041.796875 0)"/>
       <use xlink:href="#DejaVuSans-6f" transform="translate(1069.580078 0)"/>
      </g>
     </g>
    </g>
   </g>
   <g id="matplotlib.axis_2">
    <g id="ytick_1">
     <g id="line2d_5">
      <path d="M 37.01 308.026998 
L 711.36 308.026998 
" clip-path="url(#pac31586cac)" style="fill: none; stroke-dasharray: 2.96,1.28; stroke-dashoffset: 0; stroke: #b0b0b0; stroke-opacity: 0.3; stroke-width: 0.8"/>
     </g>
     <g id="line2d_6">
      <defs>
       <path id="m42a9fab9f9" d="M 0 0 
L -3.5 0 
" style="stroke: #000000; stroke-width: 0.8"/>
      </defs>
      <g>
       <use xlink:href="#m42a9fab9f9" x="37.01" y="308.026998" style="stroke: #000000; stroke-width: 0.8"/>
      </g>
     </g>
     <g id="text_5">
      <!-- 20 -->
      <g transform="translate(19.83 311.066373) scale(0.08 -0.08)">
       <defs>
        <path id="DejaVuSans-32" d="M 1228 531 
L 3431 531 
L 3431 0 
L 469 0 
L 469 531 
Q 828 903 1448 1529 
Q 2069 2156 2228 2338 
Q 2531 2678 2651 2914 
Q 2772 3150 2772 3378 
Q 2772 3750 2511 3984 
Q 2250 4219 1831 4219 
Q 1534 4219 1204 4116 
Q 875 4013 500 3803 
L 500 4441 
Q 881 4594 1212 4672 
Q 1544 4750 1819 4750 
Q 2544 4750 2975 4387 
Q 3406 4025 3406 3419 
Q 3406 3131 3298 2873 
Q 3191 2616 2906 2266 
Q 2828 2175 2409 1742 
Q 1991 1309 1228 531 
z
" transform="scale(0.015625)"/>
        <path id="DejaVuSans-30" d="M 2034 4250 
Q 1547 4250 1301 3770 
Q 1056 3291 1056 2328 
Q 1056 1369 1301 889 
Q 1547 409 2034 409 
Q 2525 409 2770 889 
Q 3016 1369 3016 2328 
Q 3016 3291 2770 3770 
Q 2525 4250 2034 4250 
z
M 2034 4750 
Q 2819 4750 3233 4129 
Q 3647 3509 3647 2328 
Q 3647 1150 3233 529 
Q 2819 -91 2034 -91 
Q 1250 -91 836 529 
Q 422 1150 422 2328 
Q 422 3509 836 4129 
Q 1250 4750 2034 4750 
z
" transform="scale(0.015625)"/>
       </defs>
       <use xlink:href="#DejaVuSans-32"/>
       <use xlink:href="#DejaVuSans-30" transform="translate(63.623047 0)"/>
      </g>
     </g>
    </g>
    <g id="ytick_2">
     <g id="line2d_7">
      <path d="M 37.01 255.898218 
L 711.36 255.898218 
" clip-path="url(#pac31586cac)" style="fill: none; stroke-dasharray: 2.96,1.28; stroke-dashoffset: 0; stroke: #b0b0b0; stroke-opacity: 0.3; stroke-width: 0.8"/>
     </g>
     <g id="line2d_8">
      <g>
       <use xlink:href="#m42a9fab9f9" x="37.01" y="255.898218" style="stroke: #000000; stroke-width: 0.8"/>
      </g>
     </g>
     <g id="text_6">
      <!-- 30 -->
      <g transform="translate(19.83 258.937593) scale(0.08 -0.08)">
       <defs>
        <path id="DejaVuSans-33" d="M 2597 2516 
Q 3050 2419 3304 2112 
Q 3559 1806 3559 1356 
Q 3559 666 3084 287 
Q 2609 -91 1734 -91 
Q 1441 -91 1130 -33 
Q 819 25 488 141 
L 488 750 
Q 750 597 1062 519 
Q 1375 441 1716 441 
Q 2309 441 2620 675 
Q 2931 909 2931 1356 
Q 2931 1769 2642 2001 
Q 2353 2234 1838 2234 
L 1294 2234 
L 1294 2753 
L 1863 2753 
Q 2328 2753 2575 2939 
Q 2822 3125 2822 3475 
Q 2822 3834 2567 4026 
Q 2313 4219 1838 4219 
Q 1578 4219 1281 4162 
Q 984 4106 628 3988 
L 628 4550 
Q 988 4650 1302 4700 
Q 1616 4750 1894 4750 
Q 2613 4750 3031 4423 
Q 3450 4097 3450 3541 
Q 3450 3153 3228 2886 
Q 3006 2619 2597 2516 
z
" transform="scale(0.015625)"/>
       </defs>
       <use xlink:href="#DejaVuSans-33"/>
       <use xlink:href="#DejaVuSans-30" transform="translate(63.623047 0)"/>
      </g>
     </g>
    </g>
    <g id="ytick_3">
     <g id="line2d_9">
      <path d="M 37.01 203.769439 
L 711.36 203.769439 
" clip-path="url(#pac31586cac)" style="fill: none; stroke-dasharray: 2.96,1.28; stroke-dashoffset: 0; stroke: #b0b0b0; stroke-opacity: 0.3; stroke-width: 0.8"/>
     </g>
     <g id="line2d_10">
      <g>
       <use xlink:href="#m42a9fab9f9" x="37.01" y="203.769439" style="stroke: #000000; stroke-width: 0.8"/>
      </g>
     </g>
     <g id="text_7">
      <!-- 40 -->
      <g transform="translate(19.83 206.808814) scale(0.08 -0.08)">
       <defs>
        <path id="DejaVuSans-34" d="M 2419 4116 
L 825 1625 
L 2419 1625 
L 2419 4116 
z
M 2253 4666 
L 3047 4666 
L 3047 1625 
L 3713 1625 
L 3713 1100 
L 3047 1100 
L 3047 0 
L 2419 0 
L 2419 1100 
L 313 1100 
L 313 1709 
L 2253 4666 
z
" transform="scale(0.015625)"/>
       </defs>
       <use xlink:href="#DejaVuSans-34"/>
       <use xlink:href="#DejaVuSans-30" transform="translate(63.623047 0)"/>
      </g>
     </g>
    </g>
    <g id="ytick_4">
     <g id="line2d_11">
      <path d="M 37.01 151.64066 
L 711.36 151.64066 
" clip-path="url(#pac31586cac)" style="fill: none; stroke-dasharray: 2.96,1.28; stroke-dashoffset: 0; stroke: #b0b0b0; stroke-opacity: 0.3; stroke-width: 0.8"/>
     </g>
     <g id="line2d_12">
      <g>
       <use xlink:href="#m42a9fab9f9" x="37.01" y="151.64066" style="stroke: #000000; stroke-width: 0.8"/>
      </g>
     </g>
     <g id="text_8">
      <!-- 50 -->
      <g transform="translate(19.83 154.680035) scale(0.08 -0.08)">
       <defs>
        <path id="DejaVuSans-35" d="M 691 4666 
L 3169 4666 
L 3169 4134 
L 1269 4134 
L 1269 2991 
Q 1406 3038 1543 3061 
Q 1681 3084 1819 3084 
Q 2600 3084 3056 2656 
Q 3513 2228 3513 1497 
Q 3513 744 3044 326 
Q 2575 -91 1722 -91 
Q 1428 -91 1123 -41 
Q 819 9 494 109 
L 494 744 
Q 775 591 1075 516 
Q 1375 441 1709 441 
Q 2250 441 2565 725 
Q 2881 1009 2881 1497 
Q 2881 1984 2565 2268 
Q 2250 2553 1709 2553 
Q 1456 2553 1204 2497 
Q 953 2441 691 2322 
L 691 4666 
z
" transform="scale(0.015625)"/>
       </defs>
       <use xlink:href="#DejaVuSans-35"/>
       <use xlink:href="#DejaVuSans-30" transform="translate(63.623047 0)"/>
      </g>
     </g>
    </g>
    <g id="ytick_5">
     <g id="line2d_13">
      <path d="M 37.01 99.511881 
L 711.36 99.511881 
" clip-path="url(#pac31586cac)" style="fill: none; stroke-dasharray: 2.96,1.28; stroke-dashoffset: 0; stroke: #b0b0b0; stroke-opacity: 0.3; stroke-width: 0.8"/>
     </g>
     <g id="line2d_14">
      <g>
       <use xlink:href="#m42a9fab9f9" x="37.01" y="99.511881" style="stroke: #000000; stroke-width: 0.8"/>
      </g>
     </g>
     <g id="text_9">
      <!-- 60 -->
      <g transform="translate(19.83 102.551256) scale(0.08 -0.08)">
       <defs>
        <path id="DejaVuSans-36" d="M 2113 2584 
Q 1688 2584 1439 2293 
Q 1191 2003 1191 1497 
Q 1191 994 1439 701 
Q 1688 409 2113 409 
Q 2538 409 2786 701 
Q 3034 994 3034 1497 
Q 3034 2003 2786 2293 
Q 2538 2584 2113 2584 
z
M 3366 4563 
L 3366 3988 
Q 3128 4100 2886 4159 
Q 2644 4219 2406 4219 
Q 1781 4219 1451 3797 
Q 1122 3375 1075 2522 
Q 1259 2794 1537 2939 
Q 1816 3084 2150 3084 
Q 2853 3084 3261 2657 
Q 3669 2231 3669 1497 
Q 3669 778 3244 343 
Q 2819 -91 2113 -91 
Q 1303 -91 875 529 
Q 447 1150 447 2328 
Q 447 3434 972 4092 
Q 1497 4750 2381 4750 
Q 2619 4750 2861 4703 
Q 3103 4656 3366 4563 
z
" transform="scale(0.015625)"/>
       </defs>
       <use xlink:href="#DejaVuSans-36"/>
       <use xlink:href="#DejaVuSans-30" transform="translate(63.623047 0)"/>
      </g>
     </g>
    </g>
    <g id="ytick_6">
     <g id="line2d_15">
      <path d="M 37.01 47.383102 
L 711.36 47.383102 
" clip-path="url(#pac31586cac)" style="fill: none; stroke-dasharray: 2.96,1.28; stroke-dashoffset: 0; stroke: #b0b0b0; stroke-opacity: 0.3; stroke-width: 0.8"/>
     </g>
     <g id="line2d_16">
      <g>
       <use xlink:href="#m42a9fab9f9" x="37.01" y="47.383102" style="stroke: #000000; stroke-width: 0.8"/>
      </g>
     </g>
     <g id="text_10">
      <!-- 70 -->
      <g transform="translate(19.83 50.422477) scale(0.08 -0.08)">
       <defs>
        <path id="DejaVuSans-37" d="M 525 4666 
L 3525 4666 
L 3525 4397 
L 1831 0 
L 1172 0 
L 2766 4134 
L 525 4134 
L 525 4666 
z
" transform="scale(0.015625)"/>
       </defs>
       <use xlink:href="#DejaVuSans-37"/>
       <use xlink:href="#DejaVuSans-30" transform="translate(63.623047 0)"/>
      </g>
     </g>
    </g>
    <g id="text_11">
     <!-- Età (anni) -->
     <g transform="translate(14.16625 207.70268) rotate(-90) scale(0.08 -0.08)">
      <defs>
       <path id="DejaVuSans-45" d="M 628 4666 
L 3578 4666 
L 3578 4134 
L 1259 4134 
L 1259 2753 
L 3481 2753 
L 3481 2222 
L 1259 2222 
L 1259 531 
L 3634 531 
L 3634 0 
L 628 0 
L 628 4666 
z
" transform="scale(0.015625)"/>
       <path id="DejaVuSans-e0" d="M 2194 1759 
Q 1497 1759 1228 1600 
Q 959 1441 959 1056 
Q 959 750 1161 570 
Q 1363 391 1709 391 
Q 2188 391 2477 730 
Q 2766 1069 2766 1631 
L 2766 1759 
L 2194 1759 
z
M 3341 1997 
L 3341 0 
L 2766 0 
L 2766 531 
Q 2569 213 2275 61 
Q 1981 -91 1556 -91 
Q 1019 -91 701 211 
Q 384 513 384 1019 
Q 384 1609 779 1909 
Q 1175 2209 1959 2209 
L 2766 2209 
L 2766 2266 
Q 2766 2663 2505 2880 
Q 2244 3097 1772 3097 
Q 1472 3097 1187 3025 
Q 903 2953 641 2809 
L 641 3341 
Q 956 3463 1253 3523 
Q 1550 3584 1831 3584 
Q 2591 3584 2966 3190 
Q 3341 2797 3341 1997 
z
M 1403 5119 
L 2284 3950 
L 1806 3950 
L 787 5119 
L 1403 5119 
z
" transform="scale(0.015625)"/>
       <path id="DejaVuSans-28" d="M 1984 4856 
Q 1566 4138 1362 3434 
Q 1159 2731 1159 2009 
Q 1159 1288 1364 580 
Q 1569 -128 1984 -844 
L 1484 -844 
Q 1016 -109 783 600 
Q 550 1309 550 2009 
Q 550 2706 781 3412 
Q 1013 4119 1484 4856 
L 1984 4856 
z
" transform="scale(0.015625)"/>
       <path id="DejaVuSans-29" d="M 513 4856 
L 1013 4856 
Q 1481 4119 1714 3412 
Q 1947 2706 1947 2009 
Q 1947 1309 1714 600 
Q 1481 -109 1013 -844 
L 513 -844 
Q 928 -128 1133 580 
Q 1338 1288 1338 2009 
Q 1338 2731 1133 3434 
Q 928 4138 513 4856 
z
" transform="scale(0.015625)"/>
      </defs>
      <use xlink:href="#DejaVuSans-45"/>
      <use xlink:href="#DejaVuSans-74" transform="translate(63.183594 0)"/>
      <use xlink:href="#DejaVuSans-e0" transform="translate(102.392578 0)"/>
      <use xlink:href="#DejaVuSans-20" transform="translate(163.671875 0)"/>
      <use xlink:href="#DejaVuSans-28" transform="translate(195.458984 0)"/>
      <use xlink:href="#DejaVuSans-61" transform="translate(234.472656 0)"/>
      <use xlink:href="#DejaVuSans-6e" transform="translate(295.751953 0)"/>
      <use xlink:href="#DejaVuSans-6e" transform="translate(359.130859 0)"/>
      <use xlink:href="#DejaVuSans-69" transform="translate(422.509766 0)"/>
      <use xlink:href="#DejaVuSans-29" transform="translate(450.292969 0)"/>
     </g>
    </g>
   </g>
   <g id="FillBetweenPolyCollection_1">
    <defs>
     <path id="m40aacfb683" d="M 177.939109 -56.695735 
L 64.668391 -56.695735 
L 62.711609 -57.011667 
L 60.972831 -57.327599 
L 59.447819 -57.643531 
L 58.128554 -57.959463 
L 57.004789 -58.275395 
L 56.065623 -58.591327 
L 55.300957 -58.907259 
L 54.702688 -59.223191 
L 54.265508 -59.539123 
L 53.987251 -59.855055 
L 53.86875 -60.170987 
L 53.91323 -60.486919 
L 54.125306 -60.802851 
L 54.509712 -61.118783 
L 55.069877 -61.434715 
L 55.806526 -61.750647 
L 56.716432 -62.066579 
L 57.791451 -62.382511 
L 59.017937 -62.698443 
L 60.37659 -63.014375 
L 61.842725 -63.330307 
L 63.386959 -63.646239 
L 64.976216 -63.962171 
L 66.574969 -64.278103 
L 68.146622 -64.594035 
L 69.654898 -64.909967 
L 71.065171 -65.225899 
L 72.345651 -65.541831 
L 73.468386 -65.857763 
L 74.410053 -66.173695 
L 75.152554 -66.489627 
L 75.683438 -66.805559 
L 75.996164 -67.121491 
L 76.090261 -67.437423 
L 75.971384 -67.753355 
L 75.651289 -68.069287 
L 75.147713 -68.385219 
L 74.484142 -68.701151 
L 73.68942 -69.017083 
L 72.797189 -69.333015 
L 71.845092 -69.648947 
L 70.873764 -69.964879 
L 69.925575 -70.280811 
L 69.04319 -70.596743 
L 68.267975 -70.912675 
L 67.638358 -71.228607 
L 67.188228 -71.544539 
L 66.94549 -71.860471 
L 66.930888 -72.176403 
L 67.157185 -72.492335 
L 67.628768 -72.808267 
L 68.341725 -73.124199 
L 69.284378 -73.440131 
L 70.438237 -73.756063 
L 71.779299 -74.071995 
L 73.279586 -74.387927 
L 74.908795 -74.703859 
L 76.635946 -75.019791 
L 78.430896 -75.335723 
L 80.265616 -75.651655 
L 82.115177 -75.967587 
L 83.958382 -76.283519 
L 85.778054 -76.599451 
L 87.560993 -76.915383 
L 89.297667 -77.231315 
L 90.981706 -77.547247 
L 92.609267 -77.863179 
L 94.178374 -78.179111 
L 95.688279 -78.495043 
L 97.138922 -78.810975 
L 98.530516 -79.126907 
L 99.863277 -79.442839 
L 101.137296 -79.758771 
L 102.352529 -80.074703 
L 103.508887 -80.390635 
L 104.606367 -80.706567 
L 105.645213 -81.022499 
L 106.626049 -81.338431 
L 107.549983 -81.654363 
L 108.418643 -81.970295 
L 109.234164 -82.286227 
L 109.999117 -82.602159 
L 110.716391 -82.918091 
L 111.389066 -83.234023 
L 112.020262 -83.549955 
L 112.613018 -83.865887 
L 113.170186 -84.181819 
L 113.694368 -84.497751 
L 114.187884 -84.813683 
L 114.652781 -85.129615 
L 115.09087 -85.445547 
L 115.503778 -85.761479 
L 115.89301 -86.07741 
L 116.260006 -86.393342 
L 116.606188 -86.709274 
L 116.932983 -87.025206 
L 117.241829 -87.341138 
L 117.534162 -87.65707 
L 117.811378 -87.973002 
L 124.796122 -87.973002 
L 124.796122 -87.973002 
L 125.073338 -87.65707 
L 125.365671 -87.341138 
L 125.674517 -87.025206 
L 126.001312 -86.709274 
L 126.347494 -86.393342 
L 126.71449 -86.07741 
L 127.103722 -85.761479 
L 127.51663 -85.445547 
L 127.954719 -85.129615 
L 128.419616 -84.813683 
L 128.913132 -84.497751 
L 129.437314 -84.181819 
L 129.994482 -83.865887 
L 130.587238 -83.549955 
L 131.218434 -83.234023 
L 131.891109 -82.918091 
L 132.608383 -82.602159 
L 133.373336 -82.286227 
L 134.188857 -81.970295 
L 135.057517 -81.654363 
L 135.981451 -81.338431 
L 136.962287 -81.022499 
L 138.001133 -80.706567 
L 139.098613 -80.390635 
L 140.254971 -80.074703 
L 141.470204 -79.758771 
L 142.744223 -79.442839 
L 144.076984 -79.126907 
L 145.468578 -78.810975 
L 146.919221 -78.495043 
L 148.429126 -78.179111 
L 149.998233 -77.863179 
L 151.625794 -77.547247 
L 153.309833 -77.231315 
L 155.046507 -76.915383 
L 156.829446 -76.599451 
L 158.649118 -76.283519 
L 160.492323 -75.967587 
L 162.341884 -75.651655 
L 164.176604 -75.335723 
L 165.971554 -75.019791 
L 167.698705 -74.703859 
L 169.327914 -74.387927 
L 170.828201 -74.071995 
L 172.169263 -73.756063 
L 173.323122 -73.440131 
L 174.265775 -73.124199 
L 174.978732 -72.808267 
L 175.450315 -72.492335 
L 175.676612 -72.176403 
L 175.66201 -71.860471 
L 175.419272 -71.544539 
L 174.969142 -71.228607 
L 174.339525 -70.912675 
L 173.56431 -70.596743 
L 172.681925 -70.280811 
L 171.733736 -69.964879 
L 170.762408 -69.648947 
L 169.810311 -69.333015 
L 168.91808 -69.017083 
L 168.123358 -68.701151 
L 167.459787 -68.385219 
L 166.956211 -68.069287 
L 166.636116 -67.753355 
L 166.517239 -67.437423 
L 166.611336 -67.121491 
L 166.924062 -66.805559 
L 167.454946 -66.489627 
L 168.197447 -66.173695 
L 169.139114 -65.857763 
L 170.261849 -65.541831 
L 171.542329 -65.225899 
L 172.952602 -64.909967 
L 174.460878 -64.594035 
L 176.032531 -64.278103 
L 177.631284 -63.962171 
L 179.220541 -63.646239 
L 180.764775 -63.330307 
L 182.23091 -63.014375 
L 183.589563 -62.698443 
L 184.816049 -62.382511 
L 185.891068 -62.066579 
L 186.800974 -61.750647 
L 187.537623 -61.434715 
L 188.097788 -61.118783 
L 188.482194 -60.802851 
L 188.69427 -60.486919 
L 188.73875 -60.170987 
L 188.620249 -59.855055 
L 188.341992 -59.539123 
L 187.904812 -59.223191 
L 187.306543 -58.907259 
L 186.541877 -58.591327 
L 185.602711 -58.275395 
L 184.478946 -57.959463 
L 183.159681 -57.643531 
L 181.634669 -57.327599 
L 179.895891 -57.011667 
L 177.939109 -56.695735 
z
" style="stroke: #484848; stroke-width: 1.25"/>
    </defs>
    <g clip-path="url(#pac31586cac)">
     <use xlink:href="#m40aacfb683" x="0" y="396" style="fill: #cb3335; stroke: #484848; stroke-width: 1.25"/>
    </g>
   </g>
   <g id="FillBetweenPolyCollection_2">
    <defs>
     <path id="mb96f3dfecd" d="M 300.310001 -93.18588 
L 279.472499 -93.18588 
L 279.394541 -93.343846 
L 279.371914 -93.501812 
L 279.389709 -93.659778 
L 279.42844 -93.817744 
L 279.464244 -93.97571 
L 279.469247 -94.133676 
L 279.412115 -94.291642 
L 279.258778 -94.449608 
L 278.973335 -94.607574 
L 278.519115 -94.76554 
L 277.859908 -94.923506 
L 276.961329 -95.081472 
L 275.792302 -95.239438 
L 274.326626 -95.397404 
L 272.544574 -95.55537 
L 270.434461 -95.713336 
L 267.994115 -95.871302 
L 265.232149 -96.029268 
L 262.16896 -96.187234 
L 258.837334 -96.3452 
L 255.282586 -96.503166 
L 251.562151 -96.661132 
L 247.744563 -96.819098 
L 243.907824 -96.977064 
L 240.137146 -97.13503 
L 236.522164 -97.292996 
L 233.153687 -97.450962 
L 230.120155 -97.608928 
L 227.503963 -97.766894 
L 225.377857 -97.92486 
L 223.801598 -98.082826 
L 222.819108 -98.240792 
L 222.45625 -98.398758 
L 222.719407 -98.556724 
L 223.594927 -98.71469 
L 225.049486 -98.872656 
L 227.031342 -99.030622 
L 229.4724 -99.188588 
L 232.290974 -99.346554 
L 235.39507 -99.50452 
L 238.686025 -99.662486 
L 242.062294 -99.820452 
L 245.423201 -99.978418 
L 248.672493 -100.136384 
L 251.721545 -100.29435 
L 254.492121 -100.452316 
L 256.918605 -100.610282 
L 258.949665 -100.768248 
L 260.549361 -100.926214 
L 261.697677 -101.08418 
L 262.390543 -101.242146 
L 262.639361 -101.400112 
L 262.4701 -101.558078 
L 261.921987 -101.716044 
L 261.04586 -101.87401 
L 259.902211 -102.031976 
L 258.558976 -102.189942 
L 257.08912 -102.347908 
L 255.568081 -102.505874 
L 254.071137 -102.66384 
L 252.670785 -102.821806 
L 251.434219 -102.979772 
L 250.420994 -103.137738 
L 249.680993 -103.295704 
L 249.252773 -103.45367 
L 249.162371 -103.611636 
L 249.422633 -103.769602 
L 250.033099 -103.927568 
L 250.98044 -104.085534 
L 252.239425 -104.2435 
L 253.774367 -104.401466 
L 255.540944 -104.559432 
L 257.488315 -104.717398 
L 259.561398 -104.875364 
L 261.703209 -105.03333 
L 263.85712 -105.191296 
L 265.968974 -105.349262 
L 267.988934 -105.507228 
L 269.873034 -105.665194 
L 271.584377 -105.82316 
L 273.093978 -105.981126 
L 274.381242 -106.139092 
L 275.434107 -106.297058 
L 276.248892 -106.455024 
L 276.82987 -106.61299 
L 277.188624 -106.770956 
L 277.343222 -106.928922 
L 277.317255 -107.086888 
L 277.138765 -107.244854 
L 276.839105 -107.40282 
L 276.451756 -107.560786 
L 276.011133 -107.718752 
L 275.551407 -107.876718 
L 275.105378 -108.034684 
L 274.703424 -108.19265 
L 274.372568 -108.350616 
L 274.135684 -108.508582 
L 274.010879 -108.666548 
L 274.011078 -108.824514 
L 305.771422 -108.824514 
L 305.771422 -108.824514 
L 305.771621 -108.666548 
L 305.646816 -108.508582 
L 305.409932 -108.350616 
L 305.079076 -108.19265 
L 304.677122 -108.034684 
L 304.231093 -107.876718 
L 303.771367 -107.718752 
L 303.330744 -107.560786 
L 302.943395 -107.40282 
L 302.643735 -107.244854 
L 302.465245 -107.086888 
L 302.439278 -106.928922 
L 302.593876 -106.770956 
L 302.95263 -106.61299 
L 303.533608 -106.455024 
L 304.348393 -106.297058 
L 305.401258 -106.139092 
L 306.688522 -105.981126 
L 308.198123 -105.82316 
L 309.909466 -105.665194 
L 311.793566 -105.507228 
L 313.813526 -105.349262 
L 315.92538 -105.191296 
L 318.079291 -105.03333 
L 320.221102 -104.875364 
L 322.294185 -104.717398 
L 324.241556 -104.559432 
L 326.008133 -104.401466 
L 327.543075 -104.2435 
L 328.80206 -104.085534 
L 329.749401 -103.927568 
L 330.359867 -103.769602 
L 330.620129 -103.611636 
L 330.529727 -103.45367 
L 330.101507 -103.295704 
L 329.361506 -103.137738 
L 328.348281 -102.979772 
L 327.111715 -102.821806 
L 325.711363 -102.66384 
L 324.214419 -102.505874 
L 322.69338 -102.347908 
L 321.223524 -102.189942 
L 319.880289 -102.031976 
L 318.73664 -101.87401 
L 317.860513 -101.716044 
L 317.3124 -101.558078 
L 317.143139 -101.400112 
L 317.391957 -101.242146 
L 318.084823 -101.08418 
L 319.233139 -100.926214 
L 320.832835 -100.768248 
L 322.863895 -100.610282 
L 325.290379 -100.452316 
L 328.060955 -100.29435 
L 331.110007 -100.136384 
L 334.359299 -99.978418 
L 337.720206 -99.820452 
L 341.096475 -99.662486 
L 344.38743 -99.50452 
L 347.491526 -99.346554 
L 350.3101 -99.188588 
L 352.751158 -99.030622 
L 354.733014 -98.872656 
L 356.187573 -98.71469 
L 357.063093 -98.556724 
L 357.32625 -98.398758 
L 356.963392 -98.240792 
L 355.980902 -98.082826 
L 354.404643 -97.92486 
L 352.278537 -97.766894 
L 349.662345 -97.608928 
L 346.628813 -97.450962 
L 343.260336 -97.292996 
L 339.645354 -97.13503 
L 335.874676 -96.977064 
L 332.037937 -96.819098 
L 328.220349 -96.661132 
L 324.499914 -96.503166 
L 320.945166 -96.3452 
L 317.61354 -96.187234 
L 314.550351 -96.029268 
L 311.788385 -95.871302 
L 309.348039 -95.713336 
L 307.237926 -95.55537 
L 305.455874 -95.397404 
L 303.990198 -95.239438 
L 302.821171 -95.081472 
L 301.922592 -94.923506 
L 301.263385 -94.76554 
L 300.809165 -94.607574 
L 300.523722 -94.449608 
L 300.370385 -94.291642 
L 300.313253 -94.133676 
L 300.318256 -93.97571 
L 300.35406 -93.817744 
L 300.392791 -93.659778 
L 300.410586 -93.501812 
L 300.387959 -93.343846 
L 300.310001 -93.18588 
z
" style="stroke: #484848; stroke-width: 1.25"/>
    </defs>
    <g clip-path="url(#pac31586cac)">
     <use xlink:href="#mb96f3dfecd" x="0" y="396" style="fill: #59a257; stroke: #484848; stroke-width: 1.25"/>
    </g>
   </g>
   <g id="FillBetweenPolyCollection_3">
    <defs>
     <path id="m04869b0adb" d="M 478.354332 -98.398758 
L 438.603168 -98.398758 
L 436.342794 -100.18904 
L 433.95612 -101.979321 
L 431.45448 -103.769602 
L 428.852013 -105.559884 
L 426.165654 -107.350165 
L 423.41504 -109.140446 
L 420.622332 -110.930727 
L 417.81195 -112.721009 
L 415.010215 -114.51129 
L 412.244894 -116.301571 
L 409.544673 -118.091853 
L 406.938548 -119.882134 
L 404.455165 -121.672415 
L 402.122113 -123.462697 
L 399.965211 -125.252978 
L 398.00779 -127.043259 
L 396.270012 -128.83354 
L 394.768256 -130.623822 
L 393.51457 -132.414103 
L 392.51625 -134.204384 
L 391.775539 -135.994666 
L 391.289479 -137.784947 
L 391.049929 -139.575228 
L 391.04375 -141.36551 
L 391.253172 -143.155791 
L 391.65633 -144.946072 
L 392.227953 -146.736354 
L 392.940203 -148.526635 
L 393.763613 -150.316916 
L 394.668108 -152.107197 
L 395.62405 -153.897479 
L 396.603276 -155.68776 
L 397.580073 -157.478041 
L 398.53203 -159.268323 
L 399.440755 -161.058604 
L 400.292375 -162.848885 
L 401.077829 -164.639167 
L 401.792911 -166.429448 
L 402.438077 -168.219729 
L 403.018015 -170.01001 
L 403.541007 -171.800292 
L 404.018134 -173.590573 
L 404.462351 -175.380854 
L 404.88751 -177.171136 
L 405.307381 -178.961417 
L 405.734734 -180.751698 
L 406.180544 -182.54198 
L 406.653348 -184.332261 
L 407.158816 -186.122542 
L 407.699537 -187.912824 
L 408.275023 -189.703105 
L 408.881947 -191.493386 
L 409.514554 -193.283667 
L 410.165243 -195.073949 
L 410.82525 -196.86423 
L 411.485394 -198.654511 
L 412.136831 -200.444793 
L 412.771762 -202.235074 
L 413.384054 -204.025355 
L 413.969733 -205.815637 
L 414.527323 -207.605918 
L 415.058017 -209.396199 
L 415.565665 -211.18648 
L 416.056603 -212.976762 
L 416.539313 -214.767043 
L 417.023968 -216.557324 
L 417.521866 -218.347606 
L 418.044803 -220.137887 
L 418.604423 -221.928168 
L 419.21157 -223.71845 
L 419.875694 -225.508731 
L 420.604333 -227.299012 
L 421.402699 -229.089293 
L 422.273393 -230.879575 
L 423.216257 -232.669856 
L 424.228374 -234.460137 
L 425.304208 -236.250419 
L 426.435876 -238.0407 
L 427.613535 -239.830981 
L 428.825862 -241.621263 
L 430.060593 -243.411544 
L 431.305098 -245.201825 
L 432.546955 -246.992107 
L 433.774493 -248.782388 
L 434.977274 -250.572669 
L 436.146491 -252.36295 
L 437.27526 -254.153232 
L 438.358795 -255.943513 
L 439.39446 -257.733794 
L 440.381699 -259.524076 
L 441.321854 -261.314357 
L 442.217882 -263.104638 
L 443.074001 -264.89492 
L 443.895281 -266.685201 
L 444.687213 -268.475482 
L 445.455284 -270.265763 
L 446.204581 -272.056045 
L 446.939451 -273.846326 
L 447.663236 -275.636607 
L 469.294264 -275.636607 
L 469.294264 -275.636607 
L 470.018049 -273.846326 
L 470.752919 -272.056045 
L 471.502216 -270.265763 
L 472.270287 -268.475482 
L 473.062219 -266.685201 
L 473.883499 -264.89492 
L 474.739618 -263.104638 
L 475.635646 -261.314357 
L 476.575801 -259.524076 
L 477.56304 -257.733794 
L 478.598705 -255.943513 
L 479.68224 -254.153232 
L 480.811009 -252.36295 
L 481.980226 -250.572669 
L 483.183007 -248.782388 
L 484.410545 -246.992107 
L 485.652402 -245.201825 
L 486.896907 -243.411544 
L 488.131638 -241.621263 
L 489.343965 -239.830981 
L 490.521624 -238.0407 
L 491.653292 -236.250419 
L 492.729126 -234.460137 
L 493.741243 -232.669856 
L 494.684107 -230.879575 
L 495.554801 -229.089293 
L 496.353167 -227.299012 
L 497.081806 -225.508731 
L 497.74593 -223.71845 
L 498.353077 -221.928168 
L 498.912697 -220.137887 
L 499.435634 -218.347606 
L 499.933532 -216.557324 
L 500.418187 -214.767043 
L 500.900897 -212.976762 
L 501.391835 -211.18648 
L 501.899483 -209.396199 
L 502.430177 -207.605918 
L 502.987767 -205.815637 
L 503.573446 -204.025355 
L 504.185738 -202.235074 
L 504.820669 -200.444793 
L 505.472106 -198.654511 
L 506.13225 -196.86423 
L 506.792257 -195.073949 
L 507.442946 -193.283667 
L 508.075553 -191.493386 
L 508.682477 -189.703105 
L 509.257963 -187.912824 
L 509.798684 -186.122542 
L 510.304152 -184.332261 
L 510.776956 -182.54198 
L 511.222766 -180.751698 
L 511.650119 -178.961417 
L 512.06999 -177.171136 
L 512.495149 -175.380854 
L 512.939366 -173.590573 
L 513.416493 -171.800292 
L 513.939485 -170.01001 
L 514.519423 -168.219729 
L 515.164589 -166.429448 
L 515.879671 -164.639167 
L 516.665125 -162.848885 
L 517.516745 -161.058604 
L 518.42547 -159.268323 
L 519.377427 -157.478041 
L 520.354224 -155.68776 
L 521.33345 -153.897479 
L 522.289392 -152.107197 
L 523.193887 -150.316916 
L 524.017297 -148.526635 
L 524.729547 -146.736354 
L 525.30117 -144.946072 
L 525.704328 -143.155791 
L 525.91375 -141.36551 
L 525.907571 -139.575228 
L 525.668021 -137.784947 
L 525.181961 -135.994666 
L 524.44125 -134.204384 
L 523.44293 -132.414103 
L 522.189244 -130.623822 
L 520.687488 -128.83354 
L 518.94971 -127.043259 
L 516.992289 -125.252978 
L 514.835387 -123.462697 
L 512.502335 -121.672415 
L 510.018952 -119.882134 
L 507.412827 -118.091853 
L 504.712606 -116.301571 
L 501.947285 -114.51129 
L 499.14555 -112.721009 
L 496.335168 -110.930727 
L 493.54246 -109.140446 
L 490.791846 -107.350165 
L 488.105487 -105.559884 
L 485.50302 -103.769602 
L 483.00138 -101.979321 
L 480.614706 -100.18904 
L 478.354332 -98.398758 
z
" style="stroke: #484848; stroke-width: 1.25"/>
    </defs>
    <g clip-path="url(#pac31586cac)">
     <use xlink:href="#m04869b0adb" x="0" y="396" style="fill: #e2c137; stroke: #484848; stroke-width: 1.25"/>
    </g>
   </g>
   <g id="FillBetweenPolyCollection_4">
    <defs>
     <path id="mbc4633f8fe" d="M 629.49918 -87.973002 
L 624.63332 -87.973002 
L 624.117192 -90.71108 
L 623.507102 -93.449157 
L 622.786478 -96.187234 
L 621.936857 -98.925312 
L 620.938692 -101.663389 
L 619.772726 -104.401466 
L 618.422033 -107.139543 
L 616.874667 -109.877621 
L 615.126724 -112.615698 
L 613.185439 -115.353775 
L 611.071779 -118.091853 
L 608.821912 -120.82993 
L 606.486969 -123.568007 
L 604.130743 -126.306085 
L 601.825235 -129.044162 
L 599.644402 -131.782239 
L 597.656844 -134.520316 
L 595.918419 -137.258394 
L 594.46594 -139.996471 
L 593.3129 -142.734548 
L 592.44793 -145.472626 
L 591.83612 -148.210703 
L 591.422912 -150.94878 
L 591.139791 -153.686857 
L 590.91081 -156.424935 
L 590.658963 -159.163012 
L 590.311658 -161.901089 
L 589.804882 -164.639167 
L 589.086058 -167.377244 
L 588.115883 -170.115321 
L 586.869564 -172.853398 
L 585.337841 -175.591476 
L 583.527967 -178.329553 
L 581.464513 -181.06763 
L 579.189645 -183.805708 
L 576.762321 -186.543785 
L 574.255913 -189.281862 
L 571.753938 -192.019939 
L 569.34394 -194.758017 
L 567.109984 -197.496094 
L 565.124648 -200.234171 
L 563.441664 -202.972249 
L 562.090468 -205.710326 
L 561.073719 -208.448403 
L 560.368475 -211.18648 
L 559.931076 -213.924558 
L 559.705112 -216.662635 
L 559.63125 -219.400712 
L 559.657249 -222.13879 
L 559.74638 -224.876867 
L 559.882731 -227.614944 
L 560.072411 -230.353021 
L 560.340491 -233.091099 
L 560.724351 -235.829176 
L 561.264807 -238.567253 
L 561.996849 -241.305331 
L 562.941827 -244.043408 
L 564.102557 -246.781485 
L 565.462173 -249.519563 
L 566.986694 -252.25764 
L 568.630552 -254.995717 
L 570.343757 -257.733794 
L 572.079184 -260.471872 
L 573.798597 -263.209949 
L 575.476446 -265.948026 
L 577.101053 -268.686104 
L 578.673387 -271.424181 
L 580.204065 -274.162258 
L 581.70949 -276.900335 
L 583.208017 -279.638413 
L 584.716872 -282.37649 
L 586.250215 -285.114567 
L 587.818406 -287.852645 
L 589.428233 -290.590722 
L 591.083696 -293.328799 
L 592.786893 -296.066876 
L 594.53867 -298.804954 
L 596.338821 -301.543031 
L 598.185854 -304.281108 
L 600.076429 -307.019186 
L 602.004683 -309.757263 
L 603.961642 -312.49534 
L 605.934873 -315.233417 
L 607.908447 -317.971495 
L 609.863258 -320.709572 
L 611.777659 -323.447649 
L 613.628394 -326.185727 
L 615.3918 -328.923804 
L 617.045205 -331.661881 
L 618.568449 -334.399958 
L 619.945385 -337.138036 
L 621.165179 -339.876113 
L 622.22322 -342.61419 
L 623.121467 -345.352268 
L 623.868147 -348.090345 
L 624.476806 -350.828422 
L 624.964842 -353.566499 
L 625.351732 -356.304577 
L 625.657217 -359.042654 
L 628.475283 -359.042654 
L 628.475283 -359.042654 
L 628.780768 -356.304577 
L 629.167658 -353.566499 
L 629.655694 -350.828422 
L 630.264353 -348.090345 
L 631.011033 -345.352268 
L 631.90928 -342.61419 
L 632.967321 -339.876113 
L 634.187115 -337.138036 
L 635.564051 -334.399958 
L 637.087295 -331.661881 
L 638.7407 -328.923804 
L 640.504106 -326.185727 
L 642.354841 -323.447649 
L 644.269242 -320.709572 
L 646.224053 -317.971495 
L 648.197627 -315.233417 
L 650.170858 -312.49534 
L 652.127817 -309.757263 
L 654.056071 -307.019186 
L 655.946646 -304.281108 
L 657.793679 -301.543031 
L 659.59383 -298.804954 
L 661.345607 -296.066876 
L 663.048804 -293.328799 
L 664.704267 -290.590722 
L 666.314094 -287.852645 
L 667.882285 -285.114567 
L 669.415628 -282.37649 
L 670.924483 -279.638413 
L 672.42301 -276.900335 
L 673.928435 -274.162258 
L 675.459113 -271.424181 
L 677.031447 -268.686104 
L 678.656054 -265.948026 
L 680.333903 -263.209949 
L 682.053316 -260.471872 
L 683.788743 -257.733794 
L 685.501948 -254.995717 
L 687.145806 -252.25764 
L 688.670327 -249.519563 
L 690.029943 -246.781485 
L 691.190673 -244.043408 
L 692.135651 -241.305331 
L 692.867693 -238.567253 
L 693.408149 -235.829176 
L 693.792009 -233.091099 
L 694.060089 -230.353021 
L 694.249769 -227.614944 
L 694.38612 -224.876867 
L 694.475251 -222.13879 
L 694.50125 -219.400712 
L 694.427388 -216.662635 
L 694.201424 -213.924558 
L 693.764025 -211.18648 
L 693.058781 -208.448403 
L 692.042032 -205.710326 
L 690.690836 -202.972249 
L 689.007852 -200.234171 
L 687.022516 -197.496094 
L 684.78856 -194.758017 
L 682.378562 -192.019939 
L 679.876587 -189.281862 
L 677.370179 -186.543785 
L 674.942855 -183.805708 
L 672.667987 -181.06763 
L 670.604533 -178.329553 
L 668.794659 -175.591476 
L 667.262936 -172.853398 
L 666.016617 -170.115321 
L 665.046442 -167.377244 
L 664.327618 -164.639167 
L 663.820842 -161.901089 
L 663.473537 -159.163012 
L 663.22169 -156.424935 
L 662.992709 -153.686857 
L 662.709588 -150.94878 
L 662.29638 -148.210703 
L 661.68457 -145.472626 
L 660.8196 -142.734548 
L 659.66656 -139.996471 
L 658.214081 -137.258394 
L 656.475656 -134.520316 
L 654.488098 -131.782239 
L 652.307265 -129.044162 
L 650.001757 -126.306085 
L 647.645531 -123.568007 
L 645.310588 -120.82993 
L 643.060721 -118.091853 
L 640.947061 -115.353775 
L 639.005776 -112.615698 
L 637.257833 -109.877621 
L 635.710467 -107.139543 
L 634.359774 -104.401466 
L 633.193808 -101.663389 
L 632.195643 -98.925312 
L 631.346022 -96.187234 
L 630.625398 -93.449157 
L 630.015308 -90.71108 
L 629.49918 -87.973002 
z
" style="stroke: #484848; stroke-width: 1.25"/>
    </defs>
    <g clip-path="url(#pac31586cac)">
     <use xlink:href="#mbc4633f8fe" x="0" y="396" style="fill: #477ca8; stroke: #484848; stroke-width: 1.25"/>
    </g>
   </g>
   <g id="line2d_17">
    <path d="M 56.261479 334.091387 
L 186.346021 334.091387 
" clip-path="url(#pac31586cac)" style="fill: none; stroke-dasharray: 1.5625,0.9375; stroke-dashoffset: 0; stroke: #484848; stroke-width: 1.25"/>
   </g>
   <g id="line2d_18">
    <path d="M 56.261479 334.091387 
L 186.346021 334.091387 
" clip-path="url(#pac31586cac)" style="fill: none; stroke-dasharray: 3.125,1.25; stroke-dashoffset: 0; stroke: #484848; stroke-width: 1.25"/>
   </g>
   <g id="line2d_19">
    <path d="M 67.044037 323.665631 
L 175.563463 323.665631 
" clip-path="url(#pac31586cac)" style="fill: none; stroke-dasharray: 1.5625,0.9375; stroke-dashoffset: 0; stroke: #484848; stroke-width: 1.25"/>
   </g>
   <g id="line2d_20">
    <path d="M 222.45625 297.601242 
L 357.32625 297.601242 
" clip-path="url(#pac31586cac)" style="fill: none; stroke-dasharray: 1.5625,0.9375; stroke-dashoffset: 0; stroke: #484848; stroke-width: 1.25"/>
   </g>
   <g id="line2d_21">
    <path d="M 222.45625 297.601242 
L 357.32625 297.601242 
" clip-path="url(#pac31586cac)" style="fill: none; stroke-dasharray: 3.125,1.25; stroke-dashoffset: 0; stroke: #484848; stroke-width: 1.25"/>
   </g>
   <g id="line2d_22">
    <path d="M 249.162371 292.388364 
L 330.620129 292.388364 
" clip-path="url(#pac31586cac)" style="fill: none; stroke-dasharray: 1.5625,0.9375; stroke-dashoffset: 0; stroke: #484848; stroke-width: 1.25"/>
   </g>
   <g id="line2d_23">
    <path d="M 391.368106 258.504657 
L 525.589394 258.504657 
" clip-path="url(#pac31586cac)" style="fill: none; stroke-dasharray: 1.5625,0.9375; stroke-dashoffset: 0; stroke: #484848; stroke-width: 1.25"/>
   </g>
   <g id="line2d_24">
    <path d="M 403.41795 224.620951 
L 513.53955 224.620951 
" clip-path="url(#pac31586cac)" style="fill: none; stroke-dasharray: 3.125,1.25; stroke-dashoffset: 0; stroke: #484848; stroke-width: 1.25"/>
   </g>
   <g id="line2d_25">
    <path d="M 414.605366 188.130805 
L 502.352134 188.130805 
" clip-path="url(#pac31586cac)" style="fill: none; stroke-dasharray: 1.5625,0.9375; stroke-dashoffset: 0; stroke: #484848; stroke-width: 1.25"/>
   </g>
   <g id="line2d_26">
    <path d="M 576.32852 208.982317 
L 677.80398 208.982317 
" clip-path="url(#pac31586cac)" style="fill: none; stroke-dasharray: 1.5625,0.9375; stroke-dashoffset: 0; stroke: #484848; stroke-width: 1.25"/>
   </g>
   <g id="line2d_27">
    <path d="M 559.701815 172.492172 
L 694.430685 172.492172 
" clip-path="url(#pac31586cac)" style="fill: none; stroke-dasharray: 3.125,1.25; stroke-dashoffset: 0; stroke: #484848; stroke-width: 1.25"/>
   </g>
   <g id="line2d_28">
    <path d="M 571.778821 136.002026 
L 682.353679 136.002026 
" clip-path="url(#pac31586cac)" style="fill: none; stroke-dasharray: 1.5625,0.9375; stroke-dashoffset: 0; stroke: #484848; stroke-width: 1.25"/>
   </g>
   <g id="patch_3">
    <path d="M 37.01 354.421611 
L 37.01 21.84 
" style="fill: none; stroke: #000000; stroke-width: 0.8; stroke-linejoin: miter; stroke-linecap: square"/>
   </g>
   <g id="patch_4">
    <path d="M 37.01 354.421611 
L 711.36 354.421611 
" style="fill: none; stroke: #000000; stroke-width: 0.8; stroke-linejoin: miter; stroke-linecap: square"/>
   </g>
   <g id="text_12">
    <!-- Distribuzione età per gruppo (senza outlier) -->
    <g transform="translate(268.963 15.84) scale(0.096 -0.096)">
     <defs>
      <path id="DejaVuSans-44" d="M 1259 4147 
L 1259 519 
L 2022 519 
Q 2988 519 3436 956 
Q 3884 1394 3884 2338 
Q 3884 3275 3436 3711 
Q 2988 4147 2022 4147 
L 1259 4147 
z
M 628 4666 
L 1925 4666 
Q 3281 4666 3915 4102 
Q 4550 3538 4550 2338 
Q 4550 1131 3912 565 
Q 3275 0 1925 0 
L 628 0 
L 628 4666 
z
" transform="scale(0.015625)"/>
      <path id="DejaVuSans-62" d="M 3116 1747 
Q 3116 2381 2855 2742 
Q 2594 3103 2138 3103 
Q 1681 3103 1420 2742 
Q 1159 2381 1159 1747 
Q 1159 1113 1420 752 
Q 1681 391 2138 391 
Q 2594 391 2855 752 
Q 3116 1113 3116 1747 
z
M 1159 2969 
Q 1341 3281 1617 3432 
Q 1894 3584 2278 3584 
Q 2916 3584 3314 3078 
Q 3713 2572 3713 1747 
Q 3713 922 3314 415 
Q 2916 -91 2278 -91 
Q 1894 -91 1617 61 
Q 1341 213 1159 525 
L 1159 0 
L 581 0 
L 581 4863 
L 1159 4863 
L 1159 2969 
z
" transform="scale(0.015625)"/>
      <path id="DejaVuSans-70" d="M 1159 525 
L 1159 -1331 
L 581 -1331 
L 581 3500 
L 1159 3500 
L 1159 2969 
Q 1341 3281 1617 3432 
Q 1894 3584 2278 3584 
Q 2916 3584 3314 3078 
Q 3713 2572 3713 1747 
Q 3713 922 3314 415 
Q 2916 -91 2278 -91 
Q 1894 -91 1617 61 
Q 1341 213 1159 525 
z
M 3116 1747 
Q 3116 2381 2855 2742 
Q 2594 3103 2138 3103 
Q 1681 3103 1420 2742 
Q 1159 2381 1159 1747 
Q 1159 1113 1420 752 
Q 1681 391 2138 391 
Q 2594 391 2855 752 
Q 3116 1113 3116 1747 
z
" transform="scale(0.015625)"/>
      <path id="DejaVuSans-6c" d="M 603 4863 
L 1178 4863 
L 1178 0 
L 603 0 
L 603 4863 
z
" transform="scale(0.015625)"/>
     </defs>
     <use xlink:href="#DejaVuSans-44"/>
     <use xlink:href="#DejaVuSans-69" transform="translate(77.001953 0)"/>
     <use xlink:href="#DejaVuSans-73" transform="translate(104.785156 0)"/>
     <use xlink:href="#DejaVuSans-74" transform="translate(156.884766 0)"/>
     <use xlink:href="#DejaVuSans-72" transform="translate(196.09375 0)"/>
     <use xlink:href="#DejaVuSans-69" transform="translate(237.207031 0)"/>
     <use xlink:href="#DejaVuSans-62" transform="translate(264.990234 0)"/>
     <use xlink:href="#DejaVuSans-75" transform="translate(328.466797 0)"/>
     <use xlink:href="#DejaVuSans-7a" transform="translate(391.845703 0)"/>
     <use xlink:href="#DejaVuSans-69" transform="translate(444.335938 0)"/>
     <use xlink:href="#DejaVuSans-6f" transform="translate(472.119141 0)"/>
     <use xlink:href="#DejaVuSans-6e" transform="translate(533.300781 0)"/>
     <use xlink:href="#DejaVuSans-65" transform="translate(596.679688 0)"/>
     <use xlink:href="#DejaVuSans-20" transform="translate(658.203125 0)"/>
     <use xlink:href="#DejaVuSans-65" transform="translate(689.990234 0)"/>
     <use xlink:href="#DejaVuSans-74" transform="translate(751.513672 0)"/>
     <use xlink:href="#DejaVuSans-e0" transform="translate(790.722656 0)"/>
     <use xlink:href="#DejaVuSans-20" transform="translate(852.001953 0)"/>
     <use xlink:href="#DejaVuSans-70" transform="translate(883.789062 0)"/>
     <use xlink:href="#DejaVuSans-65" transform="translate(947.265625 0)"/>
     <use xlink:href="#DejaVuSans-72" transform="translate(1008.789062 0)"/>
     <use xlink:href="#DejaVuSans-20" transform="translate(1049.902344 0)"/>
     <use xlink:href="#DejaVuSans-67" transform="translate(1081.689453 0)"/>
     <use xlink:href="#DejaVuSans-72" transform="translate(1145.166016 0)"/>
     <use xlink:href="#DejaVuSans-75" transform="translate(1186.279297 0)"/>
     <use xlink:href="#DejaVuSans-70" transform="translate(1249.658203 0)"/>
     <use xlink:href="#DejaVuSans-70" transform="translate(1313.134766 0)"/>
     <use xlink:href="#DejaVuSans-6f" transform="translate(1376.611328 0)"/>
     <use xlink:href="#DejaVuSans-20" transform="translate(1437.792969 0)"/>
     <use xlink:href="#DejaVuSans-28" transform="translate(1469.580078 0)"/>
     <use xlink:href="#DejaVuSans-73" transform="translate(1508.59375 0)"/>
     <use xlink:href="#DejaVuSans-65" transform="translate(1560.693359 0)"/>
     <use xlink:href="#DejaVuSans-6e" transform="translate(1622.216797 0)"/>
     <use xlink:href="#DejaVuSans-7a" transform="translate(1685.595703 0)"/>
     <use xlink:href="#DejaVuSans-61" transform="translate(1738.085938 0)"/>
     <use xlink:href="#DejaVuSans-20" transform="translate(1799.365234 0)"/>
     <use xlink:href="#DejaVuSans-6f" transform="translate(1831.152344 0)"/>
     <use xlink:href="#DejaVuSans-75" transform="translate(1892.333984 0)"/>
     <use xlink:href="#DejaVuSans-74" transform="translate(1955.712891 0)"/>
     <use xlink:href="#DejaVuSans-6c" transform="translate(1994.921875 0)"/>
     <use xlink:href="#DejaVuSans-69" transform="translate(2022.705078 0)"/>
     <use xlink:href="#DejaVuSans-65" transform="translate(2050.488281 0)"/>
     <use xlink:href="#DejaVuSans-72" transform="translate(2112.011719 0)"/>
     <use xlink:href="#DejaVuSans-29" transform="translate(2153.125 0)"/>
    </g>
   </g>
  </g>
 </g>
 <defs>
  <clipPath id="pac31586cac">
   <rect x="37.01" y="21.84" width="674.35" height="332.581611"/>
  </clipPath>
 </defs>
</svg>
