<?xml version="1.0" encoding="utf-8" standalone="no"?>
<!DOCTYPE svg PUBLIC "-//W3C//DTD SVG 1.1//EN"
  "http://www.w3.org/Graphics/SVG/1.1/DTD/svg11.dtd">
<svg xmlns:xlink="http://www.w3.org/1999/xlink" width="720pt" height="396pt" viewBox="0 0 720 396" xmlns="http://www.w3.org/2000/svg" version="1.1">
 <metadata>
  <rdf:RDF xmlns:dc="http://purl.org/dc/elements/1.1/" xmlns:cc="http://creativecommons.org/ns#" xmlns:rdf="http://www.w3.org/1999/02/22-rdf-syntax-ns#">
   <cc:Work>
    <dc:type rdf:resource="http://purl.org/dc/dcmitype/StillImage"/>
    <dc:date>2025-11-07T20:00:14.998341</dc:date>
    <dc:format>image/svg+xml</dc:format>
    <dc:creator>
     <cc:Agent>
      <dc:title>Matplotlib v3.10.7, https://matplotlib.org/</dc:title>
     </cc:Agent>
    </dc:creator>
   </cc:Work>
  </rdf:RDF>
 </metadata>
 <defs>
  <style type="text/css">*{stroke-linejoin: round; stroke-linecap: butt}</style>
 </defs>
 <g id="figure_1">
  <g id="patch_1">
   <path d="M 0 396 
L 720 396 
L 720 0 
L 0 0 
z
" style="fill: #ffffff"/>
  </g>
  <g id="axes_1">
   <g id="patch_2">
    <path d="M 37.01 346.769243 
L 711.36 346.769243 
L 711.36 21.84 
L 37.01 21.84 
z
" style="fill: #ffffff"/>
   </g>
   <g id="matplotlib.axis_1">
    <g id="xtick_1">
     <g id="line2d_1">
      <defs>
       <path id="m4e580e61b7" d="M 0 0 
L 0 3.5 
" style="stroke: #000000; stroke-width: 0.8"/>
      </defs>
      <g>
       <use xlink:href="#m4e580e61b7" x="121.30375" y="346.769243" style="stroke: #000000; stroke-width: 0.8"/>
      </g>
     </g>
     <g id="text_1">
      <!-- Students - secondary -->
      <g transform="translate(37.217551 374.531367) rotate(-10) scale(0.08 -0.08)">
       <defs>
        <path id="DejaVuSans-53" d="M 3425 4513 
L 3425 3897 
Q 3066 4069 2747 4153 
Q 2428 4238 2131 4238 
Q 1616 4238 1336 4038 
Q 1056 3838 1056 3469 
Q 1056 3159 1242 3001 
Q 1428 2844 1947 2747 
L 2328 2669 
Q 3034 2534 3370 2195 
Q 3706 1856 3706 1288 
Q 3706 609 3251 259 
Q 2797 -91 1919 -91 
Q 1588 -91 1214 -16 
Q 841 59 441 206 
L 441 856 
Q 825 641 1194 531 
Q 1563 422 1919 422 
Q 2459 422 2753 634 
Q 3047 847 3047 1241 
Q 3047 1584 2836 1778 
Q 2625 1972 2144 2069 
L 1759 2144 
Q 1053 2284 737 2584 
Q 422 2884 422 3419 
Q 422 4038 858 4394 
Q 1294 4750 2059 4750 
Q 2388 4750 2728 4690 
Q 3069 4631 3425 4513 
z
" transform="scale(0.015625)"/>
        <path id="DejaVuSans-74" d="M 1172 4494 
L 1172 3500 
L 2356 3500 
L 2356 3053 
L 1172 3053 
L 1172 1153 
Q 1172 725 1289 603 
Q 1406 481 1766 481 
L 2356 481 
L 2356 0 
L 1766 0 
Q 1100 0 847 248 
Q 594 497 594 1153 
L 594 3053 
L 172 3053 
L 172 3500 
L 594 3500 
L 594 4494 
L 1172 4494 
z
" transform="scale(0.015625)"/>
        <path id="DejaVuSans-75" d="M 544 1381 
L 544 3500 
L 1119 3500 
L 1119 1403 
Q 1119 906 1312 657 
Q 1506 409 1894 409 
Q 2359 409 2629 706 
Q 2900 1003 2900 1516 
L 2900 3500 
L 3475 3500 
L 3475 0 
L 2900 0 
L 2900 538 
Q 2691 219 2414 64 
Q 2138 -91 1772 -91 
Q 1169 -91 856 284 
Q 544 659 544 1381 
z
M 1991 3584 
L 1991 3584 
z
" transform="scale(0.015625)"/>
        <path id="DejaVuSans-64" d="M 2906 2969 
L 2906 4863 
L 3481 4863 
L 3481 0 
L 2906 0 
L 2906 525 
Q 2725 213 2448 61 
Q 2172 -91 1784 -91 
Q 1150 -91 751 415 
Q 353 922 353 1747 
Q 353 2572 751 3078 
Q 1150 3584 1784 3584 
Q 2172 3584 2448 3432 
Q 2725 3281 2906 2969 
z
M 947 1747 
Q 947 1113 1208 752 
Q 1469 391 1925 391 
Q 2381 391 2643 752 
Q 2906 1113 2906 1747 
Q 2906 2381 2643 2742 
Q 2381 3103 1925 3103 
Q 1469 3103 1208 2742 
Q 947 2381 947 1747 
z
" transform="scale(0.015625)"/>
        <path id="DejaVuSans-65" d="M 3597 1894 
L 3597 1613 
L 953 1613 
Q 991 1019 1311 708 
Q 1631 397 2203 397 
Q 2534 397 2845 478 
Q 3156 559 3463 722 
L 3463 178 
Q 3153 47 2828 -22 
Q 2503 -91 2169 -91 
Q 1331 -91 842 396 
Q 353 884 353 1716 
Q 353 2575 817 3079 
Q 1281 3584 2069 3584 
Q 2775 3584 3186 3129 
Q 3597 2675 3597 1894 
z
M 3022 2063 
Q 3016 2534 2758 2815 
Q 2500 3097 2075 3097 
Q 1594 3097 1305 2825 
Q 1016 2553 972 2059 
L 3022 2063 
z
" transform="scale(0.015625)"/>
        <path id="DejaVuSans-6e" d="M 3513 2113 
L 3513 0 
L 2938 0 
L 2938 2094 
Q 2938 2591 2744 2837 
Q 2550 3084 2163 3084 
Q 1697 3084 1428 2787 
Q 1159 2491 1159 1978 
L 1159 0 
L 581 0 
L 581 3500 
L 1159 3500 
L 1159 2956 
Q 1366 3272 1645 3428 
Q 1925 3584 2291 3584 
Q 2894 3584 3203 3211 
Q 3513 2838 3513 2113 
z
" transform="scale(0.015625)"/>
        <path id="DejaVuSans-73" d="M 2834 3397 
L 2834 2853 
Q 2591 2978 2328 3040 
Q 2066 3103 1784 3103 
Q 1356 3103 1142 2972 
Q 928 2841 928 2578 
Q 928 2378 1081 2264 
Q 1234 2150 1697 2047 
L 1894 2003 
Q 2506 1872 2764 1633 
Q 3022 1394 3022 966 
Q 3022 478 2636 193 
Q 2250 -91 1575 -91 
Q 1294 -91 989 -36 
Q 684 19 347 128 
L 347 722 
Q 666 556 975 473 
Q 1284 391 1588 391 
Q 1994 391 2212 530 
Q 2431 669 2431 922 
Q 2431 1156 2273 1281 
Q 2116 1406 1581 1522 
L 1381 1569 
Q 847 1681 609 1914 
Q 372 2147 372 2553 
Q 372 3047 722 3315 
Q 1072 3584 1716 3584 
Q 2034 3584 2315 3537 
Q 2597 3491 2834 3397 
z
" transform="scale(0.015625)"/>
        <path id="DejaVuSans-20" transform="scale(0.015625)"/>
        <path id="DejaVuSans-2d" d="M 313 2009 
L 1997 2009 
L 1997 1497 
L 313 1497 
L 313 2009 
z
" transform="scale(0.015625)"/>
        <path id="DejaVuSans-63" d="M 3122 3366 
L 3122 2828 
Q 2878 2963 2633 3030 
Q 2388 3097 2138 3097 
Q 1578 3097 1268 2742 
Q 959 2388 959 1747 
Q 959 1106 1268 751 
Q 1578 397 2138 397 
Q 2388 397 2633 464 
Q 2878 531 3122 666 
L 3122 134 
Q 2881 22 2623 -34 
Q 2366 -91 2075 -91 
Q 1284 -91 818 406 
Q 353 903 353 1747 
Q 353 2603 823 3093 
Q 1294 3584 2113 3584 
Q 2378 3584 2631 3529 
Q 2884 3475 3122 3366 
z
" transform="scale(0.015625)"/>
        <path id="DejaVuSans-6f" d="M 1959 3097 
Q 1497 3097 1228 2736 
Q 959 2375 959 1747 
Q 959 1119 1226 758 
Q 1494 397 1959 397 
Q 2419 397 2687 759 
Q 2956 1122 2956 1747 
Q 2956 2369 2687 2733 
Q 2419 3097 1959 3097 
z
M 1959 3584 
Q 2709 3584 3137 3096 
Q 3566 2609 3566 1747 
Q 3566 888 3137 398 
Q 2709 -91 1959 -91 
Q 1206 -91 779 398 
Q 353 888 353 1747 
Q 353 2609 779 3096 
Q 1206 3584 1959 3584 
z
" transform="scale(0.015625)"/>
        <path id="DejaVuSans-61" d="M 2194 1759 
Q 1497 1759 1228 1600 
Q 959 1441 959 1056 
Q 959 750 1161 570 
Q 1363 391 1709 391 
Q 2188 391 2477 730 
Q 2766 1069 2766 1631 
L 2766 1759 
L 2194 1759 
z
M 3341 1997 
L 3341 0 
L 2766 0 
L 2766 531 
Q 2569 213 2275 61 
Q 1981 -91 1556 -91 
Q 1019 -91 701 211 
Q 384 513 384 1019 
Q 384 1609 779 1909 
Q 1175 2209 1959 2209 
L 2766 2209 
L 2766 2266 
Q 2766 2663 2505 2880 
Q 2244 3097 1772 3097 
Q 1472 3097 1187 3025 
Q 903 2953 641 2809 
L 641 3341 
Q 956 3463 1253 3523 
Q 1550 3584 1831 3584 
Q 2591 3584 2966 3190 
Q 3341 2797 3341 1997 
z
" transform="scale(0.015625)"/>
        <path id="DejaVuSans-72" d="M 2631 2963 
Q 2534 3019 2420 3045 
Q 2306 3072 2169 3072 
Q 1681 3072 1420 2755 
Q 1159 2438 1159 1844 
L 1159 0 
L 581 0 
L 581 3500 
L 1159 3500 
L 1159 2956 
Q 1341 3275 1631 3429 
Q 1922 3584 2338 3584 
Q 2397 3584 2469 3576 
Q 2541 3569 2628 3553 
L 2631 2963 
z
" transform="scale(0.015625)"/>
        <path id="DejaVuSans-79" d="M 2059 -325 
Q 1816 -950 1584 -1140 
Q 1353 -1331 966 -1331 
L 506 -1331 
L 506 -850 
L 844 -850 
Q 1081 -850 1212 -737 
Q 1344 -625 1503 -206 
L 1606 56 
L 191 3500 
L 800 3500 
L 1894 763 
L 2988 3500 
L 3597 3500 
L 2059 -325 
z
" transform="scale(0.015625)"/>
       </defs>
       <use xlink:href="#DejaVuSans-53"/>
       <use xlink:href="#DejaVuSans-74" transform="translate(63.476562 0)"/>
       <use xlink:href="#DejaVuSans-75" transform="translate(102.685547 0)"/>
       <use xlink:href="#DejaVuSans-64" transform="translate(166.064453 0)"/>
       <use xlink:href="#DejaVuSans-65" transform="translate(229.541016 0)"/>
       <use xlink:href="#DejaVuSans-6e" transform="translate(291.064453 0)"/>
       <use xlink:href="#DejaVuSans-74" transform="translate(354.443359 0)"/>
       <use xlink:href="#DejaVuSans-73" transform="translate(393.652344 0)"/>
       <use xlink:href="#DejaVuSans-20" transform="translate(445.751953 0)"/>
       <use xlink:href="#DejaVuSans-2d" transform="translate(477.539062 0)"/>
       <use xlink:href="#DejaVuSans-20" transform="translate(513.623047 0)"/>
       <use xlink:href="#DejaVuSans-73" transform="translate(545.410156 0)"/>
       <use xlink:href="#DejaVuSans-65" transform="translate(597.509766 0)"/>
       <use xlink:href="#DejaVuSans-63" transform="translate(659.033203 0)"/>
       <use xlink:href="#DejaVuSans-6f" transform="translate(714.013672 0)"/>
       <use xlink:href="#DejaVuSans-6e" transform="translate(775.195312 0)"/>
       <use xlink:href="#DejaVuSans-64" transform="translate(838.574219 0)"/>
       <use xlink:href="#DejaVuSans-61" transform="translate(902.050781 0)"/>
       <use xlink:href="#DejaVuSans-72" transform="translate(963.330078 0)"/>
       <use xlink:href="#DejaVuSans-79" transform="translate(1004.443359 0)"/>
      </g>
     </g>
    </g>
    <g id="xtick_2">
     <g id="line2d_2">
      <g>
       <use xlink:href="#m4e580e61b7" x="289.89125" y="346.769243" style="stroke: #000000; stroke-width: 0.8"/>
      </g>
     </g>
     <g id="text_2">
      <!-- Students - university -->
      <g transform="translate(207.665107 374.203389) rotate(-10) scale(0.08 -0.08)">
       <defs>
        <path id="DejaVuSans-69" d="M 603 3500 
L 1178 3500 
L 1178 0 
L 603 0 
L 603 3500 
z
M 603 4863 
L 1178 4863 
L 1178 4134 
L 603 4134 
L 603 4863 
z
" transform="scale(0.015625)"/>
        <path id="DejaVuSans-76" d="M 191 3500 
L 800 3500 
L 1894 563 
L 2988 3500 
L 3597 3500 
L 2284 0 
L 1503 0 
L 191 3500 
z
" transform="scale(0.015625)"/>
       </defs>
       <use xlink:href="#DejaVuSans-53"/>
       <use xlink:href="#DejaVuSans-74" transform="translate(63.476562 0)"/>
       <use xlink:href="#DejaVuSans-75" transform="translate(102.685547 0)"/>
       <use xlink:href="#DejaVuSans-64" transform="translate(166.064453 0)"/>
       <use xlink:href="#DejaVuSans-65" transform="translate(229.541016 0)"/>
       <use xlink:href="#DejaVuSans-6e" transform="translate(291.064453 0)"/>
       <use xlink:href="#DejaVuSans-74" transform="translate(354.443359 0)"/>
       <use xlink:href="#DejaVuSans-73" transform="translate(393.652344 0)"/>
       <use xlink:href="#DejaVuSans-20" transform="translate(445.751953 0)"/>
       <use xlink:href="#DejaVuSans-2d" transform="translate(477.539062 0)"/>
       <use xlink:href="#DejaVuSans-20" transform="translate(513.623047 0)"/>
       <use xlink:href="#DejaVuSans-75" transform="translate(545.410156 0)"/>
       <use xlink:href="#DejaVuSans-6e" transform="translate(608.789062 0)"/>
       <use xlink:href="#DejaVuSans-69" transform="translate(672.167969 0)"/>
       <use xlink:href="#DejaVuSans-76" transform="translate(699.951172 0)"/>
       <use xlink:href="#DejaVuSans-65" transform="translate(759.130859 0)"/>
       <use xlink:href="#DejaVuSans-72" transform="translate(820.654297 0)"/>
       <use xlink:href="#DejaVuSans-73" transform="translate(861.767578 0)"/>
       <use xlink:href="#DejaVuSans-69" transform="translate(913.867188 0)"/>
       <use xlink:href="#DejaVuSans-74" transform="translate(941.650391 0)"/>
       <use xlink:href="#DejaVuSans-79" transform="translate(980.859375 0)"/>
      </g>
     </g>
    </g>
    <g id="xtick_3">
     <g id="line2d_3">
      <g>
       <use xlink:href="#m4e580e61b7" x="458.47875" y="346.769243" style="stroke: #000000; stroke-width: 0.8"/>
      </g>
     </g>
     <g id="text_3">
      <!-- Teachers - pre-service -->
      <g transform="translate(371.700333 375.006078) rotate(-10) scale(0.08 -0.08)">
       <defs>
        <path id="DejaVuSans-54" d="M -19 4666 
L 3928 4666 
L 3928 4134 
L 2272 4134 
L 2272 0 
L 1638 0 
L 1638 4134 
L -19 4134 
L -19 4666 
z
" transform="scale(0.015625)"/>
        <path id="DejaVuSans-68" d="M 3513 2113 
L 3513 0 
L 2938 0 
L 2938 2094 
Q 2938 2591 2744 2837 
Q 2550 3084 2163 3084 
Q 1697 3084 1428 2787 
Q 1159 2491 1159 1978 
L 1159 0 
L 581 0 
L 581 4863 
L 1159 4863 
L 1159 2956 
Q 1366 3272 1645 3428 
Q 1925 3584 2291 3584 
Q 2894 3584 3203 3211 
Q 3513 2838 3513 2113 
z
" transform="scale(0.015625)"/>
        <path id="DejaVuSans-70" d="M 1159 525 
L 1159 -1331 
L 581 -1331 
L 581 3500 
L 1159 3500 
L 1159 2969 
Q 1341 3281 1617 3432 
Q 1894 3584 2278 3584 
Q 2916 3584 3314 3078 
Q 3713 2572 3713 1747 
Q 3713 922 3314 415 
Q 2916 -91 2278 -91 
Q 1894 -91 1617 61 
Q 1341 213 1159 525 
z
M 3116 1747 
Q 3116 2381 2855 2742 
Q 2594 3103 2138 3103 
Q 1681 3103 1420 2742 
Q 1159 2381 1159 1747 
Q 1159 1113 1420 752 
Q 1681 391 2138 391 
Q 2594 391 2855 752 
Q 3116 1113 3116 1747 
z
" transform="scale(0.015625)"/>
       </defs>
       <use xlink:href="#DejaVuSans-54"/>
       <use xlink:href="#DejaVuSans-65" transform="translate(44.083984 0)"/>
       <use xlink:href="#DejaVuSans-61" transform="translate(105.607422 0)"/>
       <use xlink:href="#DejaVuSans-63" transform="translate(166.886719 0)"/>
       <use xlink:href="#DejaVuSans-68" transform="translate(221.867188 0)"/>
       <use xlink:href="#DejaVuSans-65" transform="translate(285.246094 0)"/>
       <use xlink:href="#DejaVuSans-72" transform="translate(346.769531 0)"/>
       <use xlink:href="#DejaVuSans-73" transform="translate(387.882812 0)"/>
       <use xlink:href="#DejaVuSans-20" transform="translate(439.982422 0)"/>
       <use xlink:href="#DejaVuSans-2d" transform="translate(471.769531 0)"/>
       <use xlink:href="#DejaVuSans-20" transform="translate(507.853516 0)"/>
       <use xlink:href="#DejaVuSans-70" transform="translate(539.640625 0)"/>
       <use xlink:href="#DejaVuSans-72" transform="translate(603.117188 0)"/>
       <use xlink:href="#DejaVuSans-65" transform="translate(641.980469 0)"/>
       <use xlink:href="#DejaVuSans-2d" transform="translate(703.503906 0)"/>
       <use xlink:href="#DejaVuSans-73" transform="translate(739.587891 0)"/>
       <use xlink:href="#DejaVuSans-65" transform="translate(791.6875 0)"/>
       <use xlink:href="#DejaVuSans-72" transform="translate(853.210938 0)"/>
       <use xlink:href="#DejaVuSans-76" transform="translate(894.324219 0)"/>
       <use xlink:href="#DejaVuSans-69" transform="translate(953.503906 0)"/>
       <use xlink:href="#DejaVuSans-63" transform="translate(981.287109 0)"/>
       <use xlink:href="#DejaVuSans-65" transform="translate(1036.267578 0)"/>
      </g>
     </g>
    </g>
    <g id="xtick_4">
     <g id="line2d_4">
      <g>
       <use xlink:href="#m4e580e61b7" x="627.06625" y="346.769243" style="stroke: #000000; stroke-width: 0.8"/>
      </g>
     </g>
     <g id="text_4">
      <!-- Teachers - in-service -->
      <g transform="translate(546.016952 373.995879) rotate(-10) scale(0.08 -0.08)">
       <use xlink:href="#DejaVuSans-54"/>
       <use xlink:href="#DejaVuSans-65" transform="translate(44.083984 0)"/>
       <use xlink:href="#DejaVuSans-61" transform="translate(105.607422 0)"/>
       <use xlink:href="#DejaVuSans-63" transform="translate(166.886719 0)"/>
       <use xlink:href="#DejaVuSans-68" transform="translate(221.867188 0)"/>
       <use xlink:href="#DejaVuSans-65" transform="translate(285.246094 0)"/>
       <use xlink:href="#DejaVuSans-72" transform="translate(346.769531 0)"/>
       <use xlink:href="#DejaVuSans-73" transform="translate(387.882812 0)"/>
       <use xlink:href="#DejaVuSans-20" transform="translate(439.982422 0)"/>
       <use xlink:href="#DejaVuSans-2d" transform="translate(471.769531 0)"/>
       <use xlink:href="#DejaVuSans-20" transform="translate(507.853516 0)"/>
       <use xlink:href="#DejaVuSans-69" transform="translate(539.640625 0)"/>
       <use xlink:href="#DejaVuSans-6e" transform="translate(567.423828 0)"/>
       <use xlink:href="#DejaVuSans-2d" transform="translate(630.802734 0)"/>
       <use xlink:href="#DejaVuSans-73" transform="translate(666.886719 0)"/>
       <use xlink:href="#DejaVuSans-65" transform="translate(718.986328 0)"/>
       <use xlink:href="#DejaVuSans-72" transform="translate(780.509766 0)"/>
       <use xlink:href="#DejaVuSans-76" transform="translate(821.623047 0)"/>
       <use xlink:href="#DejaVuSans-69" transform="translate(880.802734 0)"/>
       <use xlink:href="#DejaVuSans-63" transform="translate(908.585938 0)"/>
       <use xlink:href="#DejaVuSans-65" transform="translate(963.566406 0)"/>
      </g>
     </g>
    </g>
    <g id="text_5">
     <!-- Group -->
     <g transform="translate(362.009375 386.723301) scale(0.08 -0.08)">
      <defs>
       <path id="DejaVuSans-47" d="M 3809 666 
L 3809 1919 
L 2778 1919 
L 2778 2438 
L 4434 2438 
L 4434 434 
Q 4069 175 3628 42 
Q 3188 -91 2688 -91 
Q 1594 -91 976 548 
Q 359 1188 359 2328 
Q 359 3472 976 4111 
Q 1594 4750 2688 4750 
Q 3144 4750 3555 4637 
Q 3966 4525 4313 4306 
L 4313 3634 
Q 3963 3931 3569 4081 
Q 3175 4231 2741 4231 
Q 1884 4231 1454 3753 
Q 1025 3275 1025 2328 
Q 1025 1384 1454 906 
Q 1884 428 2741 428 
Q 3075 428 3337 486 
Q 3600 544 3809 666 
z
" transform="scale(0.015625)"/>
      </defs>
      <use xlink:href="#DejaVuSans-47"/>
      <use xlink:href="#DejaVuSans-72" transform="translate(77.490234 0)"/>
      <use xlink:href="#DejaVuSans-6f" transform="translate(116.353516 0)"/>
      <use xlink:href="#DejaVuSans-75" transform="translate(177.535156 0)"/>
      <use xlink:href="#DejaVuSans-70" transform="translate(240.914062 0)"/>
     </g>
    </g>
   </g>
   <g id="matplotlib.axis_2">
    <g id="ytick_1">
     <g id="line2d_5">
      <path d="M 37.01 301.442123 
L 711.36 301.442123 
" clip-path="url(#p21b4519f19)" style="fill: none; stroke-dasharray: 2.96,1.28; stroke-dashoffset: 0; stroke: #b0b0b0; stroke-opacity: 0.3; stroke-width: 0.8"/>
     </g>
     <g id="line2d_6">
      <defs>
       <path id="md73b2185a7" d="M 0 0 
L -3.5 0 
" style="stroke: #000000; stroke-width: 0.8"/>
      </defs>
      <g>
       <use xlink:href="#md73b2185a7" x="37.01" y="301.442123" style="stroke: #000000; stroke-width: 0.8"/>
      </g>
     </g>
     <g id="text_6">
      <!-- 20 -->
      <g transform="translate(19.83 304.481498) scale(0.08 -0.08)">
       <defs>
        <path id="DejaVuSans-32" d="M 1228 531 
L 3431 531 
L 3431 0 
L 469 0 
L 469 531 
Q 828 903 1448 1529 
Q 2069 2156 2228 2338 
Q 2531 2678 2651 2914 
Q 2772 3150 2772 3378 
Q 2772 3750 2511 3984 
Q 2250 4219 1831 4219 
Q 1534 4219 1204 4116 
Q 875 4013 500 3803 
L 500 4441 
Q 881 4594 1212 4672 
Q 1544 4750 1819 4750 
Q 2544 4750 2975 4387 
Q 3406 4025 3406 3419 
Q 3406 3131 3298 2873 
Q 3191 2616 2906 2266 
Q 2828 2175 2409 1742 
Q 1991 1309 1228 531 
z
" transform="scale(0.015625)"/>
        <path id="DejaVuSans-30" d="M 2034 4250 
Q 1547 4250 1301 3770 
Q 1056 3291 1056 2328 
Q 1056 1369 1301 889 
Q 1547 409 2034 409 
Q 2525 409 2770 889 
Q 3016 1369 3016 2328 
Q 3016 3291 2770 3770 
Q 2525 4250 2034 4250 
z
M 2034 4750 
Q 2819 4750 3233 4129 
Q 3647 3509 3647 2328 
Q 3647 1150 3233 529 
Q 2819 -91 2034 -91 
Q 1250 -91 836 529 
Q 422 1150 422 2328 
Q 422 3509 836 4129 
Q 1250 4750 2034 4750 
z
" transform="scale(0.015625)"/>
       </defs>
       <use xlink:href="#DejaVuSans-32"/>
       <use xlink:href="#DejaVuSans-30" transform="translate(63.623047 0)"/>
      </g>
     </g>
    </g>
    <g id="ytick_2">
     <g id="line2d_7">
      <path d="M 37.01 250.512775 
L 711.36 250.512775 
" clip-path="url(#p21b4519f19)" style="fill: none; stroke-dasharray: 2.96,1.28; stroke-dashoffset: 0; stroke: #b0b0b0; stroke-opacity: 0.3; stroke-width: 0.8"/>
     </g>
     <g id="line2d_8">
      <g>
       <use xlink:href="#md73b2185a7" x="37.01" y="250.512775" style="stroke: #000000; stroke-width: 0.8"/>
      </g>
     </g>
     <g id="text_7">
      <!-- 30 -->
      <g transform="translate(19.83 253.55215) scale(0.08 -0.08)">
       <defs>
        <path id="DejaVuSans-33" d="M 2597 2516 
Q 3050 2419 3304 2112 
Q 3559 1806 3559 1356 
Q 3559 666 3084 287 
Q 2609 -91 1734 -91 
Q 1441 -91 1130 -33 
Q 819 25 488 141 
L 488 750 
Q 750 597 1062 519 
Q 1375 441 1716 441 
Q 2309 441 2620 675 
Q 2931 909 2931 1356 
Q 2931 1769 2642 2001 
Q 2353 2234 1838 2234 
L 1294 2234 
L 1294 2753 
L 1863 2753 
Q 2328 2753 2575 2939 
Q 2822 3125 2822 3475 
Q 2822 3834 2567 4026 
Q 2313 4219 1838 4219 
Q 1578 4219 1281 4162 
Q 984 4106 628 3988 
L 628 4550 
Q 988 4650 1302 4700 
Q 1616 4750 1894 4750 
Q 2613 4750 3031 4423 
Q 3450 4097 3450 3541 
Q 3450 3153 3228 2886 
Q 3006 2619 2597 2516 
z
" transform="scale(0.015625)"/>
       </defs>
       <use xlink:href="#DejaVuSans-33"/>
       <use xlink:href="#DejaVuSans-30" transform="translate(63.623047 0)"/>
      </g>
     </g>
    </g>
    <g id="ytick_3">
     <g id="line2d_9">
      <path d="M 37.01 199.583426 
L 711.36 199.583426 
" clip-path="url(#p21b4519f19)" style="fill: none; stroke-dasharray: 2.96,1.28; stroke-dashoffset: 0; stroke: #b0b0b0; stroke-opacity: 0.3; stroke-width: 0.8"/>
     </g>
     <g id="line2d_10">
      <g>
       <use xlink:href="#md73b2185a7" x="37.01" y="199.583426" style="stroke: #000000; stroke-width: 0.8"/>
      </g>
     </g>
     <g id="text_8">
      <!-- 40 -->
      <g transform="translate(19.83 202.622801) scale(0.08 -0.08)">
       <defs>
        <path id="DejaVuSans-34" d="M 2419 4116 
L 825 1625 
L 2419 1625 
L 2419 4116 
z
M 2253 4666 
L 3047 4666 
L 3047 1625 
L 3713 1625 
L 3713 1100 
L 3047 1100 
L 3047 0 
L 2419 0 
L 2419 1100 
L 313 1100 
L 313 1709 
L 2253 4666 
z
" transform="scale(0.015625)"/>
       </defs>
       <use xlink:href="#DejaVuSans-34"/>
       <use xlink:href="#DejaVuSans-30" transform="translate(63.623047 0)"/>
      </g>
     </g>
    </g>
    <g id="ytick_4">
     <g id="line2d_11">
      <path d="M 37.01 148.654078 
L 711.36 148.654078 
" clip-path="url(#p21b4519f19)" style="fill: none; stroke-dasharray: 2.96,1.28; stroke-dashoffset: 0; stroke: #b0b0b0; stroke-opacity: 0.3; stroke-width: 0.8"/>
     </g>
     <g id="line2d_12">
      <g>
       <use xlink:href="#md73b2185a7" x="37.01" y="148.654078" style="stroke: #000000; stroke-width: 0.8"/>
      </g>
     </g>
     <g id="text_9">
      <!-- 50 -->
      <g transform="translate(19.83 151.693453) scale(0.08 -0.08)">
       <defs>
        <path id="DejaVuSans-35" d="M 691 4666 
L 3169 4666 
L 3169 4134 
L 1269 4134 
L 1269 2991 
Q 1406 3038 1543 3061 
Q 1681 3084 1819 3084 
Q 2600 3084 3056 2656 
Q 3513 2228 3513 1497 
Q 3513 744 3044 326 
Q 2575 -91 1722 -91 
Q 1428 -91 1123 -41 
Q 819 9 494 109 
L 494 744 
Q 775 591 1075 516 
Q 1375 441 1709 441 
Q 2250 441 2565 725 
Q 2881 1009 2881 1497 
Q 2881 1984 2565 2268 
Q 2250 2553 1709 2553 
Q 1456 2553 1204 2497 
Q 953 2441 691 2322 
L 691 4666 
z
" transform="scale(0.015625)"/>
       </defs>
       <use xlink:href="#DejaVuSans-35"/>
       <use xlink:href="#DejaVuSans-30" transform="translate(63.623047 0)"/>
      </g>
     </g>
    </g>
    <g id="ytick_5">
     <g id="line2d_13">
      <path d="M 37.01 97.724729 
L 711.36 97.724729 
" clip-path="url(#p21b4519f19)" style="fill: none; stroke-dasharray: 2.96,1.28; stroke-dashoffset: 0; stroke: #b0b0b0; stroke-opacity: 0.3; stroke-width: 0.8"/>
     </g>
     <g id="line2d_14">
      <g>
       <use xlink:href="#md73b2185a7" x="37.01" y="97.724729" style="stroke: #000000; stroke-width: 0.8"/>
      </g>
     </g>
     <g id="text_10">
      <!-- 60 -->
      <g transform="translate(19.83 100.764104) scale(0.08 -0.08)">
       <defs>
        <path id="DejaVuSans-36" d="M 2113 2584 
Q 1688 2584 1439 2293 
Q 1191 2003 1191 1497 
Q 1191 994 1439 701 
Q 1688 409 2113 409 
Q 2538 409 2786 701 
Q 3034 994 3034 1497 
Q 3034 2003 2786 2293 
Q 2538 2584 2113 2584 
z
M 3366 4563 
L 3366 3988 
Q 3128 4100 2886 4159 
Q 2644 4219 2406 4219 
Q 1781 4219 1451 3797 
Q 1122 3375 1075 2522 
Q 1259 2794 1537 2939 
Q 1816 3084 2150 3084 
Q 2853 3084 3261 2657 
Q 3669 2231 3669 1497 
Q 3669 778 3244 343 
Q 2819 -91 2113 -91 
Q 1303 -91 875 529 
Q 447 1150 447 2328 
Q 447 3434 972 4092 
Q 1497 4750 2381 4750 
Q 2619 4750 2861 4703 
Q 3103 4656 3366 4563 
z
" transform="scale(0.015625)"/>
       </defs>
       <use xlink:href="#DejaVuSans-36"/>
       <use xlink:href="#DejaVuSans-30" transform="translate(63.623047 0)"/>
      </g>
     </g>
    </g>
    <g id="ytick_6">
     <g id="line2d_15">
      <path d="M 37.01 46.795381 
L 711.36 46.795381 
" clip-path="url(#p21b4519f19)" style="fill: none; stroke-dasharray: 2.96,1.28; stroke-dashoffset: 0; stroke: #b0b0b0; stroke-opacity: 0.3; stroke-width: 0.8"/>
     </g>
     <g id="line2d_16">
      <g>
       <use xlink:href="#md73b2185a7" x="37.01" y="46.795381" style="stroke: #000000; stroke-width: 0.8"/>
      </g>
     </g>
     <g id="text_11">
      <!-- 70 -->
      <g transform="translate(19.83 49.834756) scale(0.08 -0.08)">
       <defs>
        <path id="DejaVuSans-37" d="M 525 4666 
L 3525 4666 
L 3525 4397 
L 1831 0 
L 1172 0 
L 2766 4134 
L 525 4134 
L 525 4666 
z
" transform="scale(0.015625)"/>
       </defs>
       <use xlink:href="#DejaVuSans-37"/>
       <use xlink:href="#DejaVuSans-30" transform="translate(63.623047 0)"/>
      </g>
     </g>
    </g>
    <g id="text_12">
     <!-- Age (years) -->
     <g transform="translate(14.16625 207.442122) rotate(-90) scale(0.08 -0.08)">
      <defs>
       <path id="DejaVuSans-41" d="M 2188 4044 
L 1331 1722 
L 3047 1722 
L 2188 4044 
z
M 1831 4666 
L 2547 4666 
L 4325 0 
L 3669 0 
L 3244 1197 
L 1141 1197 
L 716 0 
L 50 0 
L 1831 4666 
z
" transform="scale(0.015625)"/>
       <path id="DejaVuSans-67" d="M 2906 1791 
Q 2906 2416 2648 2759 
Q 2391 3103 1925 3103 
Q 1463 3103 1205 2759 
Q 947 2416 947 1791 
Q 947 1169 1205 825 
Q 1463 481 1925 481 
Q 2391 481 2648 825 
Q 2906 1169 2906 1791 
z
M 3481 434 
Q 3481 -459 3084 -895 
Q 2688 -1331 1869 -1331 
Q 1566 -1331 1297 -1286 
Q 1028 -1241 775 -1147 
L 775 -588 
Q 1028 -725 1275 -790 
Q 1522 -856 1778 -856 
Q 2344 -856 2625 -561 
Q 2906 -266 2906 331 
L 2906 616 
Q 2728 306 2450 153 
Q 2172 0 1784 0 
Q 1141 0 747 490 
Q 353 981 353 1791 
Q 353 2603 747 3093 
Q 1141 3584 1784 3584 
Q 2172 3584 2450 3431 
Q 2728 3278 2906 2969 
L 2906 3500 
L 3481 3500 
L 3481 434 
z
" transform="scale(0.015625)"/>
       <path id="DejaVuSans-28" d="M 1984 4856 
Q 1566 4138 1362 3434 
Q 1159 2731 1159 2009 
Q 1159 1288 1364 580 
Q 1569 -128 1984 -844 
L 1484 -844 
Q 1016 -109 783 600 
Q 550 1309 550 2009 
Q 550 2706 781 3412 
Q 1013 4119 1484 4856 
L 1984 4856 
z
" transform="scale(0.015625)"/>
       <path id="DejaVuSans-29" d="M 513 4856 
L 1013 4856 
Q 1481 4119 1714 3412 
Q 1947 2706 1947 2009 
Q 1947 1309 1714 600 
Q 1481 -109 1013 -844 
L 513 -844 
Q 928 -128 1133 580 
Q 1338 1288 1338 2009 
Q 1338 2731 1133 3434 
Q 928 4138 513 4856 
z
" transform="scale(0.015625)"/>
      </defs>
      <use xlink:href="#DejaVuSans-41"/>
      <use xlink:href="#DejaVuSans-67" transform="translate(68.408203 0)"/>
      <use xlink:href="#DejaVuSans-65" transform="translate(131.884766 0)"/>
      <use xlink:href="#DejaVuSans-20" transform="translate(193.408203 0)"/>
      <use xlink:href="#DejaVuSans-28" transform="translate(225.195312 0)"/>
      <use xlink:href="#DejaVuSans-79" transform="translate(264.208984 0)"/>
      <use xlink:href="#DejaVuSans-65" transform="translate(323.388672 0)"/>
      <use xlink:href="#DejaVuSans-61" transform="translate(384.912109 0)"/>
      <use xlink:href="#DejaVuSans-72" transform="translate(446.191406 0)"/>
      <use xlink:href="#DejaVuSans-73" transform="translate(487.304688 0)"/>
      <use xlink:href="#DejaVuSans-29" transform="translate(539.404297 0)"/>
     </g>
    </g>
   </g>
   <g id="FillBetweenPolyCollection_1">
    <defs>
     <path id="m13f3a8e1d3" d="M 177.939109 -64.000268 
L 64.668391 -64.000268 
L 62.711609 -64.308931 
L 60.972831 -64.617593 
L 59.447819 -64.926256 
L 58.128554 -65.234919 
L 57.004789 -65.543581 
L 56.065623 -65.852244 
L 55.300957 -66.160907 
L 54.702688 -66.46957 
L 54.265508 -66.778232 
L 53.987251 -67.086895 
L 53.86875 -67.395558 
L 53.91323 -67.70422 
L 54.125306 -68.012883 
L 54.509712 -68.321546 
L 55.069877 -68.630209 
L 55.806526 -68.938871 
L 56.716432 -69.247534 
L 57.791451 -69.556197 
L 59.017937 -69.864859 
L 60.37659 -70.173522 
L 61.842725 -70.482185 
L 63.386959 -70.790848 
L 64.976216 -71.09951 
L 66.574969 -71.408173 
L 68.146622 -71.716836 
L 69.654898 -72.025498 
L 71.065171 -72.334161 
L 72.345651 -72.642824 
L 73.468386 -72.951487 
L 74.410053 -73.260149 
L 75.152554 -73.568812 
L 75.683438 -73.877475 
L 75.996164 -74.186138 
L 76.090261 -74.4948 
L 75.971384 -74.803463 
L 75.651289 -75.112126 
L 75.147713 -75.420788 
L 74.484142 -75.729451 
L 73.68942 -76.038114 
L 72.797189 -76.346777 
L 71.845092 -76.655439 
L 70.873764 -76.964102 
L 69.925575 -77.272765 
L 69.04319 -77.581427 
L 68.267975 -77.89009 
L 67.638358 -78.198753 
L 67.188228 -78.507416 
L 66.94549 -78.816078 
L 66.930888 -79.124741 
L 67.157185 -79.433404 
L 67.628768 -79.742066 
L 68.341725 -80.050729 
L 69.284378 -80.359392 
L 70.438237 -80.668055 
L 71.779299 -80.976717 
L 73.279586 -81.28538 
L 74.908795 -81.594043 
L 76.635946 -81.902705 
L 78.430896 -82.211368 
L 80.265616 -82.520031 
L 82.115177 -82.828694 
L 83.958382 -83.137356 
L 85.778054 -83.446019 
L 87.560993 -83.754682 
L 89.297667 -84.063344 
L 90.981706 -84.372007 
L 92.609267 -84.68067 
L 94.178374 -84.989333 
L 95.688279 -85.297995 
L 97.138922 -85.606658 
L 98.530516 -85.915321 
L 99.863277 -86.223984 
L 101.137296 -86.532646 
L 102.352529 -86.841309 
L 103.508887 -87.149972 
L 104.606367 -87.458634 
L 105.645213 -87.767297 
L 106.626049 -88.07596 
L 107.549983 -88.384623 
L 108.418643 -88.693285 
L 109.234164 -89.001948 
L 109.999117 -89.310611 
L 110.716391 -89.619273 
L 111.389066 -89.927936 
L 112.020262 -90.236599 
L 112.613018 -90.545262 
L 113.170186 -90.853924 
L 113.694368 -91.162587 
L 114.187884 -91.47125 
L 114.652781 -91.779912 
L 115.09087 -92.088575 
L 115.503778 -92.397238 
L 115.89301 -92.705901 
L 116.260006 -93.014563 
L 116.606188 -93.323226 
L 116.932983 -93.631889 
L 117.241829 -93.940551 
L 117.534162 -94.249214 
L 117.811378 -94.557877 
L 124.796122 -94.557877 
L 124.796122 -94.557877 
L 125.073338 -94.249214 
L 125.365671 -93.940551 
L 125.674517 -93.631889 
L 126.001312 -93.323226 
L 126.347494 -93.014563 
L 126.71449 -92.705901 
L 127.103722 -92.397238 
L 127.51663 -92.088575 
L 127.954719 -91.779912 
L 128.419616 -91.47125 
L 128.913132 -91.162587 
L 129.437314 -90.853924 
L 129.994482 -90.545262 
L 130.587238 -90.236599 
L 131.218434 -89.927936 
L 131.891109 -89.619273 
L 132.608383 -89.310611 
L 133.373336 -89.001948 
L 134.188857 -88.693285 
L 135.057517 -88.384623 
L 135.981451 -88.07596 
L 136.962287 -87.767297 
L 138.001133 -87.458634 
L 139.098613 -87.149972 
L 140.254971 -86.841309 
L 141.470204 -86.532646 
L 142.744223 -86.223984 
L 144.076984 -85.915321 
L 145.468578 -85.606658 
L 146.919221 -85.297995 
L 148.429126 -84.989333 
L 149.998233 -84.68067 
L 151.625794 -84.372007 
L 153.309833 -84.063344 
L 155.046507 -83.754682 
L 156.829446 -83.446019 
L 158.649118 -83.137356 
L 160.492323 -82.828694 
L 162.341884 -82.520031 
L 164.176604 -82.211368 
L 165.971554 -81.902705 
L 167.698705 -81.594043 
L 169.327914 -81.28538 
L 170.828201 -80.976717 
L 172.169263 -80.668055 
L 173.323122 -80.359392 
L 174.265775 -80.050729 
L 174.978732 -79.742066 
L 175.450315 -79.433404 
L 175.676612 -79.124741 
L 175.66201 -78.816078 
L 175.419272 -78.507416 
L 174.969142 -78.198753 
L 174.339525 -77.89009 
L 173.56431 -77.581427 
L 172.681925 -77.272765 
L 171.733736 -76.964102 
L 170.762408 -76.655439 
L 169.810311 -76.346777 
L 168.91808 -76.038114 
L 168.123358 -75.729451 
L 167.459787 -75.420788 
L 166.956211 -75.112126 
L 166.636116 -74.803463 
L 166.517239 -74.4948 
L 166.611336 -74.186138 
L 166.924062 -73.877475 
L 167.454946 -73.568812 
L 168.197447 -73.260149 
L 169.139114 -72.951487 
L 170.261849 -72.642824 
L 171.542329 -72.334161 
L 172.952602 -72.025498 
L 174.460878 -71.716836 
L 176.032531 -71.408173 
L 177.631284 -71.09951 
L 179.220541 -70.790848 
L 180.764775 -70.482185 
L 182.23091 -70.173522 
L 183.589563 -69.864859 
L 184.816049 -69.556197 
L 185.891068 -69.247534 
L 186.800974 -68.938871 
L 187.537623 -68.630209 
L 188.097788 -68.321546 
L 188.482194 -68.012883 
L 188.69427 -67.70422 
L 188.73875 -67.395558 
L 188.620249 -67.086895 
L 188.341992 -66.778232 
L 187.904812 -66.46957 
L 187.306543 -66.160907 
L 186.541877 -65.852244 
L 185.602711 -65.543581 
L 184.478946 -65.234919 
L 183.159681 -64.926256 
L 181.634669 -64.617593 
L 179.895891 -64.308931 
L 177.939109 -64.000268 
z
" style="stroke: #484848; stroke-width: 1.25"/>
    </defs>
    <g clip-path="url(#p21b4519f19)">
     <use xlink:href="#m13f3a8e1d3" x="0" y="396" style="fill: #cb3335; stroke: #484848; stroke-width: 1.25"/>
    </g>
   </g>
   <g id="FillBetweenPolyCollection_2">
    <defs>
     <path id="m580ec7b202" d="M 300.310001 -99.650812 
L 279.472499 -99.650812 
L 279.394541 -99.805143 
L 279.371914 -99.959474 
L 279.389709 -100.113806 
L 279.42844 -100.268137 
L 279.464244 -100.422469 
L 279.469247 -100.5768 
L 279.412115 -100.731131 
L 279.258778 -100.885463 
L 278.973335 -101.039794 
L 278.519115 -101.194125 
L 277.859908 -101.348457 
L 276.961329 -101.502788 
L 275.792302 -101.657119 
L 274.326626 -101.811451 
L 272.544574 -101.965782 
L 270.434461 -102.120113 
L 267.994115 -102.274445 
L 265.232149 -102.428776 
L 262.16896 -102.583108 
L 258.837334 -102.737439 
L 255.282586 -102.89177 
L 251.562151 -103.046102 
L 247.744563 -103.200433 
L 243.907824 -103.354764 
L 240.137146 -103.509096 
L 236.522164 -103.663427 
L 233.153687 -103.817758 
L 230.120155 -103.97209 
L 227.503963 -104.126421 
L 225.377857 -104.280753 
L 223.801598 -104.435084 
L 222.819108 -104.589415 
L 222.45625 -104.743747 
L 222.719407 -104.898078 
L 223.594927 -105.052409 
L 225.049486 -105.206741 
L 227.031342 -105.361072 
L 229.4724 -105.515403 
L 232.290974 -105.669735 
L 235.39507 -105.824066 
L 238.686025 -105.978397 
L 242.062294 -106.132729 
L 245.423201 -106.28706 
L 248.672493 -106.441392 
L 251.721545 -106.595723 
L 254.492121 -106.750054 
L 256.918605 -106.904386 
L 258.949665 -107.058717 
L 260.549361 -107.213048 
L 261.697677 -107.36738 
L 262.390543 -107.521711 
L 262.639361 -107.676042 
L 262.4701 -107.830374 
L 261.921987 -107.984705 
L 261.04586 -108.139036 
L 259.902211 -108.293368 
L 258.558976 -108.447699 
L 257.08912 -108.602031 
L 255.568081 -108.756362 
L 254.071137 -108.910693 
L 252.670785 -109.065025 
L 251.434219 -109.219356 
L 250.420994 -109.373687 
L 249.680993 -109.528019 
L 249.252773 -109.68235 
L 249.162371 -109.836681 
L 249.422633 -109.991013 
L 250.033099 -110.145344 
L 250.98044 -110.299676 
L 252.239425 -110.454007 
L 253.774367 -110.608338 
L 255.540944 -110.76267 
L 257.488315 -110.917001 
L 259.561398 -111.071332 
L 261.703209 -111.225664 
L 263.85712 -111.379995 
L 265.968974 -111.534326 
L 267.988934 -111.688658 
L 269.873034 -111.842989 
L 271.584377 -111.99732 
L 273.093978 -112.151652 
L 274.381242 -112.305983 
L 275.434107 -112.460315 
L 276.248892 -112.614646 
L 276.82987 -112.768977 
L 277.188624 -112.923309 
L 277.343222 -113.07764 
L 277.317255 -113.231971 
L 277.138765 -113.386303 
L 276.839105 -113.540634 
L 276.451756 -113.694965 
L 276.011133 -113.849297 
L 275.551407 -114.003628 
L 275.105378 -114.157959 
L 274.703424 -114.312291 
L 274.372568 -114.466622 
L 274.135684 -114.620954 
L 274.010879 -114.775285 
L 274.011078 -114.929616 
L 305.771422 -114.929616 
L 305.771422 -114.929616 
L 305.771621 -114.775285 
L 305.646816 -114.620954 
L 305.409932 -114.466622 
L 305.079076 -114.312291 
L 304.677122 -114.157959 
L 304.231093 -114.003628 
L 303.771367 -113.849297 
L 303.330744 -113.694965 
L 302.943395 -113.540634 
L 302.643735 -113.386303 
L 302.465245 -113.231971 
L 302.439278 -113.07764 
L 302.593876 -112.923309 
L 302.95263 -112.768977 
L 303.533608 -112.614646 
L 304.348393 -112.460315 
L 305.401258 -112.305983 
L 306.688522 -112.151652 
L 308.198123 -111.99732 
L 309.909466 -111.842989 
L 311.793566 -111.688658 
L 313.813526 -111.534326 
L 315.92538 -111.379995 
L 318.079291 -111.225664 
L 320.221102 -111.071332 
L 322.294185 -110.917001 
L 324.241556 -110.76267 
L 326.008133 -110.608338 
L 327.543075 -110.454007 
L 328.80206 -110.299676 
L 329.749401 -110.145344 
L 330.359867 -109.991013 
L 330.620129 -109.836681 
L 330.529727 -109.68235 
L 330.101507 -109.528019 
L 329.361506 -109.373687 
L 328.348281 -109.219356 
L 327.111715 -109.065025 
L 325.711363 -108.910693 
L 324.214419 -108.756362 
L 322.69338 -108.602031 
L 321.223524 -108.447699 
L 319.880289 -108.293368 
L 318.73664 -108.139036 
L 317.860513 -107.984705 
L 317.3124 -107.830374 
L 317.143139 -107.676042 
L 317.391957 -107.521711 
L 318.084823 -107.36738 
L 319.233139 -107.213048 
L 320.832835 -107.058717 
L 322.863895 -106.904386 
L 325.290379 -106.750054 
L 328.060955 -106.595723 
L 331.110007 -106.441392 
L 334.359299 -106.28706 
L 337.720206 -106.132729 
L 341.096475 -105.978397 
L 344.38743 -105.824066 
L 347.491526 -105.669735 
L 350.3101 -105.515403 
L 352.751158 -105.361072 
L 354.733014 -105.206741 
L 356.187573 -105.052409 
L 357.063093 -104.898078 
L 357.32625 -104.743747 
L 356.963392 -104.589415 
L 355.980902 -104.435084 
L 354.404643 -104.280753 
L 352.278537 -104.126421 
L 349.662345 -103.97209 
L 346.628813 -103.817758 
L 343.260336 -103.663427 
L 339.645354 -103.509096 
L 335.874676 -103.354764 
L 332.037937 -103.200433 
L 328.220349 -103.046102 
L 324.499914 -102.89177 
L 320.945166 -102.737439 
L 317.61354 -102.583108 
L 314.550351 -102.428776 
L 311.788385 -102.274445 
L 309.348039 -102.120113 
L 307.237926 -101.965782 
L 305.455874 -101.811451 
L 303.990198 -101.657119 
L 302.821171 -101.502788 
L 301.922592 -101.348457 
L 301.263385 -101.194125 
L 300.809165 -101.039794 
L 300.523722 -100.885463 
L 300.370385 -100.731131 
L 300.313253 -100.5768 
L 300.318256 -100.422469 
L 300.35406 -100.268137 
L 300.392791 -100.113806 
L 300.410586 -99.959474 
L 300.387959 -99.805143 
L 300.310001 -99.650812 
z
" style="stroke: #484848; stroke-width: 1.25"/>
    </defs>
    <g clip-path="url(#p21b4519f19)">
     <use xlink:href="#m580ec7b202" x="0" y="396" style="fill: #59a257; stroke: #484848; stroke-width: 1.25"/>
    </g>
   </g>
   <g id="FillBetweenPolyCollection_3">
    <defs>
     <path id="mfd200d0689" d="M 478.354332 -104.743747 
L 438.603168 -104.743747 
L 436.342794 -106.492835 
L 433.95612 -108.241924 
L 431.45448 -109.991013 
L 428.852013 -111.740102 
L 426.165654 -113.48919 
L 423.41504 -115.238279 
L 420.622332 -116.987368 
L 417.81195 -118.736456 
L 415.010215 -120.485545 
L 412.244894 -122.234634 
L 409.544673 -123.983723 
L 406.938548 -125.732811 
L 404.455165 -127.4819 
L 402.122113 -129.230989 
L 399.965211 -130.980078 
L 398.00779 -132.729166 
L 396.270012 -134.478255 
L 394.768256 -136.227344 
L 393.51457 -137.976433 
L 392.51625 -139.725521 
L 391.775539 -141.47461 
L 391.289479 -143.223699 
L 391.049929 -144.972788 
L 391.04375 -146.721876 
L 391.253172 -148.470965 
L 391.65633 -150.220054 
L 392.227953 -151.969142 
L 392.940203 -153.718231 
L 393.763613 -155.46732 
L 394.668108 -157.216409 
L 395.62405 -158.965497 
L 396.603276 -160.714586 
L 397.580073 -162.463675 
L 398.53203 -164.212764 
L 399.440755 -165.961852 
L 400.292375 -167.710941 
L 401.077829 -169.46003 
L 401.792911 -171.209119 
L 402.438077 -172.958207 
L 403.018015 -174.707296 
L 403.541007 -176.456385 
L 404.018134 -178.205473 
L 404.462351 -179.954562 
L 404.88751 -181.703651 
L 405.307381 -183.45274 
L 405.734734 -185.201828 
L 406.180544 -186.950917 
L 406.653348 -188.700006 
L 407.158816 -190.449095 
L 407.699537 -192.198183 
L 408.275023 -193.947272 
L 408.881947 -195.696361 
L 409.514554 -197.44545 
L 410.165243 -199.194538 
L 410.82525 -200.943627 
L 411.485394 -202.692716 
L 412.136831 -204.441805 
L 412.771762 -206.190893 
L 413.384054 -207.939982 
L 413.969733 -209.689071 
L 414.527323 -211.438159 
L 415.058017 -213.187248 
L 415.565665 -214.936337 
L 416.056603 -216.685426 
L 416.539313 -218.434514 
L 417.023968 -220.183603 
L 417.521866 -221.932692 
L 418.044803 -223.681781 
L 418.604423 -225.430869 
L 419.21157 -227.179958 
L 419.875694 -228.929047 
L 420.604333 -230.678136 
L 421.402699 -232.427224 
L 422.273393 -234.176313 
L 423.216257 -235.925402 
L 424.228374 -237.67449 
L 425.304208 -239.423579 
L 426.435876 -241.172668 
L 427.613535 -242.921757 
L 428.825862 -244.670845 
L 430.060593 -246.419934 
L 431.305098 -248.169023 
L 432.546955 -249.918112 
L 433.774493 -251.6672 
L 434.977274 -253.416289 
L 436.146491 -255.165378 
L 437.27526 -256.914467 
L 438.358795 -258.663555 
L 439.39446 -260.412644 
L 440.381699 -262.161733 
L 441.321854 -263.910822 
L 442.217882 -265.65991 
L 443.074001 -267.408999 
L 443.895281 -269.158088 
L 444.687213 -270.907176 
L 445.455284 -272.656265 
L 446.204581 -274.405354 
L 446.939451 -276.154443 
L 447.663236 -277.903531 
L 469.294264 -277.903531 
L 469.294264 -277.903531 
L 470.018049 -276.154443 
L 470.752919 -274.405354 
L 471.502216 -272.656265 
L 472.270287 -270.907176 
L 473.062219 -269.158088 
L 473.883499 -267.408999 
L 474.739618 -265.65991 
L 475.635646 -263.910822 
L 476.575801 -262.161733 
L 477.56304 -260.412644 
L 478.598705 -258.663555 
L 479.68224 -256.914467 
L 480.811009 -255.165378 
L 481.980226 -253.416289 
L 483.183007 -251.6672 
L 484.410545 -249.918112 
L 485.652402 -248.169023 
L 486.896907 -246.419934 
L 488.131638 -244.670845 
L 489.343965 -242.921757 
L 490.521624 -241.172668 
L 491.653292 -239.423579 
L 492.729126 -237.67449 
L 493.741243 -235.925402 
L 494.684107 -234.176313 
L 495.554801 -232.427224 
L 496.353167 -230.678136 
L 497.081806 -228.929047 
L 497.74593 -227.179958 
L 498.353077 -225.430869 
L 498.912697 -223.681781 
L 499.435634 -221.932692 
L 499.933532 -220.183603 
L 500.418187 -218.434514 
L 500.900897 -216.685426 
L 501.391835 -214.936337 
L 501.899483 -213.187248 
L 502.430177 -211.438159 
L 502.987767 -209.689071 
L 503.573446 -207.939982 
L 504.185738 -206.190893 
L 504.820669 -204.441805 
L 505.472106 -202.692716 
L 506.13225 -200.943627 
L 506.792257 -199.194538 
L 507.442946 -197.44545 
L 508.075553 -195.696361 
L 508.682477 -193.947272 
L 509.257963 -192.198183 
L 509.798684 -190.449095 
L 510.304152 -188.700006 
L 510.776956 -186.950917 
L 511.222766 -185.201828 
L 511.650119 -183.45274 
L 512.06999 -181.703651 
L 512.495149 -179.954562 
L 512.939366 -178.205473 
L 513.416493 -176.456385 
L 513.939485 -174.707296 
L 514.519423 -172.958207 
L 515.164589 -171.209119 
L 515.879671 -169.46003 
L 516.665125 -167.710941 
L 517.516745 -165.961852 
L 518.42547 -164.212764 
L 519.377427 -162.463675 
L 520.354224 -160.714586 
L 521.33345 -158.965497 
L 522.289392 -157.216409 
L 523.193887 -155.46732 
L 524.017297 -153.718231 
L 524.729547 -151.969142 
L 525.30117 -150.220054 
L 525.704328 -148.470965 
L 525.91375 -146.721876 
L 525.907571 -144.972788 
L 525.668021 -143.223699 
L 525.181961 -141.47461 
L 524.44125 -139.725521 
L 523.44293 -137.976433 
L 522.189244 -136.227344 
L 520.687488 -134.478255 
L 518.94971 -132.729166 
L 516.992289 -130.980078 
L 514.835387 -129.230989 
L 512.502335 -127.4819 
L 510.018952 -125.732811 
L 507.412827 -123.983723 
L 504.712606 -122.234634 
L 501.947285 -120.485545 
L 499.14555 -118.736456 
L 496.335168 -116.987368 
L 493.54246 -115.238279 
L 490.791846 -113.48919 
L 488.105487 -111.740102 
L 485.50302 -109.991013 
L 483.00138 -108.241924 
L 480.614706 -106.492835 
L 478.354332 -104.743747 
z
" style="stroke: #484848; stroke-width: 1.25"/>
    </defs>
    <g clip-path="url(#p21b4519f19)">
     <use xlink:href="#mfd200d0689" x="0" y="396" style="fill: #e2c137; stroke: #484848; stroke-width: 1.25"/>
    </g>
   </g>
   <g id="FillBetweenPolyCollection_4">
    <defs>
     <path id="m0d871caa7c" d="M 629.49918 -94.557877 
L 624.63332 -94.557877 
L 624.117192 -97.232954 
L 623.507102 -99.908031 
L 622.786478 -102.583108 
L 621.936857 -105.258184 
L 620.938692 -107.933261 
L 619.772726 -110.608338 
L 618.422033 -113.283415 
L 616.874667 -115.958492 
L 615.126724 -118.633569 
L 613.185439 -121.308646 
L 611.071779 -123.983723 
L 608.821912 -126.6588 
L 606.486969 -129.333876 
L 604.130743 -132.008953 
L 601.825235 -134.68403 
L 599.644402 -137.359107 
L 597.656844 -140.034184 
L 595.918419 -142.709261 
L 594.46594 -145.384338 
L 593.3129 -148.059415 
L 592.44793 -150.734492 
L 591.83612 -153.409568 
L 591.422912 -156.084645 
L 591.139791 -158.759722 
L 590.91081 -161.434799 
L 590.658963 -164.109876 
L 590.311658 -166.784953 
L 589.804882 -169.46003 
L 589.086058 -172.135107 
L 588.115883 -174.810184 
L 586.869564 -177.48526 
L 585.337841 -180.160337 
L 583.527967 -182.835414 
L 581.464513 -185.510491 
L 579.189645 -188.185568 
L 576.762321 -190.860645 
L 574.255913 -193.535722 
L 571.753938 -196.210799 
L 569.34394 -198.885876 
L 567.109984 -201.560952 
L 565.124648 -204.236029 
L 563.441664 -206.911106 
L 562.090468 -209.586183 
L 561.073719 -212.26126 
L 560.368475 -214.936337 
L 559.931076 -217.611414 
L 559.705112 -220.286491 
L 559.63125 -222.961568 
L 559.657249 -225.636644 
L 559.74638 -228.311721 
L 559.882731 -230.986798 
L 560.072411 -233.661875 
L 560.340491 -236.336952 
L 560.724351 -239.012029 
L 561.264807 -241.687106 
L 561.996849 -244.362183 
L 562.941827 -247.03726 
L 564.102557 -249.712336 
L 565.462173 -252.387413 
L 566.986694 -255.06249 
L 568.630552 -257.737567 
L 570.343757 -260.412644 
L 572.079184 -263.087721 
L 573.798597 -265.762798 
L 575.476446 -268.437875 
L 577.101053 -271.112952 
L 578.673387 -273.788028 
L 580.204065 -276.463105 
L 581.70949 -279.138182 
L 583.208017 -281.813259 
L 584.716872 -284.488336 
L 586.250215 -287.163413 
L 587.818406 -289.83849 
L 589.428233 -292.513567 
L 591.083696 -295.188644 
L 592.786893 -297.86372 
L 594.53867 -300.538797 
L 596.338821 -303.213874 
L 598.185854 -305.888951 
L 600.076429 -308.564028 
L 602.004683 -311.239105 
L 603.961642 -313.914182 
L 605.934873 -316.589259 
L 607.908447 -319.264336 
L 609.863258 -321.939412 
L 611.777659 -324.614489 
L 613.628394 -327.289566 
L 615.3918 -329.964643 
L 617.045205 -332.63972 
L 618.568449 -335.314797 
L 619.945385 -337.989874 
L 621.165179 -340.664951 
L 622.22322 -343.340028 
L 623.121467 -346.015104 
L 623.868147 -348.690181 
L 624.476806 -351.365258 
L 624.964842 -354.040335 
L 625.351732 -356.715412 
L 625.657217 -359.390489 
L 628.475283 -359.390489 
L 628.475283 -359.390489 
L 628.780768 -356.715412 
L 629.167658 -354.040335 
L 629.655694 -351.365258 
L 630.264353 -348.690181 
L 631.011033 -346.015104 
L 631.90928 -343.340028 
L 632.967321 -340.664951 
L 634.187115 -337.989874 
L 635.564051 -335.314797 
L 637.087295 -332.63972 
L 638.7407 -329.964643 
L 640.504106 -327.289566 
L 642.354841 -324.614489 
L 644.269242 -321.939412 
L 646.224053 -319.264336 
L 648.197627 -316.589259 
L 650.170858 -313.914182 
L 652.127817 -311.239105 
L 654.056071 -308.564028 
L 655.946646 -305.888951 
L 657.793679 -303.213874 
L 659.59383 -300.538797 
L 661.345607 -297.86372 
L 663.048804 -295.188644 
L 664.704267 -292.513567 
L 666.314094 -289.83849 
L 667.882285 -287.163413 
L 669.415628 -284.488336 
L 670.924483 -281.813259 
L 672.42301 -279.138182 
L 673.928435 -276.463105 
L 675.459113 -273.788028 
L 677.031447 -271.112952 
L 678.656054 -268.437875 
L 680.333903 -265.762798 
L 682.053316 -263.087721 
L 683.788743 -260.412644 
L 685.501948 -257.737567 
L 687.145806 -255.06249 
L 688.670327 -252.387413 
L 690.029943 -249.712336 
L 691.190673 -247.03726 
L 692.135651 -244.362183 
L 692.867693 -241.687106 
L 693.408149 -239.012029 
L 693.792009 -236.336952 
L 694.060089 -233.661875 
L 694.249769 -230.986798 
L 694.38612 -228.311721 
L 694.475251 -225.636644 
L 694.50125 -222.961568 
L 694.427388 -220.286491 
L 694.201424 -217.611414 
L 693.764025 -214.936337 
L 693.058781 -212.26126 
L 692.042032 -209.586183 
L 690.690836 -206.911106 
L 689.007852 -204.236029 
L 687.022516 -201.560952 
L 684.78856 -198.885876 
L 682.378562 -196.210799 
L 679.876587 -193.535722 
L 677.370179 -190.860645 
L 674.942855 -188.185568 
L 672.667987 -185.510491 
L 670.604533 -182.835414 
L 668.794659 -180.160337 
L 667.262936 -177.48526 
L 666.016617 -174.810184 
L 665.046442 -172.135107 
L 664.327618 -169.46003 
L 663.820842 -166.784953 
L 663.473537 -164.109876 
L 663.22169 -161.434799 
L 662.992709 -158.759722 
L 662.709588 -156.084645 
L 662.29638 -153.409568 
L 661.68457 -150.734492 
L 660.8196 -148.059415 
L 659.66656 -145.384338 
L 658.214081 -142.709261 
L 656.475656 -140.034184 
L 654.488098 -137.359107 
L 652.307265 -134.68403 
L 650.001757 -132.008953 
L 647.645531 -129.333876 
L 645.310588 -126.6588 
L 643.060721 -123.983723 
L 640.947061 -121.308646 
L 639.005776 -118.633569 
L 637.257833 -115.958492 
L 635.710467 -113.283415 
L 634.359774 -110.608338 
L 633.193808 -107.933261 
L 632.195643 -105.258184 
L 631.346022 -102.583108 
L 630.625398 -99.908031 
L 630.015308 -97.232954 
L 629.49918 -94.557877 
z
" style="stroke: #484848; stroke-width: 1.25"/>
    </defs>
    <g clip-path="url(#p21b4519f19)">
     <use xlink:href="#m0d871caa7c" x="0" y="396" style="fill: #477ca8; stroke: #484848; stroke-width: 1.25"/>
    </g>
   </g>
   <g id="line2d_17">
    <path d="M 56.261479 326.906797 
L 186.346021 326.906797 
" clip-path="url(#p21b4519f19)" style="fill: none; stroke-dasharray: 1.5625,0.9375; stroke-dashoffset: 0; stroke: #484848; stroke-width: 1.25"/>
   </g>
   <g id="line2d_18">
    <path d="M 56.261479 326.906797 
L 186.346021 326.906797 
" clip-path="url(#p21b4519f19)" style="fill: none; stroke-dasharray: 3.125,1.25; stroke-dashoffset: 0; stroke: #484848; stroke-width: 1.25"/>
   </g>
   <g id="line2d_19">
    <path d="M 67.044037 316.720928 
L 175.563463 316.720928 
" clip-path="url(#p21b4519f19)" style="fill: none; stroke-dasharray: 1.5625,0.9375; stroke-dashoffset: 0; stroke: #484848; stroke-width: 1.25"/>
   </g>
   <g id="line2d_20">
    <path d="M 222.45625 291.256253 
L 357.32625 291.256253 
" clip-path="url(#p21b4519f19)" style="fill: none; stroke-dasharray: 1.5625,0.9375; stroke-dashoffset: 0; stroke: #484848; stroke-width: 1.25"/>
   </g>
   <g id="line2d_21">
    <path d="M 222.45625 291.256253 
L 357.32625 291.256253 
" clip-path="url(#p21b4519f19)" style="fill: none; stroke-dasharray: 3.125,1.25; stroke-dashoffset: 0; stroke: #484848; stroke-width: 1.25"/>
   </g>
   <g id="line2d_22">
    <path d="M 249.162371 286.163319 
L 330.620129 286.163319 
" clip-path="url(#p21b4519f19)" style="fill: none; stroke-dasharray: 1.5625,0.9375; stroke-dashoffset: 0; stroke: #484848; stroke-width: 1.25"/>
   </g>
   <g id="line2d_23">
    <path d="M 391.368106 253.059242 
L 525.589394 253.059242 
" clip-path="url(#p21b4519f19)" style="fill: none; stroke-dasharray: 1.5625,0.9375; stroke-dashoffset: 0; stroke: #484848; stroke-width: 1.25"/>
   </g>
   <g id="line2d_24">
    <path d="M 403.41795 219.955166 
L 513.53955 219.955166 
" clip-path="url(#p21b4519f19)" style="fill: none; stroke-dasharray: 3.125,1.25; stroke-dashoffset: 0; stroke: #484848; stroke-width: 1.25"/>
   </g>
   <g id="line2d_25">
    <path d="M 414.605366 184.304622 
L 502.352134 184.304622 
" clip-path="url(#p21b4519f19)" style="fill: none; stroke-dasharray: 1.5625,0.9375; stroke-dashoffset: 0; stroke: #484848; stroke-width: 1.25"/>
   </g>
   <g id="line2d_26">
    <path d="M 576.32852 204.676361 
L 677.80398 204.676361 
" clip-path="url(#p21b4519f19)" style="fill: none; stroke-dasharray: 1.5625,0.9375; stroke-dashoffset: 0; stroke: #484848; stroke-width: 1.25"/>
   </g>
   <g id="line2d_27">
    <path d="M 559.701815 169.025817 
L 694.430685 169.025817 
" clip-path="url(#p21b4519f19)" style="fill: none; stroke-dasharray: 3.125,1.25; stroke-dashoffset: 0; stroke: #484848; stroke-width: 1.25"/>
   </g>
   <g id="line2d_28">
    <path d="M 571.778821 133.375273 
L 682.353679 133.375273 
" clip-path="url(#p21b4519f19)" style="fill: none; stroke-dasharray: 1.5625,0.9375; stroke-dashoffset: 0; stroke: #484848; stroke-width: 1.25"/>
   </g>
   <g id="patch_3">
    <path d="M 37.01 346.769243 
L 37.01 21.84 
" style="fill: none; stroke: #000000; stroke-width: 0.8; stroke-linejoin: miter; stroke-linecap: square"/>
   </g>
   <g id="patch_4">
    <path d="M 37.01 346.769243 
L 711.36 346.769243 
" style="fill: none; stroke: #000000; stroke-width: 0.8; stroke-linejoin: miter; stroke-linecap: square"/>
   </g>
   <g id="text_13">
    <!-- Age distribution by group (trimmed) -->
    <g transform="translate(287.33275 15.84) scale(0.096 -0.096)">
     <defs>
      <path id="DejaVuSans-62" d="M 3116 1747 
Q 3116 2381 2855 2742 
Q 2594 3103 2138 3103 
Q 1681 3103 1420 2742 
Q 1159 2381 1159 1747 
Q 1159 1113 1420 752 
Q 1681 391 2138 391 
Q 2594 391 2855 752 
Q 3116 1113 3116 1747 
z
M 1159 2969 
Q 1341 3281 1617 3432 
Q 1894 3584 2278 3584 
Q 2916 3584 3314 3078 
Q 3713 2572 3713 1747 
Q 3713 922 3314 415 
Q 2916 -91 2278 -91 
Q 1894 -91 1617 61 
Q 1341 213 1159 525 
L 1159 0 
L 581 0 
L 581 4863 
L 1159 4863 
L 1159 2969 
z
" transform="scale(0.015625)"/>
      <path id="DejaVuSans-6d" d="M 3328 2828 
Q 3544 3216 3844 3400 
Q 4144 3584 4550 3584 
Q 5097 3584 5394 3201 
Q 5691 2819 5691 2113 
L 5691 0 
L 5113 0 
L 5113 2094 
Q 5113 2597 4934 2840 
Q 4756 3084 4391 3084 
Q 3944 3084 3684 2787 
Q 3425 2491 3425 1978 
L 3425 0 
L 2847 0 
L 2847 2094 
Q 2847 2600 2669 2842 
Q 2491 3084 2119 3084 
Q 1678 3084 1418 2786 
Q 1159 2488 1159 1978 
L 1159 0 
L 581 0 
L 581 3500 
L 1159 3500 
L 1159 2956 
Q 1356 3278 1631 3431 
Q 1906 3584 2284 3584 
Q 2666 3584 2933 3390 
Q 3200 3197 3328 2828 
z
" transform="scale(0.015625)"/>
     </defs>
     <use xlink:href="#DejaVuSans-41"/>
     <use xlink:href="#DejaVuSans-67" transform="translate(68.408203 0)"/>
     <use xlink:href="#DejaVuSans-65" transform="translate(131.884766 0)"/>
     <use xlink:href="#DejaVuSans-20" transform="translate(193.408203 0)"/>
     <use xlink:href="#DejaVuSans-64" transform="translate(225.195312 0)"/>
     <use xlink:href="#DejaVuSans-69" transform="translate(288.671875 0)"/>
     <use xlink:href="#DejaVuSans-73" transform="translate(316.455078 0)"/>
     <use xlink:href="#DejaVuSans-74" transform="translate(368.554688 0)"/>
     <use xlink:href="#DejaVuSans-72" transform="translate(407.763672 0)"/>
     <use xlink:href="#DejaVuSans-69" transform="translate(448.876953 0)"/>
     <use xlink:href="#DejaVuSans-62" transform="translate(476.660156 0)"/>
     <use xlink:href="#DejaVuSans-75" transform="translate(540.136719 0)"/>
     <use xlink:href="#DejaVuSans-74" transform="translate(603.515625 0)"/>
     <use xlink:href="#DejaVuSans-69" transform="translate(642.724609 0)"/>
     <use xlink:href="#DejaVuSans-6f" transform="translate(670.507812 0)"/>
     <use xlink:href="#DejaVuSans-6e" transform="translate(731.689453 0)"/>
     <use xlink:href="#DejaVuSans-20" transform="translate(795.068359 0)"/>
     <use xlink:href="#DejaVuSans-62" transform="translate(826.855469 0)"/>
     <use xlink:href="#DejaVuSans-79" transform="translate(890.332031 0)"/>
     <use xlink:href="#DejaVuSans-20" transform="translate(949.511719 0)"/>
     <use xlink:href="#DejaVuSans-67" transform="translate(981.298828 0)"/>
     <use xlink:href="#DejaVuSans-72" transform="translate(1044.775391 0)"/>
     <use xlink:href="#DejaVuSans-6f" transform="translate(1083.638672 0)"/>
     <use xlink:href="#DejaVuSans-75" transform="translate(1144.820312 0)"/>
     <use xlink:href="#DejaVuSans-70" transform="translate(1208.199219 0)"/>
     <use xlink:href="#DejaVuSans-20" transform="translate(1271.675781 0)"/>
     <use xlink:href="#DejaVuSans-28" transform="translate(1303.462891 0)"/>
     <use xlink:href="#DejaVuSans-74" transform="translate(1342.476562 0)"/>
     <use xlink:href="#DejaVuSans-72" transform="translate(1381.685547 0)"/>
     <use xlink:href="#DejaVuSans-69" transform="translate(1422.798828 0)"/>
     <use xlink:href="#DejaVuSans-6d" transform="translate(1450.582031 0)"/>
     <use xlink:href="#DejaVuSans-6d" transform="translate(1547.994141 0)"/>
     <use xlink:href="#DejaVuSans-65" transform="translate(1645.40625 0)"/>
     <use xlink:href="#DejaVuSans-64" transform="translate(1706.929688 0)"/>
     <use xlink:href="#DejaVuSans-29" transform="translate(1770.40625 0)"/>
    </g>
   </g>
  </g>
 </g>
 <defs>
  <clipPath id="p21b4519f19">
   <rect x="37.01" y="21.84" width="674.35" height="324.929243"/>
  </clipPath>
 </defs>
</svg>
