<?xml version="1.0" encoding="utf-8" standalone="no"?>
<!DOCTYPE svg PUBLIC "-//W3C//DTD SVG 1.1//EN"
  "http://www.w3.org/Graphics/SVG/1.1/DTD/svg11.dtd">
<svg xmlns:xlink="http://www.w3.org/1999/xlink" width="720pt" height="396pt" viewBox="0 0 720 396" xmlns="http://www.w3.org/2000/svg" version="1.1">
 <metadata>
  <rdf:RDF xmlns:dc="http://purl.org/dc/elements/1.1/" xmlns:cc="http://creativecommons.org/ns#" xmlns:rdf="http://www.w3.org/1999/02/22-rdf-syntax-ns#">
   <cc:Work>
    <dc:type rdf:resource="http://purl.org/dc/dcmitype/StillImage"/>
    <dc:date>2025-11-07T20:00:05.399882</dc:date>
    <dc:format>image/svg+xml</dc:format>
    <dc:creator>
     <cc:Agent>
      <dc:title>Matplotlib v3.10.7, https://matplotlib.org/</dc:title>
     </cc:Agent>
    </dc:creator>
   </cc:Work>
  </rdf:RDF>
 </metadata>
 <defs>
  <style type="text/css">*{stroke-linejoin: round; stroke-linecap: butt}</style>
 </defs>
 <g id="figure_1">
  <g id="patch_1">
   <path d="M 0 396 
L 720 396 
L 720 0 
L 0 0 
z
" style="fill: #ffffff"/>
  </g>
  <g id="axes_1">
   <g id="patch_2">
    <path d="M 37.01 354.421611 
L 711.36 354.421611 
L 711.36 21.84 
L 37.01 21.84 
z
" style="fill: #ffffff"/>
   </g>
   <g id="matplotlib.axis_1">
    <g id="xtick_1">
     <g id="line2d_1">
      <defs>
       <path id="m785ee901ae" d="M 0 0 
L 0 3.5 
" style="stroke: #000000; stroke-width: 0.8"/>
      </defs>
      <g>
       <use xlink:href="#m785ee901ae" x="121.30375" y="354.421611" style="stroke: #000000; stroke-width: 0.8"/>
      </g>
     </g>
     <g id="text_1">
      <!-- Studenti - secondaria -->
      <g transform="translate(36.779312 382.261008) rotate(-10) scale(0.08 -0.08)">
       <defs>
        <path id="DejaVuSans-53" d="M 3425 4513 
L 3425 3897 
Q 3066 4069 2747 4153 
Q 2428 4238 2131 4238 
Q 1616 4238 1336 4038 
Q 1056 3838 1056 3469 
Q 1056 3159 1242 3001 
Q 1428 2844 1947 2747 
L 2328 2669 
Q 3034 2534 3370 2195 
Q 3706 1856 3706 1288 
Q 3706 609 3251 259 
Q 2797 -91 1919 -91 
Q 1588 -91 1214 -16 
Q 841 59 441 206 
L 441 856 
Q 825 641 1194 531 
Q 1563 422 1919 422 
Q 2459 422 2753 634 
Q 3047 847 3047 1241 
Q 3047 1584 2836 1778 
Q 2625 1972 2144 2069 
L 1759 2144 
Q 1053 2284 737 2584 
Q 422 2884 422 3419 
Q 422 4038 858 4394 
Q 1294 4750 2059 4750 
Q 2388 4750 2728 4690 
Q 3069 4631 3425 4513 
z
" transform="scale(0.015625)"/>
        <path id="DejaVuSans-74" d="M 1172 4494 
L 1172 3500 
L 2356 3500 
L 2356 3053 
L 1172 3053 
L 1172 1153 
Q 1172 725 1289 603 
Q 1406 481 1766 481 
L 2356 481 
L 2356 0 
L 1766 0 
Q 1100 0 847 248 
Q 594 497 594 1153 
L 594 3053 
L 172 3053 
L 172 3500 
L 594 3500 
L 594 4494 
L 1172 4494 
z
" transform="scale(0.015625)"/>
        <path id="DejaVuSans-75" d="M 544 1381 
L 544 3500 
L 1119 3500 
L 1119 1403 
Q 1119 906 1312 657 
Q 1506 409 1894 409 
Q 2359 409 2629 706 
Q 2900 1003 2900 1516 
L 2900 3500 
L 3475 3500 
L 3475 0 
L 2900 0 
L 2900 538 
Q 2691 219 2414 64 
Q 2138 -91 1772 -91 
Q 1169 -91 856 284 
Q 544 659 544 1381 
z
M 1991 3584 
L 1991 3584 
z
" transform="scale(0.015625)"/>
        <path id="DejaVuSans-64" d="M 2906 2969 
L 2906 4863 
L 3481 4863 
L 3481 0 
L 2906 0 
L 2906 525 
Q 2725 213 2448 61 
Q 2172 -91 1784 -91 
Q 1150 -91 751 415 
Q 353 922 353 1747 
Q 353 2572 751 3078 
Q 1150 3584 1784 3584 
Q 2172 3584 2448 3432 
Q 2725 3281 2906 2969 
z
M 947 1747 
Q 947 1113 1208 752 
Q 1469 391 1925 391 
Q 2381 391 2643 752 
Q 2906 1113 2906 1747 
Q 2906 2381 2643 2742 
Q 2381 3103 1925 3103 
Q 1469 3103 1208 2742 
Q 947 2381 947 1747 
z
" transform="scale(0.015625)"/>
        <path id="DejaVuSans-65" d="M 3597 1894 
L 3597 1613 
L 953 1613 
Q 991 1019 1311 708 
Q 1631 397 2203 397 
Q 2534 397 2845 478 
Q 3156 559 3463 722 
L 3463 178 
Q 3153 47 2828 -22 
Q 2503 -91 2169 -91 
Q 1331 -91 842 396 
Q 353 884 353 1716 
Q 353 2575 817 3079 
Q 1281 3584 2069 3584 
Q 2775 3584 3186 3129 
Q 3597 2675 3597 1894 
z
M 3022 2063 
Q 3016 2534 2758 2815 
Q 2500 3097 2075 3097 
Q 1594 3097 1305 2825 
Q 1016 2553 972 2059 
L 3022 2063 
z
" transform="scale(0.015625)"/>
        <path id="DejaVuSans-6e" d="M 3513 2113 
L 3513 0 
L 2938 0 
L 2938 2094 
Q 2938 2591 2744 2837 
Q 2550 3084 2163 3084 
Q 1697 3084 1428 2787 
Q 1159 2491 1159 1978 
L 1159 0 
L 581 0 
L 581 3500 
L 1159 3500 
L 1159 2956 
Q 1366 3272 1645 3428 
Q 1925 3584 2291 3584 
Q 2894 3584 3203 3211 
Q 3513 2838 3513 2113 
z
" transform="scale(0.015625)"/>
        <path id="DejaVuSans-69" d="M 603 3500 
L 1178 3500 
L 1178 0 
L 603 0 
L 603 3500 
z
M 603 4863 
L 1178 4863 
L 1178 4134 
L 603 4134 
L 603 4863 
z
" transform="scale(0.015625)"/>
        <path id="DejaVuSans-20" transform="scale(0.015625)"/>
        <path id="DejaVuSans-2d" d="M 313 2009 
L 1997 2009 
L 1997 1497 
L 313 1497 
L 313 2009 
z
" transform="scale(0.015625)"/>
        <path id="DejaVuSans-73" d="M 2834 3397 
L 2834 2853 
Q 2591 2978 2328 3040 
Q 2066 3103 1784 3103 
Q 1356 3103 1142 2972 
Q 928 2841 928 2578 
Q 928 2378 1081 2264 
Q 1234 2150 1697 2047 
L 1894 2003 
Q 2506 1872 2764 1633 
Q 3022 1394 3022 966 
Q 3022 478 2636 193 
Q 2250 -91 1575 -91 
Q 1294 -91 989 -36 
Q 684 19 347 128 
L 347 722 
Q 666 556 975 473 
Q 1284 391 1588 391 
Q 1994 391 2212 530 
Q 2431 669 2431 922 
Q 2431 1156 2273 1281 
Q 2116 1406 1581 1522 
L 1381 1569 
Q 847 1681 609 1914 
Q 372 2147 372 2553 
Q 372 3047 722 3315 
Q 1072 3584 1716 3584 
Q 2034 3584 2315 3537 
Q 2597 3491 2834 3397 
z
" transform="scale(0.015625)"/>
        <path id="DejaVuSans-63" d="M 3122 3366 
L 3122 2828 
Q 2878 2963 2633 3030 
Q 2388 3097 2138 3097 
Q 1578 3097 1268 2742 
Q 959 2388 959 1747 
Q 959 1106 1268 751 
Q 1578 397 2138 397 
Q 2388 397 2633 464 
Q 2878 531 3122 666 
L 3122 134 
Q 2881 22 2623 -34 
Q 2366 -91 2075 -91 
Q 1284 -91 818 406 
Q 353 903 353 1747 
Q 353 2603 823 3093 
Q 1294 3584 2113 3584 
Q 2378 3584 2631 3529 
Q 2884 3475 3122 3366 
z
" transform="scale(0.015625)"/>
        <path id="DejaVuSans-6f" d="M 1959 3097 
Q 1497 3097 1228 2736 
Q 959 2375 959 1747 
Q 959 1119 1226 758 
Q 1494 397 1959 397 
Q 2419 397 2687 759 
Q 2956 1122 2956 1747 
Q 2956 2369 2687 2733 
Q 2419 3097 1959 3097 
z
M 1959 3584 
Q 2709 3584 3137 3096 
Q 3566 2609 3566 1747 
Q 3566 888 3137 398 
Q 2709 -91 1959 -91 
Q 1206 -91 779 398 
Q 353 888 353 1747 
Q 353 2609 779 3096 
Q 1206 3584 1959 3584 
z
" transform="scale(0.015625)"/>
        <path id="DejaVuSans-61" d="M 2194 1759 
Q 1497 1759 1228 1600 
Q 959 1441 959 1056 
Q 959 750 1161 570 
Q 1363 391 1709 391 
Q 2188 391 2477 730 
Q 2766 1069 2766 1631 
L 2766 1759 
L 2194 1759 
z
M 3341 1997 
L 3341 0 
L 2766 0 
L 2766 531 
Q 2569 213 2275 61 
Q 1981 -91 1556 -91 
Q 1019 -91 701 211 
Q 384 513 384 1019 
Q 384 1609 779 1909 
Q 1175 2209 1959 2209 
L 2766 2209 
L 2766 2266 
Q 2766 2663 2505 2880 
Q 2244 3097 1772 3097 
Q 1472 3097 1187 3025 
Q 903 2953 641 2809 
L 641 3341 
Q 956 3463 1253 3523 
Q 1550 3584 1831 3584 
Q 2591 3584 2966 3190 
Q 3341 2797 3341 1997 
z
" transform="scale(0.015625)"/>
        <path id="DejaVuSans-72" d="M 2631 2963 
Q 2534 3019 2420 3045 
Q 2306 3072 2169 3072 
Q 1681 3072 1420 2755 
Q 1159 2438 1159 1844 
L 1159 0 
L 581 0 
L 581 3500 
L 1159 3500 
L 1159 2956 
Q 1341 3275 1631 3429 
Q 1922 3584 2338 3584 
Q 2397 3584 2469 3576 
Q 2541 3569 2628 3553 
L 2631 2963 
z
" transform="scale(0.015625)"/>
       </defs>
       <use xlink:href="#DejaVuSans-53"/>
       <use xlink:href="#DejaVuSans-74" transform="translate(63.476562 0)"/>
       <use xlink:href="#DejaVuSans-75" transform="translate(102.685547 0)"/>
       <use xlink:href="#DejaVuSans-64" transform="translate(166.064453 0)"/>
       <use xlink:href="#DejaVuSans-65" transform="translate(229.541016 0)"/>
       <use xlink:href="#DejaVuSans-6e" transform="translate(291.064453 0)"/>
       <use xlink:href="#DejaVuSans-74" transform="translate(354.443359 0)"/>
       <use xlink:href="#DejaVuSans-69" transform="translate(393.652344 0)"/>
       <use xlink:href="#DejaVuSans-20" transform="translate(421.435547 0)"/>
       <use xlink:href="#DejaVuSans-2d" transform="translate(453.222656 0)"/>
       <use xlink:href="#DejaVuSans-20" transform="translate(489.306641 0)"/>
       <use xlink:href="#DejaVuSans-73" transform="translate(521.09375 0)"/>
       <use xlink:href="#DejaVuSans-65" transform="translate(573.193359 0)"/>
       <use xlink:href="#DejaVuSans-63" transform="translate(634.716797 0)"/>
       <use xlink:href="#DejaVuSans-6f" transform="translate(689.697266 0)"/>
       <use xlink:href="#DejaVuSans-6e" transform="translate(750.878906 0)"/>
       <use xlink:href="#DejaVuSans-64" transform="translate(814.257812 0)"/>
       <use xlink:href="#DejaVuSans-61" transform="translate(877.734375 0)"/>
       <use xlink:href="#DejaVuSans-72" transform="translate(939.013672 0)"/>
       <use xlink:href="#DejaVuSans-69" transform="translate(980.126953 0)"/>
       <use xlink:href="#DejaVuSans-61" transform="translate(1007.910156 0)"/>
      </g>
     </g>
    </g>
    <g id="xtick_2">
     <g id="line2d_2">
      <g>
       <use xlink:href="#m785ee901ae" x="289.89125" y="354.421611" style="stroke: #000000; stroke-width: 0.8"/>
      </g>
     </g>
     <g id="text_2">
      <!-- Studenti - universitari -->
      <g transform="translate(203.988081 382.504115) rotate(-10) scale(0.08 -0.08)">
       <defs>
        <path id="DejaVuSans-76" d="M 191 3500 
L 800 3500 
L 1894 563 
L 2988 3500 
L 3597 3500 
L 2284 0 
L 1503 0 
L 191 3500 
z
" transform="scale(0.015625)"/>
       </defs>
       <use xlink:href="#DejaVuSans-53"/>
       <use xlink:href="#DejaVuSans-74" transform="translate(63.476562 0)"/>
       <use xlink:href="#DejaVuSans-75" transform="translate(102.685547 0)"/>
       <use xlink:href="#DejaVuSans-64" transform="translate(166.064453 0)"/>
       <use xlink:href="#DejaVuSans-65" transform="translate(229.541016 0)"/>
       <use xlink:href="#DejaVuSans-6e" transform="translate(291.064453 0)"/>
       <use xlink:href="#DejaVuSans-74" transform="translate(354.443359 0)"/>
       <use xlink:href="#DejaVuSans-69" transform="translate(393.652344 0)"/>
       <use xlink:href="#DejaVuSans-20" transform="translate(421.435547 0)"/>
       <use xlink:href="#DejaVuSans-2d" transform="translate(453.222656 0)"/>
       <use xlink:href="#DejaVuSans-20" transform="translate(489.306641 0)"/>
       <use xlink:href="#DejaVuSans-75" transform="translate(521.09375 0)"/>
       <use xlink:href="#DejaVuSans-6e" transform="translate(584.472656 0)"/>
       <use xlink:href="#DejaVuSans-69" transform="translate(647.851562 0)"/>
       <use xlink:href="#DejaVuSans-76" transform="translate(675.634766 0)"/>
       <use xlink:href="#DejaVuSans-65" transform="translate(734.814453 0)"/>
       <use xlink:href="#DejaVuSans-72" transform="translate(796.337891 0)"/>
       <use xlink:href="#DejaVuSans-73" transform="translate(837.451172 0)"/>
       <use xlink:href="#DejaVuSans-69" transform="translate(889.550781 0)"/>
       <use xlink:href="#DejaVuSans-74" transform="translate(917.333984 0)"/>
       <use xlink:href="#DejaVuSans-61" transform="translate(956.542969 0)"/>
       <use xlink:href="#DejaVuSans-72" transform="translate(1017.822266 0)"/>
       <use xlink:href="#DejaVuSans-69" transform="translate(1058.935547 0)"/>
      </g>
     </g>
    </g>
    <g id="xtick_3">
     <g id="line2d_3">
      <g>
       <use xlink:href="#m785ee901ae" x="458.47875" y="354.421611" style="stroke: #000000; stroke-width: 0.8"/>
      </g>
     </g>
     <g id="text_3">
      <!-- Insegnanti - non in servizio -->
      <g transform="translate(351.794906 386.168309) rotate(-10) scale(0.08 -0.08)">
       <defs>
        <path id="DejaVuSans-49" d="M 628 4666 
L 1259 4666 
L 1259 0 
L 628 0 
L 628 4666 
z
" transform="scale(0.015625)"/>
        <path id="DejaVuSans-67" d="M 2906 1791 
Q 2906 2416 2648 2759 
Q 2391 3103 1925 3103 
Q 1463 3103 1205 2759 
Q 947 2416 947 1791 
Q 947 1169 1205 825 
Q 1463 481 1925 481 
Q 2391 481 2648 825 
Q 2906 1169 2906 1791 
z
M 3481 434 
Q 3481 -459 3084 -895 
Q 2688 -1331 1869 -1331 
Q 1566 -1331 1297 -1286 
Q 1028 -1241 775 -1147 
L 775 -588 
Q 1028 -725 1275 -790 
Q 1522 -856 1778 -856 
Q 2344 -856 2625 -561 
Q 2906 -266 2906 331 
L 2906 616 
Q 2728 306 2450 153 
Q 2172 0 1784 0 
Q 1141 0 747 490 
Q 353 981 353 1791 
Q 353 2603 747 3093 
Q 1141 3584 1784 3584 
Q 2172 3584 2450 3431 
Q 2728 3278 2906 2969 
L 2906 3500 
L 3481 3500 
L 3481 434 
z
" transform="scale(0.015625)"/>
        <path id="DejaVuSans-7a" d="M 353 3500 
L 3084 3500 
L 3084 2975 
L 922 459 
L 3084 459 
L 3084 0 
L 275 0 
L 275 525 
L 2438 3041 
L 353 3041 
L 353 3500 
z
" transform="scale(0.015625)"/>
       </defs>
       <use xlink:href="#DejaVuSans-49"/>
       <use xlink:href="#DejaVuSans-6e" transform="translate(29.492188 0)"/>
       <use xlink:href="#DejaVuSans-73" transform="translate(92.871094 0)"/>
       <use xlink:href="#DejaVuSans-65" transform="translate(144.970703 0)"/>
       <use xlink:href="#DejaVuSans-67" transform="translate(206.494141 0)"/>
       <use xlink:href="#DejaVuSans-6e" transform="translate(269.970703 0)"/>
       <use xlink:href="#DejaVuSans-61" transform="translate(333.349609 0)"/>
       <use xlink:href="#DejaVuSans-6e" transform="translate(394.628906 0)"/>
       <use xlink:href="#DejaVuSans-74" transform="translate(458.007812 0)"/>
       <use xlink:href="#DejaVuSans-69" transform="translate(497.216797 0)"/>
       <use xlink:href="#DejaVuSans-20" transform="translate(525 0)"/>
       <use xlink:href="#DejaVuSans-2d" transform="translate(556.787109 0)"/>
       <use xlink:href="#DejaVuSans-20" transform="translate(592.871094 0)"/>
       <use xlink:href="#DejaVuSans-6e" transform="translate(624.658203 0)"/>
       <use xlink:href="#DejaVuSans-6f" transform="translate(688.037109 0)"/>
       <use xlink:href="#DejaVuSans-6e" transform="translate(749.21875 0)"/>
       <use xlink:href="#DejaVuSans-20" transform="translate(812.597656 0)"/>
       <use xlink:href="#DejaVuSans-69" transform="translate(844.384766 0)"/>
       <use xlink:href="#DejaVuSans-6e" transform="translate(872.167969 0)"/>
       <use xlink:href="#DejaVuSans-20" transform="translate(935.546875 0)"/>
       <use xlink:href="#DejaVuSans-73" transform="translate(967.333984 0)"/>
       <use xlink:href="#DejaVuSans-65" transform="translate(1019.433594 0)"/>
       <use xlink:href="#DejaVuSans-72" transform="translate(1080.957031 0)"/>
       <use xlink:href="#DejaVuSans-76" transform="translate(1122.070312 0)"/>
       <use xlink:href="#DejaVuSans-69" transform="translate(1181.25 0)"/>
       <use xlink:href="#DejaVuSans-7a" transform="translate(1209.033203 0)"/>
       <use xlink:href="#DejaVuSans-69" transform="translate(1261.523438 0)"/>
       <use xlink:href="#DejaVuSans-6f" transform="translate(1289.306641 0)"/>
      </g>
     </g>
    </g>
    <g id="xtick_4">
     <g id="line2d_4">
      <g>
       <use xlink:href="#m785ee901ae" x="627.06625" y="354.421611" style="stroke: #000000; stroke-width: 0.8"/>
      </g>
     </g>
     <g id="text_4">
      <!-- Insegnanti - in servizio -->
      <g transform="translate(537.692865 383.116008) rotate(-10) scale(0.08 -0.08)">
       <use xlink:href="#DejaVuSans-49"/>
       <use xlink:href="#DejaVuSans-6e" transform="translate(29.492188 0)"/>
       <use xlink:href="#DejaVuSans-73" transform="translate(92.871094 0)"/>
       <use xlink:href="#DejaVuSans-65" transform="translate(144.970703 0)"/>
       <use xlink:href="#DejaVuSans-67" transform="translate(206.494141 0)"/>
       <use xlink:href="#DejaVuSans-6e" transform="translate(269.970703 0)"/>
       <use xlink:href="#DejaVuSans-61" transform="translate(333.349609 0)"/>
       <use xlink:href="#DejaVuSans-6e" transform="translate(394.628906 0)"/>
       <use xlink:href="#DejaVuSans-74" transform="translate(458.007812 0)"/>
       <use xlink:href="#DejaVuSans-69" transform="translate(497.216797 0)"/>
       <use xlink:href="#DejaVuSans-20" transform="translate(525 0)"/>
       <use xlink:href="#DejaVuSans-2d" transform="translate(556.787109 0)"/>
       <use xlink:href="#DejaVuSans-20" transform="translate(592.871094 0)"/>
       <use xlink:href="#DejaVuSans-69" transform="translate(624.658203 0)"/>
       <use xlink:href="#DejaVuSans-6e" transform="translate(652.441406 0)"/>
       <use xlink:href="#DejaVuSans-20" transform="translate(715.820312 0)"/>
       <use xlink:href="#DejaVuSans-73" transform="translate(747.607422 0)"/>
       <use xlink:href="#DejaVuSans-65" transform="translate(799.707031 0)"/>
       <use xlink:href="#DejaVuSans-72" transform="translate(861.230469 0)"/>
       <use xlink:href="#DejaVuSans-76" transform="translate(902.34375 0)"/>
       <use xlink:href="#DejaVuSans-69" transform="translate(961.523438 0)"/>
       <use xlink:href="#DejaVuSans-7a" transform="translate(989.306641 0)"/>
       <use xlink:href="#DejaVuSans-69" transform="translate(1041.796875 0)"/>
       <use xlink:href="#DejaVuSans-6f" transform="translate(1069.580078 0)"/>
      </g>
     </g>
    </g>
   </g>
   <g id="matplotlib.axis_2">
    <g id="ytick_1">
     <g id="line2d_5">
      <path d="M 37.01 308.026998 
L 711.36 308.026998 
" clip-path="url(#pd60112bed3)" style="fill: none; stroke-dasharray: 2.96,1.28; stroke-dashoffset: 0; stroke: #b0b0b0; stroke-opacity: 0.3; stroke-width: 0.8"/>
     </g>
     <g id="line2d_6">
      <defs>
       <path id="m4abde5bab6" d="M 0 0 
L -3.5 0 
" style="stroke: #000000; stroke-width: 0.8"/>
      </defs>
      <g>
       <use xlink:href="#m4abde5bab6" x="37.01" y="308.026998" style="stroke: #000000; stroke-width: 0.8"/>
      </g>
     </g>
     <g id="text_5">
      <!-- 20 -->
      <g transform="translate(19.83 311.066373) scale(0.08 -0.08)">
       <defs>
        <path id="DejaVuSans-32" d="M 1228 531 
L 3431 531 
L 3431 0 
L 469 0 
L 469 531 
Q 828 903 1448 1529 
Q 2069 2156 2228 2338 
Q 2531 2678 2651 2914 
Q 2772 3150 2772 3378 
Q 2772 3750 2511 3984 
Q 2250 4219 1831 4219 
Q 1534 4219 1204 4116 
Q 875 4013 500 3803 
L 500 4441 
Q 881 4594 1212 4672 
Q 1544 4750 1819 4750 
Q 2544 4750 2975 4387 
Q 3406 4025 3406 3419 
Q 3406 3131 3298 2873 
Q 3191 2616 2906 2266 
Q 2828 2175 2409 1742 
Q 1991 1309 1228 531 
z
" transform="scale(0.015625)"/>
        <path id="DejaVuSans-30" d="M 2034 4250 
Q 1547 4250 1301 3770 
Q 1056 3291 1056 2328 
Q 1056 1369 1301 889 
Q 1547 409 2034 409 
Q 2525 409 2770 889 
Q 3016 1369 3016 2328 
Q 3016 3291 2770 3770 
Q 2525 4250 2034 4250 
z
M 2034 4750 
Q 2819 4750 3233 4129 
Q 3647 3509 3647 2328 
Q 3647 1150 3233 529 
Q 2819 -91 2034 -91 
Q 1250 -91 836 529 
Q 422 1150 422 2328 
Q 422 3509 836 4129 
Q 1250 4750 2034 4750 
z
" transform="scale(0.015625)"/>
       </defs>
       <use xlink:href="#DejaVuSans-32"/>
       <use xlink:href="#DejaVuSans-30" transform="translate(63.623047 0)"/>
      </g>
     </g>
    </g>
    <g id="ytick_2">
     <g id="line2d_7">
      <path d="M 37.01 255.898218 
L 711.36 255.898218 
" clip-path="url(#pd60112bed3)" style="fill: none; stroke-dasharray: 2.96,1.28; stroke-dashoffset: 0; stroke: #b0b0b0; stroke-opacity: 0.3; stroke-width: 0.8"/>
     </g>
     <g id="line2d_8">
      <g>
       <use xlink:href="#m4abde5bab6" x="37.01" y="255.898218" style="stroke: #000000; stroke-width: 0.8"/>
      </g>
     </g>
     <g id="text_6">
      <!-- 30 -->
      <g transform="translate(19.83 258.937593) scale(0.08 -0.08)">
       <defs>
        <path id="DejaVuSans-33" d="M 2597 2516 
Q 3050 2419 3304 2112 
Q 3559 1806 3559 1356 
Q 3559 666 3084 287 
Q 2609 -91 1734 -91 
Q 1441 -91 1130 -33 
Q 819 25 488 141 
L 488 750 
Q 750 597 1062 519 
Q 1375 441 1716 441 
Q 2309 441 2620 675 
Q 2931 909 2931 1356 
Q 2931 1769 2642 2001 
Q 2353 2234 1838 2234 
L 1294 2234 
L 1294 2753 
L 1863 2753 
Q 2328 2753 2575 2939 
Q 2822 3125 2822 3475 
Q 2822 3834 2567 4026 
Q 2313 4219 1838 4219 
Q 1578 4219 1281 4162 
Q 984 4106 628 3988 
L 628 4550 
Q 988 4650 1302 4700 
Q 1616 4750 1894 4750 
Q 2613 4750 3031 4423 
Q 3450 4097 3450 3541 
Q 3450 3153 3228 2886 
Q 3006 2619 2597 2516 
z
" transform="scale(0.015625)"/>
       </defs>
       <use xlink:href="#DejaVuSans-33"/>
       <use xlink:href="#DejaVuSans-30" transform="translate(63.623047 0)"/>
      </g>
     </g>
    </g>
    <g id="ytick_3">
     <g id="line2d_9">
      <path d="M 37.01 203.769439 
L 711.36 203.769439 
" clip-path="url(#pd60112bed3)" style="fill: none; stroke-dasharray: 2.96,1.28; stroke-dashoffset: 0; stroke: #b0b0b0; stroke-opacity: 0.3; stroke-width: 0.8"/>
     </g>
     <g id="line2d_10">
      <g>
       <use xlink:href="#m4abde5bab6" x="37.01" y="203.769439" style="stroke: #000000; stroke-width: 0.8"/>
      </g>
     </g>
     <g id="text_7">
      <!-- 40 -->
      <g transform="translate(19.83 206.808814) scale(0.08 -0.08)">
       <defs>
        <path id="DejaVuSans-34" d="M 2419 4116 
L 825 1625 
L 2419 1625 
L 2419 4116 
z
M 2253 4666 
L 3047 4666 
L 3047 1625 
L 3713 1625 
L 3713 1100 
L 3047 1100 
L 3047 0 
L 2419 0 
L 2419 1100 
L 313 1100 
L 313 1709 
L 2253 4666 
z
" transform="scale(0.015625)"/>
       </defs>
       <use xlink:href="#DejaVuSans-34"/>
       <use xlink:href="#DejaVuSans-30" transform="translate(63.623047 0)"/>
      </g>
     </g>
    </g>
    <g id="ytick_4">
     <g id="line2d_11">
      <path d="M 37.01 151.64066 
L 711.36 151.64066 
" clip-path="url(#pd60112bed3)" style="fill: none; stroke-dasharray: 2.96,1.28; stroke-dashoffset: 0; stroke: #b0b0b0; stroke-opacity: 0.3; stroke-width: 0.8"/>
     </g>
     <g id="line2d_12">
      <g>
       <use xlink:href="#m4abde5bab6" x="37.01" y="151.64066" style="stroke: #000000; stroke-width: 0.8"/>
      </g>
     </g>
     <g id="text_8">
      <!-- 50 -->
      <g transform="translate(19.83 154.680035) scale(0.08 -0.08)">
       <defs>
        <path id="DejaVuSans-35" d="M 691 4666 
L 3169 4666 
L 3169 4134 
L 1269 4134 
L 1269 2991 
Q 1406 3038 1543 3061 
Q 1681 3084 1819 3084 
Q 2600 3084 3056 2656 
Q 3513 2228 3513 1497 
Q 3513 744 3044 326 
Q 2575 -91 1722 -91 
Q 1428 -91 1123 -41 
Q 819 9 494 109 
L 494 744 
Q 775 591 1075 516 
Q 1375 441 1709 441 
Q 2250 441 2565 725 
Q 2881 1009 2881 1497 
Q 2881 1984 2565 2268 
Q 2250 2553 1709 2553 
Q 1456 2553 1204 2497 
Q 953 2441 691 2322 
L 691 4666 
z
" transform="scale(0.015625)"/>
       </defs>
       <use xlink:href="#DejaVuSans-35"/>
       <use xlink:href="#DejaVuSans-30" transform="translate(63.623047 0)"/>
      </g>
     </g>
    </g>
    <g id="ytick_5">
     <g id="line2d_13">
      <path d="M 37.01 99.511881 
L 711.36 99.511881 
" clip-path="url(#pd60112bed3)" style="fill: none; stroke-dasharray: 2.96,1.28; stroke-dashoffset: 0; stroke: #b0b0b0; stroke-opacity: 0.3; stroke-width: 0.8"/>
     </g>
     <g id="line2d_14">
      <g>
       <use xlink:href="#m4abde5bab6" x="37.01" y="99.511881" style="stroke: #000000; stroke-width: 0.8"/>
      </g>
     </g>
     <g id="text_9">
      <!-- 60 -->
      <g transform="translate(19.83 102.551256) scale(0.08 -0.08)">
       <defs>
        <path id="DejaVuSans-36" d="M 2113 2584 
Q 1688 2584 1439 2293 
Q 1191 2003 1191 1497 
Q 1191 994 1439 701 
Q 1688 409 2113 409 
Q 2538 409 2786 701 
Q 3034 994 3034 1497 
Q 3034 2003 2786 2293 
Q 2538 2584 2113 2584 
z
M 3366 4563 
L 3366 3988 
Q 3128 4100 2886 4159 
Q 2644 4219 2406 4219 
Q 1781 4219 1451 3797 
Q 1122 3375 1075 2522 
Q 1259 2794 1537 2939 
Q 1816 3084 2150 3084 
Q 2853 3084 3261 2657 
Q 3669 2231 3669 1497 
Q 3669 778 3244 343 
Q 2819 -91 2113 -91 
Q 1303 -91 875 529 
Q 447 1150 447 2328 
Q 447 3434 972 4092 
Q 1497 4750 2381 4750 
Q 2619 4750 2861 4703 
Q 3103 4656 3366 4563 
z
" transform="scale(0.015625)"/>
       </defs>
       <use xlink:href="#DejaVuSans-36"/>
       <use xlink:href="#DejaVuSans-30" transform="translate(63.623047 0)"/>
      </g>
     </g>
    </g>
    <g id="ytick_6">
     <g id="line2d_15">
      <path d="M 37.01 47.383102 
L 711.36 47.383102 
" clip-path="url(#pd60112bed3)" style="fill: none; stroke-dasharray: 2.96,1.28; stroke-dashoffset: 0; stroke: #b0b0b0; stroke-opacity: 0.3; stroke-width: 0.8"/>
     </g>
     <g id="line2d_16">
      <g>
       <use xlink:href="#m4abde5bab6" x="37.01" y="47.383102" style="stroke: #000000; stroke-width: 0.8"/>
      </g>
     </g>
     <g id="text_10">
      <!-- 70 -->
      <g transform="translate(19.83 50.422477) scale(0.08 -0.08)">
       <defs>
        <path id="DejaVuSans-37" d="M 525 4666 
L 3525 4666 
L 3525 4397 
L 1831 0 
L 1172 0 
L 2766 4134 
L 525 4134 
L 525 4666 
z
" transform="scale(0.015625)"/>
       </defs>
       <use xlink:href="#DejaVuSans-37"/>
       <use xlink:href="#DejaVuSans-30" transform="translate(63.623047 0)"/>
      </g>
     </g>
    </g>
    <g id="text_11">
     <!-- Età (anni) -->
     <g transform="translate(14.16625 207.70268) rotate(-90) scale(0.08 -0.08)">
      <defs>
       <path id="DejaVuSans-45" d="M 628 4666 
L 3578 4666 
L 3578 4134 
L 1259 4134 
L 1259 2753 
L 3481 2753 
L 3481 2222 
L 1259 2222 
L 1259 531 
L 3634 531 
L 3634 0 
L 628 0 
L 628 4666 
z
" transform="scale(0.015625)"/>
       <path id="DejaVuSans-e0" d="M 2194 1759 
Q 1497 1759 1228 1600 
Q 959 1441 959 1056 
Q 959 750 1161 570 
Q 1363 391 1709 391 
Q 2188 391 2477 730 
Q 2766 1069 2766 1631 
L 2766 1759 
L 2194 1759 
z
M 3341 1997 
L 3341 0 
L 2766 0 
L 2766 531 
Q 2569 213 2275 61 
Q 1981 -91 1556 -91 
Q 1019 -91 701 211 
Q 384 513 384 1019 
Q 384 1609 779 1909 
Q 1175 2209 1959 2209 
L 2766 2209 
L 2766 2266 
Q 2766 2663 2505 2880 
Q 2244 3097 1772 3097 
Q 1472 3097 1187 3025 
Q 903 2953 641 2809 
L 641 3341 
Q 956 3463 1253 3523 
Q 1550 3584 1831 3584 
Q 2591 3584 2966 3190 
Q 3341 2797 3341 1997 
z
M 1403 5119 
L 2284 3950 
L 1806 3950 
L 787 5119 
L 1403 5119 
z
" transform="scale(0.015625)"/>
       <path id="DejaVuSans-28" d="M 1984 4856 
Q 1566 4138 1362 3434 
Q 1159 2731 1159 2009 
Q 1159 1288 1364 580 
Q 1569 -128 1984 -844 
L 1484 -844 
Q 1016 -109 783 600 
Q 550 1309 550 2009 
Q 550 2706 781 3412 
Q 1013 4119 1484 4856 
L 1984 4856 
z
" transform="scale(0.015625)"/>
       <path id="DejaVuSans-29" d="M 513 4856 
L 1013 4856 
Q 1481 4119 1714 3412 
Q 1947 2706 1947 2009 
Q 1947 1309 1714 600 
Q 1481 -109 1013 -844 
L 513 -844 
Q 928 -128 1133 580 
Q 1338 1288 1338 2009 
Q 1338 2731 1133 3434 
Q 928 4138 513 4856 
z
" transform="scale(0.015625)"/>
      </defs>
      <use xlink:href="#DejaVuSans-45"/>
      <use xlink:href="#DejaVuSans-74" transform="translate(63.183594 0)"/>
      <use xlink:href="#DejaVuSans-e0" transform="translate(102.392578 0)"/>
      <use xlink:href="#DejaVuSans-20" transform="translate(163.671875 0)"/>
      <use xlink:href="#DejaVuSans-28" transform="translate(195.458984 0)"/>
      <use xlink:href="#DejaVuSans-61" transform="translate(234.472656 0)"/>
      <use xlink:href="#DejaVuSans-6e" transform="translate(295.751953 0)"/>
      <use xlink:href="#DejaVuSans-6e" transform="translate(359.130859 0)"/>
      <use xlink:href="#DejaVuSans-69" transform="translate(422.509766 0)"/>
      <use xlink:href="#DejaVuSans-29" transform="translate(450.292969 0)"/>
     </g>
    </g>
   </g>
   <g id="FillBetweenPolyCollection_1">
    <defs>
     <path id="m03720d0471" d="M 175.620956 -56.695735 
L 66.986544 -56.695735 
L 61.583884 -58.064774 
L 57.570076 -59.433812 
L 55.033771 -60.802851 
L 53.878793 -62.17189 
L 53.86875 -63.540928 
L 54.702027 -64.909967 
L 56.095862 -66.279005 
L 57.855242 -67.648044 
L 59.907033 -69.017083 
L 62.291171 -70.386121 
L 65.115006 -71.75516 
L 68.488914 -73.124199 
L 72.466241 -74.493237 
L 77.006904 -75.862276 
L 81.973601 -77.231315 
L 87.157326 -78.600353 
L 92.319827 -79.969392 
L 97.237658 -81.338431 
L 101.735445 -82.707469 
L 105.702281 -84.076508 
L 109.091755 -85.445547 
L 111.910427 -86.814585 
L 114.201067 -88.183624 
L 116.026066 -89.552662 
L 117.454332 -90.921701 
L 118.552805 -92.29074 
L 119.382147 -93.659778 
L 119.995348 -95.028817 
L 120.437896 -96.397856 
L 120.748473 -97.766894 
L 120.959608 -99.135933 
L 121.098147 -100.504972 
L 121.185608 -101.87401 
L 121.238586 -103.243049 
L 121.269307 -104.612088 
L 121.28633 -105.981126 
L 121.295329 -107.350165 
L 121.299864 -108.719203 
L 121.302039 -110.088242 
L 121.303032 -111.457281 
L 121.303463 -112.826319 
L 121.303641 -114.195358 
L 121.30371 -115.564397 
L 121.303736 -116.933435 
L 121.303746 -118.302474 
L 121.303749 -119.671513 
L 121.30375 -121.040551 
L 121.30375 -122.40959 
L 121.30375 -123.778629 
L 121.30375 -125.147667 
L 121.30375 -126.516706 
L 121.30375 -127.885744 
L 121.30375 -129.254783 
L 121.30375 -130.623822 
L 121.30375 -131.99286 
L 121.30375 -133.361899 
L 121.30375 -134.730938 
L 121.30375 -136.099976 
L 121.30375 -137.469015 
L 121.30375 -138.838054 
L 121.30375 -140.207092 
L 121.30375 -141.576131 
L 121.30375 -142.94517 
L 121.30375 -144.314208 
L 121.30375 -145.683247 
L 121.30375 -147.052286 
L 121.30375 -148.421324 
L 121.30375 -149.790363 
L 121.30375 -151.159401 
L 121.30375 -152.52844 
L 121.30375 -153.897479 
L 121.30375 -155.266517 
L 121.30375 -156.635556 
L 121.30375 -158.004595 
L 121.30375 -159.373633 
L 121.303748 -160.742672 
L 121.303745 -162.111711 
L 121.303734 -163.480749 
L 121.303705 -164.849788 
L 121.303629 -166.218827 
L 121.303438 -167.587865 
L 121.302986 -168.956904 
L 121.301973 -170.325942 
L 121.29982 -171.694981 
L 121.295494 -173.06402 
L 121.287271 -174.433058 
L 121.272501 -175.802097 
L 121.247448 -177.171136 
L 121.207373 -178.540174 
L 121.147006 -179.909213 
L 121.06155 -181.278252 
L 120.94818 -182.64729 
L 120.807796 -184.016329 
L 120.646509 -185.385368 
L 120.476237 -186.754406 
L 120.313849 -188.123445 
L 120.178692 -189.492483 
L 120.088894 -190.861522 
L 120.057396 -192.230561 
L 122.550104 -192.230561 
L 122.550104 -192.230561 
L 122.518606 -190.861522 
L 122.428808 -189.492483 
L 122.293651 -188.123445 
L 122.131263 -186.754406 
L 121.960991 -185.385368 
L 121.799704 -184.016329 
L 121.65932 -182.64729 
L 121.54595 -181.278252 
L 121.460494 -179.909213 
L 121.400127 -178.540174 
L 121.360052 -177.171136 
L 121.334999 -175.802097 
L 121.320229 -174.433058 
L 121.312006 -173.06402 
L 121.30768 -171.694981 
L 121.305527 -170.325942 
L 121.304514 -168.956904 
L 121.304062 -167.587865 
L 121.303871 -166.218827 
L 121.303795 -164.849788 
L 121.303766 -163.480749 
L 121.303755 -162.111711 
L 121.303752 -160.742672 
L 121.30375 -159.373633 
L 121.30375 -158.004595 
L 121.30375 -156.635556 
L 121.30375 -155.266517 
L 121.30375 -153.897479 
L 121.30375 -152.52844 
L 121.30375 -151.159401 
L 121.30375 -149.790363 
L 121.30375 -148.421324 
L 121.30375 -147.052286 
L 121.30375 -145.683247 
L 121.30375 -144.314208 
L 121.30375 -142.94517 
L 121.30375 -141.576131 
L 121.30375 -140.207092 
L 121.30375 -138.838054 
L 121.30375 -137.469015 
L 121.30375 -136.099976 
L 121.30375 -134.730938 
L 121.30375 -133.361899 
L 121.30375 -131.99286 
L 121.30375 -130.623822 
L 121.30375 -129.254783 
L 121.30375 -127.885744 
L 121.30375 -126.516706 
L 121.30375 -125.147667 
L 121.30375 -123.778629 
L 121.30375 -122.40959 
L 121.30375 -121.040551 
L 121.303751 -119.671513 
L 121.303754 -118.302474 
L 121.303764 -116.933435 
L 121.30379 -115.564397 
L 121.303859 -114.195358 
L 121.304037 -112.826319 
L 121.304468 -111.457281 
L 121.305461 -110.088242 
L 121.307636 -108.719203 
L 121.312171 -107.350165 
L 121.32117 -105.981126 
L 121.338193 -104.612088 
L 121.368914 -103.243049 
L 121.421892 -101.87401 
L 121.509353 -100.504972 
L 121.647892 -99.135933 
L 121.859027 -97.766894 
L 122.169604 -96.397856 
L 122.612152 -95.028817 
L 123.225353 -93.659778 
L 124.054695 -92.29074 
L 125.153168 -90.921701 
L 126.581434 -89.552662 
L 128.406433 -88.183624 
L 130.697073 -86.814585 
L 133.515745 -85.445547 
L 136.905219 -84.076508 
L 140.872055 -82.707469 
L 145.369842 -81.338431 
L 150.287673 -79.969392 
L 155.450174 -78.600353 
L 160.633899 -77.231315 
L 165.600596 -75.862276 
L 170.141259 -74.493237 
L 174.118586 -73.124199 
L 177.492494 -71.75516 
L 180.316329 -70.386121 
L 182.700467 -69.017083 
L 184.752258 -67.648044 
L 186.511638 -66.279005 
L 187.905473 -64.909967 
L 188.73875 -63.540928 
L 188.728707 -62.17189 
L 187.573729 -60.802851 
L 185.037424 -59.433812 
L 181.023616 -58.064774 
L 175.620956 -56.695735 
z
" style="stroke: #484848; stroke-width: 1.25"/>
    </defs>
    <g clip-path="url(#pd60112bed3)">
     <use xlink:href="#m03720d0471" x="0" y="396" style="fill: #cb3335; stroke: #484848; stroke-width: 1.25"/>
    </g>
   </g>
   <g id="FillBetweenPolyCollection_2">
    <defs>
     <path id="mff6b75fc8e" d="M 302.976009 -72.334369 
L 276.806491 -72.334369 
L 273.287091 -74.493237 
L 269.193536 -76.652106 
L 264.539016 -78.810975 
L 259.375521 -80.969843 
L 253.80375 -83.128712 
L 247.980925 -85.287581 
L 242.123574 -87.446449 
L 236.502257 -89.605318 
L 231.426045 -91.764186 
L 227.216488 -93.923055 
L 224.173413 -96.081924 
L 222.537489 -98.240792 
L 222.45625 -100.399661 
L 223.960464 -102.55853 
L 226.956091 -104.717398 
L 231.234018 -106.876267 
L 236.495959 -109.035135 
L 242.391599 -111.194004 
L 248.559993 -113.352873 
L 254.667969 -115.511741 
L 260.439707 -117.67061 
L 265.674184 -119.829479 
L 270.250003 -121.988347 
L 274.119505 -124.147216 
L 277.295524 -126.306085 
L 279.834549 -128.464953 
L 281.819615 -130.623822 
L 283.345296 -132.78269 
L 284.506081 -134.941559 
L 285.388475 -137.100428 
L 286.066495 -139.259296 
L 286.599899 -141.418165 
L 287.034344 -143.577034 
L 287.402758 -145.735902 
L 287.727325 -147.894771 
L 288.02167 -150.053639 
L 288.292988 -152.212508 
L 288.543959 -154.371377 
L 288.774398 -156.530245 
L 288.982597 -158.689114 
L 289.166356 -160.847983 
L 289.323703 -163.006851 
L 289.453284 -165.16572 
L 289.554492 -167.324589 
L 289.627359 -169.483457 
L 289.67233 -171.642326 
L 289.690005 -173.801194 
L 289.680952 -175.960063 
L 289.645668 -178.118932 
L 289.584698 -180.2778 
L 289.498885 -182.436669 
L 289.389687 -184.595538 
L 289.259446 -186.754406 
L 289.111531 -188.913275 
L 288.95028 -191.072143 
L 288.780754 -193.231012 
L 288.608358 -195.389881 
L 288.43841 -197.548749 
L 288.275789 -199.707618 
L 288.124695 -201.866487 
L 287.988558 -204.025355 
L 287.870016 -206.184224 
L 287.77088 -208.343093 
L 287.692013 -210.501961 
L 287.633104 -212.66083 
L 287.592443 -214.819698 
L 287.56683 -216.978567 
L 287.551798 -219.137436 
L 287.542244 -221.296304 
L 287.533453 -223.455173 
L 287.522302 -225.614042 
L 287.508354 -227.77291 
L 287.494494 -229.931779 
L 287.486847 -232.090647 
L 287.493893 -234.249516 
L 287.524929 -236.408385 
L 287.588181 -238.567253 
L 287.689028 -240.726122 
L 287.828718 -242.884991 
L 288.003877 -245.043859 
L 288.206882 -247.202728 
L 288.426972 -249.361597 
L 288.6518 -251.520465 
L 288.869087 -253.679334 
L 289.06804 -255.838202 
L 289.240333 -257.997071 
L 289.38056 -260.15594 
L 289.486226 -262.314808 
L 289.55741 -264.473677 
L 289.59629 -266.632546 
L 289.606648 -268.791414 
L 289.593464 -270.950283 
L 289.562586 -273.109151 
L 289.520451 -275.26802 
L 289.473762 -277.426889 
L 289.429096 -279.585757 
L 289.392421 -281.744626 
L 289.368574 -283.903495 
L 289.36079 -286.062363 
L 290.42171 -286.062363 
L 290.42171 -286.062363 
L 290.413926 -283.903495 
L 290.390079 -281.744626 
L 290.353404 -279.585757 
L 290.308738 -277.426889 
L 290.262049 -275.26802 
L 290.219914 -273.109151 
L 290.189036 -270.950283 
L 290.175852 -268.791414 
L 290.18621 -266.632546 
L 290.22509 -264.473677 
L 290.296274 -262.314808 
L 290.40194 -260.15594 
L 290.542167 -257.997071 
L 290.71446 -255.838202 
L 290.913413 -253.679334 
L 291.1307 -251.520465 
L 291.355528 -249.361597 
L 291.575618 -247.202728 
L 291.778623 -245.043859 
L 291.953782 -242.884991 
L 292.093472 -240.726122 
L 292.194319 -238.567253 
L 292.257571 -236.408385 
L 292.288607 -234.249516 
L 292.295653 -232.090647 
L 292.288006 -229.931779 
L 292.274146 -227.77291 
L 292.260198 -225.614042 
L 292.249047 -223.455173 
L 292.240256 -221.296304 
L 292.230702 -219.137436 
L 292.21567 -216.978567 
L 292.190057 -214.819698 
L 292.149396 -212.66083 
L 292.090487 -210.501961 
L 292.01162 -208.343093 
L 291.912484 -206.184224 
L 291.793942 -204.025355 
L 291.657805 -201.866487 
L 291.506711 -199.707618 
L 291.34409 -197.548749 
L 291.174142 -195.389881 
L 291.001746 -193.231012 
L 290.83222 -191.072143 
L 290.670969 -188.913275 
L 290.523054 -186.754406 
L 290.392813 -184.595538 
L 290.283615 -182.436669 
L 290.197802 -180.2778 
L 290.136832 -178.118932 
L 290.101548 -175.960063 
L 290.092495 -173.801194 
L 290.11017 -171.642326 
L 290.155141 -169.483457 
L 290.228008 -167.324589 
L 290.329216 -165.16572 
L 290.458797 -163.006851 
L 290.616144 -160.847983 
L 290.799903 -158.689114 
L 291.008102 -156.530245 
L 291.238541 -154.371377 
L 291.489512 -152.212508 
L 291.76083 -150.053639 
L 292.055175 -147.894771 
L 292.379742 -145.735902 
L 292.748156 -143.577034 
L 293.182601 -141.418165 
L 293.716005 -139.259296 
L 294.394025 -137.100428 
L 295.276419 -134.941559 
L 296.437204 -132.78269 
L 297.962885 -130.623822 
L 299.947951 -128.464953 
L 302.486976 -126.306085 
L 305.662995 -124.147216 
L 309.532497 -121.988347 
L 314.108316 -119.829479 
L 319.342793 -117.67061 
L 325.114531 -115.511741 
L 331.222507 -113.352873 
L 337.390901 -111.194004 
L 343.286541 -109.035135 
L 348.548482 -106.876267 
L 352.826409 -104.717398 
L 355.822036 -102.55853 
L 357.32625 -100.399661 
L 357.245011 -98.240792 
L 355.609087 -96.081924 
L 352.566012 -93.923055 
L 348.356455 -91.764186 
L 343.280243 -89.605318 
L 337.658926 -87.446449 
L 331.801575 -85.287581 
L 325.97875 -83.128712 
L 320.406979 -80.969843 
L 315.243484 -78.810975 
L 310.588964 -76.652106 
L 306.495409 -74.493237 
L 302.976009 -72.334369 
z
" style="stroke: #484848; stroke-width: 1.25"/>
    </defs>
    <g clip-path="url(#pd60112bed3)">
     <use xlink:href="#mff6b75fc8e" x="0" y="396" style="fill: #59a257; stroke: #484848; stroke-width: 1.25"/>
    </g>
   </g>
   <g id="FillBetweenPolyCollection_3">
    <defs>
     <path id="mea4eff6fb0" d="M 478.354332 -98.398758 
L 438.603168 -98.398758 
L 436.342794 -100.18904 
L 433.95612 -101.979321 
L 431.45448 -103.769602 
L 428.852013 -105.559884 
L 426.165654 -107.350165 
L 423.41504 -109.140446 
L 420.622332 -110.930727 
L 417.81195 -112.721009 
L 415.010215 -114.51129 
L 412.244894 -116.301571 
L 409.544673 -118.091853 
L 406.938548 -119.882134 
L 404.455165 -121.672415 
L 402.122113 -123.462697 
L 399.965211 -125.252978 
L 398.00779 -127.043259 
L 396.270012 -128.83354 
L 394.768256 -130.623822 
L 393.51457 -132.414103 
L 392.51625 -134.204384 
L 391.775539 -135.994666 
L 391.289479 -137.784947 
L 391.049929 -139.575228 
L 391.04375 -141.36551 
L 391.253172 -143.155791 
L 391.65633 -144.946072 
L 392.227953 -146.736354 
L 392.940203 -148.526635 
L 393.763613 -150.316916 
L 394.668108 -152.107197 
L 395.62405 -153.897479 
L 396.603276 -155.68776 
L 397.580073 -157.478041 
L 398.53203 -159.268323 
L 399.440755 -161.058604 
L 400.292375 -162.848885 
L 401.077829 -164.639167 
L 401.792911 -166.429448 
L 402.438077 -168.219729 
L 403.018015 -170.01001 
L 403.541007 -171.800292 
L 404.018134 -173.590573 
L 404.462351 -175.380854 
L 404.88751 -177.171136 
L 405.307381 -178.961417 
L 405.734734 -180.751698 
L 406.180544 -182.54198 
L 406.653348 -184.332261 
L 407.158816 -186.122542 
L 407.699537 -187.912824 
L 408.275023 -189.703105 
L 408.881947 -191.493386 
L 409.514554 -193.283667 
L 410.165243 -195.073949 
L 410.82525 -196.86423 
L 411.485394 -198.654511 
L 412.136831 -200.444793 
L 412.771762 -202.235074 
L 413.384054 -204.025355 
L 413.969733 -205.815637 
L 414.527323 -207.605918 
L 415.058017 -209.396199 
L 415.565665 -211.18648 
L 416.056603 -212.976762 
L 416.539313 -214.767043 
L 417.023968 -216.557324 
L 417.521866 -218.347606 
L 418.044803 -220.137887 
L 418.604423 -221.928168 
L 419.21157 -223.71845 
L 419.875694 -225.508731 
L 420.604333 -227.299012 
L 421.402699 -229.089293 
L 422.273393 -230.879575 
L 423.216257 -232.669856 
L 424.228374 -234.460137 
L 425.304208 -236.250419 
L 426.435876 -238.0407 
L 427.613535 -239.830981 
L 428.825862 -241.621263 
L 430.060593 -243.411544 
L 431.305098 -245.201825 
L 432.546955 -246.992107 
L 433.774493 -248.782388 
L 434.977274 -250.572669 
L 436.146491 -252.36295 
L 437.27526 -254.153232 
L 438.358795 -255.943513 
L 439.39446 -257.733794 
L 440.381699 -259.524076 
L 441.321854 -261.314357 
L 442.217882 -263.104638 
L 443.074001 -264.89492 
L 443.895281 -266.685201 
L 444.687213 -268.475482 
L 445.455284 -270.265763 
L 446.204581 -272.056045 
L 446.939451 -273.846326 
L 447.663236 -275.636607 
L 469.294264 -275.636607 
L 469.294264 -275.636607 
L 470.018049 -273.846326 
L 470.752919 -272.056045 
L 471.502216 -270.265763 
L 472.270287 -268.475482 
L 473.062219 -266.685201 
L 473.883499 -264.89492 
L 474.739618 -263.104638 
L 475.635646 -261.314357 
L 476.575801 -259.524076 
L 477.56304 -257.733794 
L 478.598705 -255.943513 
L 479.68224 -254.153232 
L 480.811009 -252.36295 
L 481.980226 -250.572669 
L 483.183007 -248.782388 
L 484.410545 -246.992107 
L 485.652402 -245.201825 
L 486.896907 -243.411544 
L 488.131638 -241.621263 
L 489.343965 -239.830981 
L 490.521624 -238.0407 
L 491.653292 -236.250419 
L 492.729126 -234.460137 
L 493.741243 -232.669856 
L 494.684107 -230.879575 
L 495.554801 -229.089293 
L 496.353167 -227.299012 
L 497.081806 -225.508731 
L 497.74593 -223.71845 
L 498.353077 -221.928168 
L 498.912697 -220.137887 
L 499.435634 -218.347606 
L 499.933532 -216.557324 
L 500.418187 -214.767043 
L 500.900897 -212.976762 
L 501.391835 -211.18648 
L 501.899483 -209.396199 
L 502.430177 -207.605918 
L 502.987767 -205.815637 
L 503.573446 -204.025355 
L 504.185738 -202.235074 
L 504.820669 -200.444793 
L 505.472106 -198.654511 
L 506.13225 -196.86423 
L 506.792257 -195.073949 
L 507.442946 -193.283667 
L 508.075553 -191.493386 
L 508.682477 -189.703105 
L 509.257963 -187.912824 
L 509.798684 -186.122542 
L 510.304152 -184.332261 
L 510.776956 -182.54198 
L 511.222766 -180.751698 
L 511.650119 -178.961417 
L 512.06999 -177.171136 
L 512.495149 -175.380854 
L 512.939366 -173.590573 
L 513.416493 -171.800292 
L 513.939485 -170.01001 
L 514.519423 -168.219729 
L 515.164589 -166.429448 
L 515.879671 -164.639167 
L 516.665125 -162.848885 
L 517.516745 -161.058604 
L 518.42547 -159.268323 
L 519.377427 -157.478041 
L 520.354224 -155.68776 
L 521.33345 -153.897479 
L 522.289392 -152.107197 
L 523.193887 -150.316916 
L 524.017297 -148.526635 
L 524.729547 -146.736354 
L 525.30117 -144.946072 
L 525.704328 -143.155791 
L 525.91375 -141.36551 
L 525.907571 -139.575228 
L 525.668021 -137.784947 
L 525.181961 -135.994666 
L 524.44125 -134.204384 
L 523.44293 -132.414103 
L 522.189244 -130.623822 
L 520.687488 -128.83354 
L 518.94971 -127.043259 
L 516.992289 -125.252978 
L 514.835387 -123.462697 
L 512.502335 -121.672415 
L 510.018952 -119.882134 
L 507.412827 -118.091853 
L 504.712606 -116.301571 
L 501.947285 -114.51129 
L 499.14555 -112.721009 
L 496.335168 -110.930727 
L 493.54246 -109.140446 
L 490.791846 -107.350165 
L 488.105487 -105.559884 
L 485.50302 -103.769602 
L 483.00138 -101.979321 
L 480.614706 -100.18904 
L 478.354332 -98.398758 
z
" style="stroke: #484848; stroke-width: 1.25"/>
    </defs>
    <g clip-path="url(#pd60112bed3)">
     <use xlink:href="#mea4eff6fb0" x="0" y="396" style="fill: #e2c137; stroke: #484848; stroke-width: 1.25"/>
    </g>
   </g>
   <g id="FillBetweenPolyCollection_4">
    <defs>
     <path id="me97c85cbbd" d="M 629.49918 -87.973002 
L 624.63332 -87.973002 
L 624.117192 -90.71108 
L 623.507102 -93.449157 
L 622.786478 -96.187234 
L 621.936857 -98.925312 
L 620.938692 -101.663389 
L 619.772726 -104.401466 
L 618.422033 -107.139543 
L 616.874667 -109.877621 
L 615.126724 -112.615698 
L 613.185439 -115.353775 
L 611.071779 -118.091853 
L 608.821912 -120.82993 
L 606.486969 -123.568007 
L 604.130743 -126.306085 
L 601.825235 -129.044162 
L 599.644402 -131.782239 
L 597.656844 -134.520316 
L 595.918419 -137.258394 
L 594.46594 -139.996471 
L 593.3129 -142.734548 
L 592.44793 -145.472626 
L 591.83612 -148.210703 
L 591.422912 -150.94878 
L 591.139791 -153.686857 
L 590.91081 -156.424935 
L 590.658963 -159.163012 
L 590.311658 -161.901089 
L 589.804882 -164.639167 
L 589.086058 -167.377244 
L 588.115883 -170.115321 
L 586.869564 -172.853398 
L 585.337841 -175.591476 
L 583.527967 -178.329553 
L 581.464513 -181.06763 
L 579.189645 -183.805708 
L 576.762321 -186.543785 
L 574.255913 -189.281862 
L 571.753938 -192.019939 
L 569.34394 -194.758017 
L 567.109984 -197.496094 
L 565.124648 -200.234171 
L 563.441664 -202.972249 
L 562.090468 -205.710326 
L 561.073719 -208.448403 
L 560.368475 -211.18648 
L 559.931076 -213.924558 
L 559.705112 -216.662635 
L 559.63125 -219.400712 
L 559.657249 -222.13879 
L 559.74638 -224.876867 
L 559.882731 -227.614944 
L 560.072411 -230.353021 
L 560.340491 -233.091099 
L 560.724351 -235.829176 
L 561.264807 -238.567253 
L 561.996849 -241.305331 
L 562.941827 -244.043408 
L 564.102557 -246.781485 
L 565.462173 -249.519563 
L 566.986694 -252.25764 
L 568.630552 -254.995717 
L 570.343757 -257.733794 
L 572.079184 -260.471872 
L 573.798597 -263.209949 
L 575.476446 -265.948026 
L 577.101053 -268.686104 
L 578.673387 -271.424181 
L 580.204065 -274.162258 
L 581.70949 -276.900335 
L 583.208017 -279.638413 
L 584.716872 -282.37649 
L 586.250215 -285.114567 
L 587.818406 -287.852645 
L 589.428233 -290.590722 
L 591.083696 -293.328799 
L 592.786893 -296.066876 
L 594.53867 -298.804954 
L 596.338821 -301.543031 
L 598.185854 -304.281108 
L 600.076429 -307.019186 
L 602.004683 -309.757263 
L 603.961642 -312.49534 
L 605.934873 -315.233417 
L 607.908447 -317.971495 
L 609.863258 -320.709572 
L 611.777659 -323.447649 
L 613.628394 -326.185727 
L 615.3918 -328.923804 
L 617.045205 -331.661881 
L 618.568449 -334.399958 
L 619.945385 -337.138036 
L 621.165179 -339.876113 
L 622.22322 -342.61419 
L 623.121467 -345.352268 
L 623.868147 -348.090345 
L 624.476806 -350.828422 
L 624.964842 -353.566499 
L 625.351732 -356.304577 
L 625.657217 -359.042654 
L 628.475283 -359.042654 
L 628.475283 -359.042654 
L 628.780768 -356.304577 
L 629.167658 -353.566499 
L 629.655694 -350.828422 
L 630.264353 -348.090345 
L 631.011033 -345.352268 
L 631.90928 -342.61419 
L 632.967321 -339.876113 
L 634.187115 -337.138036 
L 635.564051 -334.399958 
L 637.087295 -331.661881 
L 638.7407 -328.923804 
L 640.504106 -326.185727 
L 642.354841 -323.447649 
L 644.269242 -320.709572 
L 646.224053 -317.971495 
L 648.197627 -315.233417 
L 650.170858 -312.49534 
L 652.127817 -309.757263 
L 654.056071 -307.019186 
L 655.946646 -304.281108 
L 657.793679 -301.543031 
L 659.59383 -298.804954 
L 661.345607 -296.066876 
L 663.048804 -293.328799 
L 664.704267 -290.590722 
L 666.314094 -287.852645 
L 667.882285 -285.114567 
L 669.415628 -282.37649 
L 670.924483 -279.638413 
L 672.42301 -276.900335 
L 673.928435 -274.162258 
L 675.459113 -271.424181 
L 677.031447 -268.686104 
L 678.656054 -265.948026 
L 680.333903 -263.209949 
L 682.053316 -260.471872 
L 683.788743 -257.733794 
L 685.501948 -254.995717 
L 687.145806 -252.25764 
L 688.670327 -249.519563 
L 690.029943 -246.781485 
L 691.190673 -244.043408 
L 692.135651 -241.305331 
L 692.867693 -238.567253 
L 693.408149 -235.829176 
L 693.792009 -233.091099 
L 694.060089 -230.353021 
L 694.249769 -227.614944 
L 694.38612 -224.876867 
L 694.475251 -222.13879 
L 694.50125 -219.400712 
L 694.427388 -216.662635 
L 694.201424 -213.924558 
L 693.764025 -211.18648 
L 693.058781 -208.448403 
L 692.042032 -205.710326 
L 690.690836 -202.972249 
L 689.007852 -200.234171 
L 687.022516 -197.496094 
L 684.78856 -194.758017 
L 682.378562 -192.019939 
L 679.876587 -189.281862 
L 677.370179 -186.543785 
L 674.942855 -183.805708 
L 672.667987 -181.06763 
L 670.604533 -178.329553 
L 668.794659 -175.591476 
L 667.262936 -172.853398 
L 666.016617 -170.115321 
L 665.046442 -167.377244 
L 664.327618 -164.639167 
L 663.820842 -161.901089 
L 663.473537 -159.163012 
L 663.22169 -156.424935 
L 662.992709 -153.686857 
L 662.709588 -150.94878 
L 662.29638 -148.210703 
L 661.68457 -145.472626 
L 660.8196 -142.734548 
L 659.66656 -139.996471 
L 658.214081 -137.258394 
L 656.475656 -134.520316 
L 654.488098 -131.782239 
L 652.307265 -129.044162 
L 650.001757 -126.306085 
L 647.645531 -123.568007 
L 645.310588 -120.82993 
L 643.060721 -118.091853 
L 640.947061 -115.353775 
L 639.005776 -112.615698 
L 637.257833 -109.877621 
L 635.710467 -107.139543 
L 634.359774 -104.401466 
L 633.193808 -101.663389 
L 632.195643 -98.925312 
L 631.346022 -96.187234 
L 630.625398 -93.449157 
L 630.015308 -90.71108 
L 629.49918 -87.973002 
z
" style="stroke: #484848; stroke-width: 1.25"/>
    </defs>
    <g clip-path="url(#pd60112bed3)">
     <use xlink:href="#me97c85cbbd" x="0" y="396" style="fill: #477ca8; stroke: #484848; stroke-width: 1.25"/>
    </g>
   </g>
   <g id="line2d_17">
    <path d="M 54.100904 334.091387 
L 188.506596 334.091387 
" clip-path="url(#pd60112bed3)" style="fill: none; stroke-dasharray: 1.5625,0.9375; stroke-dashoffset: 0; stroke: #484848; stroke-width: 1.25"/>
   </g>
   <g id="line2d_18">
    <path d="M 54.461658 331.484948 
L 188.145842 331.484948 
" clip-path="url(#pd60112bed3)" style="fill: none; stroke-dasharray: 3.125,1.25; stroke-dashoffset: 0; stroke: #484848; stroke-width: 1.25"/>
   </g>
   <g id="line2d_19">
    <path d="M 66.542428 323.665631 
L 176.065072 323.665631 
" clip-path="url(#pd60112bed3)" style="fill: none; stroke-dasharray: 1.5625,0.9375; stroke-dashoffset: 0; stroke: #484848; stroke-width: 1.25"/>
   </g>
   <g id="line2d_20">
    <path d="M 222.531544 297.601242 
L 357.250956 297.601242 
" clip-path="url(#pd60112bed3)" style="fill: none; stroke-dasharray: 1.5625,0.9375; stroke-dashoffset: 0; stroke: #484848; stroke-width: 1.25"/>
   </g>
   <g id="line2d_21">
    <path d="M 222.531544 297.601242 
L 357.250956 297.601242 
" clip-path="url(#pd60112bed3)" style="fill: none; stroke-dasharray: 3.125,1.25; stroke-dashoffset: 0; stroke: #484848; stroke-width: 1.25"/>
   </g>
   <g id="line2d_22">
    <path d="M 225.421745 292.388364 
L 354.360755 292.388364 
" clip-path="url(#pd60112bed3)" style="fill: none; stroke-dasharray: 1.5625,0.9375; stroke-dashoffset: 0; stroke: #484848; stroke-width: 1.25"/>
   </g>
   <g id="line2d_23">
    <path d="M 391.368106 258.504657 
L 525.589394 258.504657 
" clip-path="url(#pd60112bed3)" style="fill: none; stroke-dasharray: 1.5625,0.9375; stroke-dashoffset: 0; stroke: #484848; stroke-width: 1.25"/>
   </g>
   <g id="line2d_24">
    <path d="M 403.41795 224.620951 
L 513.53955 224.620951 
" clip-path="url(#pd60112bed3)" style="fill: none; stroke-dasharray: 3.125,1.25; stroke-dashoffset: 0; stroke: #484848; stroke-width: 1.25"/>
   </g>
   <g id="line2d_25">
    <path d="M 414.605366 188.130805 
L 502.352134 188.130805 
" clip-path="url(#pd60112bed3)" style="fill: none; stroke-dasharray: 1.5625,0.9375; stroke-dashoffset: 0; stroke: #484848; stroke-width: 1.25"/>
   </g>
   <g id="line2d_26">
    <path d="M 576.32852 208.982317 
L 677.80398 208.982317 
" clip-path="url(#pd60112bed3)" style="fill: none; stroke-dasharray: 1.5625,0.9375; stroke-dashoffset: 0; stroke: #484848; stroke-width: 1.25"/>
   </g>
   <g id="line2d_27">
    <path d="M 559.701815 172.492172 
L 694.430685 172.492172 
" clip-path="url(#pd60112bed3)" style="fill: none; stroke-dasharray: 3.125,1.25; stroke-dashoffset: 0; stroke: #484848; stroke-width: 1.25"/>
   </g>
   <g id="line2d_28">
    <path d="M 571.778821 136.002026 
L 682.353679 136.002026 
" clip-path="url(#pd60112bed3)" style="fill: none; stroke-dasharray: 1.5625,0.9375; stroke-dashoffset: 0; stroke: #484848; stroke-width: 1.25"/>
   </g>
   <g id="patch_3">
    <path d="M 37.01 354.421611 
L 37.01 21.84 
" style="fill: none; stroke: #000000; stroke-width: 0.8; stroke-linejoin: miter; stroke-linecap: square"/>
   </g>
   <g id="patch_4">
    <path d="M 37.01 354.421611 
L 711.36 354.421611 
" style="fill: none; stroke: #000000; stroke-width: 0.8; stroke-linejoin: miter; stroke-linecap: square"/>
   </g>
   <g id="text_12">
    <!-- Distribuzione età per gruppo (campione completo) -->
    <g transform="translate(252.4 15.84) scale(0.096 -0.096)">
     <defs>
      <path id="DejaVuSans-44" d="M 1259 4147 
L 1259 519 
L 2022 519 
Q 2988 519 3436 956 
Q 3884 1394 3884 2338 
Q 3884 3275 3436 3711 
Q 2988 4147 2022 4147 
L 1259 4147 
z
M 628 4666 
L 1925 4666 
Q 3281 4666 3915 4102 
Q 4550 3538 4550 2338 
Q 4550 1131 3912 565 
Q 3275 0 1925 0 
L 628 0 
L 628 4666 
z
" transform="scale(0.015625)"/>
      <path id="DejaVuSans-62" d="M 3116 1747 
Q 3116 2381 2855 2742 
Q 2594 3103 2138 3103 
Q 1681 3103 1420 2742 
Q 1159 2381 1159 1747 
Q 1159 1113 1420 752 
Q 1681 391 2138 391 
Q 2594 391 2855 752 
Q 3116 1113 3116 1747 
z
M 1159 2969 
Q 1341 3281 1617 3432 
Q 1894 3584 2278 3584 
Q 2916 3584 3314 3078 
Q 3713 2572 3713 1747 
Q 3713 922 3314 415 
Q 2916 -91 2278 -91 
Q 1894 -91 1617 61 
Q 1341 213 1159 525 
L 1159 0 
L 581 0 
L 581 4863 
L 1159 4863 
L 1159 2969 
z
" transform="scale(0.015625)"/>
      <path id="DejaVuSans-70" d="M 1159 525 
L 1159 -1331 
L 581 -1331 
L 581 3500 
L 1159 3500 
L 1159 2969 
Q 1341 3281 1617 3432 
Q 1894 3584 2278 3584 
Q 2916 3584 3314 3078 
Q 3713 2572 3713 1747 
Q 3713 922 3314 415 
Q 2916 -91 2278 -91 
Q 1894 -91 1617 61 
Q 1341 213 1159 525 
z
M 3116 1747 
Q 3116 2381 2855 2742 
Q 2594 3103 2138 3103 
Q 1681 3103 1420 2742 
Q 1159 2381 1159 1747 
Q 1159 1113 1420 752 
Q 1681 391 2138 391 
Q 2594 391 2855 752 
Q 3116 1113 3116 1747 
z
" transform="scale(0.015625)"/>
      <path id="DejaVuSans-6d" d="M 3328 2828 
Q 3544 3216 3844 3400 
Q 4144 3584 4550 3584 
Q 5097 3584 5394 3201 
Q 5691 2819 5691 2113 
L 5691 0 
L 5113 0 
L 5113 2094 
Q 5113 2597 4934 2840 
Q 4756 3084 4391 3084 
Q 3944 3084 3684 2787 
Q 3425 2491 3425 1978 
L 3425 0 
L 2847 0 
L 2847 2094 
Q 2847 2600 2669 2842 
Q 2491 3084 2119 3084 
Q 1678 3084 1418 2786 
Q 1159 2488 1159 1978 
L 1159 0 
L 581 0 
L 581 3500 
L 1159 3500 
L 1159 2956 
Q 1356 3278 1631 3431 
Q 1906 3584 2284 3584 
Q 2666 3584 2933 3390 
Q 3200 3197 3328 2828 
z
" transform="scale(0.015625)"/>
      <path id="DejaVuSans-6c" d="M 603 4863 
L 1178 4863 
L 1178 0 
L 603 0 
L 603 4863 
z
" transform="scale(0.015625)"/>
     </defs>
     <use xlink:href="#DejaVuSans-44"/>
     <use xlink:href="#DejaVuSans-69" transform="translate(77.001953 0)"/>
     <use xlink:href="#DejaVuSans-73" transform="translate(104.785156 0)"/>
     <use xlink:href="#DejaVuSans-74" transform="translate(156.884766 0)"/>
     <use xlink:href="#DejaVuSans-72" transform="translate(196.09375 0)"/>
     <use xlink:href="#DejaVuSans-69" transform="translate(237.207031 0)"/>
     <use xlink:href="#DejaVuSans-62" transform="translate(264.990234 0)"/>
     <use xlink:href="#DejaVuSans-75" transform="translate(328.466797 0)"/>
     <use xlink:href="#DejaVuSans-7a" transform="translate(391.845703 0)"/>
     <use xlink:href="#DejaVuSans-69" transform="translate(444.335938 0)"/>
     <use xlink:href="#DejaVuSans-6f" transform="translate(472.119141 0)"/>
     <use xlink:href="#DejaVuSans-6e" transform="translate(533.300781 0)"/>
     <use xlink:href="#DejaVuSans-65" transform="translate(596.679688 0)"/>
     <use xlink:href="#DejaVuSans-20" transform="translate(658.203125 0)"/>
     <use xlink:href="#DejaVuSans-65" transform="translate(689.990234 0)"/>
     <use xlink:href="#DejaVuSans-74" transform="translate(751.513672 0)"/>
     <use xlink:href="#DejaVuSans-e0" transform="translate(790.722656 0)"/>
     <use xlink:href="#DejaVuSans-20" transform="translate(852.001953 0)"/>
     <use xlink:href="#DejaVuSans-70" transform="translate(883.789062 0)"/>
     <use xlink:href="#DejaVuSans-65" transform="translate(947.265625 0)"/>
     <use xlink:href="#DejaVuSans-72" transform="translate(1008.789062 0)"/>
     <use xlink:href="#DejaVuSans-20" transform="translate(1049.902344 0)"/>
     <use xlink:href="#DejaVuSans-67" transform="translate(1081.689453 0)"/>
     <use xlink:href="#DejaVuSans-72" transform="translate(1145.166016 0)"/>
     <use xlink:href="#DejaVuSans-75" transform="translate(1186.279297 0)"/>
     <use xlink:href="#DejaVuSans-70" transform="translate(1249.658203 0)"/>
     <use xlink:href="#DejaVuSans-70" transform="translate(1313.134766 0)"/>
     <use xlink:href="#DejaVuSans-6f" transform="translate(1376.611328 0)"/>
     <use xlink:href="#DejaVuSans-20" transform="translate(1437.792969 0)"/>
     <use xlink:href="#DejaVuSans-28" transform="translate(1469.580078 0)"/>
     <use xlink:href="#DejaVuSans-63" transform="translate(1508.59375 0)"/>
     <use xlink:href="#DejaVuSans-61" transform="translate(1563.574219 0)"/>
     <use xlink:href="#DejaVuSans-6d" transform="translate(1624.853516 0)"/>
     <use xlink:href="#DejaVuSans-70" transform="translate(1722.265625 0)"/>
     <use xlink:href="#DejaVuSans-69" transform="translate(1785.742188 0)"/>
     <use xlink:href="#DejaVuSans-6f" transform="translate(1813.525391 0)"/>
     <use xlink:href="#DejaVuSans-6e" transform="translate(1874.707031 0)"/>
     <use xlink:href="#DejaVuSans-65" transform="translate(1938.085938 0)"/>
     <use xlink:href="#DejaVuSans-20" transform="translate(1999.609375 0)"/>
     <use xlink:href="#DejaVuSans-63" transform="translate(2031.396484 0)"/>
     <use xlink:href="#DejaVuSans-6f" transform="translate(2086.376953 0)"/>
     <use xlink:href="#DejaVuSans-6d" transform="translate(2147.558594 0)"/>
     <use xlink:href="#DejaVuSans-70" transform="translate(2244.970703 0)"/>
     <use xlink:href="#DejaVuSans-6c" transform="translate(2308.447266 0)"/>
     <use xlink:href="#DejaVuSans-65" transform="translate(2336.230469 0)"/>
     <use xlink:href="#DejaVuSans-74" transform="translate(2397.753906 0)"/>
     <use xlink:href="#DejaVuSans-6f" transform="translate(2436.962891 0)"/>
     <use xlink:href="#DejaVuSans-29" transform="translate(2498.144531 0)"/>
    </g>
   </g>
  </g>
 </g>
 <defs>
  <clipPath id="pd60112bed3">
   <rect x="37.01" y="21.84" width="674.35" height="332.581611"/>
  </clipPath>
 </defs>
</svg>
