<?xml version="1.0" encoding="utf-8" standalone="no"?>
<!DOCTYPE svg PUBLIC "-//W3C//DTD SVG 1.1//EN"
  "http://www.w3.org/Graphics/SVG/1.1/DTD/svg11.dtd">
<svg xmlns:xlink="http://www.w3.org/1999/xlink" width="690.279146pt" height="377.259763pt" viewBox="0 0 690.279146 377.259763" xmlns="http://www.w3.org/2000/svg" version="1.1">
 <metadata>
  <rdf:RDF xmlns:dc="http://purl.org/dc/elements/1.1/" xmlns:cc="http://creativecommons.org/ns#" xmlns:rdf="http://www.w3.org/1999/02/22-rdf-syntax-ns#">
   <cc:Work>
    <dc:type rdf:resource="http://purl.org/dc/dcmitype/StillImage"/>
    <dc:date>2025-11-07T14:03:29.385094</dc:date>
    <dc:format>image/svg+xml</dc:format>
    <dc:creator>
     <cc:Agent>
      <dc:title>Matplotlib v3.10.7, https://matplotlib.org/</dc:title>
     </cc:Agent>
    </dc:creator>
   </cc:Work>
  </rdf:RDF>
 </metadata>
 <defs>
  <style type="text/css">*{stroke-linejoin: round; stroke-linecap: butt}</style>
 </defs>
 <g id="figure_1">
  <g id="patch_1">
   <path d="M 0 377.259763 
L 690.279146 377.259763 
L 690.279146 0 
L 0 0 
z
" style="fill: #ffffff"/>
  </g>
  <g id="axes_1">
   <g id="patch_2">
    <path d="M 39.811463 323.092464 
L 686.679146 323.092464 
L 686.679146 19.477969 
L 39.811463 19.477969 
z
" style="fill: #ffffff"/>
   </g>
   <g id="matplotlib.axis_1">
    <g id="xtick_1">
     <g id="line2d_1">
      <defs>
       <path id="mf997a8f778" d="M 0 0 
L 0 3 
" style="stroke: #262626; stroke-width: 0.5"/>
      </defs>
      <g>
       <use xlink:href="#mf997a8f778" x="120.669924" y="19.477969" style="fill: #262626; stroke: #262626; stroke-width: 0.5"/>
      </g>
     </g>
     <g id="text_1">
      <!-- Students - secondary -->
      <g style="fill: #262626" transform="translate(5.0514 355.140384) rotate(-10) scale(0.11 -0.11)">
       <defs>
        <path id="DejaVuSans-53" d="M 3425 4513 
L 3425 3897 
Q 3066 4069 2747 4153 
Q 2428 4238 2131 4238 
Q 1616 4238 1336 4038 
Q 1056 3838 1056 3469 
Q 1056 3159 1242 3001 
Q 1428 2844 1947 2747 
L 2328 2669 
Q 3034 2534 3370 2195 
Q 3706 1856 3706 1288 
Q 3706 609 3251 259 
Q 2797 -91 1919 -91 
Q 1588 -91 1214 -16 
Q 841 59 441 206 
L 441 856 
Q 825 641 1194 531 
Q 1563 422 1919 422 
Q 2459 422 2753 634 
Q 3047 847 3047 1241 
Q 3047 1584 2836 1778 
Q 2625 1972 2144 2069 
L 1759 2144 
Q 1053 2284 737 2584 
Q 422 2884 422 3419 
Q 422 4038 858 4394 
Q 1294 4750 2059 4750 
Q 2388 4750 2728 4690 
Q 3069 4631 3425 4513 
z
" transform="scale(0.015625)"/>
        <path id="DejaVuSans-74" d="M 1172 4494 
L 1172 3500 
L 2356 3500 
L 2356 3053 
L 1172 3053 
L 1172 1153 
Q 1172 725 1289 603 
Q 1406 481 1766 481 
L 2356 481 
L 2356 0 
L 1766 0 
Q 1100 0 847 248 
Q 594 497 594 1153 
L 594 3053 
L 172 3053 
L 172 3500 
L 594 3500 
L 594 4494 
L 1172 4494 
z
" transform="scale(0.015625)"/>
        <path id="DejaVuSans-75" d="M 544 1381 
L 544 3500 
L 1119 3500 
L 1119 1403 
Q 1119 906 1312 657 
Q 1506 409 1894 409 
Q 2359 409 2629 706 
Q 2900 1003 2900 1516 
L 2900 3500 
L 3475 3500 
L 3475 0 
L 2900 0 
L 2900 538 
Q 2691 219 2414 64 
Q 2138 -91 1772 -91 
Q 1169 -91 856 284 
Q 544 659 544 1381 
z
M 1991 3584 
L 1991 3584 
z
" transform="scale(0.015625)"/>
        <path id="DejaVuSans-64" d="M 2906 2969 
L 2906 4863 
L 3481 4863 
L 3481 0 
L 2906 0 
L 2906 525 
Q 2725 213 2448 61 
Q 2172 -91 1784 -91 
Q 1150 -91 751 415 
Q 353 922 353 1747 
Q 353 2572 751 3078 
Q 1150 3584 1784 3584 
Q 2172 3584 2448 3432 
Q 2725 3281 2906 2969 
z
M 947 1747 
Q 947 1113 1208 752 
Q 1469 391 1925 391 
Q 2381 391 2643 752 
Q 2906 1113 2906 1747 
Q 2906 2381 2643 2742 
Q 2381 3103 1925 3103 
Q 1469 3103 1208 2742 
Q 947 2381 947 1747 
z
" transform="scale(0.015625)"/>
        <path id="DejaVuSans-65" d="M 3597 1894 
L 3597 1613 
L 953 1613 
Q 991 1019 1311 708 
Q 1631 397 2203 397 
Q 2534 397 2845 478 
Q 3156 559 3463 722 
L 3463 178 
Q 3153 47 2828 -22 
Q 2503 -91 2169 -91 
Q 1331 -91 842 396 
Q 353 884 353 1716 
Q 353 2575 817 3079 
Q 1281 3584 2069 3584 
Q 2775 3584 3186 3129 
Q 3597 2675 3597 1894 
z
M 3022 2063 
Q 3016 2534 2758 2815 
Q 2500 3097 2075 3097 
Q 1594 3097 1305 2825 
Q 1016 2553 972 2059 
L 3022 2063 
z
" transform="scale(0.015625)"/>
        <path id="DejaVuSans-6e" d="M 3513 2113 
L 3513 0 
L 2938 0 
L 2938 2094 
Q 2938 2591 2744 2837 
Q 2550 3084 2163 3084 
Q 1697 3084 1428 2787 
Q 1159 2491 1159 1978 
L 1159 0 
L 581 0 
L 581 3500 
L 1159 3500 
L 1159 2956 
Q 1366 3272 1645 3428 
Q 1925 3584 2291 3584 
Q 2894 3584 3203 3211 
Q 3513 2838 3513 2113 
z
" transform="scale(0.015625)"/>
        <path id="DejaVuSans-73" d="M 2834 3397 
L 2834 2853 
Q 2591 2978 2328 3040 
Q 2066 3103 1784 3103 
Q 1356 3103 1142 2972 
Q 928 2841 928 2578 
Q 928 2378 1081 2264 
Q 1234 2150 1697 2047 
L 1894 2003 
Q 2506 1872 2764 1633 
Q 3022 1394 3022 966 
Q 3022 478 2636 193 
Q 2250 -91 1575 -91 
Q 1294 -91 989 -36 
Q 684 19 347 128 
L 347 722 
Q 666 556 975 473 
Q 1284 391 1588 391 
Q 1994 391 2212 530 
Q 2431 669 2431 922 
Q 2431 1156 2273 1281 
Q 2116 1406 1581 1522 
L 1381 1569 
Q 847 1681 609 1914 
Q 372 2147 372 2553 
Q 372 3047 722 3315 
Q 1072 3584 1716 3584 
Q 2034 3584 2315 3537 
Q 2597 3491 2834 3397 
z
" transform="scale(0.015625)"/>
        <path id="DejaVuSans-20" transform="scale(0.015625)"/>
        <path id="DejaVuSans-2d" d="M 313 2009 
L 1997 2009 
L 1997 1497 
L 313 1497 
L 313 2009 
z
" transform="scale(0.015625)"/>
        <path id="DejaVuSans-63" d="M 3122 3366 
L 3122 2828 
Q 2878 2963 2633 3030 
Q 2388 3097 2138 3097 
Q 1578 3097 1268 2742 
Q 959 2388 959 1747 
Q 959 1106 1268 751 
Q 1578 397 2138 397 
Q 2388 397 2633 464 
Q 2878 531 3122 666 
L 3122 134 
Q 2881 22 2623 -34 
Q 2366 -91 2075 -91 
Q 1284 -91 818 406 
Q 353 903 353 1747 
Q 353 2603 823 3093 
Q 1294 3584 2113 3584 
Q 2378 3584 2631 3529 
Q 2884 3475 3122 3366 
z
" transform="scale(0.015625)"/>
        <path id="DejaVuSans-6f" d="M 1959 3097 
Q 1497 3097 1228 2736 
Q 959 2375 959 1747 
Q 959 1119 1226 758 
Q 1494 397 1959 397 
Q 2419 397 2687 759 
Q 2956 1122 2956 1747 
Q 2956 2369 2687 2733 
Q 2419 3097 1959 3097 
z
M 1959 3584 
Q 2709 3584 3137 3096 
Q 3566 2609 3566 1747 
Q 3566 888 3137 398 
Q 2709 -91 1959 -91 
Q 1206 -91 779 398 
Q 353 888 353 1747 
Q 353 2609 779 3096 
Q 1206 3584 1959 3584 
z
" transform="scale(0.015625)"/>
        <path id="DejaVuSans-61" d="M 2194 1759 
Q 1497 1759 1228 1600 
Q 959 1441 959 1056 
Q 959 750 1161 570 
Q 1363 391 1709 391 
Q 2188 391 2477 730 
Q 2766 1069 2766 1631 
L 2766 1759 
L 2194 1759 
z
M 3341 1997 
L 3341 0 
L 2766 0 
L 2766 531 
Q 2569 213 2275 61 
Q 1981 -91 1556 -91 
Q 1019 -91 701 211 
Q 384 513 384 1019 
Q 384 1609 779 1909 
Q 1175 2209 1959 2209 
L 2766 2209 
L 2766 2266 
Q 2766 2663 2505 2880 
Q 2244 3097 1772 3097 
Q 1472 3097 1187 3025 
Q 903 2953 641 2809 
L 641 3341 
Q 956 3463 1253 3523 
Q 1550 3584 1831 3584 
Q 2591 3584 2966 3190 
Q 3341 2797 3341 1997 
z
" transform="scale(0.015625)"/>
        <path id="DejaVuSans-72" d="M 2631 2963 
Q 2534 3019 2420 3045 
Q 2306 3072 2169 3072 
Q 1681 3072 1420 2755 
Q 1159 2438 1159 1844 
L 1159 0 
L 581 0 
L 581 3500 
L 1159 3500 
L 1159 2956 
Q 1341 3275 1631 3429 
Q 1922 3584 2338 3584 
Q 2397 3584 2469 3576 
Q 2541 3569 2628 3553 
L 2631 2963 
z
" transform="scale(0.015625)"/>
        <path id="DejaVuSans-79" d="M 2059 -325 
Q 1816 -950 1584 -1140 
Q 1353 -1331 966 -1331 
L 506 -1331 
L 506 -850 
L 844 -850 
Q 1081 -850 1212 -737 
Q 1344 -625 1503 -206 
L 1606 56 
L 191 3500 
L 800 3500 
L 1894 763 
L 2988 3500 
L 3597 3500 
L 2059 -325 
z
" transform="scale(0.015625)"/>
       </defs>
       <use xlink:href="#DejaVuSans-53"/>
       <use xlink:href="#DejaVuSans-74" transform="translate(63.476562 0)"/>
       <use xlink:href="#DejaVuSans-75" transform="translate(102.685547 0)"/>
       <use xlink:href="#DejaVuSans-64" transform="translate(166.064453 0)"/>
       <use xlink:href="#DejaVuSans-65" transform="translate(229.541016 0)"/>
       <use xlink:href="#DejaVuSans-6e" transform="translate(291.064453 0)"/>
       <use xlink:href="#DejaVuSans-74" transform="translate(354.443359 0)"/>
       <use xlink:href="#DejaVuSans-73" transform="translate(393.652344 0)"/>
       <use xlink:href="#DejaVuSans-20" transform="translate(445.751953 0)"/>
       <use xlink:href="#DejaVuSans-2d" transform="translate(477.539062 0)"/>
       <use xlink:href="#DejaVuSans-20" transform="translate(513.623047 0)"/>
       <use xlink:href="#DejaVuSans-73" transform="translate(545.410156 0)"/>
       <use xlink:href="#DejaVuSans-65" transform="translate(597.509766 0)"/>
       <use xlink:href="#DejaVuSans-63" transform="translate(659.033203 0)"/>
       <use xlink:href="#DejaVuSans-6f" transform="translate(714.013672 0)"/>
       <use xlink:href="#DejaVuSans-6e" transform="translate(775.195312 0)"/>
       <use xlink:href="#DejaVuSans-64" transform="translate(838.574219 0)"/>
       <use xlink:href="#DejaVuSans-61" transform="translate(902.050781 0)"/>
       <use xlink:href="#DejaVuSans-72" transform="translate(963.330078 0)"/>
       <use xlink:href="#DejaVuSans-79" transform="translate(1004.443359 0)"/>
      </g>
     </g>
    </g>
    <g id="xtick_2">
     <g id="line2d_2">
      <g>
       <use xlink:href="#mf997a8f778" x="282.386844" y="19.477969" style="fill: #262626; stroke: #262626; stroke-width: 0.5"/>
      </g>
     </g>
     <g id="text_2">
      <!-- Students - university -->
      <g style="fill: #262626" transform="translate(169.325897 354.689414) rotate(-10) scale(0.11 -0.11)">
       <defs>
        <path id="DejaVuSans-69" d="M 603 3500 
L 1178 3500 
L 1178 0 
L 603 0 
L 603 3500 
z
M 603 4863 
L 1178 4863 
L 1178 4134 
L 603 4134 
L 603 4863 
z
" transform="scale(0.015625)"/>
        <path id="DejaVuSans-76" d="M 191 3500 
L 800 3500 
L 1894 563 
L 2988 3500 
L 3597 3500 
L 2284 0 
L 1503 0 
L 191 3500 
z
" transform="scale(0.015625)"/>
       </defs>
       <use xlink:href="#DejaVuSans-53"/>
       <use xlink:href="#DejaVuSans-74" transform="translate(63.476562 0)"/>
       <use xlink:href="#DejaVuSans-75" transform="translate(102.685547 0)"/>
       <use xlink:href="#DejaVuSans-64" transform="translate(166.064453 0)"/>
       <use xlink:href="#DejaVuSans-65" transform="translate(229.541016 0)"/>
       <use xlink:href="#DejaVuSans-6e" transform="translate(291.064453 0)"/>
       <use xlink:href="#DejaVuSans-74" transform="translate(354.443359 0)"/>
       <use xlink:href="#DejaVuSans-73" transform="translate(393.652344 0)"/>
       <use xlink:href="#DejaVuSans-20" transform="translate(445.751953 0)"/>
       <use xlink:href="#DejaVuSans-2d" transform="translate(477.539062 0)"/>
       <use xlink:href="#DejaVuSans-20" transform="translate(513.623047 0)"/>
       <use xlink:href="#DejaVuSans-75" transform="translate(545.410156 0)"/>
       <use xlink:href="#DejaVuSans-6e" transform="translate(608.789062 0)"/>
       <use xlink:href="#DejaVuSans-69" transform="translate(672.167969 0)"/>
       <use xlink:href="#DejaVuSans-76" transform="translate(699.951172 0)"/>
       <use xlink:href="#DejaVuSans-65" transform="translate(759.130859 0)"/>
       <use xlink:href="#DejaVuSans-72" transform="translate(820.654297 0)"/>
       <use xlink:href="#DejaVuSans-73" transform="translate(861.767578 0)"/>
       <use xlink:href="#DejaVuSans-69" transform="translate(913.867188 0)"/>
       <use xlink:href="#DejaVuSans-74" transform="translate(941.650391 0)"/>
       <use xlink:href="#DejaVuSans-79" transform="translate(980.859375 0)"/>
      </g>
     </g>
    </g>
    <g id="xtick_3">
     <g id="line2d_3">
      <g>
       <use xlink:href="#mf997a8f778" x="444.103765" y="19.477969" style="fill: #262626; stroke: #262626; stroke-width: 0.5"/>
      </g>
     </g>
     <g id="text_3">
      <!-- Teachers - pre-service -->
      <g style="fill: #262626" transform="translate(324.783441 355.793111) rotate(-10) scale(0.11 -0.11)">
       <defs>
        <path id="DejaVuSans-54" d="M -19 4666 
L 3928 4666 
L 3928 4134 
L 2272 4134 
L 2272 0 
L 1638 0 
L 1638 4134 
L -19 4134 
L -19 4666 
z
" transform="scale(0.015625)"/>
        <path id="DejaVuSans-68" d="M 3513 2113 
L 3513 0 
L 2938 0 
L 2938 2094 
Q 2938 2591 2744 2837 
Q 2550 3084 2163 3084 
Q 1697 3084 1428 2787 
Q 1159 2491 1159 1978 
L 1159 0 
L 581 0 
L 581 4863 
L 1159 4863 
L 1159 2956 
Q 1366 3272 1645 3428 
Q 1925 3584 2291 3584 
Q 2894 3584 3203 3211 
Q 3513 2838 3513 2113 
z
" transform="scale(0.015625)"/>
        <path id="DejaVuSans-70" d="M 1159 525 
L 1159 -1331 
L 581 -1331 
L 581 3500 
L 1159 3500 
L 1159 2969 
Q 1341 3281 1617 3432 
Q 1894 3584 2278 3584 
Q 2916 3584 3314 3078 
Q 3713 2572 3713 1747 
Q 3713 922 3314 415 
Q 2916 -91 2278 -91 
Q 1894 -91 1617 61 
Q 1341 213 1159 525 
z
M 3116 1747 
Q 3116 2381 2855 2742 
Q 2594 3103 2138 3103 
Q 1681 3103 1420 2742 
Q 1159 2381 1159 1747 
Q 1159 1113 1420 752 
Q 1681 391 2138 391 
Q 2594 391 2855 752 
Q 3116 1113 3116 1747 
z
" transform="scale(0.015625)"/>
       </defs>
       <use xlink:href="#DejaVuSans-54"/>
       <use xlink:href="#DejaVuSans-65" transform="translate(44.083984 0)"/>
       <use xlink:href="#DejaVuSans-61" transform="translate(105.607422 0)"/>
       <use xlink:href="#DejaVuSans-63" transform="translate(166.886719 0)"/>
       <use xlink:href="#DejaVuSans-68" transform="translate(221.867188 0)"/>
       <use xlink:href="#DejaVuSans-65" transform="translate(285.246094 0)"/>
       <use xlink:href="#DejaVuSans-72" transform="translate(346.769531 0)"/>
       <use xlink:href="#DejaVuSans-73" transform="translate(387.882812 0)"/>
       <use xlink:href="#DejaVuSans-20" transform="translate(439.982422 0)"/>
       <use xlink:href="#DejaVuSans-2d" transform="translate(471.769531 0)"/>
       <use xlink:href="#DejaVuSans-20" transform="translate(507.853516 0)"/>
       <use xlink:href="#DejaVuSans-70" transform="translate(539.640625 0)"/>
       <use xlink:href="#DejaVuSans-72" transform="translate(603.117188 0)"/>
       <use xlink:href="#DejaVuSans-65" transform="translate(641.980469 0)"/>
       <use xlink:href="#DejaVuSans-2d" transform="translate(703.503906 0)"/>
       <use xlink:href="#DejaVuSans-73" transform="translate(739.587891 0)"/>
       <use xlink:href="#DejaVuSans-65" transform="translate(791.6875 0)"/>
       <use xlink:href="#DejaVuSans-72" transform="translate(853.210938 0)"/>
       <use xlink:href="#DejaVuSans-76" transform="translate(894.324219 0)"/>
       <use xlink:href="#DejaVuSans-69" transform="translate(953.503906 0)"/>
       <use xlink:href="#DejaVuSans-63" transform="translate(981.287109 0)"/>
       <use xlink:href="#DejaVuSans-65" transform="translate(1036.267578 0)"/>
      </g>
     </g>
    </g>
    <g id="xtick_4">
     <g id="line2d_4">
      <g>
       <use xlink:href="#mf997a8f778" x="605.820686" y="19.477969" style="fill: #262626; stroke: #262626; stroke-width: 0.5"/>
      </g>
     </g>
     <g id="text_4">
      <!-- Teachers - in-service -->
      <g style="fill: #262626" transform="translate(494.377901 354.404089) rotate(-10) scale(0.11 -0.11)">
       <use xlink:href="#DejaVuSans-54"/>
       <use xlink:href="#DejaVuSans-65" transform="translate(44.083984 0)"/>
       <use xlink:href="#DejaVuSans-61" transform="translate(105.607422 0)"/>
       <use xlink:href="#DejaVuSans-63" transform="translate(166.886719 0)"/>
       <use xlink:href="#DejaVuSans-68" transform="translate(221.867188 0)"/>
       <use xlink:href="#DejaVuSans-65" transform="translate(285.246094 0)"/>
       <use xlink:href="#DejaVuSans-72" transform="translate(346.769531 0)"/>
       <use xlink:href="#DejaVuSans-73" transform="translate(387.882812 0)"/>
       <use xlink:href="#DejaVuSans-20" transform="translate(439.982422 0)"/>
       <use xlink:href="#DejaVuSans-2d" transform="translate(471.769531 0)"/>
       <use xlink:href="#DejaVuSans-20" transform="translate(507.853516 0)"/>
       <use xlink:href="#DejaVuSans-69" transform="translate(539.640625 0)"/>
       <use xlink:href="#DejaVuSans-6e" transform="translate(567.423828 0)"/>
       <use xlink:href="#DejaVuSans-2d" transform="translate(630.802734 0)"/>
       <use xlink:href="#DejaVuSans-73" transform="translate(666.886719 0)"/>
       <use xlink:href="#DejaVuSans-65" transform="translate(718.986328 0)"/>
       <use xlink:href="#DejaVuSans-72" transform="translate(780.509766 0)"/>
       <use xlink:href="#DejaVuSans-76" transform="translate(821.623047 0)"/>
       <use xlink:href="#DejaVuSans-69" transform="translate(880.802734 0)"/>
       <use xlink:href="#DejaVuSans-63" transform="translate(908.585938 0)"/>
       <use xlink:href="#DejaVuSans-65" transform="translate(963.566406 0)"/>
      </g>
     </g>
    </g>
    <g id="xtick_5">
     <g id="line2d_5">
      <defs>
       <path id="mea2e80445c" d="M 0 0 
L 0 1.5 
" style="stroke: #262626; stroke-width: 0.5"/>
      </defs>
      <g>
       <use xlink:href="#mea2e80445c" x="55.983155" y="19.477969" style="fill: #262626; stroke: #262626; stroke-width: 0.5"/>
      </g>
     </g>
    </g>
    <g id="xtick_6">
     <g id="line2d_6">
      <g>
       <use xlink:href="#mea2e80445c" x="88.32654" y="19.477969" style="fill: #262626; stroke: #262626; stroke-width: 0.5"/>
      </g>
     </g>
    </g>
    <g id="xtick_7">
     <g id="line2d_7">
      <g>
       <use xlink:href="#mea2e80445c" x="153.013308" y="19.477969" style="fill: #262626; stroke: #262626; stroke-width: 0.5"/>
      </g>
     </g>
    </g>
    <g id="xtick_8">
     <g id="line2d_8">
      <g>
       <use xlink:href="#mea2e80445c" x="185.356692" y="19.477969" style="fill: #262626; stroke: #262626; stroke-width: 0.5"/>
      </g>
     </g>
    </g>
    <g id="xtick_9">
     <g id="line2d_9">
      <g>
       <use xlink:href="#mea2e80445c" x="217.700076" y="19.477969" style="fill: #262626; stroke: #262626; stroke-width: 0.5"/>
      </g>
     </g>
    </g>
    <g id="xtick_10">
     <g id="line2d_10">
      <g>
       <use xlink:href="#mea2e80445c" x="250.04346" y="19.477969" style="fill: #262626; stroke: #262626; stroke-width: 0.5"/>
      </g>
     </g>
    </g>
    <g id="xtick_11">
     <g id="line2d_11">
      <g>
       <use xlink:href="#mea2e80445c" x="314.730228" y="19.477969" style="fill: #262626; stroke: #262626; stroke-width: 0.5"/>
      </g>
     </g>
    </g>
    <g id="xtick_12">
     <g id="line2d_12">
      <g>
       <use xlink:href="#mea2e80445c" x="347.073613" y="19.477969" style="fill: #262626; stroke: #262626; stroke-width: 0.5"/>
      </g>
     </g>
    </g>
    <g id="xtick_13">
     <g id="line2d_13">
      <g>
       <use xlink:href="#mea2e80445c" x="379.416997" y="19.477969" style="fill: #262626; stroke: #262626; stroke-width: 0.5"/>
      </g>
     </g>
    </g>
    <g id="xtick_14">
     <g id="line2d_14">
      <g>
       <use xlink:href="#mea2e80445c" x="411.760381" y="19.477969" style="fill: #262626; stroke: #262626; stroke-width: 0.5"/>
      </g>
     </g>
    </g>
    <g id="xtick_15">
     <g id="line2d_15">
      <g>
       <use xlink:href="#mea2e80445c" x="476.447149" y="19.477969" style="fill: #262626; stroke: #262626; stroke-width: 0.5"/>
      </g>
     </g>
    </g>
    <g id="xtick_16">
     <g id="line2d_16">
      <g>
       <use xlink:href="#mea2e80445c" x="508.790533" y="19.477969" style="fill: #262626; stroke: #262626; stroke-width: 0.5"/>
      </g>
     </g>
    </g>
    <g id="xtick_17">
     <g id="line2d_17">
      <g>
       <use xlink:href="#mea2e80445c" x="541.133917" y="19.477969" style="fill: #262626; stroke: #262626; stroke-width: 0.5"/>
      </g>
     </g>
    </g>
    <g id="xtick_18">
     <g id="line2d_18">
      <g>
       <use xlink:href="#mea2e80445c" x="573.477301" y="19.477969" style="fill: #262626; stroke: #262626; stroke-width: 0.5"/>
      </g>
     </g>
    </g>
    <g id="xtick_19">
     <g id="line2d_19">
      <g>
       <use xlink:href="#mea2e80445c" x="638.16407" y="19.477969" style="fill: #262626; stroke: #262626; stroke-width: 0.5"/>
      </g>
     </g>
    </g>
    <g id="xtick_20">
     <g id="line2d_20">
      <g>
       <use xlink:href="#mea2e80445c" x="670.507454" y="19.477969" style="fill: #262626; stroke: #262626; stroke-width: 0.5"/>
      </g>
     </g>
    </g>
    <g id="text_5">
     <!-- Group -->
     <g style="fill: #262626" transform="translate(344.981867 371.164138) scale(0.12 -0.12)">
      <defs>
       <path id="DejaVuSans-47" d="M 3809 666 
L 3809 1919 
L 2778 1919 
L 2778 2438 
L 4434 2438 
L 4434 434 
Q 4069 175 3628 42 
Q 3188 -91 2688 -91 
Q 1594 -91 976 548 
Q 359 1188 359 2328 
Q 359 3472 976 4111 
Q 1594 4750 2688 4750 
Q 3144 4750 3555 4637 
Q 3966 4525 4313 4306 
L 4313 3634 
Q 3963 3931 3569 4081 
Q 3175 4231 2741 4231 
Q 1884 4231 1454 3753 
Q 1025 3275 1025 2328 
Q 1025 1384 1454 906 
Q 1884 428 2741 428 
Q 3075 428 3337 486 
Q 3600 544 3809 666 
z
" transform="scale(0.015625)"/>
      </defs>
      <use xlink:href="#DejaVuSans-47"/>
      <use xlink:href="#DejaVuSans-72" transform="translate(77.490234 0)"/>
      <use xlink:href="#DejaVuSans-6f" transform="translate(116.353516 0)"/>
      <use xlink:href="#DejaVuSans-75" transform="translate(177.535156 0)"/>
      <use xlink:href="#DejaVuSans-70" transform="translate(240.914062 0)"/>
     </g>
    </g>
   </g>
   <g id="matplotlib.axis_2">
    <g id="ytick_1">
     <g id="line2d_21">
      <path d="M 39.811463 309.291805 
L 686.679146 309.291805 
" clip-path="url(#pb4216f1ca3)" style="fill: none; stroke-dasharray: 1.85,0.8; stroke-dashoffset: 0; stroke: #1a1a1a; stroke-opacity: 0.3; stroke-width: 0.5"/>
     </g>
     <g id="line2d_22">
      <defs>
       <path id="m5a4b92ad66" d="M 0 0 
L -3 0 
" style="stroke: #262626; stroke-width: 0.5"/>
      </defs>
      <g>
       <use xlink:href="#m5a4b92ad66" x="686.679146" y="309.291805" style="fill: #262626; stroke: #262626; stroke-width: 0.5"/>
      </g>
     </g>
     <g id="text_6">
      <!-- $\mathdefault{0}$ -->
      <g style="fill: #262626" transform="translate(29.271463 313.470946) scale(0.11 -0.11)">
       <defs>
        <path id="DejaVuSans-30" d="M 2034 4250 
Q 1547 4250 1301 3770 
Q 1056 3291 1056 2328 
Q 1056 1369 1301 889 
Q 1547 409 2034 409 
Q 2525 409 2770 889 
Q 3016 1369 3016 2328 
Q 3016 3291 2770 3770 
Q 2525 4250 2034 4250 
z
M 2034 4750 
Q 2819 4750 3233 4129 
Q 3647 3509 3647 2328 
Q 3647 1150 3233 529 
Q 2819 -91 2034 -91 
Q 1250 -91 836 529 
Q 422 1150 422 2328 
Q 422 3509 836 4129 
Q 1250 4750 2034 4750 
z
" transform="scale(0.015625)"/>
       </defs>
       <use xlink:href="#DejaVuSans-30" transform="translate(0 0.78125)"/>
      </g>
     </g>
    </g>
    <g id="ytick_2">
     <g id="line2d_23">
      <path d="M 39.811463 254.08917 
L 686.679146 254.08917 
" clip-path="url(#pb4216f1ca3)" style="fill: none; stroke-dasharray: 1.85,0.8; stroke-dashoffset: 0; stroke: #1a1a1a; stroke-opacity: 0.3; stroke-width: 0.5"/>
     </g>
     <g id="line2d_24">
      <g>
       <use xlink:href="#m5a4b92ad66" x="686.679146" y="254.08917" style="fill: #262626; stroke: #262626; stroke-width: 0.5"/>
      </g>
     </g>
     <g id="text_7">
      <!-- $\mathdefault{2}$ -->
      <g style="fill: #262626" transform="translate(29.271463 258.26831) scale(0.11 -0.11)">
       <defs>
        <path id="DejaVuSans-32" d="M 1228 531 
L 3431 531 
L 3431 0 
L 469 0 
L 469 531 
Q 828 903 1448 1529 
Q 2069 2156 2228 2338 
Q 2531 2678 2651 2914 
Q 2772 3150 2772 3378 
Q 2772 3750 2511 3984 
Q 2250 4219 1831 4219 
Q 1534 4219 1204 4116 
Q 875 4013 500 3803 
L 500 4441 
Q 881 4594 1212 4672 
Q 1544 4750 1819 4750 
Q 2544 4750 2975 4387 
Q 3406 4025 3406 3419 
Q 3406 3131 3298 2873 
Q 3191 2616 2906 2266 
Q 2828 2175 2409 1742 
Q 1991 1309 1228 531 
z
" transform="scale(0.015625)"/>
       </defs>
       <use xlink:href="#DejaVuSans-32" transform="translate(0 0.78125)"/>
      </g>
     </g>
    </g>
    <g id="ytick_3">
     <g id="line2d_25">
      <path d="M 39.811463 198.886534 
L 686.679146 198.886534 
" clip-path="url(#pb4216f1ca3)" style="fill: none; stroke-dasharray: 1.85,0.8; stroke-dashoffset: 0; stroke: #1a1a1a; stroke-opacity: 0.3; stroke-width: 0.5"/>
     </g>
     <g id="line2d_26">
      <g>
       <use xlink:href="#m5a4b92ad66" x="686.679146" y="198.886534" style="fill: #262626; stroke: #262626; stroke-width: 0.5"/>
      </g>
     </g>
     <g id="text_8">
      <!-- $\mathdefault{4}$ -->
      <g style="fill: #262626" transform="translate(29.271463 203.065675) scale(0.11 -0.11)">
       <defs>
        <path id="DejaVuSans-34" d="M 2419 4116 
L 825 1625 
L 2419 1625 
L 2419 4116 
z
M 2253 4666 
L 3047 4666 
L 3047 1625 
L 3713 1625 
L 3713 1100 
L 3047 1100 
L 3047 0 
L 2419 0 
L 2419 1100 
L 313 1100 
L 313 1709 
L 2253 4666 
z
" transform="scale(0.015625)"/>
       </defs>
       <use xlink:href="#DejaVuSans-34" transform="translate(0 0.09375)"/>
      </g>
     </g>
    </g>
    <g id="ytick_4">
     <g id="line2d_27">
      <path d="M 39.811463 143.683899 
L 686.679146 143.683899 
" clip-path="url(#pb4216f1ca3)" style="fill: none; stroke-dasharray: 1.85,0.8; stroke-dashoffset: 0; stroke: #1a1a1a; stroke-opacity: 0.3; stroke-width: 0.5"/>
     </g>
     <g id="line2d_28">
      <g>
       <use xlink:href="#m5a4b92ad66" x="686.679146" y="143.683899" style="fill: #262626; stroke: #262626; stroke-width: 0.5"/>
      </g>
     </g>
     <g id="text_9">
      <!-- $\mathdefault{6}$ -->
      <g style="fill: #262626" transform="translate(29.271463 147.863039) scale(0.11 -0.11)">
       <defs>
        <path id="DejaVuSans-36" d="M 2113 2584 
Q 1688 2584 1439 2293 
Q 1191 2003 1191 1497 
Q 1191 994 1439 701 
Q 1688 409 2113 409 
Q 2538 409 2786 701 
Q 3034 994 3034 1497 
Q 3034 2003 2786 2293 
Q 2538 2584 2113 2584 
z
M 3366 4563 
L 3366 3988 
Q 3128 4100 2886 4159 
Q 2644 4219 2406 4219 
Q 1781 4219 1451 3797 
Q 1122 3375 1075 2522 
Q 1259 2794 1537 2939 
Q 1816 3084 2150 3084 
Q 2853 3084 3261 2657 
Q 3669 2231 3669 1497 
Q 3669 778 3244 343 
Q 2819 -91 2113 -91 
Q 1303 -91 875 529 
Q 447 1150 447 2328 
Q 447 3434 972 4092 
Q 1497 4750 2381 4750 
Q 2619 4750 2861 4703 
Q 3103 4656 3366 4563 
z
" transform="scale(0.015625)"/>
       </defs>
       <use xlink:href="#DejaVuSans-36" transform="translate(0 0.78125)"/>
      </g>
     </g>
    </g>
    <g id="ytick_5">
     <g id="line2d_29">
      <path d="M 39.811463 88.481263 
L 686.679146 88.481263 
" clip-path="url(#pb4216f1ca3)" style="fill: none; stroke-dasharray: 1.85,0.8; stroke-dashoffset: 0; stroke: #1a1a1a; stroke-opacity: 0.3; stroke-width: 0.5"/>
     </g>
     <g id="line2d_30">
      <g>
       <use xlink:href="#m5a4b92ad66" x="686.679146" y="88.481263" style="fill: #262626; stroke: #262626; stroke-width: 0.5"/>
      </g>
     </g>
     <g id="text_10">
      <!-- $\mathdefault{8}$ -->
      <g style="fill: #262626" transform="translate(29.271463 92.660404) scale(0.11 -0.11)">
       <defs>
        <path id="DejaVuSans-38" d="M 2034 2216 
Q 1584 2216 1326 1975 
Q 1069 1734 1069 1313 
Q 1069 891 1326 650 
Q 1584 409 2034 409 
Q 2484 409 2743 651 
Q 3003 894 3003 1313 
Q 3003 1734 2745 1975 
Q 2488 2216 2034 2216 
z
M 1403 2484 
Q 997 2584 770 2862 
Q 544 3141 544 3541 
Q 544 4100 942 4425 
Q 1341 4750 2034 4750 
Q 2731 4750 3128 4425 
Q 3525 4100 3525 3541 
Q 3525 3141 3298 2862 
Q 3072 2584 2669 2484 
Q 3125 2378 3379 2068 
Q 3634 1759 3634 1313 
Q 3634 634 3220 271 
Q 2806 -91 2034 -91 
Q 1263 -91 848 271 
Q 434 634 434 1313 
Q 434 1759 690 2068 
Q 947 2378 1403 2484 
z
M 1172 3481 
Q 1172 3119 1398 2916 
Q 1625 2713 2034 2713 
Q 2441 2713 2670 2916 
Q 2900 3119 2900 3481 
Q 2900 3844 2670 4047 
Q 2441 4250 2034 4250 
Q 1625 4250 1398 4047 
Q 1172 3844 1172 3481 
z
" transform="scale(0.015625)"/>
       </defs>
       <use xlink:href="#DejaVuSans-38" transform="translate(0 0.78125)"/>
      </g>
     </g>
    </g>
    <g id="ytick_6">
     <g id="line2d_31">
      <path d="M 39.811463 33.278628 
L 686.679146 33.278628 
" clip-path="url(#pb4216f1ca3)" style="fill: none; stroke-dasharray: 1.85,0.8; stroke-dashoffset: 0; stroke: #1a1a1a; stroke-opacity: 0.3; stroke-width: 0.5"/>
     </g>
     <g id="line2d_32">
      <g>
       <use xlink:href="#m5a4b92ad66" x="686.679146" y="33.278628" style="fill: #262626; stroke: #262626; stroke-width: 0.5"/>
      </g>
     </g>
     <g id="text_11">
      <!-- $\mathdefault{10}$ -->
      <g style="fill: #262626" transform="translate(22.231463 37.457768) scale(0.11 -0.11)">
       <defs>
        <path id="DejaVuSans-31" d="M 794 531 
L 1825 531 
L 1825 4091 
L 703 3866 
L 703 4441 
L 1819 4666 
L 2450 4666 
L 2450 531 
L 3481 531 
L 3481 0 
L 794 0 
L 794 531 
z
" transform="scale(0.015625)"/>
       </defs>
       <use xlink:href="#DejaVuSans-31" transform="translate(0 0.78125)"/>
       <use xlink:href="#DejaVuSans-30" transform="translate(63.623047 0.78125)"/>
      </g>
     </g>
    </g>
    <g id="ytick_7">
     <g id="line2d_33">
      <defs>
       <path id="mc4fb0bef2f" d="M 0 0 
L -1.5 0 
" style="stroke: #262626; stroke-width: 0.5"/>
      </defs>
      <g>
       <use xlink:href="#mc4fb0bef2f" x="686.679146" y="323.092464" style="fill: #262626; stroke: #262626; stroke-width: 0.5"/>
      </g>
     </g>
    </g>
    <g id="ytick_8">
     <g id="line2d_34">
      <g>
       <use xlink:href="#mc4fb0bef2f" x="686.679146" y="295.491146" style="fill: #262626; stroke: #262626; stroke-width: 0.5"/>
      </g>
     </g>
    </g>
    <g id="ytick_9">
     <g id="line2d_35">
      <g>
       <use xlink:href="#mc4fb0bef2f" x="686.679146" y="281.690488" style="fill: #262626; stroke: #262626; stroke-width: 0.5"/>
      </g>
     </g>
    </g>
    <g id="ytick_10">
     <g id="line2d_36">
      <g>
       <use xlink:href="#mc4fb0bef2f" x="686.679146" y="267.889829" style="fill: #262626; stroke: #262626; stroke-width: 0.5"/>
      </g>
     </g>
    </g>
    <g id="ytick_11">
     <g id="line2d_37">
      <g>
       <use xlink:href="#mc4fb0bef2f" x="686.679146" y="240.288511" style="fill: #262626; stroke: #262626; stroke-width: 0.5"/>
      </g>
     </g>
    </g>
    <g id="ytick_12">
     <g id="line2d_38">
      <g>
       <use xlink:href="#mc4fb0bef2f" x="686.679146" y="226.487852" style="fill: #262626; stroke: #262626; stroke-width: 0.5"/>
      </g>
     </g>
    </g>
    <g id="ytick_13">
     <g id="line2d_39">
      <g>
       <use xlink:href="#mc4fb0bef2f" x="686.679146" y="212.687193" style="fill: #262626; stroke: #262626; stroke-width: 0.5"/>
      </g>
     </g>
    </g>
    <g id="ytick_14">
     <g id="line2d_40">
      <g>
       <use xlink:href="#mc4fb0bef2f" x="686.679146" y="185.085875" style="fill: #262626; stroke: #262626; stroke-width: 0.5"/>
      </g>
     </g>
    </g>
    <g id="ytick_15">
     <g id="line2d_41">
      <g>
       <use xlink:href="#mc4fb0bef2f" x="686.679146" y="171.285217" style="fill: #262626; stroke: #262626; stroke-width: 0.5"/>
      </g>
     </g>
    </g>
    <g id="ytick_16">
     <g id="line2d_42">
      <g>
       <use xlink:href="#mc4fb0bef2f" x="686.679146" y="157.484558" style="fill: #262626; stroke: #262626; stroke-width: 0.5"/>
      </g>
     </g>
    </g>
    <g id="ytick_17">
     <g id="line2d_43">
      <g>
       <use xlink:href="#mc4fb0bef2f" x="686.679146" y="129.88324" style="fill: #262626; stroke: #262626; stroke-width: 0.5"/>
      </g>
     </g>
    </g>
    <g id="ytick_18">
     <g id="line2d_44">
      <g>
       <use xlink:href="#mc4fb0bef2f" x="686.679146" y="116.082581" style="fill: #262626; stroke: #262626; stroke-width: 0.5"/>
      </g>
     </g>
    </g>
    <g id="ytick_19">
     <g id="line2d_45">
      <g>
       <use xlink:href="#mc4fb0bef2f" x="686.679146" y="102.281922" style="fill: #262626; stroke: #262626; stroke-width: 0.5"/>
      </g>
     </g>
    </g>
    <g id="ytick_20">
     <g id="line2d_46">
      <g>
       <use xlink:href="#mc4fb0bef2f" x="686.679146" y="74.680604" style="fill: #262626; stroke: #262626; stroke-width: 0.5"/>
      </g>
     </g>
    </g>
    <g id="ytick_21">
     <g id="line2d_47">
      <g>
       <use xlink:href="#mc4fb0bef2f" x="686.679146" y="60.879945" style="fill: #262626; stroke: #262626; stroke-width: 0.5"/>
      </g>
     </g>
    </g>
    <g id="ytick_22">
     <g id="line2d_48">
      <g>
       <use xlink:href="#mc4fb0bef2f" x="686.679146" y="47.079287" style="fill: #262626; stroke: #262626; stroke-width: 0.5"/>
      </g>
     </g>
    </g>
    <g id="ytick_23">
     <g id="line2d_49">
      <g>
       <use xlink:href="#mc4fb0bef2f" x="686.679146" y="19.477969" style="fill: #262626; stroke: #262626; stroke-width: 0.5"/>
      </g>
     </g>
    </g>
    <g id="text_12">
     <!-- Weekly hours (AI use) -->
     <g style="fill: #262626" transform="translate(15.735838 236.706779) rotate(-90) scale(0.12 -0.12)">
      <defs>
       <path id="DejaVuSans-57" d="M 213 4666 
L 850 4666 
L 1831 722 
L 2809 4666 
L 3519 4666 
L 4500 722 
L 5478 4666 
L 6119 4666 
L 4947 0 
L 4153 0 
L 3169 4050 
L 2175 0 
L 1381 0 
L 213 4666 
z
" transform="scale(0.015625)"/>
       <path id="DejaVuSans-6b" d="M 581 4863 
L 1159 4863 
L 1159 1991 
L 2875 3500 
L 3609 3500 
L 1753 1863 
L 3688 0 
L 2938 0 
L 1159 1709 
L 1159 0 
L 581 0 
L 581 4863 
z
" transform="scale(0.015625)"/>
       <path id="DejaVuSans-6c" d="M 603 4863 
L 1178 4863 
L 1178 0 
L 603 0 
L 603 4863 
z
" transform="scale(0.015625)"/>
       <path id="DejaVuSans-28" d="M 1984 4856 
Q 1566 4138 1362 3434 
Q 1159 2731 1159 2009 
Q 1159 1288 1364 580 
Q 1569 -128 1984 -844 
L 1484 -844 
Q 1016 -109 783 600 
Q 550 1309 550 2009 
Q 550 2706 781 3412 
Q 1013 4119 1484 4856 
L 1984 4856 
z
" transform="scale(0.015625)"/>
       <path id="DejaVuSans-41" d="M 2188 4044 
L 1331 1722 
L 3047 1722 
L 2188 4044 
z
M 1831 4666 
L 2547 4666 
L 4325 0 
L 3669 0 
L 3244 1197 
L 1141 1197 
L 716 0 
L 50 0 
L 1831 4666 
z
" transform="scale(0.015625)"/>
       <path id="DejaVuSans-49" d="M 628 4666 
L 1259 4666 
L 1259 0 
L 628 0 
L 628 4666 
z
" transform="scale(0.015625)"/>
       <path id="DejaVuSans-29" d="M 513 4856 
L 1013 4856 
Q 1481 4119 1714 3412 
Q 1947 2706 1947 2009 
Q 1947 1309 1714 600 
Q 1481 -109 1013 -844 
L 513 -844 
Q 928 -128 1133 580 
Q 1338 1288 1338 2009 
Q 1338 2731 1133 3434 
Q 928 4138 513 4856 
z
" transform="scale(0.015625)"/>
      </defs>
      <use xlink:href="#DejaVuSans-57"/>
      <use xlink:href="#DejaVuSans-65" transform="translate(93.001953 0)"/>
      <use xlink:href="#DejaVuSans-65" transform="translate(154.525391 0)"/>
      <use xlink:href="#DejaVuSans-6b" transform="translate(216.048828 0)"/>
      <use xlink:href="#DejaVuSans-6c" transform="translate(273.958984 0)"/>
      <use xlink:href="#DejaVuSans-79" transform="translate(301.742188 0)"/>
      <use xlink:href="#DejaVuSans-20" transform="translate(360.921875 0)"/>
      <use xlink:href="#DejaVuSans-68" transform="translate(392.708984 0)"/>
      <use xlink:href="#DejaVuSans-6f" transform="translate(456.087891 0)"/>
      <use xlink:href="#DejaVuSans-75" transform="translate(517.269531 0)"/>
      <use xlink:href="#DejaVuSans-72" transform="translate(580.648438 0)"/>
      <use xlink:href="#DejaVuSans-73" transform="translate(621.761719 0)"/>
      <use xlink:href="#DejaVuSans-20" transform="translate(673.861328 0)"/>
      <use xlink:href="#DejaVuSans-28" transform="translate(705.648438 0)"/>
      <use xlink:href="#DejaVuSans-41" transform="translate(744.662109 0)"/>
      <use xlink:href="#DejaVuSans-49" transform="translate(813.070312 0)"/>
      <use xlink:href="#DejaVuSans-20" transform="translate(842.5625 0)"/>
      <use xlink:href="#DejaVuSans-75" transform="translate(874.349609 0)"/>
      <use xlink:href="#DejaVuSans-73" transform="translate(937.728516 0)"/>
      <use xlink:href="#DejaVuSans-65" transform="translate(989.828125 0)"/>
      <use xlink:href="#DejaVuSans-29" transform="translate(1051.351562 0)"/>
     </g>
    </g>
   </g>
   <g id="FillBetweenPolyCollection_1">
    <defs>
     <path id="mc02ccfe85a" d="M 159.254102 -67.967958 
L 82.085745 -67.967958 
L 79.074564 -70.75597 
L 76.11141 -73.543981 
L 73.233143 -76.331993 
L 70.476575 -79.120005 
L 67.877575 -81.908017 
L 65.47016 -84.696029 
L 63.285633 -87.484041 
L 61.351782 -90.272053 
L 59.692196 -93.060065 
L 58.325706 -95.848077 
L 57.265989 -98.636088 
L 56.52133 -101.4241 
L 56.094561 -104.212112 
L 55.983155 -107.000124 
L 56.179476 -109.788136 
L 56.671138 -112.576148 
L 57.441482 -115.36416 
L 58.470118 -118.152172 
L 59.733519 -120.940184 
L 61.205643 -123.728196 
L 62.85856 -126.516207 
L 64.663081 -129.304219 
L 66.58936 -132.092231 
L 68.607472 -134.880243 
L 70.687962 -137.668255 
L 72.802353 -140.456267 
L 74.92361 -143.244279 
L 77.026564 -146.032291 
L 79.088283 -148.820303 
L 81.088392 -151.608315 
L 83.009339 -154.396326 
L 84.836599 -157.184338 
L 86.558818 -159.97235 
L 88.167898 -162.760362 
L 89.659005 -165.548374 
L 91.030515 -168.336386 
L 92.283888 -171.124398 
L 93.423467 -173.91241 
L 94.456202 -176.700422 
L 95.391305 -179.488433 
L 96.239836 -182.276445 
L 97.014232 -185.064457 
L 97.727787 -187.852469 
L 98.394103 -190.640481 
L 99.026534 -193.428493 
L 99.637645 -196.216505 
L 100.238706 -199.004517 
L 100.839264 -201.792529 
L 101.446794 -204.580541 
L 102.066465 -207.368552 
L 102.701029 -210.156564 
L 103.350835 -212.944576 
L 104.013975 -215.732588 
L 104.686537 -218.5206 
L 105.362961 -221.308612 
L 106.036468 -224.096624 
L 106.699531 -226.884636 
L 107.344365 -229.672648 
L 107.963402 -232.46066 
L 108.549724 -235.248671 
L 109.097443 -238.036683 
L 109.601992 -240.824695 
L 110.060333 -243.612707 
L 110.471079 -246.400719 
L 110.834512 -249.188731 
L 111.152525 -251.976743 
L 111.428487 -254.764755 
L 111.667036 -257.552767 
L 111.873831 -260.340778 
L 112.055255 -263.12879 
L 112.218104 -265.916802 
L 112.369254 -268.704814 
L 112.515345 -271.492826 
L 112.662472 -274.280838 
L 112.815913 -277.06885 
L 112.979894 -279.856862 
L 113.157422 -282.644874 
L 113.350167 -285.432886 
L 113.558435 -288.220897 
L 113.781202 -291.008909 
L 114.016238 -293.796921 
L 114.260295 -296.584933 
L 114.509362 -299.372945 
L 114.758965 -302.160957 
L 115.00449 -304.948969 
L 115.241527 -307.736981 
L 115.466176 -310.524993 
L 115.675331 -313.313004 
L 115.866894 -316.101016 
L 116.039915 -318.889028 
L 116.194648 -321.67704 
L 116.332516 -324.465052 
L 116.455988 -327.253064 
L 116.568391 -330.041076 
L 116.673648 -332.829088 
L 116.775997 -335.6171 
L 116.879678 -338.405112 
L 116.988646 -341.193123 
L 117.106305 -343.981135 
L 124.233543 -343.981135 
L 124.233543 -343.981135 
L 124.351202 -341.193123 
L 124.46017 -338.405112 
L 124.563851 -335.6171 
L 124.666199 -332.829088 
L 124.771457 -330.041076 
L 124.883859 -327.253064 
L 125.007332 -324.465052 
L 125.145199 -321.67704 
L 125.299933 -318.889028 
L 125.472954 -316.101016 
L 125.664517 -313.313004 
L 125.873672 -310.524993 
L 126.098321 -307.736981 
L 126.335357 -304.948969 
L 126.580883 -302.160957 
L 126.830485 -299.372945 
L 127.079552 -296.584933 
L 127.32361 -293.796921 
L 127.558646 -291.008909 
L 127.781413 -288.220897 
L 127.98968 -285.432886 
L 128.182426 -282.644874 
L 128.359953 -279.856862 
L 128.523935 -277.06885 
L 128.677375 -274.280838 
L 128.824502 -271.492826 
L 128.970594 -268.704814 
L 129.121744 -265.916802 
L 129.284592 -263.12879 
L 129.466017 -260.340778 
L 129.672812 -257.552767 
L 129.911361 -254.764755 
L 130.187322 -251.976743 
L 130.505335 -249.188731 
L 130.868768 -246.400719 
L 131.279514 -243.612707 
L 131.737856 -240.824695 
L 132.242404 -238.036683 
L 132.790123 -235.248671 
L 133.376446 -232.46066 
L 133.995482 -229.672648 
L 134.640316 -226.884636 
L 135.303379 -224.096624 
L 135.976886 -221.308612 
L 136.65331 -218.5206 
L 137.325872 -215.732588 
L 137.989012 -212.944576 
L 138.638819 -210.156564 
L 139.273383 -207.368552 
L 139.893053 -204.580541 
L 140.500583 -201.792529 
L 141.101141 -199.004517 
L 141.702203 -196.216505 
L 142.313313 -193.428493 
L 142.945745 -190.640481 
L 143.612061 -187.852469 
L 144.325615 -185.064457 
L 145.100011 -182.276445 
L 145.948542 -179.488433 
L 146.883645 -176.700422 
L 147.91638 -173.91241 
L 149.055959 -171.124398 
L 150.309333 -168.336386 
L 151.680843 -165.548374 
L 153.171949 -162.760362 
L 154.781029 -159.97235 
L 156.503249 -157.184338 
L 158.330509 -154.396326 
L 160.251456 -151.608315 
L 162.251565 -148.820303 
L 164.313284 -146.032291 
L 166.416238 -143.244279 
L 168.537495 -140.456267 
L 170.651885 -137.668255 
L 172.732376 -134.880243 
L 174.750488 -132.092231 
L 176.676767 -129.304219 
L 178.481288 -126.516207 
L 180.134205 -123.728196 
L 181.606328 -120.940184 
L 182.869729 -118.152172 
L 183.898366 -115.36416 
L 184.66871 -112.576148 
L 185.160372 -109.788136 
L 185.356692 -107.000124 
L 185.245287 -104.212112 
L 184.818518 -101.4241 
L 184.073858 -98.636088 
L 183.014141 -95.848077 
L 181.647652 -93.060065 
L 179.988066 -90.272053 
L 178.054215 -87.484041 
L 175.869687 -84.696029 
L 173.462273 -81.908017 
L 170.863272 -79.120005 
L 168.106705 -76.331993 
L 165.228437 -73.543981 
L 162.265284 -70.75597 
L 159.254102 -67.967958 
z
" style="stroke: #484848; stroke-width: 1.25"/>
    </defs>
    <g clip-path="url(#pb4216f1ca3)">
     <use xlink:href="#mc02ccfe85a" x="0" y="377.259763" style="fill: #cb3335; stroke: #484848; stroke-width: 1.25"/>
    </g>
   </g>
   <g id="FillBetweenPolyCollection_2">
    <defs>
     <path id="md79cb8249c" d="M 337.638773 -67.967958 
L 227.134916 -67.967958 
L 224.81172 -70.75597 
L 222.812698 -73.543981 
L 221.149961 -76.331993 
L 219.82608 -79.120005 
L 218.835038 -81.908017 
L 218.163578 -84.696029 
L 217.792833 -87.484041 
L 217.700076 -90.272053 
L 217.860445 -93.060065 
L 218.248509 -95.848077 
L 218.839581 -98.636088 
L 219.610683 -101.4241 
L 220.541164 -104.212112 
L 221.612936 -107.000124 
L 222.810389 -109.788136 
L 224.12003 -112.576148 
L 225.529928 -115.36416 
L 227.029054 -118.152172 
L 228.606598 -120.940184 
L 230.251345 -123.728196 
L 231.951185 -126.516207 
L 233.69279 -129.304219 
L 235.461494 -132.092231 
L 237.24138 -134.880243 
L 239.015559 -137.668255 
L 240.766602 -140.456267 
L 242.477098 -143.244279 
L 244.130265 -146.032291 
L 245.710588 -148.820303 
L 247.20442 -151.608315 
L 248.600519 -154.396326 
L 249.890483 -157.184338 
L 251.069073 -159.97235 
L 252.134409 -162.760362 
L 253.088037 -165.548374 
L 253.934878 -168.336386 
L 254.683056 -171.124398 
L 255.343612 -173.91241 
L 255.930126 -176.700422 
L 256.458233 -179.488433 
L 256.945058 -182.276445 
L 257.408576 -185.064457 
L 257.866908 -187.852469 
L 258.337583 -190.640481 
L 258.836794 -193.428493 
L 259.37867 -196.216505 
L 259.974627 -199.004517 
L 260.632815 -201.792529 
L 261.357718 -204.580541 
L 262.14994 -207.368552 
L 263.006187 -210.156564 
L 263.919472 -212.944576 
L 264.879526 -215.732588 
L 265.873389 -218.5206 
L 266.886158 -221.308612 
L 267.901816 -224.096624 
L 268.904114 -226.884636 
L 269.877417 -229.672648 
L 270.807476 -232.46066 
L 271.68207 -235.248671 
L 272.491481 -238.036683 
L 273.228791 -240.824695 
L 273.889982 -243.612707 
L 274.473862 -246.400719 
L 274.981836 -249.188731 
L 275.417547 -251.976743 
L 275.786434 -254.764755 
L 276.095242 -257.552767 
L 276.351517 -260.340778 
L 276.563112 -263.12879 
L 276.737751 -265.916802 
L 276.882638 -268.704814 
L 277.004145 -271.492826 
L 277.107578 -274.280838 
L 277.19702 -277.06885 
L 277.275252 -279.856862 
L 277.343754 -282.644874 
L 277.402768 -285.432886 
L 277.45144 -288.220897 
L 277.488018 -291.008909 
L 277.510103 -293.796921 
L 277.514955 -296.584933 
L 277.499827 -299.372945 
L 277.462313 -302.160957 
L 277.400709 -304.948969 
L 277.314331 -307.736981 
L 277.203799 -310.524993 
L 277.071237 -313.313004 
L 276.920383 -316.101016 
L 276.756587 -318.889028 
L 276.58668 -321.67704 
L 276.418727 -324.465052 
L 276.261666 -327.253064 
L 276.124852 -330.041076 
L 276.017544 -332.829088 
L 275.94836 -335.6171 
L 275.924754 -338.405112 
L 275.952545 -341.193123 
L 276.035549 -343.981135 
L 288.73814 -343.981135 
L 288.73814 -343.981135 
L 288.821143 -341.193123 
L 288.848935 -338.405112 
L 288.825329 -335.6171 
L 288.756145 -332.829088 
L 288.648837 -330.041076 
L 288.512023 -327.253064 
L 288.354962 -324.465052 
L 288.187009 -321.67704 
L 288.017101 -318.889028 
L 287.853305 -316.101016 
L 287.702452 -313.313004 
L 287.56989 -310.524993 
L 287.459357 -307.736981 
L 287.37298 -304.948969 
L 287.311375 -302.160957 
L 287.273862 -299.372945 
L 287.258733 -296.584933 
L 287.263586 -293.796921 
L 287.285671 -291.008909 
L 287.322249 -288.220897 
L 287.370921 -285.432886 
L 287.429935 -282.644874 
L 287.498436 -279.856862 
L 287.576669 -277.06885 
L 287.666111 -274.280838 
L 287.769544 -271.492826 
L 287.891051 -268.704814 
L 288.035937 -265.916802 
L 288.210577 -263.12879 
L 288.422172 -260.340778 
L 288.678446 -257.552767 
L 288.987255 -254.764755 
L 289.356142 -251.976743 
L 289.791852 -249.188731 
L 290.299826 -246.400719 
L 290.883707 -243.612707 
L 291.544898 -240.824695 
L 292.282207 -238.036683 
L 293.091619 -235.248671 
L 293.966212 -232.46066 
L 294.896272 -229.672648 
L 295.869575 -226.884636 
L 296.871873 -224.096624 
L 297.887531 -221.308612 
L 298.900299 -218.5206 
L 299.894163 -215.732588 
L 300.854216 -212.944576 
L 301.767502 -210.156564 
L 302.623749 -207.368552 
L 303.415971 -204.580541 
L 304.140874 -201.792529 
L 304.799061 -199.004517 
L 305.395018 -196.216505 
L 305.936895 -193.428493 
L 306.436106 -190.640481 
L 306.906781 -187.852469 
L 307.365112 -185.064457 
L 307.82863 -182.276445 
L 308.315456 -179.488433 
L 308.843563 -176.700422 
L 309.430077 -173.91241 
L 310.090633 -171.124398 
L 310.83881 -168.336386 
L 311.685652 -165.548374 
L 312.63928 -162.760362 
L 313.704616 -159.97235 
L 314.883206 -157.184338 
L 316.17317 -154.396326 
L 317.569269 -151.608315 
L 319.063101 -148.820303 
L 320.643423 -146.032291 
L 322.29659 -143.244279 
L 324.007086 -140.456267 
L 325.75813 -137.668255 
L 327.532309 -134.880243 
L 329.312195 -132.092231 
L 331.080899 -129.304219 
L 332.822504 -126.516207 
L 334.522344 -123.728196 
L 336.167091 -120.940184 
L 337.744634 -118.152172 
L 339.24376 -115.36416 
L 340.653659 -112.576148 
L 341.9633 -109.788136 
L 343.160753 -107.000124 
L 344.232525 -104.212112 
L 345.163006 -101.4241 
L 345.934108 -98.636088 
L 346.525179 -95.848077 
L 346.913244 -93.060065 
L 347.073613 -90.272053 
L 346.980856 -87.484041 
L 346.61011 -84.696029 
L 345.93865 -81.908017 
L 344.947609 -79.120005 
L 343.623728 -76.331993 
L 341.96099 -73.543981 
L 339.961969 -70.75597 
L 337.638773 -67.967958 
z
" style="stroke: #484848; stroke-width: 1.25"/>
    </defs>
    <g clip-path="url(#pb4216f1ca3)">
     <use xlink:href="#md79cb8249c" x="0" y="377.259763" style="fill: #59a257; stroke: #484848; stroke-width: 1.25"/>
    </g>
   </g>
   <g id="FillBetweenPolyCollection_3">
    <defs>
     <path id="m974bcddcf3" d="M 508.570364 -67.967958 
L 379.637166 -67.967958 
L 379.416997 -69.083162 
L 379.569716 -70.198367 
L 380.078647 -71.313572 
L 380.91939 -72.428777 
L 382.060768 -73.543981 
L 383.466022 -74.659186 
L 385.094185 -75.774391 
L 386.901573 -76.889596 
L 388.843319 -78.0048 
L 390.87487 -79.120005 
L 392.953392 -80.23521 
L 395.039003 -81.350415 
L 397.095792 -82.465619 
L 399.09259 -83.580824 
L 401.003458 -84.696029 
L 402.807901 -85.811234 
L 404.490807 -86.926439 
L 406.042141 -88.041643 
L 407.456435 -89.156848 
L 408.732116 -90.272053 
L 409.87073 -91.387258 
L 410.87612 -92.502462 
L 411.753608 -93.617667 
L 412.509251 -94.732872 
L 413.149191 -95.848077 
L 413.679155 -96.963281 
L 414.104123 -98.078486 
L 414.42817 -99.193691 
L 414.654489 -100.308896 
L 414.785565 -101.4241 
L 414.823505 -102.539305 
L 414.770451 -103.65451 
L 414.629069 -104.769715 
L 414.403053 -105.884919 
L 414.097603 -107.000124 
L 413.719831 -108.115329 
L 413.279069 -109.230534 
L 412.787034 -110.345738 
L 412.257843 -111.460943 
L 411.707862 -112.576148 
L 411.155385 -113.691353 
L 410.620171 -114.806557 
L 410.122843 -115.921762 
L 409.684196 -117.036967 
L 409.324442 -118.152172 
L 409.062439 -119.267377 
L 408.914942 -120.382581 
L 408.895923 -121.497786 
L 409.016001 -122.612991 
L 409.282003 -123.728196 
L 409.696692 -124.8434 
L 410.258667 -125.958605 
L 410.962444 -127.07381 
L 411.798713 -128.189015 
L 412.754753 -129.304219 
L 413.814977 -130.419424 
L 414.961584 -131.534629 
L 416.175277 -132.649834 
L 417.436012 -133.765038 
L 418.723738 -134.880243 
L 420.019091 -135.995448 
L 421.304015 -137.110653 
L 422.56228 -138.225857 
L 423.779879 -139.341062 
L 424.945296 -140.456267 
L 426.049639 -141.571472 
L 427.08664 -142.686676 
L 428.052546 -143.801881 
L 428.945894 -144.917086 
L 429.767222 -146.032291 
L 430.518716 -147.147495 
L 431.203824 -148.2627 
L 431.826871 -149.377905 
L 432.39269 -150.49311 
L 432.906278 -151.608315 
L 433.372523 -152.723519 
L 433.795976 -153.838724 
L 434.180703 -154.953929 
L 434.530197 -156.069134 
L 434.847367 -157.184338 
L 435.134575 -158.299543 
L 435.393725 -159.414748 
L 435.626391 -160.529953 
L 435.83396 -161.645157 
L 436.017782 -162.760362 
L 436.17932 -163.875567 
L 436.320272 -164.990772 
L 436.442674 -166.105976 
L 436.548959 -167.221181 
L 436.641981 -168.336386 
L 436.724998 -169.451591 
L 436.801619 -170.566795 
L 436.875704 -171.682 
L 436.951257 -172.797205 
L 437.032278 -173.91241 
L 437.122622 -175.027614 
L 437.225845 -176.142819 
L 437.345065 -177.258024 
L 437.482841 -178.373229 
L 450.724689 -178.373229 
L 450.724689 -178.373229 
L 450.862465 -177.258024 
L 450.981685 -176.142819 
L 451.084908 -175.027614 
L 451.175252 -173.91241 
L 451.256273 -172.797205 
L 451.331826 -171.682 
L 451.405911 -170.566795 
L 451.482531 -169.451591 
L 451.565549 -168.336386 
L 451.658571 -167.221181 
L 451.764856 -166.105976 
L 451.887257 -164.990772 
L 452.02821 -163.875567 
L 452.189748 -162.760362 
L 452.37357 -161.645157 
L 452.581139 -160.529953 
L 452.813805 -159.414748 
L 453.072955 -158.299543 
L 453.360163 -157.184338 
L 453.677333 -156.069134 
L 454.026827 -154.953929 
L 454.411554 -153.838724 
L 454.835007 -152.723519 
L 455.301252 -151.608315 
L 455.81484 -150.49311 
L 456.380658 -149.377905 
L 457.003706 -148.2627 
L 457.688814 -147.147495 
L 458.440308 -146.032291 
L 459.261636 -144.917086 
L 460.154984 -143.801881 
L 461.120889 -142.686676 
L 462.157891 -141.571472 
L 463.262234 -140.456267 
L 464.427651 -139.341062 
L 465.64525 -138.225857 
L 466.903515 -137.110653 
L 468.188439 -135.995448 
L 469.483792 -134.880243 
L 470.771518 -133.765038 
L 472.032253 -132.649834 
L 473.245946 -131.534629 
L 474.392552 -130.419424 
L 475.452776 -129.304219 
L 476.408817 -128.189015 
L 477.245086 -127.07381 
L 477.948863 -125.958605 
L 478.510837 -124.8434 
L 478.925526 -123.728196 
L 479.191529 -122.612991 
L 479.311607 -121.497786 
L 479.292588 -120.382581 
L 479.14509 -119.267377 
L 478.883088 -118.152172 
L 478.523334 -117.036967 
L 478.084687 -115.921762 
L 477.587359 -114.806557 
L 477.052144 -113.691353 
L 476.499668 -112.576148 
L 475.949687 -111.460943 
L 475.420496 -110.345738 
L 474.928461 -109.230534 
L 474.487699 -108.115329 
L 474.109927 -107.000124 
L 473.804477 -105.884919 
L 473.578461 -104.769715 
L 473.437079 -103.65451 
L 473.384025 -102.539305 
L 473.421965 -101.4241 
L 473.553041 -100.308896 
L 473.779359 -99.193691 
L 474.103407 -98.078486 
L 474.528375 -96.963281 
L 475.058339 -95.848077 
L 475.698279 -94.732872 
L 476.453922 -93.617667 
L 477.33141 -92.502462 
L 478.3368 -91.387258 
L 479.475414 -90.272053 
L 480.751095 -89.156848 
L 482.165389 -88.041643 
L 483.716723 -86.926439 
L 485.399629 -85.811234 
L 487.204072 -84.696029 
L 489.11494 -83.580824 
L 491.111738 -82.465619 
L 493.168527 -81.350415 
L 495.254138 -80.23521 
L 497.33266 -79.120005 
L 499.364211 -78.0048 
L 501.305957 -76.889596 
L 503.113345 -75.774391 
L 504.741508 -74.659186 
L 506.146762 -73.543981 
L 507.28814 -72.428777 
L 508.128883 -71.313572 
L 508.637814 -70.198367 
L 508.790533 -69.083162 
L 508.570364 -67.967958 
z
" style="stroke: #484848; stroke-width: 1.25"/>
    </defs>
    <g clip-path="url(#pb4216f1ca3)">
     <use xlink:href="#m974bcddcf3" x="0" y="377.259763" style="fill: #e2c137; stroke: #484848; stroke-width: 1.25"/>
    </g>
   </g>
   <g id="FillBetweenPolyCollection_4">
    <defs>
     <path id="m4a54208748" d="M 670.390815 -67.967958 
L 541.250556 -67.967958 
L 541.133917 -69.361964 
L 541.738822 -70.75597 
L 542.997792 -72.149975 
L 544.814772 -73.543981 
L 547.072047 -74.937987 
L 549.638701 -76.331993 
L 552.379858 -77.725999 
L 555.165904 -79.120005 
L 557.88087 -80.514011 
L 560.429282 -81.908017 
L 562.740933 -83.302023 
L 564.773259 -84.696029 
L 566.511233 -86.090035 
L 567.96493 -87.484041 
L 569.165129 -88.878047 
L 570.157483 -90.272053 
L 570.995891 -91.666059 
L 571.735755 -93.060065 
L 572.427756 -94.454071 
L 573.112733 -95.848077 
L 573.818059 -97.242083 
L 574.555798 -98.636088 
L 575.32269 -100.030094 
L 576.101858 -101.4241 
L 576.865966 -102.818106 
L 577.581419 -104.212112 
L 578.213118 -105.606118 
L 578.729251 -107.000124 
L 579.10562 -108.39413 
L 579.329063 -109.788136 
L 579.399651 -111.182142 
L 579.331451 -112.576148 
L 579.151823 -113.970154 
L 578.89933 -115.36416 
L 578.620528 -116.758166 
L 578.365939 -118.152172 
L 578.185657 -119.546178 
L 578.124995 -120.940184 
L 578.220619 -122.33419 
L 578.49752 -123.728196 
L 578.967096 -125.122201 
L 579.626503 -126.516207 
L 580.459288 -127.910213 
L 581.437211 -129.304219 
L 582.523029 -130.698225 
L 583.673949 -132.092231 
L 584.845391 -133.486237 
L 585.994707 -134.880243 
L 587.084492 -136.274249 
L 588.085231 -137.668255 
L 588.977049 -139.062261 
L 589.750483 -140.456267 
L 590.406248 -141.850273 
L 590.954109 -143.244279 
L 591.411014 -144.638285 
L 591.798721 -146.032291 
L 592.141191 -147.426297 
L 592.461995 -148.820303 
L 592.781998 -150.214309 
L 593.117514 -151.608315 
L 593.479078 -153.00232 
L 593.870901 -154.396326 
L 594.291021 -155.790332 
L 594.732075 -157.184338 
L 595.182572 -158.578344 
L 595.628508 -159.97235 
L 596.055125 -161.366356 
L 596.448652 -162.760362 
L 596.797817 -164.154368 
L 597.095032 -165.548374 
L 597.337113 -166.94238 
L 597.525518 -168.336386 
L 597.666086 -169.730392 
L 597.768347 -171.124398 
L 597.84447 -172.518404 
L 597.908006 -173.91241 
L 597.972528 -175.306416 
L 598.050334 -176.700422 
L 598.151328 -178.094428 
L 598.282183 -179.488433 
L 598.445856 -180.882439 
L 598.641497 -182.276445 
L 598.864728 -183.670451 
L 599.10826 -185.064457 
L 599.362767 -186.458463 
L 599.617925 -187.852469 
L 599.863497 -189.246475 
L 600.090372 -190.640481 
L 600.291445 -192.034487 
L 600.462269 -193.428493 
L 600.601423 -194.822499 
L 600.710583 -196.216505 
L 600.794286 -197.610511 
L 600.859449 -199.004517 
L 600.914678 -200.398523 
L 600.969457 -201.792529 
L 601.033299 -203.186535 
L 601.114929 -204.580541 
L 601.221582 -205.974546 
L 610.419789 -205.974546 
L 610.419789 -205.974546 
L 610.526442 -204.580541 
L 610.608072 -203.186535 
L 610.671914 -201.792529 
L 610.726693 -200.398523 
L 610.781922 -199.004517 
L 610.847085 -197.610511 
L 610.930788 -196.216505 
L 611.039948 -194.822499 
L 611.179102 -193.428493 
L 611.349926 -192.034487 
L 611.550999 -190.640481 
L 611.777874 -189.246475 
L 612.023446 -187.852469 
L 612.278604 -186.458463 
L 612.533111 -185.064457 
L 612.776643 -183.670451 
L 612.999874 -182.276445 
L 613.195515 -180.882439 
L 613.359188 -179.488433 
L 613.490043 -178.094428 
L 613.591037 -176.700422 
L 613.668843 -175.306416 
L 613.733365 -173.91241 
L 613.796901 -172.518404 
L 613.873024 -171.124398 
L 613.975285 -169.730392 
L 614.115853 -168.336386 
L 614.304258 -166.94238 
L 614.546339 -165.548374 
L 614.843554 -164.154368 
L 615.192719 -162.760362 
L 615.586246 -161.366356 
L 616.012863 -159.97235 
L 616.458799 -158.578344 
L 616.909296 -157.184338 
L 617.35035 -155.790332 
L 617.77047 -154.396326 
L 618.162293 -153.00232 
L 618.523857 -151.608315 
L 618.859373 -150.214309 
L 619.179376 -148.820303 
L 619.50018 -147.426297 
L 619.84265 -146.032291 
L 620.230357 -144.638285 
L 620.687262 -143.244279 
L 621.235123 -141.850273 
L 621.890888 -140.456267 
L 622.664322 -139.062261 
L 623.55614 -137.668255 
L 624.556879 -136.274249 
L 625.646664 -134.880243 
L 626.79598 -133.486237 
L 627.967422 -132.092231 
L 629.118342 -130.698225 
L 630.20416 -129.304219 
L 631.182083 -127.910213 
L 632.014868 -126.516207 
L 632.674275 -125.122201 
L 633.143851 -123.728196 
L 633.420752 -122.33419 
L 633.516376 -120.940184 
L 633.455714 -119.546178 
L 633.275432 -118.152172 
L 633.020844 -116.758166 
L 632.742041 -115.36416 
L 632.489549 -113.970154 
L 632.30992 -112.576148 
L 632.241721 -111.182142 
L 632.312308 -109.788136 
L 632.535751 -108.39413 
L 632.91212 -107.000124 
L 633.428253 -105.606118 
L 634.059952 -104.212112 
L 634.775405 -102.818106 
L 635.539513 -101.4241 
L 636.318681 -100.030094 
L 637.085573 -98.636088 
L 637.823312 -97.242083 
L 638.528639 -95.848077 
L 639.213615 -94.454071 
L 639.905616 -93.060065 
L 640.64548 -91.666059 
L 641.483888 -90.272053 
L 642.476242 -88.878047 
L 643.676441 -87.484041 
L 645.130138 -86.090035 
L 646.868112 -84.696029 
L 648.900438 -83.302023 
L 651.212089 -81.908017 
L 653.760501 -80.514011 
L 656.475467 -79.120005 
L 659.261513 -77.725999 
L 662.00267 -76.331993 
L 664.569324 -74.937987 
L 666.826599 -73.543981 
L 668.643579 -72.149975 
L 669.902549 -70.75597 
L 670.507454 -69.361964 
L 670.390815 -67.967958 
z
" style="stroke: #484848; stroke-width: 1.25"/>
    </defs>
    <g clip-path="url(#pb4216f1ca3)">
     <use xlink:href="#m4a54208748" x="0" y="377.259763" style="fill: #477ca8; stroke: #484848; stroke-width: 1.25"/>
    </g>
   </g>
   <g id="line2d_50">
    <path d="M 58.462355 281.690488 
L 182.877492 281.690488 
" clip-path="url(#pb4216f1ca3)" style="fill: none; stroke-dasharray: 1.5625,0.9375; stroke-dashoffset: 0; stroke: #484848; stroke-width: 1.25"/>
   </g>
   <g id="line2d_51">
    <path d="M 60.911218 254.08917 
L 180.42863 254.08917 
" clip-path="url(#pb4216f1ca3)" style="fill: none; stroke-dasharray: 3.125,1.25; stroke-dashoffset: 0; stroke: #484848; stroke-width: 1.25"/>
   </g>
   <g id="line2d_52">
    <path d="M 92.426335 205.786864 
L 148.913512 205.786864 
" clip-path="url(#pb4216f1ca3)" style="fill: none; stroke-dasharray: 1.5625,0.9375; stroke-dashoffset: 0; stroke: #484848; stroke-width: 1.25"/>
   </g>
   <g id="line2d_53">
    <path d="M 227.134916 309.291805 
L 337.638773 309.291805 
" clip-path="url(#pb4216f1ca3)" style="fill: none; stroke-dasharray: 1.5625,0.9375; stroke-dashoffset: 0; stroke: #484848; stroke-width: 1.25"/>
   </g>
   <g id="line2d_54">
    <path d="M 229.922395 254.08917 
L 334.851293 254.08917 
" clip-path="url(#pb4216f1ca3)" style="fill: none; stroke-dasharray: 3.125,1.25; stroke-dashoffset: 0; stroke: #484848; stroke-width: 1.25"/>
   </g>
   <g id="line2d_55">
    <path d="M 256.24699 198.886534 
L 308.526699 198.886534 
" clip-path="url(#pb4216f1ca3)" style="fill: none; stroke-dasharray: 1.5625,0.9375; stroke-dashoffset: 0; stroke: #484848; stroke-width: 1.25"/>
   </g>
   <g id="line2d_56">
    <path d="M 379.637166 309.291805 
L 508.570364 309.291805 
" clip-path="url(#pb4216f1ca3)" style="fill: none; stroke-dasharray: 1.5625,0.9375; stroke-dashoffset: 0; stroke: #484848; stroke-width: 1.25"/>
   </g>
   <g id="line2d_57">
    <path d="M 412.989206 281.690488 
L 475.218324 281.690488 
" clip-path="url(#pb4216f1ca3)" style="fill: none; stroke-dasharray: 3.125,1.25; stroke-dashoffset: 0; stroke: #484848; stroke-width: 1.25"/>
   </g>
   <g id="line2d_58">
    <path d="M 409.149002 254.08917 
L 479.058528 254.08917 
" clip-path="url(#pb4216f1ca3)" style="fill: none; stroke-dasharray: 1.5625,0.9375; stroke-dashoffset: 0; stroke: #484848; stroke-width: 1.25"/>
   </g>
   <g id="line2d_59">
    <path d="M 541.250556 309.291805 
L 670.390815 309.291805 
" clip-path="url(#pb4216f1ca3)" style="fill: none; stroke-dasharray: 1.5625,0.9375; stroke-dashoffset: 0; stroke: #484848; stroke-width: 1.25"/>
   </g>
   <g id="line2d_60">
    <path d="M 572.975737 281.690488 
L 638.665634 281.690488 
" clip-path="url(#pb4216f1ca3)" style="fill: none; stroke-dasharray: 3.125,1.25; stroke-dashoffset: 0; stroke: #484848; stroke-width: 1.25"/>
   </g>
   <g id="line2d_61">
    <path d="M 578.38676 254.08917 
L 633.254611 254.08917 
" clip-path="url(#pb4216f1ca3)" style="fill: none; stroke-dasharray: 1.5625,0.9375; stroke-dashoffset: 0; stroke: #484848; stroke-width: 1.25"/>
   </g>
   <g id="patch_3">
    <path d="M 39.811463 323.092464 
L 39.811463 19.477969 
" style="fill: none; stroke: #cccccc; stroke-width: 0.5; stroke-linejoin: miter; stroke-linecap: square"/>
   </g>
   <g id="patch_4">
    <path d="M 39.811463 323.092464 
L 686.679146 323.092464 
" style="fill: none; stroke: #cccccc; stroke-width: 0.5; stroke-linejoin: miter; stroke-linecap: square"/>
   </g>
   <g id="text_13">
    <!-- Daily-life AI usage  weekly hours (trimmed) -->
    <g style="fill: #262626" transform="translate(215.901477 13.477969) scale(0.13 -0.13)">
     <defs>
      <path id="DejaVuSans-44" d="M 1259 4147 
L 1259 519 
L 2022 519 
Q 2988 519 3436 956 
Q 3884 1394 3884 2338 
Q 3884 3275 3436 3711 
Q 2988 4147 2022 4147 
L 1259 4147 
z
M 628 4666 
L 1925 4666 
Q 3281 4666 3915 4102 
Q 4550 3538 4550 2338 
Q 4550 1131 3912 565 
Q 3275 0 1925 0 
L 628 0 
L 628 4666 
z
" transform="scale(0.015625)"/>
      <path id="DejaVuSans-66" d="M 2375 4863 
L 2375 4384 
L 1825 4384 
Q 1516 4384 1395 4259 
Q 1275 4134 1275 3809 
L 1275 3500 
L 2222 3500 
L 2222 3053 
L 1275 3053 
L 1275 0 
L 697 0 
L 697 3053 
L 147 3053 
L 147 3500 
L 697 3500 
L 697 3744 
Q 697 4328 969 4595 
Q 1241 4863 1831 4863 
L 2375 4863 
z
" transform="scale(0.015625)"/>
      <path id="DejaVuSans-67" d="M 2906 1791 
Q 2906 2416 2648 2759 
Q 2391 3103 1925 3103 
Q 1463 3103 1205 2759 
Q 947 2416 947 1791 
Q 947 1169 1205 825 
Q 1463 481 1925 481 
Q 2391 481 2648 825 
Q 2906 1169 2906 1791 
z
M 3481 434 
Q 3481 -459 3084 -895 
Q 2688 -1331 1869 -1331 
Q 1566 -1331 1297 -1286 
Q 1028 -1241 775 -1147 
L 775 -588 
Q 1028 -725 1275 -790 
Q 1522 -856 1778 -856 
Q 2344 -856 2625 -561 
Q 2906 -266 2906 331 
L 2906 616 
Q 2728 306 2450 153 
Q 2172 0 1784 0 
Q 1141 0 747 490 
Q 353 981 353 1791 
Q 353 2603 747 3093 
Q 1141 3584 1784 3584 
Q 2172 3584 2450 3431 
Q 2728 3278 2906 2969 
L 2906 3500 
L 3481 3500 
L 3481 434 
z
" transform="scale(0.015625)"/>
      <path id="DejaVuSans-2014" d="M 313 1978 
L 6088 1978 
L 6088 1528 
L 313 1528 
L 313 1978 
z
" transform="scale(0.015625)"/>
      <path id="DejaVuSans-77" d="M 269 3500 
L 844 3500 
L 1563 769 
L 2278 3500 
L 2956 3500 
L 3675 769 
L 4391 3500 
L 4966 3500 
L 4050 0 
L 3372 0 
L 2619 2869 
L 1863 0 
L 1184 0 
L 269 3500 
z
" transform="scale(0.015625)"/>
      <path id="DejaVuSans-6d" d="M 3328 2828 
Q 3544 3216 3844 3400 
Q 4144 3584 4550 3584 
Q 5097 3584 5394 3201 
Q 5691 2819 5691 2113 
L 5691 0 
L 5113 0 
L 5113 2094 
Q 5113 2597 4934 2840 
Q 4756 3084 4391 3084 
Q 3944 3084 3684 2787 
Q 3425 2491 3425 1978 
L 3425 0 
L 2847 0 
L 2847 2094 
Q 2847 2600 2669 2842 
Q 2491 3084 2119 3084 
Q 1678 3084 1418 2786 
Q 1159 2488 1159 1978 
L 1159 0 
L 581 0 
L 581 3500 
L 1159 3500 
L 1159 2956 
Q 1356 3278 1631 3431 
Q 1906 3584 2284 3584 
Q 2666 3584 2933 3390 
Q 3200 3197 3328 2828 
z
" transform="scale(0.015625)"/>
     </defs>
     <use xlink:href="#DejaVuSans-44"/>
     <use xlink:href="#DejaVuSans-61" transform="translate(77.001953 0)"/>
     <use xlink:href="#DejaVuSans-69" transform="translate(138.28125 0)"/>
     <use xlink:href="#DejaVuSans-6c" transform="translate(166.064453 0)"/>
     <use xlink:href="#DejaVuSans-79" transform="translate(193.847656 0)"/>
     <use xlink:href="#DejaVuSans-2d" transform="translate(251.277344 0)"/>
     <use xlink:href="#DejaVuSans-6c" transform="translate(287.361328 0)"/>
     <use xlink:href="#DejaVuSans-69" transform="translate(315.144531 0)"/>
     <use xlink:href="#DejaVuSans-66" transform="translate(342.927734 0)"/>
     <use xlink:href="#DejaVuSans-65" transform="translate(378.132812 0)"/>
     <use xlink:href="#DejaVuSans-20" transform="translate(439.65625 0)"/>
     <use xlink:href="#DejaVuSans-41" transform="translate(471.443359 0)"/>
     <use xlink:href="#DejaVuSans-49" transform="translate(539.851562 0)"/>
     <use xlink:href="#DejaVuSans-20" transform="translate(569.34375 0)"/>
     <use xlink:href="#DejaVuSans-75" transform="translate(601.130859 0)"/>
     <use xlink:href="#DejaVuSans-73" transform="translate(664.509766 0)"/>
     <use xlink:href="#DejaVuSans-61" transform="translate(716.609375 0)"/>
     <use xlink:href="#DejaVuSans-67" transform="translate(777.888672 0)"/>
     <use xlink:href="#DejaVuSans-65" transform="translate(841.365234 0)"/>
     <use xlink:href="#DejaVuSans-20" transform="translate(902.888672 0)"/>
     <use xlink:href="#DejaVuSans-2014" transform="translate(934.675781 0)"/>
     <use xlink:href="#DejaVuSans-20" transform="translate(1034.675781 0)"/>
     <use xlink:href="#DejaVuSans-77" transform="translate(1066.462891 0)"/>
     <use xlink:href="#DejaVuSans-65" transform="translate(1148.25 0)"/>
     <use xlink:href="#DejaVuSans-65" transform="translate(1209.773438 0)"/>
     <use xlink:href="#DejaVuSans-6b" transform="translate(1271.296875 0)"/>
     <use xlink:href="#DejaVuSans-6c" transform="translate(1329.207031 0)"/>
     <use xlink:href="#DejaVuSans-79" transform="translate(1356.990234 0)"/>
     <use xlink:href="#DejaVuSans-20" transform="translate(1416.169922 0)"/>
     <use xlink:href="#DejaVuSans-68" transform="translate(1447.957031 0)"/>
     <use xlink:href="#DejaVuSans-6f" transform="translate(1511.335938 0)"/>
     <use xlink:href="#DejaVuSans-75" transform="translate(1572.517578 0)"/>
     <use xlink:href="#DejaVuSans-72" transform="translate(1635.896484 0)"/>
     <use xlink:href="#DejaVuSans-73" transform="translate(1677.009766 0)"/>
     <use xlink:href="#DejaVuSans-20" transform="translate(1729.109375 0)"/>
     <use xlink:href="#DejaVuSans-28" transform="translate(1760.896484 0)"/>
     <use xlink:href="#DejaVuSans-74" transform="translate(1799.910156 0)"/>
     <use xlink:href="#DejaVuSans-72" transform="translate(1839.119141 0)"/>
     <use xlink:href="#DejaVuSans-69" transform="translate(1880.232422 0)"/>
     <use xlink:href="#DejaVuSans-6d" transform="translate(1908.015625 0)"/>
     <use xlink:href="#DejaVuSans-6d" transform="translate(2005.427734 0)"/>
     <use xlink:href="#DejaVuSans-65" transform="translate(2102.839844 0)"/>
     <use xlink:href="#DejaVuSans-64" transform="translate(2164.363281 0)"/>
     <use xlink:href="#DejaVuSans-29" transform="translate(2227.839844 0)"/>
    </g>
   </g>
  </g>
 </g>
 <defs>
  <clipPath id="pb4216f1ca3">
   <rect x="39.811463" y="19.477969" width="646.867682" height="303.614496"/>
  </clipPath>
 </defs>
</svg>
