<?xml version="1.0" encoding="utf-8" standalone="no"?>
<!DOCTYPE svg PUBLIC "-//W3C//DTD SVG 1.1//EN"
  "http://www.w3.org/Graphics/SVG/1.1/DTD/svg11.dtd">
<svg xmlns:xlink="http://www.w3.org/1999/xlink" width="690.416403pt" height="377.199386pt" viewBox="0 0 690.416403 377.199386" xmlns="http://www.w3.org/2000/svg" version="1.1">
 <metadata>
  <rdf:RDF xmlns:dc="http://purl.org/dc/elements/1.1/" xmlns:cc="http://creativecommons.org/ns#" xmlns:rdf="http://www.w3.org/1999/02/22-rdf-syntax-ns#">
   <cc:Work>
    <dc:type rdf:resource="http://purl.org/dc/dcmitype/StillImage"/>
    <dc:date>2025-11-07T14:03:12.038297</dc:date>
    <dc:format>image/svg+xml</dc:format>
    <dc:creator>
     <cc:Agent>
      <dc:title>Matplotlib v3.10.7, https://matplotlib.org/</dc:title>
     </cc:Agent>
    </dc:creator>
   </cc:Work>
  </rdf:RDF>
 </metadata>
 <defs>
  <style type="text/css">*{stroke-linejoin: round; stroke-linecap: butt}</style>
 </defs>
 <g id="figure_1">
  <g id="patch_1">
   <path d="M 0 377.199386 
L 690.416403 377.199386 
L 690.416403 0 
L 0 0 
z
" style="fill: #ffffff"/>
  </g>
  <g id="axes_1">
   <g id="patch_2">
    <path d="M 40.480517 333.819775 
L 686.816403 333.819775 
L 686.816403 19.477969 
L 40.480517 19.477969 
z
" style="fill: #ffffff"/>
   </g>
   <g id="matplotlib.axis_1">
    <g id="xtick_1">
     <g id="line2d_1">
      <defs>
       <path id="m2f4af5d7db" d="M 0 0 
L 0 3 
" style="stroke: #262626; stroke-width: 0.5"/>
      </defs>
      <g>
       <use xlink:href="#m2f4af5d7db" x="121.272503" y="19.477969" style="fill: #262626; stroke: #262626; stroke-width: 0.5"/>
      </g>
     </g>
     <g id="text_1">
      <!-- Studenti - secondaria -->
      <g style="fill: #262626" transform="translate(5.0514 365.973945) rotate(-10) scale(0.11 -0.11)">
       <defs>
        <path id="DejaVuSans-53" d="M 3425 4513 
L 3425 3897 
Q 3066 4069 2747 4153 
Q 2428 4238 2131 4238 
Q 1616 4238 1336 4038 
Q 1056 3838 1056 3469 
Q 1056 3159 1242 3001 
Q 1428 2844 1947 2747 
L 2328 2669 
Q 3034 2534 3370 2195 
Q 3706 1856 3706 1288 
Q 3706 609 3251 259 
Q 2797 -91 1919 -91 
Q 1588 -91 1214 -16 
Q 841 59 441 206 
L 441 856 
Q 825 641 1194 531 
Q 1563 422 1919 422 
Q 2459 422 2753 634 
Q 3047 847 3047 1241 
Q 3047 1584 2836 1778 
Q 2625 1972 2144 2069 
L 1759 2144 
Q 1053 2284 737 2584 
Q 422 2884 422 3419 
Q 422 4038 858 4394 
Q 1294 4750 2059 4750 
Q 2388 4750 2728 4690 
Q 3069 4631 3425 4513 
z
" transform="scale(0.015625)"/>
        <path id="DejaVuSans-74" d="M 1172 4494 
L 1172 3500 
L 2356 3500 
L 2356 3053 
L 1172 3053 
L 1172 1153 
Q 1172 725 1289 603 
Q 1406 481 1766 481 
L 2356 481 
L 2356 0 
L 1766 0 
Q 1100 0 847 248 
Q 594 497 594 1153 
L 594 3053 
L 172 3053 
L 172 3500 
L 594 3500 
L 594 4494 
L 1172 4494 
z
" transform="scale(0.015625)"/>
        <path id="DejaVuSans-75" d="M 544 1381 
L 544 3500 
L 1119 3500 
L 1119 1403 
Q 1119 906 1312 657 
Q 1506 409 1894 409 
Q 2359 409 2629 706 
Q 2900 1003 2900 1516 
L 2900 3500 
L 3475 3500 
L 3475 0 
L 2900 0 
L 2900 538 
Q 2691 219 2414 64 
Q 2138 -91 1772 -91 
Q 1169 -91 856 284 
Q 544 659 544 1381 
z
M 1991 3584 
L 1991 3584 
z
" transform="scale(0.015625)"/>
        <path id="DejaVuSans-64" d="M 2906 2969 
L 2906 4863 
L 3481 4863 
L 3481 0 
L 2906 0 
L 2906 525 
Q 2725 213 2448 61 
Q 2172 -91 1784 -91 
Q 1150 -91 751 415 
Q 353 922 353 1747 
Q 353 2572 751 3078 
Q 1150 3584 1784 3584 
Q 2172 3584 2448 3432 
Q 2725 3281 2906 2969 
z
M 947 1747 
Q 947 1113 1208 752 
Q 1469 391 1925 391 
Q 2381 391 2643 752 
Q 2906 1113 2906 1747 
Q 2906 2381 2643 2742 
Q 2381 3103 1925 3103 
Q 1469 3103 1208 2742 
Q 947 2381 947 1747 
z
" transform="scale(0.015625)"/>
        <path id="DejaVuSans-65" d="M 3597 1894 
L 3597 1613 
L 953 1613 
Q 991 1019 1311 708 
Q 1631 397 2203 397 
Q 2534 397 2845 478 
Q 3156 559 3463 722 
L 3463 178 
Q 3153 47 2828 -22 
Q 2503 -91 2169 -91 
Q 1331 -91 842 396 
Q 353 884 353 1716 
Q 353 2575 817 3079 
Q 1281 3584 2069 3584 
Q 2775 3584 3186 3129 
Q 3597 2675 3597 1894 
z
M 3022 2063 
Q 3016 2534 2758 2815 
Q 2500 3097 2075 3097 
Q 1594 3097 1305 2825 
Q 1016 2553 972 2059 
L 3022 2063 
z
" transform="scale(0.015625)"/>
        <path id="DejaVuSans-6e" d="M 3513 2113 
L 3513 0 
L 2938 0 
L 2938 2094 
Q 2938 2591 2744 2837 
Q 2550 3084 2163 3084 
Q 1697 3084 1428 2787 
Q 1159 2491 1159 1978 
L 1159 0 
L 581 0 
L 581 3500 
L 1159 3500 
L 1159 2956 
Q 1366 3272 1645 3428 
Q 1925 3584 2291 3584 
Q 2894 3584 3203 3211 
Q 3513 2838 3513 2113 
z
" transform="scale(0.015625)"/>
        <path id="DejaVuSans-69" d="M 603 3500 
L 1178 3500 
L 1178 0 
L 603 0 
L 603 3500 
z
M 603 4863 
L 1178 4863 
L 1178 4134 
L 603 4134 
L 603 4863 
z
" transform="scale(0.015625)"/>
        <path id="DejaVuSans-20" transform="scale(0.015625)"/>
        <path id="DejaVuSans-2d" d="M 313 2009 
L 1997 2009 
L 1997 1497 
L 313 1497 
L 313 2009 
z
" transform="scale(0.015625)"/>
        <path id="DejaVuSans-73" d="M 2834 3397 
L 2834 2853 
Q 2591 2978 2328 3040 
Q 2066 3103 1784 3103 
Q 1356 3103 1142 2972 
Q 928 2841 928 2578 
Q 928 2378 1081 2264 
Q 1234 2150 1697 2047 
L 1894 2003 
Q 2506 1872 2764 1633 
Q 3022 1394 3022 966 
Q 3022 478 2636 193 
Q 2250 -91 1575 -91 
Q 1294 -91 989 -36 
Q 684 19 347 128 
L 347 722 
Q 666 556 975 473 
Q 1284 391 1588 391 
Q 1994 391 2212 530 
Q 2431 669 2431 922 
Q 2431 1156 2273 1281 
Q 2116 1406 1581 1522 
L 1381 1569 
Q 847 1681 609 1914 
Q 372 2147 372 2553 
Q 372 3047 722 3315 
Q 1072 3584 1716 3584 
Q 2034 3584 2315 3537 
Q 2597 3491 2834 3397 
z
" transform="scale(0.015625)"/>
        <path id="DejaVuSans-63" d="M 3122 3366 
L 3122 2828 
Q 2878 2963 2633 3030 
Q 2388 3097 2138 3097 
Q 1578 3097 1268 2742 
Q 959 2388 959 1747 
Q 959 1106 1268 751 
Q 1578 397 2138 397 
Q 2388 397 2633 464 
Q 2878 531 3122 666 
L 3122 134 
Q 2881 22 2623 -34 
Q 2366 -91 2075 -91 
Q 1284 -91 818 406 
Q 353 903 353 1747 
Q 353 2603 823 3093 
Q 1294 3584 2113 3584 
Q 2378 3584 2631 3529 
Q 2884 3475 3122 3366 
z
" transform="scale(0.015625)"/>
        <path id="DejaVuSans-6f" d="M 1959 3097 
Q 1497 3097 1228 2736 
Q 959 2375 959 1747 
Q 959 1119 1226 758 
Q 1494 397 1959 397 
Q 2419 397 2687 759 
Q 2956 1122 2956 1747 
Q 2956 2369 2687 2733 
Q 2419 3097 1959 3097 
z
M 1959 3584 
Q 2709 3584 3137 3096 
Q 3566 2609 3566 1747 
Q 3566 888 3137 398 
Q 2709 -91 1959 -91 
Q 1206 -91 779 398 
Q 353 888 353 1747 
Q 353 2609 779 3096 
Q 1206 3584 1959 3584 
z
" transform="scale(0.015625)"/>
        <path id="DejaVuSans-61" d="M 2194 1759 
Q 1497 1759 1228 1600 
Q 959 1441 959 1056 
Q 959 750 1161 570 
Q 1363 391 1709 391 
Q 2188 391 2477 730 
Q 2766 1069 2766 1631 
L 2766 1759 
L 2194 1759 
z
M 3341 1997 
L 3341 0 
L 2766 0 
L 2766 531 
Q 2569 213 2275 61 
Q 1981 -91 1556 -91 
Q 1019 -91 701 211 
Q 384 513 384 1019 
Q 384 1609 779 1909 
Q 1175 2209 1959 2209 
L 2766 2209 
L 2766 2266 
Q 2766 2663 2505 2880 
Q 2244 3097 1772 3097 
Q 1472 3097 1187 3025 
Q 903 2953 641 2809 
L 641 3341 
Q 956 3463 1253 3523 
Q 1550 3584 1831 3584 
Q 2591 3584 2966 3190 
Q 3341 2797 3341 1997 
z
" transform="scale(0.015625)"/>
        <path id="DejaVuSans-72" d="M 2631 2963 
Q 2534 3019 2420 3045 
Q 2306 3072 2169 3072 
Q 1681 3072 1420 2755 
Q 1159 2438 1159 1844 
L 1159 0 
L 581 0 
L 581 3500 
L 1159 3500 
L 1159 2956 
Q 1341 3275 1631 3429 
Q 1922 3584 2338 3584 
Q 2397 3584 2469 3576 
Q 2541 3569 2628 3553 
L 2631 2963 
z
" transform="scale(0.015625)"/>
       </defs>
       <use xlink:href="#DejaVuSans-53"/>
       <use xlink:href="#DejaVuSans-74" transform="translate(63.476562 0)"/>
       <use xlink:href="#DejaVuSans-75" transform="translate(102.685547 0)"/>
       <use xlink:href="#DejaVuSans-64" transform="translate(166.064453 0)"/>
       <use xlink:href="#DejaVuSans-65" transform="translate(229.541016 0)"/>
       <use xlink:href="#DejaVuSans-6e" transform="translate(291.064453 0)"/>
       <use xlink:href="#DejaVuSans-74" transform="translate(354.443359 0)"/>
       <use xlink:href="#DejaVuSans-69" transform="translate(393.652344 0)"/>
       <use xlink:href="#DejaVuSans-20" transform="translate(421.435547 0)"/>
       <use xlink:href="#DejaVuSans-2d" transform="translate(453.222656 0)"/>
       <use xlink:href="#DejaVuSans-20" transform="translate(489.306641 0)"/>
       <use xlink:href="#DejaVuSans-73" transform="translate(521.09375 0)"/>
       <use xlink:href="#DejaVuSans-65" transform="translate(573.193359 0)"/>
       <use xlink:href="#DejaVuSans-63" transform="translate(634.716797 0)"/>
       <use xlink:href="#DejaVuSans-6f" transform="translate(689.697266 0)"/>
       <use xlink:href="#DejaVuSans-6e" transform="translate(750.878906 0)"/>
       <use xlink:href="#DejaVuSans-64" transform="translate(814.257812 0)"/>
       <use xlink:href="#DejaVuSans-61" transform="translate(877.734375 0)"/>
       <use xlink:href="#DejaVuSans-72" transform="translate(939.013672 0)"/>
       <use xlink:href="#DejaVuSans-69" transform="translate(980.126953 0)"/>
       <use xlink:href="#DejaVuSans-61" transform="translate(1007.910156 0)"/>
      </g>
     </g>
    </g>
    <g id="xtick_2">
     <g id="line2d_2">
      <g>
       <use xlink:href="#m2f4af5d7db" x="282.856475" y="19.477969" style="fill: #262626; stroke: #262626; stroke-width: 0.5"/>
      </g>
     </g>
     <g id="text_2">
      <!-- Studenti - universitari -->
      <g style="fill: #262626" transform="translate(164.739617 366.308218) rotate(-10) scale(0.11 -0.11)">
       <defs>
        <path id="DejaVuSans-76" d="M 191 3500 
L 800 3500 
L 1894 563 
L 2988 3500 
L 3597 3500 
L 2284 0 
L 1503 0 
L 191 3500 
z
" transform="scale(0.015625)"/>
       </defs>
       <use xlink:href="#DejaVuSans-53"/>
       <use xlink:href="#DejaVuSans-74" transform="translate(63.476562 0)"/>
       <use xlink:href="#DejaVuSans-75" transform="translate(102.685547 0)"/>
       <use xlink:href="#DejaVuSans-64" transform="translate(166.064453 0)"/>
       <use xlink:href="#DejaVuSans-65" transform="translate(229.541016 0)"/>
       <use xlink:href="#DejaVuSans-6e" transform="translate(291.064453 0)"/>
       <use xlink:href="#DejaVuSans-74" transform="translate(354.443359 0)"/>
       <use xlink:href="#DejaVuSans-69" transform="translate(393.652344 0)"/>
       <use xlink:href="#DejaVuSans-20" transform="translate(421.435547 0)"/>
       <use xlink:href="#DejaVuSans-2d" transform="translate(453.222656 0)"/>
       <use xlink:href="#DejaVuSans-20" transform="translate(489.306641 0)"/>
       <use xlink:href="#DejaVuSans-75" transform="translate(521.09375 0)"/>
       <use xlink:href="#DejaVuSans-6e" transform="translate(584.472656 0)"/>
       <use xlink:href="#DejaVuSans-69" transform="translate(647.851562 0)"/>
       <use xlink:href="#DejaVuSans-76" transform="translate(675.634766 0)"/>
       <use xlink:href="#DejaVuSans-65" transform="translate(734.814453 0)"/>
       <use xlink:href="#DejaVuSans-72" transform="translate(796.337891 0)"/>
       <use xlink:href="#DejaVuSans-73" transform="translate(837.451172 0)"/>
       <use xlink:href="#DejaVuSans-69" transform="translate(889.550781 0)"/>
       <use xlink:href="#DejaVuSans-74" transform="translate(917.333984 0)"/>
       <use xlink:href="#DejaVuSans-61" transform="translate(956.542969 0)"/>
       <use xlink:href="#DejaVuSans-72" transform="translate(1017.822266 0)"/>
       <use xlink:href="#DejaVuSans-69" transform="translate(1058.935547 0)"/>
      </g>
     </g>
    </g>
    <g id="xtick_3">
     <g id="line2d_3">
      <g>
       <use xlink:href="#m2f4af5d7db" x="444.440446" y="19.477969" style="fill: #262626; stroke: #262626; stroke-width: 0.5"/>
      </g>
     </g>
     <g id="text_3">
      <!-- Insegnanti - non in servizio -->
      <g style="fill: #262626" transform="translate(297.750161 371.346484) rotate(-10) scale(0.11 -0.11)">
       <defs>
        <path id="DejaVuSans-49" d="M 628 4666 
L 1259 4666 
L 1259 0 
L 628 0 
L 628 4666 
z
" transform="scale(0.015625)"/>
        <path id="DejaVuSans-67" d="M 2906 1791 
Q 2906 2416 2648 2759 
Q 2391 3103 1925 3103 
Q 1463 3103 1205 2759 
Q 947 2416 947 1791 
Q 947 1169 1205 825 
Q 1463 481 1925 481 
Q 2391 481 2648 825 
Q 2906 1169 2906 1791 
z
M 3481 434 
Q 3481 -459 3084 -895 
Q 2688 -1331 1869 -1331 
Q 1566 -1331 1297 -1286 
Q 1028 -1241 775 -1147 
L 775 -588 
Q 1028 -725 1275 -790 
Q 1522 -856 1778 -856 
Q 2344 -856 2625 -561 
Q 2906 -266 2906 331 
L 2906 616 
Q 2728 306 2450 153 
Q 2172 0 1784 0 
Q 1141 0 747 490 
Q 353 981 353 1791 
Q 353 2603 747 3093 
Q 1141 3584 1784 3584 
Q 2172 3584 2450 3431 
Q 2728 3278 2906 2969 
L 2906 3500 
L 3481 3500 
L 3481 434 
z
" transform="scale(0.015625)"/>
        <path id="DejaVuSans-7a" d="M 353 3500 
L 3084 3500 
L 3084 2975 
L 922 459 
L 3084 459 
L 3084 0 
L 275 0 
L 275 525 
L 2438 3041 
L 353 3041 
L 353 3500 
z
" transform="scale(0.015625)"/>
       </defs>
       <use xlink:href="#DejaVuSans-49"/>
       <use xlink:href="#DejaVuSans-6e" transform="translate(29.492188 0)"/>
       <use xlink:href="#DejaVuSans-73" transform="translate(92.871094 0)"/>
       <use xlink:href="#DejaVuSans-65" transform="translate(144.970703 0)"/>
       <use xlink:href="#DejaVuSans-67" transform="translate(206.494141 0)"/>
       <use xlink:href="#DejaVuSans-6e" transform="translate(269.970703 0)"/>
       <use xlink:href="#DejaVuSans-61" transform="translate(333.349609 0)"/>
       <use xlink:href="#DejaVuSans-6e" transform="translate(394.628906 0)"/>
       <use xlink:href="#DejaVuSans-74" transform="translate(458.007812 0)"/>
       <use xlink:href="#DejaVuSans-69" transform="translate(497.216797 0)"/>
       <use xlink:href="#DejaVuSans-20" transform="translate(525 0)"/>
       <use xlink:href="#DejaVuSans-2d" transform="translate(556.787109 0)"/>
       <use xlink:href="#DejaVuSans-20" transform="translate(592.871094 0)"/>
       <use xlink:href="#DejaVuSans-6e" transform="translate(624.658203 0)"/>
       <use xlink:href="#DejaVuSans-6f" transform="translate(688.037109 0)"/>
       <use xlink:href="#DejaVuSans-6e" transform="translate(749.21875 0)"/>
       <use xlink:href="#DejaVuSans-20" transform="translate(812.597656 0)"/>
       <use xlink:href="#DejaVuSans-69" transform="translate(844.384766 0)"/>
       <use xlink:href="#DejaVuSans-6e" transform="translate(872.167969 0)"/>
       <use xlink:href="#DejaVuSans-20" transform="translate(935.546875 0)"/>
       <use xlink:href="#DejaVuSans-73" transform="translate(967.333984 0)"/>
       <use xlink:href="#DejaVuSans-65" transform="translate(1019.433594 0)"/>
       <use xlink:href="#DejaVuSans-72" transform="translate(1080.957031 0)"/>
       <use xlink:href="#DejaVuSans-76" transform="translate(1122.070312 0)"/>
       <use xlink:href="#DejaVuSans-69" transform="translate(1181.25 0)"/>
       <use xlink:href="#DejaVuSans-7a" transform="translate(1209.033203 0)"/>
       <use xlink:href="#DejaVuSans-69" transform="translate(1261.523438 0)"/>
       <use xlink:href="#DejaVuSans-6f" transform="translate(1289.306641 0)"/>
      </g>
     </g>
    </g>
    <g id="xtick_4">
     <g id="line2d_4">
      <g>
       <use xlink:href="#m2f4af5d7db" x="606.024418" y="19.477969" style="fill: #262626; stroke: #262626; stroke-width: 0.5"/>
      </g>
     </g>
     <g id="text_4">
      <!-- Insegnanti - in servizio -->
      <g style="fill: #262626" transform="translate(483.136013 367.149571) rotate(-10) scale(0.11 -0.11)">
       <use xlink:href="#DejaVuSans-49"/>
       <use xlink:href="#DejaVuSans-6e" transform="translate(29.492188 0)"/>
       <use xlink:href="#DejaVuSans-73" transform="translate(92.871094 0)"/>
       <use xlink:href="#DejaVuSans-65" transform="translate(144.970703 0)"/>
       <use xlink:href="#DejaVuSans-67" transform="translate(206.494141 0)"/>
       <use xlink:href="#DejaVuSans-6e" transform="translate(269.970703 0)"/>
       <use xlink:href="#DejaVuSans-61" transform="translate(333.349609 0)"/>
       <use xlink:href="#DejaVuSans-6e" transform="translate(394.628906 0)"/>
       <use xlink:href="#DejaVuSans-74" transform="translate(458.007812 0)"/>
       <use xlink:href="#DejaVuSans-69" transform="translate(497.216797 0)"/>
       <use xlink:href="#DejaVuSans-20" transform="translate(525 0)"/>
       <use xlink:href="#DejaVuSans-2d" transform="translate(556.787109 0)"/>
       <use xlink:href="#DejaVuSans-20" transform="translate(592.871094 0)"/>
       <use xlink:href="#DejaVuSans-69" transform="translate(624.658203 0)"/>
       <use xlink:href="#DejaVuSans-6e" transform="translate(652.441406 0)"/>
       <use xlink:href="#DejaVuSans-20" transform="translate(715.820312 0)"/>
       <use xlink:href="#DejaVuSans-73" transform="translate(747.607422 0)"/>
       <use xlink:href="#DejaVuSans-65" transform="translate(799.707031 0)"/>
       <use xlink:href="#DejaVuSans-72" transform="translate(861.230469 0)"/>
       <use xlink:href="#DejaVuSans-76" transform="translate(902.34375 0)"/>
       <use xlink:href="#DejaVuSans-69" transform="translate(961.523438 0)"/>
       <use xlink:href="#DejaVuSans-7a" transform="translate(989.306641 0)"/>
       <use xlink:href="#DejaVuSans-69" transform="translate(1041.796875 0)"/>
       <use xlink:href="#DejaVuSans-6f" transform="translate(1069.580078 0)"/>
      </g>
     </g>
    </g>
    <g id="xtick_5">
     <g id="line2d_5">
      <defs>
       <path id="m857bdd072d" d="M 0 0 
L 0 1.5 
" style="stroke: #262626; stroke-width: 0.5"/>
      </defs>
      <g>
       <use xlink:href="#m857bdd072d" x="56.638914" y="19.477969" style="fill: #262626; stroke: #262626; stroke-width: 0.5"/>
      </g>
     </g>
    </g>
    <g id="xtick_6">
     <g id="line2d_6">
      <g>
       <use xlink:href="#m857bdd072d" x="88.955709" y="19.477969" style="fill: #262626; stroke: #262626; stroke-width: 0.5"/>
      </g>
     </g>
    </g>
    <g id="xtick_7">
     <g id="line2d_7">
      <g>
       <use xlink:href="#m857bdd072d" x="153.589297" y="19.477969" style="fill: #262626; stroke: #262626; stroke-width: 0.5"/>
      </g>
     </g>
    </g>
    <g id="xtick_8">
     <g id="line2d_8">
      <g>
       <use xlink:href="#m857bdd072d" x="185.906092" y="19.477969" style="fill: #262626; stroke: #262626; stroke-width: 0.5"/>
      </g>
     </g>
    </g>
    <g id="xtick_9">
     <g id="line2d_9">
      <g>
       <use xlink:href="#m857bdd072d" x="218.222886" y="19.477969" style="fill: #262626; stroke: #262626; stroke-width: 0.5"/>
      </g>
     </g>
    </g>
    <g id="xtick_10">
     <g id="line2d_10">
      <g>
       <use xlink:href="#m857bdd072d" x="250.53968" y="19.477969" style="fill: #262626; stroke: #262626; stroke-width: 0.5"/>
      </g>
     </g>
    </g>
    <g id="xtick_11">
     <g id="line2d_11">
      <g>
       <use xlink:href="#m857bdd072d" x="315.173269" y="19.477969" style="fill: #262626; stroke: #262626; stroke-width: 0.5"/>
      </g>
     </g>
    </g>
    <g id="xtick_12">
     <g id="line2d_12">
      <g>
       <use xlink:href="#m857bdd072d" x="347.490063" y="19.477969" style="fill: #262626; stroke: #262626; stroke-width: 0.5"/>
      </g>
     </g>
    </g>
    <g id="xtick_13">
     <g id="line2d_13">
      <g>
       <use xlink:href="#m857bdd072d" x="379.806857" y="19.477969" style="fill: #262626; stroke: #262626; stroke-width: 0.5"/>
      </g>
     </g>
    </g>
    <g id="xtick_14">
     <g id="line2d_14">
      <g>
       <use xlink:href="#m857bdd072d" x="412.123652" y="19.477969" style="fill: #262626; stroke: #262626; stroke-width: 0.5"/>
      </g>
     </g>
    </g>
    <g id="xtick_15">
     <g id="line2d_15">
      <g>
       <use xlink:href="#m857bdd072d" x="476.75724" y="19.477969" style="fill: #262626; stroke: #262626; stroke-width: 0.5"/>
      </g>
     </g>
    </g>
    <g id="xtick_16">
     <g id="line2d_16">
      <g>
       <use xlink:href="#m857bdd072d" x="509.074035" y="19.477969" style="fill: #262626; stroke: #262626; stroke-width: 0.5"/>
      </g>
     </g>
    </g>
    <g id="xtick_17">
     <g id="line2d_17">
      <g>
       <use xlink:href="#m857bdd072d" x="541.390829" y="19.477969" style="fill: #262626; stroke: #262626; stroke-width: 0.5"/>
      </g>
     </g>
    </g>
    <g id="xtick_18">
     <g id="line2d_18">
      <g>
       <use xlink:href="#m857bdd072d" x="573.707623" y="19.477969" style="fill: #262626; stroke: #262626; stroke-width: 0.5"/>
      </g>
     </g>
    </g>
    <g id="xtick_19">
     <g id="line2d_19">
      <g>
       <use xlink:href="#m857bdd072d" x="638.341212" y="19.477969" style="fill: #262626; stroke: #262626; stroke-width: 0.5"/>
      </g>
     </g>
    </g>
    <g id="xtick_20">
     <g id="line2d_20">
      <g>
       <use xlink:href="#m857bdd072d" x="670.658006" y="19.477969" style="fill: #262626; stroke: #262626; stroke-width: 0.5"/>
      </g>
     </g>
    </g>
   </g>
   <g id="matplotlib.axis_2">
    <g id="ytick_1">
     <g id="line2d_21">
      <path d="M 40.480517 319.531511 
L 686.816403 319.531511 
" clip-path="url(#pd6755fe9a4)" style="fill: none; stroke-dasharray: 1.85,0.8; stroke-dashoffset: 0; stroke: #1a1a1a; stroke-opacity: 0.3; stroke-width: 0.5"/>
     </g>
     <g id="line2d_22">
      <defs>
       <path id="m326f5b879b" d="M 0 0 
L -3 0 
" style="stroke: #262626; stroke-width: 0.5"/>
      </defs>
      <g>
       <use xlink:href="#m326f5b879b" x="686.816403" y="319.531511" style="fill: #262626; stroke: #262626; stroke-width: 0.5"/>
      </g>
     </g>
     <g id="text_5">
      <!-- $\mathdefault{0}$ -->
      <g style="fill: #262626" transform="translate(29.940517 323.710651) scale(0.11 -0.11)">
       <defs>
        <path id="DejaVuSans-30" d="M 2034 4250 
Q 1547 4250 1301 3770 
Q 1056 3291 1056 2328 
Q 1056 1369 1301 889 
Q 1547 409 2034 409 
Q 2525 409 2770 889 
Q 3016 1369 3016 2328 
Q 3016 3291 2770 3770 
Q 2525 4250 2034 4250 
z
M 2034 4750 
Q 2819 4750 3233 4129 
Q 3647 3509 3647 2328 
Q 3647 1150 3233 529 
Q 2819 -91 2034 -91 
Q 1250 -91 836 529 
Q 422 1150 422 2328 
Q 422 3509 836 4129 
Q 1250 4750 2034 4750 
z
" transform="scale(0.015625)"/>
       </defs>
       <use xlink:href="#DejaVuSans-30" transform="translate(0 0.78125)"/>
      </g>
     </g>
    </g>
    <g id="ytick_2">
     <g id="line2d_23">
      <path d="M 40.480517 268.501997 
L 686.816403 268.501997 
" clip-path="url(#pd6755fe9a4)" style="fill: none; stroke-dasharray: 1.85,0.8; stroke-dashoffset: 0; stroke: #1a1a1a; stroke-opacity: 0.3; stroke-width: 0.5"/>
     </g>
     <g id="line2d_24">
      <g>
       <use xlink:href="#m326f5b879b" x="686.816403" y="268.501997" style="fill: #262626; stroke: #262626; stroke-width: 0.5"/>
      </g>
     </g>
     <g id="text_6">
      <!-- $\mathdefault{10}$ -->
      <g style="fill: #262626" transform="translate(22.900517 272.681137) scale(0.11 -0.11)">
       <defs>
        <path id="DejaVuSans-31" d="M 794 531 
L 1825 531 
L 1825 4091 
L 703 3866 
L 703 4441 
L 1819 4666 
L 2450 4666 
L 2450 531 
L 3481 531 
L 3481 0 
L 794 0 
L 794 531 
z
" transform="scale(0.015625)"/>
       </defs>
       <use xlink:href="#DejaVuSans-31" transform="translate(0 0.78125)"/>
       <use xlink:href="#DejaVuSans-30" transform="translate(63.623047 0.78125)"/>
      </g>
     </g>
    </g>
    <g id="ytick_3">
     <g id="line2d_25">
      <path d="M 40.480517 217.472483 
L 686.816403 217.472483 
" clip-path="url(#pd6755fe9a4)" style="fill: none; stroke-dasharray: 1.85,0.8; stroke-dashoffset: 0; stroke: #1a1a1a; stroke-opacity: 0.3; stroke-width: 0.5"/>
     </g>
     <g id="line2d_26">
      <g>
       <use xlink:href="#m326f5b879b" x="686.816403" y="217.472483" style="fill: #262626; stroke: #262626; stroke-width: 0.5"/>
      </g>
     </g>
     <g id="text_7">
      <!-- $\mathdefault{20}$ -->
      <g style="fill: #262626" transform="translate(22.900517 221.651623) scale(0.11 -0.11)">
       <defs>
        <path id="DejaVuSans-32" d="M 1228 531 
L 3431 531 
L 3431 0 
L 469 0 
L 469 531 
Q 828 903 1448 1529 
Q 2069 2156 2228 2338 
Q 2531 2678 2651 2914 
Q 2772 3150 2772 3378 
Q 2772 3750 2511 3984 
Q 2250 4219 1831 4219 
Q 1534 4219 1204 4116 
Q 875 4013 500 3803 
L 500 4441 
Q 881 4594 1212 4672 
Q 1544 4750 1819 4750 
Q 2544 4750 2975 4387 
Q 3406 4025 3406 3419 
Q 3406 3131 3298 2873 
Q 3191 2616 2906 2266 
Q 2828 2175 2409 1742 
Q 1991 1309 1228 531 
z
" transform="scale(0.015625)"/>
       </defs>
       <use xlink:href="#DejaVuSans-32" transform="translate(0 0.78125)"/>
       <use xlink:href="#DejaVuSans-30" transform="translate(63.623047 0.78125)"/>
      </g>
     </g>
    </g>
    <g id="ytick_4">
     <g id="line2d_27">
      <path d="M 40.480517 166.442969 
L 686.816403 166.442969 
" clip-path="url(#pd6755fe9a4)" style="fill: none; stroke-dasharray: 1.85,0.8; stroke-dashoffset: 0; stroke: #1a1a1a; stroke-opacity: 0.3; stroke-width: 0.5"/>
     </g>
     <g id="line2d_28">
      <g>
       <use xlink:href="#m326f5b879b" x="686.816403" y="166.442969" style="fill: #262626; stroke: #262626; stroke-width: 0.5"/>
      </g>
     </g>
     <g id="text_8">
      <!-- $\mathdefault{30}$ -->
      <g style="fill: #262626" transform="translate(22.900517 170.622109) scale(0.11 -0.11)">
       <defs>
        <path id="DejaVuSans-33" d="M 2597 2516 
Q 3050 2419 3304 2112 
Q 3559 1806 3559 1356 
Q 3559 666 3084 287 
Q 2609 -91 1734 -91 
Q 1441 -91 1130 -33 
Q 819 25 488 141 
L 488 750 
Q 750 597 1062 519 
Q 1375 441 1716 441 
Q 2309 441 2620 675 
Q 2931 909 2931 1356 
Q 2931 1769 2642 2001 
Q 2353 2234 1838 2234 
L 1294 2234 
L 1294 2753 
L 1863 2753 
Q 2328 2753 2575 2939 
Q 2822 3125 2822 3475 
Q 2822 3834 2567 4026 
Q 2313 4219 1838 4219 
Q 1578 4219 1281 4162 
Q 984 4106 628 3988 
L 628 4550 
Q 988 4650 1302 4700 
Q 1616 4750 1894 4750 
Q 2613 4750 3031 4423 
Q 3450 4097 3450 3541 
Q 3450 3153 3228 2886 
Q 3006 2619 2597 2516 
z
" transform="scale(0.015625)"/>
       </defs>
       <use xlink:href="#DejaVuSans-33" transform="translate(0 0.78125)"/>
       <use xlink:href="#DejaVuSans-30" transform="translate(63.623047 0.78125)"/>
      </g>
     </g>
    </g>
    <g id="ytick_5">
     <g id="line2d_29">
      <path d="M 40.480517 115.413455 
L 686.816403 115.413455 
" clip-path="url(#pd6755fe9a4)" style="fill: none; stroke-dasharray: 1.85,0.8; stroke-dashoffset: 0; stroke: #1a1a1a; stroke-opacity: 0.3; stroke-width: 0.5"/>
     </g>
     <g id="line2d_30">
      <g>
       <use xlink:href="#m326f5b879b" x="686.816403" y="115.413455" style="fill: #262626; stroke: #262626; stroke-width: 0.5"/>
      </g>
     </g>
     <g id="text_9">
      <!-- $\mathdefault{40}$ -->
      <g style="fill: #262626" transform="translate(22.900517 119.592596) scale(0.11 -0.11)">
       <defs>
        <path id="DejaVuSans-34" d="M 2419 4116 
L 825 1625 
L 2419 1625 
L 2419 4116 
z
M 2253 4666 
L 3047 4666 
L 3047 1625 
L 3713 1625 
L 3713 1100 
L 3047 1100 
L 3047 0 
L 2419 0 
L 2419 1100 
L 313 1100 
L 313 1709 
L 2253 4666 
z
" transform="scale(0.015625)"/>
       </defs>
       <use xlink:href="#DejaVuSans-34" transform="translate(0 0.78125)"/>
       <use xlink:href="#DejaVuSans-30" transform="translate(63.623047 0.78125)"/>
      </g>
     </g>
    </g>
    <g id="ytick_6">
     <g id="line2d_31">
      <path d="M 40.480517 64.383941 
L 686.816403 64.383941 
" clip-path="url(#pd6755fe9a4)" style="fill: none; stroke-dasharray: 1.85,0.8; stroke-dashoffset: 0; stroke: #1a1a1a; stroke-opacity: 0.3; stroke-width: 0.5"/>
     </g>
     <g id="line2d_32">
      <g>
       <use xlink:href="#m326f5b879b" x="686.816403" y="64.383941" style="fill: #262626; stroke: #262626; stroke-width: 0.5"/>
      </g>
     </g>
     <g id="text_10">
      <!-- $\mathdefault{50}$ -->
      <g style="fill: #262626" transform="translate(22.900517 68.563082) scale(0.11 -0.11)">
       <defs>
        <path id="DejaVuSans-35" d="M 691 4666 
L 3169 4666 
L 3169 4134 
L 1269 4134 
L 1269 2991 
Q 1406 3038 1543 3061 
Q 1681 3084 1819 3084 
Q 2600 3084 3056 2656 
Q 3513 2228 3513 1497 
Q 3513 744 3044 326 
Q 2575 -91 1722 -91 
Q 1428 -91 1123 -41 
Q 819 9 494 109 
L 494 744 
Q 775 591 1075 516 
Q 1375 441 1709 441 
Q 2250 441 2565 725 
Q 2881 1009 2881 1497 
Q 2881 1984 2565 2268 
Q 2250 2553 1709 2553 
Q 1456 2553 1204 2497 
Q 953 2441 691 2322 
L 691 4666 
z
" transform="scale(0.015625)"/>
       </defs>
       <use xlink:href="#DejaVuSans-35" transform="translate(0 0.78125)"/>
       <use xlink:href="#DejaVuSans-30" transform="translate(63.623047 0.78125)"/>
      </g>
     </g>
    </g>
    <g id="ytick_7">
     <g id="line2d_33">
      <defs>
       <path id="m0e9f8a9047" d="M 0 0 
L -1.5 0 
" style="stroke: #262626; stroke-width: 0.5"/>
      </defs>
      <g>
       <use xlink:href="#m0e9f8a9047" x="686.816403" y="329.737413" style="fill: #262626; stroke: #262626; stroke-width: 0.5"/>
      </g>
     </g>
    </g>
    <g id="ytick_8">
     <g id="line2d_34">
      <g>
       <use xlink:href="#m0e9f8a9047" x="686.816403" y="309.325608" style="fill: #262626; stroke: #262626; stroke-width: 0.5"/>
      </g>
     </g>
    </g>
    <g id="ytick_9">
     <g id="line2d_35">
      <g>
       <use xlink:href="#m0e9f8a9047" x="686.816403" y="299.119705" style="fill: #262626; stroke: #262626; stroke-width: 0.5"/>
      </g>
     </g>
    </g>
    <g id="ytick_10">
     <g id="line2d_36">
      <g>
       <use xlink:href="#m0e9f8a9047" x="686.816403" y="288.913802" style="fill: #262626; stroke: #262626; stroke-width: 0.5"/>
      </g>
     </g>
    </g>
    <g id="ytick_11">
     <g id="line2d_37">
      <g>
       <use xlink:href="#m0e9f8a9047" x="686.816403" y="278.7079" style="fill: #262626; stroke: #262626; stroke-width: 0.5"/>
      </g>
     </g>
    </g>
    <g id="ytick_12">
     <g id="line2d_38">
      <g>
       <use xlink:href="#m0e9f8a9047" x="686.816403" y="258.296094" style="fill: #262626; stroke: #262626; stroke-width: 0.5"/>
      </g>
     </g>
    </g>
    <g id="ytick_13">
     <g id="line2d_39">
      <g>
       <use xlink:href="#m0e9f8a9047" x="686.816403" y="248.090191" style="fill: #262626; stroke: #262626; stroke-width: 0.5"/>
      </g>
     </g>
    </g>
    <g id="ytick_14">
     <g id="line2d_40">
      <g>
       <use xlink:href="#m0e9f8a9047" x="686.816403" y="237.884288" style="fill: #262626; stroke: #262626; stroke-width: 0.5"/>
      </g>
     </g>
    </g>
    <g id="ytick_15">
     <g id="line2d_41">
      <g>
       <use xlink:href="#m0e9f8a9047" x="686.816403" y="227.678386" style="fill: #262626; stroke: #262626; stroke-width: 0.5"/>
      </g>
     </g>
    </g>
    <g id="ytick_16">
     <g id="line2d_42">
      <g>
       <use xlink:href="#m0e9f8a9047" x="686.816403" y="207.26658" style="fill: #262626; stroke: #262626; stroke-width: 0.5"/>
      </g>
     </g>
    </g>
    <g id="ytick_17">
     <g id="line2d_43">
      <g>
       <use xlink:href="#m0e9f8a9047" x="686.816403" y="197.060677" style="fill: #262626; stroke: #262626; stroke-width: 0.5"/>
      </g>
     </g>
    </g>
    <g id="ytick_18">
     <g id="line2d_44">
      <g>
       <use xlink:href="#m0e9f8a9047" x="686.816403" y="186.854774" style="fill: #262626; stroke: #262626; stroke-width: 0.5"/>
      </g>
     </g>
    </g>
    <g id="ytick_19">
     <g id="line2d_45">
      <g>
       <use xlink:href="#m0e9f8a9047" x="686.816403" y="176.648872" style="fill: #262626; stroke: #262626; stroke-width: 0.5"/>
      </g>
     </g>
    </g>
    <g id="ytick_20">
     <g id="line2d_46">
      <g>
       <use xlink:href="#m0e9f8a9047" x="686.816403" y="156.237066" style="fill: #262626; stroke: #262626; stroke-width: 0.5"/>
      </g>
     </g>
    </g>
    <g id="ytick_21">
     <g id="line2d_47">
      <g>
       <use xlink:href="#m0e9f8a9047" x="686.816403" y="146.031163" style="fill: #262626; stroke: #262626; stroke-width: 0.5"/>
      </g>
     </g>
    </g>
    <g id="ytick_22">
     <g id="line2d_48">
      <g>
       <use xlink:href="#m0e9f8a9047" x="686.816403" y="135.825261" style="fill: #262626; stroke: #262626; stroke-width: 0.5"/>
      </g>
     </g>
    </g>
    <g id="ytick_23">
     <g id="line2d_49">
      <g>
       <use xlink:href="#m0e9f8a9047" x="686.816403" y="125.619358" style="fill: #262626; stroke: #262626; stroke-width: 0.5"/>
      </g>
     </g>
    </g>
    <g id="ytick_24">
     <g id="line2d_50">
      <g>
       <use xlink:href="#m0e9f8a9047" x="686.816403" y="105.207552" style="fill: #262626; stroke: #262626; stroke-width: 0.5"/>
      </g>
     </g>
    </g>
    <g id="ytick_25">
     <g id="line2d_51">
      <g>
       <use xlink:href="#m0e9f8a9047" x="686.816403" y="95.001649" style="fill: #262626; stroke: #262626; stroke-width: 0.5"/>
      </g>
     </g>
    </g>
    <g id="ytick_26">
     <g id="line2d_52">
      <g>
       <use xlink:href="#m0e9f8a9047" x="686.816403" y="84.795747" style="fill: #262626; stroke: #262626; stroke-width: 0.5"/>
      </g>
     </g>
    </g>
    <g id="ytick_27">
     <g id="line2d_53">
      <g>
       <use xlink:href="#m0e9f8a9047" x="686.816403" y="74.589844" style="fill: #262626; stroke: #262626; stroke-width: 0.5"/>
      </g>
     </g>
    </g>
    <g id="ytick_28">
     <g id="line2d_54">
      <g>
       <use xlink:href="#m0e9f8a9047" x="686.816403" y="54.178038" style="fill: #262626; stroke: #262626; stroke-width: 0.5"/>
      </g>
     </g>
    </g>
    <g id="ytick_29">
     <g id="line2d_55">
      <g>
       <use xlink:href="#m0e9f8a9047" x="686.816403" y="43.972135" style="fill: #262626; stroke: #262626; stroke-width: 0.5"/>
      </g>
     </g>
    </g>
    <g id="ytick_30">
     <g id="line2d_56">
      <g>
       <use xlink:href="#m0e9f8a9047" x="686.816403" y="33.766233" style="fill: #262626; stroke: #262626; stroke-width: 0.5"/>
      </g>
     </g>
    </g>
    <g id="ytick_31">
     <g id="line2d_57">
      <g>
       <use xlink:href="#m0e9f8a9047" x="686.816403" y="23.56033" style="fill: #262626; stroke: #262626; stroke-width: 0.5"/>
      </g>
     </g>
    </g>
    <g id="text_11">
     <!-- Ore settimanali (uso IA) -->
     <g style="fill: #262626" transform="translate(16.404892 247.794809) rotate(-90) scale(0.12 -0.12)">
      <defs>
       <path id="DejaVuSans-4f" d="M 2522 4238 
Q 1834 4238 1429 3725 
Q 1025 3213 1025 2328 
Q 1025 1447 1429 934 
Q 1834 422 2522 422 
Q 3209 422 3611 934 
Q 4013 1447 4013 2328 
Q 4013 3213 3611 3725 
Q 3209 4238 2522 4238 
z
M 2522 4750 
Q 3503 4750 4090 4092 
Q 4678 3434 4678 2328 
Q 4678 1225 4090 567 
Q 3503 -91 2522 -91 
Q 1538 -91 948 565 
Q 359 1222 359 2328 
Q 359 3434 948 4092 
Q 1538 4750 2522 4750 
z
" transform="scale(0.015625)"/>
       <path id="DejaVuSans-6d" d="M 3328 2828 
Q 3544 3216 3844 3400 
Q 4144 3584 4550 3584 
Q 5097 3584 5394 3201 
Q 5691 2819 5691 2113 
L 5691 0 
L 5113 0 
L 5113 2094 
Q 5113 2597 4934 2840 
Q 4756 3084 4391 3084 
Q 3944 3084 3684 2787 
Q 3425 2491 3425 1978 
L 3425 0 
L 2847 0 
L 2847 2094 
Q 2847 2600 2669 2842 
Q 2491 3084 2119 3084 
Q 1678 3084 1418 2786 
Q 1159 2488 1159 1978 
L 1159 0 
L 581 0 
L 581 3500 
L 1159 3500 
L 1159 2956 
Q 1356 3278 1631 3431 
Q 1906 3584 2284 3584 
Q 2666 3584 2933 3390 
Q 3200 3197 3328 2828 
z
" transform="scale(0.015625)"/>
       <path id="DejaVuSans-6c" d="M 603 4863 
L 1178 4863 
L 1178 0 
L 603 0 
L 603 4863 
z
" transform="scale(0.015625)"/>
       <path id="DejaVuSans-28" d="M 1984 4856 
Q 1566 4138 1362 3434 
Q 1159 2731 1159 2009 
Q 1159 1288 1364 580 
Q 1569 -128 1984 -844 
L 1484 -844 
Q 1016 -109 783 600 
Q 550 1309 550 2009 
Q 550 2706 781 3412 
Q 1013 4119 1484 4856 
L 1984 4856 
z
" transform="scale(0.015625)"/>
       <path id="DejaVuSans-41" d="M 2188 4044 
L 1331 1722 
L 3047 1722 
L 2188 4044 
z
M 1831 4666 
L 2547 4666 
L 4325 0 
L 3669 0 
L 3244 1197 
L 1141 1197 
L 716 0 
L 50 0 
L 1831 4666 
z
" transform="scale(0.015625)"/>
       <path id="DejaVuSans-29" d="M 513 4856 
L 1013 4856 
Q 1481 4119 1714 3412 
Q 1947 2706 1947 2009 
Q 1947 1309 1714 600 
Q 1481 -109 1013 -844 
L 513 -844 
Q 928 -128 1133 580 
Q 1338 1288 1338 2009 
Q 1338 2731 1133 3434 
Q 928 4138 513 4856 
z
" transform="scale(0.015625)"/>
      </defs>
      <use xlink:href="#DejaVuSans-4f"/>
      <use xlink:href="#DejaVuSans-72" transform="translate(78.710938 0)"/>
      <use xlink:href="#DejaVuSans-65" transform="translate(117.574219 0)"/>
      <use xlink:href="#DejaVuSans-20" transform="translate(179.097656 0)"/>
      <use xlink:href="#DejaVuSans-73" transform="translate(210.884766 0)"/>
      <use xlink:href="#DejaVuSans-65" transform="translate(262.984375 0)"/>
      <use xlink:href="#DejaVuSans-74" transform="translate(324.507812 0)"/>
      <use xlink:href="#DejaVuSans-74" transform="translate(363.716797 0)"/>
      <use xlink:href="#DejaVuSans-69" transform="translate(402.925781 0)"/>
      <use xlink:href="#DejaVuSans-6d" transform="translate(430.708984 0)"/>
      <use xlink:href="#DejaVuSans-61" transform="translate(528.121094 0)"/>
      <use xlink:href="#DejaVuSans-6e" transform="translate(589.400391 0)"/>
      <use xlink:href="#DejaVuSans-61" transform="translate(652.779297 0)"/>
      <use xlink:href="#DejaVuSans-6c" transform="translate(714.058594 0)"/>
      <use xlink:href="#DejaVuSans-69" transform="translate(741.841797 0)"/>
      <use xlink:href="#DejaVuSans-20" transform="translate(769.625 0)"/>
      <use xlink:href="#DejaVuSans-28" transform="translate(801.412109 0)"/>
      <use xlink:href="#DejaVuSans-75" transform="translate(840.425781 0)"/>
      <use xlink:href="#DejaVuSans-73" transform="translate(903.804688 0)"/>
      <use xlink:href="#DejaVuSans-6f" transform="translate(955.904297 0)"/>
      <use xlink:href="#DejaVuSans-20" transform="translate(1017.085938 0)"/>
      <use xlink:href="#DejaVuSans-49" transform="translate(1048.873047 0)"/>
      <use xlink:href="#DejaVuSans-41" transform="translate(1078.365234 0)"/>
      <use xlink:href="#DejaVuSans-29" transform="translate(1146.773438 0)"/>
     </g>
    </g>
   </g>
   <g id="FillBetweenPolyCollection_1">
    <defs>
     <path id="m3b012a9f40" d="M 179.288698 -57.667875 
L 63.256308 -57.667875 
L 60.486344 -60.554393 
L 58.421142 -63.440911 
L 57.12699 -66.327429 
L 56.638914 -69.213947 
L 56.958867 -72.100465 
L 58.056228 -74.986983 
L 59.870524 -77.873501 
L 62.316055 -80.760019 
L 65.287969 -83.646537 
L 68.669209 -86.533055 
L 72.337685 -89.419573 
L 76.173109 -92.306091 
L 80.062973 -95.192609 
L 83.907299 -98.079127 
L 87.62196 -100.965645 
L 91.140495 -103.852163 
L 94.414533 -106.738681 
L 97.41299 -109.625199 
L 100.120354 -112.511717 
L 102.534325 -115.398235 
L 104.663151 -118.284753 
L 106.522908 -121.17127 
L 108.134954 -124.057788 
L 109.523712 -126.944306 
L 110.714859 -129.830824 
L 111.733957 -132.717342 
L 112.605499 -135.60386 
L 113.352298 -138.490378 
L 113.995156 -141.376896 
L 114.55273 -144.263414 
L 115.041493 -147.149932 
L 115.47577 -150.03645 
L 115.86777 -152.922968 
L 116.227631 -155.809486 
L 116.56345 -158.696004 
L 116.881335 -161.582522 
L 117.185486 -164.46904 
L 117.478338 -167.355558 
L 117.760757 -170.242076 
L 118.032323 -173.128594 
L 118.291666 -176.015112 
L 118.536837 -178.90163 
L 118.765697 -181.788148 
L 118.976278 -184.674666 
L 119.167081 -187.561184 
L 119.33729 -190.447701 
L 119.486888 -193.334219 
L 119.616658 -196.220737 
L 119.728083 -199.107255 
L 119.823177 -201.993773 
L 119.904251 -204.880291 
L 119.973665 -207.766809 
L 120.033599 -210.653327 
L 120.08586 -213.539845 
L 120.131757 -216.426363 
L 120.17205 -219.312881 
L 120.206975 -222.199399 
L 120.236339 -225.085917 
L 120.259651 -227.972435 
L 120.27629 -230.858953 
L 120.285664 -233.745471 
L 120.287337 -236.631989 
L 120.281124 -239.518507 
L 120.267109 -242.405025 
L 120.245625 -245.291543 
L 120.217155 -248.178061 
L 120.182218 -251.064579 
L 120.141224 -253.951097 
L 120.094342 -256.837615 
L 120.041408 -259.724133 
L 119.981881 -262.61065 
L 119.914881 -265.497168 
L 119.839293 -268.383686 
L 119.753949 -271.270204 
L 119.657854 -274.156722 
L 119.550444 -277.04324 
L 119.431832 -279.929758 
L 119.303009 -282.816276 
L 119.165978 -285.702794 
L 119.023773 -288.589312 
L 118.88038 -291.47583 
L 118.740542 -294.362348 
L 118.60946 -297.248866 
L 118.492439 -300.135384 
L 118.3945 -303.021902 
L 118.320001 -305.90842 
L 118.272323 -308.794938 
L 118.253634 -311.681456 
L 118.264776 -314.567974 
L 118.30526 -317.454492 
L 118.373382 -320.34101 
L 118.466431 -323.227528 
L 118.580955 -326.114046 
L 118.713058 -329.000564 
L 118.858694 -331.887082 
L 119.013911 -334.773599 
L 119.175054 -337.660117 
L 119.338889 -340.546635 
L 119.502662 -343.433153 
L 123.042344 -343.433153 
L 123.042344 -343.433153 
L 123.206117 -340.546635 
L 123.369952 -337.660117 
L 123.531095 -334.773599 
L 123.686312 -331.887082 
L 123.831948 -329.000564 
L 123.964051 -326.114046 
L 124.078575 -323.227528 
L 124.171624 -320.34101 
L 124.239746 -317.454492 
L 124.28023 -314.567974 
L 124.291372 -311.681456 
L 124.272683 -308.794938 
L 124.225005 -305.90842 
L 124.150506 -303.021902 
L 124.052567 -300.135384 
L 123.935546 -297.248866 
L 123.804464 -294.362348 
L 123.664626 -291.47583 
L 123.521233 -288.589312 
L 123.379028 -285.702794 
L 123.241997 -282.816276 
L 123.113174 -279.929758 
L 122.994562 -277.04324 
L 122.887152 -274.156722 
L 122.791057 -271.270204 
L 122.705713 -268.383686 
L 122.630125 -265.497168 
L 122.563125 -262.61065 
L 122.503598 -259.724133 
L 122.450664 -256.837615 
L 122.403782 -253.951097 
L 122.362787 -251.064579 
L 122.327851 -248.178061 
L 122.299381 -245.291543 
L 122.277896 -242.405025 
L 122.263882 -239.518507 
L 122.257669 -236.631989 
L 122.259342 -233.745471 
L 122.268716 -230.858953 
L 122.285355 -227.972435 
L 122.308667 -225.085917 
L 122.338031 -222.199399 
L 122.372956 -219.312881 
L 122.413249 -216.426363 
L 122.459146 -213.539845 
L 122.511407 -210.653327 
L 122.571341 -207.766809 
L 122.640755 -204.880291 
L 122.721828 -201.993773 
L 122.816923 -199.107255 
L 122.928348 -196.220737 
L 123.058118 -193.334219 
L 123.207716 -190.447701 
L 123.377925 -187.561184 
L 123.568727 -184.674666 
L 123.779309 -181.788148 
L 124.008169 -178.90163 
L 124.25334 -176.015112 
L 124.512683 -173.128594 
L 124.784249 -170.242076 
L 125.066668 -167.355558 
L 125.35952 -164.46904 
L 125.663671 -161.582522 
L 125.981556 -158.696004 
L 126.317375 -155.809486 
L 126.677236 -152.922968 
L 127.069236 -150.03645 
L 127.503513 -147.149932 
L 127.992276 -144.263414 
L 128.54985 -141.376896 
L 129.192708 -138.490378 
L 129.939507 -135.60386 
L 130.811048 -132.717342 
L 131.830147 -129.830824 
L 133.021294 -126.944306 
L 134.410052 -124.057788 
L 136.022098 -121.17127 
L 137.881854 -118.284753 
L 140.010681 -115.398235 
L 142.424652 -112.511717 
L 145.132016 -109.625199 
L 148.130473 -106.738681 
L 151.404511 -103.852163 
L 154.923046 -100.965645 
L 158.637707 -98.079127 
L 162.482033 -95.192609 
L 166.371897 -92.306091 
L 170.207321 -89.419573 
L 173.875797 -86.533055 
L 177.257037 -83.646537 
L 180.228951 -80.760019 
L 182.674482 -77.873501 
L 184.488778 -74.986983 
L 185.586139 -72.100465 
L 185.906092 -69.213947 
L 185.418016 -66.327429 
L 184.123864 -63.440911 
L 182.058662 -60.554393 
L 179.288698 -57.667875 
z
" style="stroke: #484848; stroke-width: 1.25"/>
    </defs>
    <g clip-path="url(#pd6755fe9a4)">
     <use xlink:href="#m3b012a9f40" x="0" y="377.199386" style="fill: #cb3335; stroke: #484848; stroke-width: 1.25"/>
    </g>
   </g>
   <g id="FillBetweenPolyCollection_2">
    <defs>
     <path id="m00de6d90a6" d="M 337.375317 -57.667875 
L 228.337632 -57.667875 
L 224.641994 -58.595685 
L 221.758408 -59.523494 
L 219.7355 -60.451303 
L 218.571427 -61.379113 
L 218.222886 -62.306922 
L 218.617034 -63.234731 
L 219.663624 -64.162541 
L 221.265121 -65.09035 
L 223.323522 -66.018159 
L 225.743721 -66.945969 
L 228.434165 -67.873778 
L 231.306138 -68.801587 
L 234.273075 -69.729397 
L 237.251012 -70.657206 
L 240.160695 -71.585016 
L 242.931232 -72.512825 
L 245.504669 -73.440634 
L 247.840532 -74.368444 
L 249.919365 -75.296253 
L 251.744402 -76.224062 
L 253.340862 -77.151872 
L 254.752709 -78.079681 
L 256.03711 -79.00749 
L 257.257196 -79.9353 
L 258.473998 -80.863109 
L 259.73865 -81.790918 
L 261.08595 -82.718728 
L 262.53026 -83.646537 
L 264.064387 -84.574346 
L 265.661598 -85.502156 
L 267.280411 -86.429965 
L 268.871265 -87.357774 
L 270.383909 -88.285584 
L 271.77421 -89.213393 
L 273.009325 -90.141202 
L 274.070525 -91.069012 
L 274.95349 -91.996821 
L 275.666366 -92.92463 
L 276.226236 -93.85244 
L 276.654857 -94.780249 
L 276.974511 -95.708058 
L 277.204709 -96.635868 
L 277.360205 -97.563677 
L 277.450546 -98.491486 
L 277.481076 -99.419296 
L 277.455078 -100.347105 
L 277.376527 -101.274915 
L 277.252839 -102.202724 
L 277.096948 -103.130533 
L 276.928172 -104.058343 
L 276.771545 -104.986152 
L 276.655597 -105.913961 
L 276.608922 -106.841771 
L 276.656165 -107.76958 
L 276.814211 -108.697389 
L 277.089387 -109.625199 
L 277.476244 -110.553008 
L 277.95818 -111.480817 
L 278.509765 -112.408627 
L 279.100272 -113.336436 
L 279.697702 -114.264245 
L 280.272587 -115.192055 
L 280.800915 -116.119864 
L 281.265853 -117.047673 
L 281.658163 -117.975483 
L 281.975507 -118.903292 
L 282.220979 -119.831101 
L 282.401299 -120.758911 
L 282.525037 -121.68672 
L 282.60115 -122.614529 
L 282.638 -123.542339 
L 282.642867 -124.470148 
L 282.621909 -125.397957 
L 282.580426 -126.325767 
L 282.523273 -127.253576 
L 282.455281 -128.181386 
L 282.381534 -129.109195 
L 282.307437 -130.037004 
L 282.238532 -130.964814 
L 282.180095 -131.892623 
L 282.136589 -132.820432 
L 282.111087 -133.748242 
L 282.104796 -134.676051 
L 282.116792 -135.60386 
L 282.144042 -136.53167 
L 282.181729 -137.459479 
L 282.223852 -138.387288 
L 282.264001 -139.315098 
L 282.296215 -140.242907 
L 282.315774 -141.170716 
L 282.319833 -142.098526 
L 282.307804 -143.026335 
L 282.281433 -143.954144 
L 282.244567 -144.881954 
L 282.202639 -145.809763 
L 282.161942 -146.737572 
L 282.128787 -147.665382 
L 282.108679 -148.593191 
L 282.105614 -149.521 
L 283.607335 -149.521 
L 283.607335 -149.521 
L 283.60427 -148.593191 
L 283.584162 -147.665382 
L 283.551007 -146.737572 
L 283.51031 -145.809763 
L 283.468382 -144.881954 
L 283.431516 -143.954144 
L 283.405145 -143.026335 
L 283.393116 -142.098526 
L 283.397175 -141.170716 
L 283.416734 -140.242907 
L 283.448948 -139.315098 
L 283.489097 -138.387288 
L 283.53122 -137.459479 
L 283.568907 -136.53167 
L 283.596157 -135.60386 
L 283.608153 -134.676051 
L 283.601862 -133.748242 
L 283.57636 -132.820432 
L 283.532854 -131.892623 
L 283.474418 -130.964814 
L 283.405513 -130.037004 
L 283.331415 -129.109195 
L 283.257668 -128.181386 
L 283.189676 -127.253576 
L 283.132523 -126.325767 
L 283.09104 -125.397957 
L 283.070082 -124.470148 
L 283.074949 -123.542339 
L 283.111799 -122.614529 
L 283.187912 -121.68672 
L 283.31165 -120.758911 
L 283.49197 -119.831101 
L 283.737442 -118.903292 
L 284.054786 -117.975483 
L 284.447096 -117.047673 
L 284.912034 -116.119864 
L 285.440362 -115.192055 
L 286.015247 -114.264245 
L 286.612678 -113.336436 
L 287.203184 -112.408627 
L 287.754769 -111.480817 
L 288.236705 -110.553008 
L 288.623562 -109.625199 
L 288.898738 -108.697389 
L 289.056784 -107.76958 
L 289.104027 -106.841771 
L 289.057352 -105.913961 
L 288.941404 -104.986152 
L 288.784777 -104.058343 
L 288.616001 -103.130533 
L 288.46011 -102.202724 
L 288.336422 -101.274915 
L 288.257871 -100.347105 
L 288.231873 -99.419296 
L 288.262403 -98.491486 
L 288.352744 -97.563677 
L 288.50824 -96.635868 
L 288.738438 -95.708058 
L 289.058093 -94.780249 
L 289.486713 -93.85244 
L 290.046583 -92.92463 
L 290.759459 -91.996821 
L 291.642424 -91.069012 
L 292.703624 -90.141202 
L 293.938739 -89.213393 
L 295.32904 -88.285584 
L 296.841684 -87.357774 
L 298.432538 -86.429965 
L 300.051351 -85.502156 
L 301.648563 -84.574346 
L 303.182689 -83.646537 
L 304.626999 -82.718728 
L 305.974299 -81.790918 
L 307.238951 -80.863109 
L 308.455753 -79.9353 
L 309.675839 -79.00749 
L 310.960241 -78.079681 
L 312.372087 -77.151872 
L 313.968547 -76.224062 
L 315.793584 -75.296253 
L 317.872417 -74.368444 
L 320.20828 -73.440634 
L 322.781717 -72.512825 
L 325.552254 -71.585016 
L 328.461937 -70.657206 
L 331.439874 -69.729397 
L 334.406811 -68.801587 
L 337.278784 -67.873778 
L 339.969228 -66.945969 
L 342.389427 -66.018159 
L 344.447828 -65.09035 
L 346.049325 -64.162541 
L 347.095915 -63.234731 
L 347.490063 -62.306922 
L 347.141522 -61.379113 
L 345.977449 -60.451303 
L 343.954541 -59.523494 
L 341.070955 -58.595685 
L 337.375317 -57.667875 
z
" style="stroke: #484848; stroke-width: 1.25"/>
    </defs>
    <g clip-path="url(#pd6755fe9a4)">
     <use xlink:href="#m00de6d90a6" x="0" y="377.199386" style="fill: #59a257; stroke: #484848; stroke-width: 1.25"/>
    </g>
   </g>
   <g id="FillBetweenPolyCollection_3">
    <defs>
     <path id="mf1ee879924" d="M 504.727499 -57.667875 
L 384.153393 -57.667875 
L 380.748256 -59.987399 
L 379.806857 -62.306922 
L 381.332473 -64.626445 
L 385.041256 -66.945969 
L 390.430654 -69.265492 
L 396.877861 -71.585016 
L 403.743305 -73.904539 
L 410.458759 -76.224062 
L 416.587907 -78.543586 
L 421.855441 -80.863109 
L 426.146943 -83.182632 
L 429.485516 -85.502156 
L 431.993211 -87.821679 
L 433.846146 -90.141202 
L 435.23204 -92.460726 
L 436.317325 -94.780249 
L 437.22808 -97.099772 
L 438.045224 -99.419296 
L 438.810826 -101.738819 
L 439.540181 -104.058343 
L 440.234203 -106.377866 
L 440.888425 -108.697389 
L 441.497476 -111.016913 
L 442.056131 -113.336436 
L 442.558997 -115.655959 
L 443.000545 -117.975483 
L 443.376107 -120.295006 
L 443.68346 -122.614529 
L 443.924099 -124.934053 
L 444.103565 -127.253576 
L 444.230665 -129.5731 
L 444.315969 -131.892623 
L 444.370156 -134.212146 
L 444.402709 -136.53167 
L 444.421198 -138.851193 
L 444.431123 -141.170716 
L 444.43616 -143.49024 
L 444.438576 -145.809763 
L 444.439672 -148.129286 
L 444.440142 -150.44881 
L 444.440333 -152.768333 
L 444.440406 -155.087856 
L 444.440433 -157.40738 
L 444.440442 -159.726903 
L 444.440445 -162.046427 
L 444.440446 -164.36595 
L 444.440446 -166.685473 
L 444.440446 -169.004997 
L 444.440446 -171.32452 
L 444.440446 -173.644043 
L 444.440446 -175.963567 
L 444.440446 -178.28309 
L 444.440446 -180.602613 
L 444.440446 -182.922137 
L 444.440446 -185.24166 
L 444.440446 -187.561184 
L 444.440446 -189.880707 
L 444.440446 -192.20023 
L 444.440446 -194.519754 
L 444.440446 -196.839277 
L 444.440446 -199.1588 
L 444.440446 -201.478324 
L 444.440446 -203.797847 
L 444.440446 -206.11737 
L 444.440446 -208.436894 
L 444.440446 -210.756417 
L 444.440446 -213.07594 
L 444.440446 -215.395464 
L 444.440446 -217.714987 
L 444.440446 -220.034511 
L 444.440446 -222.354034 
L 444.440446 -224.673557 
L 444.440446 -226.993081 
L 444.440446 -229.312604 
L 444.440446 -231.632127 
L 444.440445 -233.951651 
L 444.440444 -236.271174 
L 444.440439 -238.590697 
L 444.440426 -240.910221 
L 444.44039 -243.229744 
L 444.440295 -245.549268 
L 444.440062 -247.868791 
L 444.43952 -250.188314 
L 444.438329 -252.507838 
L 444.435858 -254.827361 
L 444.431018 -257.146884 
L 444.422082 -259.466408 
L 444.406533 -261.785931 
L 444.381072 -264.105454 
L 444.341894 -266.424978 
L 444.285362 -268.744501 
L 444.209078 -271.064025 
L 444.113198 -273.383548 
L 444.001629 -275.703071 
L 443.882585 -278.022595 
L 443.768084 -280.342118 
L 443.672173 -282.661641 
L 443.608178 -284.981165 
L 443.585683 -287.300688 
L 445.295209 -287.300688 
L 445.295209 -287.300688 
L 445.272714 -284.981165 
L 445.20872 -282.661641 
L 445.112809 -280.342118 
L 444.998307 -278.022595 
L 444.879263 -275.703071 
L 444.767694 -273.383548 
L 444.671815 -271.064025 
L 444.59553 -268.744501 
L 444.538998 -266.424978 
L 444.49982 -264.105454 
L 444.474359 -261.785931 
L 444.45881 -259.466408 
L 444.449874 -257.146884 
L 444.445035 -254.827361 
L 444.442563 -252.507838 
L 444.441372 -250.188314 
L 444.44083 -247.868791 
L 444.440597 -245.549268 
L 444.440502 -243.229744 
L 444.440466 -240.910221 
L 444.440453 -238.590697 
L 444.440448 -236.271174 
L 444.440447 -233.951651 
L 444.440446 -231.632127 
L 444.440446 -229.312604 
L 444.440446 -226.993081 
L 444.440446 -224.673557 
L 444.440446 -222.354034 
L 444.440446 -220.034511 
L 444.440446 -217.714987 
L 444.440446 -215.395464 
L 444.440446 -213.07594 
L 444.440446 -210.756417 
L 444.440446 -208.436894 
L 444.440446 -206.11737 
L 444.440446 -203.797847 
L 444.440446 -201.478324 
L 444.440446 -199.1588 
L 444.440446 -196.839277 
L 444.440446 -194.519754 
L 444.440446 -192.20023 
L 444.440446 -189.880707 
L 444.440446 -187.561184 
L 444.440446 -185.24166 
L 444.440446 -182.922137 
L 444.440446 -180.602613 
L 444.440446 -178.28309 
L 444.440446 -175.963567 
L 444.440446 -173.644043 
L 444.440446 -171.32452 
L 444.440446 -169.004997 
L 444.440446 -166.685473 
L 444.440446 -164.36595 
L 444.440447 -162.046427 
L 444.44045 -159.726903 
L 444.440459 -157.40738 
L 444.440486 -155.087856 
L 444.440559 -152.768333 
L 444.44075 -150.44881 
L 444.44122 -148.129286 
L 444.442316 -145.809763 
L 444.444732 -143.49024 
L 444.449769 -141.170716 
L 444.459695 -138.851193 
L 444.478183 -136.53167 
L 444.510736 -134.212146 
L 444.564923 -131.892623 
L 444.650227 -129.5731 
L 444.777327 -127.253576 
L 444.956794 -124.934053 
L 445.197433 -122.614529 
L 445.504785 -120.295006 
L 445.880347 -117.975483 
L 446.321895 -115.655959 
L 446.824762 -113.336436 
L 447.383416 -111.016913 
L 447.992467 -108.697389 
L 448.646689 -106.377866 
L 449.340712 -104.058343 
L 450.070066 -101.738819 
L 450.835668 -99.419296 
L 451.652812 -97.099772 
L 452.563567 -94.780249 
L 453.648852 -92.460726 
L 455.034746 -90.141202 
L 456.887681 -87.821679 
L 459.395376 -85.502156 
L 462.733949 -83.182632 
L 467.025451 -80.863109 
L 472.292985 -78.543586 
L 478.422133 -76.224062 
L 485.137588 -73.904539 
L 492.003031 -71.585016 
L 498.450238 -69.265492 
L 503.839636 -66.945969 
L 507.548419 -64.626445 
L 509.074035 -62.306922 
L 508.132637 -59.987399 
L 504.727499 -57.667875 
z
" style="stroke: #484848; stroke-width: 1.25"/>
    </defs>
    <g clip-path="url(#pd6755fe9a4)">
     <use xlink:href="#mf1ee879924" x="0" y="377.199386" style="fill: #e2c137; stroke: #484848; stroke-width: 1.25"/>
    </g>
   </g>
   <g id="FillBetweenPolyCollection_4">
    <defs>
     <path id="m742d7da8e1" d="M 666.235845 -57.667875 
L 545.81299 -57.667875 
L 541.390829 -60.245124 
L 543.584486 -62.822372 
L 550.432387 -65.39962 
L 559.372325 -67.976868 
L 568.48643 -70.554116 
L 576.72384 -73.131364 
L 583.614713 -75.708613 
L 589.045076 -78.285861 
L 593.155682 -80.863109 
L 596.228518 -83.440357 
L 598.548261 -86.017605 
L 600.31428 -88.594853 
L 601.637856 -91.172102 
L 602.592071 -93.74935 
L 603.254574 -96.326598 
L 603.707291 -98.903846 
L 604.013615 -101.481094 
L 604.219035 -104.058343 
L 604.376254 -106.635591 
L 604.547831 -109.212839 
L 604.770657 -111.790087 
L 605.0294 -114.367335 
L 605.276496 -116.944583 
L 605.471301 -119.521832 
L 605.594135 -122.09908 
L 605.637399 -124.676328 
L 605.605073 -127.253576 
L 605.526477 -129.830824 
L 605.45785 -132.408073 
L 605.454644 -134.985321 
L 605.534732 -137.562569 
L 605.66829 -140.139817 
L 605.802859 -142.717065 
L 605.896889 -145.294313 
L 605.934048 -147.871562 
L 605.917917 -150.44881 
L 605.864092 -153.026058 
L 605.797917 -155.603306 
L 605.750477 -158.180554 
L 605.745807 -160.757802 
L 605.786888 -163.335051 
L 605.854759 -165.912299 
L 605.922902 -168.489547 
L 605.973533 -171.066795 
L 606.003052 -173.644043 
L 606.016902 -176.221292 
L 606.022203 -178.79854 
L 606.023868 -181.375788 
L 606.024285 -183.953036 
L 606.024285 -186.530284 
L 606.023868 -189.107532 
L 606.022203 -191.684781 
L 606.016902 -194.262029 
L 606.003052 -196.839277 
L 605.973533 -199.416525 
L 605.922902 -201.993773 
L 605.854759 -204.571022 
L 605.786895 -207.14827 
L 605.745854 -209.725518 
L 605.750744 -212.302766 
L 605.799185 -214.880014 
L 605.869136 -217.457262 
L 605.934737 -220.034511 
L 605.98103 -222.611759 
L 606.006834 -225.189007 
L 606.018448 -227.766255 
L 606.02272 -230.343503 
L 606.024013 -232.920751 
L 606.024337 -235.498 
L 606.024404 -238.075248 
L 606.024416 -240.652496 
L 606.024417 -243.229744 
L 606.024418 -245.806992 
L 606.024418 -248.384241 
L 606.024418 -250.961489 
L 606.024418 -253.538737 
L 606.024418 -256.115985 
L 606.024418 -258.693233 
L 606.024418 -261.270481 
L 606.024418 -263.84773 
L 606.024418 -266.424978 
L 606.024418 -269.002226 
L 606.024418 -271.579474 
L 606.024418 -274.156722 
L 606.024418 -276.73397 
L 606.024418 -279.311219 
L 606.024417 -281.888467 
L 606.024411 -284.465715 
L 606.024377 -287.042963 
L 606.024201 -289.620211 
L 606.023441 -292.19746 
L 606.02073 -294.774708 
L 606.012758 -297.351956 
L 605.993536 -299.929204 
L 605.955901 -302.506452 
L 605.897073 -305.0837 
L 605.826148 -307.660949 
L 605.765822 -310.238197 
L 605.74188 -312.815445 
L 606.306956 -312.815445 
L 606.306956 -312.815445 
L 606.283014 -310.238197 
L 606.222687 -307.660949 
L 606.151762 -305.0837 
L 606.092934 -302.506452 
L 606.055299 -299.929204 
L 606.036077 -297.351956 
L 606.028105 -294.774708 
L 606.025395 -292.19746 
L 606.024635 -289.620211 
L 606.024458 -287.042963 
L 606.024424 -284.465715 
L 606.024418 -281.888467 
L 606.024418 -279.311219 
L 606.024418 -276.73397 
L 606.024418 -274.156722 
L 606.024418 -271.579474 
L 606.024418 -269.002226 
L 606.024418 -266.424978 
L 606.024418 -263.84773 
L 606.024418 -261.270481 
L 606.024418 -258.693233 
L 606.024418 -256.115985 
L 606.024418 -253.538737 
L 606.024418 -250.961489 
L 606.024418 -248.384241 
L 606.024418 -245.806992 
L 606.024418 -243.229744 
L 606.02442 -240.652496 
L 606.024431 -238.075248 
L 606.024498 -235.498 
L 606.024822 -232.920751 
L 606.026116 -230.343503 
L 606.030388 -227.766255 
L 606.042002 -225.189007 
L 606.067805 -222.611759 
L 606.114098 -220.034511 
L 606.179699 -217.457262 
L 606.24965 -214.880014 
L 606.298091 -212.302766 
L 606.302981 -209.725518 
L 606.26194 -207.14827 
L 606.194076 -204.571022 
L 606.125934 -201.993773 
L 606.075302 -199.416525 
L 606.045784 -196.839277 
L 606.031933 -194.262029 
L 606.026632 -191.684781 
L 606.024967 -189.107532 
L 606.02455 -186.530284 
L 606.02455 -183.953036 
L 606.024967 -181.375788 
L 606.026632 -178.79854 
L 606.031933 -176.221292 
L 606.045784 -173.644043 
L 606.075302 -171.066795 
L 606.125934 -168.489547 
L 606.194077 -165.912299 
L 606.261947 -163.335051 
L 606.303028 -160.757802 
L 606.298358 -158.180554 
L 606.250918 -155.603306 
L 606.184744 -153.026058 
L 606.130918 -150.44881 
L 606.114788 -147.871562 
L 606.151946 -145.294313 
L 606.245976 -142.717065 
L 606.380545 -140.139817 
L 606.514103 -137.562569 
L 606.594191 -134.985321 
L 606.590985 -132.408073 
L 606.522359 -129.830824 
L 606.443762 -127.253576 
L 606.411436 -124.676328 
L 606.4547 -122.09908 
L 606.577534 -119.521832 
L 606.772339 -116.944583 
L 607.019436 -114.367335 
L 607.278178 -111.790087 
L 607.501004 -109.212839 
L 607.672582 -106.635591 
L 607.8298 -104.058343 
L 608.03522 -101.481094 
L 608.341544 -98.903846 
L 608.794261 -96.326598 
L 609.456765 -93.74935 
L 610.41098 -91.172102 
L 611.734555 -88.594853 
L 613.500575 -86.017605 
L 615.820317 -83.440357 
L 618.893153 -80.863109 
L 623.003759 -78.285861 
L 628.434122 -75.708613 
L 635.324996 -73.131364 
L 643.562405 -70.554116 
L 652.676511 -67.976868 
L 661.616448 -65.39962 
L 668.46435 -62.822372 
L 670.658006 -60.245124 
L 666.235845 -57.667875 
z
" style="stroke: #484848; stroke-width: 1.25"/>
    </defs>
    <g clip-path="url(#pd6755fe9a4)">
     <use xlink:href="#m742d7da8e1" x="0" y="377.199386" style="fill: #477ca8; stroke: #484848; stroke-width: 1.25"/>
    </g>
   </g>
   <g id="line2d_58">
    <path d="M 58.900564 314.428559 
L 183.644442 314.428559 
" clip-path="url(#pd6755fe9a4)" style="fill: none; stroke-dasharray: 1.5625,0.9375; stroke-dashoffset: 0; stroke: #484848; stroke-width: 1.25"/>
   </g>
   <g id="line2d_59">
    <path d="M 56.865521 309.325608 
L 185.679485 309.325608 
" clip-path="url(#pd6755fe9a4)" style="fill: none; stroke-dasharray: 3.125,1.25; stroke-dashoffset: 0; stroke: #484848; stroke-width: 1.25"/>
   </g>
   <g id="line2d_60">
    <path d="M 64.81034 294.016754 
L 177.734666 294.016754 
" clip-path="url(#pd6755fe9a4)" style="fill: none; stroke-dasharray: 1.5625,0.9375; stroke-dashoffset: 0; stroke: #484848; stroke-width: 1.25"/>
   </g>
   <g id="line2d_61">
    <path d="M 228.337632 319.531511 
L 337.375317 319.531511 
" clip-path="url(#pd6755fe9a4)" style="fill: none; stroke-dasharray: 1.5625,0.9375; stroke-dashoffset: 0; stroke: #484848; stroke-width: 1.25"/>
   </g>
   <g id="line2d_62">
    <path d="M 228.434165 309.325608 
L 337.278784 309.325608 
" clip-path="url(#pd6755fe9a4)" style="fill: none; stroke-dasharray: 3.125,1.25; stroke-dashoffset: 0; stroke: #484848; stroke-width: 1.25"/>
   </g>
   <g id="line2d_63">
    <path d="M 254.752709 299.119705 
L 310.960241 299.119705 
" clip-path="url(#pd6755fe9a4)" style="fill: none; stroke-dasharray: 1.5625,0.9375; stroke-dashoffset: 0; stroke: #484848; stroke-width: 1.25"/>
   </g>
   <g id="line2d_64">
    <path d="M 384.153393 319.531511 
L 504.727499 319.531511 
" clip-path="url(#pd6755fe9a4)" style="fill: none; stroke-dasharray: 1.5625,0.9375; stroke-dashoffset: 0; stroke: #484848; stroke-width: 1.25"/>
   </g>
   <g id="line2d_65">
    <path d="M 380.111981 314.428559 
L 508.768912 314.428559 
" clip-path="url(#pd6755fe9a4)" style="fill: none; stroke-dasharray: 3.125,1.25; stroke-dashoffset: 0; stroke: #484848; stroke-width: 1.25"/>
   </g>
   <g id="line2d_66">
    <path d="M 387.197015 309.325608 
L 501.683877 309.325608 
" clip-path="url(#pd6755fe9a4)" style="fill: none; stroke-dasharray: 1.5625,0.9375; stroke-dashoffset: 0; stroke: #484848; stroke-width: 1.25"/>
   </g>
   <g id="line2d_67">
    <path d="M 545.81299 319.531511 
L 666.235845 319.531511 
" clip-path="url(#pd6755fe9a4)" style="fill: none; stroke-dasharray: 1.5625,0.9375; stroke-dashoffset: 0; stroke: #484848; stroke-width: 1.25"/>
   </g>
   <g id="line2d_68">
    <path d="M 543.540612 314.428559 
L 668.508223 314.428559 
" clip-path="url(#pd6755fe9a4)" style="fill: none; stroke-dasharray: 3.125,1.25; stroke-dashoffset: 0; stroke: #484848; stroke-width: 1.25"/>
   </g>
   <g id="line2d_69">
    <path d="M 559.014727 309.325608 
L 653.034108 309.325608 
" clip-path="url(#pd6755fe9a4)" style="fill: none; stroke-dasharray: 1.5625,0.9375; stroke-dashoffset: 0; stroke: #484848; stroke-width: 1.25"/>
   </g>
   <g id="patch_3">
    <path d="M 40.480517 333.819775 
L 40.480517 19.477969 
" style="fill: none; stroke: #cccccc; stroke-width: 0.5; stroke-linejoin: miter; stroke-linecap: square"/>
   </g>
   <g id="patch_4">
    <path d="M 40.480517 333.819775 
L 686.816403 333.819775 
" style="fill: none; stroke: #cccccc; stroke-width: 0.5; stroke-linejoin: miter; stroke-linecap: square"/>
   </g>
   <g id="text_12">
    <!-- Uso IA nella vita quotidiana  ore settimanali -->
    <g style="fill: #262626" transform="translate(214.890882 13.477969) scale(0.13 -0.13)">
     <defs>
      <path id="DejaVuSans-55" d="M 556 4666 
L 1191 4666 
L 1191 1831 
Q 1191 1081 1462 751 
Q 1734 422 2344 422 
Q 2950 422 3222 751 
Q 3494 1081 3494 1831 
L 3494 4666 
L 4128 4666 
L 4128 1753 
Q 4128 841 3676 375 
Q 3225 -91 2344 -91 
Q 1459 -91 1007 375 
Q 556 841 556 1753 
L 556 4666 
z
" transform="scale(0.015625)"/>
      <path id="DejaVuSans-71" d="M 947 1747 
Q 947 1113 1208 752 
Q 1469 391 1925 391 
Q 2381 391 2643 752 
Q 2906 1113 2906 1747 
Q 2906 2381 2643 2742 
Q 2381 3103 1925 3103 
Q 1469 3103 1208 2742 
Q 947 2381 947 1747 
z
M 2906 525 
Q 2725 213 2448 61 
Q 2172 -91 1784 -91 
Q 1150 -91 751 415 
Q 353 922 353 1747 
Q 353 2572 751 3078 
Q 1150 3584 1784 3584 
Q 2172 3584 2448 3432 
Q 2725 3281 2906 2969 
L 2906 3500 
L 3481 3500 
L 3481 -1331 
L 2906 -1331 
L 2906 525 
z
" transform="scale(0.015625)"/>
      <path id="DejaVuSans-2014" d="M 313 1978 
L 6088 1978 
L 6088 1528 
L 313 1528 
L 313 1978 
z
" transform="scale(0.015625)"/>
     </defs>
     <use xlink:href="#DejaVuSans-55"/>
     <use xlink:href="#DejaVuSans-73" transform="translate(73.193359 0)"/>
     <use xlink:href="#DejaVuSans-6f" transform="translate(125.292969 0)"/>
     <use xlink:href="#DejaVuSans-20" transform="translate(186.474609 0)"/>
     <use xlink:href="#DejaVuSans-49" transform="translate(218.261719 0)"/>
     <use xlink:href="#DejaVuSans-41" transform="translate(247.753906 0)"/>
     <use xlink:href="#DejaVuSans-20" transform="translate(316.162109 0)"/>
     <use xlink:href="#DejaVuSans-6e" transform="translate(347.949219 0)"/>
     <use xlink:href="#DejaVuSans-65" transform="translate(411.328125 0)"/>
     <use xlink:href="#DejaVuSans-6c" transform="translate(472.851562 0)"/>
     <use xlink:href="#DejaVuSans-6c" transform="translate(500.634766 0)"/>
     <use xlink:href="#DejaVuSans-61" transform="translate(528.417969 0)"/>
     <use xlink:href="#DejaVuSans-20" transform="translate(589.697266 0)"/>
     <use xlink:href="#DejaVuSans-76" transform="translate(621.484375 0)"/>
     <use xlink:href="#DejaVuSans-69" transform="translate(680.664062 0)"/>
     <use xlink:href="#DejaVuSans-74" transform="translate(708.447266 0)"/>
     <use xlink:href="#DejaVuSans-61" transform="translate(747.65625 0)"/>
     <use xlink:href="#DejaVuSans-20" transform="translate(808.935547 0)"/>
     <use xlink:href="#DejaVuSans-71" transform="translate(840.722656 0)"/>
     <use xlink:href="#DejaVuSans-75" transform="translate(904.199219 0)"/>
     <use xlink:href="#DejaVuSans-6f" transform="translate(967.578125 0)"/>
     <use xlink:href="#DejaVuSans-74" transform="translate(1028.759766 0)"/>
     <use xlink:href="#DejaVuSans-69" transform="translate(1067.96875 0)"/>
     <use xlink:href="#DejaVuSans-64" transform="translate(1095.751953 0)"/>
     <use xlink:href="#DejaVuSans-69" transform="translate(1159.228516 0)"/>
     <use xlink:href="#DejaVuSans-61" transform="translate(1187.011719 0)"/>
     <use xlink:href="#DejaVuSans-6e" transform="translate(1248.291016 0)"/>
     <use xlink:href="#DejaVuSans-61" transform="translate(1311.669922 0)"/>
     <use xlink:href="#DejaVuSans-20" transform="translate(1372.949219 0)"/>
     <use xlink:href="#DejaVuSans-2014" transform="translate(1404.736328 0)"/>
     <use xlink:href="#DejaVuSans-20" transform="translate(1504.736328 0)"/>
     <use xlink:href="#DejaVuSans-6f" transform="translate(1536.523438 0)"/>
     <use xlink:href="#DejaVuSans-72" transform="translate(1597.705078 0)"/>
     <use xlink:href="#DejaVuSans-65" transform="translate(1636.568359 0)"/>
     <use xlink:href="#DejaVuSans-20" transform="translate(1698.091797 0)"/>
     <use xlink:href="#DejaVuSans-73" transform="translate(1729.878906 0)"/>
     <use xlink:href="#DejaVuSans-65" transform="translate(1781.978516 0)"/>
     <use xlink:href="#DejaVuSans-74" transform="translate(1843.501953 0)"/>
     <use xlink:href="#DejaVuSans-74" transform="translate(1882.710938 0)"/>
     <use xlink:href="#DejaVuSans-69" transform="translate(1921.919922 0)"/>
     <use xlink:href="#DejaVuSans-6d" transform="translate(1949.703125 0)"/>
     <use xlink:href="#DejaVuSans-61" transform="translate(2047.115234 0)"/>
     <use xlink:href="#DejaVuSans-6e" transform="translate(2108.394531 0)"/>
     <use xlink:href="#DejaVuSans-61" transform="translate(2171.773438 0)"/>
     <use xlink:href="#DejaVuSans-6c" transform="translate(2233.052734 0)"/>
     <use xlink:href="#DejaVuSans-69" transform="translate(2260.835938 0)"/>
    </g>
   </g>
  </g>
 </g>
 <defs>
  <clipPath id="pd6755fe9a4">
   <rect x="40.480517" y="19.477969" width="646.335886" height="314.341806"/>
  </clipPath>
 </defs>
</svg>
