<?xml version="1.0" encoding="utf-8" standalone="no"?>
<!DOCTYPE svg PUBLIC "-//W3C//DTD SVG 1.1//EN"
  "http://www.w3.org/Graphics/SVG/1.1/DTD/svg11.dtd">
<svg xmlns:xlink="http://www.w3.org/1999/xlink" width="504.339471pt" height="349.662137pt" viewBox="0 0 504.339471 349.662137" xmlns="http://www.w3.org/2000/svg" version="1.1">
 <metadata>
  <rdf:RDF xmlns:dc="http://purl.org/dc/elements/1.1/" xmlns:cc="http://creativecommons.org/ns#" xmlns:rdf="http://www.w3.org/1999/02/22-rdf-syntax-ns#">
   <cc:Work>
    <dc:type rdf:resource="http://purl.org/dc/dcmitype/StillImage"/>
    <dc:date>2025-11-07T12:57:20.776174</dc:date>
    <dc:format>image/svg+xml</dc:format>
    <dc:creator>
     <cc:Agent>
      <dc:title>Matplotlib v3.10.7, https://matplotlib.org/</dc:title>
     </cc:Agent>
    </dc:creator>
   </cc:Work>
  </rdf:RDF>
 </metadata>
 <defs>
  <style type="text/css">*{stroke-linejoin: round; stroke-linecap: butt}</style>
 </defs>
 <g id="figure_1">
  <g id="patch_1">
   <path d="M 0 349.662137 
L 504.339471 349.662137 
L 504.339471 0 
L 0 0 
z
" style="fill: #ffffff"/>
  </g>
  <g id="axes_1">
   <g id="patch_2">
    <path d="M 65.652727 290.701606 
L 500.739471 290.701606 
L 500.739471 18.718125 
L 65.652727 18.718125 
z
" style="fill: #ffffff"/>
   </g>
   <g id="matplotlib.axis_1">
    <g id="xtick_1">
     <g id="line2d_1">
      <defs>
       <path id="m21e65ae74f" d="M 0 0 
L 0 3 
" style="stroke: #262626; stroke-width: 0.5"/>
      </defs>
      <g>
       <use xlink:href="#m21e65ae74f" x="120.03857" y="18.718125" style="fill: #262626; stroke: #262626; stroke-width: 0.5"/>
      </g>
     </g>
     <g id="text_1">
      <!-- studenti - secondaria -->
      <g style="fill: #262626" transform="translate(5.0514 322.638202) rotate(-10) scale(0.11 -0.11)">
       <defs>
        <path id="DejaVuSans-73" d="M 2834 3397 
L 2834 2853 
Q 2591 2978 2328 3040 
Q 2066 3103 1784 3103 
Q 1356 3103 1142 2972 
Q 928 2841 928 2578 
Q 928 2378 1081 2264 
Q 1234 2150 1697 2047 
L 1894 2003 
Q 2506 1872 2764 1633 
Q 3022 1394 3022 966 
Q 3022 478 2636 193 
Q 2250 -91 1575 -91 
Q 1294 -91 989 -36 
Q 684 19 347 128 
L 347 722 
Q 666 556 975 473 
Q 1284 391 1588 391 
Q 1994 391 2212 530 
Q 2431 669 2431 922 
Q 2431 1156 2273 1281 
Q 2116 1406 1581 1522 
L 1381 1569 
Q 847 1681 609 1914 
Q 372 2147 372 2553 
Q 372 3047 722 3315 
Q 1072 3584 1716 3584 
Q 2034 3584 2315 3537 
Q 2597 3491 2834 3397 
z
" transform="scale(0.015625)"/>
        <path id="DejaVuSans-74" d="M 1172 4494 
L 1172 3500 
L 2356 3500 
L 2356 3053 
L 1172 3053 
L 1172 1153 
Q 1172 725 1289 603 
Q 1406 481 1766 481 
L 2356 481 
L 2356 0 
L 1766 0 
Q 1100 0 847 248 
Q 594 497 594 1153 
L 594 3053 
L 172 3053 
L 172 3500 
L 594 3500 
L 594 4494 
L 1172 4494 
z
" transform="scale(0.015625)"/>
        <path id="DejaVuSans-75" d="M 544 1381 
L 544 3500 
L 1119 3500 
L 1119 1403 
Q 1119 906 1312 657 
Q 1506 409 1894 409 
Q 2359 409 2629 706 
Q 2900 1003 2900 1516 
L 2900 3500 
L 3475 3500 
L 3475 0 
L 2900 0 
L 2900 538 
Q 2691 219 2414 64 
Q 2138 -91 1772 -91 
Q 1169 -91 856 284 
Q 544 659 544 1381 
z
M 1991 3584 
L 1991 3584 
z
" transform="scale(0.015625)"/>
        <path id="DejaVuSans-64" d="M 2906 2969 
L 2906 4863 
L 3481 4863 
L 3481 0 
L 2906 0 
L 2906 525 
Q 2725 213 2448 61 
Q 2172 -91 1784 -91 
Q 1150 -91 751 415 
Q 353 922 353 1747 
Q 353 2572 751 3078 
Q 1150 3584 1784 3584 
Q 2172 3584 2448 3432 
Q 2725 3281 2906 2969 
z
M 947 1747 
Q 947 1113 1208 752 
Q 1469 391 1925 391 
Q 2381 391 2643 752 
Q 2906 1113 2906 1747 
Q 2906 2381 2643 2742 
Q 2381 3103 1925 3103 
Q 1469 3103 1208 2742 
Q 947 2381 947 1747 
z
" transform="scale(0.015625)"/>
        <path id="DejaVuSans-65" d="M 3597 1894 
L 3597 1613 
L 953 1613 
Q 991 1019 1311 708 
Q 1631 397 2203 397 
Q 2534 397 2845 478 
Q 3156 559 3463 722 
L 3463 178 
Q 3153 47 2828 -22 
Q 2503 -91 2169 -91 
Q 1331 -91 842 396 
Q 353 884 353 1716 
Q 353 2575 817 3079 
Q 1281 3584 2069 3584 
Q 2775 3584 3186 3129 
Q 3597 2675 3597 1894 
z
M 3022 2063 
Q 3016 2534 2758 2815 
Q 2500 3097 2075 3097 
Q 1594 3097 1305 2825 
Q 1016 2553 972 2059 
L 3022 2063 
z
" transform="scale(0.015625)"/>
        <path id="DejaVuSans-6e" d="M 3513 2113 
L 3513 0 
L 2938 0 
L 2938 2094 
Q 2938 2591 2744 2837 
Q 2550 3084 2163 3084 
Q 1697 3084 1428 2787 
Q 1159 2491 1159 1978 
L 1159 0 
L 581 0 
L 581 3500 
L 1159 3500 
L 1159 2956 
Q 1366 3272 1645 3428 
Q 1925 3584 2291 3584 
Q 2894 3584 3203 3211 
Q 3513 2838 3513 2113 
z
" transform="scale(0.015625)"/>
        <path id="DejaVuSans-69" d="M 603 3500 
L 1178 3500 
L 1178 0 
L 603 0 
L 603 3500 
z
M 603 4863 
L 1178 4863 
L 1178 4134 
L 603 4134 
L 603 4863 
z
" transform="scale(0.015625)"/>
        <path id="DejaVuSans-20" transform="scale(0.015625)"/>
        <path id="DejaVuSans-2d" d="M 313 2009 
L 1997 2009 
L 1997 1497 
L 313 1497 
L 313 2009 
z
" transform="scale(0.015625)"/>
        <path id="DejaVuSans-63" d="M 3122 3366 
L 3122 2828 
Q 2878 2963 2633 3030 
Q 2388 3097 2138 3097 
Q 1578 3097 1268 2742 
Q 959 2388 959 1747 
Q 959 1106 1268 751 
Q 1578 397 2138 397 
Q 2388 397 2633 464 
Q 2878 531 3122 666 
L 3122 134 
Q 2881 22 2623 -34 
Q 2366 -91 2075 -91 
Q 1284 -91 818 406 
Q 353 903 353 1747 
Q 353 2603 823 3093 
Q 1294 3584 2113 3584 
Q 2378 3584 2631 3529 
Q 2884 3475 3122 3366 
z
" transform="scale(0.015625)"/>
        <path id="DejaVuSans-6f" d="M 1959 3097 
Q 1497 3097 1228 2736 
Q 959 2375 959 1747 
Q 959 1119 1226 758 
Q 1494 397 1959 397 
Q 2419 397 2687 759 
Q 2956 1122 2956 1747 
Q 2956 2369 2687 2733 
Q 2419 3097 1959 3097 
z
M 1959 3584 
Q 2709 3584 3137 3096 
Q 3566 2609 3566 1747 
Q 3566 888 3137 398 
Q 2709 -91 1959 -91 
Q 1206 -91 779 398 
Q 353 888 353 1747 
Q 353 2609 779 3096 
Q 1206 3584 1959 3584 
z
" transform="scale(0.015625)"/>
        <path id="DejaVuSans-61" d="M 2194 1759 
Q 1497 1759 1228 1600 
Q 959 1441 959 1056 
Q 959 750 1161 570 
Q 1363 391 1709 391 
Q 2188 391 2477 730 
Q 2766 1069 2766 1631 
L 2766 1759 
L 2194 1759 
z
M 3341 1997 
L 3341 0 
L 2766 0 
L 2766 531 
Q 2569 213 2275 61 
Q 1981 -91 1556 -91 
Q 1019 -91 701 211 
Q 384 513 384 1019 
Q 384 1609 779 1909 
Q 1175 2209 1959 2209 
L 2766 2209 
L 2766 2266 
Q 2766 2663 2505 2880 
Q 2244 3097 1772 3097 
Q 1472 3097 1187 3025 
Q 903 2953 641 2809 
L 641 3341 
Q 956 3463 1253 3523 
Q 1550 3584 1831 3584 
Q 2591 3584 2966 3190 
Q 3341 2797 3341 1997 
z
" transform="scale(0.015625)"/>
        <path id="DejaVuSans-72" d="M 2631 2963 
Q 2534 3019 2420 3045 
Q 2306 3072 2169 3072 
Q 1681 3072 1420 2755 
Q 1159 2438 1159 1844 
L 1159 0 
L 581 0 
L 581 3500 
L 1159 3500 
L 1159 2956 
Q 1341 3275 1631 3429 
Q 1922 3584 2338 3584 
Q 2397 3584 2469 3576 
Q 2541 3569 2628 3553 
L 2631 2963 
z
" transform="scale(0.015625)"/>
       </defs>
       <use xlink:href="#DejaVuSans-73"/>
       <use xlink:href="#DejaVuSans-74" transform="translate(52.099609 0)"/>
       <use xlink:href="#DejaVuSans-75" transform="translate(91.308594 0)"/>
       <use xlink:href="#DejaVuSans-64" transform="translate(154.6875 0)"/>
       <use xlink:href="#DejaVuSans-65" transform="translate(218.164062 0)"/>
       <use xlink:href="#DejaVuSans-6e" transform="translate(279.6875 0)"/>
       <use xlink:href="#DejaVuSans-74" transform="translate(343.066406 0)"/>
       <use xlink:href="#DejaVuSans-69" transform="translate(382.275391 0)"/>
       <use xlink:href="#DejaVuSans-20" transform="translate(410.058594 0)"/>
       <use xlink:href="#DejaVuSans-2d" transform="translate(441.845703 0)"/>
       <use xlink:href="#DejaVuSans-20" transform="translate(477.929688 0)"/>
       <use xlink:href="#DejaVuSans-73" transform="translate(509.716797 0)"/>
       <use xlink:href="#DejaVuSans-65" transform="translate(561.816406 0)"/>
       <use xlink:href="#DejaVuSans-63" transform="translate(623.339844 0)"/>
       <use xlink:href="#DejaVuSans-6f" transform="translate(678.320312 0)"/>
       <use xlink:href="#DejaVuSans-6e" transform="translate(739.501953 0)"/>
       <use xlink:href="#DejaVuSans-64" transform="translate(802.880859 0)"/>
       <use xlink:href="#DejaVuSans-61" transform="translate(866.357422 0)"/>
       <use xlink:href="#DejaVuSans-72" transform="translate(927.636719 0)"/>
       <use xlink:href="#DejaVuSans-69" transform="translate(968.75 0)"/>
       <use xlink:href="#DejaVuSans-61" transform="translate(996.533203 0)"/>
      </g>
     </g>
    </g>
    <g id="xtick_2">
     <g id="line2d_2">
      <g>
       <use xlink:href="#m21e65ae74f" x="228.810256" y="18.718125" style="fill: #262626; stroke: #262626; stroke-width: 0.5"/>
      </g>
     </g>
     <g id="text_2">
      <!-- studenti - universitari -->
      <g style="fill: #262626" transform="translate(111.927331 322.972474) rotate(-10) scale(0.11 -0.11)">
       <defs>
        <path id="DejaVuSans-76" d="M 191 3500 
L 800 3500 
L 1894 563 
L 2988 3500 
L 3597 3500 
L 2284 0 
L 1503 0 
L 191 3500 
z
" transform="scale(0.015625)"/>
       </defs>
       <use xlink:href="#DejaVuSans-73"/>
       <use xlink:href="#DejaVuSans-74" transform="translate(52.099609 0)"/>
       <use xlink:href="#DejaVuSans-75" transform="translate(91.308594 0)"/>
       <use xlink:href="#DejaVuSans-64" transform="translate(154.6875 0)"/>
       <use xlink:href="#DejaVuSans-65" transform="translate(218.164062 0)"/>
       <use xlink:href="#DejaVuSans-6e" transform="translate(279.6875 0)"/>
       <use xlink:href="#DejaVuSans-74" transform="translate(343.066406 0)"/>
       <use xlink:href="#DejaVuSans-69" transform="translate(382.275391 0)"/>
       <use xlink:href="#DejaVuSans-20" transform="translate(410.058594 0)"/>
       <use xlink:href="#DejaVuSans-2d" transform="translate(441.845703 0)"/>
       <use xlink:href="#DejaVuSans-20" transform="translate(477.929688 0)"/>
       <use xlink:href="#DejaVuSans-75" transform="translate(509.716797 0)"/>
       <use xlink:href="#DejaVuSans-6e" transform="translate(573.095703 0)"/>
       <use xlink:href="#DejaVuSans-69" transform="translate(636.474609 0)"/>
       <use xlink:href="#DejaVuSans-76" transform="translate(664.257812 0)"/>
       <use xlink:href="#DejaVuSans-65" transform="translate(723.4375 0)"/>
       <use xlink:href="#DejaVuSans-72" transform="translate(784.960938 0)"/>
       <use xlink:href="#DejaVuSans-73" transform="translate(826.074219 0)"/>
       <use xlink:href="#DejaVuSans-69" transform="translate(878.173828 0)"/>
       <use xlink:href="#DejaVuSans-74" transform="translate(905.957031 0)"/>
       <use xlink:href="#DejaVuSans-61" transform="translate(945.166016 0)"/>
       <use xlink:href="#DejaVuSans-72" transform="translate(1006.445312 0)"/>
       <use xlink:href="#DejaVuSans-69" transform="translate(1047.558594 0)"/>
      </g>
     </g>
    </g>
    <g id="xtick_3">
     <g id="line2d_3">
      <g>
       <use xlink:href="#m21e65ae74f" x="337.581942" y="18.718125" style="fill: #262626; stroke: #262626; stroke-width: 0.5"/>
      </g>
     </g>
     <g id="text_3">
      <!-- insegnanti - non in servizio -->
      <g style="fill: #262626" transform="translate(191.077847 328.195486) rotate(-10) scale(0.11 -0.11)">
       <defs>
        <path id="DejaVuSans-67" d="M 2906 1791 
Q 2906 2416 2648 2759 
Q 2391 3103 1925 3103 
Q 1463 3103 1205 2759 
Q 947 2416 947 1791 
Q 947 1169 1205 825 
Q 1463 481 1925 481 
Q 2391 481 2648 825 
Q 2906 1169 2906 1791 
z
M 3481 434 
Q 3481 -459 3084 -895 
Q 2688 -1331 1869 -1331 
Q 1566 -1331 1297 -1286 
Q 1028 -1241 775 -1147 
L 775 -588 
Q 1028 -725 1275 -790 
Q 1522 -856 1778 -856 
Q 2344 -856 2625 -561 
Q 2906 -266 2906 331 
L 2906 616 
Q 2728 306 2450 153 
Q 2172 0 1784 0 
Q 1141 0 747 490 
Q 353 981 353 1791 
Q 353 2603 747 3093 
Q 1141 3584 1784 3584 
Q 2172 3584 2450 3431 
Q 2728 3278 2906 2969 
L 2906 3500 
L 3481 3500 
L 3481 434 
z
" transform="scale(0.015625)"/>
        <path id="DejaVuSans-7a" d="M 353 3500 
L 3084 3500 
L 3084 2975 
L 922 459 
L 3084 459 
L 3084 0 
L 275 0 
L 275 525 
L 2438 3041 
L 353 3041 
L 353 3500 
z
" transform="scale(0.015625)"/>
       </defs>
       <use xlink:href="#DejaVuSans-69"/>
       <use xlink:href="#DejaVuSans-6e" transform="translate(27.783203 0)"/>
       <use xlink:href="#DejaVuSans-73" transform="translate(91.162109 0)"/>
       <use xlink:href="#DejaVuSans-65" transform="translate(143.261719 0)"/>
       <use xlink:href="#DejaVuSans-67" transform="translate(204.785156 0)"/>
       <use xlink:href="#DejaVuSans-6e" transform="translate(268.261719 0)"/>
       <use xlink:href="#DejaVuSans-61" transform="translate(331.640625 0)"/>
       <use xlink:href="#DejaVuSans-6e" transform="translate(392.919922 0)"/>
       <use xlink:href="#DejaVuSans-74" transform="translate(456.298828 0)"/>
       <use xlink:href="#DejaVuSans-69" transform="translate(495.507812 0)"/>
       <use xlink:href="#DejaVuSans-20" transform="translate(523.291016 0)"/>
       <use xlink:href="#DejaVuSans-2d" transform="translate(555.078125 0)"/>
       <use xlink:href="#DejaVuSans-20" transform="translate(591.162109 0)"/>
       <use xlink:href="#DejaVuSans-6e" transform="translate(622.949219 0)"/>
       <use xlink:href="#DejaVuSans-6f" transform="translate(686.328125 0)"/>
       <use xlink:href="#DejaVuSans-6e" transform="translate(747.509766 0)"/>
       <use xlink:href="#DejaVuSans-20" transform="translate(810.888672 0)"/>
       <use xlink:href="#DejaVuSans-69" transform="translate(842.675781 0)"/>
       <use xlink:href="#DejaVuSans-6e" transform="translate(870.458984 0)"/>
       <use xlink:href="#DejaVuSans-20" transform="translate(933.837891 0)"/>
       <use xlink:href="#DejaVuSans-73" transform="translate(965.625 0)"/>
       <use xlink:href="#DejaVuSans-65" transform="translate(1017.724609 0)"/>
       <use xlink:href="#DejaVuSans-72" transform="translate(1079.248047 0)"/>
       <use xlink:href="#DejaVuSans-76" transform="translate(1120.361328 0)"/>
       <use xlink:href="#DejaVuSans-69" transform="translate(1179.541016 0)"/>
       <use xlink:href="#DejaVuSans-7a" transform="translate(1207.324219 0)"/>
       <use xlink:href="#DejaVuSans-69" transform="translate(1259.814453 0)"/>
       <use xlink:href="#DejaVuSans-6f" transform="translate(1287.597656 0)"/>
      </g>
     </g>
    </g>
    <g id="xtick_4">
     <g id="line2d_4">
      <g>
       <use xlink:href="#m21e65ae74f" x="446.353628" y="18.718125" style="fill: #262626; stroke: #262626; stroke-width: 0.5"/>
      </g>
     </g>
     <g id="text_4">
      <!-- insegnanti - in servizio -->
      <g style="fill: #262626" transform="translate(323.651413 323.998572) rotate(-10) scale(0.11 -0.11)">
       <use xlink:href="#DejaVuSans-69"/>
       <use xlink:href="#DejaVuSans-6e" transform="translate(27.783203 0)"/>
       <use xlink:href="#DejaVuSans-73" transform="translate(91.162109 0)"/>
       <use xlink:href="#DejaVuSans-65" transform="translate(143.261719 0)"/>
       <use xlink:href="#DejaVuSans-67" transform="translate(204.785156 0)"/>
       <use xlink:href="#DejaVuSans-6e" transform="translate(268.261719 0)"/>
       <use xlink:href="#DejaVuSans-61" transform="translate(331.640625 0)"/>
       <use xlink:href="#DejaVuSans-6e" transform="translate(392.919922 0)"/>
       <use xlink:href="#DejaVuSans-74" transform="translate(456.298828 0)"/>
       <use xlink:href="#DejaVuSans-69" transform="translate(495.507812 0)"/>
       <use xlink:href="#DejaVuSans-20" transform="translate(523.291016 0)"/>
       <use xlink:href="#DejaVuSans-2d" transform="translate(555.078125 0)"/>
       <use xlink:href="#DejaVuSans-20" transform="translate(591.162109 0)"/>
       <use xlink:href="#DejaVuSans-69" transform="translate(622.949219 0)"/>
       <use xlink:href="#DejaVuSans-6e" transform="translate(650.732422 0)"/>
       <use xlink:href="#DejaVuSans-20" transform="translate(714.111328 0)"/>
       <use xlink:href="#DejaVuSans-73" transform="translate(745.898438 0)"/>
       <use xlink:href="#DejaVuSans-65" transform="translate(797.998047 0)"/>
       <use xlink:href="#DejaVuSans-72" transform="translate(859.521484 0)"/>
       <use xlink:href="#DejaVuSans-76" transform="translate(900.634766 0)"/>
       <use xlink:href="#DejaVuSans-69" transform="translate(959.814453 0)"/>
       <use xlink:href="#DejaVuSans-7a" transform="translate(987.597656 0)"/>
       <use xlink:href="#DejaVuSans-69" transform="translate(1040.087891 0)"/>
       <use xlink:href="#DejaVuSans-6f" transform="translate(1067.871094 0)"/>
      </g>
     </g>
    </g>
    <g id="xtick_5">
     <g id="line2d_5">
      <defs>
       <path id="m4d5a2e46e8" d="M 0 0 
L 0 1.5 
" style="stroke: #262626; stroke-width: 0.5"/>
      </defs>
      <g>
       <use xlink:href="#m4d5a2e46e8" x="76.529895" y="18.718125" style="fill: #262626; stroke: #262626; stroke-width: 0.5"/>
      </g>
     </g>
    </g>
    <g id="xtick_6">
     <g id="line2d_6">
      <g>
       <use xlink:href="#m4d5a2e46e8" x="98.284232" y="18.718125" style="fill: #262626; stroke: #262626; stroke-width: 0.5"/>
      </g>
     </g>
    </g>
    <g id="xtick_7">
     <g id="line2d_7">
      <g>
       <use xlink:href="#m4d5a2e46e8" x="141.792907" y="18.718125" style="fill: #262626; stroke: #262626; stroke-width: 0.5"/>
      </g>
     </g>
    </g>
    <g id="xtick_8">
     <g id="line2d_8">
      <g>
       <use xlink:href="#m4d5a2e46e8" x="163.547244" y="18.718125" style="fill: #262626; stroke: #262626; stroke-width: 0.5"/>
      </g>
     </g>
    </g>
    <g id="xtick_9">
     <g id="line2d_9">
      <g>
       <use xlink:href="#m4d5a2e46e8" x="185.301581" y="18.718125" style="fill: #262626; stroke: #262626; stroke-width: 0.5"/>
      </g>
     </g>
    </g>
    <g id="xtick_10">
     <g id="line2d_10">
      <g>
       <use xlink:href="#m4d5a2e46e8" x="207.055918" y="18.718125" style="fill: #262626; stroke: #262626; stroke-width: 0.5"/>
      </g>
     </g>
    </g>
    <g id="xtick_11">
     <g id="line2d_11">
      <g>
       <use xlink:href="#m4d5a2e46e8" x="250.564593" y="18.718125" style="fill: #262626; stroke: #262626; stroke-width: 0.5"/>
      </g>
     </g>
    </g>
    <g id="xtick_12">
     <g id="line2d_12">
      <g>
       <use xlink:href="#m4d5a2e46e8" x="272.31893" y="18.718125" style="fill: #262626; stroke: #262626; stroke-width: 0.5"/>
      </g>
     </g>
    </g>
    <g id="xtick_13">
     <g id="line2d_13">
      <g>
       <use xlink:href="#m4d5a2e46e8" x="294.073267" y="18.718125" style="fill: #262626; stroke: #262626; stroke-width: 0.5"/>
      </g>
     </g>
    </g>
    <g id="xtick_14">
     <g id="line2d_14">
      <g>
       <use xlink:href="#m4d5a2e46e8" x="315.827604" y="18.718125" style="fill: #262626; stroke: #262626; stroke-width: 0.5"/>
      </g>
     </g>
    </g>
    <g id="xtick_15">
     <g id="line2d_15">
      <g>
       <use xlink:href="#m4d5a2e46e8" x="359.336279" y="18.718125" style="fill: #262626; stroke: #262626; stroke-width: 0.5"/>
      </g>
     </g>
    </g>
    <g id="xtick_16">
     <g id="line2d_16">
      <g>
       <use xlink:href="#m4d5a2e46e8" x="381.090616" y="18.718125" style="fill: #262626; stroke: #262626; stroke-width: 0.5"/>
      </g>
     </g>
    </g>
    <g id="xtick_17">
     <g id="line2d_17">
      <g>
       <use xlink:href="#m4d5a2e46e8" x="402.844953" y="18.718125" style="fill: #262626; stroke: #262626; stroke-width: 0.5"/>
      </g>
     </g>
    </g>
    <g id="xtick_18">
     <g id="line2d_18">
      <g>
       <use xlink:href="#m4d5a2e46e8" x="424.59929" y="18.718125" style="fill: #262626; stroke: #262626; stroke-width: 0.5"/>
      </g>
     </g>
    </g>
    <g id="xtick_19">
     <g id="line2d_19">
      <g>
       <use xlink:href="#m4d5a2e46e8" x="468.107965" y="18.718125" style="fill: #262626; stroke: #262626; stroke-width: 0.5"/>
      </g>
     </g>
    </g>
    <g id="xtick_20">
     <g id="line2d_20">
      <g>
       <use xlink:href="#m4d5a2e46e8" x="489.862302" y="18.718125" style="fill: #262626; stroke: #262626; stroke-width: 0.5"/>
      </g>
     </g>
    </g>
    <g id="text_5">
     <!-- Gruppo -->
     <g style="fill: #262626" transform="translate(260.988599 343.566512) scale(0.12 -0.12)">
      <defs>
       <path id="DejaVuSans-47" d="M 3809 666 
L 3809 1919 
L 2778 1919 
L 2778 2438 
L 4434 2438 
L 4434 434 
Q 4069 175 3628 42 
Q 3188 -91 2688 -91 
Q 1594 -91 976 548 
Q 359 1188 359 2328 
Q 359 3472 976 4111 
Q 1594 4750 2688 4750 
Q 3144 4750 3555 4637 
Q 3966 4525 4313 4306 
L 4313 3634 
Q 3963 3931 3569 4081 
Q 3175 4231 2741 4231 
Q 1884 4231 1454 3753 
Q 1025 3275 1025 2328 
Q 1025 1384 1454 906 
Q 1884 428 2741 428 
Q 3075 428 3337 486 
Q 3600 544 3809 666 
z
" transform="scale(0.015625)"/>
       <path id="DejaVuSans-70" d="M 1159 525 
L 1159 -1331 
L 581 -1331 
L 581 3500 
L 1159 3500 
L 1159 2969 
Q 1341 3281 1617 3432 
Q 1894 3584 2278 3584 
Q 2916 3584 3314 3078 
Q 3713 2572 3713 1747 
Q 3713 922 3314 415 
Q 2916 -91 2278 -91 
Q 1894 -91 1617 61 
Q 1341 213 1159 525 
z
M 3116 1747 
Q 3116 2381 2855 2742 
Q 2594 3103 2138 3103 
Q 1681 3103 1420 2742 
Q 1159 2381 1159 1747 
Q 1159 1113 1420 752 
Q 1681 391 2138 391 
Q 2594 391 2855 752 
Q 3116 1113 3116 1747 
z
" transform="scale(0.015625)"/>
      </defs>
      <use xlink:href="#DejaVuSans-47"/>
      <use xlink:href="#DejaVuSans-72" transform="translate(77.490234 0)"/>
      <use xlink:href="#DejaVuSans-75" transform="translate(118.603516 0)"/>
      <use xlink:href="#DejaVuSans-70" transform="translate(181.982422 0)"/>
      <use xlink:href="#DejaVuSans-70" transform="translate(245.458984 0)"/>
      <use xlink:href="#DejaVuSans-6f" transform="translate(308.935547 0)"/>
     </g>
    </g>
   </g>
   <g id="matplotlib.axis_2">
    <g id="ytick_1">
     <g id="line2d_21">
      <path d="M 65.652727 249.808985 
L 500.739471 249.808985 
" clip-path="url(#p706f0a1fa9)" style="fill: none; stroke-dasharray: 1.85,0.8; stroke-dashoffset: 0; stroke: #1a1a1a; stroke-opacity: 0.25; stroke-width: 0.5"/>
     </g>
     <g id="line2d_22">
      <defs>
       <path id="m53ffda8605" d="M 0 0 
L -3 0 
" style="stroke: #262626; stroke-width: 0.5"/>
      </defs>
      <g>
       <use xlink:href="#m53ffda8605" x="500.739471" y="249.808985" style="fill: #262626; stroke: #262626; stroke-width: 0.5"/>
      </g>
     </g>
     <g id="text_6">
      <!-- $\mathdefault{20}$ -->
      <g style="fill: #262626" transform="translate(48.072727 253.988126) scale(0.11 -0.11)">
       <defs>
        <path id="DejaVuSans-32" d="M 1228 531 
L 3431 531 
L 3431 0 
L 469 0 
L 469 531 
Q 828 903 1448 1529 
Q 2069 2156 2228 2338 
Q 2531 2678 2651 2914 
Q 2772 3150 2772 3378 
Q 2772 3750 2511 3984 
Q 2250 4219 1831 4219 
Q 1534 4219 1204 4116 
Q 875 4013 500 3803 
L 500 4441 
Q 881 4594 1212 4672 
Q 1544 4750 1819 4750 
Q 2544 4750 2975 4387 
Q 3406 4025 3406 3419 
Q 3406 3131 3298 2873 
Q 3191 2616 2906 2266 
Q 2828 2175 2409 1742 
Q 1991 1309 1228 531 
z
" transform="scale(0.015625)"/>
        <path id="DejaVuSans-30" d="M 2034 4250 
Q 1547 4250 1301 3770 
Q 1056 3291 1056 2328 
Q 1056 1369 1301 889 
Q 1547 409 2034 409 
Q 2525 409 2770 889 
Q 3016 1369 3016 2328 
Q 3016 3291 2770 3770 
Q 2525 4250 2034 4250 
z
M 2034 4750 
Q 2819 4750 3233 4129 
Q 3647 3509 3647 2328 
Q 3647 1150 3233 529 
Q 2819 -91 2034 -91 
Q 1250 -91 836 529 
Q 422 1150 422 2328 
Q 422 3509 836 4129 
Q 1250 4750 2034 4750 
z
" transform="scale(0.015625)"/>
       </defs>
       <use xlink:href="#DejaVuSans-32" transform="translate(0 0.78125)"/>
       <use xlink:href="#DejaVuSans-30" transform="translate(63.623047 0.78125)"/>
      </g>
     </g>
    </g>
    <g id="ytick_2">
     <g id="line2d_23">
      <path d="M 65.652727 202.259425 
L 500.739471 202.259425 
" clip-path="url(#p706f0a1fa9)" style="fill: none; stroke-dasharray: 1.85,0.8; stroke-dashoffset: 0; stroke: #1a1a1a; stroke-opacity: 0.25; stroke-width: 0.5"/>
     </g>
     <g id="line2d_24">
      <g>
       <use xlink:href="#m53ffda8605" x="500.739471" y="202.259425" style="fill: #262626; stroke: #262626; stroke-width: 0.5"/>
      </g>
     </g>
     <g id="text_7">
      <!-- $\mathdefault{30}$ -->
      <g style="fill: #262626" transform="translate(48.072727 206.438566) scale(0.11 -0.11)">
       <defs>
        <path id="DejaVuSans-33" d="M 2597 2516 
Q 3050 2419 3304 2112 
Q 3559 1806 3559 1356 
Q 3559 666 3084 287 
Q 2609 -91 1734 -91 
Q 1441 -91 1130 -33 
Q 819 25 488 141 
L 488 750 
Q 750 597 1062 519 
Q 1375 441 1716 441 
Q 2309 441 2620 675 
Q 2931 909 2931 1356 
Q 2931 1769 2642 2001 
Q 2353 2234 1838 2234 
L 1294 2234 
L 1294 2753 
L 1863 2753 
Q 2328 2753 2575 2939 
Q 2822 3125 2822 3475 
Q 2822 3834 2567 4026 
Q 2313 4219 1838 4219 
Q 1578 4219 1281 4162 
Q 984 4106 628 3988 
L 628 4550 
Q 988 4650 1302 4700 
Q 1616 4750 1894 4750 
Q 2613 4750 3031 4423 
Q 3450 4097 3450 3541 
Q 3450 3153 3228 2886 
Q 3006 2619 2597 2516 
z
" transform="scale(0.015625)"/>
       </defs>
       <use xlink:href="#DejaVuSans-33" transform="translate(0 0.78125)"/>
       <use xlink:href="#DejaVuSans-30" transform="translate(63.623047 0.78125)"/>
      </g>
     </g>
    </g>
    <g id="ytick_3">
     <g id="line2d_25">
      <path d="M 65.652727 154.709866 
L 500.739471 154.709866 
" clip-path="url(#p706f0a1fa9)" style="fill: none; stroke-dasharray: 1.85,0.8; stroke-dashoffset: 0; stroke: #1a1a1a; stroke-opacity: 0.25; stroke-width: 0.5"/>
     </g>
     <g id="line2d_26">
      <g>
       <use xlink:href="#m53ffda8605" x="500.739471" y="154.709866" style="fill: #262626; stroke: #262626; stroke-width: 0.5"/>
      </g>
     </g>
     <g id="text_8">
      <!-- $\mathdefault{40}$ -->
      <g style="fill: #262626" transform="translate(48.072727 158.889006) scale(0.11 -0.11)">
       <defs>
        <path id="DejaVuSans-34" d="M 2419 4116 
L 825 1625 
L 2419 1625 
L 2419 4116 
z
M 2253 4666 
L 3047 4666 
L 3047 1625 
L 3713 1625 
L 3713 1100 
L 3047 1100 
L 3047 0 
L 2419 0 
L 2419 1100 
L 313 1100 
L 313 1709 
L 2253 4666 
z
" transform="scale(0.015625)"/>
       </defs>
       <use xlink:href="#DejaVuSans-34" transform="translate(0 0.78125)"/>
       <use xlink:href="#DejaVuSans-30" transform="translate(63.623047 0.78125)"/>
      </g>
     </g>
    </g>
    <g id="ytick_4">
     <g id="line2d_27">
      <path d="M 65.652727 107.160306 
L 500.739471 107.160306 
" clip-path="url(#p706f0a1fa9)" style="fill: none; stroke-dasharray: 1.85,0.8; stroke-dashoffset: 0; stroke: #1a1a1a; stroke-opacity: 0.25; stroke-width: 0.5"/>
     </g>
     <g id="line2d_28">
      <g>
       <use xlink:href="#m53ffda8605" x="500.739471" y="107.160306" style="fill: #262626; stroke: #262626; stroke-width: 0.5"/>
      </g>
     </g>
     <g id="text_9">
      <!-- $\mathdefault{50}$ -->
      <g style="fill: #262626" transform="translate(48.072727 111.339447) scale(0.11 -0.11)">
       <defs>
        <path id="DejaVuSans-35" d="M 691 4666 
L 3169 4666 
L 3169 4134 
L 1269 4134 
L 1269 2991 
Q 1406 3038 1543 3061 
Q 1681 3084 1819 3084 
Q 2600 3084 3056 2656 
Q 3513 2228 3513 1497 
Q 3513 744 3044 326 
Q 2575 -91 1722 -91 
Q 1428 -91 1123 -41 
Q 819 9 494 109 
L 494 744 
Q 775 591 1075 516 
Q 1375 441 1709 441 
Q 2250 441 2565 725 
Q 2881 1009 2881 1497 
Q 2881 1984 2565 2268 
Q 2250 2553 1709 2553 
Q 1456 2553 1204 2497 
Q 953 2441 691 2322 
L 691 4666 
z
" transform="scale(0.015625)"/>
       </defs>
       <use xlink:href="#DejaVuSans-35" transform="translate(0 0.78125)"/>
       <use xlink:href="#DejaVuSans-30" transform="translate(63.623047 0.78125)"/>
      </g>
     </g>
    </g>
    <g id="ytick_5">
     <g id="line2d_29">
      <path d="M 65.652727 59.610746 
L 500.739471 59.610746 
" clip-path="url(#p706f0a1fa9)" style="fill: none; stroke-dasharray: 1.85,0.8; stroke-dashoffset: 0; stroke: #1a1a1a; stroke-opacity: 0.25; stroke-width: 0.5"/>
     </g>
     <g id="line2d_30">
      <g>
       <use xlink:href="#m53ffda8605" x="500.739471" y="59.610746" style="fill: #262626; stroke: #262626; stroke-width: 0.5"/>
      </g>
     </g>
     <g id="text_10">
      <!-- $\mathdefault{60}$ -->
      <g style="fill: #262626" transform="translate(48.072727 63.789887) scale(0.11 -0.11)">
       <defs>
        <path id="DejaVuSans-36" d="M 2113 2584 
Q 1688 2584 1439 2293 
Q 1191 2003 1191 1497 
Q 1191 994 1439 701 
Q 1688 409 2113 409 
Q 2538 409 2786 701 
Q 3034 994 3034 1497 
Q 3034 2003 2786 2293 
Q 2538 2584 2113 2584 
z
M 3366 4563 
L 3366 3988 
Q 3128 4100 2886 4159 
Q 2644 4219 2406 4219 
Q 1781 4219 1451 3797 
Q 1122 3375 1075 2522 
Q 1259 2794 1537 2939 
Q 1816 3084 2150 3084 
Q 2853 3084 3261 2657 
Q 3669 2231 3669 1497 
Q 3669 778 3244 343 
Q 2819 -91 2113 -91 
Q 1303 -91 875 529 
Q 447 1150 447 2328 
Q 447 3434 972 4092 
Q 1497 4750 2381 4750 
Q 2619 4750 2861 4703 
Q 3103 4656 3366 4563 
z
" transform="scale(0.015625)"/>
       </defs>
       <use xlink:href="#DejaVuSans-36" transform="translate(0 0.78125)"/>
       <use xlink:href="#DejaVuSans-30" transform="translate(63.623047 0.78125)"/>
      </g>
     </g>
    </g>
    <g id="ytick_6">
     <g id="line2d_31">
      <defs>
       <path id="m07bd64420d" d="M 0 0 
L -1.5 0 
" style="stroke: #262626; stroke-width: 0.5"/>
      </defs>
      <g>
       <use xlink:href="#m07bd64420d" x="500.739471" y="287.848633" style="fill: #262626; stroke: #262626; stroke-width: 0.5"/>
      </g>
     </g>
    </g>
    <g id="ytick_7">
     <g id="line2d_32">
      <g>
       <use xlink:href="#m07bd64420d" x="500.739471" y="278.338721" style="fill: #262626; stroke: #262626; stroke-width: 0.5"/>
      </g>
     </g>
    </g>
    <g id="ytick_8">
     <g id="line2d_33">
      <g>
       <use xlink:href="#m07bd64420d" x="500.739471" y="268.828809" style="fill: #262626; stroke: #262626; stroke-width: 0.5"/>
      </g>
     </g>
    </g>
    <g id="ytick_9">
     <g id="line2d_34">
      <g>
       <use xlink:href="#m07bd64420d" x="500.739471" y="259.318897" style="fill: #262626; stroke: #262626; stroke-width: 0.5"/>
      </g>
     </g>
    </g>
    <g id="ytick_10">
     <g id="line2d_35">
      <g>
       <use xlink:href="#m07bd64420d" x="500.739471" y="240.299073" style="fill: #262626; stroke: #262626; stroke-width: 0.5"/>
      </g>
     </g>
    </g>
    <g id="ytick_11">
     <g id="line2d_36">
      <g>
       <use xlink:href="#m07bd64420d" x="500.739471" y="230.789161" style="fill: #262626; stroke: #262626; stroke-width: 0.5"/>
      </g>
     </g>
    </g>
    <g id="ytick_12">
     <g id="line2d_37">
      <g>
       <use xlink:href="#m07bd64420d" x="500.739471" y="221.279249" style="fill: #262626; stroke: #262626; stroke-width: 0.5"/>
      </g>
     </g>
    </g>
    <g id="ytick_13">
     <g id="line2d_38">
      <g>
       <use xlink:href="#m07bd64420d" x="500.739471" y="211.769337" style="fill: #262626; stroke: #262626; stroke-width: 0.5"/>
      </g>
     </g>
    </g>
    <g id="ytick_14">
     <g id="line2d_39">
      <g>
       <use xlink:href="#m07bd64420d" x="500.739471" y="192.749513" style="fill: #262626; stroke: #262626; stroke-width: 0.5"/>
      </g>
     </g>
    </g>
    <g id="ytick_15">
     <g id="line2d_40">
      <g>
       <use xlink:href="#m07bd64420d" x="500.739471" y="183.239601" style="fill: #262626; stroke: #262626; stroke-width: 0.5"/>
      </g>
     </g>
    </g>
    <g id="ytick_16">
     <g id="line2d_41">
      <g>
       <use xlink:href="#m07bd64420d" x="500.739471" y="173.72969" style="fill: #262626; stroke: #262626; stroke-width: 0.5"/>
      </g>
     </g>
    </g>
    <g id="ytick_17">
     <g id="line2d_42">
      <g>
       <use xlink:href="#m07bd64420d" x="500.739471" y="164.219778" style="fill: #262626; stroke: #262626; stroke-width: 0.5"/>
      </g>
     </g>
    </g>
    <g id="ytick_18">
     <g id="line2d_43">
      <g>
       <use xlink:href="#m07bd64420d" x="500.739471" y="145.199954" style="fill: #262626; stroke: #262626; stroke-width: 0.5"/>
      </g>
     </g>
    </g>
    <g id="ytick_19">
     <g id="line2d_44">
      <g>
       <use xlink:href="#m07bd64420d" x="500.739471" y="135.690042" style="fill: #262626; stroke: #262626; stroke-width: 0.5"/>
      </g>
     </g>
    </g>
    <g id="ytick_20">
     <g id="line2d_45">
      <g>
       <use xlink:href="#m07bd64420d" x="500.739471" y="126.18013" style="fill: #262626; stroke: #262626; stroke-width: 0.5"/>
      </g>
     </g>
    </g>
    <g id="ytick_21">
     <g id="line2d_46">
      <g>
       <use xlink:href="#m07bd64420d" x="500.739471" y="116.670218" style="fill: #262626; stroke: #262626; stroke-width: 0.5"/>
      </g>
     </g>
    </g>
    <g id="ytick_22">
     <g id="line2d_47">
      <g>
       <use xlink:href="#m07bd64420d" x="500.739471" y="97.650394" style="fill: #262626; stroke: #262626; stroke-width: 0.5"/>
      </g>
     </g>
    </g>
    <g id="ytick_23">
     <g id="line2d_48">
      <g>
       <use xlink:href="#m07bd64420d" x="500.739471" y="88.140482" style="fill: #262626; stroke: #262626; stroke-width: 0.5"/>
      </g>
     </g>
    </g>
    <g id="ytick_24">
     <g id="line2d_49">
      <g>
       <use xlink:href="#m07bd64420d" x="500.739471" y="78.63057" style="fill: #262626; stroke: #262626; stroke-width: 0.5"/>
      </g>
     </g>
    </g>
    <g id="ytick_25">
     <g id="line2d_50">
      <g>
       <use xlink:href="#m07bd64420d" x="500.739471" y="69.120658" style="fill: #262626; stroke: #262626; stroke-width: 0.5"/>
      </g>
     </g>
    </g>
    <g id="ytick_26">
     <g id="line2d_51">
      <g>
       <use xlink:href="#m07bd64420d" x="500.739471" y="50.100834" style="fill: #262626; stroke: #262626; stroke-width: 0.5"/>
      </g>
     </g>
    </g>
    <g id="ytick_27">
     <g id="line2d_52">
      <g>
       <use xlink:href="#m07bd64420d" x="500.739471" y="40.590922" style="fill: #262626; stroke: #262626; stroke-width: 0.5"/>
      </g>
     </g>
    </g>
    <g id="ytick_28">
     <g id="line2d_53">
      <g>
       <use xlink:href="#m07bd64420d" x="500.739471" y="31.081011" style="fill: #262626; stroke: #262626; stroke-width: 0.5"/>
      </g>
     </g>
    </g>
    <g id="ytick_29">
     <g id="line2d_54">
      <g>
       <use xlink:href="#m07bd64420d" x="500.739471" y="21.571099" style="fill: #262626; stroke: #262626; stroke-width: 0.5"/>
      </g>
     </g>
    </g>
    <g id="text_11">
     <!-- Età (anni) -->
     <g style="fill: #262626" transform="translate(41.577102 184.067678) rotate(-90) scale(0.12 -0.12)">
      <defs>
       <path id="DejaVuSans-45" d="M 628 4666 
L 3578 4666 
L 3578 4134 
L 1259 4134 
L 1259 2753 
L 3481 2753 
L 3481 2222 
L 1259 2222 
L 1259 531 
L 3634 531 
L 3634 0 
L 628 0 
L 628 4666 
z
" transform="scale(0.015625)"/>
       <path id="DejaVuSans-e0" d="M 2194 1759 
Q 1497 1759 1228 1600 
Q 959 1441 959 1056 
Q 959 750 1161 570 
Q 1363 391 1709 391 
Q 2188 391 2477 730 
Q 2766 1069 2766 1631 
L 2766 1759 
L 2194 1759 
z
M 3341 1997 
L 3341 0 
L 2766 0 
L 2766 531 
Q 2569 213 2275 61 
Q 1981 -91 1556 -91 
Q 1019 -91 701 211 
Q 384 513 384 1019 
Q 384 1609 779 1909 
Q 1175 2209 1959 2209 
L 2766 2209 
L 2766 2266 
Q 2766 2663 2505 2880 
Q 2244 3097 1772 3097 
Q 1472 3097 1187 3025 
Q 903 2953 641 2809 
L 641 3341 
Q 956 3463 1253 3523 
Q 1550 3584 1831 3584 
Q 2591 3584 2966 3190 
Q 3341 2797 3341 1997 
z
M 1403 5119 
L 2284 3950 
L 1806 3950 
L 787 5119 
L 1403 5119 
z
" transform="scale(0.015625)"/>
       <path id="DejaVuSans-28" d="M 1984 4856 
Q 1566 4138 1362 3434 
Q 1159 2731 1159 2009 
Q 1159 1288 1364 580 
Q 1569 -128 1984 -844 
L 1484 -844 
Q 1016 -109 783 600 
Q 550 1309 550 2009 
Q 550 2706 781 3412 
Q 1013 4119 1484 4856 
L 1984 4856 
z
" transform="scale(0.015625)"/>
       <path id="DejaVuSans-29" d="M 513 4856 
L 1013 4856 
Q 1481 4119 1714 3412 
Q 1947 2706 1947 2009 
Q 1947 1309 1714 600 
Q 1481 -109 1013 -844 
L 513 -844 
Q 928 -128 1133 580 
Q 1338 1288 1338 2009 
Q 1338 2731 1133 3434 
Q 928 4138 513 4856 
z
" transform="scale(0.015625)"/>
      </defs>
      <use xlink:href="#DejaVuSans-45"/>
      <use xlink:href="#DejaVuSans-74" transform="translate(63.183594 0)"/>
      <use xlink:href="#DejaVuSans-e0" transform="translate(102.392578 0)"/>
      <use xlink:href="#DejaVuSans-20" transform="translate(163.671875 0)"/>
      <use xlink:href="#DejaVuSans-28" transform="translate(195.458984 0)"/>
      <use xlink:href="#DejaVuSans-61" transform="translate(234.472656 0)"/>
      <use xlink:href="#DejaVuSans-6e" transform="translate(295.751953 0)"/>
      <use xlink:href="#DejaVuSans-6e" transform="translate(359.130859 0)"/>
      <use xlink:href="#DejaVuSans-69" transform="translate(422.509766 0)"/>
      <use xlink:href="#DejaVuSans-29" transform="translate(450.292969 0)"/>
     </g>
    </g>
   </g>
   <g id="FillBetweenPolyCollection_1">
    <defs>
     <path id="m5ab3653884" d="M 156.579378 -71.323417 
L 83.497762 -71.323417 
L 82.235257 -71.611596 
L 81.113408 -71.899775 
L 80.129478 -72.187954 
L 79.278296 -72.476133 
L 78.55325 -72.764312 
L 77.947305 -73.052492 
L 77.453947 -73.340671 
L 77.067947 -73.62885 
L 76.785881 -73.917029 
L 76.606351 -74.205208 
L 76.529895 -74.493387 
L 76.558593 -74.781566 
L 76.695424 -75.069746 
L 76.94344 -75.357925 
L 77.304855 -75.646104 
L 77.780137 -75.934283 
L 78.367203 -76.222462 
L 79.060799 -76.510641 
L 79.852121 -76.79882 
L 80.728716 -77.087 
L 81.674658 -77.375179 
L 82.670989 -77.663358 
L 83.696368 -77.951537 
L 84.727875 -78.239716 
L 85.741896 -78.527895 
L 86.715027 -78.816074 
L 87.624927 -79.104254 
L 88.451086 -79.392433 
L 89.175468 -79.680612 
L 89.783026 -79.968791 
L 90.262083 -80.25697 
L 90.604606 -80.545149 
L 90.806376 -80.833329 
L 90.867086 -81.121508 
L 90.790387 -81.409687 
L 90.583864 -81.697866 
L 90.25896 -81.986045 
L 89.830827 -82.274224 
L 89.318078 -82.562403 
L 88.742415 -82.850583 
L 88.128128 -83.138762 
L 87.501432 -83.426941 
L 86.889666 -83.71512 
L 86.320356 -84.003299 
L 85.820192 -84.291478 
L 85.413967 -84.579657 
L 85.123546 -84.867837 
L 84.966933 -85.156016 
L 84.957512 -85.444195 
L 85.103517 -85.732374 
L 85.40778 -86.020553 
L 85.867776 -86.308732 
L 86.47597 -86.596912 
L 87.220433 -86.885091 
L 88.085679 -87.17327 
L 89.053655 -87.461449 
L 90.104811 -87.749628 
L 91.219159 -88.037807 
L 92.37725 -88.325986 
L 93.561001 -88.614166 
L 94.754327 -88.902345 
L 95.943553 -89.190524 
L 97.117595 -89.478703 
L 98.267937 -89.766882 
L 99.388429 -90.055061 
L 100.474961 -90.34324 
L 101.525054 -90.63142 
L 102.537433 -90.919599 
L 103.511615 -91.207778 
L 104.447561 -91.495957 
L 105.34541 -91.784136 
L 106.2053 -92.072315 
L 107.027289 -92.360495 
L 107.811351 -92.648674 
L 108.557426 -92.936853 
L 109.265514 -93.225032 
L 109.935771 -93.513211 
L 110.568601 -93.80139 
L 111.164718 -94.089569 
L 111.725172 -94.377749 
L 112.251342 -94.665928 
L 112.744885 -94.954107 
L 113.207667 -95.242286 
L 113.641673 -95.530465 
L 114.048917 -95.818644 
L 114.431359 -96.106823 
L 114.790841 -96.395003 
L 115.12904 -96.683182 
L 115.447454 -96.971361 
L 115.747403 -97.25954 
L 116.030055 -97.547719 
L 116.296461 -97.835898 
L 116.547591 -98.124078 
L 116.784375 -98.412257 
L 117.00773 -98.700436 
L 117.218576 -98.988615 
L 117.417842 -99.276794 
L 117.606453 -99.564973 
L 117.785312 -99.853152 
L 122.291828 -99.853152 
L 122.291828 -99.853152 
L 122.470686 -99.564973 
L 122.659297 -99.276794 
L 122.858564 -98.988615 
L 123.06941 -98.700436 
L 123.292764 -98.412257 
L 123.529548 -98.124078 
L 123.780678 -97.835898 
L 124.047084 -97.547719 
L 124.329736 -97.25954 
L 124.629686 -96.971361 
L 124.948099 -96.683182 
L 125.286298 -96.395003 
L 125.64578 -96.106823 
L 126.028223 -95.818644 
L 126.435467 -95.530465 
L 126.869473 -95.242286 
L 127.332254 -94.954107 
L 127.825797 -94.665928 
L 128.351967 -94.377749 
L 128.912421 -94.089569 
L 129.508538 -93.80139 
L 130.141368 -93.513211 
L 130.811625 -93.225032 
L 131.519713 -92.936853 
L 132.265788 -92.648674 
L 133.04985 -92.360495 
L 133.87184 -92.072315 
L 134.73173 -91.784136 
L 135.629578 -91.495957 
L 136.565524 -91.207778 
L 137.539706 -90.919599 
L 138.552085 -90.63142 
L 139.602178 -90.34324 
L 140.68871 -90.055061 
L 141.809203 -89.766882 
L 142.959544 -89.478703 
L 144.133586 -89.190524 
L 145.322812 -88.902345 
L 146.516138 -88.614166 
L 147.699889 -88.325986 
L 148.85798 -88.037807 
L 149.972328 -87.749628 
L 151.023484 -87.461449 
L 151.99146 -87.17327 
L 152.856706 -86.885091 
L 153.601169 -86.596912 
L 154.209364 -86.308732 
L 154.66936 -86.020553 
L 154.973622 -85.732374 
L 155.119627 -85.444195 
L 155.110207 -85.156016 
L 154.953594 -84.867837 
L 154.663172 -84.579657 
L 154.256947 -84.291478 
L 153.756783 -84.003299 
L 153.187473 -83.71512 
L 152.575707 -83.426941 
L 151.949012 -83.138762 
L 151.334724 -82.850583 
L 150.759061 -82.562403 
L 150.246312 -82.274224 
L 149.818179 -81.986045 
L 149.493275 -81.697866 
L 149.286752 -81.409687 
L 149.210053 -81.121508 
L 149.270764 -80.833329 
L 149.472533 -80.545149 
L 149.815056 -80.25697 
L 150.294114 -79.968791 
L 150.901671 -79.680612 
L 151.626053 -79.392433 
L 152.452212 -79.104254 
L 153.362112 -78.816074 
L 154.335243 -78.527895 
L 155.349264 -78.239716 
L 156.380771 -77.951537 
L 157.40615 -77.663358 
L 158.402481 -77.375179 
L 159.348423 -77.087 
L 160.225018 -76.79882 
L 161.01634 -76.510641 
L 161.709936 -76.222462 
L 162.297002 -75.934283 
L 162.772284 -75.646104 
L 163.133699 -75.357925 
L 163.381716 -75.069746 
L 163.518546 -74.781566 
L 163.547244 -74.493387 
L 163.470788 -74.205208 
L 163.291258 -73.917029 
L 163.009192 -73.62885 
L 162.623192 -73.340671 
L 162.129834 -73.052492 
L 161.52389 -72.764312 
L 160.798843 -72.476133 
L 159.947661 -72.187954 
L 158.963732 -71.899775 
L 157.841882 -71.611596 
L 156.579378 -71.323417 
z
" style="stroke: #343434; stroke-width: 1.25"/>
    </defs>
    <g clip-path="url(#p706f0a1fa9)">
     <use xlink:href="#m5ab3653884" x="0" y="349.662137" style="fill: #df2020; stroke: #343434; stroke-width: 1.25"/>
    </g>
   </g>
   <g id="FillBetweenPolyCollection_2">
    <defs>
     <path id="m5597ee7b34" d="M 235.532374 -104.608108 
L 222.088137 -104.608108 
L 222.037839 -104.752198 
L 222.02324 -104.896288 
L 222.034722 -105.040377 
L 222.059711 -105.184467 
L 222.082812 -105.328556 
L 222.086039 -105.472646 
L 222.049178 -105.616735 
L 221.950246 -105.760825 
L 221.76608 -105.904915 
L 221.47302 -106.049004 
L 221.047703 -106.193094 
L 220.467945 -106.337183 
L 219.713695 -106.481273 
L 218.76805 -106.625362 
L 217.61828 -106.769452 
L 216.256848 -106.913542 
L 214.68235 -107.057631 
L 212.900346 -107.201721 
L 210.923993 -107.34581 
L 208.774447 -107.4899 
L 206.480945 -107.633989 
L 204.080541 -107.778079 
L 201.617456 -107.922169 
L 199.142013 -108.066258 
L 196.709194 -108.210348 
L 194.376828 -108.354437 
L 192.203506 -108.498527 
L 190.246289 -108.642616 
L 188.558337 -108.786706 
L 187.186585 -108.930796 
L 186.169592 -109.074885 
L 185.535695 -109.218975 
L 185.301581 -109.363064 
L 185.471369 -109.507154 
L 186.036249 -109.651243 
L 186.974722 -109.795333 
L 188.253404 -109.939423 
L 189.828361 -110.083512 
L 191.646888 -110.227602 
L 193.649633 -110.371691 
L 195.772939 -110.515781 
L 197.951288 -110.659871 
L 200.119726 -110.80396 
L 202.21615 -110.94805 
L 204.183381 -111.092139 
L 205.970941 -111.236229 
L 207.536494 -111.380318 
L 208.846923 -111.524408 
L 209.879037 -111.668498 
L 210.619924 -111.812587 
L 211.066957 -111.956677 
L 211.227494 -112.100766 
L 211.118287 -112.244856 
L 210.764648 -112.388945 
L 210.199376 -112.533035 
L 209.4615 -112.677125 
L 208.594853 -112.821214 
L 207.64651 -112.965304 
L 206.665144 -113.109393 
L 205.699324 -113.253483 
L 204.795826 -113.397572 
L 203.998 -113.541662 
L 203.344273 -113.685752 
L 202.866829 -113.829841 
L 202.590544 -113.973931 
L 202.532217 -114.11802 
L 202.700137 -114.26211 
L 203.094006 -114.406199 
L 203.705224 -114.550289 
L 204.517515 -114.694379 
L 205.50785 -114.838468 
L 206.647636 -114.982558 
L 207.904068 -115.126647 
L 209.24161 -115.270737 
L 210.623493 -115.414826 
L 212.013185 -115.558916 
L 213.375741 -115.703006 
L 214.679007 -115.847095 
L 215.894618 -115.991185 
L 216.998767 -116.135274 
L 217.972753 -116.279364 
L 218.803287 -116.423454 
L 219.48259 -116.567543 
L 220.008285 -116.711633 
L 220.383129 -116.855722 
L 220.614594 -116.999812 
L 220.71434 -117.143901 
L 220.697586 -117.287991 
L 220.582426 -117.432081 
L 220.389087 -117.57617 
L 220.139172 -117.72026 
L 219.854884 -117.864349 
L 219.558272 -118.008439 
L 219.270496 -118.152528 
L 219.011158 -118.296618 
L 218.797691 -118.440708 
L 218.644855 -118.584797 
L 218.564332 -118.728887 
L 218.56446 -118.872976 
L 239.056051 -118.872976 
L 239.056051 -118.872976 
L 239.05618 -118.728887 
L 238.975657 -118.584797 
L 238.82282 -118.440708 
L 238.609353 -118.296618 
L 238.350015 -118.152528 
L 238.06224 -118.008439 
L 237.765627 -117.864349 
L 237.48134 -117.72026 
L 237.231424 -117.57617 
L 237.038086 -117.432081 
L 236.922925 -117.287991 
L 236.906171 -117.143901 
L 237.005917 -116.999812 
L 237.237383 -116.855722 
L 237.612226 -116.711633 
L 238.137921 -116.567543 
L 238.817224 -116.423454 
L 239.647759 -116.279364 
L 240.621745 -116.135274 
L 241.725894 -115.991185 
L 242.941504 -115.847095 
L 244.24477 -115.703006 
L 245.607327 -115.558916 
L 246.997018 -115.414826 
L 248.378902 -115.270737 
L 249.716443 -115.126647 
L 250.972876 -114.982558 
L 252.112661 -114.838468 
L 253.102997 -114.694379 
L 253.915287 -114.550289 
L 254.526505 -114.406199 
L 254.920375 -114.26211 
L 255.088294 -114.11802 
L 255.029967 -113.973931 
L 254.753682 -113.829841 
L 254.276238 -113.685752 
L 253.622511 -113.541662 
L 252.824685 -113.397572 
L 251.921187 -113.253483 
L 250.955367 -113.109393 
L 249.974001 -112.965304 
L 249.025658 -112.821214 
L 248.159011 -112.677125 
L 247.421135 -112.533035 
L 246.855863 -112.388945 
L 246.502224 -112.244856 
L 246.393018 -112.100766 
L 246.553554 -111.956677 
L 247.000587 -111.812587 
L 247.741474 -111.668498 
L 248.773588 -111.524408 
L 250.084017 -111.380318 
L 251.64957 -111.236229 
L 253.43713 -111.092139 
L 255.404361 -110.94805 
L 257.500785 -110.80396 
L 259.669223 -110.659871 
L 261.847572 -110.515781 
L 263.970878 -110.371691 
L 265.973623 -110.227602 
L 267.79215 -110.083512 
L 269.367107 -109.939423 
L 270.645789 -109.795333 
L 271.584262 -109.651243 
L 272.149143 -109.507154 
L 272.31893 -109.363064 
L 272.084816 -109.218975 
L 271.450919 -109.074885 
L 270.433926 -108.930796 
L 269.062174 -108.786706 
L 267.374223 -108.642616 
L 265.417005 -108.498527 
L 263.243683 -108.354437 
L 260.911318 -108.210348 
L 258.478498 -108.066258 
L 256.003056 -107.922169 
L 253.53997 -107.778079 
L 251.139567 -107.633989 
L 248.846064 -107.4899 
L 246.696518 -107.34581 
L 244.720166 -107.201721 
L 242.938161 -107.057631 
L 241.363664 -106.913542 
L 240.002231 -106.769452 
L 238.852462 -106.625362 
L 237.906816 -106.481273 
L 237.152567 -106.337183 
L 236.572808 -106.193094 
L 236.147492 -106.049004 
L 235.854432 -105.904915 
L 235.670265 -105.760825 
L 235.571334 -105.616735 
L 235.534472 -105.472646 
L 235.5377 -105.328556 
L 235.5608 -105.184467 
L 235.58579 -105.040377 
L 235.597271 -104.896288 
L 235.582672 -104.752198 
L 235.532374 -104.608108 
z
" style="stroke: #343434; stroke-width: 1.25"/>
    </defs>
    <g clip-path="url(#p706f0a1fa9)">
     <use xlink:href="#m5597ee7b34" x="0" y="349.662137" style="fill: #2f7e2f; stroke: #343434; stroke-width: 1.25"/>
    </g>
   </g>
   <g id="FillBetweenPolyCollection_3">
    <defs>
     <path id="m225b23999e" d="M 350.626439 -109.363064 
L 324.537445 -109.363064 
L 323.07494 -110.99608 
L 321.534374 -112.629095 
L 319.923469 -114.26211 
L 318.251665 -115.895125 
L 316.530077 -117.52814 
L 314.771409 -119.161155 
L 312.989817 -120.794171 
L 311.200718 -122.427186 
L 309.42055 -124.060201 
L 307.666485 -125.693216 
L 305.956098 -127.326231 
L 304.307002 -128.959247 
L 302.736456 -130.592262 
L 301.26096 -132.225277 
L 299.895846 -133.858292 
L 298.654877 -135.491307 
L 297.549869 -137.124322 
L 296.590348 -138.757338 
L 295.783256 -140.390353 
L 295.132717 -142.023368 
L 294.639878 -143.656383 
L 294.302823 -145.289398 
L 294.116588 -146.922414 
L 294.073267 -148.555429 
L 294.162215 -150.188444 
L 294.370353 -151.821459 
L 294.682565 -153.454474 
L 295.082179 -155.087489 
L 295.551515 -156.720505 
L 296.072486 -158.35352 
L 296.627221 -159.986535 
L 297.198691 -161.61955 
L 297.771299 -163.252565 
L 298.331414 -164.885581 
L 298.867809 -166.518596 
L 299.37199 -168.151611 
L 299.838388 -169.784626 
L 300.264401 -171.417641 
L 300.650289 -173.050656 
L 300.998922 -174.683672 
L 301.315394 -176.316687 
L 301.606536 -177.949702 
L 301.88034 -179.582717 
L 302.145357 -181.215732 
L 302.410077 -182.848747 
L 302.682356 -184.481763 
L 302.96891 -186.114778 
L 303.27491 -187.747793 
L 303.603711 -189.380808 
L 303.956708 -191.013823 
L 304.333346 -192.646839 
L 304.731268 -194.279854 
L 305.14658 -195.912869 
L 305.574219 -197.545884 
L 306.008398 -199.178899 
L 306.443079 -200.811914 
L 306.872464 -202.44493 
L 307.291447 -204.077945 
L 307.696013 -205.71096 
L 308.083562 -207.343975 
L 308.453122 -208.97699 
L 308.80546 -210.610006 
L 309.143075 -212.243021 
L 309.470086 -213.876036 
L 309.792011 -215.509051 
L 310.115469 -217.142066 
L 310.447813 -218.775081 
L 310.796722 -220.408097 
L 311.169777 -222.041112 
L 311.574039 -223.674127 
L 312.015663 -225.307142 
L 312.499557 -226.940157 
L 313.029116 -228.573173 
L 313.606032 -230.206188 
L 314.230201 -231.839203 
L 314.899719 -233.472218 
L 315.610973 -235.105233 
L 316.358819 -236.738248 
L 317.136835 -238.371264 
L 317.937628 -240.004279 
L 318.753191 -241.637294 
L 319.575273 -243.270309 
L 320.395756 -244.903324 
L 321.207004 -246.53634 
L 322.002185 -248.169355 
L 322.775521 -249.80237 
L 323.522488 -251.435385 
L 324.239925 -253.0684 
L 324.926072 -254.701415 
L 325.580522 -256.334431 
L 326.204107 -257.967446 
L 326.798712 -259.600461 
L 327.367048 -261.233476 
L 327.912386 -262.866491 
L 328.438277 -264.499507 
L 328.948274 -266.132522 
L 329.445679 -267.765537 
L 329.933318 -269.398552 
L 330.413367 -271.031567 
L 344.750516 -271.031567 
L 344.750516 -271.031567 
L 345.230566 -269.398552 
L 345.718204 -267.765537 
L 346.215609 -266.132522 
L 346.725607 -264.499507 
L 347.251497 -262.866491 
L 347.796835 -261.233476 
L 348.365172 -259.600461 
L 348.959777 -257.967446 
L 349.583361 -256.334431 
L 350.237811 -254.701415 
L 350.923958 -253.0684 
L 351.641395 -251.435385 
L 352.388362 -249.80237 
L 353.161699 -248.169355 
L 353.956879 -246.53634 
L 354.768128 -244.903324 
L 355.58861 -243.270309 
L 356.410692 -241.637294 
L 357.226255 -240.004279 
L 358.027048 -238.371264 
L 358.805064 -236.738248 
L 359.55291 -235.105233 
L 360.264164 -233.472218 
L 360.933682 -231.839203 
L 361.557851 -230.206188 
L 362.134767 -228.573173 
L 362.664326 -226.940157 
L 363.14822 -225.307142 
L 363.589844 -223.674127 
L 363.994106 -222.041112 
L 364.367161 -220.408097 
L 364.71607 -218.775081 
L 365.048414 -217.142066 
L 365.371872 -215.509051 
L 365.693797 -213.876036 
L 366.020808 -212.243021 
L 366.358424 -210.610006 
L 366.710761 -208.97699 
L 367.080321 -207.343975 
L 367.46787 -205.71096 
L 367.872437 -204.077945 
L 368.291419 -202.44493 
L 368.720804 -200.811914 
L 369.155485 -199.178899 
L 369.589664 -197.545884 
L 370.017303 -195.912869 
L 370.432615 -194.279854 
L 370.830537 -192.646839 
L 371.207176 -191.013823 
L 371.560172 -189.380808 
L 371.888973 -187.747793 
L 372.194974 -186.114778 
L 372.481527 -184.481763 
L 372.753806 -182.848747 
L 373.018526 -181.215732 
L 373.283543 -179.582717 
L 373.557348 -177.949702 
L 373.848489 -176.316687 
L 374.164962 -174.683672 
L 374.513594 -173.050656 
L 374.899482 -171.417641 
L 375.325495 -169.784626 
L 375.791893 -168.151611 
L 376.296074 -166.518596 
L 376.832469 -164.885581 
L 377.392584 -163.252565 
L 377.965193 -161.61955 
L 378.536662 -159.986535 
L 379.091397 -158.35352 
L 379.612368 -156.720505 
L 380.081704 -155.087489 
L 380.481318 -153.454474 
L 380.79353 -151.821459 
L 381.001668 -150.188444 
L 381.090616 -148.555429 
L 381.047295 -146.922414 
L 380.86106 -145.289398 
L 380.524005 -143.656383 
L 380.031166 -142.023368 
L 379.380628 -140.390353 
L 378.573536 -138.757338 
L 377.614014 -137.124322 
L 376.509006 -135.491307 
L 375.268037 -133.858292 
L 373.902923 -132.225277 
L 372.427428 -130.592262 
L 370.856881 -128.959247 
L 369.207785 -127.326231 
L 367.497398 -125.693216 
L 365.743333 -124.060201 
L 363.963166 -122.427186 
L 362.174066 -120.794171 
L 360.392474 -119.161155 
L 358.633806 -117.52814 
L 356.912218 -115.895125 
L 355.240414 -114.26211 
L 353.629509 -112.629095 
L 352.088943 -110.99608 
L 350.626439 -109.363064 
z
" style="stroke: #343434; stroke-width: 1.25"/>
    </defs>
    <g clip-path="url(#p706f0a1fa9)">
     <use xlink:href="#m225b23999e" x="0" y="349.662137" style="fill: #dfc120; stroke: #343434; stroke-width: 1.25"/>
    </g>
   </g>
   <g id="FillBetweenPolyCollection_4">
    <defs>
     <path id="m2d410facd1" d="M 447.959139 -99.853152 
L 444.748116 -99.853152 
L 444.450718 -102.062526 
L 444.106396 -104.271899 
L 443.708004 -106.481273 
L 443.247632 -108.690646 
L 442.716839 -110.90002 
L 442.107033 -113.109393 
L 441.410059 -115.318767 
L 440.61897 -117.52814 
L 439.728983 -119.737514 
L 438.738534 -121.946887 
L 437.650342 -124.156261 
L 436.472316 -126.365634 
L 435.218161 -128.575008 
L 433.907497 -130.784381 
L 432.565393 -132.993755 
L 431.221236 -135.203128 
L 429.906982 -137.412502 
L 428.654905 -139.621875 
L 427.495076 -141.831249 
L 426.452831 -144.040622 
L 425.546546 -146.249995 
L 424.785987 -148.459369 
L 424.17143 -150.668742 
L 423.693658 -152.878116 
L 423.334796 -155.087489 
L 423.069851 -157.296863 
L 422.868738 -159.506236 
L 422.6985 -161.71561 
L 422.525494 -163.924983 
L 422.317322 -166.134357 
L 422.044381 -168.34373 
L 421.681025 -170.553104 
L 421.20638 -172.762477 
L 420.604913 -174.971851 
L 419.866878 -177.181224 
L 418.988719 -179.390598 
L 417.973451 -181.599971 
L 416.83098 -183.809345 
L 415.57826 -186.018718 
L 414.239117 -188.228092 
L 412.843628 -190.437465 
L 411.42691 -192.646839 
L 410.027306 -194.856212 
L 408.684021 -197.065586 
L 407.434387 -199.274959 
L 406.311005 -201.484332 
L 405.339115 -203.693706 
L 404.534518 -205.903079 
L 403.902374 -208.112453 
L 403.43709 -210.321826 
L 403.123386 -212.5312 
L 402.938469 -214.740573 
L 402.855064 -216.949947 
L 402.844953 -219.15932 
L 402.882539 -221.368694 
L 402.947959 -223.578067 
L 403.029323 -225.787441 
L 403.123759 -227.996814 
L 403.237137 -230.206188 
L 403.382536 -232.415561 
L 403.577711 -234.624935 
L 403.841964 -236.834308 
L 404.192922 -239.043682 
L 404.643698 -241.253055 
L 405.200856 -243.462429 
L 405.863451 -245.671802 
L 406.6232 -247.881176 
L 407.465701 -250.090549 
L 408.372415 -252.299923 
L 409.323045 -254.509296 
L 410.297916 -256.718669 
L 411.280007 -258.928043 
L 412.256364 -261.137416 
L 413.218777 -263.34679 
L 414.163723 -265.556163 
L 415.091714 -267.765537 
L 416.006238 -269.97491 
L 416.912545 -272.184284 
L 417.816489 -274.393657 
L 418.723607 -276.603031 
L 419.638516 -278.812404 
L 420.564664 -281.021778 
L 421.504373 -283.231151 
L 422.459071 -285.440525 
L 423.429619 -287.649898 
L 424.416604 -289.859272 
L 425.420522 -292.068645 
L 426.441825 -294.278019 
L 427.480814 -296.487392 
L 428.537417 -298.696766 
L 429.610911 -300.906139 
L 430.699624 -303.115513 
L 431.80069 -305.324886 
L 432.909869 -307.53426 
L 434.021474 -309.743633 
L 435.128401 -311.953006 
L 436.222279 -314.16238 
L 437.293718 -316.371753 
L 438.332667 -318.581127 
L 454.374589 -318.581127 
L 454.374589 -318.581127 
L 455.413537 -316.371753 
L 456.484976 -314.16238 
L 457.578854 -311.953006 
L 458.685782 -309.743633 
L 459.797386 -307.53426 
L 460.906565 -305.324886 
L 462.007631 -303.115513 
L 463.096345 -300.906139 
L 464.169838 -298.696766 
L 465.226442 -296.487392 
L 466.26543 -294.278019 
L 467.286733 -292.068645 
L 468.290651 -289.859272 
L 469.277636 -287.649898 
L 470.248185 -285.440525 
L 471.202883 -283.231151 
L 472.142591 -281.021778 
L 473.06874 -278.812404 
L 473.983649 -276.603031 
L 474.890766 -274.393657 
L 475.794711 -272.184284 
L 476.701017 -269.97491 
L 477.615541 -267.765537 
L 478.543532 -265.556163 
L 479.488478 -263.34679 
L 480.450891 -261.137416 
L 481.427248 -258.928043 
L 482.40934 -256.718669 
L 483.384211 -254.509296 
L 484.33484 -252.299923 
L 485.241554 -250.090549 
L 486.084056 -247.881176 
L 486.843804 -245.671802 
L 487.506399 -243.462429 
L 488.063558 -241.253055 
L 488.514333 -239.043682 
L 488.865291 -236.834308 
L 489.129544 -234.624935 
L 489.324719 -232.415561 
L 489.470118 -230.206188 
L 489.583497 -227.996814 
L 489.677933 -225.787441 
L 489.759297 -223.578067 
L 489.824717 -221.368694 
L 489.862302 -219.15932 
L 489.852191 -216.949947 
L 489.768787 -214.740573 
L 489.583869 -212.5312 
L 489.270166 -210.321826 
L 488.804881 -208.112453 
L 488.172737 -205.903079 
L 487.36814 -203.693706 
L 486.39625 -201.484332 
L 485.272869 -199.274959 
L 484.023234 -197.065586 
L 482.679949 -194.856212 
L 481.280345 -192.646839 
L 479.863627 -190.437465 
L 478.468138 -188.228092 
L 477.128996 -186.018718 
L 475.876275 -183.809345 
L 474.733804 -181.599971 
L 473.718536 -179.390598 
L 472.840377 -177.181224 
L 472.102342 -174.971851 
L 471.500875 -172.762477 
L 471.02623 -170.553104 
L 470.662875 -168.34373 
L 470.389933 -166.134357 
L 470.181761 -163.924983 
L 470.008756 -161.71561 
L 469.838518 -159.506236 
L 469.637404 -157.296863 
L 469.37246 -155.087489 
L 469.013597 -152.878116 
L 468.535825 -150.668742 
L 467.921269 -148.459369 
L 467.16071 -146.249995 
L 466.254425 -144.040622 
L 465.212179 -141.831249 
L 464.05235 -139.621875 
L 462.800274 -137.412502 
L 461.486019 -135.203128 
L 460.141862 -132.993755 
L 458.799758 -130.784381 
L 457.489094 -128.575008 
L 456.234939 -126.365634 
L 455.056913 -124.156261 
L 453.968721 -121.946887 
L 452.978273 -119.737514 
L 452.088285 -117.52814 
L 451.297197 -115.318767 
L 450.600222 -113.109393 
L 449.990417 -110.90002 
L 449.459623 -108.690646 
L 448.999251 -106.481273 
L 448.600859 -104.271899 
L 448.256537 -102.062526 
L 447.959139 -99.853152 
z
" style="stroke: #343434; stroke-width: 1.25"/>
    </defs>
    <g clip-path="url(#p706f0a1fa9)">
     <use xlink:href="#m2d410facd1" x="0" y="349.662137" style="fill: #5573cd; stroke: #343434; stroke-width: 1.25"/>
    </g>
   </g>
   <g id="line2d_55">
    <path d="M 78.07367 273.583765 
L 162.003469 273.583765 
" clip-path="url(#p706f0a1fa9)" style="fill: none; stroke-dasharray: 1.5625,0.9375; stroke-dashoffset: 0; stroke: #343434; stroke-width: 1.25"/>
   </g>
   <g id="line2d_56">
    <path d="M 78.07367 273.583765 
L 162.003469 273.583765 
" clip-path="url(#p706f0a1fa9)" style="fill: none; stroke-dasharray: 3.125,1.25; stroke-dashoffset: 0; stroke: #343434; stroke-width: 1.25"/>
   </g>
   <g id="line2d_57">
    <path d="M 85.030514 264.073853 
L 155.046625 264.073853 
" clip-path="url(#p706f0a1fa9)" style="fill: none; stroke-dasharray: 1.5625,0.9375; stroke-dashoffset: 0; stroke: #343434; stroke-width: 1.25"/>
   </g>
   <g id="line2d_58">
    <path d="M 185.301581 240.299073 
L 272.31893 240.299073 
" clip-path="url(#p706f0a1fa9)" style="fill: none; stroke-dasharray: 1.5625,0.9375; stroke-dashoffset: 0; stroke: #343434; stroke-width: 1.25"/>
   </g>
   <g id="line2d_59">
    <path d="M 185.301581 240.299073 
L 272.31893 240.299073 
" clip-path="url(#p706f0a1fa9)" style="fill: none; stroke-dasharray: 3.125,1.25; stroke-dashoffset: 0; stroke: #343434; stroke-width: 1.25"/>
   </g>
   <g id="line2d_60">
    <path d="M 202.532217 235.544117 
L 255.088294 235.544117 
" clip-path="url(#p706f0a1fa9)" style="fill: none; stroke-dasharray: 1.5625,0.9375; stroke-dashoffset: 0; stroke: #343434; stroke-width: 1.25"/>
   </g>
   <g id="line2d_61">
    <path d="M 294.103847 202.259425 
L 381.060036 202.259425 
" clip-path="url(#p706f0a1fa9)" style="fill: none; stroke-dasharray: 1.5625,0.9375; stroke-dashoffset: 0; stroke: #343434; stroke-width: 1.25"/>
   </g>
   <g id="line2d_62">
    <path d="M 301.24093 173.72969 
L 373.922953 173.72969 
" clip-path="url(#p706f0a1fa9)" style="fill: none; stroke-dasharray: 3.125,1.25; stroke-dashoffset: 0; stroke: #343434; stroke-width: 1.25"/>
   </g>
   <g id="line2d_63">
    <path d="M 308.504936 140.444998 
L 366.658947 140.444998 
" clip-path="url(#p706f0a1fa9)" style="fill: none; stroke-dasharray: 1.5625,0.9375; stroke-dashoffset: 0; stroke: #343434; stroke-width: 1.25"/>
   </g>
   <g id="line2d_64">
    <path d="M 412.995312 159.464822 
L 479.711943 159.464822 
" clip-path="url(#p706f0a1fa9)" style="fill: none; stroke-dasharray: 1.5625,0.9375; stroke-dashoffset: 0; stroke: #343434; stroke-width: 1.25"/>
   </g>
   <g id="line2d_65">
    <path d="M 402.945114 126.18013 
L 489.762141 126.18013 
" clip-path="url(#p706f0a1fa9)" style="fill: none; stroke-dasharray: 3.125,1.25; stroke-dashoffset: 0; stroke: #343434; stroke-width: 1.25"/>
   </g>
   <g id="line2d_66">
    <path d="M 410.319265 92.895438 
L 482.38799 92.895438 
" clip-path="url(#p706f0a1fa9)" style="fill: none; stroke-dasharray: 1.5625,0.9375; stroke-dashoffset: 0; stroke: #343434; stroke-width: 1.25"/>
   </g>
   <g id="patch_3">
    <path d="M 65.652727 290.701606 
L 65.652727 18.718125 
" style="fill: none; stroke: #cccccc; stroke-width: 0.5; stroke-linejoin: miter; stroke-linecap: square"/>
   </g>
   <g id="patch_4">
    <path d="M 65.652727 290.701606 
L 500.739471 290.701606 
" style="fill: none; stroke: #cccccc; stroke-width: 0.5; stroke-linejoin: miter; stroke-linecap: square"/>
   </g>
   <g id="text_12">
    <!-- Distribuzione età – violino (outlier esclusi) -->
    <g style="fill: #262626" transform="translate(157.374224 12.718125) scale(0.12 -0.12)">
     <defs>
      <path id="DejaVuSans-44" d="M 1259 4147 
L 1259 519 
L 2022 519 
Q 2988 519 3436 956 
Q 3884 1394 3884 2338 
Q 3884 3275 3436 3711 
Q 2988 4147 2022 4147 
L 1259 4147 
z
M 628 4666 
L 1925 4666 
Q 3281 4666 3915 4102 
Q 4550 3538 4550 2338 
Q 4550 1131 3912 565 
Q 3275 0 1925 0 
L 628 0 
L 628 4666 
z
" transform="scale(0.015625)"/>
      <path id="DejaVuSans-62" d="M 3116 1747 
Q 3116 2381 2855 2742 
Q 2594 3103 2138 3103 
Q 1681 3103 1420 2742 
Q 1159 2381 1159 1747 
Q 1159 1113 1420 752 
Q 1681 391 2138 391 
Q 2594 391 2855 752 
Q 3116 1113 3116 1747 
z
M 1159 2969 
Q 1341 3281 1617 3432 
Q 1894 3584 2278 3584 
Q 2916 3584 3314 3078 
Q 3713 2572 3713 1747 
Q 3713 922 3314 415 
Q 2916 -91 2278 -91 
Q 1894 -91 1617 61 
Q 1341 213 1159 525 
L 1159 0 
L 581 0 
L 581 4863 
L 1159 4863 
L 1159 2969 
z
" transform="scale(0.015625)"/>
      <path id="DejaVuSans-2013" d="M 313 1978 
L 2888 1978 
L 2888 1528 
L 313 1528 
L 313 1978 
z
" transform="scale(0.015625)"/>
      <path id="DejaVuSans-6c" d="M 603 4863 
L 1178 4863 
L 1178 0 
L 603 0 
L 603 4863 
z
" transform="scale(0.015625)"/>
     </defs>
     <use xlink:href="#DejaVuSans-44"/>
     <use xlink:href="#DejaVuSans-69" transform="translate(77.001953 0)"/>
     <use xlink:href="#DejaVuSans-73" transform="translate(104.785156 0)"/>
     <use xlink:href="#DejaVuSans-74" transform="translate(156.884766 0)"/>
     <use xlink:href="#DejaVuSans-72" transform="translate(196.09375 0)"/>
     <use xlink:href="#DejaVuSans-69" transform="translate(237.207031 0)"/>
     <use xlink:href="#DejaVuSans-62" transform="translate(264.990234 0)"/>
     <use xlink:href="#DejaVuSans-75" transform="translate(328.466797 0)"/>
     <use xlink:href="#DejaVuSans-7a" transform="translate(391.845703 0)"/>
     <use xlink:href="#DejaVuSans-69" transform="translate(444.335938 0)"/>
     <use xlink:href="#DejaVuSans-6f" transform="translate(472.119141 0)"/>
     <use xlink:href="#DejaVuSans-6e" transform="translate(533.300781 0)"/>
     <use xlink:href="#DejaVuSans-65" transform="translate(596.679688 0)"/>
     <use xlink:href="#DejaVuSans-20" transform="translate(658.203125 0)"/>
     <use xlink:href="#DejaVuSans-65" transform="translate(689.990234 0)"/>
     <use xlink:href="#DejaVuSans-74" transform="translate(751.513672 0)"/>
     <use xlink:href="#DejaVuSans-e0" transform="translate(790.722656 0)"/>
     <use xlink:href="#DejaVuSans-20" transform="translate(852.001953 0)"/>
     <use xlink:href="#DejaVuSans-2013" transform="translate(883.789062 0)"/>
     <use xlink:href="#DejaVuSans-20" transform="translate(933.789062 0)"/>
     <use xlink:href="#DejaVuSans-76" transform="translate(965.576172 0)"/>
     <use xlink:href="#DejaVuSans-69" transform="translate(1024.755859 0)"/>
     <use xlink:href="#DejaVuSans-6f" transform="translate(1052.539062 0)"/>
     <use xlink:href="#DejaVuSans-6c" transform="translate(1113.720703 0)"/>
     <use xlink:href="#DejaVuSans-69" transform="translate(1141.503906 0)"/>
     <use xlink:href="#DejaVuSans-6e" transform="translate(1169.287109 0)"/>
     <use xlink:href="#DejaVuSans-6f" transform="translate(1232.666016 0)"/>
     <use xlink:href="#DejaVuSans-20" transform="translate(1293.847656 0)"/>
     <use xlink:href="#DejaVuSans-28" transform="translate(1325.634766 0)"/>
     <use xlink:href="#DejaVuSans-6f" transform="translate(1364.648438 0)"/>
     <use xlink:href="#DejaVuSans-75" transform="translate(1425.830078 0)"/>
     <use xlink:href="#DejaVuSans-74" transform="translate(1489.208984 0)"/>
     <use xlink:href="#DejaVuSans-6c" transform="translate(1528.417969 0)"/>
     <use xlink:href="#DejaVuSans-69" transform="translate(1556.201172 0)"/>
     <use xlink:href="#DejaVuSans-65" transform="translate(1583.984375 0)"/>
     <use xlink:href="#DejaVuSans-72" transform="translate(1645.507812 0)"/>
     <use xlink:href="#DejaVuSans-20" transform="translate(1686.621094 0)"/>
     <use xlink:href="#DejaVuSans-65" transform="translate(1718.408203 0)"/>
     <use xlink:href="#DejaVuSans-73" transform="translate(1779.931641 0)"/>
     <use xlink:href="#DejaVuSans-63" transform="translate(1832.03125 0)"/>
     <use xlink:href="#DejaVuSans-6c" transform="translate(1887.011719 0)"/>
     <use xlink:href="#DejaVuSans-75" transform="translate(1914.794922 0)"/>
     <use xlink:href="#DejaVuSans-73" transform="translate(1978.173828 0)"/>
     <use xlink:href="#DejaVuSans-69" transform="translate(2030.273438 0)"/>
     <use xlink:href="#DejaVuSans-29" transform="translate(2058.056641 0)"/>
    </g>
   </g>
  </g>
 </g>
 <defs>
  <clipPath id="p706f0a1fa9">
   <rect x="65.652727" y="18.718125" width="435.086744" height="271.983481"/>
  </clipPath>
 </defs>
</svg>
