<?xml version="1.0" encoding="utf-8" standalone="no"?>
<!DOCTYPE svg PUBLIC "-//W3C//DTD SVG 1.1//EN"
  "http://www.w3.org/Graphics/SVG/1.1/DTD/svg11.dtd">
<svg xmlns:xlink="http://www.w3.org/1999/xlink" width="496.779471pt" height="341.301981pt" viewBox="0 0 496.779471 341.301981" xmlns="http://www.w3.org/2000/svg" version="1.1">
 <metadata>
  <rdf:RDF xmlns:dc="http://purl.org/dc/elements/1.1/" xmlns:cc="http://creativecommons.org/ns#" xmlns:rdf="http://www.w3.org/1999/02/22-rdf-syntax-ns#">
   <cc:Work>
    <dc:type rdf:resource="http://purl.org/dc/dcmitype/StillImage"/>
    <dc:date>2025-11-07T10:26:40.746968</dc:date>
    <dc:format>image/svg+xml</dc:format>
    <dc:creator>
     <cc:Agent>
      <dc:title>Matplotlib v3.10.7, https://matplotlib.org/</dc:title>
     </cc:Agent>
    </dc:creator>
   </cc:Work>
  </rdf:RDF>
 </metadata>
 <defs>
  <style type="text/css">*{stroke-linejoin: round; stroke-linecap: butt}</style>
 </defs>
 <g id="figure_1">
  <g id="patch_1">
   <path d="M 0 341.301981 
L 496.779471 341.301981 
L 496.779471 0 
L 0 0 
z
" style="fill: #ffffff"/>
  </g>
  <g id="axes_1">
   <g id="patch_2">
    <path d="M 66.732727 282.34145 
L 493.179471 282.34145 
L 493.179471 19.477969 
L 66.732727 19.477969 
z
" style="fill: #ffffff"/>
   </g>
   <g id="matplotlib.axis_1">
    <g id="xtick_1">
     <g id="line2d_1">
      <defs>
       <path id="mf816f874f9" d="M 0 0 
L 0 3 
" style="stroke: #262626; stroke-width: 0.5"/>
      </defs>
      <g>
       <use xlink:href="#mf816f874f9" x="120.03857" y="19.477969" style="fill: #262626; stroke: #262626; stroke-width: 0.5"/>
      </g>
     </g>
     <g id="text_1">
      <!-- studenti - secondaria -->
      <g style="fill: #262626" transform="translate(5.0514 314.278045) rotate(-10) scale(0.11 -0.11)">
       <defs>
        <path id="DejaVuSans-73" d="M 2834 3397 
L 2834 2853 
Q 2591 2978 2328 3040 
Q 2066 3103 1784 3103 
Q 1356 3103 1142 2972 
Q 928 2841 928 2578 
Q 928 2378 1081 2264 
Q 1234 2150 1697 2047 
L 1894 2003 
Q 2506 1872 2764 1633 
Q 3022 1394 3022 966 
Q 3022 478 2636 193 
Q 2250 -91 1575 -91 
Q 1294 -91 989 -36 
Q 684 19 347 128 
L 347 722 
Q 666 556 975 473 
Q 1284 391 1588 391 
Q 1994 391 2212 530 
Q 2431 669 2431 922 
Q 2431 1156 2273 1281 
Q 2116 1406 1581 1522 
L 1381 1569 
Q 847 1681 609 1914 
Q 372 2147 372 2553 
Q 372 3047 722 3315 
Q 1072 3584 1716 3584 
Q 2034 3584 2315 3537 
Q 2597 3491 2834 3397 
z
" transform="scale(0.015625)"/>
        <path id="DejaVuSans-74" d="M 1172 4494 
L 1172 3500 
L 2356 3500 
L 2356 3053 
L 1172 3053 
L 1172 1153 
Q 1172 725 1289 603 
Q 1406 481 1766 481 
L 2356 481 
L 2356 0 
L 1766 0 
Q 1100 0 847 248 
Q 594 497 594 1153 
L 594 3053 
L 172 3053 
L 172 3500 
L 594 3500 
L 594 4494 
L 1172 4494 
z
" transform="scale(0.015625)"/>
        <path id="DejaVuSans-75" d="M 544 1381 
L 544 3500 
L 1119 3500 
L 1119 1403 
Q 1119 906 1312 657 
Q 1506 409 1894 409 
Q 2359 409 2629 706 
Q 2900 1003 2900 1516 
L 2900 3500 
L 3475 3500 
L 3475 0 
L 2900 0 
L 2900 538 
Q 2691 219 2414 64 
Q 2138 -91 1772 -91 
Q 1169 -91 856 284 
Q 544 659 544 1381 
z
M 1991 3584 
L 1991 3584 
z
" transform="scale(0.015625)"/>
        <path id="DejaVuSans-64" d="M 2906 2969 
L 2906 4863 
L 3481 4863 
L 3481 0 
L 2906 0 
L 2906 525 
Q 2725 213 2448 61 
Q 2172 -91 1784 -91 
Q 1150 -91 751 415 
Q 353 922 353 1747 
Q 353 2572 751 3078 
Q 1150 3584 1784 3584 
Q 2172 3584 2448 3432 
Q 2725 3281 2906 2969 
z
M 947 1747 
Q 947 1113 1208 752 
Q 1469 391 1925 391 
Q 2381 391 2643 752 
Q 2906 1113 2906 1747 
Q 2906 2381 2643 2742 
Q 2381 3103 1925 3103 
Q 1469 3103 1208 2742 
Q 947 2381 947 1747 
z
" transform="scale(0.015625)"/>
        <path id="DejaVuSans-65" d="M 3597 1894 
L 3597 1613 
L 953 1613 
Q 991 1019 1311 708 
Q 1631 397 2203 397 
Q 2534 397 2845 478 
Q 3156 559 3463 722 
L 3463 178 
Q 3153 47 2828 -22 
Q 2503 -91 2169 -91 
Q 1331 -91 842 396 
Q 353 884 353 1716 
Q 353 2575 817 3079 
Q 1281 3584 2069 3584 
Q 2775 3584 3186 3129 
Q 3597 2675 3597 1894 
z
M 3022 2063 
Q 3016 2534 2758 2815 
Q 2500 3097 2075 3097 
Q 1594 3097 1305 2825 
Q 1016 2553 972 2059 
L 3022 2063 
z
" transform="scale(0.015625)"/>
        <path id="DejaVuSans-6e" d="M 3513 2113 
L 3513 0 
L 2938 0 
L 2938 2094 
Q 2938 2591 2744 2837 
Q 2550 3084 2163 3084 
Q 1697 3084 1428 2787 
Q 1159 2491 1159 1978 
L 1159 0 
L 581 0 
L 581 3500 
L 1159 3500 
L 1159 2956 
Q 1366 3272 1645 3428 
Q 1925 3584 2291 3584 
Q 2894 3584 3203 3211 
Q 3513 2838 3513 2113 
z
" transform="scale(0.015625)"/>
        <path id="DejaVuSans-69" d="M 603 3500 
L 1178 3500 
L 1178 0 
L 603 0 
L 603 3500 
z
M 603 4863 
L 1178 4863 
L 1178 4134 
L 603 4134 
L 603 4863 
z
" transform="scale(0.015625)"/>
        <path id="DejaVuSans-20" transform="scale(0.015625)"/>
        <path id="DejaVuSans-2d" d="M 313 2009 
L 1997 2009 
L 1997 1497 
L 313 1497 
L 313 2009 
z
" transform="scale(0.015625)"/>
        <path id="DejaVuSans-63" d="M 3122 3366 
L 3122 2828 
Q 2878 2963 2633 3030 
Q 2388 3097 2138 3097 
Q 1578 3097 1268 2742 
Q 959 2388 959 1747 
Q 959 1106 1268 751 
Q 1578 397 2138 397 
Q 2388 397 2633 464 
Q 2878 531 3122 666 
L 3122 134 
Q 2881 22 2623 -34 
Q 2366 -91 2075 -91 
Q 1284 -91 818 406 
Q 353 903 353 1747 
Q 353 2603 823 3093 
Q 1294 3584 2113 3584 
Q 2378 3584 2631 3529 
Q 2884 3475 3122 3366 
z
" transform="scale(0.015625)"/>
        <path id="DejaVuSans-6f" d="M 1959 3097 
Q 1497 3097 1228 2736 
Q 959 2375 959 1747 
Q 959 1119 1226 758 
Q 1494 397 1959 397 
Q 2419 397 2687 759 
Q 2956 1122 2956 1747 
Q 2956 2369 2687 2733 
Q 2419 3097 1959 3097 
z
M 1959 3584 
Q 2709 3584 3137 3096 
Q 3566 2609 3566 1747 
Q 3566 888 3137 398 
Q 2709 -91 1959 -91 
Q 1206 -91 779 398 
Q 353 888 353 1747 
Q 353 2609 779 3096 
Q 1206 3584 1959 3584 
z
" transform="scale(0.015625)"/>
        <path id="DejaVuSans-61" d="M 2194 1759 
Q 1497 1759 1228 1600 
Q 959 1441 959 1056 
Q 959 750 1161 570 
Q 1363 391 1709 391 
Q 2188 391 2477 730 
Q 2766 1069 2766 1631 
L 2766 1759 
L 2194 1759 
z
M 3341 1997 
L 3341 0 
L 2766 0 
L 2766 531 
Q 2569 213 2275 61 
Q 1981 -91 1556 -91 
Q 1019 -91 701 211 
Q 384 513 384 1019 
Q 384 1609 779 1909 
Q 1175 2209 1959 2209 
L 2766 2209 
L 2766 2266 
Q 2766 2663 2505 2880 
Q 2244 3097 1772 3097 
Q 1472 3097 1187 3025 
Q 903 2953 641 2809 
L 641 3341 
Q 956 3463 1253 3523 
Q 1550 3584 1831 3584 
Q 2591 3584 2966 3190 
Q 3341 2797 3341 1997 
z
" transform="scale(0.015625)"/>
        <path id="DejaVuSans-72" d="M 2631 2963 
Q 2534 3019 2420 3045 
Q 2306 3072 2169 3072 
Q 1681 3072 1420 2755 
Q 1159 2438 1159 1844 
L 1159 0 
L 581 0 
L 581 3500 
L 1159 3500 
L 1159 2956 
Q 1341 3275 1631 3429 
Q 1922 3584 2338 3584 
Q 2397 3584 2469 3576 
Q 2541 3569 2628 3553 
L 2631 2963 
z
" transform="scale(0.015625)"/>
       </defs>
       <use xlink:href="#DejaVuSans-73"/>
       <use xlink:href="#DejaVuSans-74" transform="translate(52.099609 0)"/>
       <use xlink:href="#DejaVuSans-75" transform="translate(91.308594 0)"/>
       <use xlink:href="#DejaVuSans-64" transform="translate(154.6875 0)"/>
       <use xlink:href="#DejaVuSans-65" transform="translate(218.164062 0)"/>
       <use xlink:href="#DejaVuSans-6e" transform="translate(279.6875 0)"/>
       <use xlink:href="#DejaVuSans-74" transform="translate(343.066406 0)"/>
       <use xlink:href="#DejaVuSans-69" transform="translate(382.275391 0)"/>
       <use xlink:href="#DejaVuSans-20" transform="translate(410.058594 0)"/>
       <use xlink:href="#DejaVuSans-2d" transform="translate(441.845703 0)"/>
       <use xlink:href="#DejaVuSans-20" transform="translate(477.929688 0)"/>
       <use xlink:href="#DejaVuSans-73" transform="translate(509.716797 0)"/>
       <use xlink:href="#DejaVuSans-65" transform="translate(561.816406 0)"/>
       <use xlink:href="#DejaVuSans-63" transform="translate(623.339844 0)"/>
       <use xlink:href="#DejaVuSans-6f" transform="translate(678.320312 0)"/>
       <use xlink:href="#DejaVuSans-6e" transform="translate(739.501953 0)"/>
       <use xlink:href="#DejaVuSans-64" transform="translate(802.880859 0)"/>
       <use xlink:href="#DejaVuSans-61" transform="translate(866.357422 0)"/>
       <use xlink:href="#DejaVuSans-72" transform="translate(927.636719 0)"/>
       <use xlink:href="#DejaVuSans-69" transform="translate(968.75 0)"/>
       <use xlink:href="#DejaVuSans-61" transform="translate(996.533203 0)"/>
      </g>
     </g>
    </g>
    <g id="xtick_2">
     <g id="line2d_2">
      <g>
       <use xlink:href="#mf816f874f9" x="226.650256" y="19.477969" style="fill: #262626; stroke: #262626; stroke-width: 0.5"/>
      </g>
     </g>
     <g id="text_2">
      <!-- studenti - universitari -->
      <g style="fill: #262626" transform="translate(109.767331 314.612318) rotate(-10) scale(0.11 -0.11)">
       <defs>
        <path id="DejaVuSans-76" d="M 191 3500 
L 800 3500 
L 1894 563 
L 2988 3500 
L 3597 3500 
L 2284 0 
L 1503 0 
L 191 3500 
z
" transform="scale(0.015625)"/>
       </defs>
       <use xlink:href="#DejaVuSans-73"/>
       <use xlink:href="#DejaVuSans-74" transform="translate(52.099609 0)"/>
       <use xlink:href="#DejaVuSans-75" transform="translate(91.308594 0)"/>
       <use xlink:href="#DejaVuSans-64" transform="translate(154.6875 0)"/>
       <use xlink:href="#DejaVuSans-65" transform="translate(218.164062 0)"/>
       <use xlink:href="#DejaVuSans-6e" transform="translate(279.6875 0)"/>
       <use xlink:href="#DejaVuSans-74" transform="translate(343.066406 0)"/>
       <use xlink:href="#DejaVuSans-69" transform="translate(382.275391 0)"/>
       <use xlink:href="#DejaVuSans-20" transform="translate(410.058594 0)"/>
       <use xlink:href="#DejaVuSans-2d" transform="translate(441.845703 0)"/>
       <use xlink:href="#DejaVuSans-20" transform="translate(477.929688 0)"/>
       <use xlink:href="#DejaVuSans-75" transform="translate(509.716797 0)"/>
       <use xlink:href="#DejaVuSans-6e" transform="translate(573.095703 0)"/>
       <use xlink:href="#DejaVuSans-69" transform="translate(636.474609 0)"/>
       <use xlink:href="#DejaVuSans-76" transform="translate(664.257812 0)"/>
       <use xlink:href="#DejaVuSans-65" transform="translate(723.4375 0)"/>
       <use xlink:href="#DejaVuSans-72" transform="translate(784.960938 0)"/>
       <use xlink:href="#DejaVuSans-73" transform="translate(826.074219 0)"/>
       <use xlink:href="#DejaVuSans-69" transform="translate(878.173828 0)"/>
       <use xlink:href="#DejaVuSans-74" transform="translate(905.957031 0)"/>
       <use xlink:href="#DejaVuSans-61" transform="translate(945.166016 0)"/>
       <use xlink:href="#DejaVuSans-72" transform="translate(1006.445312 0)"/>
       <use xlink:href="#DejaVuSans-69" transform="translate(1047.558594 0)"/>
      </g>
     </g>
    </g>
    <g id="xtick_3">
     <g id="line2d_3">
      <g>
       <use xlink:href="#mf816f874f9" x="333.261942" y="19.477969" style="fill: #262626; stroke: #262626; stroke-width: 0.5"/>
      </g>
     </g>
     <g id="text_3">
      <!-- insegnanti - non in servizio -->
      <g style="fill: #262626" transform="translate(186.757847 319.83533) rotate(-10) scale(0.11 -0.11)">
       <defs>
        <path id="DejaVuSans-67" d="M 2906 1791 
Q 2906 2416 2648 2759 
Q 2391 3103 1925 3103 
Q 1463 3103 1205 2759 
Q 947 2416 947 1791 
Q 947 1169 1205 825 
Q 1463 481 1925 481 
Q 2391 481 2648 825 
Q 2906 1169 2906 1791 
z
M 3481 434 
Q 3481 -459 3084 -895 
Q 2688 -1331 1869 -1331 
Q 1566 -1331 1297 -1286 
Q 1028 -1241 775 -1147 
L 775 -588 
Q 1028 -725 1275 -790 
Q 1522 -856 1778 -856 
Q 2344 -856 2625 -561 
Q 2906 -266 2906 331 
L 2906 616 
Q 2728 306 2450 153 
Q 2172 0 1784 0 
Q 1141 0 747 490 
Q 353 981 353 1791 
Q 353 2603 747 3093 
Q 1141 3584 1784 3584 
Q 2172 3584 2450 3431 
Q 2728 3278 2906 2969 
L 2906 3500 
L 3481 3500 
L 3481 434 
z
" transform="scale(0.015625)"/>
        <path id="DejaVuSans-7a" d="M 353 3500 
L 3084 3500 
L 3084 2975 
L 922 459 
L 3084 459 
L 3084 0 
L 275 0 
L 275 525 
L 2438 3041 
L 353 3041 
L 353 3500 
z
" transform="scale(0.015625)"/>
       </defs>
       <use xlink:href="#DejaVuSans-69"/>
       <use xlink:href="#DejaVuSans-6e" transform="translate(27.783203 0)"/>
       <use xlink:href="#DejaVuSans-73" transform="translate(91.162109 0)"/>
       <use xlink:href="#DejaVuSans-65" transform="translate(143.261719 0)"/>
       <use xlink:href="#DejaVuSans-67" transform="translate(204.785156 0)"/>
       <use xlink:href="#DejaVuSans-6e" transform="translate(268.261719 0)"/>
       <use xlink:href="#DejaVuSans-61" transform="translate(331.640625 0)"/>
       <use xlink:href="#DejaVuSans-6e" transform="translate(392.919922 0)"/>
       <use xlink:href="#DejaVuSans-74" transform="translate(456.298828 0)"/>
       <use xlink:href="#DejaVuSans-69" transform="translate(495.507812 0)"/>
       <use xlink:href="#DejaVuSans-20" transform="translate(523.291016 0)"/>
       <use xlink:href="#DejaVuSans-2d" transform="translate(555.078125 0)"/>
       <use xlink:href="#DejaVuSans-20" transform="translate(591.162109 0)"/>
       <use xlink:href="#DejaVuSans-6e" transform="translate(622.949219 0)"/>
       <use xlink:href="#DejaVuSans-6f" transform="translate(686.328125 0)"/>
       <use xlink:href="#DejaVuSans-6e" transform="translate(747.509766 0)"/>
       <use xlink:href="#DejaVuSans-20" transform="translate(810.888672 0)"/>
       <use xlink:href="#DejaVuSans-69" transform="translate(842.675781 0)"/>
       <use xlink:href="#DejaVuSans-6e" transform="translate(870.458984 0)"/>
       <use xlink:href="#DejaVuSans-20" transform="translate(933.837891 0)"/>
       <use xlink:href="#DejaVuSans-73" transform="translate(965.625 0)"/>
       <use xlink:href="#DejaVuSans-65" transform="translate(1017.724609 0)"/>
       <use xlink:href="#DejaVuSans-72" transform="translate(1079.248047 0)"/>
       <use xlink:href="#DejaVuSans-76" transform="translate(1120.361328 0)"/>
       <use xlink:href="#DejaVuSans-69" transform="translate(1179.541016 0)"/>
       <use xlink:href="#DejaVuSans-7a" transform="translate(1207.324219 0)"/>
       <use xlink:href="#DejaVuSans-69" transform="translate(1259.814453 0)"/>
       <use xlink:href="#DejaVuSans-6f" transform="translate(1287.597656 0)"/>
      </g>
     </g>
    </g>
    <g id="xtick_4">
     <g id="line2d_4">
      <g>
       <use xlink:href="#mf816f874f9" x="439.873628" y="19.477969" style="fill: #262626; stroke: #262626; stroke-width: 0.5"/>
      </g>
     </g>
     <g id="text_4">
      <!-- insegnanti - in servizio -->
      <g style="fill: #262626" transform="translate(317.171413 315.638416) rotate(-10) scale(0.11 -0.11)">
       <use xlink:href="#DejaVuSans-69"/>
       <use xlink:href="#DejaVuSans-6e" transform="translate(27.783203 0)"/>
       <use xlink:href="#DejaVuSans-73" transform="translate(91.162109 0)"/>
       <use xlink:href="#DejaVuSans-65" transform="translate(143.261719 0)"/>
       <use xlink:href="#DejaVuSans-67" transform="translate(204.785156 0)"/>
       <use xlink:href="#DejaVuSans-6e" transform="translate(268.261719 0)"/>
       <use xlink:href="#DejaVuSans-61" transform="translate(331.640625 0)"/>
       <use xlink:href="#DejaVuSans-6e" transform="translate(392.919922 0)"/>
       <use xlink:href="#DejaVuSans-74" transform="translate(456.298828 0)"/>
       <use xlink:href="#DejaVuSans-69" transform="translate(495.507812 0)"/>
       <use xlink:href="#DejaVuSans-20" transform="translate(523.291016 0)"/>
       <use xlink:href="#DejaVuSans-2d" transform="translate(555.078125 0)"/>
       <use xlink:href="#DejaVuSans-20" transform="translate(591.162109 0)"/>
       <use xlink:href="#DejaVuSans-69" transform="translate(622.949219 0)"/>
       <use xlink:href="#DejaVuSans-6e" transform="translate(650.732422 0)"/>
       <use xlink:href="#DejaVuSans-20" transform="translate(714.111328 0)"/>
       <use xlink:href="#DejaVuSans-73" transform="translate(745.898438 0)"/>
       <use xlink:href="#DejaVuSans-65" transform="translate(797.998047 0)"/>
       <use xlink:href="#DejaVuSans-72" transform="translate(859.521484 0)"/>
       <use xlink:href="#DejaVuSans-76" transform="translate(900.634766 0)"/>
       <use xlink:href="#DejaVuSans-69" transform="translate(959.814453 0)"/>
       <use xlink:href="#DejaVuSans-7a" transform="translate(987.597656 0)"/>
       <use xlink:href="#DejaVuSans-69" transform="translate(1040.087891 0)"/>
       <use xlink:href="#DejaVuSans-6f" transform="translate(1067.871094 0)"/>
      </g>
     </g>
    </g>
    <g id="xtick_5">
     <g id="line2d_5">
      <defs>
       <path id="m1c18337143" d="M 0 0 
L 0 1.5 
" style="stroke: #262626; stroke-width: 0.5"/>
      </defs>
      <g>
       <use xlink:href="#m1c18337143" x="77.393895" y="19.477969" style="fill: #262626; stroke: #262626; stroke-width: 0.5"/>
      </g>
     </g>
    </g>
    <g id="xtick_6">
     <g id="line2d_6">
      <g>
       <use xlink:href="#m1c18337143" x="98.716232" y="19.477969" style="fill: #262626; stroke: #262626; stroke-width: 0.5"/>
      </g>
     </g>
    </g>
    <g id="xtick_7">
     <g id="line2d_7">
      <g>
       <use xlink:href="#m1c18337143" x="141.360907" y="19.477969" style="fill: #262626; stroke: #262626; stroke-width: 0.5"/>
      </g>
     </g>
    </g>
    <g id="xtick_8">
     <g id="line2d_8">
      <g>
       <use xlink:href="#m1c18337143" x="162.683244" y="19.477969" style="fill: #262626; stroke: #262626; stroke-width: 0.5"/>
      </g>
     </g>
    </g>
    <g id="xtick_9">
     <g id="line2d_9">
      <g>
       <use xlink:href="#m1c18337143" x="184.005581" y="19.477969" style="fill: #262626; stroke: #262626; stroke-width: 0.5"/>
      </g>
     </g>
    </g>
    <g id="xtick_10">
     <g id="line2d_10">
      <g>
       <use xlink:href="#m1c18337143" x="205.327918" y="19.477969" style="fill: #262626; stroke: #262626; stroke-width: 0.5"/>
      </g>
     </g>
    </g>
    <g id="xtick_11">
     <g id="line2d_11">
      <g>
       <use xlink:href="#m1c18337143" x="247.972593" y="19.477969" style="fill: #262626; stroke: #262626; stroke-width: 0.5"/>
      </g>
     </g>
    </g>
    <g id="xtick_12">
     <g id="line2d_12">
      <g>
       <use xlink:href="#m1c18337143" x="269.29493" y="19.477969" style="fill: #262626; stroke: #262626; stroke-width: 0.5"/>
      </g>
     </g>
    </g>
    <g id="xtick_13">
     <g id="line2d_13">
      <g>
       <use xlink:href="#m1c18337143" x="290.617267" y="19.477969" style="fill: #262626; stroke: #262626; stroke-width: 0.5"/>
      </g>
     </g>
    </g>
    <g id="xtick_14">
     <g id="line2d_14">
      <g>
       <use xlink:href="#m1c18337143" x="311.939604" y="19.477969" style="fill: #262626; stroke: #262626; stroke-width: 0.5"/>
      </g>
     </g>
    </g>
    <g id="xtick_15">
     <g id="line2d_15">
      <g>
       <use xlink:href="#m1c18337143" x="354.584279" y="19.477969" style="fill: #262626; stroke: #262626; stroke-width: 0.5"/>
      </g>
     </g>
    </g>
    <g id="xtick_16">
     <g id="line2d_16">
      <g>
       <use xlink:href="#m1c18337143" x="375.906616" y="19.477969" style="fill: #262626; stroke: #262626; stroke-width: 0.5"/>
      </g>
     </g>
    </g>
    <g id="xtick_17">
     <g id="line2d_17">
      <g>
       <use xlink:href="#m1c18337143" x="397.228953" y="19.477969" style="fill: #262626; stroke: #262626; stroke-width: 0.5"/>
      </g>
     </g>
    </g>
    <g id="xtick_18">
     <g id="line2d_18">
      <g>
       <use xlink:href="#m1c18337143" x="418.55129" y="19.477969" style="fill: #262626; stroke: #262626; stroke-width: 0.5"/>
      </g>
     </g>
    </g>
    <g id="xtick_19">
     <g id="line2d_19">
      <g>
       <use xlink:href="#m1c18337143" x="461.195965" y="19.477969" style="fill: #262626; stroke: #262626; stroke-width: 0.5"/>
      </g>
     </g>
    </g>
    <g id="xtick_20">
     <g id="line2d_20">
      <g>
       <use xlink:href="#m1c18337143" x="482.518302" y="19.477969" style="fill: #262626; stroke: #262626; stroke-width: 0.5"/>
      </g>
     </g>
    </g>
    <g id="text_5">
     <!-- Gruppo -->
     <g style="fill: #262626" transform="translate(257.748599 335.206356) scale(0.12 -0.12)">
      <defs>
       <path id="DejaVuSans-47" d="M 3809 666 
L 3809 1919 
L 2778 1919 
L 2778 2438 
L 4434 2438 
L 4434 434 
Q 4069 175 3628 42 
Q 3188 -91 2688 -91 
Q 1594 -91 976 548 
Q 359 1188 359 2328 
Q 359 3472 976 4111 
Q 1594 4750 2688 4750 
Q 3144 4750 3555 4637 
Q 3966 4525 4313 4306 
L 4313 3634 
Q 3963 3931 3569 4081 
Q 3175 4231 2741 4231 
Q 1884 4231 1454 3753 
Q 1025 3275 1025 2328 
Q 1025 1384 1454 906 
Q 1884 428 2741 428 
Q 3075 428 3337 486 
Q 3600 544 3809 666 
z
" transform="scale(0.015625)"/>
       <path id="DejaVuSans-70" d="M 1159 525 
L 1159 -1331 
L 581 -1331 
L 581 3500 
L 1159 3500 
L 1159 2969 
Q 1341 3281 1617 3432 
Q 1894 3584 2278 3584 
Q 2916 3584 3314 3078 
Q 3713 2572 3713 1747 
Q 3713 922 3314 415 
Q 2916 -91 2278 -91 
Q 1894 -91 1617 61 
Q 1341 213 1159 525 
z
M 3116 1747 
Q 3116 2381 2855 2742 
Q 2594 3103 2138 3103 
Q 1681 3103 1420 2742 
Q 1159 2381 1159 1747 
Q 1159 1113 1420 752 
Q 1681 391 2138 391 
Q 2594 391 2855 752 
Q 3116 1113 3116 1747 
z
" transform="scale(0.015625)"/>
      </defs>
      <use xlink:href="#DejaVuSans-47"/>
      <use xlink:href="#DejaVuSans-72" transform="translate(77.490234 0)"/>
      <use xlink:href="#DejaVuSans-75" transform="translate(118.603516 0)"/>
      <use xlink:href="#DejaVuSans-70" transform="translate(181.982422 0)"/>
      <use xlink:href="#DejaVuSans-70" transform="translate(245.458984 0)"/>
      <use xlink:href="#DejaVuSans-6f" transform="translate(308.935547 0)"/>
     </g>
    </g>
   </g>
   <g id="matplotlib.axis_2">
    <g id="ytick_1">
     <g id="line2d_21">
      <path d="M 66.732727 242.820018 
L 493.179471 242.820018 
" clip-path="url(#p6e06d1b129)" style="fill: none; stroke-dasharray: 1.11,0.48; stroke-dashoffset: 0; stroke: #1a1a1a; stroke-opacity: 0.25; stroke-width: 0.3"/>
     </g>
     <g id="line2d_22">
      <defs>
       <path id="m6709fca2d5" d="M 0 0 
L -3 0 
" style="stroke: #262626; stroke-width: 0.5"/>
      </defs>
      <g>
       <use xlink:href="#m6709fca2d5" x="493.179471" y="242.820018" style="fill: #262626; stroke: #262626; stroke-width: 0.5"/>
      </g>
     </g>
     <g id="text_6">
      <!-- $\mathdefault{20}$ -->
      <g style="fill: #262626" transform="translate(49.152727 246.999158) scale(0.11 -0.11)">
       <defs>
        <path id="DejaVuSans-32" d="M 1228 531 
L 3431 531 
L 3431 0 
L 469 0 
L 469 531 
Q 828 903 1448 1529 
Q 2069 2156 2228 2338 
Q 2531 2678 2651 2914 
Q 2772 3150 2772 3378 
Q 2772 3750 2511 3984 
Q 2250 4219 1831 4219 
Q 1534 4219 1204 4116 
Q 875 4013 500 3803 
L 500 4441 
Q 881 4594 1212 4672 
Q 1544 4750 1819 4750 
Q 2544 4750 2975 4387 
Q 3406 4025 3406 3419 
Q 3406 3131 3298 2873 
Q 3191 2616 2906 2266 
Q 2828 2175 2409 1742 
Q 1991 1309 1228 531 
z
" transform="scale(0.015625)"/>
        <path id="DejaVuSans-30" d="M 2034 4250 
Q 1547 4250 1301 3770 
Q 1056 3291 1056 2328 
Q 1056 1369 1301 889 
Q 1547 409 2034 409 
Q 2525 409 2770 889 
Q 3016 1369 3016 2328 
Q 3016 3291 2770 3770 
Q 2525 4250 2034 4250 
z
M 2034 4750 
Q 2819 4750 3233 4129 
Q 3647 3509 3647 2328 
Q 3647 1150 3233 529 
Q 2819 -91 2034 -91 
Q 1250 -91 836 529 
Q 422 1150 422 2328 
Q 422 3509 836 4129 
Q 1250 4750 2034 4750 
z
" transform="scale(0.015625)"/>
       </defs>
       <use xlink:href="#DejaVuSans-32" transform="translate(0 0.78125)"/>
       <use xlink:href="#DejaVuSans-30" transform="translate(63.623047 0.78125)"/>
      </g>
     </g>
    </g>
    <g id="ytick_2">
     <g id="line2d_23">
      <path d="M 66.732727 196.864864 
L 493.179471 196.864864 
" clip-path="url(#p6e06d1b129)" style="fill: none; stroke-dasharray: 1.11,0.48; stroke-dashoffset: 0; stroke: #1a1a1a; stroke-opacity: 0.25; stroke-width: 0.3"/>
     </g>
     <g id="line2d_24">
      <g>
       <use xlink:href="#m6709fca2d5" x="493.179471" y="196.864864" style="fill: #262626; stroke: #262626; stroke-width: 0.5"/>
      </g>
     </g>
     <g id="text_7">
      <!-- $\mathdefault{30}$ -->
      <g style="fill: #262626" transform="translate(49.152727 201.044004) scale(0.11 -0.11)">
       <defs>
        <path id="DejaVuSans-33" d="M 2597 2516 
Q 3050 2419 3304 2112 
Q 3559 1806 3559 1356 
Q 3559 666 3084 287 
Q 2609 -91 1734 -91 
Q 1441 -91 1130 -33 
Q 819 25 488 141 
L 488 750 
Q 750 597 1062 519 
Q 1375 441 1716 441 
Q 2309 441 2620 675 
Q 2931 909 2931 1356 
Q 2931 1769 2642 2001 
Q 2353 2234 1838 2234 
L 1294 2234 
L 1294 2753 
L 1863 2753 
Q 2328 2753 2575 2939 
Q 2822 3125 2822 3475 
Q 2822 3834 2567 4026 
Q 2313 4219 1838 4219 
Q 1578 4219 1281 4162 
Q 984 4106 628 3988 
L 628 4550 
Q 988 4650 1302 4700 
Q 1616 4750 1894 4750 
Q 2613 4750 3031 4423 
Q 3450 4097 3450 3541 
Q 3450 3153 3228 2886 
Q 3006 2619 2597 2516 
z
" transform="scale(0.015625)"/>
       </defs>
       <use xlink:href="#DejaVuSans-33" transform="translate(0 0.78125)"/>
       <use xlink:href="#DejaVuSans-30" transform="translate(63.623047 0.78125)"/>
      </g>
     </g>
    </g>
    <g id="ytick_3">
     <g id="line2d_25">
      <path d="M 66.732727 150.909709 
L 493.179471 150.909709 
" clip-path="url(#p6e06d1b129)" style="fill: none; stroke-dasharray: 1.11,0.48; stroke-dashoffset: 0; stroke: #1a1a1a; stroke-opacity: 0.25; stroke-width: 0.3"/>
     </g>
     <g id="line2d_26">
      <g>
       <use xlink:href="#m6709fca2d5" x="493.179471" y="150.909709" style="fill: #262626; stroke: #262626; stroke-width: 0.5"/>
      </g>
     </g>
     <g id="text_8">
      <!-- $\mathdefault{40}$ -->
      <g style="fill: #262626" transform="translate(49.152727 155.08885) scale(0.11 -0.11)">
       <defs>
        <path id="DejaVuSans-34" d="M 2419 4116 
L 825 1625 
L 2419 1625 
L 2419 4116 
z
M 2253 4666 
L 3047 4666 
L 3047 1625 
L 3713 1625 
L 3713 1100 
L 3047 1100 
L 3047 0 
L 2419 0 
L 2419 1100 
L 313 1100 
L 313 1709 
L 2253 4666 
z
" transform="scale(0.015625)"/>
       </defs>
       <use xlink:href="#DejaVuSans-34" transform="translate(0 0.78125)"/>
       <use xlink:href="#DejaVuSans-30" transform="translate(63.623047 0.78125)"/>
      </g>
     </g>
    </g>
    <g id="ytick_4">
     <g id="line2d_27">
      <path d="M 66.732727 104.954555 
L 493.179471 104.954555 
" clip-path="url(#p6e06d1b129)" style="fill: none; stroke-dasharray: 1.11,0.48; stroke-dashoffset: 0; stroke: #1a1a1a; stroke-opacity: 0.25; stroke-width: 0.3"/>
     </g>
     <g id="line2d_28">
      <g>
       <use xlink:href="#m6709fca2d5" x="493.179471" y="104.954555" style="fill: #262626; stroke: #262626; stroke-width: 0.5"/>
      </g>
     </g>
     <g id="text_9">
      <!-- $\mathdefault{50}$ -->
      <g style="fill: #262626" transform="translate(49.152727 109.133696) scale(0.11 -0.11)">
       <defs>
        <path id="DejaVuSans-35" d="M 691 4666 
L 3169 4666 
L 3169 4134 
L 1269 4134 
L 1269 2991 
Q 1406 3038 1543 3061 
Q 1681 3084 1819 3084 
Q 2600 3084 3056 2656 
Q 3513 2228 3513 1497 
Q 3513 744 3044 326 
Q 2575 -91 1722 -91 
Q 1428 -91 1123 -41 
Q 819 9 494 109 
L 494 744 
Q 775 591 1075 516 
Q 1375 441 1709 441 
Q 2250 441 2565 725 
Q 2881 1009 2881 1497 
Q 2881 1984 2565 2268 
Q 2250 2553 1709 2553 
Q 1456 2553 1204 2497 
Q 953 2441 691 2322 
L 691 4666 
z
" transform="scale(0.015625)"/>
       </defs>
       <use xlink:href="#DejaVuSans-35" transform="translate(0 0.78125)"/>
       <use xlink:href="#DejaVuSans-30" transform="translate(63.623047 0.78125)"/>
      </g>
     </g>
    </g>
    <g id="ytick_5">
     <g id="line2d_29">
      <path d="M 66.732727 58.999401 
L 493.179471 58.999401 
" clip-path="url(#p6e06d1b129)" style="fill: none; stroke-dasharray: 1.11,0.48; stroke-dashoffset: 0; stroke: #1a1a1a; stroke-opacity: 0.25; stroke-width: 0.3"/>
     </g>
     <g id="line2d_30">
      <g>
       <use xlink:href="#m6709fca2d5" x="493.179471" y="58.999401" style="fill: #262626; stroke: #262626; stroke-width: 0.5"/>
      </g>
     </g>
     <g id="text_10">
      <!-- $\mathdefault{60}$ -->
      <g style="fill: #262626" transform="translate(49.152727 63.178542) scale(0.11 -0.11)">
       <defs>
        <path id="DejaVuSans-36" d="M 2113 2584 
Q 1688 2584 1439 2293 
Q 1191 2003 1191 1497 
Q 1191 994 1439 701 
Q 1688 409 2113 409 
Q 2538 409 2786 701 
Q 3034 994 3034 1497 
Q 3034 2003 2786 2293 
Q 2538 2584 2113 2584 
z
M 3366 4563 
L 3366 3988 
Q 3128 4100 2886 4159 
Q 2644 4219 2406 4219 
Q 1781 4219 1451 3797 
Q 1122 3375 1075 2522 
Q 1259 2794 1537 2939 
Q 1816 3084 2150 3084 
Q 2853 3084 3261 2657 
Q 3669 2231 3669 1497 
Q 3669 778 3244 343 
Q 2819 -91 2113 -91 
Q 1303 -91 875 529 
Q 447 1150 447 2328 
Q 447 3434 972 4092 
Q 1497 4750 2381 4750 
Q 2619 4750 2861 4703 
Q 3103 4656 3366 4563 
z
" transform="scale(0.015625)"/>
       </defs>
       <use xlink:href="#DejaVuSans-36" transform="translate(0 0.78125)"/>
       <use xlink:href="#DejaVuSans-30" transform="translate(63.623047 0.78125)"/>
      </g>
     </g>
    </g>
    <g id="ytick_6">
     <g id="line2d_31">
      <defs>
       <path id="m179699b0ba" d="M 0 0 
L -1.5 0 
" style="stroke: #262626; stroke-width: 0.5"/>
      </defs>
      <g>
       <use xlink:href="#m179699b0ba" x="493.179471" y="279.584141" style="fill: #262626; stroke: #262626; stroke-width: 0.5"/>
      </g>
     </g>
    </g>
    <g id="ytick_7">
     <g id="line2d_32">
      <g>
       <use xlink:href="#m179699b0ba" x="493.179471" y="270.39311" style="fill: #262626; stroke: #262626; stroke-width: 0.5"/>
      </g>
     </g>
    </g>
    <g id="ytick_8">
     <g id="line2d_33">
      <g>
       <use xlink:href="#m179699b0ba" x="493.179471" y="261.202079" style="fill: #262626; stroke: #262626; stroke-width: 0.5"/>
      </g>
     </g>
    </g>
    <g id="ytick_9">
     <g id="line2d_34">
      <g>
       <use xlink:href="#m179699b0ba" x="493.179471" y="252.011048" style="fill: #262626; stroke: #262626; stroke-width: 0.5"/>
      </g>
     </g>
    </g>
    <g id="ytick_10">
     <g id="line2d_35">
      <g>
       <use xlink:href="#m179699b0ba" x="493.179471" y="233.628987" style="fill: #262626; stroke: #262626; stroke-width: 0.5"/>
      </g>
     </g>
    </g>
    <g id="ytick_11">
     <g id="line2d_36">
      <g>
       <use xlink:href="#m179699b0ba" x="493.179471" y="224.437956" style="fill: #262626; stroke: #262626; stroke-width: 0.5"/>
      </g>
     </g>
    </g>
    <g id="ytick_12">
     <g id="line2d_37">
      <g>
       <use xlink:href="#m179699b0ba" x="493.179471" y="215.246925" style="fill: #262626; stroke: #262626; stroke-width: 0.5"/>
      </g>
     </g>
    </g>
    <g id="ytick_13">
     <g id="line2d_38">
      <g>
       <use xlink:href="#m179699b0ba" x="493.179471" y="206.055894" style="fill: #262626; stroke: #262626; stroke-width: 0.5"/>
      </g>
     </g>
    </g>
    <g id="ytick_14">
     <g id="line2d_39">
      <g>
       <use xlink:href="#m179699b0ba" x="493.179471" y="187.673833" style="fill: #262626; stroke: #262626; stroke-width: 0.5"/>
      </g>
     </g>
    </g>
    <g id="ytick_15">
     <g id="line2d_40">
      <g>
       <use xlink:href="#m179699b0ba" x="493.179471" y="178.482802" style="fill: #262626; stroke: #262626; stroke-width: 0.5"/>
      </g>
     </g>
    </g>
    <g id="ytick_16">
     <g id="line2d_41">
      <g>
       <use xlink:href="#m179699b0ba" x="493.179471" y="169.291771" style="fill: #262626; stroke: #262626; stroke-width: 0.5"/>
      </g>
     </g>
    </g>
    <g id="ytick_17">
     <g id="line2d_42">
      <g>
       <use xlink:href="#m179699b0ba" x="493.179471" y="160.10074" style="fill: #262626; stroke: #262626; stroke-width: 0.5"/>
      </g>
     </g>
    </g>
    <g id="ytick_18">
     <g id="line2d_43">
      <g>
       <use xlink:href="#m179699b0ba" x="493.179471" y="141.718679" style="fill: #262626; stroke: #262626; stroke-width: 0.5"/>
      </g>
     </g>
    </g>
    <g id="ytick_19">
     <g id="line2d_44">
      <g>
       <use xlink:href="#m179699b0ba" x="493.179471" y="132.527648" style="fill: #262626; stroke: #262626; stroke-width: 0.5"/>
      </g>
     </g>
    </g>
    <g id="ytick_20">
     <g id="line2d_45">
      <g>
       <use xlink:href="#m179699b0ba" x="493.179471" y="123.336617" style="fill: #262626; stroke: #262626; stroke-width: 0.5"/>
      </g>
     </g>
    </g>
    <g id="ytick_21">
     <g id="line2d_46">
      <g>
       <use xlink:href="#m179699b0ba" x="493.179471" y="114.145586" style="fill: #262626; stroke: #262626; stroke-width: 0.5"/>
      </g>
     </g>
    </g>
    <g id="ytick_22">
     <g id="line2d_47">
      <g>
       <use xlink:href="#m179699b0ba" x="493.179471" y="95.763525" style="fill: #262626; stroke: #262626; stroke-width: 0.5"/>
      </g>
     </g>
    </g>
    <g id="ytick_23">
     <g id="line2d_48">
      <g>
       <use xlink:href="#m179699b0ba" x="493.179471" y="86.572494" style="fill: #262626; stroke: #262626; stroke-width: 0.5"/>
      </g>
     </g>
    </g>
    <g id="ytick_24">
     <g id="line2d_49">
      <g>
       <use xlink:href="#m179699b0ba" x="493.179471" y="77.381463" style="fill: #262626; stroke: #262626; stroke-width: 0.5"/>
      </g>
     </g>
    </g>
    <g id="ytick_25">
     <g id="line2d_50">
      <g>
       <use xlink:href="#m179699b0ba" x="493.179471" y="68.190432" style="fill: #262626; stroke: #262626; stroke-width: 0.5"/>
      </g>
     </g>
    </g>
    <g id="ytick_26">
     <g id="line2d_51">
      <g>
       <use xlink:href="#m179699b0ba" x="493.179471" y="49.80837" style="fill: #262626; stroke: #262626; stroke-width: 0.5"/>
      </g>
     </g>
    </g>
    <g id="ytick_27">
     <g id="line2d_52">
      <g>
       <use xlink:href="#m179699b0ba" x="493.179471" y="40.61734" style="fill: #262626; stroke: #262626; stroke-width: 0.5"/>
      </g>
     </g>
    </g>
    <g id="ytick_28">
     <g id="line2d_53">
      <g>
       <use xlink:href="#m179699b0ba" x="493.179471" y="31.426309" style="fill: #262626; stroke: #262626; stroke-width: 0.5"/>
      </g>
     </g>
    </g>
    <g id="ytick_29">
     <g id="line2d_54">
      <g>
       <use xlink:href="#m179699b0ba" x="493.179471" y="22.235278" style="fill: #262626; stroke: #262626; stroke-width: 0.5"/>
      </g>
     </g>
    </g>
    <g id="text_11">
     <!-- Età (anni) -->
     <g style="fill: #262626" transform="translate(42.657102 180.267522) rotate(-90) scale(0.12 -0.12)">
      <defs>
       <path id="DejaVuSans-45" d="M 628 4666 
L 3578 4666 
L 3578 4134 
L 1259 4134 
L 1259 2753 
L 3481 2753 
L 3481 2222 
L 1259 2222 
L 1259 531 
L 3634 531 
L 3634 0 
L 628 0 
L 628 4666 
z
" transform="scale(0.015625)"/>
       <path id="DejaVuSans-e0" d="M 2194 1759 
Q 1497 1759 1228 1600 
Q 959 1441 959 1056 
Q 959 750 1161 570 
Q 1363 391 1709 391 
Q 2188 391 2477 730 
Q 2766 1069 2766 1631 
L 2766 1759 
L 2194 1759 
z
M 3341 1997 
L 3341 0 
L 2766 0 
L 2766 531 
Q 2569 213 2275 61 
Q 1981 -91 1556 -91 
Q 1019 -91 701 211 
Q 384 513 384 1019 
Q 384 1609 779 1909 
Q 1175 2209 1959 2209 
L 2766 2209 
L 2766 2266 
Q 2766 2663 2505 2880 
Q 2244 3097 1772 3097 
Q 1472 3097 1187 3025 
Q 903 2953 641 2809 
L 641 3341 
Q 956 3463 1253 3523 
Q 1550 3584 1831 3584 
Q 2591 3584 2966 3190 
Q 3341 2797 3341 1997 
z
M 1403 5119 
L 2284 3950 
L 1806 3950 
L 787 5119 
L 1403 5119 
z
" transform="scale(0.015625)"/>
       <path id="DejaVuSans-28" d="M 1984 4856 
Q 1566 4138 1362 3434 
Q 1159 2731 1159 2009 
Q 1159 1288 1364 580 
Q 1569 -128 1984 -844 
L 1484 -844 
Q 1016 -109 783 600 
Q 550 1309 550 2009 
Q 550 2706 781 3412 
Q 1013 4119 1484 4856 
L 1984 4856 
z
" transform="scale(0.015625)"/>
       <path id="DejaVuSans-29" d="M 513 4856 
L 1013 4856 
Q 1481 4119 1714 3412 
Q 1947 2706 1947 2009 
Q 1947 1309 1714 600 
Q 1481 -109 1013 -844 
L 513 -844 
Q 928 -128 1133 580 
Q 1338 1288 1338 2009 
Q 1338 2731 1133 3434 
Q 928 4138 513 4856 
z
" transform="scale(0.015625)"/>
      </defs>
      <use xlink:href="#DejaVuSans-45"/>
      <use xlink:href="#DejaVuSans-74" transform="translate(63.183594 0)"/>
      <use xlink:href="#DejaVuSans-e0" transform="translate(102.392578 0)"/>
      <use xlink:href="#DejaVuSans-20" transform="translate(163.671875 0)"/>
      <use xlink:href="#DejaVuSans-28" transform="translate(195.458984 0)"/>
      <use xlink:href="#DejaVuSans-61" transform="translate(234.472656 0)"/>
      <use xlink:href="#DejaVuSans-6e" transform="translate(295.751953 0)"/>
      <use xlink:href="#DejaVuSans-6e" transform="translate(359.130859 0)"/>
      <use xlink:href="#DejaVuSans-69" transform="translate(422.509766 0)"/>
      <use xlink:href="#DejaVuSans-29" transform="translate(450.292969 0)"/>
     </g>
    </g>
   </g>
   <g id="FillBetweenPolyCollection_1">
    <defs>
     <path id="m3a998cede7" d="M 154.387789 -70.908871 
L 85.689351 -70.908871 
L 82.272807 -72.115774 
L 79.734547 -73.322677 
L 78.130633 -74.52958 
L 77.400246 -75.736483 
L 77.393895 -76.943386 
L 77.920844 -78.150289 
L 78.802281 -79.357192 
L 79.914881 -80.564095 
L 81.212396 -81.770998 
L 82.720082 -82.977902 
L 84.505824 -84.184805 
L 86.639423 -85.391708 
L 89.154612 -86.598611 
L 92.026045 -87.805514 
L 95.166895 -89.012417 
L 98.444989 -90.21932 
L 101.709661 -91.426223 
L 104.819609 -92.633126 
L 107.663927 -93.840029 
L 110.172483 -95.046932 
L 112.315925 -96.253835 
L 114.098402 -97.460738 
L 115.546961 -98.667641 
L 116.701058 -99.874544 
L 117.604267 -101.081447 
L 118.298922 -102.28835 
L 118.823382 -103.495253 
L 119.21116 -104.702156 
L 119.491019 -105.909059 
L 119.687422 -107.115962 
L 119.82094 -108.322865 
L 119.90855 -109.529768 
L 119.963859 -110.736671 
L 119.997361 -111.943574 
L 120.016789 -113.150477 
L 120.027553 -114.35738 
L 120.033245 -115.564284 
L 120.036112 -116.771187 
L 120.037488 -117.97809 
L 120.038116 -119.184993 
L 120.038388 -120.391896 
L 120.038501 -121.598799 
L 120.038545 -122.805702 
L 120.038561 -124.012605 
L 120.038567 -125.219508 
L 120.038569 -126.426411 
L 120.038569 -127.633314 
L 120.03857 -128.840217 
L 120.03857 -130.04712 
L 120.03857 -131.254023 
L 120.03857 -132.460926 
L 120.03857 -133.667829 
L 120.03857 -134.874732 
L 120.03857 -136.081635 
L 120.03857 -137.288538 
L 120.03857 -138.495441 
L 120.03857 -139.702344 
L 120.03857 -140.909247 
L 120.03857 -142.11615 
L 120.03857 -143.323053 
L 120.03857 -144.529956 
L 120.03857 -145.736859 
L 120.03857 -146.943762 
L 120.03857 -148.150665 
L 120.03857 -149.357569 
L 120.03857 -150.564472 
L 120.03857 -151.771375 
L 120.03857 -152.978278 
L 120.03857 -154.185181 
L 120.03857 -155.392084 
L 120.03857 -156.598987 
L 120.03857 -157.80589 
L 120.03857 -159.012793 
L 120.03857 -160.219696 
L 120.038569 -161.426599 
L 120.038569 -162.633502 
L 120.038566 -163.840405 
L 120.03856 -165.047308 
L 120.038541 -166.254211 
L 120.038493 -167.461114 
L 120.038372 -168.668017 
L 120.038087 -169.87492 
L 120.037446 -171.081823 
L 120.036084 -172.288726 
L 120.033349 -173.495629 
L 120.028149 -174.702532 
L 120.018808 -175.909435 
L 120.002965 -177.116338 
L 119.977622 -178.323241 
L 119.939447 -179.530144 
L 119.885406 -180.737047 
L 119.813714 -181.943951 
L 119.724937 -183.150854 
L 119.622942 -184.357757 
L 119.515265 -185.56466 
L 119.412574 -186.771563 
L 119.327103 -187.978466 
L 119.270317 -189.185369 
L 119.250398 -190.392272 
L 120.826742 -190.392272 
L 120.826742 -190.392272 
L 120.806823 -189.185369 
L 120.750036 -187.978466 
L 120.664565 -186.771563 
L 120.561874 -185.56466 
L 120.454197 -184.357757 
L 120.352202 -183.150854 
L 120.263426 -181.943951 
L 120.191733 -180.737047 
L 120.137692 -179.530144 
L 120.099517 -178.323241 
L 120.074174 -177.116338 
L 120.058331 -175.909435 
L 120.048991 -174.702532 
L 120.043791 -173.495629 
L 120.041055 -172.288726 
L 120.039694 -171.081823 
L 120.039053 -169.87492 
L 120.038767 -168.668017 
L 120.038646 -167.461114 
L 120.038598 -166.254211 
L 120.03858 -165.047308 
L 120.038573 -163.840405 
L 120.038571 -162.633502 
L 120.03857 -161.426599 
L 120.03857 -160.219696 
L 120.03857 -159.012793 
L 120.03857 -157.80589 
L 120.03857 -156.598987 
L 120.03857 -155.392084 
L 120.03857 -154.185181 
L 120.03857 -152.978278 
L 120.03857 -151.771375 
L 120.03857 -150.564472 
L 120.03857 -149.357569 
L 120.03857 -148.150665 
L 120.03857 -146.943762 
L 120.03857 -145.736859 
L 120.03857 -144.529956 
L 120.03857 -143.323053 
L 120.03857 -142.11615 
L 120.03857 -140.909247 
L 120.03857 -139.702344 
L 120.03857 -138.495441 
L 120.03857 -137.288538 
L 120.03857 -136.081635 
L 120.03857 -134.874732 
L 120.03857 -133.667829 
L 120.03857 -132.460926 
L 120.03857 -131.254023 
L 120.03857 -130.04712 
L 120.03857 -128.840217 
L 120.03857 -127.633314 
L 120.038571 -126.426411 
L 120.038572 -125.219508 
L 120.038578 -124.012605 
L 120.038595 -122.805702 
L 120.038639 -121.598799 
L 120.038751 -120.391896 
L 120.039024 -119.184993 
L 120.039652 -117.97809 
L 120.041027 -116.771187 
L 120.043895 -115.564284 
L 120.049586 -114.35738 
L 120.060351 -113.150477 
L 120.079778 -111.943574 
L 120.113281 -110.736671 
L 120.168589 -109.529768 
L 120.256199 -108.322865 
L 120.389717 -107.115962 
L 120.58612 -105.909059 
L 120.865979 -104.702156 
L 121.253757 -103.495253 
L 121.778218 -102.28835 
L 122.472872 -101.081447 
L 123.376081 -99.874544 
L 124.530178 -98.667641 
L 125.978737 -97.460738 
L 127.761215 -96.253835 
L 129.904657 -95.046932 
L 132.413212 -93.840029 
L 135.257531 -92.633126 
L 138.367478 -91.426223 
L 141.63215 -90.21932 
L 144.910245 -89.012417 
L 148.051094 -87.805514 
L 150.922527 -86.598611 
L 153.437717 -85.391708 
L 155.571315 -84.184805 
L 157.357057 -82.977902 
L 158.864743 -81.770998 
L 160.162259 -80.564095 
L 161.274858 -79.357192 
L 162.156295 -78.150289 
L 162.683244 -76.943386 
L 162.676893 -75.736483 
L 161.946506 -74.52958 
L 160.342593 -73.322677 
L 157.804333 -72.115774 
L 154.387789 -70.908871 
z
" style="stroke: #343434; stroke-width: 1.25"/>
    </defs>
    <g clip-path="url(#p6e06d1b129)">
     <use xlink:href="#m3a998cede7" x="0" y="341.301981" style="fill: #df2020; stroke: #343434; stroke-width: 1.25"/>
    </g>
   </g>
   <g id="FillBetweenPolyCollection_2">
    <defs>
     <path id="m2838abc73f" d="M 234.924821 -84.695417 
L 218.375691 -84.695417 
L 216.150086 -86.598611 
L 213.561396 -88.501804 
L 210.617961 -90.404997 
L 207.35266 -92.30819 
L 203.829174 -94.211384 
L 200.146924 -96.114577 
L 196.442841 -98.01777 
L 192.888022 -99.920963 
L 189.677917 -101.824157 
L 187.01587 -103.72735 
L 185.091484 -105.630543 
L 184.056955 -107.533736 
L 184.005581 -109.43693 
L 184.956819 -111.340123 
L 186.851199 -113.243316 
L 189.556483 -115.146509 
L 192.884039 -117.049703 
L 196.612336 -118.952896 
L 200.513116 -120.856089 
L 204.37569 -122.759282 
L 208.025632 -124.662476 
L 211.335821 -126.565669 
L 214.229486 -128.468862 
L 216.676489 -130.372055 
L 218.684947 -132.275249 
L 220.29058 -134.178442 
L 221.545899 -136.081635 
L 222.510713 -137.984828 
L 223.244772 -139.888022 
L 223.802782 -141.791215 
L 224.23155 -143.694408 
L 224.568865 -145.597601 
L 224.8436 -147.500795 
L 225.076579 -149.403988 
L 225.281829 -151.307181 
L 225.467967 -153.210374 
L 225.639544 -155.113568 
L 225.798253 -157.016761 
L 225.943979 -158.919954 
L 226.07564 -160.823147 
L 226.191846 -162.726341 
L 226.291349 -164.629534 
L 226.373294 -166.532727 
L 226.437296 -168.43592 
L 226.483376 -170.339114 
L 226.511815 -172.242307 
L 226.522992 -174.1455 
L 226.517267 -176.048693 
L 226.494954 -177.951887 
L 226.456397 -179.85508 
L 226.402131 -181.758273 
L 226.333076 -183.661466 
L 226.250714 -185.56466 
L 226.157176 -187.467853 
L 226.055203 -189.371046 
L 225.947998 -191.274239 
L 225.838978 -193.177433 
L 225.731506 -195.080626 
L 225.628667 -196.983819 
L 225.533118 -198.887012 
L 225.447027 -200.790206 
L 225.372064 -202.693399 
L 225.309372 -204.596592 
L 225.259498 -206.499785 
L 225.222245 -208.402979 
L 225.196532 -210.306172 
L 225.180335 -212.209365 
L 225.170828 -214.112558 
L 225.164787 -216.015752 
L 225.159227 -217.918945 
L 225.152175 -219.822138 
L 225.143355 -221.725331 
L 225.134591 -223.628525 
L 225.129755 -225.531718 
L 225.134211 -227.434911 
L 225.153837 -229.338104 
L 225.193837 -231.241298 
L 225.257611 -233.144491 
L 225.345948 -235.047684 
L 225.456715 -236.950877 
L 225.585092 -238.854071 
L 225.724273 -240.757264 
L 225.86645 -242.660457 
L 226.003858 -244.56365 
L 226.129672 -246.466844 
L 226.238627 -248.370037 
L 226.327305 -250.27323 
L 226.394126 -252.176423 
L 226.439141 -254.079617 
L 226.463728 -255.98281 
L 226.470279 -257.886003 
L 226.461941 -259.789196 
L 226.442415 -261.69239 
L 226.415769 -263.595583 
L 226.386244 -265.498776 
L 226.357998 -267.401969 
L 226.334805 -269.305163 
L 226.319725 -271.208356 
L 226.314802 -273.111549 
L 226.985709 -273.111549 
L 226.985709 -273.111549 
L 226.980787 -271.208356 
L 226.965706 -269.305163 
L 226.942514 -267.401969 
L 226.914268 -265.498776 
L 226.884742 -263.595583 
L 226.858097 -261.69239 
L 226.83857 -259.789196 
L 226.830233 -257.886003 
L 226.836783 -255.98281 
L 226.86137 -254.079617 
L 226.906386 -252.176423 
L 226.973207 -250.27323 
L 227.061884 -248.370037 
L 227.170839 -246.466844 
L 227.296653 -244.56365 
L 227.434061 -242.660457 
L 227.576238 -240.757264 
L 227.715419 -238.854071 
L 227.843796 -236.950877 
L 227.954563 -235.047684 
L 228.042901 -233.144491 
L 228.106675 -231.241298 
L 228.146675 -229.338104 
L 228.166301 -227.434911 
L 228.170757 -225.531718 
L 228.16592 -223.628525 
L 228.157156 -221.725331 
L 228.148336 -219.822138 
L 228.141284 -217.918945 
L 228.135725 -216.015752 
L 228.129683 -214.112558 
L 228.120176 -212.209365 
L 228.10398 -210.306172 
L 228.078267 -208.402979 
L 228.041014 -206.499785 
L 227.991139 -204.596592 
L 227.928448 -202.693399 
L 227.853484 -200.790206 
L 227.767393 -198.887012 
L 227.671844 -196.983819 
L 227.569005 -195.080626 
L 227.461534 -193.177433 
L 227.352513 -191.274239 
L 227.245308 -189.371046 
L 227.143336 -187.467853 
L 227.049797 -185.56466 
L 226.967435 -183.661466 
L 226.89838 -181.758273 
L 226.844114 -179.85508 
L 226.805557 -177.951887 
L 226.783245 -176.048693 
L 226.77752 -174.1455 
L 226.788696 -172.242307 
L 226.817135 -170.339114 
L 226.863215 -168.43592 
L 226.927217 -166.532727 
L 227.009162 -164.629534 
L 227.108665 -162.726341 
L 227.224872 -160.823147 
L 227.356532 -158.919954 
L 227.502258 -157.016761 
L 227.660968 -155.113568 
L 227.832544 -153.210374 
L 228.018683 -151.307181 
L 228.223933 -149.403988 
L 228.456911 -147.500795 
L 228.731647 -145.597601 
L 229.068961 -143.694408 
L 229.497729 -141.791215 
L 230.055739 -139.888022 
L 230.789799 -137.984828 
L 231.754612 -136.081635 
L 233.009931 -134.178442 
L 234.615565 -132.275249 
L 236.624022 -130.372055 
L 239.071025 -128.468862 
L 241.96469 -126.565669 
L 245.274879 -124.662476 
L 248.924822 -122.759282 
L 252.787395 -120.856089 
L 256.688176 -118.952896 
L 260.416472 -117.049703 
L 263.744028 -115.146509 
L 266.449312 -113.243316 
L 268.343693 -111.340123 
L 269.29493 -109.43693 
L 269.243556 -107.533736 
L 268.209027 -105.630543 
L 266.284642 -103.72735 
L 263.622594 -101.824157 
L 260.412489 -99.920963 
L 256.85767 -98.01777 
L 253.153587 -96.114577 
L 249.471338 -94.211384 
L 245.947851 -92.30819 
L 242.68255 -90.404997 
L 239.739116 -88.501804 
L 237.150425 -86.598611 
L 234.924821 -84.695417 
z
" style="stroke: #343434; stroke-width: 1.25"/>
    </defs>
    <g clip-path="url(#p6e06d1b129)">
     <use xlink:href="#m2838abc73f" x="0" y="341.301981" style="fill: #2f7e2f; stroke: #343434; stroke-width: 1.25"/>
    </g>
   </g>
   <g id="FillBetweenPolyCollection_3">
    <defs>
     <path id="m004955124e" d="M 346.047399 -107.672994 
L 320.476484 -107.672994 
L 319.043022 -109.251252 
L 317.533048 -110.82951 
L 315.954133 -112.407768 
L 314.315528 -113.986026 
L 312.628127 -115.564284 
L 310.904383 -117.142541 
L 309.15817 -118.720799 
L 307.404599 -120.299057 
L 305.659782 -121.877315 
L 303.94055 -123.455573 
L 302.264128 -125.03383 
L 300.647779 -126.612088 
L 299.108421 -128.190346 
L 297.662226 -129.768604 
L 296.324221 -131.346862 
L 295.107895 -132.925119 
L 294.02483 -134.503377 
L 293.084363 -136.081635 
L 292.293298 -137.659893 
L 291.655679 -139.238151 
L 291.172626 -140.816409 
L 290.842264 -142.394666 
L 290.659728 -143.972924 
L 290.617267 -145.551182 
L 290.704449 -147.12944 
L 290.908453 -148.707698 
L 291.214466 -150.285955 
L 291.606144 -151.864213 
L 292.06616 -153.442471 
L 292.576785 -155.020729 
L 293.120504 -156.598987 
L 293.680626 -158.177245 
L 294.241863 -159.755502 
L 294.790855 -161.33376 
L 295.316598 -162.912018 
L 295.810768 -164.490276 
L 296.267904 -166.068534 
L 296.685457 -167.646791 
L 297.063682 -169.225049 
L 297.405391 -170.803307 
L 297.715579 -172.381565 
L 298.000939 -173.959823 
L 298.269307 -175.538081 
L 298.529061 -177.116338 
L 298.788524 -178.694596 
L 299.055396 -180.272854 
L 299.336259 -181.851112 
L 299.636183 -183.42937 
L 299.958454 -185.007627 
L 300.304441 -186.585885 
L 300.6736 -188.164143 
L 301.063621 -189.742401 
L 301.470685 -191.320659 
L 301.889832 -192.898917 
L 302.315389 -194.477174 
L 302.741438 -196.055432 
L 303.162296 -197.63369 
L 303.572959 -199.211948 
L 303.969491 -200.790206 
L 304.349344 -202.368463 
L 304.711565 -203.946721 
L 305.056906 -205.524979 
L 305.387817 -207.103237 
L 305.708335 -208.681495 
L 306.023867 -210.259753 
L 306.340902 -211.83801 
L 306.666646 -213.416268 
L 307.008626 -214.994526 
L 307.374273 -216.572784 
L 307.770507 -218.151042 
L 308.203361 -219.729299 
L 308.677646 -221.307557 
L 309.196689 -222.885815 
L 309.762149 -224.464073 
L 310.373923 -226.042331 
L 311.030145 -227.620589 
L 311.727275 -229.198846 
L 312.46027 -230.777104 
L 313.222836 -232.355362 
L 314.007727 -233.93362 
L 314.807094 -235.511878 
L 315.612852 -237.090135 
L 316.417041 -238.668393 
L 317.21218 -240.246651 
L 317.991569 -241.824909 
L 318.749548 -243.403167 
L 319.481682 -244.981425 
L 320.184873 -246.559682 
L 320.857394 -248.13794 
L 321.498848 -249.716198 
L 322.110049 -251.294456 
L 322.692846 -252.872714 
L 323.249896 -254.450971 
L 323.784405 -256.029229 
L 324.299853 -257.607487 
L 324.799723 -259.185745 
L 325.28725 -260.764003 
L 325.765205 -262.34226 
L 326.235722 -263.920518 
L 340.288162 -263.920518 
L 340.288162 -263.920518 
L 340.758678 -262.34226 
L 341.236633 -260.764003 
L 341.724161 -259.185745 
L 342.224031 -257.607487 
L 342.739478 -256.029229 
L 343.273987 -254.450971 
L 343.831037 -252.872714 
L 344.413834 -251.294456 
L 345.025035 -249.716198 
L 345.666489 -248.13794 
L 346.339011 -246.559682 
L 347.042201 -244.981425 
L 347.774335 -243.403167 
L 348.532314 -241.824909 
L 349.311704 -240.246651 
L 350.106842 -238.668393 
L 350.911032 -237.090135 
L 351.716789 -235.511878 
L 352.516156 -233.93362 
L 353.301047 -232.355362 
L 354.063613 -230.777104 
L 354.796609 -229.198846 
L 355.493738 -227.620589 
L 356.14996 -226.042331 
L 356.761735 -224.464073 
L 357.327194 -222.885815 
L 357.846237 -221.307557 
L 358.320522 -219.729299 
L 358.753376 -218.151042 
L 359.14961 -216.572784 
L 359.515257 -214.994526 
L 359.857238 -213.416268 
L 360.182982 -211.83801 
L 360.500016 -210.259753 
L 360.815549 -208.681495 
L 361.136066 -207.103237 
L 361.466977 -205.524979 
L 361.812318 -203.946721 
L 362.174539 -202.368463 
L 362.554392 -200.790206 
L 362.950925 -199.211948 
L 363.361587 -197.63369 
L 363.782445 -196.055432 
L 364.208494 -194.477174 
L 364.634051 -192.898917 
L 365.053198 -191.320659 
L 365.460263 -189.742401 
L 365.850283 -188.164143 
L 366.219442 -186.585885 
L 366.565429 -185.007627 
L 366.8877 -183.42937 
L 367.187624 -181.851112 
L 367.468487 -180.272854 
L 367.735359 -178.694596 
L 367.994823 -177.116338 
L 368.254577 -175.538081 
L 368.522944 -173.959823 
L 368.808304 -172.381565 
L 369.118492 -170.803307 
L 369.460201 -169.225049 
L 369.838426 -167.646791 
L 370.255979 -166.068534 
L 370.713115 -164.490276 
L 371.207285 -162.912018 
L 371.733028 -161.33376 
L 372.28202 -159.755502 
L 372.843258 -158.177245 
L 373.403379 -156.598987 
L 373.947098 -155.020729 
L 374.457723 -153.442471 
L 374.917739 -151.864213 
L 375.309418 -150.285955 
L 375.61543 -148.707698 
L 375.819435 -147.12944 
L 375.906616 -145.551182 
L 375.864155 -143.972924 
L 375.681619 -142.394666 
L 375.351257 -140.816409 
L 374.868205 -139.238151 
L 374.230585 -137.659893 
L 373.43952 -136.081635 
L 372.499053 -134.503377 
L 371.415988 -132.925119 
L 370.199663 -131.346862 
L 368.861657 -129.768604 
L 367.415462 -128.190346 
L 365.876104 -126.612088 
L 364.259755 -125.03383 
L 362.583334 -123.455573 
L 360.864101 -121.877315 
L 359.119284 -120.299057 
L 357.365713 -118.720799 
L 355.6195 -117.142541 
L 353.895756 -115.564284 
L 352.208356 -113.986026 
L 350.56975 -112.407768 
L 348.990835 -110.82951 
L 347.480861 -109.251252 
L 346.047399 -107.672994 
z
" style="stroke: #343434; stroke-width: 1.25"/>
    </defs>
    <g clip-path="url(#p6e06d1b129)">
     <use xlink:href="#m004955124e" x="0" y="341.301981" style="fill: #dfc120; stroke: #343434; stroke-width: 1.25"/>
    </g>
   </g>
   <g id="FillBetweenPolyCollection_4">
    <defs>
     <path id="m09fcfba160" d="M 441.447257 -98.481964 
L 438.299999 -98.481964 
L 438.008506 -100.617254 
L 437.671022 -102.752544 
L 437.280541 -104.887834 
L 436.829312 -107.023124 
L 436.309058 -109.158414 
L 435.711362 -111.293704 
L 435.028229 -113.428994 
L 434.252849 -115.564284 
L 433.380536 -117.699573 
L 432.409756 -119.834863 
L 431.343173 -121.970153 
L 430.188541 -124.105443 
L 428.95929 -126.240733 
L 427.674654 -128.376023 
L 426.359201 -130.511313 
L 425.041737 -132.646603 
L 423.753581 -134.781893 
L 422.526369 -136.917183 
L 421.389571 -139.052473 
L 420.368023 -141.187763 
L 419.479735 -143.323053 
L 418.734279 -145.458343 
L 418.131927 -147.593633 
L 417.663643 -149.728923 
L 417.311906 -151.864213 
L 417.052223 -153.999503 
L 416.855103 -156.134793 
L 416.688246 -158.270083 
L 416.518676 -160.405373 
L 416.314638 -162.540663 
L 416.047116 -164.675953 
L 415.690976 -166.811243 
L 415.225757 -168.946533 
L 414.636234 -171.081823 
L 413.912855 -173.217113 
L 413.052135 -175.352403 
L 412.057027 -177.487693 
L 410.937244 -179.622983 
L 409.7094 -181.758273 
L 408.39685 -183.893563 
L 407.029074 -186.028853 
L 405.640489 -188.164143 
L 404.268678 -190.299433 
L 402.952069 -192.434723 
L 401.727249 -194.570013 
L 400.626176 -196.705303 
L 399.673586 -198.840593 
L 398.884967 -200.975883 
L 398.265376 -203.111173 
L 397.809331 -205.246463 
L 397.501857 -207.381753 
L 397.320612 -209.517043 
L 397.238863 -211.652333 
L 397.228953 -213.787623 
L 397.265792 -215.922913 
L 397.329913 -218.058203 
L 397.409661 -220.193493 
L 397.502222 -222.328783 
L 397.613349 -224.464073 
L 397.755861 -226.599363 
L 397.94716 -228.734653 
L 398.206165 -230.869943 
L 398.550154 -233.005233 
L 398.991978 -235.140523 
L 399.538072 -237.275813 
L 400.187509 -239.411103 
L 400.932171 -241.546393 
L 401.757942 -243.681683 
L 402.646651 -245.816973 
L 403.578402 -247.952263 
L 404.533914 -250.087553 
L 405.496503 -252.222843 
L 406.453472 -254.358133 
L 407.396773 -256.493423 
L 408.322954 -258.628713 
L 409.232517 -260.764003 
L 410.12888 -262.899293 
L 411.017189 -265.034583 
L 411.903183 -267.169873 
L 412.792287 -269.305163 
L 413.689027 -271.440453 
L 414.596784 -273.575743 
L 415.517832 -275.711033 
L 416.453571 -277.846323 
L 417.404847 -279.981613 
L 418.372232 -282.116903 
L 419.356214 -284.252193 
L 420.357236 -286.387483 
L 421.375592 -288.522773 
L 422.411213 -290.658063 
L 423.463389 -292.793352 
L 424.530483 -294.928642 
L 425.609684 -297.063932 
L 426.696837 -299.199222 
L 427.786367 -301.334512 
L 428.871313 -303.469802 
L 429.943469 -305.605092 
L 430.993631 -307.740382 
L 432.011948 -309.875672 
L 447.735308 -309.875672 
L 447.735308 -309.875672 
L 448.753624 -307.740382 
L 449.803787 -305.605092 
L 450.875942 -303.469802 
L 451.960888 -301.334512 
L 453.050418 -299.199222 
L 454.137571 -297.063932 
L 455.216772 -294.928642 
L 456.283866 -292.793352 
L 457.336042 -290.658063 
L 458.371663 -288.522773 
L 459.390019 -286.387483 
L 460.391041 -284.252193 
L 461.375024 -282.116903 
L 462.342409 -279.981613 
L 463.293684 -277.846323 
L 464.229423 -275.711033 
L 465.150471 -273.575743 
L 466.058228 -271.440453 
L 466.954969 -269.305163 
L 467.844073 -267.169873 
L 468.730066 -265.034583 
L 469.618375 -262.899293 
L 470.514739 -260.764003 
L 471.424301 -258.628713 
L 472.350483 -256.493423 
L 473.293784 -254.358133 
L 474.250753 -252.222843 
L 475.213341 -250.087553 
L 476.168853 -247.952263 
L 477.100605 -245.816973 
L 477.989313 -243.681683 
L 478.815084 -241.546393 
L 479.559746 -239.411103 
L 480.209183 -237.275813 
L 480.755277 -235.140523 
L 481.197101 -233.005233 
L 481.54109 -230.869943 
L 481.800096 -228.734653 
L 481.991394 -226.599363 
L 482.133906 -224.464073 
L 482.245033 -222.328783 
L 482.337594 -220.193493 
L 482.417342 -218.058203 
L 482.481463 -215.922913 
L 482.518302 -213.787623 
L 482.508392 -211.652333 
L 482.426644 -209.517043 
L 482.245398 -207.381753 
L 481.937924 -205.246463 
L 481.48188 -203.111173 
L 480.862289 -200.975883 
L 480.07367 -198.840593 
L 479.12108 -196.705303 
L 478.020006 -194.570013 
L 476.795187 -192.434723 
L 475.478577 -190.299433 
L 474.106766 -188.164143 
L 472.718182 -186.028853 
L 471.350405 -183.893563 
L 470.037855 -181.758273 
L 468.810011 -179.622983 
L 467.690228 -177.487693 
L 466.695121 -175.352403 
L 465.8344 -173.217113 
L 465.111021 -171.081823 
L 464.521498 -168.946533 
L 464.056279 -166.811243 
L 463.700139 -164.675953 
L 463.432618 -162.540663 
L 463.228579 -160.405373 
L 463.05901 -158.270083 
L 462.892152 -156.134793 
L 462.695032 -153.999503 
L 462.435349 -151.864213 
L 462.083613 -149.728923 
L 461.615329 -147.593633 
L 461.012976 -145.458343 
L 460.26752 -143.323053 
L 459.379232 -141.187763 
L 458.357684 -139.052473 
L 457.220887 -136.917183 
L 455.993674 -134.781893 
L 454.705518 -132.646603 
L 453.388054 -130.511313 
L 452.072602 -128.376023 
L 450.787965 -126.240733 
L 449.558715 -124.105443 
L 448.404083 -121.970153 
L 447.3375 -119.834863 
L 446.36672 -117.699573 
L 445.494406 -115.564284 
L 444.719027 -113.428994 
L 444.035893 -111.293704 
L 443.438197 -109.158414 
L 442.917944 -107.023124 
L 442.466714 -104.887834 
L 442.076233 -102.752544 
L 441.738749 -100.617254 
L 441.447257 -98.481964 
z
" style="stroke: #343434; stroke-width: 1.25"/>
    </defs>
    <g clip-path="url(#p6e06d1b129)">
     <use xlink:href="#m09fcfba160" x="0" y="341.301981" style="fill: #5573cd; stroke: #343434; stroke-width: 1.25"/>
    </g>
   </g>
   <g id="line2d_55">
    <path d="M 77.540705 265.797595 
L 162.536434 265.797595 
" clip-path="url(#p6e06d1b129)" style="fill: none; stroke-dasharray: 1.5625,0.9375; stroke-dashoffset: 0; stroke: #343434; stroke-width: 1.25"/>
   </g>
   <g id="line2d_56">
    <path d="M 77.76884 263.499837 
L 162.308299 263.499837 
" clip-path="url(#p6e06d1b129)" style="fill: none; stroke-dasharray: 3.125,1.25; stroke-dashoffset: 0; stroke: #343434; stroke-width: 1.25"/>
   </g>
   <g id="line2d_57">
    <path d="M 85.4085 256.606564 
L 154.668639 256.606564 
" clip-path="url(#p6e06d1b129)" style="fill: none; stroke-dasharray: 1.5625,0.9375; stroke-dashoffset: 0; stroke: #343434; stroke-width: 1.25"/>
   </g>
   <g id="line2d_58">
    <path d="M 184.053196 233.628987 
L 269.247315 233.628987 
" clip-path="url(#p6e06d1b129)" style="fill: none; stroke-dasharray: 1.5625,0.9375; stroke-dashoffset: 0; stroke: #343434; stroke-width: 1.25"/>
   </g>
   <g id="line2d_59">
    <path d="M 184.053196 233.628987 
L 269.247315 233.628987 
" clip-path="url(#p6e06d1b129)" style="fill: none; stroke-dasharray: 3.125,1.25; stroke-dashoffset: 0; stroke: #343434; stroke-width: 1.25"/>
   </g>
   <g id="line2d_60">
    <path d="M 185.880907 229.033471 
L 267.419604 229.033471 
" clip-path="url(#p6e06d1b129)" style="fill: none; stroke-dasharray: 1.5625,0.9375; stroke-dashoffset: 0; stroke: #343434; stroke-width: 1.25"/>
   </g>
   <g id="line2d_61">
    <path d="M 290.64724 196.864864 
L 375.876644 196.864864 
" clip-path="url(#p6e06d1b129)" style="fill: none; stroke-dasharray: 1.5625,0.9375; stroke-dashoffset: 0; stroke: #343434; stroke-width: 1.25"/>
   </g>
   <g id="line2d_62">
    <path d="M 297.642594 169.291771 
L 368.881289 169.291771 
" clip-path="url(#p6e06d1b129)" style="fill: none; stroke-dasharray: 3.125,1.25; stroke-dashoffset: 0; stroke: #343434; stroke-width: 1.25"/>
   </g>
   <g id="line2d_63">
    <path d="M 304.762351 137.123163 
L 361.761533 137.123163 
" clip-path="url(#p6e06d1b129)" style="fill: none; stroke-dasharray: 1.5625,0.9375; stroke-dashoffset: 0; stroke: #343434; stroke-width: 1.25"/>
   </g>
   <g id="line2d_64">
    <path d="M 407.177745 155.505225 
L 472.56951 155.505225 
" clip-path="url(#p6e06d1b129)" style="fill: none; stroke-dasharray: 1.5625,0.9375; stroke-dashoffset: 0; stroke: #343434; stroke-width: 1.25"/>
   </g>
   <g id="line2d_65">
    <path d="M 397.327125 123.336617 
L 482.42013 123.336617 
" clip-path="url(#p6e06d1b129)" style="fill: none; stroke-dasharray: 3.125,1.25; stroke-dashoffset: 0; stroke: #343434; stroke-width: 1.25"/>
   </g>
   <g id="line2d_66">
    <path d="M 404.55484 91.168009 
L 475.192416 91.168009 
" clip-path="url(#p6e06d1b129)" style="fill: none; stroke-dasharray: 1.5625,0.9375; stroke-dashoffset: 0; stroke: #343434; stroke-width: 1.25"/>
   </g>
   <g id="patch_3">
    <path d="M 66.732727 282.34145 
L 66.732727 19.477969 
" style="fill: none; stroke: #cccccc; stroke-width: 0.8; stroke-linejoin: miter; stroke-linecap: square"/>
   </g>
   <g id="patch_4">
    <path d="M 66.732727 282.34145 
L 493.179471 282.34145 
" style="fill: none; stroke: #cccccc; stroke-width: 0.8; stroke-linejoin: miter; stroke-linecap: square"/>
   </g>
   <g id="text_12">
    <!-- Distribuzione età – violino (stile SciencePlots) -->
    <g style="fill: #262626" transform="translate(132.273052 13.477969) scale(0.13 -0.13)">
     <defs>
      <path id="DejaVuSans-44" d="M 1259 4147 
L 1259 519 
L 2022 519 
Q 2988 519 3436 956 
Q 3884 1394 3884 2338 
Q 3884 3275 3436 3711 
Q 2988 4147 2022 4147 
L 1259 4147 
z
M 628 4666 
L 1925 4666 
Q 3281 4666 3915 4102 
Q 4550 3538 4550 2338 
Q 4550 1131 3912 565 
Q 3275 0 1925 0 
L 628 0 
L 628 4666 
z
" transform="scale(0.015625)"/>
      <path id="DejaVuSans-62" d="M 3116 1747 
Q 3116 2381 2855 2742 
Q 2594 3103 2138 3103 
Q 1681 3103 1420 2742 
Q 1159 2381 1159 1747 
Q 1159 1113 1420 752 
Q 1681 391 2138 391 
Q 2594 391 2855 752 
Q 3116 1113 3116 1747 
z
M 1159 2969 
Q 1341 3281 1617 3432 
Q 1894 3584 2278 3584 
Q 2916 3584 3314 3078 
Q 3713 2572 3713 1747 
Q 3713 922 3314 415 
Q 2916 -91 2278 -91 
Q 1894 -91 1617 61 
Q 1341 213 1159 525 
L 1159 0 
L 581 0 
L 581 4863 
L 1159 4863 
L 1159 2969 
z
" transform="scale(0.015625)"/>
      <path id="DejaVuSans-2013" d="M 313 1978 
L 2888 1978 
L 2888 1528 
L 313 1528 
L 313 1978 
z
" transform="scale(0.015625)"/>
      <path id="DejaVuSans-6c" d="M 603 4863 
L 1178 4863 
L 1178 0 
L 603 0 
L 603 4863 
z
" transform="scale(0.015625)"/>
      <path id="DejaVuSans-53" d="M 3425 4513 
L 3425 3897 
Q 3066 4069 2747 4153 
Q 2428 4238 2131 4238 
Q 1616 4238 1336 4038 
Q 1056 3838 1056 3469 
Q 1056 3159 1242 3001 
Q 1428 2844 1947 2747 
L 2328 2669 
Q 3034 2534 3370 2195 
Q 3706 1856 3706 1288 
Q 3706 609 3251 259 
Q 2797 -91 1919 -91 
Q 1588 -91 1214 -16 
Q 841 59 441 206 
L 441 856 
Q 825 641 1194 531 
Q 1563 422 1919 422 
Q 2459 422 2753 634 
Q 3047 847 3047 1241 
Q 3047 1584 2836 1778 
Q 2625 1972 2144 2069 
L 1759 2144 
Q 1053 2284 737 2584 
Q 422 2884 422 3419 
Q 422 4038 858 4394 
Q 1294 4750 2059 4750 
Q 2388 4750 2728 4690 
Q 3069 4631 3425 4513 
z
" transform="scale(0.015625)"/>
      <path id="DejaVuSans-50" d="M 1259 4147 
L 1259 2394 
L 2053 2394 
Q 2494 2394 2734 2622 
Q 2975 2850 2975 3272 
Q 2975 3691 2734 3919 
Q 2494 4147 2053 4147 
L 1259 4147 
z
M 628 4666 
L 2053 4666 
Q 2838 4666 3239 4311 
Q 3641 3956 3641 3272 
Q 3641 2581 3239 2228 
Q 2838 1875 2053 1875 
L 1259 1875 
L 1259 0 
L 628 0 
L 628 4666 
z
" transform="scale(0.015625)"/>
     </defs>
     <use xlink:href="#DejaVuSans-44"/>
     <use xlink:href="#DejaVuSans-69" transform="translate(77.001953 0)"/>
     <use xlink:href="#DejaVuSans-73" transform="translate(104.785156 0)"/>
     <use xlink:href="#DejaVuSans-74" transform="translate(156.884766 0)"/>
     <use xlink:href="#DejaVuSans-72" transform="translate(196.09375 0)"/>
     <use xlink:href="#DejaVuSans-69" transform="translate(237.207031 0)"/>
     <use xlink:href="#DejaVuSans-62" transform="translate(264.990234 0)"/>
     <use xlink:href="#DejaVuSans-75" transform="translate(328.466797 0)"/>
     <use xlink:href="#DejaVuSans-7a" transform="translate(391.845703 0)"/>
     <use xlink:href="#DejaVuSans-69" transform="translate(444.335938 0)"/>
     <use xlink:href="#DejaVuSans-6f" transform="translate(472.119141 0)"/>
     <use xlink:href="#DejaVuSans-6e" transform="translate(533.300781 0)"/>
     <use xlink:href="#DejaVuSans-65" transform="translate(596.679688 0)"/>
     <use xlink:href="#DejaVuSans-20" transform="translate(658.203125 0)"/>
     <use xlink:href="#DejaVuSans-65" transform="translate(689.990234 0)"/>
     <use xlink:href="#DejaVuSans-74" transform="translate(751.513672 0)"/>
     <use xlink:href="#DejaVuSans-e0" transform="translate(790.722656 0)"/>
     <use xlink:href="#DejaVuSans-20" transform="translate(852.001953 0)"/>
     <use xlink:href="#DejaVuSans-2013" transform="translate(883.789062 0)"/>
     <use xlink:href="#DejaVuSans-20" transform="translate(933.789062 0)"/>
     <use xlink:href="#DejaVuSans-76" transform="translate(965.576172 0)"/>
     <use xlink:href="#DejaVuSans-69" transform="translate(1024.755859 0)"/>
     <use xlink:href="#DejaVuSans-6f" transform="translate(1052.539062 0)"/>
     <use xlink:href="#DejaVuSans-6c" transform="translate(1113.720703 0)"/>
     <use xlink:href="#DejaVuSans-69" transform="translate(1141.503906 0)"/>
     <use xlink:href="#DejaVuSans-6e" transform="translate(1169.287109 0)"/>
     <use xlink:href="#DejaVuSans-6f" transform="translate(1232.666016 0)"/>
     <use xlink:href="#DejaVuSans-20" transform="translate(1293.847656 0)"/>
     <use xlink:href="#DejaVuSans-28" transform="translate(1325.634766 0)"/>
     <use xlink:href="#DejaVuSans-73" transform="translate(1364.648438 0)"/>
     <use xlink:href="#DejaVuSans-74" transform="translate(1416.748047 0)"/>
     <use xlink:href="#DejaVuSans-69" transform="translate(1455.957031 0)"/>
     <use xlink:href="#DejaVuSans-6c" transform="translate(1483.740234 0)"/>
     <use xlink:href="#DejaVuSans-65" transform="translate(1511.523438 0)"/>
     <use xlink:href="#DejaVuSans-20" transform="translate(1573.046875 0)"/>
     <use xlink:href="#DejaVuSans-53" transform="translate(1604.833984 0)"/>
     <use xlink:href="#DejaVuSans-63" transform="translate(1668.310547 0)"/>
     <use xlink:href="#DejaVuSans-69" transform="translate(1723.291016 0)"/>
     <use xlink:href="#DejaVuSans-65" transform="translate(1751.074219 0)"/>
     <use xlink:href="#DejaVuSans-6e" transform="translate(1812.597656 0)"/>
     <use xlink:href="#DejaVuSans-63" transform="translate(1875.976562 0)"/>
     <use xlink:href="#DejaVuSans-65" transform="translate(1930.957031 0)"/>
     <use xlink:href="#DejaVuSans-50" transform="translate(1992.480469 0)"/>
     <use xlink:href="#DejaVuSans-6c" transform="translate(2052.783203 0)"/>
     <use xlink:href="#DejaVuSans-6f" transform="translate(2080.566406 0)"/>
     <use xlink:href="#DejaVuSans-74" transform="translate(2141.748047 0)"/>
     <use xlink:href="#DejaVuSans-73" transform="translate(2180.957031 0)"/>
     <use xlink:href="#DejaVuSans-29" transform="translate(2233.056641 0)"/>
    </g>
   </g>
  </g>
 </g>
 <defs>
  <clipPath id="p6e06d1b129">
   <rect x="66.732727" y="19.477969" width="426.446744" height="262.863481"/>
  </clipPath>
 </defs>
</svg>
