<?xml version="1.0" encoding="utf-8" standalone="no"?>
<!DOCTYPE svg PUBLIC "-//W3C//DTD SVG 1.1//EN"
  "http://www.w3.org/Graphics/SVG/1.1/DTD/svg11.dtd">
<svg xmlns:xlink="http://www.w3.org/1999/xlink" width="504.202213pt" height="349.665448pt" viewBox="0 0 504.202213 349.665448" xmlns="http://www.w3.org/2000/svg" version="1.1">
 <metadata>
  <rdf:RDF xmlns:dc="http://purl.org/dc/elements/1.1/" xmlns:cc="http://creativecommons.org/ns#" xmlns:rdf="http://www.w3.org/1999/02/22-rdf-syntax-ns#">
   <cc:Work>
    <dc:type rdf:resource="http://purl.org/dc/dcmitype/StillImage"/>
    <dc:date>2025-11-07T12:55:29.471279</dc:date>
    <dc:format>image/svg+xml</dc:format>
    <dc:creator>
     <cc:Agent>
      <dc:title>Matplotlib v3.10.7, https://matplotlib.org/</dc:title>
     </cc:Agent>
    </dc:creator>
   </cc:Work>
  </rdf:RDF>
 </metadata>
 <defs>
  <style type="text/css">*{stroke-linejoin: round; stroke-linecap: butt}</style>
 </defs>
 <g id="figure_1">
  <g id="patch_1">
   <path d="M 0 349.665448 
L 504.202213 349.665448 
L 504.202213 0 
L 0 0 
z
" style="fill: #ffffff"/>
  </g>
  <g id="axes_1">
   <g id="patch_2">
    <path d="M 64.983673 293.327167 
L 500.602213 293.327167 
L 500.602213 18.718125 
L 64.983673 18.718125 
z
" style="fill: #ffffff"/>
   </g>
   <g id="matplotlib.axis_1">
    <g id="xtick_1">
     <g id="line2d_1">
      <defs>
       <path id="mffce3aef05" d="M 0 0 
L 0 3 
" style="stroke: #262626; stroke-width: 0.5"/>
      </defs>
      <g>
       <use xlink:href="#mffce3aef05" x="119.43599" y="18.718125" style="fill: #262626; stroke: #262626; stroke-width: 0.5"/>
      </g>
     </g>
     <g id="text_1">
      <!-- students - secondary -->
      <g style="fill: #262626" transform="translate(5.0514 325.157511) rotate(-10) scale(0.11 -0.11)">
       <defs>
        <path id="DejaVuSans-73" d="M 2834 3397 
L 2834 2853 
Q 2591 2978 2328 3040 
Q 2066 3103 1784 3103 
Q 1356 3103 1142 2972 
Q 928 2841 928 2578 
Q 928 2378 1081 2264 
Q 1234 2150 1697 2047 
L 1894 2003 
Q 2506 1872 2764 1633 
Q 3022 1394 3022 966 
Q 3022 478 2636 193 
Q 2250 -91 1575 -91 
Q 1294 -91 989 -36 
Q 684 19 347 128 
L 347 722 
Q 666 556 975 473 
Q 1284 391 1588 391 
Q 1994 391 2212 530 
Q 2431 669 2431 922 
Q 2431 1156 2273 1281 
Q 2116 1406 1581 1522 
L 1381 1569 
Q 847 1681 609 1914 
Q 372 2147 372 2553 
Q 372 3047 722 3315 
Q 1072 3584 1716 3584 
Q 2034 3584 2315 3537 
Q 2597 3491 2834 3397 
z
" transform="scale(0.015625)"/>
        <path id="DejaVuSans-74" d="M 1172 4494 
L 1172 3500 
L 2356 3500 
L 2356 3053 
L 1172 3053 
L 1172 1153 
Q 1172 725 1289 603 
Q 1406 481 1766 481 
L 2356 481 
L 2356 0 
L 1766 0 
Q 1100 0 847 248 
Q 594 497 594 1153 
L 594 3053 
L 172 3053 
L 172 3500 
L 594 3500 
L 594 4494 
L 1172 4494 
z
" transform="scale(0.015625)"/>
        <path id="DejaVuSans-75" d="M 544 1381 
L 544 3500 
L 1119 3500 
L 1119 1403 
Q 1119 906 1312 657 
Q 1506 409 1894 409 
Q 2359 409 2629 706 
Q 2900 1003 2900 1516 
L 2900 3500 
L 3475 3500 
L 3475 0 
L 2900 0 
L 2900 538 
Q 2691 219 2414 64 
Q 2138 -91 1772 -91 
Q 1169 -91 856 284 
Q 544 659 544 1381 
z
M 1991 3584 
L 1991 3584 
z
" transform="scale(0.015625)"/>
        <path id="DejaVuSans-64" d="M 2906 2969 
L 2906 4863 
L 3481 4863 
L 3481 0 
L 2906 0 
L 2906 525 
Q 2725 213 2448 61 
Q 2172 -91 1784 -91 
Q 1150 -91 751 415 
Q 353 922 353 1747 
Q 353 2572 751 3078 
Q 1150 3584 1784 3584 
Q 2172 3584 2448 3432 
Q 2725 3281 2906 2969 
z
M 947 1747 
Q 947 1113 1208 752 
Q 1469 391 1925 391 
Q 2381 391 2643 752 
Q 2906 1113 2906 1747 
Q 2906 2381 2643 2742 
Q 2381 3103 1925 3103 
Q 1469 3103 1208 2742 
Q 947 2381 947 1747 
z
" transform="scale(0.015625)"/>
        <path id="DejaVuSans-65" d="M 3597 1894 
L 3597 1613 
L 953 1613 
Q 991 1019 1311 708 
Q 1631 397 2203 397 
Q 2534 397 2845 478 
Q 3156 559 3463 722 
L 3463 178 
Q 3153 47 2828 -22 
Q 2503 -91 2169 -91 
Q 1331 -91 842 396 
Q 353 884 353 1716 
Q 353 2575 817 3079 
Q 1281 3584 2069 3584 
Q 2775 3584 3186 3129 
Q 3597 2675 3597 1894 
z
M 3022 2063 
Q 3016 2534 2758 2815 
Q 2500 3097 2075 3097 
Q 1594 3097 1305 2825 
Q 1016 2553 972 2059 
L 3022 2063 
z
" transform="scale(0.015625)"/>
        <path id="DejaVuSans-6e" d="M 3513 2113 
L 3513 0 
L 2938 0 
L 2938 2094 
Q 2938 2591 2744 2837 
Q 2550 3084 2163 3084 
Q 1697 3084 1428 2787 
Q 1159 2491 1159 1978 
L 1159 0 
L 581 0 
L 581 3500 
L 1159 3500 
L 1159 2956 
Q 1366 3272 1645 3428 
Q 1925 3584 2291 3584 
Q 2894 3584 3203 3211 
Q 3513 2838 3513 2113 
z
" transform="scale(0.015625)"/>
        <path id="DejaVuSans-20" transform="scale(0.015625)"/>
        <path id="DejaVuSans-2d" d="M 313 2009 
L 1997 2009 
L 1997 1497 
L 313 1497 
L 313 2009 
z
" transform="scale(0.015625)"/>
        <path id="DejaVuSans-63" d="M 3122 3366 
L 3122 2828 
Q 2878 2963 2633 3030 
Q 2388 3097 2138 3097 
Q 1578 3097 1268 2742 
Q 959 2388 959 1747 
Q 959 1106 1268 751 
Q 1578 397 2138 397 
Q 2388 397 2633 464 
Q 2878 531 3122 666 
L 3122 134 
Q 2881 22 2623 -34 
Q 2366 -91 2075 -91 
Q 1284 -91 818 406 
Q 353 903 353 1747 
Q 353 2603 823 3093 
Q 1294 3584 2113 3584 
Q 2378 3584 2631 3529 
Q 2884 3475 3122 3366 
z
" transform="scale(0.015625)"/>
        <path id="DejaVuSans-6f" d="M 1959 3097 
Q 1497 3097 1228 2736 
Q 959 2375 959 1747 
Q 959 1119 1226 758 
Q 1494 397 1959 397 
Q 2419 397 2687 759 
Q 2956 1122 2956 1747 
Q 2956 2369 2687 2733 
Q 2419 3097 1959 3097 
z
M 1959 3584 
Q 2709 3584 3137 3096 
Q 3566 2609 3566 1747 
Q 3566 888 3137 398 
Q 2709 -91 1959 -91 
Q 1206 -91 779 398 
Q 353 888 353 1747 
Q 353 2609 779 3096 
Q 1206 3584 1959 3584 
z
" transform="scale(0.015625)"/>
        <path id="DejaVuSans-61" d="M 2194 1759 
Q 1497 1759 1228 1600 
Q 959 1441 959 1056 
Q 959 750 1161 570 
Q 1363 391 1709 391 
Q 2188 391 2477 730 
Q 2766 1069 2766 1631 
L 2766 1759 
L 2194 1759 
z
M 3341 1997 
L 3341 0 
L 2766 0 
L 2766 531 
Q 2569 213 2275 61 
Q 1981 -91 1556 -91 
Q 1019 -91 701 211 
Q 384 513 384 1019 
Q 384 1609 779 1909 
Q 1175 2209 1959 2209 
L 2766 2209 
L 2766 2266 
Q 2766 2663 2505 2880 
Q 2244 3097 1772 3097 
Q 1472 3097 1187 3025 
Q 903 2953 641 2809 
L 641 3341 
Q 956 3463 1253 3523 
Q 1550 3584 1831 3584 
Q 2591 3584 2966 3190 
Q 3341 2797 3341 1997 
z
" transform="scale(0.015625)"/>
        <path id="DejaVuSans-72" d="M 2631 2963 
Q 2534 3019 2420 3045 
Q 2306 3072 2169 3072 
Q 1681 3072 1420 2755 
Q 1159 2438 1159 1844 
L 1159 0 
L 581 0 
L 581 3500 
L 1159 3500 
L 1159 2956 
Q 1341 3275 1631 3429 
Q 1922 3584 2338 3584 
Q 2397 3584 2469 3576 
Q 2541 3569 2628 3553 
L 2631 2963 
z
" transform="scale(0.015625)"/>
        <path id="DejaVuSans-79" d="M 2059 -325 
Q 1816 -950 1584 -1140 
Q 1353 -1331 966 -1331 
L 506 -1331 
L 506 -850 
L 844 -850 
Q 1081 -850 1212 -737 
Q 1344 -625 1503 -206 
L 1606 56 
L 191 3500 
L 800 3500 
L 1894 763 
L 2988 3500 
L 3597 3500 
L 2059 -325 
z
" transform="scale(0.015625)"/>
       </defs>
       <use xlink:href="#DejaVuSans-73"/>
       <use xlink:href="#DejaVuSans-74" transform="translate(52.099609 0)"/>
       <use xlink:href="#DejaVuSans-75" transform="translate(91.308594 0)"/>
       <use xlink:href="#DejaVuSans-64" transform="translate(154.6875 0)"/>
       <use xlink:href="#DejaVuSans-65" transform="translate(218.164062 0)"/>
       <use xlink:href="#DejaVuSans-6e" transform="translate(279.6875 0)"/>
       <use xlink:href="#DejaVuSans-74" transform="translate(343.066406 0)"/>
       <use xlink:href="#DejaVuSans-73" transform="translate(382.275391 0)"/>
       <use xlink:href="#DejaVuSans-20" transform="translate(434.375 0)"/>
       <use xlink:href="#DejaVuSans-2d" transform="translate(466.162109 0)"/>
       <use xlink:href="#DejaVuSans-20" transform="translate(502.246094 0)"/>
       <use xlink:href="#DejaVuSans-73" transform="translate(534.033203 0)"/>
       <use xlink:href="#DejaVuSans-65" transform="translate(586.132812 0)"/>
       <use xlink:href="#DejaVuSans-63" transform="translate(647.65625 0)"/>
       <use xlink:href="#DejaVuSans-6f" transform="translate(702.636719 0)"/>
       <use xlink:href="#DejaVuSans-6e" transform="translate(763.818359 0)"/>
       <use xlink:href="#DejaVuSans-64" transform="translate(827.197266 0)"/>
       <use xlink:href="#DejaVuSans-61" transform="translate(890.673828 0)"/>
       <use xlink:href="#DejaVuSans-72" transform="translate(951.953125 0)"/>
       <use xlink:href="#DejaVuSans-79" transform="translate(993.066406 0)"/>
      </g>
     </g>
    </g>
    <g id="xtick_2">
     <g id="line2d_2">
      <g>
       <use xlink:href="#mffce3aef05" x="228.340625" y="18.718125" style="fill: #262626; stroke: #262626; stroke-width: 0.5"/>
      </g>
     </g>
     <g id="text_2">
      <!-- students - university -->
      <g style="fill: #262626" transform="translate(116.513612 324.706541) rotate(-10) scale(0.11 -0.11)">
       <defs>
        <path id="DejaVuSans-69" d="M 603 3500 
L 1178 3500 
L 1178 0 
L 603 0 
L 603 3500 
z
M 603 4863 
L 1178 4863 
L 1178 4134 
L 603 4134 
L 603 4863 
z
" transform="scale(0.015625)"/>
        <path id="DejaVuSans-76" d="M 191 3500 
L 800 3500 
L 1894 563 
L 2988 3500 
L 3597 3500 
L 2284 0 
L 1503 0 
L 191 3500 
z
" transform="scale(0.015625)"/>
       </defs>
       <use xlink:href="#DejaVuSans-73"/>
       <use xlink:href="#DejaVuSans-74" transform="translate(52.099609 0)"/>
       <use xlink:href="#DejaVuSans-75" transform="translate(91.308594 0)"/>
       <use xlink:href="#DejaVuSans-64" transform="translate(154.6875 0)"/>
       <use xlink:href="#DejaVuSans-65" transform="translate(218.164062 0)"/>
       <use xlink:href="#DejaVuSans-6e" transform="translate(279.6875 0)"/>
       <use xlink:href="#DejaVuSans-74" transform="translate(343.066406 0)"/>
       <use xlink:href="#DejaVuSans-73" transform="translate(382.275391 0)"/>
       <use xlink:href="#DejaVuSans-20" transform="translate(434.375 0)"/>
       <use xlink:href="#DejaVuSans-2d" transform="translate(466.162109 0)"/>
       <use xlink:href="#DejaVuSans-20" transform="translate(502.246094 0)"/>
       <use xlink:href="#DejaVuSans-75" transform="translate(534.033203 0)"/>
       <use xlink:href="#DejaVuSans-6e" transform="translate(597.412109 0)"/>
       <use xlink:href="#DejaVuSans-69" transform="translate(660.791016 0)"/>
       <use xlink:href="#DejaVuSans-76" transform="translate(688.574219 0)"/>
       <use xlink:href="#DejaVuSans-65" transform="translate(747.753906 0)"/>
       <use xlink:href="#DejaVuSans-72" transform="translate(809.277344 0)"/>
       <use xlink:href="#DejaVuSans-73" transform="translate(850.390625 0)"/>
       <use xlink:href="#DejaVuSans-69" transform="translate(902.490234 0)"/>
       <use xlink:href="#DejaVuSans-74" transform="translate(930.273438 0)"/>
       <use xlink:href="#DejaVuSans-79" transform="translate(969.482422 0)"/>
      </g>
     </g>
    </g>
    <g id="xtick_3">
     <g id="line2d_3">
      <g>
       <use xlink:href="#mffce3aef05" x="337.24526" y="18.718125" style="fill: #262626; stroke: #262626; stroke-width: 0.5"/>
      </g>
     </g>
     <g id="text_3">
      <!-- teachers - not in service -->
      <g style="fill: #262626" transform="translate(205.612686 328.198796) rotate(-10) scale(0.11 -0.11)">
       <defs>
        <path id="DejaVuSans-68" d="M 3513 2113 
L 3513 0 
L 2938 0 
L 2938 2094 
Q 2938 2591 2744 2837 
Q 2550 3084 2163 3084 
Q 1697 3084 1428 2787 
Q 1159 2491 1159 1978 
L 1159 0 
L 581 0 
L 581 4863 
L 1159 4863 
L 1159 2956 
Q 1366 3272 1645 3428 
Q 1925 3584 2291 3584 
Q 2894 3584 3203 3211 
Q 3513 2838 3513 2113 
z
" transform="scale(0.015625)"/>
       </defs>
       <use xlink:href="#DejaVuSans-74"/>
       <use xlink:href="#DejaVuSans-65" transform="translate(39.208984 0)"/>
       <use xlink:href="#DejaVuSans-61" transform="translate(100.732422 0)"/>
       <use xlink:href="#DejaVuSans-63" transform="translate(162.011719 0)"/>
       <use xlink:href="#DejaVuSans-68" transform="translate(216.992188 0)"/>
       <use xlink:href="#DejaVuSans-65" transform="translate(280.371094 0)"/>
       <use xlink:href="#DejaVuSans-72" transform="translate(341.894531 0)"/>
       <use xlink:href="#DejaVuSans-73" transform="translate(383.007812 0)"/>
       <use xlink:href="#DejaVuSans-20" transform="translate(435.107422 0)"/>
       <use xlink:href="#DejaVuSans-2d" transform="translate(466.894531 0)"/>
       <use xlink:href="#DejaVuSans-20" transform="translate(502.978516 0)"/>
       <use xlink:href="#DejaVuSans-6e" transform="translate(534.765625 0)"/>
       <use xlink:href="#DejaVuSans-6f" transform="translate(598.144531 0)"/>
       <use xlink:href="#DejaVuSans-74" transform="translate(659.326172 0)"/>
       <use xlink:href="#DejaVuSans-20" transform="translate(698.535156 0)"/>
       <use xlink:href="#DejaVuSans-69" transform="translate(730.322266 0)"/>
       <use xlink:href="#DejaVuSans-6e" transform="translate(758.105469 0)"/>
       <use xlink:href="#DejaVuSans-20" transform="translate(821.484375 0)"/>
       <use xlink:href="#DejaVuSans-73" transform="translate(853.271484 0)"/>
       <use xlink:href="#DejaVuSans-65" transform="translate(905.371094 0)"/>
       <use xlink:href="#DejaVuSans-72" transform="translate(966.894531 0)"/>
       <use xlink:href="#DejaVuSans-76" transform="translate(1008.007812 0)"/>
       <use xlink:href="#DejaVuSans-69" transform="translate(1067.1875 0)"/>
       <use xlink:href="#DejaVuSans-63" transform="translate(1094.970703 0)"/>
       <use xlink:href="#DejaVuSans-65" transform="translate(1149.951172 0)"/>
      </g>
     </g>
    </g>
    <g id="xtick_4">
     <g id="line2d_4">
      <g>
       <use xlink:href="#mffce3aef05" x="446.149896" y="18.718125" style="fill: #262626; stroke: #262626; stroke-width: 0.5"/>
      </g>
     </g>
     <g id="text_4">
      <!-- teachers - in service -->
      <g style="fill: #262626" transform="translate(335.70069 324.463597) rotate(-10) scale(0.11 -0.11)">
       <use xlink:href="#DejaVuSans-74"/>
       <use xlink:href="#DejaVuSans-65" transform="translate(39.208984 0)"/>
       <use xlink:href="#DejaVuSans-61" transform="translate(100.732422 0)"/>
       <use xlink:href="#DejaVuSans-63" transform="translate(162.011719 0)"/>
       <use xlink:href="#DejaVuSans-68" transform="translate(216.992188 0)"/>
       <use xlink:href="#DejaVuSans-65" transform="translate(280.371094 0)"/>
       <use xlink:href="#DejaVuSans-72" transform="translate(341.894531 0)"/>
       <use xlink:href="#DejaVuSans-73" transform="translate(383.007812 0)"/>
       <use xlink:href="#DejaVuSans-20" transform="translate(435.107422 0)"/>
       <use xlink:href="#DejaVuSans-2d" transform="translate(466.894531 0)"/>
       <use xlink:href="#DejaVuSans-20" transform="translate(502.978516 0)"/>
       <use xlink:href="#DejaVuSans-69" transform="translate(534.765625 0)"/>
       <use xlink:href="#DejaVuSans-6e" transform="translate(562.548828 0)"/>
       <use xlink:href="#DejaVuSans-20" transform="translate(625.927734 0)"/>
       <use xlink:href="#DejaVuSans-73" transform="translate(657.714844 0)"/>
       <use xlink:href="#DejaVuSans-65" transform="translate(709.814453 0)"/>
       <use xlink:href="#DejaVuSans-72" transform="translate(771.337891 0)"/>
       <use xlink:href="#DejaVuSans-76" transform="translate(812.451172 0)"/>
       <use xlink:href="#DejaVuSans-69" transform="translate(871.630859 0)"/>
       <use xlink:href="#DejaVuSans-63" transform="translate(899.414062 0)"/>
       <use xlink:href="#DejaVuSans-65" transform="translate(954.394531 0)"/>
      </g>
     </g>
    </g>
    <g id="xtick_5">
     <g id="line2d_5">
      <defs>
       <path id="m8d0f0c32cc" d="M 0 0 
L 0 1.5 
" style="stroke: #262626; stroke-width: 0.5"/>
      </defs>
      <g>
       <use xlink:href="#m8d0f0c32cc" x="75.874136" y="18.718125" style="fill: #262626; stroke: #262626; stroke-width: 0.5"/>
      </g>
     </g>
    </g>
    <g id="xtick_6">
     <g id="line2d_6">
      <g>
       <use xlink:href="#m8d0f0c32cc" x="97.655063" y="18.718125" style="fill: #262626; stroke: #262626; stroke-width: 0.5"/>
      </g>
     </g>
    </g>
    <g id="xtick_7">
     <g id="line2d_7">
      <g>
       <use xlink:href="#m8d0f0c32cc" x="141.216917" y="18.718125" style="fill: #262626; stroke: #262626; stroke-width: 0.5"/>
      </g>
     </g>
    </g>
    <g id="xtick_8">
     <g id="line2d_8">
      <g>
       <use xlink:href="#m8d0f0c32cc" x="162.997844" y="18.718125" style="fill: #262626; stroke: #262626; stroke-width: 0.5"/>
      </g>
     </g>
    </g>
    <g id="xtick_9">
     <g id="line2d_9">
      <g>
       <use xlink:href="#m8d0f0c32cc" x="184.778771" y="18.718125" style="fill: #262626; stroke: #262626; stroke-width: 0.5"/>
      </g>
     </g>
    </g>
    <g id="xtick_10">
     <g id="line2d_10">
      <g>
       <use xlink:href="#m8d0f0c32cc" x="206.559698" y="18.718125" style="fill: #262626; stroke: #262626; stroke-width: 0.5"/>
      </g>
     </g>
    </g>
    <g id="xtick_11">
     <g id="line2d_11">
      <g>
       <use xlink:href="#m8d0f0c32cc" x="250.121552" y="18.718125" style="fill: #262626; stroke: #262626; stroke-width: 0.5"/>
      </g>
     </g>
    </g>
    <g id="xtick_12">
     <g id="line2d_12">
      <g>
       <use xlink:href="#m8d0f0c32cc" x="271.902479" y="18.718125" style="fill: #262626; stroke: #262626; stroke-width: 0.5"/>
      </g>
     </g>
    </g>
    <g id="xtick_13">
     <g id="line2d_13">
      <g>
       <use xlink:href="#m8d0f0c32cc" x="293.683406" y="18.718125" style="fill: #262626; stroke: #262626; stroke-width: 0.5"/>
      </g>
     </g>
    </g>
    <g id="xtick_14">
     <g id="line2d_14">
      <g>
       <use xlink:href="#m8d0f0c32cc" x="315.464333" y="18.718125" style="fill: #262626; stroke: #262626; stroke-width: 0.5"/>
      </g>
     </g>
    </g>
    <g id="xtick_15">
     <g id="line2d_15">
      <g>
       <use xlink:href="#m8d0f0c32cc" x="359.026187" y="18.718125" style="fill: #262626; stroke: #262626; stroke-width: 0.5"/>
      </g>
     </g>
    </g>
    <g id="xtick_16">
     <g id="line2d_16">
      <g>
       <use xlink:href="#m8d0f0c32cc" x="380.807115" y="18.718125" style="fill: #262626; stroke: #262626; stroke-width: 0.5"/>
      </g>
     </g>
    </g>
    <g id="xtick_17">
     <g id="line2d_17">
      <g>
       <use xlink:href="#m8d0f0c32cc" x="402.588042" y="18.718125" style="fill: #262626; stroke: #262626; stroke-width: 0.5"/>
      </g>
     </g>
    </g>
    <g id="xtick_18">
     <g id="line2d_18">
      <g>
       <use xlink:href="#m8d0f0c32cc" x="424.368969" y="18.718125" style="fill: #262626; stroke: #262626; stroke-width: 0.5"/>
      </g>
     </g>
    </g>
    <g id="xtick_19">
     <g id="line2d_19">
      <g>
       <use xlink:href="#m8d0f0c32cc" x="467.930823" y="18.718125" style="fill: #262626; stroke: #262626; stroke-width: 0.5"/>
      </g>
     </g>
    </g>
    <g id="xtick_20">
     <g id="line2d_20">
      <g>
       <use xlink:href="#m8d0f0c32cc" x="489.71175" y="18.718125" style="fill: #262626; stroke: #262626; stroke-width: 0.5"/>
      </g>
     </g>
    </g>
    <g id="text_5">
     <!-- Group -->
     <g style="fill: #262626" transform="translate(264.529505 343.569823) scale(0.12 -0.12)">
      <defs>
       <path id="DejaVuSans-47" d="M 3809 666 
L 3809 1919 
L 2778 1919 
L 2778 2438 
L 4434 2438 
L 4434 434 
Q 4069 175 3628 42 
Q 3188 -91 2688 -91 
Q 1594 -91 976 548 
Q 359 1188 359 2328 
Q 359 3472 976 4111 
Q 1594 4750 2688 4750 
Q 3144 4750 3555 4637 
Q 3966 4525 4313 4306 
L 4313 3634 
Q 3963 3931 3569 4081 
Q 3175 4231 2741 4231 
Q 1884 4231 1454 3753 
Q 1025 3275 1025 2328 
Q 1025 1384 1454 906 
Q 1884 428 2741 428 
Q 3075 428 3337 486 
Q 3600 544 3809 666 
z
" transform="scale(0.015625)"/>
       <path id="DejaVuSans-70" d="M 1159 525 
L 1159 -1331 
L 581 -1331 
L 581 3500 
L 1159 3500 
L 1159 2969 
Q 1341 3281 1617 3432 
Q 1894 3584 2278 3584 
Q 2916 3584 3314 3078 
Q 3713 2572 3713 1747 
Q 3713 922 3314 415 
Q 2916 -91 2278 -91 
Q 1894 -91 1617 61 
Q 1341 213 1159 525 
z
M 3116 1747 
Q 3116 2381 2855 2742 
Q 2594 3103 2138 3103 
Q 1681 3103 1420 2742 
Q 1159 2381 1159 1747 
Q 1159 1113 1420 752 
Q 1681 391 2138 391 
Q 2594 391 2855 752 
Q 3116 1113 3116 1747 
z
" transform="scale(0.015625)"/>
      </defs>
      <use xlink:href="#DejaVuSans-47"/>
      <use xlink:href="#DejaVuSans-72" transform="translate(77.490234 0)"/>
      <use xlink:href="#DejaVuSans-6f" transform="translate(116.353516 0)"/>
      <use xlink:href="#DejaVuSans-75" transform="translate(177.535156 0)"/>
      <use xlink:href="#DejaVuSans-70" transform="translate(240.914062 0)"/>
     </g>
    </g>
   </g>
   <g id="matplotlib.axis_2">
    <g id="ytick_1">
     <g id="line2d_21">
      <path d="M 64.983673 252.039793 
L 500.602213 252.039793 
" clip-path="url(#p29ea1ab764)" style="fill: none; stroke-dasharray: 1.85,0.8; stroke-dashoffset: 0; stroke: #1a1a1a; stroke-opacity: 0.25; stroke-width: 0.5"/>
     </g>
     <g id="line2d_22">
      <defs>
       <path id="m77673f2bc6" d="M 0 0 
L -3 0 
" style="stroke: #262626; stroke-width: 0.5"/>
      </defs>
      <g>
       <use xlink:href="#m77673f2bc6" x="500.602213" y="252.039793" style="fill: #262626; stroke: #262626; stroke-width: 0.5"/>
      </g>
     </g>
     <g id="text_6">
      <!-- $\mathdefault{20}$ -->
      <g style="fill: #262626" transform="translate(47.403673 256.218934) scale(0.11 -0.11)">
       <defs>
        <path id="DejaVuSans-32" d="M 1228 531 
L 3431 531 
L 3431 0 
L 469 0 
L 469 531 
Q 828 903 1448 1529 
Q 2069 2156 2228 2338 
Q 2531 2678 2651 2914 
Q 2772 3150 2772 3378 
Q 2772 3750 2511 3984 
Q 2250 4219 1831 4219 
Q 1534 4219 1204 4116 
Q 875 4013 500 3803 
L 500 4441 
Q 881 4594 1212 4672 
Q 1544 4750 1819 4750 
Q 2544 4750 2975 4387 
Q 3406 4025 3406 3419 
Q 3406 3131 3298 2873 
Q 3191 2616 2906 2266 
Q 2828 2175 2409 1742 
Q 1991 1309 1228 531 
z
" transform="scale(0.015625)"/>
        <path id="DejaVuSans-30" d="M 2034 4250 
Q 1547 4250 1301 3770 
Q 1056 3291 1056 2328 
Q 1056 1369 1301 889 
Q 1547 409 2034 409 
Q 2525 409 2770 889 
Q 3016 1369 3016 2328 
Q 3016 3291 2770 3770 
Q 2525 4250 2034 4250 
z
M 2034 4750 
Q 2819 4750 3233 4129 
Q 3647 3509 3647 2328 
Q 3647 1150 3233 529 
Q 2819 -91 2034 -91 
Q 1250 -91 836 529 
Q 422 1150 422 2328 
Q 422 3509 836 4129 
Q 1250 4750 2034 4750 
z
" transform="scale(0.015625)"/>
       </defs>
       <use xlink:href="#DejaVuSans-32" transform="translate(0 0.78125)"/>
       <use xlink:href="#DejaVuSans-30" transform="translate(63.623047 0.78125)"/>
      </g>
     </g>
    </g>
    <g id="ytick_2">
     <g id="line2d_23">
      <path d="M 64.983673 204.03122 
L 500.602213 204.03122 
" clip-path="url(#p29ea1ab764)" style="fill: none; stroke-dasharray: 1.85,0.8; stroke-dashoffset: 0; stroke: #1a1a1a; stroke-opacity: 0.25; stroke-width: 0.5"/>
     </g>
     <g id="line2d_24">
      <g>
       <use xlink:href="#m77673f2bc6" x="500.602213" y="204.03122" style="fill: #262626; stroke: #262626; stroke-width: 0.5"/>
      </g>
     </g>
     <g id="text_7">
      <!-- $\mathdefault{30}$ -->
      <g style="fill: #262626" transform="translate(47.403673 208.21036) scale(0.11 -0.11)">
       <defs>
        <path id="DejaVuSans-33" d="M 2597 2516 
Q 3050 2419 3304 2112 
Q 3559 1806 3559 1356 
Q 3559 666 3084 287 
Q 2609 -91 1734 -91 
Q 1441 -91 1130 -33 
Q 819 25 488 141 
L 488 750 
Q 750 597 1062 519 
Q 1375 441 1716 441 
Q 2309 441 2620 675 
Q 2931 909 2931 1356 
Q 2931 1769 2642 2001 
Q 2353 2234 1838 2234 
L 1294 2234 
L 1294 2753 
L 1863 2753 
Q 2328 2753 2575 2939 
Q 2822 3125 2822 3475 
Q 2822 3834 2567 4026 
Q 2313 4219 1838 4219 
Q 1578 4219 1281 4162 
Q 984 4106 628 3988 
L 628 4550 
Q 988 4650 1302 4700 
Q 1616 4750 1894 4750 
Q 2613 4750 3031 4423 
Q 3450 4097 3450 3541 
Q 3450 3153 3228 2886 
Q 3006 2619 2597 2516 
z
" transform="scale(0.015625)"/>
       </defs>
       <use xlink:href="#DejaVuSans-33" transform="translate(0 0.78125)"/>
       <use xlink:href="#DejaVuSans-30" transform="translate(63.623047 0.78125)"/>
      </g>
     </g>
    </g>
    <g id="ytick_3">
     <g id="line2d_25">
      <path d="M 64.983673 156.022646 
L 500.602213 156.022646 
" clip-path="url(#p29ea1ab764)" style="fill: none; stroke-dasharray: 1.85,0.8; stroke-dashoffset: 0; stroke: #1a1a1a; stroke-opacity: 0.25; stroke-width: 0.5"/>
     </g>
     <g id="line2d_26">
      <g>
       <use xlink:href="#m77673f2bc6" x="500.602213" y="156.022646" style="fill: #262626; stroke: #262626; stroke-width: 0.5"/>
      </g>
     </g>
     <g id="text_8">
      <!-- $\mathdefault{40}$ -->
      <g style="fill: #262626" transform="translate(47.403673 160.201787) scale(0.11 -0.11)">
       <defs>
        <path id="DejaVuSans-34" d="M 2419 4116 
L 825 1625 
L 2419 1625 
L 2419 4116 
z
M 2253 4666 
L 3047 4666 
L 3047 1625 
L 3713 1625 
L 3713 1100 
L 3047 1100 
L 3047 0 
L 2419 0 
L 2419 1100 
L 313 1100 
L 313 1709 
L 2253 4666 
z
" transform="scale(0.015625)"/>
       </defs>
       <use xlink:href="#DejaVuSans-34" transform="translate(0 0.78125)"/>
       <use xlink:href="#DejaVuSans-30" transform="translate(63.623047 0.78125)"/>
      </g>
     </g>
    </g>
    <g id="ytick_4">
     <g id="line2d_27">
      <path d="M 64.983673 108.014072 
L 500.602213 108.014072 
" clip-path="url(#p29ea1ab764)" style="fill: none; stroke-dasharray: 1.85,0.8; stroke-dashoffset: 0; stroke: #1a1a1a; stroke-opacity: 0.25; stroke-width: 0.5"/>
     </g>
     <g id="line2d_28">
      <g>
       <use xlink:href="#m77673f2bc6" x="500.602213" y="108.014072" style="fill: #262626; stroke: #262626; stroke-width: 0.5"/>
      </g>
     </g>
     <g id="text_9">
      <!-- $\mathdefault{50}$ -->
      <g style="fill: #262626" transform="translate(47.403673 112.193213) scale(0.11 -0.11)">
       <defs>
        <path id="DejaVuSans-35" d="M 691 4666 
L 3169 4666 
L 3169 4134 
L 1269 4134 
L 1269 2991 
Q 1406 3038 1543 3061 
Q 1681 3084 1819 3084 
Q 2600 3084 3056 2656 
Q 3513 2228 3513 1497 
Q 3513 744 3044 326 
Q 2575 -91 1722 -91 
Q 1428 -91 1123 -41 
Q 819 9 494 109 
L 494 744 
Q 775 591 1075 516 
Q 1375 441 1709 441 
Q 2250 441 2565 725 
Q 2881 1009 2881 1497 
Q 2881 1984 2565 2268 
Q 2250 2553 1709 2553 
Q 1456 2553 1204 2497 
Q 953 2441 691 2322 
L 691 4666 
z
" transform="scale(0.015625)"/>
       </defs>
       <use xlink:href="#DejaVuSans-35" transform="translate(0 0.78125)"/>
       <use xlink:href="#DejaVuSans-30" transform="translate(63.623047 0.78125)"/>
      </g>
     </g>
    </g>
    <g id="ytick_5">
     <g id="line2d_29">
      <path d="M 64.983673 60.005498 
L 500.602213 60.005498 
" clip-path="url(#p29ea1ab764)" style="fill: none; stroke-dasharray: 1.85,0.8; stroke-dashoffset: 0; stroke: #1a1a1a; stroke-opacity: 0.25; stroke-width: 0.5"/>
     </g>
     <g id="line2d_30">
      <g>
       <use xlink:href="#m77673f2bc6" x="500.602213" y="60.005498" style="fill: #262626; stroke: #262626; stroke-width: 0.5"/>
      </g>
     </g>
     <g id="text_10">
      <!-- $\mathdefault{60}$ -->
      <g style="fill: #262626" transform="translate(47.403673 64.184639) scale(0.11 -0.11)">
       <defs>
        <path id="DejaVuSans-36" d="M 2113 2584 
Q 1688 2584 1439 2293 
Q 1191 2003 1191 1497 
Q 1191 994 1439 701 
Q 1688 409 2113 409 
Q 2538 409 2786 701 
Q 3034 994 3034 1497 
Q 3034 2003 2786 2293 
Q 2538 2584 2113 2584 
z
M 3366 4563 
L 3366 3988 
Q 3128 4100 2886 4159 
Q 2644 4219 2406 4219 
Q 1781 4219 1451 3797 
Q 1122 3375 1075 2522 
Q 1259 2794 1537 2939 
Q 1816 3084 2150 3084 
Q 2853 3084 3261 2657 
Q 3669 2231 3669 1497 
Q 3669 778 3244 343 
Q 2819 -91 2113 -91 
Q 1303 -91 875 529 
Q 447 1150 447 2328 
Q 447 3434 972 4092 
Q 1497 4750 2381 4750 
Q 2619 4750 2861 4703 
Q 3103 4656 3366 4563 
z
" transform="scale(0.015625)"/>
       </defs>
       <use xlink:href="#DejaVuSans-36" transform="translate(0 0.78125)"/>
       <use xlink:href="#DejaVuSans-30" transform="translate(63.623047 0.78125)"/>
      </g>
     </g>
    </g>
    <g id="ytick_6">
     <g id="line2d_31">
      <defs>
       <path id="m08c98b5797" d="M 0 0 
L -1.5 0 
" style="stroke: #262626; stroke-width: 0.5"/>
      </defs>
      <g>
       <use xlink:href="#m08c98b5797" x="500.602213" y="290.446652" style="fill: #262626; stroke: #262626; stroke-width: 0.5"/>
      </g>
     </g>
    </g>
    <g id="ytick_7">
     <g id="line2d_32">
      <g>
       <use xlink:href="#m08c98b5797" x="500.602213" y="280.844938" style="fill: #262626; stroke: #262626; stroke-width: 0.5"/>
      </g>
     </g>
    </g>
    <g id="ytick_8">
     <g id="line2d_33">
      <g>
       <use xlink:href="#m08c98b5797" x="500.602213" y="271.243223" style="fill: #262626; stroke: #262626; stroke-width: 0.5"/>
      </g>
     </g>
    </g>
    <g id="ytick_9">
     <g id="line2d_34">
      <g>
       <use xlink:href="#m08c98b5797" x="500.602213" y="261.641508" style="fill: #262626; stroke: #262626; stroke-width: 0.5"/>
      </g>
     </g>
    </g>
    <g id="ytick_10">
     <g id="line2d_35">
      <g>
       <use xlink:href="#m08c98b5797" x="500.602213" y="242.438079" style="fill: #262626; stroke: #262626; stroke-width: 0.5"/>
      </g>
     </g>
    </g>
    <g id="ytick_11">
     <g id="line2d_36">
      <g>
       <use xlink:href="#m08c98b5797" x="500.602213" y="232.836364" style="fill: #262626; stroke: #262626; stroke-width: 0.5"/>
      </g>
     </g>
    </g>
    <g id="ytick_12">
     <g id="line2d_37">
      <g>
       <use xlink:href="#m08c98b5797" x="500.602213" y="223.234649" style="fill: #262626; stroke: #262626; stroke-width: 0.5"/>
      </g>
     </g>
    </g>
    <g id="ytick_13">
     <g id="line2d_38">
      <g>
       <use xlink:href="#m08c98b5797" x="500.602213" y="213.632934" style="fill: #262626; stroke: #262626; stroke-width: 0.5"/>
      </g>
     </g>
    </g>
    <g id="ytick_14">
     <g id="line2d_39">
      <g>
       <use xlink:href="#m08c98b5797" x="500.602213" y="194.429505" style="fill: #262626; stroke: #262626; stroke-width: 0.5"/>
      </g>
     </g>
    </g>
    <g id="ytick_15">
     <g id="line2d_40">
      <g>
       <use xlink:href="#m08c98b5797" x="500.602213" y="184.82779" style="fill: #262626; stroke: #262626; stroke-width: 0.5"/>
      </g>
     </g>
    </g>
    <g id="ytick_16">
     <g id="line2d_41">
      <g>
       <use xlink:href="#m08c98b5797" x="500.602213" y="175.226075" style="fill: #262626; stroke: #262626; stroke-width: 0.5"/>
      </g>
     </g>
    </g>
    <g id="ytick_17">
     <g id="line2d_42">
      <g>
       <use xlink:href="#m08c98b5797" x="500.602213" y="165.624361" style="fill: #262626; stroke: #262626; stroke-width: 0.5"/>
      </g>
     </g>
    </g>
    <g id="ytick_18">
     <g id="line2d_43">
      <g>
       <use xlink:href="#m08c98b5797" x="500.602213" y="146.420931" style="fill: #262626; stroke: #262626; stroke-width: 0.5"/>
      </g>
     </g>
    </g>
    <g id="ytick_19">
     <g id="line2d_44">
      <g>
       <use xlink:href="#m08c98b5797" x="500.602213" y="136.819216" style="fill: #262626; stroke: #262626; stroke-width: 0.5"/>
      </g>
     </g>
    </g>
    <g id="ytick_20">
     <g id="line2d_45">
      <g>
       <use xlink:href="#m08c98b5797" x="500.602213" y="127.217502" style="fill: #262626; stroke: #262626; stroke-width: 0.5"/>
      </g>
     </g>
    </g>
    <g id="ytick_21">
     <g id="line2d_46">
      <g>
       <use xlink:href="#m08c98b5797" x="500.602213" y="117.615787" style="fill: #262626; stroke: #262626; stroke-width: 0.5"/>
      </g>
     </g>
    </g>
    <g id="ytick_22">
     <g id="line2d_47">
      <g>
       <use xlink:href="#m08c98b5797" x="500.602213" y="98.412357" style="fill: #262626; stroke: #262626; stroke-width: 0.5"/>
      </g>
     </g>
    </g>
    <g id="ytick_23">
     <g id="line2d_48">
      <g>
       <use xlink:href="#m08c98b5797" x="500.602213" y="88.810643" style="fill: #262626; stroke: #262626; stroke-width: 0.5"/>
      </g>
     </g>
    </g>
    <g id="ytick_24">
     <g id="line2d_49">
      <g>
       <use xlink:href="#m08c98b5797" x="500.602213" y="79.208928" style="fill: #262626; stroke: #262626; stroke-width: 0.5"/>
      </g>
     </g>
    </g>
    <g id="ytick_25">
     <g id="line2d_50">
      <g>
       <use xlink:href="#m08c98b5797" x="500.602213" y="69.607213" style="fill: #262626; stroke: #262626; stroke-width: 0.5"/>
      </g>
     </g>
    </g>
    <g id="ytick_26">
     <g id="line2d_51">
      <g>
       <use xlink:href="#m08c98b5797" x="500.602213" y="50.403784" style="fill: #262626; stroke: #262626; stroke-width: 0.5"/>
      </g>
     </g>
    </g>
    <g id="ytick_27">
     <g id="line2d_52">
      <g>
       <use xlink:href="#m08c98b5797" x="500.602213" y="40.802069" style="fill: #262626; stroke: #262626; stroke-width: 0.5"/>
      </g>
     </g>
    </g>
    <g id="ytick_28">
     <g id="line2d_53">
      <g>
       <use xlink:href="#m08c98b5797" x="500.602213" y="31.200354" style="fill: #262626; stroke: #262626; stroke-width: 0.5"/>
      </g>
     </g>
    </g>
    <g id="ytick_29">
     <g id="line2d_54">
      <g>
       <use xlink:href="#m08c98b5797" x="500.602213" y="21.598639" style="fill: #262626; stroke: #262626; stroke-width: 0.5"/>
      </g>
     </g>
    </g>
    <g id="text_11">
     <!-- Age (years) -->
     <g style="fill: #262626" transform="translate(40.908048 190.728896) rotate(-90) scale(0.12 -0.12)">
      <defs>
       <path id="DejaVuSans-41" d="M 2188 4044 
L 1331 1722 
L 3047 1722 
L 2188 4044 
z
M 1831 4666 
L 2547 4666 
L 4325 0 
L 3669 0 
L 3244 1197 
L 1141 1197 
L 716 0 
L 50 0 
L 1831 4666 
z
" transform="scale(0.015625)"/>
       <path id="DejaVuSans-67" d="M 2906 1791 
Q 2906 2416 2648 2759 
Q 2391 3103 1925 3103 
Q 1463 3103 1205 2759 
Q 947 2416 947 1791 
Q 947 1169 1205 825 
Q 1463 481 1925 481 
Q 2391 481 2648 825 
Q 2906 1169 2906 1791 
z
M 3481 434 
Q 3481 -459 3084 -895 
Q 2688 -1331 1869 -1331 
Q 1566 -1331 1297 -1286 
Q 1028 -1241 775 -1147 
L 775 -588 
Q 1028 -725 1275 -790 
Q 1522 -856 1778 -856 
Q 2344 -856 2625 -561 
Q 2906 -266 2906 331 
L 2906 616 
Q 2728 306 2450 153 
Q 2172 0 1784 0 
Q 1141 0 747 490 
Q 353 981 353 1791 
Q 353 2603 747 3093 
Q 1141 3584 1784 3584 
Q 2172 3584 2450 3431 
Q 2728 3278 2906 2969 
L 2906 3500 
L 3481 3500 
L 3481 434 
z
" transform="scale(0.015625)"/>
       <path id="DejaVuSans-28" d="M 1984 4856 
Q 1566 4138 1362 3434 
Q 1159 2731 1159 2009 
Q 1159 1288 1364 580 
Q 1569 -128 1984 -844 
L 1484 -844 
Q 1016 -109 783 600 
Q 550 1309 550 2009 
Q 550 2706 781 3412 
Q 1013 4119 1484 4856 
L 1984 4856 
z
" transform="scale(0.015625)"/>
       <path id="DejaVuSans-29" d="M 513 4856 
L 1013 4856 
Q 1481 4119 1714 3412 
Q 1947 2706 1947 2009 
Q 1947 1309 1714 600 
Q 1481 -109 1013 -844 
L 513 -844 
Q 928 -128 1133 580 
Q 1338 1288 1338 2009 
Q 1338 2731 1133 3434 
Q 928 4138 513 4856 
z
" transform="scale(0.015625)"/>
      </defs>
      <use xlink:href="#DejaVuSans-41"/>
      <use xlink:href="#DejaVuSans-67" transform="translate(68.408203 0)"/>
      <use xlink:href="#DejaVuSans-65" transform="translate(131.884766 0)"/>
      <use xlink:href="#DejaVuSans-20" transform="translate(193.408203 0)"/>
      <use xlink:href="#DejaVuSans-28" transform="translate(225.195312 0)"/>
      <use xlink:href="#DejaVuSans-79" transform="translate(264.208984 0)"/>
      <use xlink:href="#DejaVuSans-65" transform="translate(323.388672 0)"/>
      <use xlink:href="#DejaVuSans-61" transform="translate(384.912109 0)"/>
      <use xlink:href="#DejaVuSans-72" transform="translate(446.191406 0)"/>
      <use xlink:href="#DejaVuSans-73" transform="translate(487.304688 0)"/>
      <use xlink:href="#DejaVuSans-29" transform="translate(539.404297 0)"/>
     </g>
    </g>
   </g>
   <g id="FillBetweenPolyCollection_1">
    <defs>
     <path id="m2327e2edbe" d="M 156.021461 -68.82051 
L 82.85052 -68.82051 
L 81.586472 -69.111471 
L 80.463251 -69.402432 
L 79.478119 -69.693393 
L 78.625897 -69.984354 
L 77.899964 -70.275315 
L 77.293278 -70.566276 
L 76.799318 -70.857237 
L 76.412846 -71.148198 
L 76.130435 -71.439159 
L 75.950686 -71.730121 
L 75.874136 -72.021082 
L 75.902869 -72.312043 
L 76.039867 -72.603004 
L 76.288187 -72.893965 
L 76.650044 -73.184926 
L 77.125907 -73.475887 
L 77.71369 -73.766848 
L 78.408134 -74.057809 
L 79.200423 -74.34877 
L 80.078089 -74.639731 
L 81.025188 -74.930692 
L 82.022737 -75.221653 
L 83.049369 -75.512614 
L 84.082136 -75.803575 
L 85.097397 -76.094536 
L 86.071717 -76.385497 
L 86.982729 -76.676458 
L 87.809898 -76.967419 
L 88.535165 -77.258381 
L 89.143466 -77.549342 
L 89.623109 -77.840303 
L 89.966051 -78.131264 
L 90.168067 -78.422225 
L 90.228852 -78.713186 
L 90.152059 -79.004147 
L 89.945283 -79.295108 
L 89.619982 -79.586069 
L 89.191326 -79.87703 
L 88.67795 -80.167991 
L 88.101583 -80.458952 
L 87.486545 -80.749913 
L 86.859084 -81.040874 
L 86.24657 -81.331835 
L 85.676564 -81.622796 
L 85.175789 -81.913757 
L 84.769067 -82.204718 
L 84.478291 -82.495679 
L 84.321486 -82.786641 
L 84.312054 -83.077602 
L 84.458237 -83.368563 
L 84.762872 -83.659524 
L 85.22343 -83.950485 
L 85.832368 -84.241446 
L 86.577741 -84.532407 
L 87.444044 -84.823368 
L 88.413203 -85.114329 
L 89.465645 -85.40529 
L 90.581355 -85.696251 
L 91.740861 -85.987212 
L 92.926059 -86.278173 
L 94.120844 -86.569134 
L 95.311523 -86.860095 
L 96.487 -87.151056 
L 97.638748 -87.442017 
L 98.760609 -87.732978 
L 99.84847 -88.023939 
L 100.899846 -88.314901 
L 101.913463 -88.605862 
L 102.888835 -88.896823 
L 103.825926 -89.187784 
L 104.724871 -89.478745 
L 105.585812 -89.769706 
L 106.408807 -90.060667 
L 107.193827 -90.351628 
L 107.940814 -90.642589 
L 108.649767 -90.93355 
L 109.320844 -91.224511 
L 109.954447 -91.515472 
L 110.551293 -91.806433 
L 111.112432 -92.097394 
L 111.639245 -92.388355 
L 112.133391 -92.679316 
L 112.596738 -92.970277 
L 113.031275 -93.261238 
L 113.439016 -93.552199 
L 113.821927 -93.843161 
L 114.181848 -94.134122 
L 114.52046 -94.425083 
L 114.839263 -94.716044 
L 115.139579 -95.007005 
L 115.422577 -95.297966 
L 115.689308 -95.588927 
L 115.940745 -95.879888 
L 116.177818 -96.170849 
L 116.401446 -96.46181 
L 116.61255 -96.752771 
L 116.812059 -97.043732 
L 117.000901 -97.334693 
L 117.179978 -97.625654 
L 121.692003 -97.625654 
L 121.692003 -97.625654 
L 121.87108 -97.334693 
L 122.059921 -97.043732 
L 122.259431 -96.752771 
L 122.470535 -96.46181 
L 122.694162 -96.170849 
L 122.931236 -95.879888 
L 123.182673 -95.588927 
L 123.449404 -95.297966 
L 123.732402 -95.007005 
L 124.032718 -94.716044 
L 124.351521 -94.425083 
L 124.690133 -94.134122 
L 125.050054 -93.843161 
L 125.432964 -93.552199 
L 125.840706 -93.261238 
L 126.275243 -92.970277 
L 126.73859 -92.679316 
L 127.232736 -92.388355 
L 127.759549 -92.097394 
L 128.320688 -91.806433 
L 128.917533 -91.515472 
L 129.551137 -91.224511 
L 130.222213 -90.93355 
L 130.931167 -90.642589 
L 131.678154 -90.351628 
L 132.463174 -90.060667 
L 133.286168 -89.769706 
L 134.147109 -89.478745 
L 135.046055 -89.187784 
L 135.983146 -88.896823 
L 136.958518 -88.605862 
L 137.972134 -88.314901 
L 139.023511 -88.023939 
L 140.111371 -87.732978 
L 141.233233 -87.442017 
L 142.384981 -87.151056 
L 143.560458 -86.860095 
L 144.751137 -86.569134 
L 145.945922 -86.278173 
L 147.131119 -85.987212 
L 148.290626 -85.696251 
L 149.406336 -85.40529 
L 150.458777 -85.114329 
L 151.427936 -84.823368 
L 152.29424 -84.532407 
L 153.039613 -84.241446 
L 153.648551 -83.950485 
L 154.109109 -83.659524 
L 154.413743 -83.368563 
L 154.559927 -83.077602 
L 154.550495 -82.786641 
L 154.39369 -82.495679 
L 154.102914 -82.204718 
L 153.696192 -81.913757 
L 153.195417 -81.622796 
L 152.625411 -81.331835 
L 152.012897 -81.040874 
L 151.385436 -80.749913 
L 150.770398 -80.458952 
L 150.194031 -80.167991 
L 149.680655 -79.87703 
L 149.251999 -79.586069 
L 148.926698 -79.295108 
L 148.719922 -79.004147 
L 148.643129 -78.713186 
L 148.703914 -78.422225 
L 148.90593 -78.131264 
L 149.248872 -77.840303 
L 149.728515 -77.549342 
L 150.336815 -77.258381 
L 151.062083 -76.967419 
L 151.889251 -76.676458 
L 152.800264 -76.385497 
L 153.774584 -76.094536 
L 154.789845 -75.803575 
L 155.822612 -75.512614 
L 156.849244 -75.221653 
L 157.846793 -74.930692 
L 158.793891 -74.639731 
L 159.671558 -74.34877 
L 160.463847 -74.057809 
L 161.158291 -73.766848 
L 161.746074 -73.475887 
L 162.221937 -73.184926 
L 162.583794 -72.893965 
L 162.832114 -72.603004 
L 162.969111 -72.312043 
L 162.997844 -72.021082 
L 162.921295 -71.730121 
L 162.741546 -71.439159 
L 162.459135 -71.148198 
L 162.072663 -70.857237 
L 161.578702 -70.566276 
L 160.972017 -70.275315 
L 160.246084 -69.984354 
L 159.393862 -69.693393 
L 158.40873 -69.402432 
L 157.285509 -69.111471 
L 156.021461 -68.82051 
z
" style="stroke: #343434; stroke-width: 1.25"/>
    </defs>
    <g clip-path="url(#p29ea1ab764)">
     <use xlink:href="#m2327e2edbe" x="0" y="349.665448" style="fill: #df2020; stroke: #343434; stroke-width: 1.25"/>
    </g>
   </g>
   <g id="FillBetweenPolyCollection_2">
    <defs>
     <path id="m2fc925c0d8" d="M 235.07096 -102.426512 
L 221.610291 -102.426512 
L 221.559931 -102.571992 
L 221.545315 -102.717473 
L 221.55681 -102.862953 
L 221.58183 -103.008434 
L 221.604959 -103.153914 
L 221.60819 -103.299395 
L 221.571284 -103.444875 
L 221.472231 -103.590356 
L 221.28784 -103.735836 
L 220.994421 -103.881317 
L 220.568585 -104.026797 
L 219.988118 -104.172278 
L 219.232946 -104.317758 
L 218.286145 -104.463239 
L 217.13497 -104.60872 
L 215.771874 -104.7542 
L 214.195452 -104.899681 
L 212.411269 -105.045161 
L 210.432501 -105.190642 
L 208.280328 -105.336122 
L 205.984022 -105.481603 
L 203.580684 -105.627083 
L 201.114588 -105.772564 
L 198.63612 -105.918044 
L 196.200327 -106.063525 
L 193.86511 -106.209005 
L 191.689132 -106.354486 
L 189.729523 -106.499966 
L 188.039508 -106.645447 
L 186.666079 -106.790927 
L 185.647843 -106.936408 
L 185.013171 -107.081888 
L 184.778771 -107.227369 
L 184.948766 -107.37285 
L 185.514337 -107.51833 
L 186.453958 -107.663811 
L 187.734203 -107.809291 
L 189.311084 -107.954772 
L 191.131834 -108.100252 
L 193.137027 -108.245733 
L 195.262928 -108.391213 
L 197.44394 -108.536694 
L 199.615028 -108.682174 
L 201.714015 -108.827655 
L 203.68365 -108.973135 
L 205.473395 -109.118616 
L 207.040862 -109.264096 
L 208.352892 -109.409577 
L 209.386268 -109.555057 
L 210.128061 -109.700538 
L 210.57564 -109.846018 
L 210.736372 -109.991499 
L 210.627033 -110.13698 
L 210.272961 -110.28246 
L 209.706998 -110.427941 
L 208.968221 -110.573421 
L 208.100514 -110.718902 
L 207.151012 -110.864382 
L 206.168447 -111.009863 
L 205.201446 -111.155343 
L 204.296843 -111.300824 
L 203.498043 -111.446304 
L 202.843516 -111.591785 
L 202.365489 -111.737265 
L 202.088866 -111.882746 
L 202.030468 -112.028226 
L 202.198593 -112.173707 
L 202.592943 -112.319187 
L 203.204909 -112.464668 
L 204.018192 -112.610148 
L 205.009738 -112.755629 
L 206.150917 -112.90111 
L 207.408885 -113.04659 
L 208.748061 -113.192071 
L 210.131634 -113.337551 
L 211.523024 -113.483032 
L 212.887245 -113.628512 
L 214.192105 -113.773993 
L 215.409201 -113.919473 
L 216.5147 -114.064954 
L 217.489876 -114.210434 
L 218.321426 -114.355915 
L 219.001559 -114.501395 
L 219.527896 -114.646876 
L 219.903198 -114.792356 
L 220.134947 -114.937837 
L 220.234814 -115.083317 
L 220.21804 -115.228798 
L 220.102739 -115.374278 
L 219.909164 -115.519759 
L 219.658943 -115.66524 
L 219.374308 -115.81072 
L 219.077333 -115.956201 
L 218.789206 -116.101681 
L 218.52955 -116.247162 
L 218.315823 -116.392642 
L 218.1628 -116.538123 
L 218.082178 -116.683603 
L 218.082307 -116.829084 
L 238.598944 -116.829084 
L 238.598944 -116.829084 
L 238.599073 -116.683603 
L 238.518451 -116.538123 
L 238.365428 -116.392642 
L 238.1517 -116.247162 
L 237.892045 -116.101681 
L 237.603918 -115.956201 
L 237.306943 -115.81072 
L 237.022308 -115.66524 
L 236.772087 -115.519759 
L 236.578512 -115.374278 
L 236.463211 -115.228798 
L 236.446436 -115.083317 
L 236.546304 -114.937837 
L 236.778053 -114.792356 
L 237.153355 -114.646876 
L 237.679692 -114.501395 
L 238.359825 -114.355915 
L 239.191375 -114.210434 
L 240.166551 -114.064954 
L 241.27205 -113.919473 
L 242.489146 -113.773993 
L 243.794006 -113.628512 
L 245.158227 -113.483032 
L 246.549617 -113.337551 
L 247.93319 -113.192071 
L 249.272366 -113.04659 
L 250.530334 -112.90111 
L 251.671513 -112.755629 
L 252.663059 -112.610148 
L 253.476342 -112.464668 
L 254.088308 -112.319187 
L 254.482658 -112.173707 
L 254.650783 -112.028226 
L 254.592385 -111.882746 
L 254.315762 -111.737265 
L 253.837734 -111.591785 
L 253.183208 -111.446304 
L 252.384407 -111.300824 
L 251.479805 -111.155343 
L 250.512804 -111.009863 
L 249.530239 -110.864382 
L 248.580737 -110.718902 
L 247.71303 -110.573421 
L 246.974253 -110.427941 
L 246.40829 -110.28246 
L 246.054218 -110.13698 
L 245.944878 -109.991499 
L 246.105611 -109.846018 
L 246.55319 -109.700538 
L 247.294983 -109.555057 
L 248.328359 -109.409577 
L 249.640389 -109.264096 
L 251.207856 -109.118616 
L 252.997601 -108.973135 
L 254.967236 -108.827655 
L 257.066223 -108.682174 
L 259.237311 -108.536694 
L 261.418323 -108.391213 
L 263.544224 -108.245733 
L 265.549417 -108.100252 
L 267.370167 -107.954772 
L 268.947048 -107.809291 
L 270.227293 -107.663811 
L 271.166914 -107.51833 
L 271.732484 -107.37285 
L 271.902479 -107.227369 
L 271.66808 -107.081888 
L 271.033408 -106.936408 
L 270.015172 -106.790927 
L 268.641743 -106.645447 
L 266.951728 -106.499966 
L 264.992119 -106.354486 
L 262.81614 -106.209005 
L 260.480924 -106.063525 
L 258.045131 -105.918044 
L 255.566663 -105.772564 
L 253.100567 -105.627083 
L 250.697229 -105.481603 
L 248.400923 -105.336122 
L 246.24875 -105.190642 
L 244.269982 -105.045161 
L 242.485799 -104.899681 
L 240.909377 -104.7542 
L 239.546281 -104.60872 
L 238.395106 -104.463239 
L 237.448304 -104.317758 
L 236.693133 -104.172278 
L 236.112666 -104.026797 
L 235.68683 -103.881317 
L 235.393411 -103.735836 
L 235.20902 -103.590356 
L 235.109967 -103.444875 
L 235.073061 -103.299395 
L 235.076292 -103.153914 
L 235.099421 -103.008434 
L 235.124441 -102.862953 
L 235.135936 -102.717473 
L 235.12132 -102.571992 
L 235.07096 -102.426512 
z
" style="stroke: #343434; stroke-width: 1.25"/>
    </defs>
    <g clip-path="url(#p29ea1ab764)">
     <use xlink:href="#m2fc925c0d8" x="0" y="349.665448" style="fill: #2f7e2f; stroke: #343434; stroke-width: 1.25"/>
    </g>
   </g>
   <g id="FillBetweenPolyCollection_3">
    <defs>
     <path id="mfcabf2678c" d="M 350.305701 -107.227369 
L 324.18482 -107.227369 
L 322.720528 -108.876148 
L 321.178078 -110.524928 
L 319.565204 -112.173707 
L 317.891357 -113.822486 
L 316.167665 -115.471265 
L 314.406847 -117.120045 
L 312.623077 -118.768824 
L 310.831791 -120.417603 
L 309.049448 -122.066383 
L 307.293239 -123.715162 
L 305.580762 -125.363941 
L 303.92965 -127.012721 
L 302.357184 -128.6615 
L 300.879884 -130.310279 
L 299.513102 -131.959058 
L 298.270617 -133.607838 
L 297.164258 -135.256617 
L 296.203564 -136.905396 
L 295.395485 -138.554176 
L 294.744152 -140.202955 
L 294.25071 -141.851734 
L 293.913243 -143.500514 
L 293.726781 -145.149293 
L 293.683406 -146.798072 
L 293.772463 -148.446851 
L 293.980855 -150.095631 
L 294.293449 -151.74441 
L 294.693552 -153.393189 
L 295.163461 -155.041969 
L 295.685069 -156.690748 
L 296.240482 -158.339527 
L 296.81265 -159.988307 
L 297.385958 -161.637086 
L 297.946758 -163.285865 
L 298.483808 -164.934644 
L 298.988606 -166.583424 
L 299.455574 -168.232203 
L 299.882108 -169.880982 
L 300.268467 -171.529762 
L 300.617526 -173.178541 
L 300.934385 -174.82732 
L 301.225883 -176.4761 
L 301.500022 -178.124879 
L 301.765363 -179.773658 
L 302.030406 -181.422437 
L 302.303018 -183.071217 
L 302.589922 -184.719996 
L 302.896297 -186.368775 
L 303.225499 -188.017555 
L 303.578927 -189.666334 
L 303.956026 -191.315113 
L 304.354435 -192.963893 
L 304.770254 -194.612672 
L 305.198416 -196.261451 
L 305.633125 -197.91023 
L 306.068338 -199.55901 
L 306.498248 -201.207789 
L 306.917742 -202.856568 
L 307.322803 -204.505348 
L 307.710826 -206.154127 
L 308.080837 -207.802906 
L 308.433606 -209.451686 
L 308.771634 -211.100465 
L 309.099045 -212.749244 
L 309.421363 -214.398023 
L 309.745217 -216.046803 
L 310.077967 -217.695582 
L 310.427302 -219.344361 
L 310.800813 -220.993141 
L 311.205569 -222.64192 
L 311.647733 -224.290699 
L 312.132219 -225.939479 
L 312.662425 -227.588258 
L 313.240046 -229.237037 
L 313.864978 -230.885817 
L 314.535314 -232.534596 
L 315.247437 -234.183375 
L 315.996198 -235.832154 
L 316.775164 -237.480934 
L 317.576936 -239.129713 
L 318.393496 -240.778492 
L 319.216583 -242.427272 
L 320.038068 -244.076051 
L 320.850308 -245.72483 
L 321.646461 -247.37361 
L 322.420742 -249.022389 
L 323.168622 -250.671168 
L 323.886937 -252.319947 
L 324.573922 -253.968727 
L 325.229172 -255.617506 
L 325.853519 -257.266285 
L 326.44885 -258.915065 
L 327.017881 -260.563844 
L 327.563886 -262.212623 
L 328.090419 -263.861403 
L 328.60104 -265.510182 
L 329.099053 -267.158961 
L 329.587288 -268.80774 
L 330.067924 -270.45652 
L 344.422597 -270.45652 
L 344.422597 -270.45652 
L 344.903233 -268.80774 
L 345.391468 -267.158961 
L 345.889481 -265.510182 
L 346.400102 -263.861403 
L 346.926635 -262.212623 
L 347.47264 -260.563844 
L 348.041671 -258.915065 
L 348.637002 -257.266285 
L 349.261349 -255.617506 
L 349.916599 -253.968727 
L 350.603584 -252.319947 
L 351.321899 -250.671168 
L 352.069779 -249.022389 
L 352.84406 -247.37361 
L 353.640213 -245.72483 
L 354.452453 -244.076051 
L 355.273938 -242.427272 
L 356.097025 -240.778492 
L 356.913585 -239.129713 
L 357.715357 -237.480934 
L 358.494323 -235.832154 
L 359.243084 -234.183375 
L 359.955207 -232.534596 
L 360.625543 -230.885817 
L 361.250475 -229.237037 
L 361.828096 -227.588258 
L 362.358302 -225.939479 
L 362.842788 -224.290699 
L 363.284952 -222.64192 
L 363.689708 -220.993141 
L 364.063219 -219.344361 
L 364.412554 -217.695582 
L 364.745304 -216.046803 
L 365.069158 -214.398023 
L 365.391476 -212.749244 
L 365.718887 -211.100465 
L 366.056915 -209.451686 
L 366.409684 -207.802906 
L 366.779695 -206.154127 
L 367.167718 -204.505348 
L 367.572779 -202.856568 
L 367.992273 -201.207789 
L 368.422183 -199.55901 
L 368.857396 -197.91023 
L 369.292105 -196.261451 
L 369.720267 -194.612672 
L 370.136086 -192.963893 
L 370.534495 -191.315113 
L 370.911594 -189.666334 
L 371.265022 -188.017555 
L 371.594224 -186.368775 
L 371.900599 -184.719996 
L 372.187503 -183.071217 
L 372.460115 -181.422437 
L 372.725158 -179.773658 
L 372.990499 -178.124879 
L 373.264638 -176.4761 
L 373.556136 -174.82732 
L 373.872995 -173.178541 
L 374.222054 -171.529762 
L 374.608413 -169.880982 
L 375.034947 -168.232203 
L 375.501915 -166.583424 
L 376.006713 -164.934644 
L 376.543763 -163.285865 
L 377.104563 -161.637086 
L 377.677871 -159.988307 
L 378.250039 -158.339527 
L 378.805452 -156.690748 
L 379.32706 -155.041969 
L 379.796969 -153.393189 
L 380.197072 -151.74441 
L 380.509666 -150.095631 
L 380.718058 -148.446851 
L 380.807115 -146.798072 
L 380.76374 -145.149293 
L 380.577278 -143.500514 
L 380.239811 -141.851734 
L 379.746369 -140.202955 
L 379.095036 -138.554176 
L 378.286957 -136.905396 
L 377.326263 -135.256617 
L 376.219904 -133.607838 
L 374.977419 -131.959058 
L 373.610637 -130.310279 
L 372.133337 -128.6615 
L 370.560871 -127.012721 
L 368.909759 -125.363941 
L 367.197282 -123.715162 
L 365.441073 -122.066383 
L 363.658729 -120.417603 
L 361.867444 -118.768824 
L 360.083674 -117.120045 
L 358.322856 -115.471265 
L 356.599164 -113.822486 
L 354.925317 -112.173707 
L 353.312443 -110.524928 
L 351.769993 -108.876148 
L 350.305701 -107.227369 
z
" style="stroke: #343434; stroke-width: 1.25"/>
    </defs>
    <g clip-path="url(#p29ea1ab764)">
     <use xlink:href="#mfcabf2678c" x="0" y="349.665448" style="fill: #dfc120; stroke: #343434; stroke-width: 1.25"/>
    </g>
   </g>
   <g id="FillBetweenPolyCollection_4">
    <defs>
     <path id="m66747381f9" d="M 447.757369 -97.625654 
L 444.542422 -97.625654 
L 444.24466 -99.856356 
L 443.899917 -102.087057 
L 443.501038 -104.317758 
L 443.040104 -106.54846 
L 442.508661 -108.779161 
L 441.89811 -111.009863 
L 441.200284 -113.240564 
L 440.408229 -115.471265 
L 439.517154 -117.701967 
L 438.525494 -119.932668 
L 437.435972 -122.16337 
L 436.256507 -124.394071 
L 435.000818 -126.624773 
L 433.688552 -128.855474 
L 432.344808 -131.086175 
L 430.999008 -133.316877 
L 429.683147 -135.547578 
L 428.429541 -137.77828 
L 427.268294 -140.008981 
L 426.224774 -142.239682 
L 425.317382 -144.470384 
L 424.555893 -146.701085 
L 423.940585 -148.931787 
L 423.46223 -151.162488 
L 423.102928 -153.393189 
L 422.83766 -155.623891 
L 422.636301 -157.854592 
L 422.465854 -160.085294 
L 422.292638 -162.315995 
L 422.084211 -164.546696 
L 421.810936 -166.777398 
L 421.447136 -169.008099 
L 420.971911 -171.238801 
L 420.369709 -173.469502 
L 419.630772 -175.700203 
L 418.75154 -177.930905 
L 417.73503 -180.161606 
L 416.591163 -182.392308 
L 415.336911 -184.623009 
L 413.996132 -186.85371 
L 412.598938 -189.084412 
L 411.180488 -191.315113 
L 409.779173 -193.545815 
L 408.434247 -195.776516 
L 407.183085 -198.007218 
L 406.05833 -200.237919 
L 405.085252 -202.46862 
L 404.279672 -204.699322 
L 403.646755 -206.930023 
L 403.180902 -209.160725 
L 402.866815 -211.391426 
L 402.681671 -213.622127 
L 402.598165 -215.852829 
L 402.588042 -218.08353 
L 402.625673 -220.314232 
L 402.691173 -222.544933 
L 402.772636 -224.775634 
L 402.867188 -227.006336 
L 402.980705 -229.237037 
L 403.126282 -231.467739 
L 403.321695 -233.69844 
L 403.586271 -235.929141 
L 403.937658 -238.159843 
L 404.388984 -240.390544 
L 404.946824 -242.621246 
L 405.610229 -244.851947 
L 406.370906 -247.082648 
L 407.214437 -249.31335 
L 408.12226 -251.544051 
L 409.074051 -253.774753 
L 410.050113 -256.005454 
L 411.033405 -258.236155 
L 412.010956 -260.466857 
L 412.974545 -262.697558 
L 413.920646 -264.92826 
L 414.849771 -267.158961 
L 415.765413 -269.389663 
L 416.672827 -271.620364 
L 417.577877 -273.851065 
L 418.486103 -276.081767 
L 419.40213 -278.312468 
L 420.329411 -280.54317 
L 421.270268 -282.773871 
L 422.226133 -285.004572 
L 423.197868 -287.235274 
L 424.186059 -289.465975 
L 425.191204 -291.696677 
L 426.213755 -293.927378 
L 427.254014 -296.158079 
L 428.311909 -298.388781 
L 429.386714 -300.619482 
L 430.476759 -302.850184 
L 431.579171 -305.080885 
L 432.689705 -307.311586 
L 433.802668 -309.542288 
L 434.910949 -311.772989 
L 436.006164 -314.003691 
L 437.078912 -316.234392 
L 438.119131 -318.465093 
L 454.18066 -318.465093 
L 454.18066 -318.465093 
L 455.220879 -316.234392 
L 456.293627 -314.003691 
L 457.388842 -311.772989 
L 458.497123 -309.542288 
L 459.610086 -307.311586 
L 460.72062 -305.080885 
L 461.823032 -302.850184 
L 462.913077 -300.619482 
L 463.987883 -298.388781 
L 465.045777 -296.158079 
L 466.086036 -293.927378 
L 467.108587 -291.696677 
L 468.113732 -289.465975 
L 469.101923 -287.235274 
L 470.073658 -285.004572 
L 471.029523 -282.773871 
L 471.97038 -280.54317 
L 472.897661 -278.312468 
L 473.813688 -276.081767 
L 474.721914 -273.851065 
L 475.626964 -271.620364 
L 476.534378 -269.389663 
L 477.45002 -267.158961 
L 478.379145 -264.92826 
L 479.325246 -262.697558 
L 480.288835 -260.466857 
L 481.266386 -258.236155 
L 482.249678 -256.005454 
L 483.22574 -253.774753 
L 484.177531 -251.544051 
L 485.085354 -249.31335 
L 485.928885 -247.082648 
L 486.689563 -244.851947 
L 487.352967 -242.621246 
L 487.910807 -240.390544 
L 488.362133 -238.159843 
L 488.71352 -235.929141 
L 488.978096 -233.69844 
L 489.173509 -231.467739 
L 489.319086 -229.237037 
L 489.432603 -227.006336 
L 489.527155 -224.775634 
L 489.608618 -222.544933 
L 489.674118 -220.314232 
L 489.71175 -218.08353 
L 489.701627 -215.852829 
L 489.61812 -213.622127 
L 489.432976 -211.391426 
L 489.118889 -209.160725 
L 488.653036 -206.930023 
L 488.02012 -204.699322 
L 487.214539 -202.46862 
L 486.241461 -200.237919 
L 485.116706 -198.007218 
L 483.865544 -195.776516 
L 482.520618 -193.545815 
L 481.119303 -191.315113 
L 479.700853 -189.084412 
L 478.303659 -186.85371 
L 476.96288 -184.623009 
L 475.708628 -182.392308 
L 474.564761 -180.161606 
L 473.548251 -177.930905 
L 472.669019 -175.700203 
L 471.930082 -173.469502 
L 471.32788 -171.238801 
L 470.852655 -169.008099 
L 470.488855 -166.777398 
L 470.21558 -164.546696 
L 470.007153 -162.315995 
L 469.833937 -160.085294 
L 469.66349 -157.854592 
L 469.462131 -155.623891 
L 469.196863 -153.393189 
L 468.837562 -151.162488 
L 468.359206 -148.931787 
L 467.743898 -146.701085 
L 466.98241 -144.470384 
L 466.075017 -142.239682 
L 465.031497 -140.008981 
L 463.87025 -137.77828 
L 462.616644 -135.547578 
L 461.300783 -133.316877 
L 459.954983 -131.086175 
L 458.611239 -128.855474 
L 457.298973 -126.624773 
L 456.043284 -124.394071 
L 454.863819 -122.16337 
L 453.774297 -119.932668 
L 452.782638 -117.701967 
L 451.891563 -115.471265 
L 451.099507 -113.240564 
L 450.401681 -111.009863 
L 449.79113 -108.779161 
L 449.259687 -106.54846 
L 448.798753 -104.317758 
L 448.399874 -102.087057 
L 448.055131 -99.856356 
L 447.757369 -97.625654 
z
" style="stroke: #343434; stroke-width: 1.25"/>
    </defs>
    <g clip-path="url(#p29ea1ab764)">
     <use xlink:href="#m66747381f9" x="0" y="349.665448" style="fill: #5573cd; stroke: #343434; stroke-width: 1.25"/>
    </g>
   </g>
   <g id="line2d_55">
    <path d="M 77.419798 276.04408 
L 161.452182 276.04408 
" clip-path="url(#p29ea1ab764)" style="fill: none; stroke-dasharray: 1.5625,0.9375; stroke-dashoffset: 0; stroke: #343434; stroke-width: 1.25"/>
   </g>
   <g id="line2d_56">
    <path d="M 77.419798 276.04408 
L 161.452182 276.04408 
" clip-path="url(#p29ea1ab764)" style="fill: none; stroke-dasharray: 3.125,1.25; stroke-dashoffset: 0; stroke: #343434; stroke-width: 1.25"/>
   </g>
   <g id="line2d_57">
    <path d="M 84.385146 266.442366 
L 154.486835 266.442366 
" clip-path="url(#p29ea1ab764)" style="fill: none; stroke-dasharray: 1.5625,0.9375; stroke-dashoffset: 0; stroke: #343434; stroke-width: 1.25"/>
   </g>
   <g id="line2d_58">
    <path d="M 184.778771 242.438079 
L 271.902479 242.438079 
" clip-path="url(#p29ea1ab764)" style="fill: none; stroke-dasharray: 1.5625,0.9375; stroke-dashoffset: 0; stroke: #343434; stroke-width: 1.25"/>
   </g>
   <g id="line2d_59">
    <path d="M 184.778771 242.438079 
L 271.902479 242.438079 
" clip-path="url(#p29ea1ab764)" style="fill: none; stroke-dasharray: 3.125,1.25; stroke-dashoffset: 0; stroke: #343434; stroke-width: 1.25"/>
   </g>
   <g id="line2d_60">
    <path d="M 202.030468 237.637221 
L 254.650783 237.637221 
" clip-path="url(#p29ea1ab764)" style="fill: none; stroke-dasharray: 1.5625,0.9375; stroke-dashoffset: 0; stroke: #343434; stroke-width: 1.25"/>
   </g>
   <g id="line2d_61">
    <path d="M 293.714023 204.03122 
L 380.776498 204.03122 
" clip-path="url(#p29ea1ab764)" style="fill: none; stroke-dasharray: 1.5625,0.9375; stroke-dashoffset: 0; stroke: #343434; stroke-width: 1.25"/>
   </g>
   <g id="line2d_62">
    <path d="M 300.85983 175.226075 
L 373.630691 175.226075 
" clip-path="url(#p29ea1ab764)" style="fill: none; stroke-dasharray: 3.125,1.25; stroke-dashoffset: 0; stroke: #343434; stroke-width: 1.25"/>
   </g>
   <g id="line2d_63">
    <path d="M 308.132715 141.620074 
L 366.357806 141.620074 
" clip-path="url(#p29ea1ab764)" style="fill: none; stroke-dasharray: 1.5625,0.9375; stroke-dashoffset: 0; stroke: #343434; stroke-width: 1.25"/>
   </g>
   <g id="line2d_64">
    <path d="M 412.750807 160.823503 
L 479.548984 160.823503 
" clip-path="url(#p29ea1ab764)" style="fill: none; stroke-dasharray: 1.5625,0.9375; stroke-dashoffset: 0; stroke: #343434; stroke-width: 1.25"/>
   </g>
   <g id="line2d_65">
    <path d="M 402.688325 127.217502 
L 489.611466 127.217502 
" clip-path="url(#p29ea1ab764)" style="fill: none; stroke-dasharray: 3.125,1.25; stroke-dashoffset: 0; stroke: #343434; stroke-width: 1.25"/>
   </g>
   <g id="line2d_66">
    <path d="M 410.071489 93.6115 
L 482.228302 93.6115 
" clip-path="url(#p29ea1ab764)" style="fill: none; stroke-dasharray: 1.5625,0.9375; stroke-dashoffset: 0; stroke: #343434; stroke-width: 1.25"/>
   </g>
   <g id="patch_3">
    <path d="M 64.983673 293.327167 
L 64.983673 18.718125 
" style="fill: none; stroke: #cccccc; stroke-width: 0.5; stroke-linejoin: miter; stroke-linecap: square"/>
   </g>
   <g id="patch_4">
    <path d="M 64.983673 293.327167 
L 500.602213 293.327167 
" style="fill: none; stroke: #cccccc; stroke-width: 0.5; stroke-linejoin: miter; stroke-linecap: square"/>
   </g>
   <g id="text_12">
    <!-- Age distribution  violin (outliers excluded) -->
    <g style="fill: #262626" transform="translate(154.19888 12.718125) scale(0.12 -0.12)">
     <defs>
      <path id="DejaVuSans-62" d="M 3116 1747 
Q 3116 2381 2855 2742 
Q 2594 3103 2138 3103 
Q 1681 3103 1420 2742 
Q 1159 2381 1159 1747 
Q 1159 1113 1420 752 
Q 1681 391 2138 391 
Q 2594 391 2855 752 
Q 3116 1113 3116 1747 
z
M 1159 2969 
Q 1341 3281 1617 3432 
Q 1894 3584 2278 3584 
Q 2916 3584 3314 3078 
Q 3713 2572 3713 1747 
Q 3713 922 3314 415 
Q 2916 -91 2278 -91 
Q 1894 -91 1617 61 
Q 1341 213 1159 525 
L 1159 0 
L 581 0 
L 581 4863 
L 1159 4863 
L 1159 2969 
z
" transform="scale(0.015625)"/>
      <path id="DejaVuSans-2013" d="M 313 1978 
L 2888 1978 
L 2888 1528 
L 313 1528 
L 313 1978 
z
" transform="scale(0.015625)"/>
      <path id="DejaVuSans-6c" d="M 603 4863 
L 1178 4863 
L 1178 0 
L 603 0 
L 603 4863 
z
" transform="scale(0.015625)"/>
      <path id="DejaVuSans-78" d="M 3513 3500 
L 2247 1797 
L 3578 0 
L 2900 0 
L 1881 1375 
L 863 0 
L 184 0 
L 1544 1831 
L 300 3500 
L 978 3500 
L 1906 2253 
L 2834 3500 
L 3513 3500 
z
" transform="scale(0.015625)"/>
     </defs>
     <use xlink:href="#DejaVuSans-41"/>
     <use xlink:href="#DejaVuSans-67" transform="translate(68.408203 0)"/>
     <use xlink:href="#DejaVuSans-65" transform="translate(131.884766 0)"/>
     <use xlink:href="#DejaVuSans-20" transform="translate(193.408203 0)"/>
     <use xlink:href="#DejaVuSans-64" transform="translate(225.195312 0)"/>
     <use xlink:href="#DejaVuSans-69" transform="translate(288.671875 0)"/>
     <use xlink:href="#DejaVuSans-73" transform="translate(316.455078 0)"/>
     <use xlink:href="#DejaVuSans-74" transform="translate(368.554688 0)"/>
     <use xlink:href="#DejaVuSans-72" transform="translate(407.763672 0)"/>
     <use xlink:href="#DejaVuSans-69" transform="translate(448.876953 0)"/>
     <use xlink:href="#DejaVuSans-62" transform="translate(476.660156 0)"/>
     <use xlink:href="#DejaVuSans-75" transform="translate(540.136719 0)"/>
     <use xlink:href="#DejaVuSans-74" transform="translate(603.515625 0)"/>
     <use xlink:href="#DejaVuSans-69" transform="translate(642.724609 0)"/>
     <use xlink:href="#DejaVuSans-6f" transform="translate(670.507812 0)"/>
     <use xlink:href="#DejaVuSans-6e" transform="translate(731.689453 0)"/>
     <use xlink:href="#DejaVuSans-20" transform="translate(795.068359 0)"/>
     <use xlink:href="#DejaVuSans-2013" transform="translate(826.855469 0)"/>
     <use xlink:href="#DejaVuSans-20" transform="translate(876.855469 0)"/>
     <use xlink:href="#DejaVuSans-76" transform="translate(908.642578 0)"/>
     <use xlink:href="#DejaVuSans-69" transform="translate(967.822266 0)"/>
     <use xlink:href="#DejaVuSans-6f" transform="translate(995.605469 0)"/>
     <use xlink:href="#DejaVuSans-6c" transform="translate(1056.787109 0)"/>
     <use xlink:href="#DejaVuSans-69" transform="translate(1084.570312 0)"/>
     <use xlink:href="#DejaVuSans-6e" transform="translate(1112.353516 0)"/>
     <use xlink:href="#DejaVuSans-20" transform="translate(1175.732422 0)"/>
     <use xlink:href="#DejaVuSans-28" transform="translate(1207.519531 0)"/>
     <use xlink:href="#DejaVuSans-6f" transform="translate(1246.533203 0)"/>
     <use xlink:href="#DejaVuSans-75" transform="translate(1307.714844 0)"/>
     <use xlink:href="#DejaVuSans-74" transform="translate(1371.09375 0)"/>
     <use xlink:href="#DejaVuSans-6c" transform="translate(1410.302734 0)"/>
     <use xlink:href="#DejaVuSans-69" transform="translate(1438.085938 0)"/>
     <use xlink:href="#DejaVuSans-65" transform="translate(1465.869141 0)"/>
     <use xlink:href="#DejaVuSans-72" transform="translate(1527.392578 0)"/>
     <use xlink:href="#DejaVuSans-73" transform="translate(1568.505859 0)"/>
     <use xlink:href="#DejaVuSans-20" transform="translate(1620.605469 0)"/>
     <use xlink:href="#DejaVuSans-65" transform="translate(1652.392578 0)"/>
     <use xlink:href="#DejaVuSans-78" transform="translate(1712.166016 0)"/>
     <use xlink:href="#DejaVuSans-63" transform="translate(1769.595703 0)"/>
     <use xlink:href="#DejaVuSans-6c" transform="translate(1824.576172 0)"/>
     <use xlink:href="#DejaVuSans-75" transform="translate(1852.359375 0)"/>
     <use xlink:href="#DejaVuSans-64" transform="translate(1915.738281 0)"/>
     <use xlink:href="#DejaVuSans-65" transform="translate(1979.214844 0)"/>
     <use xlink:href="#DejaVuSans-64" transform="translate(2040.738281 0)"/>
     <use xlink:href="#DejaVuSans-29" transform="translate(2104.214844 0)"/>
    </g>
   </g>
  </g>
 </g>
 <defs>
  <clipPath id="p29ea1ab764">
   <rect x="64.983673" y="18.718125" width="435.61854" height="274.609042"/>
  </clipPath>
 </defs>
</svg>
