<?xml version="1.0" encoding="utf-8" standalone="no"?>
<!DOCTYPE svg PUBLIC "-//W3C//DTD SVG 1.1//EN"
  "http://www.w3.org/Graphics/SVG/1.1/DTD/svg11.dtd">
<svg xmlns:xlink="http://www.w3.org/1999/xlink" width="380.832681pt" height="276.869488pt" viewBox="0 0 380.832681 276.869488" xmlns="http://www.w3.org/2000/svg" version="1.1">
 <metadata>
  <rdf:RDF xmlns:dc="http://purl.org/dc/elements/1.1/" xmlns:cc="http://creativecommons.org/ns#" xmlns:rdf="http://www.w3.org/1999/02/22-rdf-syntax-ns#">
   <cc:Work>
    <dc:type rdf:resource="http://purl.org/dc/dcmitype/StillImage"/>
    <dc:date>2025-11-07T11:37:07.661592</dc:date>
    <dc:format>image/svg+xml</dc:format>
    <dc:creator>
     <cc:Agent>
      <dc:title>Matplotlib v3.10.7, https://matplotlib.org/</dc:title>
     </cc:Agent>
    </dc:creator>
   </cc:Work>
  </rdf:RDF>
 </metadata>
 <defs>
  <style type="text/css">*{stroke-linejoin: round; stroke-linecap: butt}</style>
 </defs>
 <g id="figure_1">
  <g id="patch_1">
   <path d="M 0 276.869488 
L 380.832681 276.869488 
L 380.832681 0 
L 0 0 
z
" style="fill: #ffffff"/>
  </g>
  <g id="axes_1">
   <g id="patch_2">
    <path d="M 34.906499 233.993042 
L 377.232681 233.993042 
L 377.232681 17.198437 
L 34.906499 17.198437 
z
" style="fill: #ffffff"/>
   </g>
   <g id="matplotlib.axis_1">
    <g id="xtick_1">
     <g id="line2d_1">
      <defs>
       <path id="mb9dcd48f94" d="M 0 0 
L 0 3 
" style="stroke: #262626; stroke-width: 0.5"/>
      </defs>
      <g>
       <use xlink:href="#mb9dcd48f94" x="77.697272" y="17.198437" style="fill: #262626; stroke: #262626; stroke-width: 0.5"/>
      </g>
     </g>
     <g id="text_1">
      <!-- studenti - secondaria -->
      <g style="fill: #262626" transform="translate(4.523618 255.589057) rotate(-10) scale(0.07 -0.07)">
       <defs>
        <path id="DejaVuSans-73" d="M 2834 3397 
L 2834 2853 
Q 2591 2978 2328 3040 
Q 2066 3103 1784 3103 
Q 1356 3103 1142 2972 
Q 928 2841 928 2578 
Q 928 2378 1081 2264 
Q 1234 2150 1697 2047 
L 1894 2003 
Q 2506 1872 2764 1633 
Q 3022 1394 3022 966 
Q 3022 478 2636 193 
Q 2250 -91 1575 -91 
Q 1294 -91 989 -36 
Q 684 19 347 128 
L 347 722 
Q 666 556 975 473 
Q 1284 391 1588 391 
Q 1994 391 2212 530 
Q 2431 669 2431 922 
Q 2431 1156 2273 1281 
Q 2116 1406 1581 1522 
L 1381 1569 
Q 847 1681 609 1914 
Q 372 2147 372 2553 
Q 372 3047 722 3315 
Q 1072 3584 1716 3584 
Q 2034 3584 2315 3537 
Q 2597 3491 2834 3397 
z
" transform="scale(0.015625)"/>
        <path id="DejaVuSans-74" d="M 1172 4494 
L 1172 3500 
L 2356 3500 
L 2356 3053 
L 1172 3053 
L 1172 1153 
Q 1172 725 1289 603 
Q 1406 481 1766 481 
L 2356 481 
L 2356 0 
L 1766 0 
Q 1100 0 847 248 
Q 594 497 594 1153 
L 594 3053 
L 172 3053 
L 172 3500 
L 594 3500 
L 594 4494 
L 1172 4494 
z
" transform="scale(0.015625)"/>
        <path id="DejaVuSans-75" d="M 544 1381 
L 544 3500 
L 1119 3500 
L 1119 1403 
Q 1119 906 1312 657 
Q 1506 409 1894 409 
Q 2359 409 2629 706 
Q 2900 1003 2900 1516 
L 2900 3500 
L 3475 3500 
L 3475 0 
L 2900 0 
L 2900 538 
Q 2691 219 2414 64 
Q 2138 -91 1772 -91 
Q 1169 -91 856 284 
Q 544 659 544 1381 
z
M 1991 3584 
L 1991 3584 
z
" transform="scale(0.015625)"/>
        <path id="DejaVuSans-64" d="M 2906 2969 
L 2906 4863 
L 3481 4863 
L 3481 0 
L 2906 0 
L 2906 525 
Q 2725 213 2448 61 
Q 2172 -91 1784 -91 
Q 1150 -91 751 415 
Q 353 922 353 1747 
Q 353 2572 751 3078 
Q 1150 3584 1784 3584 
Q 2172 3584 2448 3432 
Q 2725 3281 2906 2969 
z
M 947 1747 
Q 947 1113 1208 752 
Q 1469 391 1925 391 
Q 2381 391 2643 752 
Q 2906 1113 2906 1747 
Q 2906 2381 2643 2742 
Q 2381 3103 1925 3103 
Q 1469 3103 1208 2742 
Q 947 2381 947 1747 
z
" transform="scale(0.015625)"/>
        <path id="DejaVuSans-65" d="M 3597 1894 
L 3597 1613 
L 953 1613 
Q 991 1019 1311 708 
Q 1631 397 2203 397 
Q 2534 397 2845 478 
Q 3156 559 3463 722 
L 3463 178 
Q 3153 47 2828 -22 
Q 2503 -91 2169 -91 
Q 1331 -91 842 396 
Q 353 884 353 1716 
Q 353 2575 817 3079 
Q 1281 3584 2069 3584 
Q 2775 3584 3186 3129 
Q 3597 2675 3597 1894 
z
M 3022 2063 
Q 3016 2534 2758 2815 
Q 2500 3097 2075 3097 
Q 1594 3097 1305 2825 
Q 1016 2553 972 2059 
L 3022 2063 
z
" transform="scale(0.015625)"/>
        <path id="DejaVuSans-6e" d="M 3513 2113 
L 3513 0 
L 2938 0 
L 2938 2094 
Q 2938 2591 2744 2837 
Q 2550 3084 2163 3084 
Q 1697 3084 1428 2787 
Q 1159 2491 1159 1978 
L 1159 0 
L 581 0 
L 581 3500 
L 1159 3500 
L 1159 2956 
Q 1366 3272 1645 3428 
Q 1925 3584 2291 3584 
Q 2894 3584 3203 3211 
Q 3513 2838 3513 2113 
z
" transform="scale(0.015625)"/>
        <path id="DejaVuSans-69" d="M 603 3500 
L 1178 3500 
L 1178 0 
L 603 0 
L 603 3500 
z
M 603 4863 
L 1178 4863 
L 1178 4134 
L 603 4134 
L 603 4863 
z
" transform="scale(0.015625)"/>
        <path id="DejaVuSans-20" transform="scale(0.015625)"/>
        <path id="DejaVuSans-2d" d="M 313 2009 
L 1997 2009 
L 1997 1497 
L 313 1497 
L 313 2009 
z
" transform="scale(0.015625)"/>
        <path id="DejaVuSans-63" d="M 3122 3366 
L 3122 2828 
Q 2878 2963 2633 3030 
Q 2388 3097 2138 3097 
Q 1578 3097 1268 2742 
Q 959 2388 959 1747 
Q 959 1106 1268 751 
Q 1578 397 2138 397 
Q 2388 397 2633 464 
Q 2878 531 3122 666 
L 3122 134 
Q 2881 22 2623 -34 
Q 2366 -91 2075 -91 
Q 1284 -91 818 406 
Q 353 903 353 1747 
Q 353 2603 823 3093 
Q 1294 3584 2113 3584 
Q 2378 3584 2631 3529 
Q 2884 3475 3122 3366 
z
" transform="scale(0.015625)"/>
        <path id="DejaVuSans-6f" d="M 1959 3097 
Q 1497 3097 1228 2736 
Q 959 2375 959 1747 
Q 959 1119 1226 758 
Q 1494 397 1959 397 
Q 2419 397 2687 759 
Q 2956 1122 2956 1747 
Q 2956 2369 2687 2733 
Q 2419 3097 1959 3097 
z
M 1959 3584 
Q 2709 3584 3137 3096 
Q 3566 2609 3566 1747 
Q 3566 888 3137 398 
Q 2709 -91 1959 -91 
Q 1206 -91 779 398 
Q 353 888 353 1747 
Q 353 2609 779 3096 
Q 1206 3584 1959 3584 
z
" transform="scale(0.015625)"/>
        <path id="DejaVuSans-61" d="M 2194 1759 
Q 1497 1759 1228 1600 
Q 959 1441 959 1056 
Q 959 750 1161 570 
Q 1363 391 1709 391 
Q 2188 391 2477 730 
Q 2766 1069 2766 1631 
L 2766 1759 
L 2194 1759 
z
M 3341 1997 
L 3341 0 
L 2766 0 
L 2766 531 
Q 2569 213 2275 61 
Q 1981 -91 1556 -91 
Q 1019 -91 701 211 
Q 384 513 384 1019 
Q 384 1609 779 1909 
Q 1175 2209 1959 2209 
L 2766 2209 
L 2766 2266 
Q 2766 2663 2505 2880 
Q 2244 3097 1772 3097 
Q 1472 3097 1187 3025 
Q 903 2953 641 2809 
L 641 3341 
Q 956 3463 1253 3523 
Q 1550 3584 1831 3584 
Q 2591 3584 2966 3190 
Q 3341 2797 3341 1997 
z
" transform="scale(0.015625)"/>
        <path id="DejaVuSans-72" d="M 2631 2963 
Q 2534 3019 2420 3045 
Q 2306 3072 2169 3072 
Q 1681 3072 1420 2755 
Q 1159 2438 1159 1844 
L 1159 0 
L 581 0 
L 581 3500 
L 1159 3500 
L 1159 2956 
Q 1341 3275 1631 3429 
Q 1922 3584 2338 3584 
Q 2397 3584 2469 3576 
Q 2541 3569 2628 3553 
L 2631 2963 
z
" transform="scale(0.015625)"/>
       </defs>
       <use xlink:href="#DejaVuSans-73"/>
       <use xlink:href="#DejaVuSans-74" transform="translate(52.099609 0)"/>
       <use xlink:href="#DejaVuSans-75" transform="translate(91.308594 0)"/>
       <use xlink:href="#DejaVuSans-64" transform="translate(154.6875 0)"/>
       <use xlink:href="#DejaVuSans-65" transform="translate(218.164062 0)"/>
       <use xlink:href="#DejaVuSans-6e" transform="translate(279.6875 0)"/>
       <use xlink:href="#DejaVuSans-74" transform="translate(343.066406 0)"/>
       <use xlink:href="#DejaVuSans-69" transform="translate(382.275391 0)"/>
       <use xlink:href="#DejaVuSans-20" transform="translate(410.058594 0)"/>
       <use xlink:href="#DejaVuSans-2d" transform="translate(441.845703 0)"/>
       <use xlink:href="#DejaVuSans-20" transform="translate(477.929688 0)"/>
       <use xlink:href="#DejaVuSans-73" transform="translate(509.716797 0)"/>
       <use xlink:href="#DejaVuSans-65" transform="translate(561.816406 0)"/>
       <use xlink:href="#DejaVuSans-63" transform="translate(623.339844 0)"/>
       <use xlink:href="#DejaVuSans-6f" transform="translate(678.320312 0)"/>
       <use xlink:href="#DejaVuSans-6e" transform="translate(739.501953 0)"/>
       <use xlink:href="#DejaVuSans-64" transform="translate(802.880859 0)"/>
       <use xlink:href="#DejaVuSans-61" transform="translate(866.357422 0)"/>
       <use xlink:href="#DejaVuSans-72" transform="translate(927.636719 0)"/>
       <use xlink:href="#DejaVuSans-69" transform="translate(968.75 0)"/>
       <use xlink:href="#DejaVuSans-61" transform="translate(996.533203 0)"/>
      </g>
     </g>
    </g>
    <g id="xtick_2">
     <g id="line2d_2">
      <g>
       <use xlink:href="#mb9dcd48f94" x="163.278817" y="17.198437" style="fill: #262626; stroke: #262626; stroke-width: 0.5"/>
      </g>
     </g>
     <g id="text_2">
      <!-- studenti - universitari -->
      <g style="fill: #262626" transform="translate(88.898774 255.801776) rotate(-10) scale(0.07 -0.07)">
       <defs>
        <path id="DejaVuSans-76" d="M 191 3500 
L 800 3500 
L 1894 563 
L 2988 3500 
L 3597 3500 
L 2284 0 
L 1503 0 
L 191 3500 
z
" transform="scale(0.015625)"/>
       </defs>
       <use xlink:href="#DejaVuSans-73"/>
       <use xlink:href="#DejaVuSans-74" transform="translate(52.099609 0)"/>
       <use xlink:href="#DejaVuSans-75" transform="translate(91.308594 0)"/>
       <use xlink:href="#DejaVuSans-64" transform="translate(154.6875 0)"/>
       <use xlink:href="#DejaVuSans-65" transform="translate(218.164062 0)"/>
       <use xlink:href="#DejaVuSans-6e" transform="translate(279.6875 0)"/>
       <use xlink:href="#DejaVuSans-74" transform="translate(343.066406 0)"/>
       <use xlink:href="#DejaVuSans-69" transform="translate(382.275391 0)"/>
       <use xlink:href="#DejaVuSans-20" transform="translate(410.058594 0)"/>
       <use xlink:href="#DejaVuSans-2d" transform="translate(441.845703 0)"/>
       <use xlink:href="#DejaVuSans-20" transform="translate(477.929688 0)"/>
       <use xlink:href="#DejaVuSans-75" transform="translate(509.716797 0)"/>
       <use xlink:href="#DejaVuSans-6e" transform="translate(573.095703 0)"/>
       <use xlink:href="#DejaVuSans-69" transform="translate(636.474609 0)"/>
       <use xlink:href="#DejaVuSans-76" transform="translate(664.257812 0)"/>
       <use xlink:href="#DejaVuSans-65" transform="translate(723.4375 0)"/>
       <use xlink:href="#DejaVuSans-72" transform="translate(784.960938 0)"/>
       <use xlink:href="#DejaVuSans-73" transform="translate(826.074219 0)"/>
       <use xlink:href="#DejaVuSans-69" transform="translate(878.173828 0)"/>
       <use xlink:href="#DejaVuSans-74" transform="translate(905.957031 0)"/>
       <use xlink:href="#DejaVuSans-61" transform="translate(945.166016 0)"/>
       <use xlink:href="#DejaVuSans-72" transform="translate(1006.445312 0)"/>
       <use xlink:href="#DejaVuSans-69" transform="translate(1047.558594 0)"/>
      </g>
     </g>
    </g>
    <g id="xtick_3">
     <g id="line2d_3">
      <g>
       <use xlink:href="#mb9dcd48f94" x="248.860363" y="17.198437" style="fill: #262626; stroke: #262626; stroke-width: 0.5"/>
      </g>
     </g>
     <g id="text_3">
      <!-- insegnanti - non in servizio -->
      <g style="fill: #262626" transform="translate(155.630484 259.125511) rotate(-10) scale(0.07 -0.07)">
       <defs>
        <path id="DejaVuSans-67" d="M 2906 1791 
Q 2906 2416 2648 2759 
Q 2391 3103 1925 3103 
Q 1463 3103 1205 2759 
Q 947 2416 947 1791 
Q 947 1169 1205 825 
Q 1463 481 1925 481 
Q 2391 481 2648 825 
Q 2906 1169 2906 1791 
z
M 3481 434 
Q 3481 -459 3084 -895 
Q 2688 -1331 1869 -1331 
Q 1566 -1331 1297 -1286 
Q 1028 -1241 775 -1147 
L 775 -588 
Q 1028 -725 1275 -790 
Q 1522 -856 1778 -856 
Q 2344 -856 2625 -561 
Q 2906 -266 2906 331 
L 2906 616 
Q 2728 306 2450 153 
Q 2172 0 1784 0 
Q 1141 0 747 490 
Q 353 981 353 1791 
Q 353 2603 747 3093 
Q 1141 3584 1784 3584 
Q 2172 3584 2450 3431 
Q 2728 3278 2906 2969 
L 2906 3500 
L 3481 3500 
L 3481 434 
z
" transform="scale(0.015625)"/>
        <path id="DejaVuSans-7a" d="M 353 3500 
L 3084 3500 
L 3084 2975 
L 922 459 
L 3084 459 
L 3084 0 
L 275 0 
L 275 525 
L 2438 3041 
L 353 3041 
L 353 3500 
z
" transform="scale(0.015625)"/>
       </defs>
       <use xlink:href="#DejaVuSans-69"/>
       <use xlink:href="#DejaVuSans-6e" transform="translate(27.783203 0)"/>
       <use xlink:href="#DejaVuSans-73" transform="translate(91.162109 0)"/>
       <use xlink:href="#DejaVuSans-65" transform="translate(143.261719 0)"/>
       <use xlink:href="#DejaVuSans-67" transform="translate(204.785156 0)"/>
       <use xlink:href="#DejaVuSans-6e" transform="translate(268.261719 0)"/>
       <use xlink:href="#DejaVuSans-61" transform="translate(331.640625 0)"/>
       <use xlink:href="#DejaVuSans-6e" transform="translate(392.919922 0)"/>
       <use xlink:href="#DejaVuSans-74" transform="translate(456.298828 0)"/>
       <use xlink:href="#DejaVuSans-69" transform="translate(495.507812 0)"/>
       <use xlink:href="#DejaVuSans-20" transform="translate(523.291016 0)"/>
       <use xlink:href="#DejaVuSans-2d" transform="translate(555.078125 0)"/>
       <use xlink:href="#DejaVuSans-20" transform="translate(591.162109 0)"/>
       <use xlink:href="#DejaVuSans-6e" transform="translate(622.949219 0)"/>
       <use xlink:href="#DejaVuSans-6f" transform="translate(686.328125 0)"/>
       <use xlink:href="#DejaVuSans-6e" transform="translate(747.509766 0)"/>
       <use xlink:href="#DejaVuSans-20" transform="translate(810.888672 0)"/>
       <use xlink:href="#DejaVuSans-69" transform="translate(842.675781 0)"/>
       <use xlink:href="#DejaVuSans-6e" transform="translate(870.458984 0)"/>
       <use xlink:href="#DejaVuSans-20" transform="translate(933.837891 0)"/>
       <use xlink:href="#DejaVuSans-73" transform="translate(965.625 0)"/>
       <use xlink:href="#DejaVuSans-65" transform="translate(1017.724609 0)"/>
       <use xlink:href="#DejaVuSans-72" transform="translate(1079.248047 0)"/>
       <use xlink:href="#DejaVuSans-76" transform="translate(1120.361328 0)"/>
       <use xlink:href="#DejaVuSans-69" transform="translate(1179.541016 0)"/>
       <use xlink:href="#DejaVuSans-7a" transform="translate(1207.324219 0)"/>
       <use xlink:href="#DejaVuSans-69" transform="translate(1259.814453 0)"/>
       <use xlink:href="#DejaVuSans-6f" transform="translate(1287.597656 0)"/>
      </g>
     </g>
    </g>
    <g id="xtick_4">
     <g id="line2d_4">
      <g>
       <use xlink:href="#mb9dcd48f94" x="334.441908" y="17.198437" style="fill: #262626; stroke: #262626; stroke-width: 0.5"/>
      </g>
     </g>
     <g id="text_4">
      <!-- insegnanti - in servizio -->
      <g style="fill: #262626" transform="translate(256.358681 256.454748) rotate(-10) scale(0.07 -0.07)">
       <use xlink:href="#DejaVuSans-69"/>
       <use xlink:href="#DejaVuSans-6e" transform="translate(27.783203 0)"/>
       <use xlink:href="#DejaVuSans-73" transform="translate(91.162109 0)"/>
       <use xlink:href="#DejaVuSans-65" transform="translate(143.261719 0)"/>
       <use xlink:href="#DejaVuSans-67" transform="translate(204.785156 0)"/>
       <use xlink:href="#DejaVuSans-6e" transform="translate(268.261719 0)"/>
       <use xlink:href="#DejaVuSans-61" transform="translate(331.640625 0)"/>
       <use xlink:href="#DejaVuSans-6e" transform="translate(392.919922 0)"/>
       <use xlink:href="#DejaVuSans-74" transform="translate(456.298828 0)"/>
       <use xlink:href="#DejaVuSans-69" transform="translate(495.507812 0)"/>
       <use xlink:href="#DejaVuSans-20" transform="translate(523.291016 0)"/>
       <use xlink:href="#DejaVuSans-2d" transform="translate(555.078125 0)"/>
       <use xlink:href="#DejaVuSans-20" transform="translate(591.162109 0)"/>
       <use xlink:href="#DejaVuSans-69" transform="translate(622.949219 0)"/>
       <use xlink:href="#DejaVuSans-6e" transform="translate(650.732422 0)"/>
       <use xlink:href="#DejaVuSans-20" transform="translate(714.111328 0)"/>
       <use xlink:href="#DejaVuSans-73" transform="translate(745.898438 0)"/>
       <use xlink:href="#DejaVuSans-65" transform="translate(797.998047 0)"/>
       <use xlink:href="#DejaVuSans-72" transform="translate(859.521484 0)"/>
       <use xlink:href="#DejaVuSans-76" transform="translate(900.634766 0)"/>
       <use xlink:href="#DejaVuSans-69" transform="translate(959.814453 0)"/>
       <use xlink:href="#DejaVuSans-7a" transform="translate(987.597656 0)"/>
       <use xlink:href="#DejaVuSans-69" transform="translate(1040.087891 0)"/>
       <use xlink:href="#DejaVuSans-6f" transform="translate(1067.871094 0)"/>
      </g>
     </g>
    </g>
    <g id="xtick_5">
     <g id="line2d_5">
      <defs>
       <path id="m6829e6861e" d="M 0 0 
L 0 1.5 
" style="stroke: #262626; stroke-width: 0.5"/>
      </defs>
      <g>
       <use xlink:href="#m6829e6861e" x="43.464653" y="17.198437" style="fill: #262626; stroke: #262626; stroke-width: 0.5"/>
      </g>
     </g>
    </g>
    <g id="xtick_6">
     <g id="line2d_6">
      <g>
       <use xlink:href="#m6829e6861e" x="60.580962" y="17.198437" style="fill: #262626; stroke: #262626; stroke-width: 0.5"/>
      </g>
     </g>
    </g>
    <g id="xtick_7">
     <g id="line2d_7">
      <g>
       <use xlink:href="#m6829e6861e" x="94.813581" y="17.198437" style="fill: #262626; stroke: #262626; stroke-width: 0.5"/>
      </g>
     </g>
    </g>
    <g id="xtick_8">
     <g id="line2d_8">
      <g>
       <use xlink:href="#m6829e6861e" x="111.92989" y="17.198437" style="fill: #262626; stroke: #262626; stroke-width: 0.5"/>
      </g>
     </g>
    </g>
    <g id="xtick_9">
     <g id="line2d_9">
      <g>
       <use xlink:href="#m6829e6861e" x="129.046199" y="17.198437" style="fill: #262626; stroke: #262626; stroke-width: 0.5"/>
      </g>
     </g>
    </g>
    <g id="xtick_10">
     <g id="line2d_10">
      <g>
       <use xlink:href="#m6829e6861e" x="146.162508" y="17.198437" style="fill: #262626; stroke: #262626; stroke-width: 0.5"/>
      </g>
     </g>
    </g>
    <g id="xtick_11">
     <g id="line2d_11">
      <g>
       <use xlink:href="#m6829e6861e" x="180.395126" y="17.198437" style="fill: #262626; stroke: #262626; stroke-width: 0.5"/>
      </g>
     </g>
    </g>
    <g id="xtick_12">
     <g id="line2d_12">
      <g>
       <use xlink:href="#m6829e6861e" x="197.511435" y="17.198437" style="fill: #262626; stroke: #262626; stroke-width: 0.5"/>
      </g>
     </g>
    </g>
    <g id="xtick_13">
     <g id="line2d_13">
      <g>
       <use xlink:href="#m6829e6861e" x="214.627745" y="17.198437" style="fill: #262626; stroke: #262626; stroke-width: 0.5"/>
      </g>
     </g>
    </g>
    <g id="xtick_14">
     <g id="line2d_14">
      <g>
       <use xlink:href="#m6829e6861e" x="231.744054" y="17.198437" style="fill: #262626; stroke: #262626; stroke-width: 0.5"/>
      </g>
     </g>
    </g>
    <g id="xtick_15">
     <g id="line2d_15">
      <g>
       <use xlink:href="#m6829e6861e" x="265.976672" y="17.198437" style="fill: #262626; stroke: #262626; stroke-width: 0.5"/>
      </g>
     </g>
    </g>
    <g id="xtick_16">
     <g id="line2d_16">
      <g>
       <use xlink:href="#m6829e6861e" x="283.092981" y="17.198437" style="fill: #262626; stroke: #262626; stroke-width: 0.5"/>
      </g>
     </g>
    </g>
    <g id="xtick_17">
     <g id="line2d_17">
      <g>
       <use xlink:href="#m6829e6861e" x="300.20929" y="17.198437" style="fill: #262626; stroke: #262626; stroke-width: 0.5"/>
      </g>
     </g>
    </g>
    <g id="xtick_18">
     <g id="line2d_18">
      <g>
       <use xlink:href="#m6829e6861e" x="317.325599" y="17.198437" style="fill: #262626; stroke: #262626; stroke-width: 0.5"/>
      </g>
     </g>
    </g>
    <g id="xtick_19">
     <g id="line2d_19">
      <g>
       <use xlink:href="#m6829e6861e" x="351.558218" y="17.198437" style="fill: #262626; stroke: #262626; stroke-width: 0.5"/>
      </g>
     </g>
    </g>
    <g id="xtick_20">
     <g id="line2d_20">
      <g>
       <use xlink:href="#m6829e6861e" x="368.674527" y="17.198437" style="fill: #262626; stroke: #262626; stroke-width: 0.5"/>
      </g>
     </g>
    </g>
    <g id="text_5">
     <!-- Group -->
     <g style="fill: #262626" transform="translate(192.372012 271.397769) scale(0.09 -0.09)">
      <defs>
       <path id="DejaVuSans-47" d="M 3809 666 
L 3809 1919 
L 2778 1919 
L 2778 2438 
L 4434 2438 
L 4434 434 
Q 4069 175 3628 42 
Q 3188 -91 2688 -91 
Q 1594 -91 976 548 
Q 359 1188 359 2328 
Q 359 3472 976 4111 
Q 1594 4750 2688 4750 
Q 3144 4750 3555 4637 
Q 3966 4525 4313 4306 
L 4313 3634 
Q 3963 3931 3569 4081 
Q 3175 4231 2741 4231 
Q 1884 4231 1454 3753 
Q 1025 3275 1025 2328 
Q 1025 1384 1454 906 
Q 1884 428 2741 428 
Q 3075 428 3337 486 
Q 3600 544 3809 666 
z
" transform="scale(0.015625)"/>
       <path id="DejaVuSans-70" d="M 1159 525 
L 1159 -1331 
L 581 -1331 
L 581 3500 
L 1159 3500 
L 1159 2969 
Q 1341 3281 1617 3432 
Q 1894 3584 2278 3584 
Q 2916 3584 3314 3078 
Q 3713 2572 3713 1747 
Q 3713 922 3314 415 
Q 2916 -91 2278 -91 
Q 1894 -91 1617 61 
Q 1341 213 1159 525 
z
M 3116 1747 
Q 3116 2381 2855 2742 
Q 2594 3103 2138 3103 
Q 1681 3103 1420 2742 
Q 1159 2381 1159 1747 
Q 1159 1113 1420 752 
Q 1681 391 2138 391 
Q 2594 391 2855 752 
Q 3116 1113 3116 1747 
z
" transform="scale(0.015625)"/>
      </defs>
      <use xlink:href="#DejaVuSans-47"/>
      <use xlink:href="#DejaVuSans-72" transform="translate(77.490234 0)"/>
      <use xlink:href="#DejaVuSans-6f" transform="translate(116.353516 0)"/>
      <use xlink:href="#DejaVuSans-75" transform="translate(177.535156 0)"/>
      <use xlink:href="#DejaVuSans-70" transform="translate(240.914062 0)"/>
     </g>
    </g>
   </g>
   <g id="matplotlib.axis_2">
    <g id="ytick_1">
     <g id="line2d_21">
      <path d="M 34.906499 220.348627 
L 377.232681 220.348627 
" clip-path="url(#pd14d236070)" style="fill: none; stroke-dasharray: 2.96,1.28; stroke-dashoffset: 0; stroke: #1a1a1a; stroke-opacity: 0.4; stroke-width: 0.8"/>
     </g>
     <g id="line2d_22">
      <defs>
       <path id="md7ab60a638" d="M 0 0 
L -3 0 
" style="stroke: #262626; stroke-width: 0.5"/>
      </defs>
      <g>
       <use xlink:href="#md7ab60a638" x="377.232681" y="220.348627" style="fill: #262626; stroke: #262626; stroke-width: 0.5"/>
      </g>
     </g>
     <g id="text_6">
      <!-- $\mathdefault{15}$ -->
      <g style="fill: #262626" transform="translate(22.446499 223.00808) scale(0.07 -0.07)">
       <defs>
        <path id="DejaVuSans-31" d="M 794 531 
L 1825 531 
L 1825 4091 
L 703 3866 
L 703 4441 
L 1819 4666 
L 2450 4666 
L 2450 531 
L 3481 531 
L 3481 0 
L 794 0 
L 794 531 
z
" transform="scale(0.015625)"/>
        <path id="DejaVuSans-35" d="M 691 4666 
L 3169 4666 
L 3169 4134 
L 1269 4134 
L 1269 2991 
Q 1406 3038 1543 3061 
Q 1681 3084 1819 3084 
Q 2600 3084 3056 2656 
Q 3513 2228 3513 1497 
Q 3513 744 3044 326 
Q 2575 -91 1722 -91 
Q 1428 -91 1123 -41 
Q 819 9 494 109 
L 494 744 
Q 775 591 1075 516 
Q 1375 441 1709 441 
Q 2250 441 2565 725 
Q 2881 1009 2881 1497 
Q 2881 1984 2565 2268 
Q 2250 2553 1709 2553 
Q 1456 2553 1204 2497 
Q 953 2441 691 2322 
L 691 4666 
z
" transform="scale(0.015625)"/>
       </defs>
       <use xlink:href="#DejaVuSans-31" transform="translate(0 0.09375)"/>
       <use xlink:href="#DejaVuSans-35" transform="translate(63.623047 0.09375)"/>
      </g>
     </g>
    </g>
    <g id="ytick_2">
     <g id="line2d_23">
      <path d="M 34.906499 201.398049 
L 377.232681 201.398049 
" clip-path="url(#pd14d236070)" style="fill: none; stroke-dasharray: 2.96,1.28; stroke-dashoffset: 0; stroke: #1a1a1a; stroke-opacity: 0.4; stroke-width: 0.8"/>
     </g>
     <g id="line2d_24">
      <g>
       <use xlink:href="#md7ab60a638" x="377.232681" y="201.398049" style="fill: #262626; stroke: #262626; stroke-width: 0.5"/>
      </g>
     </g>
     <g id="text_7">
      <!-- $\mathdefault{20}$ -->
      <g style="fill: #262626" transform="translate(22.446499 204.057502) scale(0.07 -0.07)">
       <defs>
        <path id="DejaVuSans-32" d="M 1228 531 
L 3431 531 
L 3431 0 
L 469 0 
L 469 531 
Q 828 903 1448 1529 
Q 2069 2156 2228 2338 
Q 2531 2678 2651 2914 
Q 2772 3150 2772 3378 
Q 2772 3750 2511 3984 
Q 2250 4219 1831 4219 
Q 1534 4219 1204 4116 
Q 875 4013 500 3803 
L 500 4441 
Q 881 4594 1212 4672 
Q 1544 4750 1819 4750 
Q 2544 4750 2975 4387 
Q 3406 4025 3406 3419 
Q 3406 3131 3298 2873 
Q 3191 2616 2906 2266 
Q 2828 2175 2409 1742 
Q 1991 1309 1228 531 
z
" transform="scale(0.015625)"/>
        <path id="DejaVuSans-30" d="M 2034 4250 
Q 1547 4250 1301 3770 
Q 1056 3291 1056 2328 
Q 1056 1369 1301 889 
Q 1547 409 2034 409 
Q 2525 409 2770 889 
Q 3016 1369 3016 2328 
Q 3016 3291 2770 3770 
Q 2525 4250 2034 4250 
z
M 2034 4750 
Q 2819 4750 3233 4129 
Q 3647 3509 3647 2328 
Q 3647 1150 3233 529 
Q 2819 -91 2034 -91 
Q 1250 -91 836 529 
Q 422 1150 422 2328 
Q 422 3509 836 4129 
Q 1250 4750 2034 4750 
z
" transform="scale(0.015625)"/>
       </defs>
       <use xlink:href="#DejaVuSans-32" transform="translate(0 0.78125)"/>
       <use xlink:href="#DejaVuSans-30" transform="translate(63.623047 0.78125)"/>
      </g>
     </g>
    </g>
    <g id="ytick_3">
     <g id="line2d_25">
      <path d="M 34.906499 182.447472 
L 377.232681 182.447472 
" clip-path="url(#pd14d236070)" style="fill: none; stroke-dasharray: 2.96,1.28; stroke-dashoffset: 0; stroke: #1a1a1a; stroke-opacity: 0.4; stroke-width: 0.8"/>
     </g>
     <g id="line2d_26">
      <g>
       <use xlink:href="#md7ab60a638" x="377.232681" y="182.447472" style="fill: #262626; stroke: #262626; stroke-width: 0.5"/>
      </g>
     </g>
     <g id="text_8">
      <!-- $\mathdefault{25}$ -->
      <g style="fill: #262626" transform="translate(22.446499 185.106925) scale(0.07 -0.07)">
       <use xlink:href="#DejaVuSans-32" transform="translate(0 0.78125)"/>
       <use xlink:href="#DejaVuSans-35" transform="translate(63.623047 0.78125)"/>
      </g>
     </g>
    </g>
    <g id="ytick_4">
     <g id="line2d_27">
      <path d="M 34.906499 163.496895 
L 377.232681 163.496895 
" clip-path="url(#pd14d236070)" style="fill: none; stroke-dasharray: 2.96,1.28; stroke-dashoffset: 0; stroke: #1a1a1a; stroke-opacity: 0.4; stroke-width: 0.8"/>
     </g>
     <g id="line2d_28">
      <g>
       <use xlink:href="#md7ab60a638" x="377.232681" y="163.496895" style="fill: #262626; stroke: #262626; stroke-width: 0.5"/>
      </g>
     </g>
     <g id="text_9">
      <!-- $\mathdefault{30}$ -->
      <g style="fill: #262626" transform="translate(22.446499 166.156348) scale(0.07 -0.07)">
       <defs>
        <path id="DejaVuSans-33" d="M 2597 2516 
Q 3050 2419 3304 2112 
Q 3559 1806 3559 1356 
Q 3559 666 3084 287 
Q 2609 -91 1734 -91 
Q 1441 -91 1130 -33 
Q 819 25 488 141 
L 488 750 
Q 750 597 1062 519 
Q 1375 441 1716 441 
Q 2309 441 2620 675 
Q 2931 909 2931 1356 
Q 2931 1769 2642 2001 
Q 2353 2234 1838 2234 
L 1294 2234 
L 1294 2753 
L 1863 2753 
Q 2328 2753 2575 2939 
Q 2822 3125 2822 3475 
Q 2822 3834 2567 4026 
Q 2313 4219 1838 4219 
Q 1578 4219 1281 4162 
Q 984 4106 628 3988 
L 628 4550 
Q 988 4650 1302 4700 
Q 1616 4750 1894 4750 
Q 2613 4750 3031 4423 
Q 3450 4097 3450 3541 
Q 3450 3153 3228 2886 
Q 3006 2619 2597 2516 
z
" transform="scale(0.015625)"/>
       </defs>
       <use xlink:href="#DejaVuSans-33" transform="translate(0 0.78125)"/>
       <use xlink:href="#DejaVuSans-30" transform="translate(63.623047 0.78125)"/>
      </g>
     </g>
    </g>
    <g id="ytick_5">
     <g id="line2d_29">
      <path d="M 34.906499 144.546317 
L 377.232681 144.546317 
" clip-path="url(#pd14d236070)" style="fill: none; stroke-dasharray: 2.96,1.28; stroke-dashoffset: 0; stroke: #1a1a1a; stroke-opacity: 0.4; stroke-width: 0.8"/>
     </g>
     <g id="line2d_30">
      <g>
       <use xlink:href="#md7ab60a638" x="377.232681" y="144.546317" style="fill: #262626; stroke: #262626; stroke-width: 0.5"/>
      </g>
     </g>
     <g id="text_10">
      <!-- $\mathdefault{35}$ -->
      <g style="fill: #262626" transform="translate(22.446499 147.20577) scale(0.07 -0.07)">
       <use xlink:href="#DejaVuSans-33" transform="translate(0 0.78125)"/>
       <use xlink:href="#DejaVuSans-35" transform="translate(63.623047 0.78125)"/>
      </g>
     </g>
    </g>
    <g id="ytick_6">
     <g id="line2d_31">
      <path d="M 34.906499 125.59574 
L 377.232681 125.59574 
" clip-path="url(#pd14d236070)" style="fill: none; stroke-dasharray: 2.96,1.28; stroke-dashoffset: 0; stroke: #1a1a1a; stroke-opacity: 0.4; stroke-width: 0.8"/>
     </g>
     <g id="line2d_32">
      <g>
       <use xlink:href="#md7ab60a638" x="377.232681" y="125.59574" style="fill: #262626; stroke: #262626; stroke-width: 0.5"/>
      </g>
     </g>
     <g id="text_11">
      <!-- $\mathdefault{40}$ -->
      <g style="fill: #262626" transform="translate(22.446499 128.255193) scale(0.07 -0.07)">
       <defs>
        <path id="DejaVuSans-34" d="M 2419 4116 
L 825 1625 
L 2419 1625 
L 2419 4116 
z
M 2253 4666 
L 3047 4666 
L 3047 1625 
L 3713 1625 
L 3713 1100 
L 3047 1100 
L 3047 0 
L 2419 0 
L 2419 1100 
L 313 1100 
L 313 1709 
L 2253 4666 
z
" transform="scale(0.015625)"/>
       </defs>
       <use xlink:href="#DejaVuSans-34" transform="translate(0 0.78125)"/>
       <use xlink:href="#DejaVuSans-30" transform="translate(63.623047 0.78125)"/>
      </g>
     </g>
    </g>
    <g id="ytick_7">
     <g id="line2d_33">
      <path d="M 34.906499 106.645163 
L 377.232681 106.645163 
" clip-path="url(#pd14d236070)" style="fill: none; stroke-dasharray: 2.96,1.28; stroke-dashoffset: 0; stroke: #1a1a1a; stroke-opacity: 0.4; stroke-width: 0.8"/>
     </g>
     <g id="line2d_34">
      <g>
       <use xlink:href="#md7ab60a638" x="377.232681" y="106.645163" style="fill: #262626; stroke: #262626; stroke-width: 0.5"/>
      </g>
     </g>
     <g id="text_12">
      <!-- $\mathdefault{45}$ -->
      <g style="fill: #262626" transform="translate(22.446499 109.304616) scale(0.07 -0.07)">
       <use xlink:href="#DejaVuSans-34" transform="translate(0 0.09375)"/>
       <use xlink:href="#DejaVuSans-35" transform="translate(63.623047 0.09375)"/>
      </g>
     </g>
    </g>
    <g id="ytick_8">
     <g id="line2d_35">
      <path d="M 34.906499 87.694585 
L 377.232681 87.694585 
" clip-path="url(#pd14d236070)" style="fill: none; stroke-dasharray: 2.96,1.28; stroke-dashoffset: 0; stroke: #1a1a1a; stroke-opacity: 0.4; stroke-width: 0.8"/>
     </g>
     <g id="line2d_36">
      <g>
       <use xlink:href="#md7ab60a638" x="377.232681" y="87.694585" style="fill: #262626; stroke: #262626; stroke-width: 0.5"/>
      </g>
     </g>
     <g id="text_13">
      <!-- $\mathdefault{50}$ -->
      <g style="fill: #262626" transform="translate(22.446499 90.354038) scale(0.07 -0.07)">
       <use xlink:href="#DejaVuSans-35" transform="translate(0 0.78125)"/>
       <use xlink:href="#DejaVuSans-30" transform="translate(63.623047 0.78125)"/>
      </g>
     </g>
    </g>
    <g id="ytick_9">
     <g id="line2d_37">
      <path d="M 34.906499 68.744008 
L 377.232681 68.744008 
" clip-path="url(#pd14d236070)" style="fill: none; stroke-dasharray: 2.96,1.28; stroke-dashoffset: 0; stroke: #1a1a1a; stroke-opacity: 0.4; stroke-width: 0.8"/>
     </g>
     <g id="line2d_38">
      <g>
       <use xlink:href="#md7ab60a638" x="377.232681" y="68.744008" style="fill: #262626; stroke: #262626; stroke-width: 0.5"/>
      </g>
     </g>
     <g id="text_14">
      <!-- $\mathdefault{55}$ -->
      <g style="fill: #262626" transform="translate(22.446499 71.403461) scale(0.07 -0.07)">
       <use xlink:href="#DejaVuSans-35" transform="translate(0 0.09375)"/>
       <use xlink:href="#DejaVuSans-35" transform="translate(63.623047 0.09375)"/>
      </g>
     </g>
    </g>
    <g id="ytick_10">
     <g id="line2d_39">
      <path d="M 34.906499 49.793431 
L 377.232681 49.793431 
" clip-path="url(#pd14d236070)" style="fill: none; stroke-dasharray: 2.96,1.28; stroke-dashoffset: 0; stroke: #1a1a1a; stroke-opacity: 0.4; stroke-width: 0.8"/>
     </g>
     <g id="line2d_40">
      <g>
       <use xlink:href="#md7ab60a638" x="377.232681" y="49.793431" style="fill: #262626; stroke: #262626; stroke-width: 0.5"/>
      </g>
     </g>
     <g id="text_15">
      <!-- $\mathdefault{60}$ -->
      <g style="fill: #262626" transform="translate(22.446499 52.452884) scale(0.07 -0.07)">
       <defs>
        <path id="DejaVuSans-36" d="M 2113 2584 
Q 1688 2584 1439 2293 
Q 1191 2003 1191 1497 
Q 1191 994 1439 701 
Q 1688 409 2113 409 
Q 2538 409 2786 701 
Q 3034 994 3034 1497 
Q 3034 2003 2786 2293 
Q 2538 2584 2113 2584 
z
M 3366 4563 
L 3366 3988 
Q 3128 4100 2886 4159 
Q 2644 4219 2406 4219 
Q 1781 4219 1451 3797 
Q 1122 3375 1075 2522 
Q 1259 2794 1537 2939 
Q 1816 3084 2150 3084 
Q 2853 3084 3261 2657 
Q 3669 2231 3669 1497 
Q 3669 778 3244 343 
Q 2819 -91 2113 -91 
Q 1303 -91 875 529 
Q 447 1150 447 2328 
Q 447 3434 972 4092 
Q 1497 4750 2381 4750 
Q 2619 4750 2861 4703 
Q 3103 4656 3366 4563 
z
" transform="scale(0.015625)"/>
       </defs>
       <use xlink:href="#DejaVuSans-36" transform="translate(0 0.78125)"/>
       <use xlink:href="#DejaVuSans-30" transform="translate(63.623047 0.78125)"/>
      </g>
     </g>
    </g>
    <g id="ytick_11">
     <g id="line2d_41">
      <path d="M 34.906499 30.842853 
L 377.232681 30.842853 
" clip-path="url(#pd14d236070)" style="fill: none; stroke-dasharray: 2.96,1.28; stroke-dashoffset: 0; stroke: #1a1a1a; stroke-opacity: 0.4; stroke-width: 0.8"/>
     </g>
     <g id="line2d_42">
      <g>
       <use xlink:href="#md7ab60a638" x="377.232681" y="30.842853" style="fill: #262626; stroke: #262626; stroke-width: 0.5"/>
      </g>
     </g>
     <g id="text_16">
      <!-- $\mathdefault{65}$ -->
      <g style="fill: #262626" transform="translate(22.446499 33.502306) scale(0.07 -0.07)">
       <use xlink:href="#DejaVuSans-36" transform="translate(0 0.78125)"/>
       <use xlink:href="#DejaVuSans-35" transform="translate(63.623047 0.78125)"/>
      </g>
     </g>
    </g>
    <g id="ytick_12">
     <g id="line2d_43">
      <path d="M 34.906499 231.718973 
L 377.232681 231.718973 
" clip-path="url(#pd14d236070)" style="fill: none; stroke-dasharray: 1.85,0.8; stroke-dashoffset: 0; stroke: #1a1a1a; stroke-opacity: 0.2; stroke-width: 0.5"/>
     </g>
     <g id="line2d_44">
      <defs>
       <path id="md6ef6dea96" d="M 0 0 
L -1.5 0 
" style="stroke: #262626; stroke-width: 0.5"/>
      </defs>
      <g>
       <use xlink:href="#md6ef6dea96" x="377.232681" y="231.718973" style="fill: #262626; stroke: #262626; stroke-width: 0.5"/>
      </g>
     </g>
    </g>
    <g id="ytick_13">
     <g id="line2d_45">
      <path d="M 34.906499 224.138742 
L 377.232681 224.138742 
" clip-path="url(#pd14d236070)" style="fill: none; stroke-dasharray: 1.85,0.8; stroke-dashoffset: 0; stroke: #1a1a1a; stroke-opacity: 0.2; stroke-width: 0.5"/>
     </g>
     <g id="line2d_46">
      <g>
       <use xlink:href="#md6ef6dea96" x="377.232681" y="224.138742" style="fill: #262626; stroke: #262626; stroke-width: 0.5"/>
      </g>
     </g>
    </g>
    <g id="ytick_14">
     <g id="line2d_47">
      <path d="M 34.906499 216.558511 
L 377.232681 216.558511 
" clip-path="url(#pd14d236070)" style="fill: none; stroke-dasharray: 1.85,0.8; stroke-dashoffset: 0; stroke: #1a1a1a; stroke-opacity: 0.2; stroke-width: 0.5"/>
     </g>
     <g id="line2d_48">
      <g>
       <use xlink:href="#md6ef6dea96" x="377.232681" y="216.558511" style="fill: #262626; stroke: #262626; stroke-width: 0.5"/>
      </g>
     </g>
    </g>
    <g id="ytick_15">
     <g id="line2d_49">
      <path d="M 34.906499 208.97828 
L 377.232681 208.97828 
" clip-path="url(#pd14d236070)" style="fill: none; stroke-dasharray: 1.85,0.8; stroke-dashoffset: 0; stroke: #1a1a1a; stroke-opacity: 0.2; stroke-width: 0.5"/>
     </g>
     <g id="line2d_50">
      <g>
       <use xlink:href="#md6ef6dea96" x="377.232681" y="208.97828" style="fill: #262626; stroke: #262626; stroke-width: 0.5"/>
      </g>
     </g>
    </g>
    <g id="ytick_16">
     <g id="line2d_51">
      <path d="M 34.906499 193.817818 
L 377.232681 193.817818 
" clip-path="url(#pd14d236070)" style="fill: none; stroke-dasharray: 1.85,0.8; stroke-dashoffset: 0; stroke: #1a1a1a; stroke-opacity: 0.2; stroke-width: 0.5"/>
     </g>
     <g id="line2d_52">
      <g>
       <use xlink:href="#md6ef6dea96" x="377.232681" y="193.817818" style="fill: #262626; stroke: #262626; stroke-width: 0.5"/>
      </g>
     </g>
    </g>
    <g id="ytick_17">
     <g id="line2d_53">
      <path d="M 34.906499 186.237587 
L 377.232681 186.237587 
" clip-path="url(#pd14d236070)" style="fill: none; stroke-dasharray: 1.85,0.8; stroke-dashoffset: 0; stroke: #1a1a1a; stroke-opacity: 0.2; stroke-width: 0.5"/>
     </g>
     <g id="line2d_54">
      <g>
       <use xlink:href="#md6ef6dea96" x="377.232681" y="186.237587" style="fill: #262626; stroke: #262626; stroke-width: 0.5"/>
      </g>
     </g>
    </g>
    <g id="ytick_18">
     <g id="line2d_55">
      <path d="M 34.906499 178.657356 
L 377.232681 178.657356 
" clip-path="url(#pd14d236070)" style="fill: none; stroke-dasharray: 1.85,0.8; stroke-dashoffset: 0; stroke: #1a1a1a; stroke-opacity: 0.2; stroke-width: 0.5"/>
     </g>
     <g id="line2d_56">
      <g>
       <use xlink:href="#md6ef6dea96" x="377.232681" y="178.657356" style="fill: #262626; stroke: #262626; stroke-width: 0.5"/>
      </g>
     </g>
    </g>
    <g id="ytick_19">
     <g id="line2d_57">
      <path d="M 34.906499 171.077125 
L 377.232681 171.077125 
" clip-path="url(#pd14d236070)" style="fill: none; stroke-dasharray: 1.85,0.8; stroke-dashoffset: 0; stroke: #1a1a1a; stroke-opacity: 0.2; stroke-width: 0.5"/>
     </g>
     <g id="line2d_58">
      <g>
       <use xlink:href="#md6ef6dea96" x="377.232681" y="171.077125" style="fill: #262626; stroke: #262626; stroke-width: 0.5"/>
      </g>
     </g>
    </g>
    <g id="ytick_20">
     <g id="line2d_59">
      <path d="M 34.906499 155.916664 
L 377.232681 155.916664 
" clip-path="url(#pd14d236070)" style="fill: none; stroke-dasharray: 1.85,0.8; stroke-dashoffset: 0; stroke: #1a1a1a; stroke-opacity: 0.2; stroke-width: 0.5"/>
     </g>
     <g id="line2d_60">
      <g>
       <use xlink:href="#md6ef6dea96" x="377.232681" y="155.916664" style="fill: #262626; stroke: #262626; stroke-width: 0.5"/>
      </g>
     </g>
    </g>
    <g id="ytick_21">
     <g id="line2d_61">
      <path d="M 34.906499 148.336433 
L 377.232681 148.336433 
" clip-path="url(#pd14d236070)" style="fill: none; stroke-dasharray: 1.85,0.8; stroke-dashoffset: 0; stroke: #1a1a1a; stroke-opacity: 0.2; stroke-width: 0.5"/>
     </g>
     <g id="line2d_62">
      <g>
       <use xlink:href="#md6ef6dea96" x="377.232681" y="148.336433" style="fill: #262626; stroke: #262626; stroke-width: 0.5"/>
      </g>
     </g>
    </g>
    <g id="ytick_22">
     <g id="line2d_63">
      <path d="M 34.906499 140.756202 
L 377.232681 140.756202 
" clip-path="url(#pd14d236070)" style="fill: none; stroke-dasharray: 1.85,0.8; stroke-dashoffset: 0; stroke: #1a1a1a; stroke-opacity: 0.2; stroke-width: 0.5"/>
     </g>
     <g id="line2d_64">
      <g>
       <use xlink:href="#md6ef6dea96" x="377.232681" y="140.756202" style="fill: #262626; stroke: #262626; stroke-width: 0.5"/>
      </g>
     </g>
    </g>
    <g id="ytick_23">
     <g id="line2d_65">
      <path d="M 34.906499 133.175971 
L 377.232681 133.175971 
" clip-path="url(#pd14d236070)" style="fill: none; stroke-dasharray: 1.85,0.8; stroke-dashoffset: 0; stroke: #1a1a1a; stroke-opacity: 0.2; stroke-width: 0.5"/>
     </g>
     <g id="line2d_66">
      <g>
       <use xlink:href="#md6ef6dea96" x="377.232681" y="133.175971" style="fill: #262626; stroke: #262626; stroke-width: 0.5"/>
      </g>
     </g>
    </g>
    <g id="ytick_24">
     <g id="line2d_67">
      <path d="M 34.906499 118.015509 
L 377.232681 118.015509 
" clip-path="url(#pd14d236070)" style="fill: none; stroke-dasharray: 1.85,0.8; stroke-dashoffset: 0; stroke: #1a1a1a; stroke-opacity: 0.2; stroke-width: 0.5"/>
     </g>
     <g id="line2d_68">
      <g>
       <use xlink:href="#md6ef6dea96" x="377.232681" y="118.015509" style="fill: #262626; stroke: #262626; stroke-width: 0.5"/>
      </g>
     </g>
    </g>
    <g id="ytick_25">
     <g id="line2d_69">
      <path d="M 34.906499 110.435278 
L 377.232681 110.435278 
" clip-path="url(#pd14d236070)" style="fill: none; stroke-dasharray: 1.85,0.8; stroke-dashoffset: 0; stroke: #1a1a1a; stroke-opacity: 0.2; stroke-width: 0.5"/>
     </g>
     <g id="line2d_70">
      <g>
       <use xlink:href="#md6ef6dea96" x="377.232681" y="110.435278" style="fill: #262626; stroke: #262626; stroke-width: 0.5"/>
      </g>
     </g>
    </g>
    <g id="ytick_26">
     <g id="line2d_71">
      <path d="M 34.906499 102.855047 
L 377.232681 102.855047 
" clip-path="url(#pd14d236070)" style="fill: none; stroke-dasharray: 1.85,0.8; stroke-dashoffset: 0; stroke: #1a1a1a; stroke-opacity: 0.2; stroke-width: 0.5"/>
     </g>
     <g id="line2d_72">
      <g>
       <use xlink:href="#md6ef6dea96" x="377.232681" y="102.855047" style="fill: #262626; stroke: #262626; stroke-width: 0.5"/>
      </g>
     </g>
    </g>
    <g id="ytick_27">
     <g id="line2d_73">
      <path d="M 34.906499 95.274816 
L 377.232681 95.274816 
" clip-path="url(#pd14d236070)" style="fill: none; stroke-dasharray: 1.85,0.8; stroke-dashoffset: 0; stroke: #1a1a1a; stroke-opacity: 0.2; stroke-width: 0.5"/>
     </g>
     <g id="line2d_74">
      <g>
       <use xlink:href="#md6ef6dea96" x="377.232681" y="95.274816" style="fill: #262626; stroke: #262626; stroke-width: 0.5"/>
      </g>
     </g>
    </g>
    <g id="ytick_28">
     <g id="line2d_75">
      <path d="M 34.906499 80.114354 
L 377.232681 80.114354 
" clip-path="url(#pd14d236070)" style="fill: none; stroke-dasharray: 1.85,0.8; stroke-dashoffset: 0; stroke: #1a1a1a; stroke-opacity: 0.2; stroke-width: 0.5"/>
     </g>
     <g id="line2d_76">
      <g>
       <use xlink:href="#md6ef6dea96" x="377.232681" y="80.114354" style="fill: #262626; stroke: #262626; stroke-width: 0.5"/>
      </g>
     </g>
    </g>
    <g id="ytick_29">
     <g id="line2d_77">
      <path d="M 34.906499 72.534123 
L 377.232681 72.534123 
" clip-path="url(#pd14d236070)" style="fill: none; stroke-dasharray: 1.85,0.8; stroke-dashoffset: 0; stroke: #1a1a1a; stroke-opacity: 0.2; stroke-width: 0.5"/>
     </g>
     <g id="line2d_78">
      <g>
       <use xlink:href="#md6ef6dea96" x="377.232681" y="72.534123" style="fill: #262626; stroke: #262626; stroke-width: 0.5"/>
      </g>
     </g>
    </g>
    <g id="ytick_30">
     <g id="line2d_79">
      <path d="M 34.906499 64.953892 
L 377.232681 64.953892 
" clip-path="url(#pd14d236070)" style="fill: none; stroke-dasharray: 1.85,0.8; stroke-dashoffset: 0; stroke: #1a1a1a; stroke-opacity: 0.2; stroke-width: 0.5"/>
     </g>
     <g id="line2d_80">
      <g>
       <use xlink:href="#md6ef6dea96" x="377.232681" y="64.953892" style="fill: #262626; stroke: #262626; stroke-width: 0.5"/>
      </g>
     </g>
    </g>
    <g id="ytick_31">
     <g id="line2d_81">
      <path d="M 34.906499 57.373661 
L 377.232681 57.373661 
" clip-path="url(#pd14d236070)" style="fill: none; stroke-dasharray: 1.85,0.8; stroke-dashoffset: 0; stroke: #1a1a1a; stroke-opacity: 0.2; stroke-width: 0.5"/>
     </g>
     <g id="line2d_82">
      <g>
       <use xlink:href="#md6ef6dea96" x="377.232681" y="57.373661" style="fill: #262626; stroke: #262626; stroke-width: 0.5"/>
      </g>
     </g>
    </g>
    <g id="ytick_32">
     <g id="line2d_83">
      <path d="M 34.906499 42.2132 
L 377.232681 42.2132 
" clip-path="url(#pd14d236070)" style="fill: none; stroke-dasharray: 1.85,0.8; stroke-dashoffset: 0; stroke: #1a1a1a; stroke-opacity: 0.2; stroke-width: 0.5"/>
     </g>
     <g id="line2d_84">
      <g>
       <use xlink:href="#md6ef6dea96" x="377.232681" y="42.2132" style="fill: #262626; stroke: #262626; stroke-width: 0.5"/>
      </g>
     </g>
    </g>
    <g id="ytick_33">
     <g id="line2d_85">
      <path d="M 34.906499 34.632969 
L 377.232681 34.632969 
" clip-path="url(#pd14d236070)" style="fill: none; stroke-dasharray: 1.85,0.8; stroke-dashoffset: 0; stroke: #1a1a1a; stroke-opacity: 0.2; stroke-width: 0.5"/>
     </g>
     <g id="line2d_86">
      <g>
       <use xlink:href="#md6ef6dea96" x="377.232681" y="34.632969" style="fill: #262626; stroke: #262626; stroke-width: 0.5"/>
      </g>
     </g>
    </g>
    <g id="ytick_34">
     <g id="line2d_87">
      <path d="M 34.906499 27.052738 
L 377.232681 27.052738 
" clip-path="url(#pd14d236070)" style="fill: none; stroke-dasharray: 1.85,0.8; stroke-dashoffset: 0; stroke: #1a1a1a; stroke-opacity: 0.2; stroke-width: 0.5"/>
     </g>
     <g id="line2d_88">
      <g>
       <use xlink:href="#md6ef6dea96" x="377.232681" y="27.052738" style="fill: #262626; stroke: #262626; stroke-width: 0.5"/>
      </g>
     </g>
    </g>
    <g id="ytick_35">
     <g id="line2d_89">
      <path d="M 34.906499 19.472507 
L 377.232681 19.472507 
" clip-path="url(#pd14d236070)" style="fill: none; stroke-dasharray: 1.85,0.8; stroke-dashoffset: 0; stroke: #1a1a1a; stroke-opacity: 0.2; stroke-width: 0.5"/>
     </g>
     <g id="line2d_90">
      <g>
       <use xlink:href="#md6ef6dea96" x="377.232681" y="19.472507" style="fill: #262626; stroke: #262626; stroke-width: 0.5"/>
      </g>
     </g>
    </g>
    <g id="text_17">
     <!-- Age (years) -->
     <g style="fill: #262626" transform="translate(16.57478 151.625427) rotate(-90) scale(0.09 -0.09)">
      <defs>
       <path id="DejaVuSans-41" d="M 2188 4044 
L 1331 1722 
L 3047 1722 
L 2188 4044 
z
M 1831 4666 
L 2547 4666 
L 4325 0 
L 3669 0 
L 3244 1197 
L 1141 1197 
L 716 0 
L 50 0 
L 1831 4666 
z
" transform="scale(0.015625)"/>
       <path id="DejaVuSans-28" d="M 1984 4856 
Q 1566 4138 1362 3434 
Q 1159 2731 1159 2009 
Q 1159 1288 1364 580 
Q 1569 -128 1984 -844 
L 1484 -844 
Q 1016 -109 783 600 
Q 550 1309 550 2009 
Q 550 2706 781 3412 
Q 1013 4119 1484 4856 
L 1984 4856 
z
" transform="scale(0.015625)"/>
       <path id="DejaVuSans-79" d="M 2059 -325 
Q 1816 -950 1584 -1140 
Q 1353 -1331 966 -1331 
L 506 -1331 
L 506 -850 
L 844 -850 
Q 1081 -850 1212 -737 
Q 1344 -625 1503 -206 
L 1606 56 
L 191 3500 
L 800 3500 
L 1894 763 
L 2988 3500 
L 3597 3500 
L 2059 -325 
z
" transform="scale(0.015625)"/>
       <path id="DejaVuSans-29" d="M 513 4856 
L 1013 4856 
Q 1481 4119 1714 3412 
Q 1947 2706 1947 2009 
Q 1947 1309 1714 600 
Q 1481 -109 1013 -844 
L 513 -844 
Q 928 -128 1133 580 
Q 1338 1288 1338 2009 
Q 1338 2731 1133 3434 
Q 928 4138 513 4856 
z
" transform="scale(0.015625)"/>
      </defs>
      <use xlink:href="#DejaVuSans-41"/>
      <use xlink:href="#DejaVuSans-67" transform="translate(68.408203 0)"/>
      <use xlink:href="#DejaVuSans-65" transform="translate(131.884766 0)"/>
      <use xlink:href="#DejaVuSans-20" transform="translate(193.408203 0)"/>
      <use xlink:href="#DejaVuSans-28" transform="translate(225.195312 0)"/>
      <use xlink:href="#DejaVuSans-79" transform="translate(264.208984 0)"/>
      <use xlink:href="#DejaVuSans-65" transform="translate(323.388672 0)"/>
      <use xlink:href="#DejaVuSans-61" transform="translate(384.912109 0)"/>
      <use xlink:href="#DejaVuSans-72" transform="translate(446.191406 0)"/>
      <use xlink:href="#DejaVuSans-73" transform="translate(487.304688 0)"/>
      <use xlink:href="#DejaVuSans-29" transform="translate(539.404297 0)"/>
     </g>
    </g>
   </g>
   <g id="FillBetweenPolyCollection_1">
    <defs>
     <path id="mf9744a0e46" d="M 106.447574 -52.730746 
L 48.94697 -52.730746 
L 47.953631 -52.96045 
L 47.07096 -53.190154 
L 46.296805 -53.419858 
L 45.627095 -53.649562 
L 45.056628 -53.879266 
L 44.579871 -54.10897 
L 44.191697 -54.338674 
L 43.887992 -54.568378 
L 43.666063 -54.798082 
L 43.524809 -55.027786 
L 43.464653 -55.25749 
L 43.487233 -55.487194 
L 43.594891 -55.716898 
L 43.79003 -55.946602 
L 44.074392 -56.176306 
L 44.448344 -56.40601 
L 44.910247 -56.635714 
L 45.455968 -56.865418 
L 46.07858 -57.095122 
L 46.768285 -57.324825 
L 47.512552 -57.554529 
L 48.296465 -57.784233 
L 49.103233 -58.013937 
L 49.914822 -58.243641 
L 50.712654 -58.473345 
L 51.478313 -58.703049 
L 52.194223 -58.932753 
L 52.844244 -59.162457 
L 53.414188 -59.392161 
L 53.892214 -59.621865 
L 54.269137 -59.851569 
L 54.538634 -60.081273 
L 54.697386 -60.310977 
L 54.745153 -60.540681 
L 54.684806 -60.770385 
L 54.522314 -61.000089 
L 54.266679 -61.229793 
L 53.929825 -61.459497 
L 53.526393 -61.689201 
L 53.073462 -61.918905 
L 52.590141 -62.148609 
L 52.097057 -62.378313 
L 51.61572 -62.608017 
L 51.167787 -62.837721 
L 50.774258 -63.067425 
L 50.45464 -63.297129 
L 50.226136 -63.526833 
L 50.102913 -63.756537 
L 50.095501 -63.986241 
L 50.210378 -64.215945 
L 50.449771 -64.445648 
L 50.811696 -64.675352 
L 51.290223 -64.905056 
L 51.875967 -65.13476 
L 52.556742 -65.364464 
L 53.318345 -65.594168 
L 54.145395 -65.823872 
L 55.022164 -66.053576 
L 55.93335 -66.28328 
L 56.864725 -66.512984 
L 57.803634 -66.742688 
L 58.739316 -66.972392 
L 59.663052 -67.202096 
L 60.568141 -67.4318 
L 61.449744 -67.661504 
L 62.304627 -67.891208 
L 63.130841 -68.120912 
L 63.92738 -68.350616 
L 64.693866 -68.58032 
L 65.430269 -68.810024 
L 66.136696 -69.039728 
L 66.813257 -69.269432 
L 67.459998 -69.499136 
L 68.076898 -69.72884 
L 68.66391 -69.958544 
L 69.221033 -70.188248 
L 69.748392 -70.417952 
L 70.246302 -70.647656 
L 70.715327 -70.87736 
L 71.156292 -71.107064 
L 71.570282 -71.336768 
L 71.958602 -71.566471 
L 72.322718 -71.796175 
L 72.664194 -72.025879 
L 72.984614 -72.255583 
L 73.285519 -72.485287 
L 73.56836 -72.714991 
L 73.834455 -72.944695 
L 74.084982 -73.174399 
L 74.320982 -73.404103 
L 74.543373 -73.633807 
L 74.752981 -73.863511 
L 74.95057 -74.093215 
L 75.136872 -74.322919 
L 75.312607 -74.552623 
L 75.478501 -74.782327 
L 75.635283 -75.012031 
L 75.783683 -75.241735 
L 75.924408 -75.471439 
L 79.470135 -75.471439 
L 79.470135 -75.471439 
L 79.61086 -75.241735 
L 79.75926 -75.012031 
L 79.916042 -74.782327 
L 80.081936 -74.552623 
L 80.257671 -74.322919 
L 80.443973 -74.093215 
L 80.641562 -73.863511 
L 80.85117 -73.633807 
L 81.073561 -73.404103 
L 81.309561 -73.174399 
L 81.560089 -72.944695 
L 81.826184 -72.714991 
L 82.109024 -72.485287 
L 82.40993 -72.255583 
L 82.730349 -72.025879 
L 83.071825 -71.796175 
L 83.435941 -71.566471 
L 83.824261 -71.336768 
L 84.238251 -71.107064 
L 84.679217 -70.87736 
L 85.148241 -70.647656 
L 85.646152 -70.417952 
L 86.17351 -70.188248 
L 86.730633 -69.958544 
L 87.317645 -69.72884 
L 87.934545 -69.499136 
L 88.581286 -69.269432 
L 89.257847 -69.039728 
L 89.964274 -68.810024 
L 90.700677 -68.58032 
L 91.467163 -68.350616 
L 92.263703 -68.120912 
L 93.089916 -67.891208 
L 93.944799 -67.661504 
L 94.826402 -67.4318 
L 95.731491 -67.202096 
L 96.655227 -66.972392 
L 97.590909 -66.742688 
L 98.529818 -66.512984 
L 99.461193 -66.28328 
L 100.372379 -66.053576 
L 101.249148 -65.823872 
L 102.076198 -65.594168 
L 102.837801 -65.364464 
L 103.518576 -65.13476 
L 104.10432 -64.905056 
L 104.582847 -64.675352 
L 104.944772 -64.445648 
L 105.184166 -64.215945 
L 105.299042 -63.986241 
L 105.29163 -63.756537 
L 105.168407 -63.526833 
L 104.939904 -63.297129 
L 104.620286 -63.067425 
L 104.226757 -62.837721 
L 103.778823 -62.608017 
L 103.297486 -62.378313 
L 102.804402 -62.148609 
L 102.321081 -61.918905 
L 101.86815 -61.689201 
L 101.464718 -61.459497 
L 101.127864 -61.229793 
L 100.872229 -61.000089 
L 100.709737 -60.770385 
L 100.64939 -60.540681 
L 100.697157 -60.310977 
L 100.855909 -60.081273 
L 101.125406 -59.851569 
L 101.502329 -59.621865 
L 101.980355 -59.392161 
L 102.550299 -59.162457 
L 103.200321 -58.932753 
L 103.91623 -58.703049 
L 104.681889 -58.473345 
L 105.479721 -58.243641 
L 106.29131 -58.013937 
L 107.098078 -57.784233 
L 107.881991 -57.554529 
L 108.626258 -57.324825 
L 109.315963 -57.095122 
L 109.938575 -56.865418 
L 110.484296 -56.635714 
L 110.946199 -56.40601 
L 111.320151 -56.176306 
L 111.604513 -55.946602 
L 111.799652 -55.716898 
L 111.90731 -55.487194 
L 111.92989 -55.25749 
L 111.869734 -55.027786 
L 111.72848 -54.798082 
L 111.506551 -54.568378 
L 111.202846 -54.338674 
L 110.814672 -54.10897 
L 110.337915 -53.879266 
L 109.767448 -53.649562 
L 109.097738 -53.419858 
L 108.323583 -53.190154 
L 107.440912 -52.96045 
L 106.447574 -52.730746 
z
" style="stroke: #484848; stroke-width: 1.25"/>
    </defs>
    <g clip-path="url(#pd14d236070)">
     <use xlink:href="#mf9744a0e46" x="0" y="276.869488" style="fill: #cb3335; stroke: #484848; stroke-width: 1.25"/>
    </g>
   </g>
   <g id="FillBetweenPolyCollection_2">
    <defs>
     <path id="m88ff083213" d="M 168.567779 -79.261554 
L 157.989855 -79.261554 
L 157.950281 -79.376406 
L 157.938795 -79.491258 
L 157.947828 -79.60611 
L 157.96749 -79.720962 
L 157.985665 -79.835814 
L 157.988205 -79.950666 
L 157.959202 -80.065518 
L 157.881363 -80.18037 
L 157.736461 -80.295222 
L 157.505881 -80.410074 
L 157.171242 -80.524926 
L 156.715088 -80.639778 
L 156.121645 -80.75463 
L 155.377611 -80.869482 
L 154.472973 -80.984334 
L 153.401798 -81.099186 
L 152.162983 -81.214038 
L 150.760902 -81.32889 
L 149.205909 -81.443742 
L 147.514646 -81.558594 
L 145.710119 -81.673446 
L 143.821482 -81.788298 
L 141.883526 -81.90315 
L 139.935849 -82.018002 
L 138.021707 -82.132854 
L 136.186602 -82.247706 
L 134.476632 -82.362558 
L 132.936694 -82.47741 
L 131.608614 -82.592262 
L 130.52932 -82.707114 
L 129.72915 -82.821966 
L 129.2304 -82.936818 
L 129.046199 -83.05167 
L 129.179788 -83.166522 
L 129.624236 -83.281374 
L 130.362626 -83.396226 
L 131.368693 -83.511078 
L 132.607869 -83.62593 
L 134.038686 -83.740782 
L 135.614445 -83.855634 
L 137.285062 -83.970486 
L 138.998987 -84.085338 
L 140.705113 -84.20019 
L 142.354579 -84.315042 
L 143.902396 -84.429894 
L 145.308848 -84.544746 
L 146.540625 -84.659598 
L 147.57167 -84.77445 
L 148.383738 -84.889302 
L 148.966667 -85.004154 
L 149.318393 -85.119006 
L 149.444703 -85.233858 
L 149.358779 -85.34871 
L 149.080536 -85.463562 
L 148.63578 -85.578414 
L 148.05522 -85.693265 
L 147.373341 -85.808117 
L 146.627186 -85.922969 
L 145.855047 -86.037821 
L 145.09514 -86.152673 
L 144.384268 -86.267525 
L 143.756539 -86.382377 
L 143.242186 -86.497229 
L 142.866533 -86.612081 
L 142.649152 -86.726933 
L 142.60326 -86.841785 
L 142.73538 -86.956637 
L 143.045276 -87.071489 
L 143.526183 -87.186341 
L 144.165292 -87.301193 
L 144.944488 -87.416045 
L 145.841271 -87.530897 
L 146.829832 -87.645749 
L 147.88221 -87.760601 
L 148.969475 -87.875453 
L 150.062884 -87.990305 
L 151.134943 -88.105157 
L 152.160353 -88.220009 
L 153.116795 -88.334861 
L 153.985539 -88.449713 
L 154.751871 -88.564565 
L 155.405336 -88.679417 
L 155.939811 -88.794269 
L 156.353428 -88.909121 
L 156.648355 -89.023973 
L 156.830472 -89.138825 
L 156.908952 -89.253677 
L 156.89577 -89.368529 
L 156.805162 -89.483381 
L 156.653043 -89.598233 
L 156.45641 -89.713085 
L 156.232732 -89.827937 
L 155.999358 -89.942789 
L 155.772936 -90.057641 
L 155.568889 -90.172493 
L 155.400933 -90.287345 
L 155.280681 -90.402197 
L 155.217326 -90.517049 
L 155.217427 -90.631901 
L 171.340208 -90.631901 
L 171.340208 -90.631901 
L 171.340309 -90.517049 
L 171.276953 -90.402197 
L 171.156701 -90.287345 
L 170.988746 -90.172493 
L 170.784699 -90.057641 
L 170.558277 -89.942789 
L 170.324902 -89.827937 
L 170.101225 -89.713085 
L 169.904591 -89.598233 
L 169.752472 -89.483381 
L 169.661864 -89.368529 
L 169.648682 -89.253677 
L 169.727162 -89.138825 
L 169.90928 -89.023973 
L 170.204206 -88.909121 
L 170.617823 -88.794269 
L 171.152298 -88.679417 
L 171.805763 -88.564565 
L 172.572095 -88.449713 
L 173.440839 -88.334861 
L 174.397281 -88.220009 
L 175.422691 -88.105157 
L 176.49475 -87.990305 
L 177.588159 -87.875453 
L 178.675425 -87.760601 
L 179.727802 -87.645749 
L 180.716363 -87.530897 
L 181.613146 -87.416045 
L 182.392342 -87.301193 
L 183.031452 -87.186341 
L 183.512358 -87.071489 
L 183.822255 -86.956637 
L 183.954374 -86.841785 
L 183.908482 -86.726933 
L 183.691101 -86.612081 
L 183.315448 -86.497229 
L 182.801096 -86.382377 
L 182.173367 -86.267525 
L 181.462494 -86.152673 
L 180.702587 -86.037821 
L 179.930449 -85.922969 
L 179.184293 -85.808117 
L 178.502415 -85.693265 
L 177.921854 -85.578414 
L 177.477099 -85.463562 
L 177.198855 -85.34871 
L 177.112932 -85.233858 
L 177.239242 -85.119006 
L 177.590967 -85.004154 
L 178.173897 -84.889302 
L 178.985964 -84.77445 
L 180.017009 -84.659598 
L 181.248786 -84.544746 
L 182.655238 -84.429894 
L 184.203055 -84.315042 
L 185.852521 -84.20019 
L 187.558648 -84.085338 
L 189.272573 -83.970486 
L 190.943189 -83.855634 
L 192.518949 -83.740782 
L 193.949766 -83.62593 
L 195.188941 -83.511078 
L 196.195008 -83.396226 
L 196.933399 -83.281374 
L 197.377847 -83.166522 
L 197.511435 -83.05167 
L 197.327235 -82.936818 
L 196.828485 -82.821966 
L 196.028315 -82.707114 
L 194.949021 -82.592262 
L 193.62094 -82.47741 
L 192.081002 -82.362558 
L 190.371033 -82.247706 
L 188.535928 -82.132854 
L 186.621786 -82.018002 
L 184.674108 -81.90315 
L 182.736153 -81.788298 
L 180.847516 -81.673446 
L 179.042988 -81.558594 
L 177.351726 -81.443742 
L 175.796732 -81.32889 
L 174.394651 -81.214038 
L 173.155837 -81.099186 
L 172.084662 -80.984334 
L 171.180023 -80.869482 
L 170.43599 -80.75463 
L 169.842546 -80.639778 
L 169.386392 -80.524926 
L 169.051753 -80.410074 
L 168.821174 -80.295222 
L 168.676272 -80.18037 
L 168.598432 -80.065518 
L 168.56943 -79.950666 
L 168.571969 -79.835814 
L 168.590145 -79.720962 
L 168.609806 -79.60611 
L 168.61884 -79.491258 
L 168.607353 -79.376406 
L 168.567779 -79.261554 
z
" style="stroke: #484848; stroke-width: 1.25"/>
    </defs>
    <g clip-path="url(#pd14d236070)">
     <use xlink:href="#m88ff083213" x="0" y="276.869488" style="fill: #59a257; stroke: #484848; stroke-width: 1.25"/>
    </g>
   </g>
   <g id="FillBetweenPolyCollection_3">
    <defs>
     <path id="mcbdad2d7b8" d="M 259.123771 -83.05167 
L 238.596955 -83.05167 
L 237.446257 -84.353326 
L 236.234139 -85.654982 
L 234.966679 -86.956637 
L 233.651304 -88.258293 
L 232.296759 -89.559949 
L 230.913039 -90.861605 
L 229.511283 -92.163261 
L 228.10362 -93.464916 
L 226.702984 -94.766572 
L 225.322886 -96.068228 
L 223.977154 -97.369884 
L 222.679646 -98.67154 
L 221.44394 -99.973195 
L 220.28302 -101.274851 
L 219.208949 -102.576507 
L 218.232555 -103.878163 
L 217.363134 -105.179819 
L 216.608183 -106.481475 
L 215.973163 -107.78313 
L 215.46132 -109.084786 
L 215.073554 -110.386442 
L 214.808359 -111.688098 
L 214.66183 -112.989754 
L 214.627745 -114.291409 
L 214.697729 -115.593065 
L 214.861492 -116.894721 
L 215.10714 -118.196377 
L 215.421556 -119.498033 
L 215.79083 -120.799689 
L 216.20073 -122.101344 
L 216.637195 -123.403 
L 217.086827 -124.704656 
L 217.537355 -126.006312 
L 217.978054 -127.307968 
L 218.400089 -128.609623 
L 218.796779 -129.911279 
L 219.163741 -131.212935 
L 219.498928 -132.514591 
L 219.802544 -133.816247 
L 220.076848 -135.117903 
L 220.325849 -136.419558 
L 220.554919 -137.721214 
L 220.770348 -139.02287 
L 220.978864 -140.324526 
L 221.187145 -141.626182 
L 221.401374 -142.927837 
L 221.626835 -144.229493 
L 221.867596 -145.531149 
L 222.126296 -146.832805 
L 222.404034 -148.134461 
L 222.700373 -149.436117 
L 223.013458 -150.737772 
L 223.340225 -152.039428 
L 223.676692 -153.341084 
L 224.018304 -154.64274 
L 224.360311 -155.944396 
L 224.698151 -157.246051 
L 225.027806 -158.547707 
L 225.346119 -159.849363 
L 225.651042 -161.151019 
L 225.941812 -162.452675 
L 226.219031 -163.754331 
L 226.484667 -165.055986 
L 226.741959 -166.357642 
L 226.99525 -167.659298 
L 227.249747 -168.960954 
L 227.511235 -170.26261 
L 227.785756 -171.564265 
L 228.079276 -172.865921 
L 228.397349 -174.167577 
L 228.744819 -175.469233 
L 229.125547 -176.770889 
L 229.542203 -178.072545 
L 229.996121 -179.3742 
L 230.487217 -180.675856 
L 231.013994 -181.977512 
L 231.573608 -183.279168 
L 232.162013 -184.580824 
L 232.774156 -185.882479 
L 233.40422 -187.184135 
L 234.045905 -188.485791 
L 234.692719 -189.787447 
L 235.338274 -191.089103 
L 235.976565 -192.390758 
L 236.602212 -193.692414 
L 237.210673 -194.99407 
L 237.798387 -196.295726 
L 238.362867 -197.597382 
L 238.902727 -198.899038 
L 239.417648 -200.200693 
L 239.908284 -201.502349 
L 240.376119 -202.804005 
L 240.823286 -204.105661 
L 241.252358 -205.407317 
L 241.666129 -206.708972 
L 242.067395 -208.010628 
L 242.458753 -209.312284 
L 242.842427 -210.61394 
L 243.22013 -211.915596 
L 254.500596 -211.915596 
L 254.500596 -211.915596 
L 254.878299 -210.61394 
L 255.261973 -209.312284 
L 255.653331 -208.010628 
L 256.054597 -206.708972 
L 256.468368 -205.407317 
L 256.89744 -204.105661 
L 257.344607 -202.804005 
L 257.812442 -201.502349 
L 258.303078 -200.200693 
L 258.817999 -198.899038 
L 259.357859 -197.597382 
L 259.922339 -196.295726 
L 260.510052 -194.99407 
L 261.118513 -193.692414 
L 261.744161 -192.390758 
L 262.382451 -191.089103 
L 263.028007 -189.787447 
L 263.674821 -188.485791 
L 264.316506 -187.184135 
L 264.94657 -185.882479 
L 265.558712 -184.580824 
L 266.147118 -183.279168 
L 266.706732 -181.977512 
L 267.233508 -180.675856 
L 267.724604 -179.3742 
L 268.178522 -178.072545 
L 268.595179 -176.770889 
L 268.975907 -175.469233 
L 269.323376 -174.167577 
L 269.64145 -172.865921 
L 269.934969 -171.564265 
L 270.209491 -170.26261 
L 270.470979 -168.960954 
L 270.725476 -167.659298 
L 270.978766 -166.357642 
L 271.236058 -165.055986 
L 271.501694 -163.754331 
L 271.778914 -162.452675 
L 272.069683 -161.151019 
L 272.374607 -159.849363 
L 272.69292 -158.547707 
L 273.022575 -157.246051 
L 273.360415 -155.944396 
L 273.702422 -154.64274 
L 274.044034 -153.341084 
L 274.3805 -152.039428 
L 274.707267 -150.737772 
L 275.020353 -149.436117 
L 275.316692 -148.134461 
L 275.594429 -146.832805 
L 275.85313 -145.531149 
L 276.093891 -144.229493 
L 276.319351 -142.927837 
L 276.53358 -141.626182 
L 276.741862 -140.324526 
L 276.950377 -139.02287 
L 277.165807 -137.721214 
L 277.394877 -136.419558 
L 277.643877 -135.117903 
L 277.918181 -133.816247 
L 278.221798 -132.514591 
L 278.556985 -131.212935 
L 278.923946 -129.911279 
L 279.320636 -128.609623 
L 279.742672 -127.307968 
L 280.18337 -126.006312 
L 280.633898 -124.704656 
L 281.083531 -123.403 
L 281.519996 -122.101344 
L 281.929896 -120.799689 
L 282.299169 -119.498033 
L 282.613585 -118.196377 
L 282.859234 -116.894721 
L 283.022997 -115.593065 
L 283.092981 -114.291409 
L 283.058896 -112.989754 
L 282.912367 -111.688098 
L 282.647172 -110.386442 
L 282.259406 -109.084786 
L 281.747562 -107.78313 
L 281.112543 -106.481475 
L 280.357591 -105.179819 
L 279.488171 -103.878163 
L 278.511777 -102.576507 
L 277.437706 -101.274851 
L 276.276786 -99.973195 
L 275.04108 -98.67154 
L 273.743571 -97.369884 
L 272.397839 -96.068228 
L 271.017741 -94.766572 
L 269.617106 -93.464916 
L 268.209443 -92.163261 
L 266.807686 -90.861605 
L 265.423967 -89.559949 
L 264.069421 -88.258293 
L 262.754046 -86.956637 
L 261.486587 -85.654982 
L 260.274469 -84.353326 
L 259.123771 -83.05167 
z
" style="stroke: #484848; stroke-width: 1.25"/>
    </defs>
    <g clip-path="url(#pd14d236070)">
     <use xlink:href="#mcbdad2d7b8" x="0" y="276.869488" style="fill: #e2c137; stroke: #484848; stroke-width: 1.25"/>
    </g>
   </g>
   <g id="FillBetweenPolyCollection_4">
    <defs>
     <path id="m11bd8d5672" d="M 335.705125 -75.471439 
L 333.178692 -75.471439 
L 332.944699 -77.232503 
L 332.673787 -78.993566 
L 332.360332 -80.75463 
L 331.998112 -82.515694 
L 331.580483 -84.276758 
L 331.100688 -86.037821 
L 330.552309 -87.798885 
L 329.929881 -89.559949 
L 329.229639 -91.321013 
L 328.450354 -93.082076 
L 327.594164 -94.84314 
L 326.667294 -96.604204 
L 325.680525 -98.365268 
L 324.649295 -100.126331 
L 323.593328 -101.887395 
L 322.535745 -103.648459 
L 321.50169 -105.409523 
L 320.516557 -107.170586 
L 319.604003 -108.93165 
L 318.783964 -110.692714 
L 318.0709 -112.453778 
L 317.472492 -114.214841 
L 316.988959 -115.975905 
L 316.613048 -117.736969 
L 316.330695 -119.498033 
L 316.122237 -121.259096 
L 315.964001 -123.02016 
L 315.830057 -124.781224 
L 315.693937 -126.542288 
L 315.530147 -128.303352 
L 315.315397 -130.064415 
L 315.029509 -131.825479 
L 314.656058 -133.586543 
L 314.182824 -135.347607 
L 313.602138 -137.10867 
L 312.911203 -138.869734 
L 312.11239 -140.630798 
L 311.213494 -142.391862 
L 310.227854 -144.152925 
L 309.174216 -145.913989 
L 308.076246 -147.675053 
L 306.961573 -149.436117 
L 305.860364 -151.19718 
L 304.803468 -152.958244 
L 303.820256 -154.719308 
L 302.936379 -156.480372 
L 302.171696 -158.241435 
L 301.53864 -160.002499 
L 301.041269 -161.763563 
L 300.675183 -163.524627 
L 300.428361 -165.28569 
L 300.282868 -167.046754 
L 300.217245 -168.807818 
L 300.20929 -170.568882 
L 300.238862 -172.329945 
L 300.290335 -174.091009 
L 300.354352 -175.852073 
L 300.428654 -177.613137 
L 300.51786 -179.3742 
L 300.63226 -181.135264 
L 300.785824 -182.896328 
L 300.993738 -184.657392 
L 301.269872 -186.418455 
L 301.624542 -188.179519 
L 302.062914 -189.940583 
L 302.584244 -191.701647 
L 303.182014 -193.46271 
L 303.844894 -195.223774 
L 304.558297 -196.984838 
L 305.306251 -198.745902 
L 306.07328 -200.506965 
L 306.845989 -202.268029 
L 307.614187 -204.029093 
L 308.371413 -205.790157 
L 309.114897 -207.55122 
L 309.84504 -209.312284 
L 310.564587 -211.073348 
L 311.277669 -212.834412 
L 311.988892 -214.595475 
L 312.702612 -216.356539 
L 313.422462 -218.117603 
L 314.151156 -219.878667 
L 314.890519 -221.63973 
L 315.641675 -223.400794 
L 316.405302 -225.161858 
L 317.181862 -226.922922 
L 317.971744 -228.683985 
L 318.775305 -230.445049 
L 319.592781 -232.206113 
L 320.424117 -233.967177 
L 321.268741 -235.72824 
L 322.125341 -237.489304 
L 322.99166 -239.250368 
L 323.864361 -241.011432 
L 324.738972 -242.772495 
L 325.609902 -244.533559 
L 326.470565 -246.294623 
L 327.313573 -248.055687 
L 328.131018 -249.81675 
L 340.752799 -249.81675 
L 340.752799 -249.81675 
L 341.570244 -248.055687 
L 342.413252 -246.294623 
L 343.273915 -244.533559 
L 344.144845 -242.772495 
L 345.019455 -241.011432 
L 345.892157 -239.250368 
L 346.758476 -237.489304 
L 347.615076 -235.72824 
L 348.4597 -233.967177 
L 349.291036 -232.206113 
L 350.108511 -230.445049 
L 350.912073 -228.683985 
L 351.701955 -226.922922 
L 352.478515 -225.161858 
L 353.242142 -223.400794 
L 353.993298 -221.63973 
L 354.732661 -219.878667 
L 355.461354 -218.117603 
L 356.181205 -216.356539 
L 356.894925 -214.595475 
L 357.606148 -212.834412 
L 358.31923 -211.073348 
L 359.038777 -209.312284 
L 359.76892 -207.55122 
L 360.512404 -205.790157 
L 361.26963 -204.029093 
L 362.037828 -202.268029 
L 362.810537 -200.506965 
L 363.577565 -198.745902 
L 364.32552 -196.984838 
L 365.038923 -195.223774 
L 365.701803 -193.46271 
L 366.299573 -191.701647 
L 366.820903 -189.940583 
L 367.259275 -188.179519 
L 367.613945 -186.418455 
L 367.890079 -184.657392 
L 368.097993 -182.896328 
L 368.251556 -181.135264 
L 368.365957 -179.3742 
L 368.455163 -177.613137 
L 368.529465 -175.852073 
L 368.593482 -174.091009 
L 368.644954 -172.329945 
L 368.674527 -170.568882 
L 368.666572 -168.807818 
L 368.600949 -167.046754 
L 368.455456 -165.28569 
L 368.208634 -163.524627 
L 367.842548 -161.763563 
L 367.345177 -160.002499 
L 366.712121 -158.241435 
L 365.947438 -156.480372 
L 365.063561 -154.719308 
L 364.080349 -152.958244 
L 363.023453 -151.19718 
L 361.922244 -149.436117 
L 360.807571 -147.675053 
L 359.7096 -145.913989 
L 358.655963 -144.152925 
L 357.670323 -142.391862 
L 356.771427 -140.630798 
L 355.972614 -138.869734 
L 355.281679 -137.10867 
L 354.700993 -135.347607 
L 354.227759 -133.586543 
L 353.854308 -131.825479 
L 353.56842 -130.064415 
L 353.35367 -128.303352 
L 353.18988 -126.542288 
L 353.05376 -124.781224 
L 352.919816 -123.02016 
L 352.76158 -121.259096 
L 352.553122 -119.498033 
L 352.270769 -117.736969 
L 351.894858 -115.975905 
L 351.411325 -114.214841 
L 350.812917 -112.453778 
L 350.099852 -110.692714 
L 349.279814 -108.93165 
L 348.36726 -107.170586 
L 347.382127 -105.409523 
L 346.348072 -103.648459 
L 345.290489 -101.887395 
L 344.234522 -100.126331 
L 343.203292 -98.365268 
L 342.216523 -96.604204 
L 341.289652 -94.84314 
L 340.433463 -93.082076 
L 339.654178 -91.321013 
L 338.953936 -89.559949 
L 338.331508 -87.798885 
L 337.783129 -86.037821 
L 337.303333 -84.276758 
L 336.885705 -82.515694 
L 336.523485 -80.75463 
L 336.21003 -78.993566 
L 335.939117 -77.232503 
L 335.705125 -75.471439 
z
" style="stroke: #484848; stroke-width: 1.25"/>
    </defs>
    <g clip-path="url(#pd14d236070)">
     <use xlink:href="#m11bd8d5672" x="0" y="276.869488" style="fill: #477ca8; stroke: #484848; stroke-width: 1.25"/>
    </g>
   </g>
   <g id="line2d_91">
    <path d="M 44.679295 220.348627 
L 110.715248 220.348627 
" clip-path="url(#pd14d236070)" style="fill: none; stroke-dasharray: 1.5625,0.9375; stroke-dashoffset: 0; stroke: #484848; stroke-width: 1.25"/>
   </g>
   <g id="line2d_92">
    <path d="M 44.679295 220.348627 
L 110.715248 220.348627 
" clip-path="url(#pd14d236070)" style="fill: none; stroke-dasharray: 3.125,1.25; stroke-dashoffset: 0; stroke: #484848; stroke-width: 1.25"/>
   </g>
   <g id="line2d_93">
    <path d="M 50.152939 212.768396 
L 105.241604 212.768396 
" clip-path="url(#pd14d236070)" style="fill: none; stroke-dasharray: 1.5625,0.9375; stroke-dashoffset: 0; stroke: #484848; stroke-width: 1.25"/>
   </g>
   <g id="line2d_94">
    <path d="M 129.046199 193.817818 
L 197.511435 193.817818 
" clip-path="url(#pd14d236070)" style="fill: none; stroke-dasharray: 1.5625,0.9375; stroke-dashoffset: 0; stroke: #484848; stroke-width: 1.25"/>
   </g>
   <g id="line2d_95">
    <path d="M 129.046199 193.817818 
L 197.511435 193.817818 
" clip-path="url(#pd14d236070)" style="fill: none; stroke-dasharray: 3.125,1.25; stroke-dashoffset: 0; stroke: #484848; stroke-width: 1.25"/>
   </g>
   <g id="line2d_96">
    <path d="M 142.60326 190.027703 
L 183.954374 190.027703 
" clip-path="url(#pd14d236070)" style="fill: none; stroke-dasharray: 1.5625,0.9375; stroke-dashoffset: 0; stroke: #484848; stroke-width: 1.25"/>
   </g>
   <g id="line2d_97">
    <path d="M 214.651805 163.496895 
L 283.068921 163.496895 
" clip-path="url(#pd14d236070)" style="fill: none; stroke-dasharray: 1.5625,0.9375; stroke-dashoffset: 0; stroke: #484848; stroke-width: 1.25"/>
   </g>
   <g id="line2d_98">
    <path d="M 220.267261 140.756202 
L 277.453465 140.756202 
" clip-path="url(#pd14d236070)" style="fill: none; stroke-dasharray: 3.125,1.25; stroke-dashoffset: 0; stroke: #484848; stroke-width: 1.25"/>
   </g>
   <g id="line2d_99">
    <path d="M 225.98258 114.225393 
L 271.738146 114.225393 
" clip-path="url(#pd14d236070)" style="fill: none; stroke-dasharray: 1.5625,0.9375; stroke-dashoffset: 0; stroke: #484848; stroke-width: 1.25"/>
   </g>
   <g id="line2d_100">
    <path d="M 308.195591 129.385855 
L 360.688226 129.385855 
" clip-path="url(#pd14d236070)" style="fill: none; stroke-dasharray: 1.5625,0.9375; stroke-dashoffset: 0; stroke: #484848; stroke-width: 1.25"/>
   </g>
   <g id="line2d_101">
    <path d="M 300.288097 102.855047 
L 368.59572 102.855047 
" clip-path="url(#pd14d236070)" style="fill: none; stroke-dasharray: 3.125,1.25; stroke-dashoffset: 0; stroke: #484848; stroke-width: 1.25"/>
   </g>
   <g id="line2d_102">
    <path d="M 306.090078 76.324239 
L 362.793739 76.324239 
" clip-path="url(#pd14d236070)" style="fill: none; stroke-dasharray: 1.5625,0.9375; stroke-dashoffset: 0; stroke: #484848; stroke-width: 1.25"/>
   </g>
   <g id="patch_3">
    <path d="M 34.906499 233.993042 
L 34.906499 17.198438 
" style="fill: none; stroke: #cccccc; stroke-width: 0.5; stroke-linejoin: miter; stroke-linecap: square"/>
   </g>
   <g id="patch_4">
    <path d="M 34.906499 233.993042 
L 377.232681 233.993042 
" style="fill: none; stroke: #cccccc; stroke-width: 0.5; stroke-linejoin: miter; stroke-linecap: square"/>
   </g>
   <g id="text_18">
    <!-- Age distribution -->
    <g style="fill: #262626" transform="translate(166.316465 11.198437) scale(0.1 -0.1)">
     <defs>
      <path id="DejaVuSans-62" d="M 3116 1747 
Q 3116 2381 2855 2742 
Q 2594 3103 2138 3103 
Q 1681 3103 1420 2742 
Q 1159 2381 1159 1747 
Q 1159 1113 1420 752 
Q 1681 391 2138 391 
Q 2594 391 2855 752 
Q 3116 1113 3116 1747 
z
M 1159 2969 
Q 1341 3281 1617 3432 
Q 1894 3584 2278 3584 
Q 2916 3584 3314 3078 
Q 3713 2572 3713 1747 
Q 3713 922 3314 415 
Q 2916 -91 2278 -91 
Q 1894 -91 1617 61 
Q 1341 213 1159 525 
L 1159 0 
L 581 0 
L 581 4863 
L 1159 4863 
L 1159 2969 
z
" transform="scale(0.015625)"/>
     </defs>
     <use xlink:href="#DejaVuSans-41"/>
     <use xlink:href="#DejaVuSans-67" transform="translate(68.408203 0)"/>
     <use xlink:href="#DejaVuSans-65" transform="translate(131.884766 0)"/>
     <use xlink:href="#DejaVuSans-20" transform="translate(193.408203 0)"/>
     <use xlink:href="#DejaVuSans-64" transform="translate(225.195312 0)"/>
     <use xlink:href="#DejaVuSans-69" transform="translate(288.671875 0)"/>
     <use xlink:href="#DejaVuSans-73" transform="translate(316.455078 0)"/>
     <use xlink:href="#DejaVuSans-74" transform="translate(368.554688 0)"/>
     <use xlink:href="#DejaVuSans-72" transform="translate(407.763672 0)"/>
     <use xlink:href="#DejaVuSans-69" transform="translate(448.876953 0)"/>
     <use xlink:href="#DejaVuSans-62" transform="translate(476.660156 0)"/>
     <use xlink:href="#DejaVuSans-75" transform="translate(540.136719 0)"/>
     <use xlink:href="#DejaVuSans-74" transform="translate(603.515625 0)"/>
     <use xlink:href="#DejaVuSans-69" transform="translate(642.724609 0)"/>
     <use xlink:href="#DejaVuSans-6f" transform="translate(670.507812 0)"/>
     <use xlink:href="#DejaVuSans-6e" transform="translate(731.689453 0)"/>
    </g>
   </g>
  </g>
 </g>
 <defs>
  <clipPath id="pd14d236070">
   <rect x="34.906499" y="17.198437" width="342.326182" height="216.794605"/>
  </clipPath>
 </defs>
</svg>
