<svg xmlns="http://www.w3.org/2000/svg" xmlns:xlink="http://www.w3.org/1999/xlink" version="1.1" class="marks" width="1410" height="372" viewBox="0 0 1410 372"><rect width="1410" height="372" fill="white"/><g fill="none" stroke-miterlimit="10" transform="translate(39,79)"><g class="mark-group role-frame root" role="graphics-object" aria-roledescription="group mark container"><g transform="translate(0,0)"><path class="background" aria-hidden="true" d="M0,0h0v0h0Z"/><g><g class="mark-group role-column-title column-title" role="graphics-object" aria-roledescription="group mark container"><g transform="translate(666,-53)"><path class="background" aria-hidden="true" d="M0,0h0v0h0Z"/><g><g class="mark-group role-title"><g transform="translate(0,-21)"><path class="background" aria-hidden="true" d="M0,0h0v0h0Z" pointer-events="none"/><g><g class="mark-text role-title-text" role="graphics-symbol" aria-roledescription="title" aria-label="Title text 'Group'" pointer-events="none"><text text-anchor="middle" transform="translate(0,9)" font-family="sans-serif" font-size="11px" font-weight="bold" fill="#000" opacity="1">Group</text></g></g><path class="foreground" aria-hidden="true" d="" pointer-events="none" display="none"/></g></g></g><path class="foreground" aria-hidden="true" d="" display="none"/></g></g><g class="mark-group role-column-header column_header" role="graphics-object" aria-roledescription="group mark container"><g transform="translate(0,-23)"><path class="background" aria-hidden="true" d="M0,0h300v0h-300Z"/><g><g class="mark-group role-title"><g transform="translate(150,-20)"><path class="background" aria-hidden="true" d="M0,0h0v0h0Z" pointer-events="none"/><g><g class="mark-text role-title-text" role="graphics-symbol" aria-roledescription="title" aria-label="Title text 'teachers - in service'" pointer-events="none"><text text-anchor="middle" transform="translate(0,8)" font-family="sans-serif" font-size="10px" fill="#000" opacity="1">teachers - in service</text></g></g><path class="foreground" aria-hidden="true" d="" pointer-events="none" display="none"/></g></g></g><path class="foreground" aria-hidden="true" d="" display="none"/></g><g transform="translate(355,-23)"><path class="background" aria-hidden="true" d="M0,0h300v0h-300Z"/><g><g class="mark-group role-title"><g transform="translate(150,-20)"><path class="background" aria-hidden="true" d="M0,0h0v0h0Z" pointer-events="none"/><g><g class="mark-text role-title-text" role="graphics-symbol" aria-roledescription="title" aria-label="Title text 'teachers - not in service'" pointer-events="none"><text text-anchor="middle" transform="translate(0,8)" font-family="sans-serif" font-size="10px" fill="#000" opacity="1">teachers - not in service</text></g></g><path class="foreground" aria-hidden="true" d="" pointer-events="none" display="none"/></g></g></g><path class="foreground" aria-hidden="true" d="" display="none"/></g><g transform="translate(710,-23)"><path class="background" aria-hidden="true" d="M0,0h300v0h-300Z"/><g><g class="mark-group role-title"><g transform="translate(150,-20)"><path class="background" aria-hidden="true" d="M0,0h0v0h0Z" pointer-events="none"/><g><g class="mark-text role-title-text" role="graphics-symbol" aria-roledescription="title" aria-label="Title text 'students - university'" pointer-events="none"><text text-anchor="middle" transform="translate(0,8)" font-family="sans-serif" font-size="10px" fill="#000" opacity="1">students - university</text></g></g><path class="foreground" aria-hidden="true" d="" pointer-events="none" display="none"/></g></g></g><path class="foreground" aria-hidden="true" d="" display="none"/></g><g transform="translate(1065,-23)"><path class="background" aria-hidden="true" d="M0,0h300v0h-300Z"/><g><g class="mark-group role-title"><g transform="translate(150,-20)"><path class="background" aria-hidden="true" d="M0,0h0v0h0Z" pointer-events="none"/><g><g class="mark-text role-title-text" role="graphics-symbol" aria-roledescription="title" aria-label="Title text 'students - secondary'" pointer-events="none"><text text-anchor="middle" transform="translate(0,8)" font-family="sans-serif" font-size="10px" fill="#000" opacity="1">students - secondary</text></g></g><path class="foreground" aria-hidden="true" d="" pointer-events="none" display="none"/></g></g></g><path class="foreground" aria-hidden="true" d="" display="none"/></g></g><g class="mark-group role-column-footer column_footer" role="graphics-object" aria-roledescription="group mark container"><g transform="translate(0,256)"><path class="background" aria-hidden="true" d="M0,0h300v0h-300Z"/><g><g class="mark-group role-axis" role="graphics-symbol" aria-roledescription="axis" aria-label="X-axis titled 'Age (years)' for a linear scale with values from 10 to 70"><g transform="translate(0.5,0.5)"><path class="background" aria-hidden="true" d="M0,0h0v0h0Z" pointer-events="none"/><g><g class="mark-rule role-axis-tick" pointer-events="none"><line transform="translate(0,0)" x2="0" y2="5" stroke="#888" stroke-width="1" opacity="1"/><line transform="translate(50,0)" x2="0" y2="5" stroke="#888" stroke-width="1" opacity="1"/><line transform="translate(100,0)" x2="0" y2="5" stroke="#888" stroke-width="1" opacity="1"/><line transform="translate(150,0)" x2="0" y2="5" stroke="#888" stroke-width="1" opacity="1"/><line transform="translate(200,0)" x2="0" y2="5" stroke="#888" stroke-width="1" opacity="1"/><line transform="translate(250,0)" x2="0" y2="5" stroke="#888" stroke-width="1" opacity="1"/><line transform="translate(300,0)" x2="0" y2="5" stroke="#888" stroke-width="1" opacity="1"/></g><g class="mark-text role-axis-label" pointer-events="none"><text text-anchor="start" transform="translate(0,15)" font-family="sans-serif" font-size="10px" fill="#000" opacity="1">10</text><text text-anchor="middle" transform="translate(50,15)" font-family="sans-serif" font-size="10px" fill="#000" opacity="1">20</text><text text-anchor="middle" transform="translate(100,15)" font-family="sans-serif" font-size="10px" fill="#000" opacity="1">30</text><text text-anchor="middle" transform="translate(150,15)" font-family="sans-serif" font-size="10px" fill="#000" opacity="1">40</text><text text-anchor="middle" transform="translate(200,15)" font-family="sans-serif" font-size="10px" fill="#000" opacity="1">50</text><text text-anchor="middle" transform="translate(250,15)" font-family="sans-serif" font-size="10px" fill="#000" opacity="1">60</text><text text-anchor="end" transform="translate(300,15)" font-family="sans-serif" font-size="10px" fill="#000" opacity="1">70</text></g><g class="mark-rule role-axis-domain" pointer-events="none"><line transform="translate(0,0)" x2="300" y2="0" stroke="#888" stroke-width="1" opacity="1"/></g><g class="mark-text role-axis-title" pointer-events="none"><text text-anchor="middle" transform="translate(150,30)" font-family="sans-serif" font-size="11px" font-weight="bold" fill="#000" opacity="1">Age (years)</text></g></g><path class="foreground" aria-hidden="true" d="" pointer-events="none" display="none"/></g></g></g><path class="foreground" aria-hidden="true" d="" display="none"/></g><g transform="translate(355,256)"><path class="background" aria-hidden="true" d="M0,0h300v0h-300Z"/><g><g class="mark-group role-axis" role="graphics-symbol" aria-roledescription="axis" aria-label="X-axis titled 'Age (years)' for a linear scale with values from 10 to 70"><g transform="translate(0.5,0.5)"><path class="background" aria-hidden="true" d="M0,0h0v0h0Z" pointer-events="none"/><g><g class="mark-rule role-axis-tick" pointer-events="none"><line transform="translate(0,0)" x2="0" y2="5" stroke="#888" stroke-width="1" opacity="1"/><line transform="translate(50,0)" x2="0" y2="5" stroke="#888" stroke-width="1" opacity="1"/><line transform="translate(100,0)" x2="0" y2="5" stroke="#888" stroke-width="1" opacity="1"/><line transform="translate(150,0)" x2="0" y2="5" stroke="#888" stroke-width="1" opacity="1"/><line transform="translate(200,0)" x2="0" y2="5" stroke="#888" stroke-width="1" opacity="1"/><line transform="translate(250,0)" x2="0" y2="5" stroke="#888" stroke-width="1" opacity="1"/><line transform="translate(300,0)" x2="0" y2="5" stroke="#888" stroke-width="1" opacity="1"/></g><g class="mark-text role-axis-label" pointer-events="none"><text text-anchor="start" transform="translate(0,15)" font-family="sans-serif" font-size="10px" fill="#000" opacity="1">10</text><text text-anchor="middle" transform="translate(50,15)" font-family="sans-serif" font-size="10px" fill="#000" opacity="1">20</text><text text-anchor="middle" transform="translate(100,15)" font-family="sans-serif" font-size="10px" fill="#000" opacity="1">30</text><text text-anchor="middle" transform="translate(150,15)" font-family="sans-serif" font-size="10px" fill="#000" opacity="1">40</text><text text-anchor="middle" transform="translate(200,15)" font-family="sans-serif" font-size="10px" fill="#000" opacity="1">50</text><text text-anchor="middle" transform="translate(250,15)" font-family="sans-serif" font-size="10px" fill="#000" opacity="1">60</text><text text-anchor="end" transform="translate(300,15)" font-family="sans-serif" font-size="10px" fill="#000" opacity="1">70</text></g><g class="mark-rule role-axis-domain" pointer-events="none"><line transform="translate(0,0)" x2="300" y2="0" stroke="#888" stroke-width="1" opacity="1"/></g><g class="mark-text role-axis-title" pointer-events="none"><text text-anchor="middle" transform="translate(150,30)" font-family="sans-serif" font-size="11px" font-weight="bold" fill="#000" opacity="1">Age (years)</text></g></g><path class="foreground" aria-hidden="true" d="" pointer-events="none" display="none"/></g></g></g><path class="foreground" aria-hidden="true" d="" display="none"/></g><g transform="translate(710,256)"><path class="background" aria-hidden="true" d="M0,0h300v0h-300Z"/><g><g class="mark-group role-axis" role="graphics-symbol" aria-roledescription="axis" aria-label="X-axis titled 'Age (years)' for a linear scale with values from 10 to 70"><g transform="translate(0.5,0.5)"><path class="background" aria-hidden="true" d="M0,0h0v0h0Z" pointer-events="none"/><g><g class="mark-rule role-axis-tick" pointer-events="none"><line transform="translate(0,0)" x2="0" y2="5" stroke="#888" stroke-width="1" opacity="1"/><line transform="translate(50,0)" x2="0" y2="5" stroke="#888" stroke-width="1" opacity="1"/><line transform="translate(100,0)" x2="0" y2="5" stroke="#888" stroke-width="1" opacity="1"/><line transform="translate(150,0)" x2="0" y2="5" stroke="#888" stroke-width="1" opacity="1"/><line transform="translate(200,0)" x2="0" y2="5" stroke="#888" stroke-width="1" opacity="1"/><line transform="translate(250,0)" x2="0" y2="5" stroke="#888" stroke-width="1" opacity="1"/><line transform="translate(300,0)" x2="0" y2="5" stroke="#888" stroke-width="1" opacity="1"/></g><g class="mark-text role-axis-label" pointer-events="none"><text text-anchor="start" transform="translate(0,15)" font-family="sans-serif" font-size="10px" fill="#000" opacity="1">10</text><text text-anchor="middle" transform="translate(50,15)" font-family="sans-serif" font-size="10px" fill="#000" opacity="1">20</text><text text-anchor="middle" transform="translate(100,15)" font-family="sans-serif" font-size="10px" fill="#000" opacity="1">30</text><text text-anchor="middle" transform="translate(150,15)" font-family="sans-serif" font-size="10px" fill="#000" opacity="1">40</text><text text-anchor="middle" transform="translate(200,15)" font-family="sans-serif" font-size="10px" fill="#000" opacity="1">50</text><text text-anchor="middle" transform="translate(250,15)" font-family="sans-serif" font-size="10px" fill="#000" opacity="1">60</text><text text-anchor="end" transform="translate(300,15)" font-family="sans-serif" font-size="10px" fill="#000" opacity="1">70</text></g><g class="mark-rule role-axis-domain" pointer-events="none"><line transform="translate(0,0)" x2="300" y2="0" stroke="#888" stroke-width="1" opacity="1"/></g><g class="mark-text role-axis-title" pointer-events="none"><text text-anchor="middle" transform="translate(150,30)" font-family="sans-serif" font-size="11px" font-weight="bold" fill="#000" opacity="1">Age (years)</text></g></g><path class="foreground" aria-hidden="true" d="" pointer-events="none" display="none"/></g></g></g><path class="foreground" aria-hidden="true" d="" display="none"/></g><g transform="translate(1065,256)"><path class="background" aria-hidden="true" d="M0,0h300v0h-300Z"/><g><g class="mark-group role-axis" role="graphics-symbol" aria-roledescription="axis" aria-label="X-axis titled 'Age (years)' for a linear scale with values from 10 to 70"><g transform="translate(0.5,0.5)"><path class="background" aria-hidden="true" d="M0,0h0v0h0Z" pointer-events="none"/><g><g class="mark-rule role-axis-tick" pointer-events="none"><line transform="translate(0,0)" x2="0" y2="5" stroke="#888" stroke-width="1" opacity="1"/><line transform="translate(50,0)" x2="0" y2="5" stroke="#888" stroke-width="1" opacity="1"/><line transform="translate(100,0)" x2="0" y2="5" stroke="#888" stroke-width="1" opacity="1"/><line transform="translate(150,0)" x2="0" y2="5" stroke="#888" stroke-width="1" opacity="1"/><line transform="translate(200,0)" x2="0" y2="5" stroke="#888" stroke-width="1" opacity="1"/><line transform="translate(250,0)" x2="0" y2="5" stroke="#888" stroke-width="1" opacity="1"/><line transform="translate(300,0)" x2="0" y2="5" stroke="#888" stroke-width="1" opacity="1"/></g><g class="mark-text role-axis-label" pointer-events="none"><text text-anchor="start" transform="translate(0,15)" font-family="sans-serif" font-size="10px" fill="#000" opacity="1">10</text><text text-anchor="middle" transform="translate(50,15)" font-family="sans-serif" font-size="10px" fill="#000" opacity="1">20</text><text text-anchor="middle" transform="translate(100,15)" font-family="sans-serif" font-size="10px" fill="#000" opacity="1">30</text><text text-anchor="middle" transform="translate(150,15)" font-family="sans-serif" font-size="10px" fill="#000" opacity="1">40</text><text text-anchor="middle" transform="translate(200,15)" font-family="sans-serif" font-size="10px" fill="#000" opacity="1">50</text><text text-anchor="middle" transform="translate(250,15)" font-family="sans-serif" font-size="10px" fill="#000" opacity="1">60</text><text text-anchor="end" transform="translate(300,15)" font-family="sans-serif" font-size="10px" fill="#000" opacity="1">70</text></g><g class="mark-rule role-axis-domain" pointer-events="none"><line transform="translate(0,0)" x2="300" y2="0" stroke="#888" stroke-width="1" opacity="1"/></g><g class="mark-text role-axis-title" pointer-events="none"><text text-anchor="middle" transform="translate(150,30)" font-family="sans-serif" font-size="11px" font-weight="bold" fill="#000" opacity="1">Age (years)</text></g></g><path class="foreground" aria-hidden="true" d="" pointer-events="none" display="none"/></g></g></g><path class="foreground" aria-hidden="true" d="" display="none"/></g></g><g class="mark-group role-scope cell" role="graphics-object" aria-roledescription="group mark container"><g transform="translate(0,0)"><path class="background" aria-hidden="true" d="M0.5,0.5h300v250h-300Z" stroke="#ddd"/><g><g class="mark-group role-axis" aria-hidden="true"><g transform="translate(0.5,250.5)"><path class="background" aria-hidden="true" d="M0,0h0v0h0Z" pointer-events="none"/><g><g class="mark-rule role-axis-grid" pointer-events="none"><line transform="translate(0,-250)" x2="0" y2="250" stroke="#ddd" stroke-width="1" opacity="1"/><line transform="translate(50,-250)" x2="0" y2="250" stroke="#ddd" stroke-width="1" opacity="1"/><line transform="translate(100,-250)" x2="0" y2="250" stroke="#ddd" stroke-width="1" opacity="1"/><line transform="translate(150,-250)" x2="0" y2="250" stroke="#ddd" stroke-width="1" opacity="1"/><line transform="translate(200,-250)" x2="0" y2="250" stroke="#ddd" stroke-width="1" opacity="1"/><line transform="translate(250,-250)" x2="0" y2="250" stroke="#ddd" stroke-width="1" opacity="1"/><line transform="translate(300,-250)" x2="0" y2="250" stroke="#ddd" stroke-width="1" opacity="1"/></g></g><path class="foreground" aria-hidden="true" d="" pointer-events="none" display="none"/></g></g><g class="mark-group role-axis" aria-hidden="true"><g transform="translate(0.5,0.5)"><path class="background" aria-hidden="true" d="M0,0h0v0h0Z" pointer-events="none"/><g><g class="mark-rule role-axis-grid" pointer-events="none"><line transform="translate(0,250)" x2="300" y2="0" stroke="#ddd" stroke-width="1" opacity="1"/><line transform="translate(0,219)" x2="300" y2="0" stroke="#ddd" stroke-width="1" opacity="1"/><line transform="translate(0,188)" x2="300" y2="0" stroke="#ddd" stroke-width="1" opacity="1"/><line transform="translate(0,156)" x2="300" y2="0" stroke="#ddd" stroke-width="1" opacity="1"/><line transform="translate(0,125)" x2="300" y2="0" stroke="#ddd" stroke-width="1" opacity="1"/><line transform="translate(0,94)" x2="300" y2="0" stroke="#ddd" stroke-width="1" opacity="1"/><line transform="translate(0,63)" x2="300" y2="0" stroke="#ddd" stroke-width="1" opacity="1"/><line transform="translate(0,31)" x2="300" y2="0" stroke="#ddd" stroke-width="1" opacity="1"/><line transform="translate(0,0)" x2="300" y2="0" stroke="#ddd" stroke-width="1" opacity="1"/></g></g><path class="foreground" aria-hidden="true" d="" pointer-events="none" display="none"/></g></g><g class="mark-group role-axis" role="graphics-symbol" aria-roledescription="axis" aria-label="Y-axis for a linear scale with values from 0.00 to 0.04"><g transform="translate(0.5,0.5)"><path class="background" aria-hidden="true" d="M0,0h0v0h0Z" pointer-events="none"/><g><g class="mark-rule role-axis-tick" pointer-events="none"><line transform="translate(0,250)" x2="-5" y2="0" stroke="#888" stroke-width="1" opacity="1"/><line transform="translate(0,219)" x2="-5" y2="0" stroke="#888" stroke-width="1" opacity="1"/><line transform="translate(0,188)" x2="-5" y2="0" stroke="#888" stroke-width="1" opacity="1"/><line transform="translate(0,156)" x2="-5" y2="0" stroke="#888" stroke-width="1" opacity="1"/><line transform="translate(0,125)" x2="-5" y2="0" stroke="#888" stroke-width="1" opacity="1"/><line transform="translate(0,94)" x2="-5" y2="0" stroke="#888" stroke-width="1" opacity="1"/><line transform="translate(0,63)" x2="-5" y2="0" stroke="#888" stroke-width="1" opacity="1"/><line transform="translate(0,31)" x2="-5" y2="0" stroke="#888" stroke-width="1" opacity="1"/><line transform="translate(0,0)" x2="-5" y2="0" stroke="#888" stroke-width="1" opacity="1"/></g><g class="mark-text role-axis-label" pointer-events="none"><text text-anchor="end" transform="translate(-7,253)" font-family="sans-serif" font-size="10px" fill="#000" opacity="1">0.000</text><text text-anchor="end" transform="translate(-7,221.75)" font-family="sans-serif" font-size="10px" fill="#000" opacity="1">0.005</text><text text-anchor="end" transform="translate(-7,190.5)" font-family="sans-serif" font-size="10px" fill="#000" opacity="1">0.010</text><text text-anchor="end" transform="translate(-7,159.25)" font-family="sans-serif" font-size="10px" fill="#000" opacity="1">0.015</text><text text-anchor="end" transform="translate(-7,128)" font-family="sans-serif" font-size="10px" fill="#000" opacity="1">0.020</text><text text-anchor="end" transform="translate(-7,96.75)" font-family="sans-serif" font-size="10px" fill="#000" opacity="1">0.025</text><text text-anchor="end" transform="translate(-7,65.5)" font-family="sans-serif" font-size="10px" fill="#000" opacity="1">0.030</text><text text-anchor="end" transform="translate(-7,34.24999999999997)" font-family="sans-serif" font-size="10px" fill="#000" opacity="1">0.035</text><text text-anchor="end" transform="translate(-7,3)" font-family="sans-serif" font-size="10px" fill="#000" opacity="1">0.040</text></g><g class="mark-rule role-axis-domain" pointer-events="none"><line transform="translate(0,250)" x2="0" y2="-250" stroke="#888" stroke-width="1" opacity="1"/></g></g><path class="foreground" aria-hidden="true" d="" pointer-events="none" display="none"/></g></g><g class="mark-group role-scope child_pathgroup" role="graphics-object" aria-roledescription="group mark container"><g transform="translate(0,0)"><path class="background" aria-hidden="true" d="M0,0h300v250h-300Z"/><g><g class="mark-area role-mark child_marks" role="graphics-object" aria-roledescription="area mark container"><path aria-label="Age (years): 14; density: 0.0000848757809438; GroupDetail: teachers - in service" role="graphics-symbol" aria-roledescription="area mark" d="M20,249.47L21.3,249.377L22.6,249.272L23.9,249.153L25.2,249.019L26.5,248.868L27.8,248.7L29.1,248.511L30.4,248.302L31.7,248.07L33,247.814L34.3,247.531L35.6,247.221L36.9,246.88L38.2,246.507L39.5,246.099L40.8,245.654L42.1,245.168L43.4,244.64L44.7,244.064L46,243.438L47.3,242.758L48.6,242.019L49.9,241.217L51.2,240.347L52.5,239.402L53.8,238.378L55.1,237.269L56.4,236.067L57.7,234.767L59,233.363L60.3,231.847L61.6,230.212L62.9,228.454L64.2,226.566L65.5,224.542L66.8,222.38L68.1,220.074L69.4,217.624L70.7,215.028L72,212.288L73.3,209.408L74.6,206.391L75.9,203.246L77.2,199.982L78.5,196.611L79.8,193.148L81.1,189.609L82.4,186.012L83.7,182.379L85,178.731L86.3,175.091L87.6,171.483L88.9,167.932L90.2,164.46L91.5,161.091L92.8,157.846L94.1,154.745L95.4,151.805L96.7,149.041L98,146.463L99.3,144.08L100.6,141.895L101.9,139.909L103.2,138.117L104.5,136.513L105.8,135.085L107.1,133.819L108.4,132.699L109.7,131.703L111,130.809L112.3,129.995L113.6,129.235L114.9,128.503L116.2,127.773L117.5,127.02L118.8,126.218L120.1,125.343L121.4,124.373L122.7,123.286L124,122.064L125.3,120.69L126.6,119.148L127.9,117.428L129.2,115.521L130.5,113.419L131.8,111.121L133.1,108.626L134.4,105.937L135.7,103.061L137,100.007L138.3,96.788L139.6,93.42L140.9,89.92L142.2,86.312L143.5,82.617L144.8,78.862L146.1,75.075L147.4,71.284L148.7,67.519L150,63.808L151.3,60.182L152.6,56.668L153.9,53.293L155.2,50.081L156.5,47.053L157.8,44.227L159.1,41.619L160.4,39.237L161.7,37.09L163,35.179L164.3,33.502L165.6,32.055L166.9,30.828L168.2,29.809L169.5,28.983L170.8,28.335L172.1,27.845L173.4,27.498L174.7,27.273L176,27.155L177.3,27.129L178.6,27.18L179.9,27.299L181.2,27.478L182.5,27.711L183.8,27.997L185.1,28.338L186.4,28.737L187.7,29.201L189,29.739L190.3,30.359L191.6,31.074L192.9,31.893L194.2,32.827L195.5,33.886L196.8,35.078L198.1,36.409L199.4,37.883L200.7,39.501L202,41.262L203.3,43.163L204.6,45.197L205.9,47.357L207.2,49.632L208.5,52.01L209.8,54.479L211.1,57.025L212.4,59.634L213.7,62.293L215,64.99L216.3,67.711L217.6,70.448L218.9,73.191L220.2,75.932L221.5,78.665L222.8,81.388L224.1,84.096L225.4,86.789L226.7,89.466L228,92.131L229.3,94.784L230.6,97.428L231.9,100.067L233.2,102.704L234.5,105.343L235.8,107.988L237.1,110.641L238.4,113.306L239.7,115.985L241,118.682L242.3,121.397L243.6,124.134L244.9,126.893L246.2,129.676L247.5,132.483L248.8,135.316L250.1,138.175L251.4,141.06L252.7,143.972L254,146.911L255.3,149.876L256.6,152.867L257.9,155.884L259.2,158.926L260.5,161.99L261.8,165.076L263.1,168.181L264.4,171.301L265.7,174.434L267,177.576L268.3,180.721L269.6,183.866L270.9,187.003L272.2,190.126L273.5,193.229L274.8,196.305L276.1,199.345L277.4,202.343L278.7,205.289L280,208.175L280,250L278.7,250L277.4,250L276.1,250L274.8,250L273.5,250L272.2,250L270.9,250L269.6,250L268.3,250L267,250L265.7,250L264.4,250L263.1,250L261.8,250L260.5,250L259.2,250L257.9,250L256.6,250L255.3,250L254,250L252.7,250L251.4,250L250.1,250L248.8,250L247.5,250L246.2,250L244.9,250L243.6,250L242.3,250L241,250L239.7,250L238.4,250L237.1,250L235.8,250L234.5,250L233.2,250L231.9,250L230.6,250L229.3,250L228,250L226.7,250L225.4,250L224.1,250L222.8,250L221.5,250L220.2,250L218.9,250L217.6,250L216.3,250L215,250L213.7,250L212.4,250L211.1,250L209.8,250L208.5,250L207.2,250L205.9,250L204.6,250L203.3,250L202,250L200.7,250L199.4,250L198.1,250L196.8,250L195.5,250L194.2,250L192.9,250L191.6,250L190.3,250L189,250L187.7,250L186.4,250L185.1,250L183.8,250L182.5,250L181.2,250L179.9,250L178.6,250L177.3,250L176,250L174.7,250L173.4,250L172.1,250L170.8,250L169.5,250L168.2,250L166.9,250L165.6,250L164.3,250L163,250L161.7,250L160.4,250L159.1,250L157.8,250L156.5,250L155.2,250L153.9,250L152.6,250L151.3,250L150,250L148.7,250L147.4,250L146.1,250L144.8,250L143.5,250L142.2,250L140.9,250L139.6,250L138.3,250L137,250L135.7,250L134.4,250L133.1,250L131.8,250L130.5,250L129.2,250L127.9,250L126.6,250L125.3,250L124,250L122.7,250L121.4,250L120.1,250L118.8,250L117.5,250L116.2,250L114.9,250L113.6,250L112.3,250L111,250L109.7,250L108.4,250L107.1,250L105.8,250L104.5,250L103.2,250L101.9,250L100.6,250L99.3,250L98,250L96.7,250L95.4,250L94.1,250L92.8,250L91.5,250L90.2,250L88.9,250L87.6,250L86.3,250L85,250L83.7,250L82.4,250L81.1,250L79.8,250L78.5,250L77.2,250L75.9,250L74.6,250L73.3,250L72,250L70.7,250L69.4,250L68.1,250L66.8,250L65.5,250L64.2,250L62.9,250L61.6,250L60.3,250L59,250L57.7,250L56.4,250L55.1,250L53.8,250L52.5,250L51.2,250L49.9,250L48.6,250L47.3,250L46,250L44.7,250L43.4,250L42.1,250L40.8,250L39.5,250L38.2,250L36.9,250L35.6,250L34.3,250L33,250L31.7,250L30.4,250L29.1,250L27.8,250L26.5,250L25.2,250L23.9,250L22.6,250L21.3,250L20,250Z" fill="royalblue" opacity="0.7"/></g></g><path class="foreground" aria-hidden="true" d="" display="none"/></g></g><g class="mark-group role-title"><g transform="translate(150,-22)"><path class="background" aria-hidden="true" d="M0,0h0v0h0Z" pointer-events="none"/><g><g class="mark-text role-title-text" role="graphics-symbol" aria-roledescription="title" aria-label="Title text 'Age distribution — violin'" pointer-events="none"><text text-anchor="middle" transform="translate(0,10)" font-family="sans-serif" font-size="13px" font-weight="bold" fill="#000" opacity="1">Age distribution — violin</text></g></g><path class="foreground" aria-hidden="true" d="" pointer-events="none" display="none"/></g></g></g><path class="foreground" aria-hidden="true" d="" display="none"/></g><g transform="translate(355,0)"><path class="background" aria-hidden="true" d="M0.5,0.5h300v250h-300Z" stroke="#ddd"/><g><g class="mark-group role-axis" aria-hidden="true"><g transform="translate(0.5,250.5)"><path class="background" aria-hidden="true" d="M0,0h0v0h0Z" pointer-events="none"/><g><g class="mark-rule role-axis-grid" pointer-events="none"><line transform="translate(0,-250)" x2="0" y2="250" stroke="#ddd" stroke-width="1" opacity="1"/><line transform="translate(50,-250)" x2="0" y2="250" stroke="#ddd" stroke-width="1" opacity="1"/><line transform="translate(100,-250)" x2="0" y2="250" stroke="#ddd" stroke-width="1" opacity="1"/><line transform="translate(150,-250)" x2="0" y2="250" stroke="#ddd" stroke-width="1" opacity="1"/><line transform="translate(200,-250)" x2="0" y2="250" stroke="#ddd" stroke-width="1" opacity="1"/><line transform="translate(250,-250)" x2="0" y2="250" stroke="#ddd" stroke-width="1" opacity="1"/><line transform="translate(300,-250)" x2="0" y2="250" stroke="#ddd" stroke-width="1" opacity="1"/></g></g><path class="foreground" aria-hidden="true" d="" pointer-events="none" display="none"/></g></g><g class="mark-group role-axis" aria-hidden="true"><g transform="translate(0.5,0.5)"><path class="background" aria-hidden="true" d="M0,0h0v0h0Z" pointer-events="none"/><g><g class="mark-rule role-axis-grid" pointer-events="none"><line transform="translate(0,250)" x2="300" y2="0" stroke="#ddd" stroke-width="1" opacity="1"/><line transform="translate(0,222)" x2="300" y2="0" stroke="#ddd" stroke-width="1" opacity="1"/><line transform="translate(0,194)" x2="300" y2="0" stroke="#ddd" stroke-width="1" opacity="1"/><line transform="translate(0,167)" x2="300" y2="0" stroke="#ddd" stroke-width="1" opacity="1"/><line transform="translate(0,139)" x2="300" y2="0" stroke="#ddd" stroke-width="1" opacity="1"/><line transform="translate(0,111)" x2="300" y2="0" stroke="#ddd" stroke-width="1" opacity="1"/><line transform="translate(0,83)" x2="300" y2="0" stroke="#ddd" stroke-width="1" opacity="1"/><line transform="translate(0,56)" x2="300" y2="0" stroke="#ddd" stroke-width="1" opacity="1"/><line transform="translate(0,28)" x2="300" y2="0" stroke="#ddd" stroke-width="1" opacity="1"/><line transform="translate(0,0)" x2="300" y2="0" stroke="#ddd" stroke-width="1" opacity="1"/></g></g><path class="foreground" aria-hidden="true" d="" pointer-events="none" display="none"/></g></g><g class="mark-group role-axis" role="graphics-symbol" aria-roledescription="axis" aria-label="Y-axis for a linear scale with values from 0.00 to 0.04"><g transform="translate(0.5,0.5)"><path class="background" aria-hidden="true" d="M0,0h0v0h0Z" pointer-events="none"/><g><g class="mark-rule role-axis-tick" pointer-events="none"><line transform="translate(0,250)" x2="-5" y2="0" stroke="#888" stroke-width="1" opacity="1"/><line transform="translate(0,222)" x2="-5" y2="0" stroke="#888" stroke-width="1" opacity="1"/><line transform="translate(0,194)" x2="-5" y2="0" stroke="#888" stroke-width="1" opacity="1"/><line transform="translate(0,167)" x2="-5" y2="0" stroke="#888" stroke-width="1" opacity="1"/><line transform="translate(0,139)" x2="-5" y2="0" stroke="#888" stroke-width="1" opacity="1"/><line transform="translate(0,111)" x2="-5" y2="0" stroke="#888" stroke-width="1" opacity="1"/><line transform="translate(0,83)" x2="-5" y2="0" stroke="#888" stroke-width="1" opacity="1"/><line transform="translate(0,56)" x2="-5" y2="0" stroke="#888" stroke-width="1" opacity="1"/><line transform="translate(0,28)" x2="-5" y2="0" stroke="#888" stroke-width="1" opacity="1"/><line transform="translate(0,0)" x2="-5" y2="0" stroke="#888" stroke-width="1" opacity="1"/></g><g class="mark-text role-axis-label" pointer-events="none"><text text-anchor="end" transform="translate(-7,253)" font-family="sans-serif" font-size="10px" fill="#000" opacity="1">0.000</text><text text-anchor="end" transform="translate(-7,225.2222222222222)" font-family="sans-serif" font-size="10px" fill="#000" opacity="1">0.005</text><text text-anchor="end" transform="translate(-7,197.44444444444446)" font-family="sans-serif" font-size="10px" fill="#000" opacity="1">0.010</text><text text-anchor="end" transform="translate(-7,169.66666666666669)" font-family="sans-serif" font-size="10px" fill="#000" opacity="1">0.015</text><text text-anchor="end" transform="translate(-7,141.88888888888889)" font-family="sans-serif" font-size="10px" fill="#000" opacity="1">0.020</text><text text-anchor="end" transform="translate(-7,114.1111111111111)" font-family="sans-serif" font-size="10px" fill="#000" opacity="1">0.025</text><text text-anchor="end" transform="translate(-7,86.33333333333334)" font-family="sans-serif" font-size="10px" fill="#000" opacity="1">0.030</text><text text-anchor="end" transform="translate(-7,58.55555555555552)" font-family="sans-serif" font-size="10px" fill="#000" opacity="1">0.035</text><text text-anchor="end" transform="translate(-7,30.77777777777776)" font-family="sans-serif" font-size="10px" fill="#000" opacity="1">0.040</text><text text-anchor="end" transform="translate(-7,3)" font-family="sans-serif" font-size="10px" fill="#000" opacity="1">0.045</text></g><g class="mark-rule role-axis-domain" pointer-events="none"><line transform="translate(0,250)" x2="0" y2="-250" stroke="#888" stroke-width="1" opacity="1"/></g></g><path class="foreground" aria-hidden="true" d="" pointer-events="none" display="none"/></g></g><g class="mark-group role-scope child_pathgroup" role="graphics-object" aria-roledescription="group mark container"><g transform="translate(0,0)"><path class="background" aria-hidden="true" d="M0,0h300v250h-300Z"/><g><g class="mark-area role-mark child_marks" role="graphics-object" aria-roledescription="area mark container"><path aria-label="Age (years): 14; density: 0.000261817977541; GroupDetail: teachers - not in service" role="graphics-symbol" aria-roledescription="area mark" d="M20,248.545L21.3,248.255L22.6,247.916L23.9,247.52L25.2,247.062L26.5,246.531L27.8,245.921L29.1,245.223L30.4,244.425L31.7,243.52L33,242.495L34.3,241.339L35.6,240.042L36.9,238.592L38.2,236.977L39.5,235.186L40.8,233.206L42.1,231.026L43.4,228.635L44.7,226.023L46,223.18L47.3,220.097L48.6,216.766L49.9,213.18L51.2,209.335L52.5,205.227L53.8,200.854L55.1,196.217L56.4,191.318L57.7,186.161L59,180.754L60.3,175.106L61.6,169.23L62.9,163.139L64.2,156.853L65.5,150.39L66.8,143.773L68.1,137.028L69.4,130.182L70.7,123.264L72,116.306L73.3,109.342L74.6,102.405L75.9,95.532L77.2,88.758L78.5,82.121L79.8,75.656L81.1,69.4L82.4,63.386L83.7,57.649L85,52.218L86.3,47.124L87.6,42.391L88.9,38.041L90.2,34.095L91.5,30.567L92.8,27.468L94.1,24.804L95.4,22.577L96.7,20.786L98,19.421L99.3,18.473L100.6,17.925L101.9,17.758L103.2,17.947L104.5,18.467L105.8,19.289L107.1,20.38L108.4,21.707L109.7,23.236L111,24.932L112.3,26.762L113.6,28.691L114.9,30.687L116.2,32.721L117.5,34.766L118.8,36.796L120.1,38.793L121.4,40.737L122.7,42.617L124,44.423L125.3,46.149L126.6,47.793L127.9,49.358L129.2,50.848L130.5,52.271L131.8,53.635L133.1,54.953L134.4,56.238L135.7,57.501L137,58.756L138.3,60.015L139.6,61.29L140.9,62.591L142.2,63.925L143.5,65.299L144.8,66.717L146.1,68.18L147.4,69.688L148.7,71.238L150,72.827L151.3,74.447L152.6,76.092L153.9,77.754L155.2,79.425L156.5,81.095L157.8,82.757L159.1,84.405L160.4,86.031L161.7,87.633L163,89.206L164.3,90.751L165.6,92.269L166.9,93.764L168.2,95.241L169.5,96.708L170.8,98.173L172.1,99.648L173.4,101.144L174.7,102.674L176,104.25L177.3,105.885L178.6,107.592L179.9,109.383L181.2,111.267L182.5,113.254L183.8,115.35L185.1,117.561L186.4,119.889L187.7,122.336L189,124.899L190.3,127.573L191.6,130.353L192.9,133.231L194.2,136.195L195.5,139.234L196.8,142.335L198.1,145.484L199.4,148.666L200.7,151.866L202,155.07L203.3,158.264L204.6,161.433L205.9,164.566L207.2,167.651L208.5,170.679L209.8,173.643L211.1,176.536L212.4,179.354L213.7,182.094L215,184.756L216.3,187.339L217.6,189.846L218.9,192.281L220.2,194.646L221.5,196.948L222.8,199.19L224.1,201.378L225.4,203.517L226.7,205.612L228,207.668L229.3,209.687L230.6,211.674L231.9,213.629L233.2,215.554L234.5,217.448L235.8,219.312L237.1,221.143L238.4,222.939L239.7,224.696L241,226.411L242.3,228.081L243.6,229.7L244.9,231.264L246.2,232.77L247.5,234.214L248.8,235.591L250.1,236.9L251.4,238.138L252.7,239.302L254,240.392L255.3,241.408L256.6,242.349L257.9,243.216L259.2,244.012L260.5,244.738L261.8,245.396L263.1,245.991L264.4,246.525L265.7,247.001L267,247.424L268.3,247.798L269.6,248.126L270.9,248.413L272.2,248.663L273.5,248.878L274.8,249.063L276.1,249.222L277.4,249.357L278.7,249.471L280,249.567L280,250L278.7,250L277.4,250L276.1,250L274.8,250L273.5,250L272.2,250L270.9,250L269.6,250L268.3,250L267,250L265.7,250L264.4,250L263.1,250L261.8,250L260.5,250L259.2,250L257.9,250L256.6,250L255.3,250L254,250L252.7,250L251.4,250L250.1,250L248.8,250L247.5,250L246.2,250L244.9,250L243.6,250L242.3,250L241,250L239.7,250L238.4,250L237.1,250L235.8,250L234.5,250L233.2,250L231.9,250L230.6,250L229.3,250L228,250L226.7,250L225.4,250L224.1,250L222.8,250L221.5,250L220.2,250L218.9,250L217.6,250L216.3,250L215,250L213.7,250L212.4,250L211.1,250L209.8,250L208.5,250L207.2,250L205.9,250L204.6,250L203.3,250L202,250L200.7,250L199.4,250L198.1,250L196.8,250L195.5,250L194.2,250L192.9,250L191.6,250L190.3,250L189,250L187.7,250L186.4,250L185.1,250L183.8,250L182.5,250L181.2,250L179.9,250L178.6,250L177.3,250L176,250L174.7,250L173.4,250L172.1,250L170.8,250L169.5,250L168.2,250L166.9,250L165.6,250L164.3,250L163,250L161.7,250L160.4,250L159.1,250L157.8,250L156.5,250L155.2,250L153.9,250L152.6,250L151.3,250L150,250L148.7,250L147.4,250L146.1,250L144.8,250L143.5,250L142.2,250L140.9,250L139.6,250L138.3,250L137,250L135.7,250L134.4,250L133.1,250L131.8,250L130.5,250L129.2,250L127.9,250L126.6,250L125.3,250L124,250L122.7,250L121.4,250L120.1,250L118.8,250L117.5,250L116.2,250L114.9,250L113.6,250L112.3,250L111,250L109.7,250L108.4,250L107.1,250L105.8,250L104.5,250L103.2,250L101.9,250L100.6,250L99.3,250L98,250L96.7,250L95.4,250L94.1,250L92.8,250L91.5,250L90.2,250L88.9,250L87.6,250L86.3,250L85,250L83.7,250L82.4,250L81.1,250L79.8,250L78.5,250L77.2,250L75.9,250L74.6,250L73.3,250L72,250L70.7,250L69.4,250L68.1,250L66.8,250L65.5,250L64.2,250L62.9,250L61.6,250L60.3,250L59,250L57.7,250L56.4,250L55.1,250L53.8,250L52.5,250L51.2,250L49.9,250L48.6,250L47.3,250L46,250L44.7,250L43.4,250L42.1,250L40.8,250L39.5,250L38.2,250L36.9,250L35.6,250L34.3,250L33,250L31.7,250L30.4,250L29.1,250L27.8,250L26.5,250L25.2,250L23.9,250L22.6,250L21.3,250L20,250Z" fill="gold" opacity="0.7"/></g></g><path class="foreground" aria-hidden="true" d="" display="none"/></g></g><g class="mark-group role-title"><g transform="translate(150,-22)"><path class="background" aria-hidden="true" d="M0,0h0v0h0Z" pointer-events="none"/><g><g class="mark-text role-title-text" role="graphics-symbol" aria-roledescription="title" aria-label="Title text 'Age distribution — violin'" pointer-events="none"><text text-anchor="middle" transform="translate(0,10)" font-family="sans-serif" font-size="13px" font-weight="bold" fill="#000" opacity="1">Age distribution — violin</text></g></g><path class="foreground" aria-hidden="true" d="" pointer-events="none" display="none"/></g></g></g><path class="foreground" aria-hidden="true" d="" display="none"/></g><g transform="translate(710,0)"><path class="background" aria-hidden="true" d="M0.5,0.5h300v250h-300Z" stroke="#ddd"/><g><g class="mark-group role-axis" aria-hidden="true"><g transform="translate(0.5,250.5)"><path class="background" aria-hidden="true" d="M0,0h0v0h0Z" pointer-events="none"/><g><g class="mark-rule role-axis-grid" pointer-events="none"><line transform="translate(0,-250)" x2="0" y2="250" stroke="#ddd" stroke-width="1" opacity="1"/><line transform="translate(50,-250)" x2="0" y2="250" stroke="#ddd" stroke-width="1" opacity="1"/><line transform="translate(100,-250)" x2="0" y2="250" stroke="#ddd" stroke-width="1" opacity="1"/><line transform="translate(150,-250)" x2="0" y2="250" stroke="#ddd" stroke-width="1" opacity="1"/><line transform="translate(200,-250)" x2="0" y2="250" stroke="#ddd" stroke-width="1" opacity="1"/><line transform="translate(250,-250)" x2="0" y2="250" stroke="#ddd" stroke-width="1" opacity="1"/><line transform="translate(300,-250)" x2="0" y2="250" stroke="#ddd" stroke-width="1" opacity="1"/></g></g><path class="foreground" aria-hidden="true" d="" pointer-events="none" display="none"/></g></g><g class="mark-group role-axis" aria-hidden="true"><g transform="translate(0.5,0.5)"><path class="background" aria-hidden="true" d="M0,0h0v0h0Z" pointer-events="none"/><g><g class="mark-rule role-axis-grid" pointer-events="none"><line transform="translate(0,250)" x2="300" y2="0" stroke="#ddd" stroke-width="1" opacity="1"/><line transform="translate(0,200)" x2="300" y2="0" stroke="#ddd" stroke-width="1" opacity="1"/><line transform="translate(0,150)" x2="300" y2="0" stroke="#ddd" stroke-width="1" opacity="1"/><line transform="translate(0,100)" x2="300" y2="0" stroke="#ddd" stroke-width="1" opacity="1"/><line transform="translate(0,50)" x2="300" y2="0" stroke="#ddd" stroke-width="1" opacity="1"/><line transform="translate(0,0)" x2="300" y2="0" stroke="#ddd" stroke-width="1" opacity="1"/></g></g><path class="foreground" aria-hidden="true" d="" pointer-events="none" display="none"/></g></g><g class="mark-group role-axis" role="graphics-symbol" aria-roledescription="axis" aria-label="Y-axis for a linear scale with values from 0.0 to 0.5"><g transform="translate(0.5,0.5)"><path class="background" aria-hidden="true" d="M0,0h0v0h0Z" pointer-events="none"/><g><g class="mark-rule role-axis-tick" pointer-events="none"><line transform="translate(0,250)" x2="-5" y2="0" stroke="#888" stroke-width="1" opacity="1"/><line transform="translate(0,200)" x2="-5" y2="0" stroke="#888" stroke-width="1" opacity="1"/><line transform="translate(0,150)" x2="-5" y2="0" stroke="#888" stroke-width="1" opacity="1"/><line transform="translate(0,100)" x2="-5" y2="0" stroke="#888" stroke-width="1" opacity="1"/><line transform="translate(0,50)" x2="-5" y2="0" stroke="#888" stroke-width="1" opacity="1"/><line transform="translate(0,0)" x2="-5" y2="0" stroke="#888" stroke-width="1" opacity="1"/></g><g class="mark-text role-axis-label" pointer-events="none"><text text-anchor="end" transform="translate(-7,253)" font-family="sans-serif" font-size="10px" fill="#000" opacity="1">0.0</text><text text-anchor="end" transform="translate(-7,203)" font-family="sans-serif" font-size="10px" fill="#000" opacity="1">0.1</text><text text-anchor="end" transform="translate(-7,153)" font-family="sans-serif" font-size="10px" fill="#000" opacity="1">0.2</text><text text-anchor="end" transform="translate(-7,103)" font-family="sans-serif" font-size="10px" fill="#000" opacity="1">0.3</text><text text-anchor="end" transform="translate(-7,52.999999999999986)" font-family="sans-serif" font-size="10px" fill="#000" opacity="1">0.4</text><text text-anchor="end" transform="translate(-7,3)" font-family="sans-serif" font-size="10px" fill="#000" opacity="1">0.5</text></g><g class="mark-rule role-axis-domain" pointer-events="none"><line transform="translate(0,250)" x2="0" y2="-250" stroke="#888" stroke-width="1" opacity="1"/></g></g><path class="foreground" aria-hidden="true" d="" pointer-events="none" display="none"/></g></g><g class="mark-group role-scope child_pathgroup" role="graphics-object" aria-roledescription="group mark container"><g transform="translate(0,0)"><path class="background" aria-hidden="true" d="M0,0h300v250h-300Z"/><g><g class="mark-area role-mark child_marks" role="graphics-object" aria-roledescription="area mark container"><path aria-label="Age (years): 14; density: 2.37543289509e-27; GroupDetail: students - university" role="graphics-symbol" aria-roledescription="area mark" d="M20,250L21.3,250L22.6,250L23.9,250L25.2,250L26.5,250L27.8,250L29.1,249.999L30.4,249.98L31.7,249.735L33,248.504L34.3,246.385L35.6,246.204L36.9,247.618L38.2,246.065L39.5,242.274L40.8,242.408L42.1,240.872L43.4,221.624L44.7,197.998L46,207.726L47.3,227.414L48.6,215.481L49.9,196.841L51.2,212.022L52.5,231.289L53.8,222.958L55.1,212.655L56.4,218.057L57.7,179.165L59,58.625L60.3,9.744L61.6,113.038L62.9,171.734L64.2,121.823L65.5,111.395L66.8,180.43L68.1,213.726L69.4,196.602L70.7,199.226L72,227.345L73.3,238.377L74.6,234.006L75.9,236.357L77.2,242.3L78.5,237.635L79.8,229.722L81.1,234.834L82.4,244.442L83.7,246.671L85,245.876L86.3,247.326L87.6,249.252L88.9,249.909L90.2,249.958L91.5,249.434L92.8,246.365L94.1,239.999L95.4,238.226L96.7,244.068L98,248.721L99.3,249.881L100.6,249.964L101.9,249.634L103.2,248.189L104.5,246.161L105.8,246.472L107.1,248.156L108.4,247.628L109.7,245.99L111,246.821L112.3,248.918L113.6,249.842L114.9,249.99L116.2,250L117.5,250L118.8,250L120.1,250L121.4,250L122.7,250L124,250L125.3,250L126.6,250L127.9,250L129.2,250L130.5,250L131.8,250L133.1,250L134.4,250L135.7,250L137,250L138.3,250L139.6,250L140.9,250L142.2,250L143.5,250L144.8,250L146.1,250L147.4,250L148.7,250L150,249.992L151.3,249.869L152.6,249.038L153.9,246.985L155.2,245.943L156.5,247.489L157.8,248.218L159.1,246.606L160.4,246.073L161.7,248.023L163,249.574L164.3,249.959L165.6,249.967L166.9,249.634L168.2,248.189L169.5,246.159L170.8,246.424L172.1,247.661L173.4,245.479L174.7,241.996L176,243.643L177.3,247.835L178.6,249.685L179.9,249.98L181.2,249.999L182.5,250L183.8,250L185.1,249.99L186.4,249.842L187.7,248.918L189,246.821L190.3,245.974L191.6,247.403L192.9,246.806L194.2,242.992L195.5,242.299L196.8,246.066L198.1,247.618L199.4,246.204L200.7,246.385L202,248.504L203.3,249.735L204.6,249.98L205.9,249.999L207.2,250L208.5,250L209.8,250L211.1,250L212.4,250L213.7,250L215,250L216.3,250L217.6,250L218.9,250L220.2,250L221.5,250L222.8,250L224.1,250L225.4,250L226.7,250L228,250L229.3,250L230.6,250L231.9,250L233.2,250L234.5,249.998L235.8,249.951L237.1,249.506L238.4,247.852L239.7,246.006L241,246.822L242.3,248.918L243.6,249.842L244.9,249.99L246.2,250L247.5,250L248.8,250L250.1,250L251.4,250L252.7,250L254,250L255.3,250L256.6,250L257.9,250L259.2,250L260.5,250L261.8,250L263.1,250L264.4,250L265.7,250L267,250L268.3,250L269.6,250L270.9,250L272.2,250L273.5,250L274.8,250L276.1,250L277.4,250L278.7,250L280,250L280,250L278.7,250L277.4,250L276.1,250L274.8,250L273.5,250L272.2,250L270.9,250L269.6,250L268.3,250L267,250L265.7,250L264.4,250L263.1,250L261.8,250L260.5,250L259.2,250L257.9,250L256.6,250L255.3,250L254,250L252.7,250L251.4,250L250.1,250L248.8,250L247.5,250L246.2,250L244.9,250L243.6,250L242.3,250L241,250L239.7,250L238.4,250L237.1,250L235.8,250L234.5,250L233.2,250L231.9,250L230.6,250L229.3,250L228,250L226.7,250L225.4,250L224.1,250L222.8,250L221.5,250L220.2,250L218.9,250L217.6,250L216.3,250L215,250L213.7,250L212.4,250L211.1,250L209.8,250L208.5,250L207.2,250L205.9,250L204.6,250L203.3,250L202,250L200.7,250L199.4,250L198.1,250L196.8,250L195.5,250L194.2,250L192.9,250L191.6,250L190.3,250L189,250L187.7,250L186.4,250L185.1,250L183.8,250L182.5,250L181.2,250L179.9,250L178.6,250L177.3,250L176,250L174.7,250L173.4,250L172.1,250L170.8,250L169.5,250L168.2,250L166.9,250L165.6,250L164.3,250L163,250L161.7,250L160.4,250L159.1,250L157.8,250L156.5,250L155.2,250L153.9,250L152.6,250L151.3,250L150,250L148.7,250L147.4,250L146.1,250L144.8,250L143.5,250L142.2,250L140.9,250L139.6,250L138.3,250L137,250L135.7,250L134.4,250L133.1,250L131.8,250L130.5,250L129.2,250L127.9,250L126.6,250L125.3,250L124,250L122.7,250L121.4,250L120.1,250L118.8,250L117.5,250L116.2,250L114.9,250L113.6,250L112.3,250L111,250L109.7,250L108.4,250L107.1,250L105.8,250L104.5,250L103.2,250L101.9,250L100.6,250L99.3,250L98,250L96.7,250L95.4,250L94.1,250L92.8,250L91.5,250L90.2,250L88.9,250L87.6,250L86.3,250L85,250L83.7,250L82.4,250L81.1,250L79.8,250L78.5,250L77.2,250L75.9,250L74.6,250L73.3,250L72,250L70.7,250L69.4,250L68.1,250L66.8,250L65.5,250L64.2,250L62.9,250L61.6,250L60.3,250L59,250L57.7,250L56.4,250L55.1,250L53.8,250L52.5,250L51.2,250L49.9,250L48.6,250L47.3,250L46,250L44.7,250L43.4,250L42.1,250L40.8,250L39.5,250L38.2,250L36.9,250L35.6,250L34.3,250L33,250L31.7,250L30.4,250L29.1,250L27.8,250L26.5,250L25.2,250L23.9,250L22.6,250L21.3,250L20,250Z" fill="forestgreen" opacity="0.7"/></g></g><path class="foreground" aria-hidden="true" d="" display="none"/></g></g><g class="mark-group role-title"><g transform="translate(150,-22)"><path class="background" aria-hidden="true" d="M0,0h0v0h0Z" pointer-events="none"/><g><g class="mark-text role-title-text" role="graphics-symbol" aria-roledescription="title" aria-label="Title text 'Age distribution — violin'" pointer-events="none"><text text-anchor="middle" transform="translate(0,10)" font-family="sans-serif" font-size="13px" font-weight="bold" fill="#000" opacity="1">Age distribution — violin</text></g></g><path class="foreground" aria-hidden="true" d="" pointer-events="none" display="none"/></g></g></g><path class="foreground" aria-hidden="true" d="" display="none"/></g><g transform="translate(1065,0)"><path class="background" aria-hidden="true" d="M0.5,0.5h300v250h-300Z" stroke="#ddd"/><g><g class="mark-group role-axis" aria-hidden="true"><g transform="translate(0.5,250.5)"><path class="background" aria-hidden="true" d="M0,0h0v0h0Z" pointer-events="none"/><g><g class="mark-rule role-axis-grid" pointer-events="none"><line transform="translate(0,-250)" x2="0" y2="250" stroke="#ddd" stroke-width="1" opacity="1"/><line transform="translate(50,-250)" x2="0" y2="250" stroke="#ddd" stroke-width="1" opacity="1"/><line transform="translate(100,-250)" x2="0" y2="250" stroke="#ddd" stroke-width="1" opacity="1"/><line transform="translate(150,-250)" x2="0" y2="250" stroke="#ddd" stroke-width="1" opacity="1"/><line transform="translate(200,-250)" x2="0" y2="250" stroke="#ddd" stroke-width="1" opacity="1"/><line transform="translate(250,-250)" x2="0" y2="250" stroke="#ddd" stroke-width="1" opacity="1"/><line transform="translate(300,-250)" x2="0" y2="250" stroke="#ddd" stroke-width="1" opacity="1"/></g></g><path class="foreground" aria-hidden="true" d="" pointer-events="none" display="none"/></g></g><g class="mark-group role-axis" aria-hidden="true"><g transform="translate(0.5,0.5)"><path class="background" aria-hidden="true" d="M0,0h0v0h0Z" pointer-events="none"/><g><g class="mark-rule role-axis-grid" pointer-events="none"><line transform="translate(0,250)" x2="300" y2="0" stroke="#ddd" stroke-width="1" opacity="1"/><line transform="translate(0,198)" x2="300" y2="0" stroke="#ddd" stroke-width="1" opacity="1"/><line transform="translate(0,146)" x2="300" y2="0" stroke="#ddd" stroke-width="1" opacity="1"/><line transform="translate(0,94)" x2="300" y2="0" stroke="#ddd" stroke-width="1" opacity="1"/><line transform="translate(0,42)" x2="300" y2="0" stroke="#ddd" stroke-width="1" opacity="1"/></g></g><path class="foreground" aria-hidden="true" d="" pointer-events="none" display="none"/></g></g><g class="mark-group role-axis" role="graphics-symbol" aria-roledescription="axis" aria-label="Y-axis for a linear scale with values from 0.00 to 0.24"><g transform="translate(0.5,0.5)"><path class="background" aria-hidden="true" d="M0,0h0v0h0Z" pointer-events="none"/><g><g class="mark-rule role-axis-tick" pointer-events="none"><line transform="translate(0,250)" x2="-5" y2="0" stroke="#888" stroke-width="1" opacity="1"/><line transform="translate(0,198)" x2="-5" y2="0" stroke="#888" stroke-width="1" opacity="1"/><line transform="translate(0,146)" x2="-5" y2="0" stroke="#888" stroke-width="1" opacity="1"/><line transform="translate(0,94)" x2="-5" y2="0" stroke="#888" stroke-width="1" opacity="1"/><line transform="translate(0,42)" x2="-5" y2="0" stroke="#888" stroke-width="1" opacity="1"/></g><g class="mark-text role-axis-label" pointer-events="none"><text text-anchor="end" transform="translate(-7,253)" font-family="sans-serif" font-size="10px" fill="#000" opacity="1">0.00</text><text text-anchor="end" transform="translate(-7,200.91666666666666)" font-family="sans-serif" font-size="10px" fill="#000" opacity="1">0.05</text><text text-anchor="end" transform="translate(-7,148.83333333333331)" font-family="sans-serif" font-size="10px" fill="#000" opacity="1">0.10</text><text text-anchor="end" transform="translate(-7,96.75)" font-family="sans-serif" font-size="10px" fill="#000" opacity="1">0.15</text><text text-anchor="end" transform="translate(-7,44.66666666666666)" font-family="sans-serif" font-size="10px" fill="#000" opacity="1">0.20</text></g><g class="mark-rule role-axis-domain" pointer-events="none"><line transform="translate(0,250)" x2="0" y2="-250" stroke="#888" stroke-width="1" opacity="1"/></g></g><path class="foreground" aria-hidden="true" d="" pointer-events="none" display="none"/></g></g><g class="mark-group role-scope child_pathgroup" role="graphics-object" aria-roledescription="group mark container"><g transform="translate(0,0)"><path class="background" aria-hidden="true" d="M0,0h300v250h-300Z"/><g><g class="mark-area role-mark child_marks" role="graphics-object" aria-roledescription="area mark container"><path aria-label="Age (years): 14; density: 0.198371521306; GroupDetail: students - secondary" role="graphics-symbol" aria-roledescription="area mark" d="M20,43.363L21.3,17.622L22.6,4.767L23.9,3.576L25.2,13.652L26.5,33.082L27.8,55.805L29.1,73.291L30.4,79.22L31.7,73.089L33,60.86L34.3,52.346L35.6,55.765L36.9,72.81L38.2,98.634L39.5,126.528L40.8,152.146L42.1,173.998L43.4,191.876L44.7,205.96L46,216.779L47.3,225.069L48.6,231.479L49.9,236.493L51.2,240.492L52.5,243.717L53.8,246.225L55.1,247.993L56.4,249.074L57.7,249.633L59,249.876L60.3,249.964L61.6,249.991L62.9,249.998L64.2,250L65.5,250L66.8,250L68.1,250L69.4,250L70.7,250L72,250L73.3,250L74.6,250L75.9,250L77.2,250L78.5,250L79.8,250L81.1,250L82.4,250L83.7,250L85,250L86.3,250L87.6,250L88.9,250L90.2,250L91.5,250L92.8,250L94.1,250L95.4,250L96.7,250L98,250L99.3,250L100.6,250L101.9,250L103.2,250L104.5,250L105.8,250L107.1,250L108.4,250L109.7,250L111,250L112.3,250L113.6,250L114.9,250L116.2,250L117.5,250L118.8,250L120.1,250L121.4,250L122.7,250L124,250L125.3,250L126.6,250L127.9,250L129.2,250L130.5,250L131.8,250L133.1,250L134.4,250L135.7,250L137,249.998L138.3,249.992L139.6,249.968L140.9,249.888L142.2,249.667L143.5,249.162L144.8,248.217L146.1,246.794L147.4,245.125L148.7,243.731L150,243.183L151.3,243.731L152.6,245.125L153.9,246.794L155.2,248.217L156.5,249.162L157.8,249.667L159.1,249.888L160.4,249.968L161.7,249.992L163,249.998L164.3,250L165.6,250L166.9,250L168.2,250L169.5,250L170.8,250L172.1,250L173.4,250L174.7,250L176,250L177.3,250L178.6,250L179.9,250L181.2,250L182.5,250L183.8,250L185.1,250L186.4,250L187.7,250L189,250L190.3,250L191.6,250L192.9,250L194.2,250L195.5,250L196.8,250L198.1,250L199.4,250L200.7,250L202,250L203.3,250L204.6,250L205.9,250L207.2,250L208.5,250L209.8,250L211.1,250L212.4,250L213.7,250L215,250L216.3,250L217.6,250L218.9,250L220.2,250L221.5,250L222.8,250L224.1,250L225.4,250L226.7,250L228,250L229.3,250L230.6,250L231.9,250L233.2,250L234.5,250L235.8,250L237.1,250L238.4,250L239.7,250L241,250L242.3,250L243.6,250L244.9,250L246.2,250L247.5,250L248.8,250L250.1,250L251.4,250L252.7,250L254,250L255.3,250L256.6,250L257.9,250L259.2,250L260.5,250L261.8,250L263.1,250L264.4,250L265.7,250L267,250L268.3,250L269.6,250L270.9,250L272.2,250L273.5,250L274.8,250L276.1,250L277.4,250L278.7,250L280,250L280,250L278.7,250L277.4,250L276.1,250L274.8,250L273.5,250L272.2,250L270.9,250L269.6,250L268.3,250L267,250L265.7,250L264.4,250L263.1,250L261.8,250L260.5,250L259.2,250L257.9,250L256.6,250L255.3,250L254,250L252.7,250L251.4,250L250.1,250L248.8,250L247.5,250L246.2,250L244.9,250L243.6,250L242.3,250L241,250L239.7,250L238.4,250L237.1,250L235.8,250L234.5,250L233.2,250L231.9,250L230.6,250L229.3,250L228,250L226.7,250L225.4,250L224.1,250L222.8,250L221.5,250L220.2,250L218.9,250L217.6,250L216.3,250L215,250L213.7,250L212.4,250L211.1,250L209.8,250L208.5,250L207.2,250L205.9,250L204.6,250L203.3,250L202,250L200.7,250L199.4,250L198.1,250L196.8,250L195.5,250L194.2,250L192.9,250L191.6,250L190.3,250L189,250L187.7,250L186.4,250L185.1,250L183.8,250L182.5,250L181.2,250L179.9,250L178.6,250L177.3,250L176,250L174.7,250L173.4,250L172.1,250L170.8,250L169.5,250L168.2,250L166.9,250L165.6,250L164.3,250L163,250L161.7,250L160.4,250L159.1,250L157.8,250L156.5,250L155.2,250L153.9,250L152.6,250L151.3,250L150,250L148.7,250L147.4,250L146.1,250L144.8,250L143.5,250L142.2,250L140.9,250L139.6,250L138.3,250L137,250L135.7,250L134.4,250L133.1,250L131.8,250L130.5,250L129.2,250L127.9,250L126.6,250L125.3,250L124,250L122.7,250L121.4,250L120.1,250L118.8,250L117.5,250L116.2,250L114.9,250L113.6,250L112.3,250L111,250L109.7,250L108.4,250L107.1,250L105.8,250L104.5,250L103.2,250L101.9,250L100.6,250L99.3,250L98,250L96.7,250L95.4,250L94.1,250L92.8,250L91.5,250L90.2,250L88.9,250L87.6,250L86.3,250L85,250L83.7,250L82.4,250L81.1,250L79.8,250L78.5,250L77.2,250L75.9,250L74.6,250L73.3,250L72,250L70.7,250L69.4,250L68.1,250L66.8,250L65.5,250L64.2,250L62.9,250L61.6,250L60.3,250L59,250L57.7,250L56.4,250L55.1,250L53.8,250L52.5,250L51.2,250L49.9,250L48.6,250L47.3,250L46,250L44.7,250L43.4,250L42.1,250L40.8,250L39.5,250L38.2,250L36.9,250L35.6,250L34.3,250L33,250L31.7,250L30.4,250L29.1,250L27.8,250L26.5,250L25.2,250L23.9,250L22.6,250L21.3,250L20,250Z" fill="red" opacity="0.7"/></g></g><path class="foreground" aria-hidden="true" d="" display="none"/></g></g><g class="mark-group role-title"><g transform="translate(150,-17)"><path class="background" aria-hidden="true" d="M0,0h0v0h0Z" pointer-events="none"/><g><g class="mark-text role-title-text" role="graphics-symbol" aria-roledescription="title" aria-label="Title text 'Age distribution — violin'" pointer-events="none"><text text-anchor="middle" transform="translate(0,10)" font-family="sans-serif" font-size="13px" font-weight="bold" fill="#000" opacity="1">Age distribution — violin</text></g></g><path class="foreground" aria-hidden="true" d="" pointer-events="none" display="none"/></g></g></g><path class="foreground" aria-hidden="true" d="" display="none"/></g></g></g><path class="foreground" aria-hidden="true" d="" display="none"/></g></g></g></svg>